<?xml version="1.0" encoding="UTF-8" standalone="no"?>
<!-- Created with Inkscape (http://www.inkscape.org/) -->

<svg
   xmlns:dc="http://purl.org/dc/elements/1.1/"
   xmlns:cc="http://creativecommons.org/ns#"
   xmlns:rdf="http://www.w3.org/1999/02/22-rdf-syntax-ns#"
   xmlns:svg="http://www.w3.org/2000/svg"
   xmlns="http://www.w3.org/2000/svg"
   xmlns:sodipodi="http://sodipodi.sourceforge.net/DTD/sodipodi-0.dtd"
   xmlns:inkscape="http://www.inkscape.org/namespaces/inkscape"
   width="64"
   height="64"
   viewBox="0 0 64.000001 64.000001"
   id="svg2"
   version="1.1"
   inkscape:version="0.91 r13725"
   sodipodi:docname="drawing.svg">
  <defs
     id="defs4" />
  <sodipodi:namedview
     id="base"
     pagecolor="#ffffff"
     bordercolor="#666666"
     borderopacity="1.0"
     inkscape:pageopacity="0"
     inkscape:pageshadow="2"
     inkscape:zoom="5.1668117"
     inkscape:cx="-8.614428"
     inkscape:cy="7.9277372"
     inkscape:document-units="px"
     inkscape:current-layer="svg2"
     showgrid="false"
     inkscape:window-width="1848"
     inkscape:window-height="1056"
     inkscape:window-x="72"
     inkscape:window-y="0"
     inkscape:window-maximized="1"
     units="px" />
  <metadata
     id="metadata7">
    <rdf:RDF>
      <cc:Work
         rdf:about="">
        <dc:format>image/svg+xml</dc:format>
        <dc:type
           rdf:resource="http://purl.org/dc/dcmitype/StillImage" />
        <dc:title></dc:title>
      </cc:Work>
    </rdf:RDF>
  </metadata>
  <g
     inkscape:label="Vrstva 1"
     inkscape:groupmode="layer"
     id="layer1"
     transform="translate(0,-988.36216)" />
  <g
     id="g4156"
     transform="translate(-5.0106291,0)">
    <path
       transform="matrix(0.79518819,0,0,0.79518819,7.6914837,6.4446736)"
       d="m 30.363281,12.009766 c -3.963968,0.04308 -7.201526,3.331515 -7.179687,7.298828 0.04205,7.442361 0.0278,18.166314 0.02539,25.701172 -3.04e-4,2.921326 1.779764,5.588523 4.478516,6.707031 2.700082,1.119054 5.847692,0.493056 7.914062,-1.572266 l 0.002,-0.002 c 0.0016,-0.0016 0.0023,-0.0023 0.0039,-0.0039 a 2.3300102,2.3300102 0 0 0 0.002,-0.002 l 12.837891,-12.884766 0.0039,-0.0039 a 2.3300102,2.3300102 0 0 0 0.002,-0.002 c 2.802972,-2.810417 2.807194,-7.428711 0.0078,-10.244141 A 2.3300102,2.3300102 0 0 0 48.458984,27 c -0.0042,-0.0042 -0.0075,-0.0075 -0.01172,-0.01172 l -0.002,-0.002 L 35.597656,14.15625 c -1.377601,-1.389264 -3.273971,-2.166866 -5.228515,-2.146484 a 2.3300102,2.3300102 0 0 0 -0.0059,0 z"
       id="path4154"
       style="fill:#b2b2b2;fill-opacity:1;fill-rule:evenodd;stroke:none;stroke-width:1px;stroke-linecap:butt;stroke-linejoin:miter;stroke-opacity:1"
       inkscape:original="M 30.388672 14.339844 C 27.599254 14.370161 25.498302 16.502785 25.513672 19.294922 C 25.555811 26.752888 25.541473 37.477157 25.539062 45.009766 C 25.538849 47.051319 26.695069 48.783204 28.580078 49.564453 C 30.467387 50.346652 32.511684 49.939875 33.955078 48.496094 A 2.6709152 2.6709152 0 0 0 33.958984 48.492188 L 46.798828 35.605469 L 46.802734 35.601562 C 48.775618 33.623438 48.778818 30.62605 46.808594 28.644531 A 2.6709152 2.6709152 0 0 0 46.800781 28.636719 L 33.943359 15.796875 C 32.993108 14.838579 31.741934 14.325773 30.392578 14.339844 A 2.6709152 2.6709152 0 0 0 30.388672 14.339844 z "
       inkscape:radius="2.3297772"
       sodipodi:type="inkscape:offset" />
    <path
       transform="matrix(0.79518819,0,0,0.79518819,7.6914837,6.4446736)"
       d="m 30.388672,14.339844 c -2.789418,0.03032 -4.89037,2.162941 -4.875,4.955078 0.04214,7.457966 0.0278,18.182235 0.02539,25.714844 -2.14e-4,2.041553 1.156007,3.773438 3.041016,4.554687 1.887309,0.782199 3.931606,0.375422 5.375,-1.068359 a 2.6709152,2.6709152 0 0 0 0.0039,-0.0039 l 12.839844,-12.886719 0.0039,-0.0039 c 1.972884,-1.978125 1.976084,-4.975512 0.0059,-6.957031 a 2.6709152,2.6709152 0 0 0 -0.0078,-0.0078 L 33.943359,15.796875 c -0.950251,-0.958296 -2.201425,-1.471102 -3.550781,-1.457031 a 2.6709152,2.6709152 0 0 0 -0.0039,0 z"
       id="path4149"
       style="fill:#ffffff;fill-opacity:1;fill-rule:evenodd;stroke:none;stroke-width:1px;stroke-linecap:butt;stroke-linejoin:miter;stroke-opacity:1"
       inkscape:original="M 30.417969 17.009766 C 29.239356 17.022576 28.177106 18.100633 28.183594 19.279297 C 28.225834 26.755133 28.211394 37.47976 28.208984 45.009766 C 28.208562 45.897039 28.783818 46.757929 29.603516 47.097656 C 30.423257 47.437399 31.439059 47.234937 32.066406 46.607422 L 44.910156 33.716797 C 45.744544 32.881921 45.746309 31.364362 44.914062 30.527344 L 32.046875 17.677734 C 31.622722 17.24999 31.022276 17.003485 30.419922 17.009766 L 30.417969 17.009766 z "
       inkscape:radius="2.6706481"
       sodipodi:type="inkscape:offset" />
    <path
       sodipodi:nodetypes="cccsccccccc"
       inkscape:connector-curvature="0"
       id="path4151"
       d="m 31.879358,19.970594 c -0.937219,0.01019 -1.781908,0.867445 -1.776748,1.804704 0.03359,5.944697 0.02211,14.473019 0.02019,20.460791 -3.35e-4,0.705549 0.457101,1.39012 1.108915,1.660267 0.651848,0.270159 1.459603,0.109163 1.958462,-0.38983 L 43.403509,33.255872 c 0.663496,-0.663883 0.664894,-1.870628 0.0031,-2.536215 L 33.17464,20.501755 C 32.837359,20.161618 32.359891,19.9656 31.880906,19.970594 l -0.0016,0 z"
       style="fill:#2ecc71;fill-opacity:1;fill-rule:evenodd;stroke:none;stroke-width:1px;stroke-linecap:butt;stroke-linejoin:miter;stroke-opacity:1" />
  </g>
</svg>
