<?xml version="1.0" encoding="UTF-8" standalone="no"?>
<svg
   xmlns:dc="http://purl.org/dc/elements/1.1/"
   xmlns:cc="http://creativecommons.org/ns#"
   xmlns:rdf="http://www.w3.org/1999/02/22-rdf-syntax-ns#"
   xmlns:svg="http://www.w3.org/2000/svg"
   xmlns="http://www.w3.org/2000/svg"
   width="64"
   height="64"
   viewBox="0 0 16.933333 16.933333"
   version="1.1"
   id="svg5877">
  <defs
     id="defs5871" />
  <metadata
     id="metadata5874">
    <rdf:RDF>
      <cc:Work
         rdf:about="">
        <dc:format>image/svg+xml</dc:format>
        <dc:type
           rdf:resource="http://purl.org/dc/dcmitype/StillImage" />
        <dc:title></dc:title>
      </cc:Work>
    </rdf:RDF>
  </metadata>
  <path
     d="m 6.7226562,4.203125 c -0.1532029,0.00373 -0.3025904,0.082986 -0.3925781,0.2070312 -0.089988,0.1240456 -0.1182216,0.2907049 -0.074219,0.4375 0.078288,0.2599929 0.1431778,0.4789106 0.1875,0.65625 0.044322,0.1773395 0.070741,0.3095696 0.060547,0.4199219 -0.00842,0.091171 -0.038213,0.1981685 -0.1269531,0.3066407 C 6.288213,6.3389409 6.1461273,6.4542943 5.9042969,6.609375 a 0.10220656,0.10220656 0 0 1 -0.023437,0.011719 C 5.6319667,6.7015946 5.3884523,6.7845288 5.1542969,6.8828125 a 0.10220656,0.10220656 0 0 1 -0.00195,0 c -0.00205,8.669e-4 -0.00382,0.00108 -0.00586,0.00195 a 0.10220656,0.10220656 0 0 1 -0.00195,0.00195 C 4.860684,7.0080189 4.6493821,7.1528027 4.4042969,7.296875 A 0.10220656,0.10220656 0 0 1 4.2773438,7.2792969 L 3.2929688,6.2246094 a 0.10220656,0.10220656 0 0 1 -0.00195,-0.00195 c -0.025071,-0.027347 -0.053499,-0.051123 -0.083984,-0.072266 l -0.00195,-0.00195 C 3.0475245,6.0432532 2.9306247,5.9525093 2.7519531,5.8652344 2.5801149,5.7812777 2.3490254,5.7285156 2.1230469,5.7285156 1.9854042,5.7285156 1.775784,5.72291 1.5214844,5.796875 1.3925098,5.8343864 1.2559756,5.8851993 1.1113281,6.0371094 0.98208326,6.1728086 0.89228609,6.4720225 0.93359375,6.6679688 a 0.10220656,0.10220656 0 0 1 0,0.00195 0.10220656,0.10220656 0 0 1 0.001953,0.00781 v 0.00195 L 1.3945312,8.8496094 c 0.031824,0.1507141 0.050725,0.2200115 0.072266,0.2988281 a 0.10220656,0.10220656 0 0 1 0,0.056641 C 1.4434204,9.281575 1.4239491,9.3358232 1.4023438,9.4453125 L 0.93359375,11.810547 c -0.0386809,0.196017 0.055398,0.502282 0.18554685,0.632812 0.1470003,0.14744 0.2839334,0.18961 0.4140625,0.22461 0.2527185,0.06793 0.4609183,0.0625 0.5898438,0.0625 0.2227571,0 0.4496491,-0.04771 0.6210937,-0.126953 0.1787046,-0.08264 0.295484,-0.169522 0.4550782,-0.271485 0.03779,-0.02442 0.071648,-0.05428 0.1015624,-0.08789 l 0.8828126,-0.980469 a 0.10220656,0.10220656 0 0 1 0.1308593,-0.01758 c 0.2740454,0.171608 0.5078436,0.345367 0.8359375,0.484375 a 0.10220656,0.10220656 0 0 1 0.00195,0 c 0.061827,0.02645 0.1192943,0.053 0.1777343,0.07813 a 0.10220656,0.10220656 0 0 1 0.060547,0.08789 c 8.796e-4,0.01574 0.0035,0.03129 0.00586,0.04687 0.023253,0.142469 0.094355,0.305021 0.2050781,0.419922 0.1035533,0.107304 0.2557909,0.163928 0.4042969,0.150391 0.3051722,-0.02801 0.6099113,-0.118637 0.9160156,-0.21875 a 0.10220656,0.10220656 0 0 1 0.052734,-0.002 c 0.3479116,0.07342 0.6999976,0.137034 1.0664062,0.18164 a 0.10220656,0.10220656 0 0 1 0.00391,0 c 0.041568,0.0045 0.078245,0.01 0.1132812,0.01367 a 0.10220656,0.10220656 0 0 1 0.00195,0 c 0.193817,0.0219 0.3871645,0.03688 0.5820313,0.05078 0.052328,0.0042 0.1069086,0.0099 0.1660156,0.01367 0.00108,4e-6 0.00282,4e-6 0.00391,0 6.935e-4,4.4e-5 0.00126,-4.3e-5 0.00195,0 a 0.10220656,0.10220656 0 0 1 0.00391,0 c 0.2354173,0.01422 0.4770358,0.02722 0.7285156,0.03125 0.00378,4.3e-5 0.00598,4.3e-5 0.00977,0 a 0.10220656,0.10220656 0 0 1 0.00195,0 c 0.018252,-1.54e-4 0.037299,-1.76e-4 0.060547,0 0.00108,4e-6 0.00282,4e-6 0.00391,0 h 0.099609 0.056641 c 0.00162,1.1e-5 0.00424,6e-6 0.00586,0 0.094659,-0.001 0.1875094,-0.0094 0.2812504,-0.01953 a 0.10220656,0.10220656 0 0 1 0.002,0 c 1.400919,-0.143074 2.598417,-1.075935 3.822265,-1.847656 a 0.10220656,0.10220656 0 0 1 0.01758,-0.01367 c 0.09477,-0.06008 0.192062,-0.125948 0.28711,-0.197266 0.02898,-0.02173 0.04873,-0.03692 0.06055,-0.04687 -2.13e-4,2.59e-4 -5e-6,0.002 0,0.002 0,0 -0.0059,0.0078 -0.0059,0.0078 0,0 -0.0039,0.0078 -0.0039,0.0078 0,0 0.0918,0.04492 0.0918,0.04492 l -0.0625,-0.08008 c 0.05519,-0.04332 0.11953,-0.08973 0.191406,-0.152344 0.02481,-0.02166 0.0422,-0.04032 0.05469,-0.05273 0.0062,-0.0062 0.01193,-0.0098 0.01563,-0.01367 0.0034,-0.0035 0.0035,-0.0042 0.01172,-0.01172 7.4e-4,-6.76e-4 -9.09e-4,-0.0011 0,-0.002 a 0.10220656,0.10220656 0 0 1 0.0078,-0.0059 0.10220656,0.10220656 0 0 1 0.002,-0.002 c 0.0016,-0.0015 0.0042,-0.0024 0.0059,-0.0039 0.04713,-0.04332 0.09427,-0.08863 0.146485,-0.140625 0.02965,-0.02959 0.05586,-0.056823 0.07813,-0.080079 0.05412,-0.056399 0.109017,-0.1132628 0.162109,-0.1738281 a 0.10220656,0.10220656 0 0 1 0,-0.00195 c 0.02204,-0.025086 0.03479,-0.041002 0.04492,-0.052734 a 0.10220656,0.10220656 0 0 1 0.002,-0.00195 0.10220656,0.10220656 0 0 1 0.0039,-0.00586 c 0.05285,-0.062281 0.106173,-0.1276984 0.158204,-0.1953125 l 0.002,-0.00195 c 0.0026,-0.00318 0.0099,-0.012879 0.01563,-0.019531 0.0064,-0.00738 0.01602,-0.017984 0.02734,-0.033203 0.04607,-0.06167 0.08795,-0.1249939 0.132812,-0.1914063 a 0.10220656,0.10220656 0 0 1 0.0059,-0.00781 c -0.001,0.00139 -0.0027,3.333e-4 -0.0039,0.00195 0.0036,-0.00585 0.0071,-0.012563 0.01172,-0.019531 a 0.10220656,0.10220656 0 0 1 0.0098,-0.011719 c 0.0024,-0.00261 0.0055,-0.00516 0.0078,-0.00781 l 0.0039,-0.00586 c 8.32e-4,-0.00116 0.0011,-0.00273 0.002,-0.00391 l 0.002,-0.00195 c 0.05136,-0.078281 0.09929,-0.157402 0.146485,-0.2402344 v 0.00391 0.013672 A 0.10220656,0.10220656 0 0 1 15.626953,9 a 0.10220656,0.10220656 0 0 1 0.002,-0.00781 0.10220656,0.10220656 0 0 1 0.002,-0.00195 0.10220656,0.10220656 0 0 1 0,-0.00195 0.10220656,0.10220656 0 0 1 0.002,-0.00195 0.10220656,0.10220656 0 0 1 0.002,-0.00391 0.10220656,0.10220656 0 0 1 0,-0.00195 0.10220656,0.10220656 0 0 1 0.0039,-0.00586 h -0.002 C 15.828852,8.6318074 15.962034,8.3034685 16.001953,7.9648438 16.040976,7.6338223 15.955236,7.1895847 15.597656,6.96875 a 0.10220656,0.10220656 0 0 1 -0.002,-0.00195 c -0.02126,-0.013309 -0.0434,-0.025181 -0.06641,-0.035156 h -0.002 C 14.248923,6.3941589 13.066922,6.2260541 11.914062,6.1445312 a 0.10220656,0.10220656 0 0 1 -0.04883,-0.015625 C 10.455759,5.1924222 8.3955742,4.491853 6.8222656,4.2128906 a 0.10220656,0.10220656 0 0 1 0,-0.00195 c -0.032601,-0.00597 -0.066471,-0.00839 -0.099609,-0.00781 z M 14.4375,10.521484 c 0,0 0.03906,0.09375 0.03906,0.09375 0,0 0.0078,-0.002 0.0078,-0.002 0,0 0.0078,-0.0059 0.0078,-0.0059 0,0 -0.05469,-0.08594 -0.05469,-0.08594 z"
     id="path6535"
     style="fill:#2f2f2f;fill-opacity:1;stroke-width:0.27962467" />
  <path
     id="path6440"
     d="M 9.7236563,6.53097 C 8.3906752,6.55277 7.201869,6.72563 6.1580283,7.04865 5.87898,7.13455 5.6090096,7.23231 5.347457,7.34209 4.8932947,7.53438 4.5205562,7.73939 4.2290456,7.95722 3.6977649,8.36286 3.4317623,8.81468 3.4317623,9.31316 c 0,0.46068 0.233245,0.8803 0.6992839,1.25848 0.303627,0.25125 0.7091232,0.48449 1.2164108,0.69929 0.066573,0.0285 0.1315352,0.0562 0.1954451,0.0836 1.1651105,0.45999 2.5352103,0.70228 4.1104383,0.72697 0.021301,-1.8e-4 0.04502,-1.8e-4 0.070316,0 h 0.097446 0.05592 c 1.2769546,-0.0186 2.5316866,-0.96161 3.8645616,-1.8003 v 0 C 15.065138,9.44233 15.89954,7.74212 15.333139,7.39234 13.39385,6.57655 11.707811,6.63774 9.821102,6.53096 Z"
     style="fill:#686868;fill-opacity:1;stroke-width:0.27962467" />
  <path
     id="path6519"
     d="m 14.033415,8.43947 a 7.5526238,4.4960274 0 0 0 -7.2702267,3.29654 c 0.8719467,0.21233 1.8337258,0.32893 2.8901521,0.34549 0.021301,-1.8e-4 0.04502,-1.8e-4 0.070316,0 h 0.097446 0.05592 c 1.2769546,-0.0186 2.5317336,-0.96184 3.8646096,-1.80053 0.718087,-0.45513 1.289553,-1.16276 1.574081,-1.77174 a 7.5526238,4.4960274 0 0 0 -1.282298,-0.0698 z"
     style="fill:#dddddd;fill-opacity:1;stroke-width:0.27962467" />
  <path
     id="path6515"
     d="m 9.2673147,9.29064 c -1.0185032,0.58382 -1.9856758,0.86243 -2.6901739,0.85817 -0.055921,0.01 -0.1071827,0.0234 -0.153784,0.0419 -0.046601,0.0373 -0.083882,0.0793 -0.111843,0.12582 -0.027961,0.0466 -0.041942,0.0978 -0.041942,0.15378 l -0.3793364,1.39113 c 0.01065,0.0652 0.033953,0.11647 0.069902,0.15378 1.4544218,-0.13371 3.1793921,-1.35238 3.6426976,-2.44494 0,-0.0559 -0.00932,-0.10719 -0.027964,-0.15379 C 9.528275,9.36989 9.477008,9.33259 9.4210865,9.30465 9.3651695,9.27665 9.3139043,9.27205 9.2673031,9.29065"
     style="fill:#505050;fill-opacity:1;stroke-width:0.27962467" />
  <path
     id="path6436"
     d="M 4.2287794,7.95709 2.9285253,6.56523 C 2.5929965,6.34154 2.4779329,6.2297 2.1237369,6.2297 c -0.233006,0 -0.765702,0.0194 -0.6990583,0.33553 l 0.4592309,2.17821 c 0.1658728,0.78676 0.1348456,0.15362 0.00766,0.79813 l -0.4668866,2.36595 c -0.061299,0.31062 0.4660255,0.32155 0.6990583,0.32155 0.3541959,0 0.4692595,-0.10718 0.8047884,-0.32155 L 4.130921,10.57157 C 3.6648821,10.19339 3.4318627,9.77395 3.4318627,9.31326 c 0,-0.49847 0.2656402,-0.95054 0.7969209,-1.35617 z"
     style="fill:#505050;fill-opacity:1;stroke-width:0.27962467" />
  <path
     style="fill:#434343;fill-opacity:1;stroke-width:0.1764465"
     id="path6442"
     d="m 12.575607,7.40765 q 0,0.10586 0.07939,0.18526 0.07939,0.0794 0.185257,0.0794 0.114683,0 0.194078,-0.0794 0.07939,-0.0794 0.07939,-0.18526 0,-0.10585 -0.07939,-0.18528 -0.07939,-0.0794 -0.194078,-0.0794 -0.105856,0 -0.185257,0.0794 -0.07939,0.0794 -0.07939,0.18528 z"
     stroke="none"
     fill="#2C84BF" />
  <path
     id="path6525"
     d="M 6.156151,7.04833 C 6.9446042,6.83724 7.5855862,6.62247 9.7080722,6.58316 10.350603,6.57126 11.050951,6.59506 11.762638,6.62846 10.46954,5.71737 8.2964492,4.98137 6.7348797,4.7045 7.0347405,5.70032 7.3404415,6.30264 6.156151,7.04832 Z"
     style="fill:#505050;fill-opacity:1;fill-rule:evenodd;stroke:none;stroke-width:0.2834785px;stroke-linecap:butt;stroke-linejoin:miter;stroke-opacity:1" />
</svg>
