<?xml version="1.0" encoding="UTF-8" standalone="no"?>
<svg
   xmlns:dc="http://purl.org/dc/elements/1.1/"
   xmlns:cc="http://creativecommons.org/ns#"
   xmlns:rdf="http://www.w3.org/1999/02/22-rdf-syntax-ns#"
   xmlns:svg="http://www.w3.org/2000/svg"
   xmlns="http://www.w3.org/2000/svg"
   xmlns:sodipodi="http://sodipodi.sourceforge.net/DTD/sodipodi-0.dtd"
   xmlns:inkscape="http://www.inkscape.org/namespaces/inkscape"
   width="63.499992mm"
   height="16.933332mm"
   viewBox="0 0 63.499992 16.933332"
   version="1.1"
   id="svg8"
   inkscape:version="1.0.1 (3bc2e813f5, 2020-09-07)"
   sodipodi:docname="wc-to-term.svg">
  <defs
     id="defs2" />
  <sodipodi:namedview
     id="base"
     pagecolor="#ffffff"
     bordercolor="#666666"
     borderopacity="1.0"
     inkscape:pageopacity="0.0"
     inkscape:pageshadow="2"
     inkscape:zoom="1.979899"
     inkscape:cx="142.41615"
     inkscape:cy="55.40652"
     inkscape:document-units="mm"
     inkscape:current-layer="layer1"
     inkscape:document-rotation="0"
     showgrid="false"
     fit-margin-top="0"
     fit-margin-left="0"
     fit-margin-right="0"
     fit-margin-bottom="0"
     inkscape:window-width="1920"
     inkscape:window-height="990"
     inkscape:window-x="1200"
     inkscape:window-y="1467"
     inkscape:window-maximized="1" />
  <metadata
     id="metadata5">
    <rdf:RDF>
      <cc:Work
         rdf:about="">
        <dc:format>image/svg+xml</dc:format>
        <dc:type
           rdf:resource="http://purl.org/dc/dcmitype/StillImage" />
        <dc:title></dc:title>
      </cc:Work>
    </rdf:RDF>
  </metadata>
  <g
     inkscape:label="Layer 1"
     inkscape:groupmode="layer"
     id="layer1"
     transform="translate(338.66666,103.71667)">
    <path
       id="path1150"
       style="fill:#b3b3b3;fill-rule:evenodd;stroke:none;stroke-width:0.529167;stroke-linecap:round;stroke-linejoin:round;stroke-miterlimit:4;stroke-dasharray:none"
       d="m -294.21667,-97.366667 6.51659,-10e-7 v 4.233334 h -6.51659 z"
       sodipodi:nodetypes="ccccc" />
    <path
       id="rect1143"
       style="fill:#ff0000;fill-rule:evenodd;stroke:none;stroke-width:0.529167;stroke-linecap:round;stroke-linejoin:round;stroke-miterlimit:4;stroke-dasharray:none"
       d="m -299.24375,-97.366666 5.02709,-1e-6 2.11666,2.116667 -2.11666,2.116667 h -5.02709 z"
       sodipodi:nodetypes="cccccc" />
    <circle
       style="fill:#b3b3b3;fill-rule:evenodd;stroke:none;stroke-width:0.529167;stroke-linecap:round;stroke-linejoin:round;stroke-miterlimit:4;stroke-dasharray:none"
       id="path1141"
       cx="-283.63333"
       cy="-95.25"
       r="8.4666662" />
    <rect
       style="fill:#ff0000;fill-rule:evenodd;stroke:none;stroke-width:0.264583;stroke-linecap:round;stroke-linejoin:round"
       id="rect1117"
       width="42.333336"
       height="8.4666662"
       x="-338.66666"
       y="-99.48333"
       ry="2.1166666"
       rx="2.1166649" />
    <g
       aria-label="wc -l *.pdb"
       id="text1121"
       style="font-size:5.64444px;line-height:1.25;font-family:'Roboto Mono';-inkscape-font-specification:'Roboto Mono';text-align:center;letter-spacing:0px;word-spacing:0px;text-anchor:middle;fill:#ffffff;stroke-width:0.264583">
      <path
         d="m -334.83571,-93.133331 h -0.51263 l -0.5898,-3.023414 h 0.50436 l 0.36105,2.334395 0.50436,-2.334395 h 0.59807 l 0.49333,2.326127 0.31695,-2.326127 h 0.47405 l -0.55398,3.023414 h -0.52916 l -0.50436,-2.626539 z"
         style="font-style:normal;font-variant:normal;font-weight:normal;font-stretch:normal;font-family:'Oxygen Mono';-inkscape-font-specification:'Oxygen Mono';fill:#ffffff;stroke-width:0.264583"
         id="path875" />
      <path
         d="m -329.85549,-93.331769 q -0.28938,0.26734 -0.82406,0.26734 -0.34176,0 -0.62287,-0.129536 -0.28112,-0.132292 -0.46027,-0.352777 -0.37758,-0.463021 -0.37758,-1.116211 0,-0.421679 0.17088,-0.779969 0.17363,-0.358289 0.50987,-0.581531 0.33624,-0.223242 0.82958,-0.223242 0.49333,0 0.76619,0.261827 l -0.12678,0.336241 q -0.31695,-0.212218 -0.71658,-0.212218 -0.39963,0 -0.66422,0.341753 -0.26182,0.341754 -0.26182,0.87092 0,0.52641 0.26182,0.862651 0.26459,0.336241 0.67249,0.336241 0.41065,0 0.72209,-0.220486 z"
         style="font-style:normal;font-variant:normal;font-weight:normal;font-stretch:normal;font-family:'Oxygen Mono';-inkscape-font-specification:'Oxygen Mono';fill:#ffffff;stroke-width:0.264583"
         id="path877" />
      <path
         d="m -323.10586,-95.412605 v 0.427192 h -1.84657 v -0.427192 z"
         style="font-style:normal;font-variant:normal;font-weight:normal;font-stretch:normal;font-family:'Oxygen Mono';-inkscape-font-specification:'Oxygen Mono';fill:#ffffff;stroke-width:0.264583"
         id="path879" />
      <path
         d="m -319.59186,-93.133331 h -0.39964 q -0.53192,0 -0.76067,-0.110243 -0.13229,-0.06339 -0.20946,-0.146072 -0.20395,-0.212218 -0.21222,-0.937065 v -2.734026 h -0.90399 v -0.385851 h 1.40559 v 3.095072 q 0,0.548459 0.0992,0.672482 0.10198,0.124023 0.25356,0.143316 0.15159,0.01654 0.30868,0.01654 h 0.44373 z"
         style="font-style:normal;font-variant:normal;font-weight:normal;font-stretch:normal;font-family:'Oxygen Mono';-inkscape-font-specification:'Oxygen Mono';fill:#ffffff;stroke-width:0.264583"
         id="path881" />
      <path
         d="m -312.79814,-94.164103 -0.4961,0.286632 -0.70004,-1.110698 -0.68626,1.110698 -0.50161,-0.286632 0.87644,-1.041796 -1.22095,-0.405143 0.25356,-0.496093 1.10795,0.587043 -0.0965,-1.278818 h 0.54019 l -0.0827,1.278818 1.09967,-0.587043 0.25632,0.496093 -1.22645,0.405143 z"
         style="font-style:normal;font-variant:normal;font-weight:normal;font-stretch:normal;font-family:'Oxygen Mono';-inkscape-font-specification:'Oxygen Mono';fill:#ffffff;stroke-width:0.264583"
         id="path883" />
      <path
         d="m -310.18814,-93.133331 h -0.82958 v -0.829579 h 0.82958 z"
         style="font-style:normal;font-variant:normal;font-weight:normal;font-stretch:normal;font-family:'Oxygen Mono';-inkscape-font-specification:'Oxygen Mono';fill:#ffffff;stroke-width:0.264583"
         id="path885" />
      <path
         d="m -307.97226,-94.662953 q 0,1.212673 0.84888,1.212673 0.76343,0 0.76343,-1.212673 0,-0.672482 -0.20671,-0.934309 -0.20395,-0.264583 -0.56499,-0.264583 -0.70556,0 -0.8158,0.815798 -0.0248,0.170877 -0.0248,0.383094 z m 0.86817,1.598524 q -0.29215,0 -0.51814,-0.135048 -0.226,-0.135048 -0.34451,-0.347265 v 1.573718 l -0.50161,0.05512 v -4.238842 h 0.50161 v 0.416167 q 0.13229,-0.225998 0.35277,-0.366557 0.22049,-0.14056 0.49885,-0.14056 0.7469,0 1.06109,0.61736 0.19844,0.391363 0.19844,0.931553 0,0.862652 -0.41617,1.311892 -0.29765,0.322461 -0.83233,0.322461 z"
         style="font-style:normal;font-variant:normal;font-weight:normal;font-stretch:normal;font-family:'Oxygen Mono';-inkscape-font-specification:'Oxygen Mono';fill:#ffffff;stroke-width:0.264583"
         id="path887" />
      <path
         d="m -303.09952,-94.662953 q 0,-0.705555 -0.20946,-0.950845 -0.20946,-0.248047 -0.59531,-0.248047 -0.53468,0 -0.69177,0.529166 -0.0854,0.289388 -0.0854,0.697287 0,1.185112 0.77721,1.185112 0.80477,0 0.80477,-1.212673 z m 0,-1.077625 v -1.650888 l 0.50161,-0.05512 v 4.313257 h -0.50161 v -0.468533 q -0.30592,0.537435 -0.8654,0.537435 -0.63941,0 -0.93156,-0.457509 -0.28938,-0.457508 -0.28938,-1.149283 0,-0.832334 0.42443,-1.267794 0.29766,-0.30868 0.79926,-0.30868 0.34176,0 0.55397,0.14056 0.21498,0.140559 0.30868,0.366557 z"
         style="font-style:normal;font-variant:normal;font-weight:normal;font-stretch:normal;font-family:'Oxygen Mono';-inkscape-font-specification:'Oxygen Mono';fill:#ffffff;stroke-width:0.264583"
         id="path889" />
      <path
         d="m -301.13995,-94.28537 q 0.0496,0.38585 0.23151,0.609092 0.18466,0.223242 0.56224,0.223242 0.50988,0 0.68902,-0.529166 0.0909,-0.278364 0.0909,-0.578776 0,-0.303168 -0.0193,-0.465776 -0.0413,-0.385851 -0.21773,-0.609093 -0.17363,-0.225998 -0.54295,-0.225998 -0.61736,0 -0.75516,0.595312 -0.0579,0.248047 -0.0579,0.531923 0,0.281119 0.0193,0.44924 z m -0.0193,-1.455208 q 0.30593,-0.507117 0.91502,-0.507117 0.61185,0 0.89572,0.440972 0.28663,0.440972 0.28663,1.107941 0,0.873676 -0.41341,1.314648 -0.29765,0.319705 -0.81028,0.319705 -0.339,0 -0.51815,-0.124024 -0.17638,-0.126779 -0.35553,-0.358289 l -0.006,0.413411 h -0.49609 v -4.258135 l 0.5016,-0.05512 z"
         style="font-style:normal;font-variant:normal;font-weight:normal;font-stretch:normal;font-family:'Oxygen Mono';-inkscape-font-specification:'Oxygen Mono';fill:#ffffff;stroke-width:0.264583"
         id="path891" />
    </g>
    <rect
       style="fill:#000000;fill-rule:evenodd;stroke-width:0.264583;stroke-linecap:round;stroke-linejoin:round"
       id="rect1123"
       width="10.583334"
       height="6.3499999"
       x="-288.92502"
       y="-99.21875"
       rx="0.26458246"
       ry="0.26458395" />
    <rect
       style="fill:#ffffff;fill-rule:evenodd;stroke-width:0.264583;stroke-linecap:round;stroke-linejoin:round"
       id="rect1125"
       width="9.5250025"
       height="5.291666"
       x="-288.39584"
       y="-98.689583" />
    <rect
       style="fill:#000000;fill-rule:evenodd;stroke-width:0.264583;stroke-linecap:round;stroke-linejoin:round"
       id="rect1127"
       width="4.2333341"
       height="1.0583335"
       x="-285.75"
       y="-92.339584"
       rx="0.26458246"
       ry="0.26458395" />
    <rect
       style="fill:#000000;fill-rule:evenodd;stroke-width:0.264583;stroke-linecap:round;stroke-linejoin:round"
       id="rect1129"
       width="0.79374939"
       height="1.3229171"
       x="-284.03021"
       y="-93.133331"
       rx="0.26458246"
       ry="0.26458395" />
  </g>
</svg>
