<svg width="418pt" height="404pt" viewBox="0.00 0.00 418.49 404.00" xmlns="http://www.w3.org/2000/svg" xmlns:xlink="http://www.w3.org/1999/xlink">
<g id="graph0" class="graph" transform="scale(1 1) rotate(0) translate(4 400)">
<title>hierarchy</title>
<polygon fill="#ffffff" stroke="transparent" points="-4,4 -4,-400 414.4902,-400 414.4902,4 -4,4"></polygon>
<!-- / -->
<g id="node1" class="node">
<title>/</title>
<polygon fill="none" stroke="#000000" points="246.6606,-396 243.6606,-400 222.6606,-400 219.6606,-396 192.6606,-396 192.6606,-360 246.6606,-360 246.6606,-396"></polygon>
<text text-anchor="middle" x="219.6606" y="-373.8" font-family="Times,serif" font-size="14.00" fill="#000000">/</text>
</g>
<!-- home -->
<g id="node2" class="node">
<title>home</title>
<polygon fill="none" stroke="#000000" points="246.6606,-324 243.6606,-328 222.6606,-328 219.6606,-324 192.6606,-324 192.6606,-288 246.6606,-288 246.6606,-324"></polygon>
<text text-anchor="middle" x="219.6606" y="-301.8" font-family="Times,serif" font-size="14.00" fill="#000000">home</text>
</g>
<!-- /&#45;&gt;home -->
<g id="edge1" class="edge">
<title>/-&gt;home</title>
<path fill="none" stroke="#000000" d="M219.6606,-359.8314C219.6606,-352.131 219.6606,-342.9743 219.6606,-334.4166"></path>
<polygon fill="#000000" stroke="#000000" points="223.1607,-334.4132 219.6606,-324.4133 216.1607,-334.4133 223.1607,-334.4132"></polygon>
</g>
<!-- mh -->
<g id="node3" class="node">
<title>mh</title>
<polygon fill="none" stroke="#000000" points="246.6606,-252 243.6606,-256 222.6606,-256 219.6606,-252 192.6606,-252 192.6606,-216 246.6606,-216 246.6606,-252"></polygon>
<text text-anchor="middle" x="219.6606" y="-229.8" font-family="Times,serif" font-size="14.00" fill="#000000">mh</text>
</g>
<!-- home&#45;&gt;mh -->
<g id="edge2" class="edge">
<title>home-&gt;mh</title>
<path fill="none" stroke="#000000" d="M219.6606,-287.8314C219.6606,-280.131 219.6606,-270.9743 219.6606,-262.4166"></path>
<polygon fill="#000000" stroke="#000000" points="223.1607,-262.4132 219.6606,-252.4133 216.1607,-262.4133 223.1607,-262.4132"></polygon>
</g>
<!-- vec -->
<g id="node4" class="node">
<title>vec</title>
<polygon fill="none" stroke="#000000" points="210.6606,-180 207.6606,-184 186.6606,-184 183.6606,-180 156.6606,-180 156.6606,-144 210.6606,-144 210.6606,-180"></polygon>
<text text-anchor="middle" x="183.6606" y="-157.8" font-family="Times,serif" font-size="14.00" fill="#000000">vec</text>
</g>
<!-- mh&#45;&gt;vec -->
<g id="edge3" class="edge">
<title>mh-&gt;vec</title>
<path fill="none" stroke="#000000" d="M210.5763,-215.8314C206.5991,-207.8771 201.8451,-198.369 197.4467,-189.5723"></path>
<polygon fill="#000000" stroke="#000000" points="200.4699,-187.7923 192.8672,-180.4133 194.2089,-190.9228 200.4699,-187.7923"></polygon>
</g>
<!-- archiv2 -->
<g id="node9" class="node">
<title>archiv2</title>
<polygon fill="none" stroke="#000000" points="283.6606,-180 280.6606,-184 259.6606,-184 256.6606,-180 229.6606,-180 229.6606,-144 283.6606,-144 283.6606,-180"></polygon>
<text text-anchor="middle" x="256.6606" y="-157.8" font-family="Times,serif" font-size="14.00" fill="#000000">archiv</text>
</g>
<!-- mh&#45;&gt;archiv2 -->
<g id="edge8" class="edge">
<title>mh-&gt;archiv2</title>
<path fill="none" stroke="#000000" d="M228.9973,-215.8314C233.0849,-207.8771 237.971,-198.369 242.4915,-189.5723"></path>
<polygon fill="#000000" stroke="#000000" points="245.7405,-190.9074 247.1982,-180.4133 239.5145,-187.7078 245.7405,-190.9074"></polygon>
</g>
<!-- archiv -->
<g id="node5" class="node">
<title>archiv</title>
<polygon fill="none" stroke="#000000" points="166.6606,-108 163.6606,-112 142.6606,-112 139.6606,-108 112.6606,-108 112.6606,-72 166.6606,-72 166.6606,-108"></polygon>
<text text-anchor="middle" x="139.6606" y="-85.8" font-family="Times,serif" font-size="14.00" fill="#000000">archiv</text>
</g>
<!-- vec&#45;&gt;archiv -->
<g id="edge4" class="edge">
<title>vec-&gt;archiv</title>
<path fill="none" stroke="#000000" d="M172.5575,-143.8314C167.5932,-135.7079 161.6384,-125.9637 156.1678,-117.0118"></path>
<polygon fill="#000000" stroke="#000000" points="159.1142,-115.121 150.9132,-108.4133 153.1412,-118.7712 159.1142,-115.121"></polygon>
</g>
<!-- 2020&#45;09&#45;01 -->
<g id="node6" class="node">
<title>2020-09-01</title>
<polygon fill="none" stroke="#000000" points="81.4824,-36 78.4824,-40 57.4824,-40 54.4824,-36 -.1612,-36 -.1612,0 81.4824,0 81.4824,-36"></polygon>
<text text-anchor="middle" x="40.6606" y="-13.8" font-family="Times,serif" font-size="14.00" fill="#000000">2020-09-01</text>
</g>
<!-- archiv&#45;&gt;2020&#45;09&#45;01 -->
<g id="edge5" class="edge">
<title>archiv-&gt;2020-09-01</title>
<path fill="none" stroke="#000000" d="M114.6787,-71.8314C102.3678,-62.8779 87.3499,-51.9558 74.0669,-42.2955"></path>
<polygon fill="#000000" stroke="#000000" points="75.7805,-39.214 65.6345,-36.1628 71.6633,-44.8752 75.7805,-39.214"></polygon>
</g>
<!-- 2020&#45;09&#45;16 -->
<g id="node7" class="node">
<title>2020-09-16</title>
<polygon fill="none" stroke="#000000" points="180.4824,-36 177.4824,-40 156.4824,-40 153.4824,-36 98.8388,-36 98.8388,0 180.4824,0 180.4824,-36"></polygon>
<text text-anchor="middle" x="139.6606" y="-13.8" font-family="Times,serif" font-size="14.00" fill="#000000">2020-09-16</text>
</g>
<!-- archiv&#45;&gt;2020&#45;09&#45;16 -->
<g id="edge6" class="edge">
<title>archiv-&gt;2020-09-16</title>
<path fill="none" stroke="#000000" d="M139.6606,-71.8314C139.6606,-64.131 139.6606,-54.9743 139.6606,-46.4166"></path>
<polygon fill="#000000" stroke="#000000" points="143.1607,-46.4132 139.6606,-36.4133 136.1607,-46.4133 143.1607,-46.4132"></polygon>
</g>
<!-- 2020&#45;10&#45;01 -->
<g id="node8" class="node">
<title>2020-10-01</title>
<polygon fill="none" stroke="#000000" points="279.4824,-36 276.4824,-40 255.4824,-40 252.4824,-36 197.8388,-36 197.8388,0 279.4824,0 279.4824,-36"></polygon>
<text text-anchor="middle" x="238.6606" y="-13.8" font-family="Times,serif" font-size="14.00" fill="#000000">2020-10-01</text>
</g>
<!-- archiv&#45;&gt;2020&#45;10&#45;01 -->
<g id="edge7" class="edge">
<title>archiv-&gt;2020-10-01</title>
<path fill="none" stroke="#000000" d="M164.6425,-71.8314C176.9534,-62.8779 191.9713,-51.9558 205.2543,-42.2955"></path>
<polygon fill="#000000" stroke="#000000" points="207.6579,-44.8752 213.6867,-36.1628 203.5407,-39.214 207.6579,-44.8752"></polygon>
</g>
<!-- original -->
<g id="node10" class="node">
<title>original</title>
<polygon fill="none" stroke="#000000" points="244.2093,-108 241.2093,-112 220.2093,-112 217.2093,-108 185.1119,-108 185.1119,-72 244.2093,-72 244.2093,-108"></polygon>
<text text-anchor="middle" x="214.6606" y="-85.8" font-family="Times,serif" font-size="14.00" fill="#000000">original</text>
</g>
<!-- archiv2&#45;&gt;original -->
<g id="edge9" class="edge">
<title>archiv2-&gt;original</title>
<path fill="none" stroke="#000000" d="M246.0622,-143.8314C241.3729,-135.7925 235.7578,-126.1666 230.5808,-117.2918"></path>
<polygon fill="#000000" stroke="#000000" points="233.4637,-115.2875 225.4017,-108.4133 227.4172,-118.8146 233.4637,-115.2875"></polygon>
</g>
<!-- pnas_final -->
<g id="node11" class="node">
<title>pnas_final</title>
<polygon fill="none" stroke="#000000" points="336.9769,-108 333.9769,-112 312.9769,-112 309.9769,-108 262.3443,-108 262.3443,-72 336.9769,-72 336.9769,-108"></polygon>
<text text-anchor="middle" x="299.6606" y="-85.8" font-family="Times,serif" font-size="14.00" fill="#000000">pnas_final</text>
</g>
<!-- archiv2&#45;&gt;pnas_final -->
<g id="edge10" class="edge">
<title>archiv2-&gt;pnas_final</title>
<path fill="none" stroke="#000000" d="M267.5113,-143.8314C272.3629,-135.7079 278.1823,-125.9637 283.5286,-117.0118"></path>
<polygon fill="#000000" stroke="#000000" points="286.5412,-118.7933 288.6638,-108.4133 280.5314,-115.2041 286.5412,-118.7933"></polygon>
</g>
<!-- pnas_2 -->
<g id="node12" class="node">
<title>pnas_2</title>
<polygon fill="none" stroke="#000000" points="410.3208,-108 407.3208,-112 386.3208,-112 383.3208,-108 355.0004,-108 355.0004,-72 410.3208,-72 410.3208,-108"></polygon>
<text text-anchor="middle" x="382.6606" y="-85.8" font-family="Times,serif" font-size="14.00" fill="#000000">pnas_2</text>
</g>
<!-- archiv2&#45;&gt;pnas_2 -->
<g id="edge11" class="edge">
<title>archiv2-&gt;pnas_2</title>
<path fill="none" stroke="#000000" d="M283.6908,-146.5542C301.8757,-136.1628 326.0738,-122.3353 345.9906,-110.9543"></path>
<polygon fill="#000000" stroke="#000000" points="347.8574,-113.9187 354.8034,-105.9184 344.3844,-107.841 347.8574,-113.9187"></polygon>
</g>
</g>
</svg>
