<?xml version="1.0" encoding="UTF-8" standalone="no"?>
<svg
   xmlns:dc="http://purl.org/dc/elements/1.1/"
   xmlns:cc="http://creativecommons.org/ns#"
   xmlns:rdf="http://www.w3.org/1999/02/22-rdf-syntax-ns#"
   xmlns:svg="http://www.w3.org/2000/svg"
   xmlns="http://www.w3.org/2000/svg"
   xmlns:sodipodi="http://sodipodi.sourceforge.net/DTD/sodipodi-0.dtd"
   xmlns:inkscape="http://www.inkscape.org/namespaces/inkscape"
   sodipodi:docname="call-anatomy.svg"
   inkscape:version="1.0beta2 (unknown)"
   id="svg8"
   version="1.1"
   viewBox="0 0 71.175235 42.234418"
   height="159.62614"
   width="269.00876">
  <defs
     id="defs2" />
  <sodipodi:namedview
     inkscape:document-rotation="0"
     inkscape:window-maximized="1"
     inkscape:window-y="27"
     inkscape:window-x="1920"
     inkscape:window-height="990"
     inkscape:window-width="1920"
     units="px"
     fit-margin-bottom="5"
     fit-margin-right="5"
     fit-margin-left="5"
     fit-margin-top="5"
     showgrid="false"
     inkscape:current-layer="layer1"
     inkscape:document-units="mm"
     inkscape:cy="151.02893"
     inkscape:cx="286.9824"
     inkscape:zoom="1.6311668"
     inkscape:pageshadow="2"
     inkscape:pageopacity="0.0"
     borderopacity="1.0"
     bordercolor="#666666"
     pagecolor="#ffffff"
     id="base" />
  <metadata
     id="metadata5">
    <rdf:RDF>
      <cc:Work
         rdf:about="">
        <dc:format>image/svg+xml</dc:format>
        <dc:type
           rdf:resource="http://purl.org/dc/dcmitype/StillImage" />
        <dc:title></dc:title>
      </cc:Work>
    </rdf:RDF>
  </metadata>
  <g
     transform="translate(-11.247011,-120.88544)"
     id="layer1"
     inkscape:groupmode="layer"
     inkscape:label="Layer 1">
    <rect
       rx="0.79646826"
       ry="0.63371336"
       y="131.68793"
       x="12.702219"
       height="12.213675"
       width="68.264816"
       id="rect854"
       style="opacity:1;fill:#e6e6e6;fill-opacity:1;stroke:#cccccc;stroke-width:0.26458332;stroke-linecap:square;stroke-miterlimit:4;stroke-dasharray:none;stroke-opacity:1" />
    <g
       style="font-style:normal;font-variant:normal;font-weight:normal;font-stretch:normal;font-size:5.64444px;line-height:1.25;font-family:'Roboto Mono';-inkscape-font-specification:'Roboto Mono';letter-spacing:0px;word-spacing:0px;fill:#000000;fill-opacity:1;stroke:none;stroke-width:0.264583"
       id="text817"
       aria-label="delka = len('Ahoj')">
      <path
         id="path1462"
         style="font-style:normal;font-variant:normal;font-weight:normal;font-stretch:normal;font-family:'Oxygen Mono';-inkscape-font-specification:'Oxygen Mono';stroke-width:0.264583"
         d="m 16.831968,138.6468 q 0,-0.70555 -0.209461,-0.95084 -0.209462,-0.24805 -0.595312,-0.24805 -0.534679,0 -0.691775,0.52916 -0.08544,0.28939 -0.08544,0.69729 0,1.18511 0.777213,1.18511 0.804773,0 0.804773,-1.21267 z m 0,-1.07762 v -1.65089 l 0.501606,-0.0551 v 4.31325 h -0.501606 v -0.46853 q -0.305924,0.53743 -0.865407,0.53743 -0.639409,0 -0.931553,-0.4575 -0.289388,-0.45751 -0.289388,-1.14929 0,-0.83233 0.424436,-1.26779 0.297656,-0.30868 0.799261,-0.30868 0.341753,0 0.553971,0.14056 0.214974,0.14056 0.30868,0.36656 z" />
      <path
         id="path1464"
         style="font-style:normal;font-variant:normal;font-weight:normal;font-stretch:normal;font-family:'Oxygen Mono';-inkscape-font-specification:'Oxygen Mono';stroke-width:0.264583"
         d="m 18.926585,140.03586 q -0.316949,-0.21222 -0.471289,-0.56775 -0.151584,-0.35829 -0.151584,-0.80753 0,-0.44924 0.14056,-0.80477 0.143316,-0.35829 0.424435,-0.57602 0.283876,-0.22049 0.622873,-0.22049 0.639409,0 0.937065,0.43822 0.297656,0.43821 0.297656,1.07762 v 0.16812 H 18.81083 q 0.01654,0.46578 0.23151,0.791 0.21773,0.32521 0.650434,0.32521 0.289387,-0.0276 0.807529,-0.31419 l 0.165365,0.34175 q -0.35829,0.35829 -0.978407,0.35829 -0.443728,0 -0.760676,-0.20946 z m 1.320159,-1.65915 q -0.05512,-0.9288 -0.650433,-0.9288 -0.672482,0 -0.768945,0.9288 z" />
      <path
         id="path1466"
         style="font-style:normal;font-variant:normal;font-weight:normal;font-stretch:normal;font-family:'Oxygen Mono';-inkscape-font-specification:'Oxygen Mono';stroke-width:0.264583"
         d="m 24.050127,140.17642 h -0.399631 q -0.531922,0 -0.760676,-0.11024 -0.132292,-0.0634 -0.209462,-0.14607 -0.203949,-0.21222 -0.212218,-0.93707 v -2.73402 h -0.903992 v -0.38585 h 1.405598 v 3.09507 q 0,0.54846 0.09922,0.67248 0.101974,0.12402 0.253558,0.14332 0.151585,0.0165 0.308681,0.0165 h 0.443728 z" />
      <path
         id="path1468"
         style="font-style:normal;font-variant:normal;font-weight:normal;font-stretch:normal;font-family:'Oxygen Mono';-inkscape-font-specification:'Oxygen Mono';stroke-width:0.264583"
         d="m 25.654162,138.37946 1.339452,-1.22645 h 0.633897 l -1.34772,1.25401 1.532377,1.7694 h -0.628385 l -1.259526,-1.53789 -0.270095,0.23703 v 1.30086 h -0.501605 v -4.25813 l 0.501605,-0.0551 z" />
      <path
         id="path1470"
         style="font-style:normal;font-variant:normal;font-weight:normal;font-stretch:normal;font-family:'Oxygen Mono';-inkscape-font-specification:'Oxygen Mono';stroke-width:0.264583"
         d="m 30.300904,139.50118 v -0.7717 l -0.410655,0.0579 q -0.429948,0.0606 -0.595312,0.12127 -0.369314,0.14056 -0.369314,0.47129 0,0.22875 0.132291,0.3638 0.132292,0.13505 0.363802,0.13505 0.509874,0 0.879188,-0.37759 z m 0,-1.40835 q 0,-0.64768 -0.548459,-0.64768 -0.259071,0 -0.573264,0.0606 -0.311436,0.0606 -0.438215,0.11575 l -0.118512,-0.36931 q 0.570508,-0.19017 1.072113,-0.19017 0.501606,0 0.804774,0.22875 0.303168,0.22876 0.303168,0.70556 v 2.18005 h -0.416167 l -0.06615,-0.35002 q -0.176389,0.17915 -0.454752,0.30041 -0.275607,0.11851 -0.540191,0.11851 -0.383094,0 -0.636653,-0.22875 -0.253559,-0.23151 -0.253559,-0.65043 0,-0.42168 0.330729,-0.61736 0.223242,-0.13781 0.474045,-0.18742 0.253559,-0.0524 0.658702,-0.10197 l 0.402387,-0.0469 z" />
      <path
         id="path1472"
         style="font-style:normal;font-variant:normal;font-weight:normal;font-stretch:normal;font-family:'Oxygen Mono';-inkscape-font-specification:'Oxygen Mono';stroke-width:0.264583"
         d="M 38.028936,138.9169 H 34.83189 v -0.4079 h 3.197046 z m -0.0028,-1.21543 h -3.197047 v -0.41341 h 3.197047 z" />
      <path
         id="path1474"
         style="font-style:normal;font-variant:normal;font-weight:normal;font-stretch:normal;font-family:'Oxygen Mono';-inkscape-font-specification:'Oxygen Mono';stroke-width:0.264583"
         d="m 44.373419,140.17642 h -0.39963 q -0.531923,0 -0.760677,-0.11024 -0.132292,-0.0634 -0.209462,-0.14607 -0.203949,-0.21222 -0.212217,-0.93707 v -2.73402 H 41.88744 v -0.38585 h 1.405598 v 3.09507 q 0,0.54846 0.09922,0.67248 0.101975,0.12402 0.253559,0.14332 0.151584,0.0165 0.30868,0.0165 h 0.443728 z" />
      <path
         id="path1476"
         style="font-style:normal;font-variant:normal;font-weight:normal;font-stretch:normal;font-family:'Oxygen Mono';-inkscape-font-specification:'Oxygen Mono';stroke-width:0.264583"
         d="m 46.024307,140.03586 q -0.316948,-0.21222 -0.471289,-0.56775 -0.151584,-0.35829 -0.151584,-0.80753 0,-0.44924 0.14056,-0.80477 0.143316,-0.35829 0.424436,-0.57602 0.283875,-0.22049 0.622872,-0.22049 0.63941,0 0.937066,0.43822 0.297656,0.43821 0.297656,1.07762 v 0.16812 h -1.915472 q 0.01654,0.46578 0.23151,0.791 0.21773,0.32521 0.650434,0.32521 0.289388,-0.0276 0.80753,-0.31419 l 0.165364,0.34175 q -0.35829,0.35829 -0.978406,0.35829 -0.443728,0 -0.760677,-0.20946 z m 1.32016,-1.65915 q -0.05512,-0.9288 -0.650434,-0.9288 -0.672482,0 -0.768944,0.9288 z" />
      <path
         id="path1478"
         style="font-style:normal;font-variant:normal;font-weight:normal;font-stretch:normal;font-family:'Oxygen Mono';-inkscape-font-specification:'Oxygen Mono';stroke-width:0.264583"
         d="m 50.24937,137.06206 q 0.939822,0 0.939822,1.19062 v 1.92374 h -0.501606 v -1.8631 q 0,-0.31971 -0.03307,-0.45751 -0.03307,-0.13781 -0.09922,-0.226 -0.14056,-0.1819 -0.460265,-0.1819 -0.322461,0 -0.545703,0.18741 -0.223242,0.18741 -0.223242,0.49609 v 2.04501 H 48.82448 v -3.02341 h 0.460264 l 0.02756,0.32797 q 0.300412,-0.41892 0.937065,-0.41892 z" />
      <path
         id="path1480"
         style="font-style:normal;font-variant:normal;font-weight:normal;font-stretch:normal;font-family:'Oxygen Mono';-inkscape-font-specification:'Oxygen Mono';stroke-width:0.264583"
         d="m 53.567683,140.59535 q -0.840603,-1.12173 -0.840603,-2.54386 0,-1.42489 0.832335,-2.57417 h 0.485069 q -0.782725,1.23472 -0.782725,2.54661 0,0.73587 0.203949,1.35323 0.206706,0.61736 0.584288,1.21819 z" />
      <path
         id="path1482"
         style="fill:#b83838;fill-opacity:1"
         d="m 56.596608,137.50579 -0.170876,-1.68397 h 0.713823 l -0.151584,1.68397 z" />
      <path
         id="path1484"
         style="fill:#b83838;fill-opacity:1"
         d="m 59.666874,138.43734 h 0.942578 l -0.463021,-1.78318 z m 0.763433,-2.37022 1.215429,4.1093 h -0.542947 l -0.388607,-1.32567 h -1.154795 l -0.38585,1.32567 h -0.540191 l 1.212673,-4.1093 z" />
      <path
         id="path1486"
         style="fill:#b83838;fill-opacity:1"
         d="m 64.710493,138.3519 v 1.82452 h -0.501605 v -1.76113 q 0,-0.56775 -0.151584,-0.76619 -0.151584,-0.20119 -0.457509,-0.20119 -0.30868,0 -0.537434,0.21497 -0.225998,0.21222 -0.225998,0.45751 v 2.05603 h -0.501606 v -4.25813 l 0.501606,-0.0551 v 1.6564 q 0.352777,-0.45751 0.945333,-0.45751 0.928797,0 0.928797,1.28984 z" />
      <path
         id="path1488"
         style="fill:#b83838;fill-opacity:1"
         d="m 66.907084,139.85947 q 0.52641,0 0.716579,-0.52365 0.101975,-0.28112 0.101975,-0.57602 0,-0.29766 -0.02205,-0.46302 -0.04961,-0.37483 -0.239778,-0.61185 -0.187413,-0.23702 -0.556727,-0.23702 -0.51263,0 -0.700043,0.53468 -0.09922,0.28663 -0.09922,0.60082 0,0.55673 0.173633,0.91777 0.173633,0.35829 0.625629,0.35829 z m 0.992187,-2.35644 q 0.327973,0.44097 0.327973,1.15204 0,0.71107 -0.355534,1.15204 -0.355534,0.43821 -0.964626,0.43821 -0.325217,0 -0.578776,-0.12402 -0.253558,-0.12402 -0.410655,-0.34175 -0.316948,-0.43822 -0.316948,-1.14102 0,-0.7028 0.350021,-1.13826 0.350022,-0.43821 0.983919,-0.43821 0.636653,0 0.964626,0.44097 z" />
      <path
         id="path1490"
         style="fill:#b83838;fill-opacity:1"
         d="m 69.803717,140.78276 q 0.26734,0 0.355534,-0.0469 0.09095,-0.0469 0.129535,-0.0965 0.09646,-0.13505 0.09646,-0.6587 v -2.44188 h -1.077625 v -0.38585 h 1.579231 v 2.67339 q 0,0.70556 -0.112999,0.93431 -0.110243,0.22875 -0.300413,0.30317 -0.270095,0.10473 -0.66697,0.10473 h -0.724847 v -0.38585 z m 0.493338,-4.42626 v -0.27285 q 0,-0.0992 0.110243,-0.17363 0.112999,-0.0772 0.223242,-0.0772 0.110243,0 0.220486,0.0772 0.112999,0.0744 0.112999,0.17363 v 0.27285 q 0,0.0992 -0.112999,0.17639 -0.110243,0.0744 -0.220486,0.0744 -0.110243,0 -0.223242,-0.0744 -0.110243,-0.0772 -0.110243,-0.17639 z" />
      <path
         id="path1492"
         style="fill:#b83838;fill-opacity:1"
         d="m 73.532685,137.50579 -0.170876,-1.68397 h 0.713823 l -0.151584,1.68397 z" />
      <path
         id="path1494"
         style="font-style:normal;font-variant:normal;font-weight:normal;font-stretch:normal;font-family:'Oxygen Mono';-inkscape-font-specification:'Oxygen Mono';stroke-width:0.264583"
         d="m 76.795877,135.47732 q 0.832334,1.14928 0.832334,2.57417 0,1.42213 -0.840603,2.54386 h -0.485069 q 0.377582,-0.60083 0.581532,-1.21819 0.206706,-0.61736 0.206706,-1.35323 0,-1.31189 -0.782726,-2.54661 z" />
    </g>
    <g
       style="font-style:normal;font-variant:normal;font-weight:normal;font-stretch:normal;font-size:5.64444px;line-height:1.25;font-family:'Roboto Mono';-inkscape-font-specification:'Roboto Mono';letter-spacing:0px;word-spacing:0px;fill:#800000;fill-opacity:1;stroke:none;stroke-width:0.264583"
       id="text831"
       aria-label="Argument">
      <path
         id="path1497"
         style="font-style:normal;font-variant:normal;font-weight:normal;font-stretch:normal;font-family:Oxygen;-inkscape-font-specification:Oxygen;fill:#800000;stroke-width:0.264583"
         d="m 54.658804,150.43315 q -0.581531,-1.68947 -0.642165,-1.89893 0,0 -0.669726,1.89893 z m 0.631141,1.69223 -0.476801,-1.2926 h -1.626083 l -0.493338,1.2926 h -0.485069 l 1.56545,-4.0845 h 0.487826 l 1.518597,4.0845 z" />
      <path
         id="path1499"
         style="font-style:normal;font-variant:normal;font-weight:normal;font-stretch:normal;font-family:Oxygen;-inkscape-font-specification:Oxygen;fill:#800000;stroke-width:0.264583"
         d="m 57.538902,149.07441 q 0.124023,0 0.225998,0.0165 l -0.01654,0.42444 q -0.12678,-0.0221 -0.220486,-0.0221 -0.385851,0 -0.628385,0.2701 -0.239779,0.26733 -0.239779,0.66421 v 1.69774 H 56.19945 q -0.0028,-2.78363 -0.0028,-3.02341 h 0.383094 l 0.0441,0.54294 q 0.157097,-0.25631 0.399631,-0.41341 0.242535,-0.15709 0.515386,-0.15709 z" />
      <path
         id="path1501"
         style="font-style:normal;font-variant:normal;font-weight:normal;font-stretch:normal;font-family:Oxygen;-inkscape-font-specification:Oxygen;fill:#800000;stroke-width:0.264583"
         d="m 59.349643,151.73126 q 0.234266,0 0.410655,-0.0827 0.176389,-0.0827 0.275607,-0.22875 0.09922,-0.14608 0.146072,-0.32522 0.04961,-0.17915 0.04961,-0.39136 v -0.22324 q 0,-0.22049 -0.04961,-0.40515 -0.04961,-0.18741 -0.15434,-0.33348 -0.101975,-0.14883 -0.275607,-0.23151 -0.170877,-0.0827 -0.399631,-0.0827 -0.190169,0 -0.347266,0.0717 -0.15434,0.0717 -0.256314,0.19017 -0.09922,0.11576 -0.170877,0.27285 -0.0689,0.15434 -0.09922,0.3142 -0.03032,0.15985 -0.03032,0.32246 0,0.15985 0.03307,0.31694 0.03307,0.1571 0.104731,0.30593 0.07166,0.14883 0.173633,0.26183 0.101975,0.11024 0.253559,0.17914 0.15434,0.0689 0.336241,0.0689 z m -0.708311,1.77767 -0.04134,-0.41617 h 0.562239 q 0.234266,0 0.407899,-0.0331 0.173632,-0.0331 0.289387,-0.11024 0.115756,-0.0744 0.187414,-0.16812 0.07166,-0.0909 0.107486,-0.23978 0.03859,-0.14607 0.04961,-0.29215 0.01378,-0.14331 0.01378,-0.35277 v -0.26734 q -0.165364,0.23702 -0.383094,0.36656 -0.21773,0.12678 -0.553971,0.12678 -0.259071,0 -0.479557,-0.0882 -0.21773,-0.0909 -0.369314,-0.23978 -0.148828,-0.14883 -0.256315,-0.34451 -0.104731,-0.19568 -0.15434,-0.40514 -0.04685,-0.20946 -0.04685,-0.42168 0,-0.33073 0.07993,-0.61185 0.08268,-0.28112 0.242534,-0.5016 0.159853,-0.22049 0.418924,-0.34451 0.261827,-0.12678 0.598068,-0.12678 0.297656,0 0.518142,0.11575 0.223242,0.113 0.39963,0.35002 v -0.40238 h 0.449241 v 2.80568 q 0,0.19293 -0.01103,0.33624 -0.0083,0.14607 -0.04685,0.32246 -0.03583,0.17639 -0.09922,0.30317 -0.06339,0.12678 -0.179144,0.25356 -0.113,0.12954 -0.272852,0.20671 -0.157096,0.0799 -0.391362,0.12953 -0.234267,0.0496 -0.529167,0.0496 z" />
      <path
         id="path1503"
         style="font-style:normal;font-variant:normal;font-weight:normal;font-stretch:normal;font-family:Oxygen;-inkscape-font-specification:Oxygen;fill:#800000;stroke-width:0.264583"
         d="m 61.342284,151.11666 v -2.01469 h 0.463021 v 2.0202 q 0,0.19844 0.05512,0.33624 0.05788,0.13781 0.162609,0.21498 0.107487,0.0744 0.239778,0.10748 0.135048,0.0331 0.30868,0.0331 0.35829,0 0.556727,-0.1571 0.201194,-0.1571 0.201194,-0.53468 v -2.0202 h 0.46302 v 2.01469 q 0,0.23151 -0.06614,0.41617 -0.06615,0.18465 -0.179145,0.30868 -0.110243,0.12126 -0.267339,0.20119 -0.157097,0.0799 -0.333485,0.11575 -0.173633,0.0358 -0.374827,0.0358 -0.198437,0 -0.374826,-0.0358 -0.176388,-0.0358 -0.336241,-0.11575 -0.157096,-0.0827 -0.272851,-0.20395 -0.112999,-0.12402 -0.179145,-0.30868 -0.06615,-0.18466 -0.06615,-0.41341 z" />
      <path
         id="path1505"
         style="font-style:normal;font-variant:normal;font-weight:normal;font-stretch:normal;font-family:Oxygen;-inkscape-font-specification:Oxygen;fill:#800000;stroke-width:0.264583"
         d="m 68.317909,152.12538 v -1.57372 q 0,-0.22048 -0.01103,-0.36931 -0.0083,-0.14883 -0.0441,-0.30317 -0.03307,-0.15434 -0.09646,-0.24253 -0.06063,-0.0909 -0.170877,-0.14608 -0.110243,-0.0579 -0.264583,-0.0579 -0.303168,0 -0.518142,0.16261 -0.212218,0.1626 -0.303168,0.4575 -0.02481,0.19844 -0.02481,0.42444 v 1.64813 h -0.460264 v -1.62333 q 0,-0.20395 -0.01378,-0.35277 -0.01378,-0.15159 -0.05236,-0.29215 -0.03858,-0.14331 -0.104731,-0.23151 -0.06339,-0.0882 -0.170877,-0.14056 -0.107487,-0.0524 -0.256315,-0.0524 -0.330728,0 -0.556727,0.16812 -0.223242,0.16812 -0.300412,0.44648 -0.0248,0.21222 -0.0248,0.46027 v 1.61781 h -0.460265 q -0.0055,-2.836 -0.0055,-3.02341 h 0.385851 l 0.05788,0.4327 q 0.137804,-0.20946 0.391363,-0.35278 0.253558,-0.14331 0.576019,-0.14331 0.168121,0 0.308681,0.0358 0.143315,0.0331 0.237022,0.0854 0.09646,0.0524 0.170877,0.12677 0.07441,0.0717 0.115755,0.14332 0.04134,0.0689 0.0689,0.14607 0.330729,-0.53743 1.01148,-0.53743 0.504361,0 0.738628,0.28939 0.237022,0.28663 0.237022,0.85162 v 1.94579 z" />
      <path
         id="path1507"
         style="font-style:normal;font-variant:normal;font-weight:normal;font-stretch:normal;font-family:Oxygen;-inkscape-font-specification:Oxygen;fill:#800000;stroke-width:0.264583"
         d="m 71.107056,149.66145 q -0.201194,-0.24253 -0.553971,-0.24253 -0.352778,0 -0.57602,0.2508 -0.223242,0.24805 -0.261827,0.68075 h 1.595767 q 0,-0.44924 -0.203949,-0.68902 z m -0.463021,2.52732 q -0.658702,0 -1.03904,-0.41892 -0.377582,-0.41893 -0.377582,-1.14653 0,-0.7028 0.366558,-1.13826 0.366558,-0.43821 0.964626,-0.44648 0.562239,0 0.890212,0.38585 0.330729,0.38309 0.330729,1.02526 0,0.0331 -0.0028,0.12127 0,0.0882 0,0.12677 h -2.075324 q 0.0083,0.51539 0.264583,0.80478 0.259071,0.28663 0.69453,0.28663 0.479557,0 0.96187,-0.25356 l 0.07166,0.37207 q -0.460264,0.28112 -1.050064,0.28112 z" />
      <path
         id="path1509"
         style="font-style:normal;font-variant:normal;font-weight:normal;font-stretch:normal;font-family:Oxygen;-inkscape-font-specification:Oxygen;fill:#800000;stroke-width:0.264583"
         d="m 72.418947,152.12538 v -3.02341 h 0.38585 l 0.05788,0.4327 q 0.179144,-0.22324 0.446484,-0.35829 0.270095,-0.1378 0.581531,-0.1378 0.523654,0 0.774457,0.2949 0.250803,0.29214 0.250803,0.90123 v 1.89067 h -0.460265 q 0,-1.81901 -0.0028,-1.94854 -0.01102,-0.38585 -0.157096,-0.565 -0.143316,-0.17914 -0.482313,-0.17914 -0.355533,0 -0.592556,0.17087 -0.237022,0.17088 -0.30868,0.44373 -0.02756,0.18466 -0.02756,0.42444 v 1.65364 z" />
      <path
         id="path1511"
         style="font-style:normal;font-variant:normal;font-weight:normal;font-stretch:normal;font-family:Oxygen;-inkscape-font-specification:Oxygen;fill:#800000;stroke-width:0.264583"
         d="m 76.646766,152.1805 q -0.446484,0 -0.633897,-0.21773 -0.187413,-0.21773 -0.198438,-0.7028 v -1.81625 h -0.44924 l 0.01929,-0.30317 0.427191,-0.0386 0.157096,-0.69178 0.303169,-0.011 v 0.7028 h 0.840602 v 0.34175 H 76.27194 v 1.73357 q 0,0.34451 0.10473,0.48507 0.104731,0.14056 0.35829,0.14056 0.09095,0 0.394119,-0.0441 l 0.01929,0.36381 q -0.327973,0.0579 -0.501605,0.0579 z" />
    </g>
    <g
       style="font-style:normal;font-variant:normal;font-weight:normal;font-stretch:normal;font-size:5.64444px;line-height:1.25;font-family:'Roboto Mono';-inkscape-font-specification:'Roboto Mono';letter-spacing:0px;word-spacing:0px;fill:#800000;fill-opacity:1;stroke:none;stroke-width:0.264583"
       id="text839"
       aria-label="Návratová hodnota">
      <path
         id="path1514"
         style="font-style:normal;font-variant:normal;font-weight:normal;font-stretch:normal;font-family:Oxygen;-inkscape-font-specification:Oxygen;fill:#800000;stroke-width:0.264583"
         d="m 17.194762,161.73355 h -0.540191 l -2.116665,-3.20807 -0.137804,-0.19017 q 0.02205,0.57878 0.02205,1.03353 v 2.36471 h -0.446484 v -4.07623 h 0.531922 l 2.122177,3.20807 0.14056,0.19017 q -0.01929,-0.87919 -0.01929,-1.01699 v -2.38125 h 0.443728 z" />
      <path
         id="path1516"
         style="font-style:normal;font-variant:normal;font-weight:normal;font-stretch:normal;font-family:Oxygen;-inkscape-font-specification:Oxygen;fill:#800000;stroke-width:0.264583"
         d="m 20.168566,157.24115 -0.895724,1.06936 h -0.314193 l 0.51263,-1.06936 z m -1.226453,4.18372 q 0.327973,0 0.576019,-0.17914 0.250803,-0.18191 0.322461,-0.48783 v -0.50987 q -0.01378,0 -0.16812,0.0138 -0.151584,0.0138 -0.198438,0.0165 -0.598068,0.0524 -0.83509,0.19569 -0.234267,0.14331 -0.234267,0.46026 0,0.24253 0.143316,0.36656 0.143316,0.12402 0.394119,0.12402 z m 1.000455,0.30868 q -0.04134,-0.17639 -0.07993,-0.38034 -0.250803,0.25081 -0.471289,0.34727 -0.220486,0.0965 -0.518142,0.0965 -0.424435,0 -0.683506,-0.22049 -0.256315,-0.22324 -0.256315,-0.6394 0,-0.46302 0.350021,-0.68627 0.352778,-0.22324 1.014236,-0.27836 0.09095,-0.008 0.272851,-0.0221 0.184657,-0.0165 0.275607,-0.0248 v -0.26734 q 0,-0.31971 -0.148828,-0.47405 -0.148828,-0.15434 -0.468532,-0.15434 -0.446484,0 -0.901237,0.22049 -0.01378,-0.0331 -0.07166,-0.19017 -0.05788,-0.15985 -0.06063,-0.16537 0.201193,-0.11299 0.476801,-0.17914 0.278363,-0.0689 0.564995,-0.0689 0.564995,0 0.813042,0.24804 0.250803,0.2453 0.250803,0.83785 v 2.00091 z" />
      <path
         id="path1518"
         style="font-style:normal;font-variant:normal;font-weight:normal;font-stretch:normal;font-family:Oxygen;-inkscape-font-specification:Oxygen;fill:#800000;stroke-width:0.264583"
         d="m 21.869064,161.73355 -1.171332,-3.02341 h 0.493337 l 0.66697,1.79696 q 0,0 0.275608,0.76619 0.09371,-0.2949 0.259071,-0.76068 0.209461,-0.58704 0.650433,-1.80247 h 0.490581 l -1.163063,3.02341 z" />
      <path
         id="path1520"
         style="font-style:normal;font-variant:normal;font-weight:normal;font-stretch:normal;font-family:Oxygen;-inkscape-font-specification:Oxygen;fill:#800000;stroke-width:0.264583"
         d="m 25.292108,158.68258 q 0.124023,0 0.225998,0.0165 l -0.01654,0.42444 q -0.12678,-0.0221 -0.220486,-0.0221 -0.385851,0 -0.628385,0.2701 -0.239779,0.26733 -0.239779,0.66421 v 1.69774 h -0.460264 q -0.0028,-2.78363 -0.0028,-3.02341 h 0.383094 l 0.0441,0.54294 q 0.157097,-0.25631 0.399631,-0.41341 0.242535,-0.15709 0.515386,-0.15709 z" />
      <path
         id="path1522"
         style="font-style:normal;font-variant:normal;font-weight:normal;font-stretch:normal;font-family:Oxygen;-inkscape-font-specification:Oxygen;fill:#800000;stroke-width:0.264583"
         d="m 26.813461,161.42487 q 0.327973,0 0.576019,-0.17914 0.250803,-0.18191 0.322461,-0.48783 v -0.50987 q -0.01378,0 -0.16812,0.0138 -0.151585,0.0138 -0.198438,0.0165 -0.598068,0.0524 -0.83509,0.19569 -0.234267,0.14331 -0.234267,0.46026 0,0.24253 0.143316,0.36656 0.143316,0.12402 0.394119,0.12402 z m 1.000455,0.30868 q -0.04134,-0.17639 -0.07993,-0.38034 -0.250803,0.25081 -0.471289,0.34727 -0.220486,0.0965 -0.518142,0.0965 -0.424435,0 -0.683506,-0.22049 -0.256315,-0.22324 -0.256315,-0.6394 0,-0.46302 0.350021,-0.68627 0.352778,-0.22324 1.014235,-0.27836 0.09095,-0.008 0.272852,-0.0221 0.184657,-0.0165 0.275607,-0.0248 v -0.26734 q 0,-0.31971 -0.148828,-0.47405 -0.148828,-0.15434 -0.468532,-0.15434 -0.446484,0 -0.901237,0.22049 -0.01378,-0.0331 -0.07166,-0.19017 -0.05788,-0.15985 -0.06063,-0.16537 0.201193,-0.11299 0.476801,-0.17914 0.278363,-0.0689 0.564995,-0.0689 0.564995,0 0.813042,0.24804 0.250803,0.2453 0.250803,0.83785 v 2.00091 z" />
      <path
         id="path1524"
         style="font-style:normal;font-variant:normal;font-weight:normal;font-stretch:normal;font-family:Oxygen;-inkscape-font-specification:Oxygen;fill:#800000;stroke-width:0.264583"
         d="m 29.930581,161.78867 q -0.446484,0 -0.633897,-0.21773 -0.187413,-0.21773 -0.198437,-0.7028 v -1.81625 h -0.44924 l 0.01929,-0.30317 0.427192,-0.0386 0.157096,-0.69178 0.303168,-0.011 v 0.7028 h 0.840603 v 0.34175 h -0.840603 v 1.73357 q 0,0.34451 0.104731,0.48507 0.104731,0.14056 0.358289,0.14056 0.09095,0 0.394119,-0.0441 l 0.01929,0.3638 q -0.327973,0.0579 -0.501606,0.0579 z" />
      <path
         id="path1526"
         style="font-style:normal;font-variant:normal;font-weight:normal;font-stretch:normal;font-family:Oxygen;-inkscape-font-specification:Oxygen;fill:#800000;stroke-width:0.264583"
         d="m 31.228692,160.22873 q 0,0.53744 0.237022,0.86266 0.239779,0.32246 0.697287,0.32246 0.451996,0 0.68075,-0.32246 0.23151,-0.32246 0.23151,-0.86817 0,-0.55397 -0.228754,-0.87092 -0.225998,-0.3197 -0.691774,-0.3197 -0.451997,0 -0.689019,0.32521 -0.237022,0.32522 -0.237022,0.87092 z m 2.32337,-0.008 q 0,0.7028 -0.374826,1.14101 -0.374826,0.43546 -1.036284,0.43546 -0.636653,0 -1.014235,-0.44097 -0.374826,-0.44097 -0.374826,-1.13275 0,-0.70555 0.377582,-1.14101 0.377582,-0.43546 1.036284,-0.43546 0.647677,0 1.016991,0.43821 0.369314,0.43546 0.369314,1.13551 z" />
      <path
         id="path1528"
         style="font-style:normal;font-variant:normal;font-weight:normal;font-stretch:normal;font-family:Oxygen;-inkscape-font-specification:Oxygen;fill:#800000;stroke-width:0.264583"
         d="m 34.946635,161.73355 -1.171331,-3.02341 h 0.493337 l 0.66697,1.79696 q 0,0 0.275608,0.76619 0.09371,-0.2949 0.259071,-0.76068 0.209461,-0.58704 0.650433,-1.80247 h 0.490581 l -1.163063,3.02341 z" />
      <path
         id="path1530"
         style="font-style:normal;font-variant:normal;font-weight:normal;font-stretch:normal;font-family:Oxygen;-inkscape-font-specification:Oxygen;fill:#800000;stroke-width:0.264583"
         d="m 39.075236,157.24115 -0.895724,1.06936 H 37.86532 l 0.512629,-1.06936 z m -1.226453,4.18372 q 0.327973,0 0.57602,-0.17914 0.250802,-0.18191 0.32246,-0.48783 v -0.50987 q -0.01378,0 -0.16812,0.0138 -0.151584,0.0138 -0.198438,0.0165 -0.598068,0.0524 -0.83509,0.19569 -0.234266,0.14331 -0.234266,0.46026 0,0.24253 0.143315,0.36656 0.143316,0.12402 0.394119,0.12402 z m 1.000455,0.30868 q -0.04134,-0.17639 -0.07993,-0.38034 -0.250803,0.25081 -0.471289,0.34727 -0.220486,0.0965 -0.518142,0.0965 -0.424435,0 -0.683506,-0.22049 -0.256315,-0.22324 -0.256315,-0.6394 0,-0.46302 0.350021,-0.68627 0.352778,-0.22324 1.014236,-0.27836 0.09095,-0.008 0.272851,-0.0221 0.184657,-0.0165 0.275607,-0.0248 v -0.26734 q 0,-0.31971 -0.148828,-0.47405 -0.148828,-0.15434 -0.468532,-0.15434 -0.446484,0 -0.901237,0.22049 -0.01378,-0.0331 -0.07166,-0.19017 -0.05788,-0.15985 -0.06063,-0.16537 0.201193,-0.11299 0.476801,-0.17914 0.278363,-0.0689 0.564995,-0.0689 0.564995,0 0.813042,0.24804 0.250803,0.2453 0.250803,0.83785 v 2.00091 z" />
      <path
         id="path1532"
         style="font-style:normal;font-variant:normal;font-weight:normal;font-stretch:normal;font-family:Oxygen;-inkscape-font-specification:Oxygen;fill:#800000;stroke-width:0.264583"
         d="m 43.446369,161.73355 v -1.82728 q 0,-0.45475 -0.146072,-0.66145 -0.143316,-0.20671 -0.504361,-0.20671 -0.347266,0 -0.587044,0.17363 -0.237023,0.17364 -0.308681,0.44924 -0.0248,0.20671 -0.0248,0.46027 v 1.6123 h -0.460265 v -4.1975 l 0.460265,-0.0276 v 1.22921 q 0,0.15709 -0.01103,0.3886 0.388607,-0.47955 1.030772,-0.47955 1.011479,0 1.011479,1.18787 v 1.89893 z" />
      <path
         id="path1534"
         style="font-style:normal;font-variant:normal;font-weight:normal;font-stretch:normal;font-family:Oxygen;-inkscape-font-specification:Oxygen;fill:#800000;stroke-width:0.264583"
         d="m 44.810626,160.22873 q 0,0.53744 0.237022,0.86266 0.239779,0.32246 0.697287,0.32246 0.451996,0 0.68075,-0.32246 0.23151,-0.32246 0.23151,-0.86817 0,-0.55397 -0.228754,-0.87092 -0.225998,-0.3197 -0.691774,-0.3197 -0.451997,0 -0.689019,0.32521 -0.237022,0.32522 -0.237022,0.87092 z m 2.32337,-0.008 q 0,0.7028 -0.374826,1.14101 -0.374826,0.43546 -1.036284,0.43546 -0.636653,0 -1.014235,-0.44097 -0.374826,-0.44097 -0.374826,-1.13275 0,-0.70555 0.377582,-1.14101 0.377582,-0.43546 1.036284,-0.43546 0.647677,0 1.016991,0.43821 0.369314,0.43546 0.369314,1.13551 z" />
      <path
         id="path1536"
         style="font-style:normal;font-variant:normal;font-weight:normal;font-stretch:normal;font-family:Oxygen;-inkscape-font-specification:Oxygen;fill:#800000;stroke-width:0.264583"
         d="m 48.964032,161.40007 q 0.454752,0 0.675238,-0.29215 0.223242,-0.29214 0.223242,-0.83509 0,-0.61185 -0.214974,-0.92053 -0.212218,-0.31143 -0.689019,-0.31143 -0.212217,0 -0.374826,0.0909 -0.162608,0.0909 -0.261827,0.25356 -0.09922,0.1626 -0.151584,0.37482 -0.04961,0.20946 -0.04961,0.46027 0,0.35277 0.08544,0.61184 0.08819,0.25908 0.28112,0.41342 0.192925,0.15434 0.476801,0.15434 z m 0.906748,-0.10473 q -0.148828,0.22875 -0.396875,0.3638 -0.248046,0.13504 -0.553971,0.13504 -0.598068,0 -0.937065,-0.42443 -0.338997,-0.42719 -0.338997,-1.16031 0,-0.70004 0.344509,-1.12999 0.34451,-0.4327 0.923285,-0.4327 0.300412,0 0.564995,0.13229 0.26734,0.12953 0.399631,0.35002 l -0.0083,-0.26183 v -1.33118 l 0.454752,-0.0276 v 4.22506 h -0.391362 z" />
      <path
         id="path1538"
         style="font-style:normal;font-variant:normal;font-weight:normal;font-stretch:normal;font-family:Oxygen;-inkscape-font-specification:Oxygen;fill:#800000;stroke-width:0.264583"
         d="m 51.122036,161.73355 v -3.02341 h 0.385851 l 0.05788,0.4327 q 0.179145,-0.22324 0.446484,-0.35829 0.270096,-0.1378 0.581532,-0.1378 0.523654,0 0.774457,0.2949 0.250803,0.29214 0.250803,0.90123 v 1.89067 h -0.460265 q 0,-1.81901 -0.0028,-1.94854 -0.01102,-0.38585 -0.157096,-0.565 -0.143316,-0.17914 -0.482313,-0.17914 -0.355534,0 -0.592556,0.17087 -0.237022,0.17088 -0.30868,0.44373 -0.02756,0.18466 -0.02756,0.42444 v 1.65364 z" />
      <path
         id="path1540"
         style="font-style:normal;font-variant:normal;font-weight:normal;font-stretch:normal;font-family:Oxygen;-inkscape-font-specification:Oxygen;fill:#800000;stroke-width:0.264583"
         d="m 54.721469,160.22873 q 0,0.53744 0.237022,0.86266 0.239778,0.32246 0.697287,0.32246 0.451996,0 0.68075,-0.32246 0.23151,-0.32246 0.23151,-0.86817 0,-0.55397 -0.228754,-0.87092 -0.225998,-0.3197 -0.691774,-0.3197 -0.451997,0 -0.689019,0.32521 -0.237022,0.32522 -0.237022,0.87092 z m 2.32337,-0.008 q 0,0.7028 -0.374826,1.14101 -0.374826,0.43546 -1.036284,0.43546 -0.636653,0 -1.014235,-0.44097 -0.374826,-0.44097 -0.374826,-1.13275 0,-0.70555 0.377582,-1.14101 0.377582,-0.43546 1.036284,-0.43546 0.647677,0 1.016991,0.43821 0.369314,0.43546 0.369314,1.13551 z" />
      <path
         id="path1542"
         style="font-style:normal;font-variant:normal;font-weight:normal;font-stretch:normal;font-family:Oxygen;-inkscape-font-specification:Oxygen;fill:#800000;stroke-width:0.264583"
         d="m 58.659901,161.78867 q -0.446484,0 -0.633897,-0.21773 -0.187413,-0.21773 -0.198438,-0.7028 v -1.81625 h -0.44924 l 0.01929,-0.30317 0.427191,-0.0386 0.157096,-0.69178 0.303169,-0.011 v 0.7028 h 0.840602 v 0.34175 h -0.840602 v 1.73357 q 0,0.34451 0.10473,0.48507 0.104731,0.14056 0.35829,0.14056 0.09095,0 0.394119,-0.0441 l 0.01929,0.3638 q -0.327973,0.0579 -0.501605,0.0579 z" />
      <path
         id="path1544"
         style="font-style:normal;font-variant:normal;font-weight:normal;font-stretch:normal;font-family:Oxygen;-inkscape-font-specification:Oxygen;fill:#800000;stroke-width:0.264583"
         d="m 60.517494,161.42487 q 0.327973,0 0.576019,-0.17914 0.250803,-0.18191 0.322461,-0.48783 v -0.50987 q -0.01378,0 -0.168121,0.0138 -0.151584,0.0138 -0.198437,0.0165 -0.598068,0.0524 -0.83509,0.19569 -0.234267,0.14331 -0.234267,0.46026 0,0.24253 0.143316,0.36656 0.143316,0.12402 0.394119,0.12402 z m 1.000455,0.30868 q -0.04134,-0.17639 -0.07993,-0.38034 -0.250803,0.25081 -0.471289,0.34727 -0.220486,0.0965 -0.518142,0.0965 -0.424436,0 -0.683507,-0.22049 -0.256314,-0.22324 -0.256314,-0.6394 0,-0.46302 0.350021,-0.68627 0.352778,-0.22324 1.014235,-0.27836 0.09095,-0.008 0.272852,-0.0221 0.184657,-0.0165 0.275607,-0.0248 v -0.26734 q 0,-0.31971 -0.148828,-0.47405 -0.148828,-0.15434 -0.468533,-0.15434 -0.446484,0 -0.901236,0.22049 -0.01378,-0.0331 -0.07166,-0.19017 -0.05788,-0.15985 -0.06063,-0.16537 0.201193,-0.11299 0.4768,-0.17914 0.278364,-0.0689 0.564996,-0.0689 0.564995,0 0.813042,0.24804 0.250802,0.2453 0.250802,0.83785 v 2.00091 z" />
    </g>
    <path
       inkscape:connector-curvature="0"
       d="m 52.312032,134.61922 c 0,-2.10708 -5.404553,-0.76302 -5.404553,-2.01529 m -14.13733,-4.79385 h 32.183029 m -18.045699,4.79385 -3e-6,-4.82438 m -5.404551,6.83966 c 0,-2.10708 5.404553,-0.76302 5.404553,-2.01529"
       style="fill:none;stroke:#808080;stroke-width:0.5291667;stroke-linecap:butt;stroke-linejoin:miter;stroke-miterlimit:4;stroke-dasharray:none;stroke-opacity:1"
       id="path849" />
    <g
       style="font-style:normal;font-variant:normal;font-weight:normal;font-stretch:normal;font-size:5.64444px;line-height:1.25;font-family:'Roboto Mono';-inkscape-font-specification:'Roboto Mono';letter-spacing:0px;word-spacing:0px;fill:#800000;fill-opacity:1;stroke:none;stroke-width:0.264583"
       id="text827"
       aria-label="Jméno funkce">
      <path
         id="path1547"
         style="font-style:normal;font-variant:normal;font-weight:normal;font-stretch:normal;font-family:Oxygen;-inkscape-font-specification:Oxygen;fill:#800000;stroke-width:0.264583"
         d="m 31.835777,126.20191 v -3.62424 h 0.487825 v 3.45888 q 0,0.20119 -0.0083,0.33899 -0.0083,0.13781 -0.03307,0.28112 -0.02481,0.14056 -0.07441,0.23151 -0.04685,0.0909 -0.124024,0.17364 -0.07717,0.0854 -0.192925,0.12953 -0.112999,0.0469 -0.270095,0.0717 -0.157096,0.0276 -0.363802,0.0276 h -0.09646 l -0.05788,-0.39136 h 0.20395 q 0.146071,0 0.24529,-0.0358 0.101975,-0.0358 0.157096,-0.091 0.05512,-0.0524 0.08268,-0.15159 0.03032,-0.0992 0.03583,-0.18465 0.0083,-0.0882 0.0083,-0.23427 z" />
      <path
         id="path1549"
         style="font-style:normal;font-variant:normal;font-weight:normal;font-stretch:normal;font-family:Oxygen;-inkscape-font-specification:Oxygen;fill:#800000;stroke-width:0.264583"
         d="m 36.962075,126.70076 v -1.57372 q 0,-0.22048 -0.01102,-0.36931 -0.0083,-0.14883 -0.0441,-0.30317 -0.03307,-0.15434 -0.09646,-0.24254 -0.06063,-0.0909 -0.170877,-0.14607 -0.110243,-0.0579 -0.264583,-0.0579 -0.303168,0 -0.518142,0.1626 -0.212218,0.16261 -0.303168,0.45751 -0.02481,0.19844 -0.02481,0.42444 v 1.64813 h -0.460264 v -1.62333 q 0,-0.20395 -0.01378,-0.35278 -0.01378,-0.15158 -0.05237,-0.29214 -0.03858,-0.14332 -0.104731,-0.23151 -0.06339,-0.0882 -0.170876,-0.14056 -0.107487,-0.0524 -0.256315,-0.0524 -0.330729,0 -0.556727,0.16812 -0.223242,0.16812 -0.300412,0.44648 -0.02481,0.21222 -0.02481,0.46026 v 1.61782 h -0.460264 q -0.0055,-2.836 -0.0055,-3.02341 h 0.385851 l 0.05788,0.4327 q 0.137804,-0.20946 0.391363,-0.35278 0.253559,-0.14331 0.57602,-0.14331 0.16812,0 0.30868,0.0358 0.143316,0.0331 0.237022,0.0854 0.09646,0.0524 0.170877,0.12678 0.07441,0.0717 0.115755,0.14332 0.04134,0.0689 0.0689,0.14607 0.330729,-0.53743 1.011479,-0.53743 0.504362,0 0.738628,0.28938 0.237022,0.28664 0.237022,0.85163 v 1.94579 z" />
      <path
         id="path1551"
         style="font-style:normal;font-variant:normal;font-weight:normal;font-stretch:normal;font-family:Oxygen;-inkscape-font-specification:Oxygen;fill:#800000;stroke-width:0.264583"
         d="m 40.200463,122.20836 -0.895725,1.06936 h -0.314192 l 0.51263,-1.06936 z m -0.449241,2.02847 q -0.201193,-0.24254 -0.55397,-0.24254 -0.352778,0 -0.57602,0.25081 -0.223242,0.24804 -0.261827,0.68075 h 1.595767 q 0,-0.44924 -0.20395,-0.68902 z m -0.46302,2.52732 q -0.658702,0 -1.03904,-0.41892 -0.377582,-0.41893 -0.377582,-1.14653 0,-0.7028 0.366558,-1.13826 0.366558,-0.43822 0.964626,-0.44648 0.562239,0 0.890212,0.38585 0.330729,0.38309 0.330729,1.02526 0,0.0331 -0.0028,0.12126 0,0.0882 0,0.12678 h -2.075324 q 0.0083,0.51539 0.264583,0.80478 0.259071,0.28663 0.69453,0.28663 0.479557,0 0.96187,-0.25356 l 0.07166,0.37207 q -0.460264,0.28112 -1.050064,0.28112 z" />
      <path
         id="path1553"
         style="font-style:normal;font-variant:normal;font-weight:normal;font-stretch:normal;font-family:Oxygen;-inkscape-font-specification:Oxygen;fill:#800000;stroke-width:0.264583"
         d="m 41.063114,126.70076 v -3.02341 h 0.38585 l 0.05788,0.4327 q 0.179145,-0.22324 0.446485,-0.35829 0.270095,-0.1378 0.581531,-0.1378 0.523654,0 0.774457,0.2949 0.250803,0.29214 0.250803,0.90123 v 1.89067 h -0.460265 q 0,-1.81901 -0.0028,-1.94854 -0.01102,-0.38586 -0.157096,-0.565 -0.143316,-0.17914 -0.482313,-0.17914 -0.355533,0 -0.592556,0.17087 -0.237022,0.17088 -0.30868,0.44373 -0.02756,0.18466 -0.02756,0.42444 v 1.65364 z" />
      <path
         id="path1555"
         style="font-style:normal;font-variant:normal;font-weight:normal;font-stretch:normal;font-family:Oxygen;-inkscape-font-specification:Oxygen;fill:#800000;stroke-width:0.264583"
         d="m 44.662547,125.19594 q 0,0.53744 0.237022,0.86265 0.239779,0.32247 0.697287,0.32247 0.451996,0 0.68075,-0.32247 0.231511,-0.32246 0.231511,-0.86816 0,-0.55397 -0.228755,-0.87092 -0.225998,-0.3197 -0.691774,-0.3197 -0.451996,0 -0.689019,0.32521 -0.237022,0.32522 -0.237022,0.87092 z m 2.32337,-0.008 q 0,0.70279 -0.374826,1.14101 -0.374826,0.43546 -1.036284,0.43546 -0.636653,0 -1.014235,-0.44097 -0.374826,-0.44097 -0.374826,-1.13275 0,-0.70555 0.377582,-1.14101 0.377582,-0.43546 1.036284,-0.43546 0.647677,0 1.016991,0.43821 0.369314,0.43546 0.369314,1.13551 z" />
      <path
         id="path1557"
         style="font-style:normal;font-variant:normal;font-weight:normal;font-stretch:normal;font-family:Oxygen;-inkscape-font-specification:Oxygen;fill:#800000;stroke-width:0.264583"
         d="m 50.193989,122.79816 q -0.286632,0 -0.394119,0.16536 -0.104731,0.16537 -0.104731,0.57327 v 0.14056 h 0.727604 v 0.34175 h -0.727604 v 2.68166 h -0.460264 v -2.68166 h -0.490581 l 0.03859,-0.30317 0.451996,-0.0386 v -0.13505 q 0.0055,-0.58429 0.21773,-0.84612 0.214973,-0.26458 0.691774,-0.26458 0.184657,0 0.451997,0.0413 l -0.03032,0.36105 q -0.245291,-0.0358 -0.37207,-0.0358 z" />
      <path
         id="path1559"
         style="font-style:normal;font-variant:normal;font-weight:normal;font-stretch:normal;font-family:Oxygen;-inkscape-font-specification:Oxygen;fill:#800000;stroke-width:0.264583"
         d="m 50.783788,125.69204 v -2.01469 h 0.46302 v 2.0202 q 0,0.19844 0.05512,0.33624 0.05788,0.1378 0.162608,0.21497 0.107487,0.0744 0.239779,0.10749 0.135047,0.0331 0.30868,0.0331 0.35829,0 0.556727,-0.15709 0.201193,-0.1571 0.201193,-0.53468 v -2.0202 h 0.463021 v 2.01469 q 0,0.23151 -0.06615,0.41616 -0.06615,0.18466 -0.179145,0.30868 -0.110243,0.12127 -0.267339,0.2012 -0.157096,0.0799 -0.333485,0.11575 -0.173633,0.0358 -0.374826,0.0358 -0.198437,0 -0.374826,-0.0358 -0.176389,-0.0358 -0.336241,-0.11575 -0.157096,-0.0827 -0.272852,-0.20395 -0.112999,-0.12403 -0.179144,-0.30868 -0.06615,-0.18466 -0.06615,-0.41341 z" />
      <path
         id="path1561"
         style="font-style:normal;font-variant:normal;font-weight:normal;font-stretch:normal;font-family:Oxygen;-inkscape-font-specification:Oxygen;fill:#800000;stroke-width:0.264583"
         d="m 53.9202,126.70076 v -3.02341 h 0.38585 l 0.05788,0.4327 q 0.179145,-0.22324 0.446484,-0.35829 0.270095,-0.1378 0.581531,-0.1378 0.523655,0 0.774457,0.2949 0.250803,0.29214 0.250803,0.90123 v 1.89067 h -0.460264 q 0,-1.81901 -0.0028,-1.94854 -0.01103,-0.38586 -0.157097,-0.565 -0.143316,-0.17914 -0.482313,-0.17914 -0.355533,0 -0.592556,0.17087 -0.237022,0.17088 -0.30868,0.44373 -0.02756,0.18466 -0.02756,0.42444 v 1.65364 z" />
      <path
         id="path1563"
         style="font-style:normal;font-variant:normal;font-weight:normal;font-stretch:normal;font-family:Oxygen;-inkscape-font-specification:Oxygen;fill:#800000;stroke-width:0.264583"
         d="m 57.188905,126.70076 v -4.1975 l 0.457508,-0.0276 v 2.19659 0.38585 q 0.01654,-0.0165 0.04961,-0.0551 0.03307,-0.0386 0.05237,-0.0579 0.239779,-0.26183 1.240234,-1.26779 h 0.584287 l -1.25677,1.2733 1.344965,1.75011 H 59.08784 l -1.105186,-1.48828 -0.336241,0.28939 v 1.19889 z" />
      <path
         id="path1565"
         style="font-style:normal;font-variant:normal;font-weight:normal;font-stretch:normal;font-family:Oxygen;-inkscape-font-specification:Oxygen;fill:#800000;stroke-width:0.264583"
         d="m 61.278919,126.76415 q -0.66697,0 -1.044552,-0.4327 -0.374826,-0.43271 -0.374826,-1.13275 0.0028,-0.70556 0.383094,-1.14377 0.383094,-0.44097 1.047308,-0.44097 0.234267,0 0.451996,0.0579 0.220486,0.0579 0.347266,0.15159 l -0.12678,0.35829 q -0.32246,-0.17363 -0.68075,-0.17363 -0.438216,0 -0.694531,0.3197 -0.253559,0.3197 -0.253559,0.87368 0,0.54019 0.250803,0.85713 0.253559,0.3142 0.700043,0.3142 0.355534,0 0.727604,-0.19293 l 0.05788,0.36656 q -0.300412,0.21773 -0.790993,0.21773 z" />
      <path
         id="path1567"
         style="font-style:normal;font-variant:normal;font-weight:normal;font-stretch:normal;font-family:Oxygen;-inkscape-font-specification:Oxygen;fill:#800000;stroke-width:0.264583"
         d="m 64.409819,124.23683 q -0.201194,-0.24254 -0.553971,-0.24254 -0.352778,0 -0.57602,0.25081 -0.223242,0.24804 -0.261827,0.68075 h 1.595767 q 0,-0.44924 -0.203949,-0.68902 z m -0.463021,2.52732 q -0.658702,0 -1.03904,-0.41892 -0.377582,-0.41893 -0.377582,-1.14653 0,-0.7028 0.366558,-1.13826 0.366558,-0.43822 0.964626,-0.44648 0.562239,0 0.890212,0.38585 0.330729,0.38309 0.330729,1.02526 0,0.0331 -0.0028,0.12126 0,0.0882 0,0.12678 h -2.075324 q 0.0083,0.51539 0.264583,0.80478 0.259071,0.28663 0.69453,0.28663 0.479557,0 0.96187,-0.25356 l 0.07166,0.37207 q -0.460264,0.28112 -1.050064,0.28112 z" />
    </g>
    <path
       sodipodi:nodetypes="cccccccc"
       inkscape:connector-curvature="0"
       id="path852"
       style="fill:none;stroke:#808080;stroke-width:0.5291667;stroke-linecap:butt;stroke-linejoin:miter;stroke-miterlimit:4;stroke-dasharray:none;stroke-opacity:1"
       d="m 73.650384,140.99367 c 0,2.10708 -8.702245,0.76302 -8.702245,2.01529 m -9.954147,4.51904 h 22.259419 m -12.305272,-4.51904 -3e-6,4.51904 m -8.030491,-6.53432 c 0,2.10708 8.030493,0.76302 8.030493,2.01529" />
    <path
       d="m 31.105133,140.9326 c 0,2.10708 -8.773769,0.76302 -8.773769,2.01529 m -8.362252,13.70983 h 47.999736 m -40.727099,-10.72174 1.089614,-1.99906 1.051514,2.01201 m -1.051514,-2.01201 -2e-6,12.7208 m -7.846546,-15.72511 c 0,2.10708 7.846548,0.76302 7.846548,2.01529"
       style="fill:none;stroke:#808080;stroke-width:0.5291667;stroke-linecap:butt;stroke-linejoin:miter;stroke-miterlimit:4;stroke-dasharray:none;stroke-opacity:1"
       id="path856"
       inkscape:connector-curvature="0"
       sodipodi:nodetypes="ccccccccccc" />
    <rect
       style="opacity:1;fill:#e6e6e6;fill-opacity:1;stroke:#cccccc;stroke-width:0.264583;stroke-linecap:square;stroke-miterlimit:4;stroke-dasharray:none;stroke-opacity:1"
       id="rect1436"
       width="68.264816"
       height="12.213675"
       x="97.450066"
       y="131.68793"
       ry="0.63371336"
       rx="0.79646826" />
    <text
       xml:space="preserve"
       style="font-style:normal;font-variant:normal;font-weight:normal;font-stretch:normal;font-size:5.64444px;line-height:1.25;font-family:'Roboto Mono';-inkscape-font-specification:'Roboto Mono';letter-spacing:0px;word-spacing:0px;fill:#000000;fill-opacity:1;stroke:none;stroke-width:0.264583"
       x="99.159988"
       y="140.17642"
       id="text1442"><tspan
         sodipodi:role="line"
         id="tspan1440"
         x="99.159988"
         y="140.17642"
         style="font-style:normal;font-variant:normal;font-weight:normal;font-stretch:normal;font-family:'Oxygen Mono';-inkscape-font-specification:'Oxygen Mono';stroke-width:0.264583">delka = len(<tspan
   style="fill:#b83838;fill-opacity:1"
   id="tspan1438">'Ahoj'</tspan>)</tspan></text>
    <text
       id="text1446"
       y="152.12538"
       x="136.94824"
       style="font-style:normal;font-variant:normal;font-weight:normal;font-stretch:normal;font-size:5.64444px;line-height:1.25;font-family:'Roboto Mono';-inkscape-font-specification:'Roboto Mono';letter-spacing:0px;word-spacing:0px;fill:#800000;fill-opacity:1;stroke:none;stroke-width:0.264583"
       xml:space="preserve"><tspan
         style="font-style:normal;font-variant:normal;font-weight:normal;font-stretch:normal;font-family:Oxygen;-inkscape-font-specification:Oxygen;fill:#800000;stroke-width:0.264583"
         y="152.12538"
         x="136.94824"
         sodipodi:role="line"
         id="tspan1444">Argument</tspan></text>
    <text
       xml:space="preserve"
       style="font-style:normal;font-variant:normal;font-weight:normal;font-stretch:normal;font-size:5.64444px;line-height:1.25;font-family:'Roboto Mono';-inkscape-font-specification:'Roboto Mono';letter-spacing:0px;word-spacing:0px;fill:#800000;fill-opacity:1;stroke:none;stroke-width:0.264583"
       x="98.243958"
       y="161.73355"
       id="text1450"><tspan
         id="tspan1448"
         sodipodi:role="line"
         x="98.243958"
         y="161.73355"
         style="font-style:normal;font-variant:normal;font-weight:normal;font-stretch:normal;font-family:Oxygen;-inkscape-font-specification:Oxygen;fill:#800000;stroke-width:0.264583">Návratová hodnota</tspan></text>
    <path
       id="path1452"
       style="fill:none;stroke:#808080;stroke-width:0.529167;stroke-linecap:butt;stroke-linejoin:miter;stroke-miterlimit:4;stroke-dasharray:none;stroke-opacity:1"
       d="m 137.05988,134.61922 c 0,-2.10708 -5.40455,-0.76302 -5.40455,-2.01529 M 117.518,127.81008 h 32.18303 m -18.0457,4.79385 0,-4.82438 m -5.40455,6.83966 c 0,-2.10708 5.40455,-0.76302 5.40455,-2.01529"
       inkscape:connector-curvature="0" />
    <text
       xml:space="preserve"
       style="font-style:normal;font-variant:normal;font-weight:normal;font-stretch:normal;font-size:5.64444px;line-height:1.25;font-family:'Roboto Mono';-inkscape-font-specification:'Roboto Mono';letter-spacing:0px;word-spacing:0px;fill:#800000;fill-opacity:1;stroke:none;stroke-width:0.264583"
       x="115.96075"
       y="126.70076"
       id="text1456"><tspan
         sodipodi:role="line"
         id="tspan1454"
         x="115.96075"
         y="126.70076"
         style="font-style:normal;font-variant:normal;font-weight:normal;font-stretch:normal;font-family:Oxygen;-inkscape-font-specification:Oxygen;fill:#800000;stroke-width:0.264583">Jméno funkce</tspan></text>
    <path
       d="m 158.39823,140.99367 c 0,2.10708 -8.70224,0.76302 -8.70224,2.01529 m -9.95415,4.51904 h 22.25942 m -12.30527,-4.51904 0,4.51904 m -8.03049,-6.53432 c 0,2.10708 8.03049,0.76302 8.03049,2.01529"
       style="fill:none;stroke:#808080;stroke-width:0.529167;stroke-linecap:butt;stroke-linejoin:miter;stroke-miterlimit:4;stroke-dasharray:none;stroke-opacity:1"
       id="path1458"
       inkscape:connector-curvature="0"
       sodipodi:nodetypes="cccccccc" />
    <path
       sodipodi:nodetypes="ccccccccccc"
       inkscape:connector-curvature="0"
       id="path1460"
       style="fill:none;stroke:#808080;stroke-width:0.529167;stroke-linecap:butt;stroke-linejoin:miter;stroke-miterlimit:4;stroke-dasharray:none;stroke-opacity:1"
       d="m 115.85298,140.9326 c 0,2.10708 -8.77377,0.76302 -8.77377,2.01529 m -8.362248,13.70983 H 146.7167 m -40.7271,-10.72174 1.08961,-1.99906 1.05152,2.01201 m -1.05152,-2.01201 0,12.7208 m -7.846545,-15.72511 c 0,2.10708 7.846545,0.76302 7.846545,2.01529" />
    <text
       id="text1589"
       y="185.52832"
       x="13.304154"
       style="font-style:normal;font-variant:normal;font-weight:normal;font-stretch:normal;font-size:5.64444px;line-height:1.25;font-family:'Roboto Mono';-inkscape-font-specification:'Roboto Mono';letter-spacing:0px;word-spacing:0px;fill:#000000;fill-opacity:1;stroke:none;stroke-width:0.264583"
       xml:space="preserve"><tspan
         style="stroke-width:0.264583"
         y="185.52832"
         x="13.304154"
         id="tspan1587"
         sodipodi:role="line">(Vlevo jsou texty jsou převedené na křivky,</tspan><tspan
         id="tspan1595"
         style="stroke-width:0.264583"
         y="192.58388"
         x="13.304154"
         sodipodi:role="line">aby se dobře zobrazily v prohlížeči.</tspan><tspan
         id="tspan1591"
         style="stroke-width:0.264583"
         y="199.63942"
         x="13.304154"
         sodipodi:role="line">Originál je vpravo.</tspan><tspan
         id="tspan1593"
         style="stroke-width:0.264583"
         y="206.69498"
         x="13.304154"
         sodipodi:role="line">Viz https://github.com/pyvec/naucse/issues/38 )</tspan></text>
  </g>
</svg>
