<?xml version="1.0" encoding="UTF-8" standalone="no"?>
<svg
   xmlns:dc="http://purl.org/dc/elements/1.1/"
   xmlns:cc="http://creativecommons.org/ns#"
   xmlns:rdf="http://www.w3.org/1999/02/22-rdf-syntax-ns#"
   xmlns:svg="http://www.w3.org/2000/svg"
   xmlns="http://www.w3.org/2000/svg"
   width="118.53333mm"
   height="25.400005mm"
   viewBox="0 0 118.53333 25.400005"
   version="1.1"
   id="svg8">
  <defs
     id="defs2">
    <marker
       style="overflow:visible"
       id="marker2398"
       refX="0"
       refY="0"
       orient="auto">
      <path
         transform="matrix(-0.4,0,0,-0.4,-4,0)"
         style="fill:#0000ff;fill-opacity:1;fill-rule:evenodd;stroke:#0000ff;stroke-width:1pt;stroke-opacity:1"
         d="M 0,0 5,-5 -12.5,0 5,5 Z"
         id="path2396" />
    </marker>
    <marker
       style="overflow:visible"
       id="marker2388"
       refX="0"
       refY="0"
       orient="auto">
      <path
         transform="matrix(-0.4,0,0,-0.4,-4,0)"
         style="fill:#0000ff;fill-opacity:1;fill-rule:evenodd;stroke:#0000ff;stroke-width:1pt;stroke-opacity:1"
         d="M 0,0 5,-5 -12.5,0 5,5 Z"
         id="path2386" />
    </marker>
    <marker
       style="overflow:visible"
       id="marker2608"
       refX="0"
       refY="0"
       orient="auto">
      <path
         transform="matrix(-0.4,0,0,-0.4,-4,0)"
         style="fill:#0000ff;fill-opacity:1;fill-rule:evenodd;stroke:#0000ff;stroke-width:1pt;stroke-opacity:1"
         d="M 0,0 5,-5 -12.5,0 5,5 Z"
         id="path2606" />
    </marker>
  </defs>
  <metadata
     id="metadata5">
    <rdf:RDF>
      <cc:Work
         rdf:about="">
        <dc:format>image/svg+xml</dc:format>
        <dc:type
           rdf:resource="http://purl.org/dc/dcmitype/StillImage" />
        <dc:title></dc:title>
      </cc:Work>
    </rdf:RDF>
  </metadata>
  <g
     id="layer1"
     transform="translate(-123.56481,-231.85595)">
    <path
       id="path2580"
       style="fill:#ff0000;fill-rule:evenodd;stroke:none;stroke-width:0.264583;stroke-linecap:round;stroke-linejoin:round"
       d="m 123.56481,231.85595 h 25.41932 2.12712 90.98689 v 8.46667 H 123.56481 Z" />
    <path
       style="fill:none;stroke:#ff0000;stroke-width:8.46667;stroke-linecap:butt;stroke-linejoin:miter;stroke-miterlimit:4;stroke-dasharray:none;stroke-opacity:1"
       d="m 143.67315,236.08929 c 16.93333,0 8.46666,16.93333 25.4,16.93333"
       id="path2582" />
    <g
       aria-label="bash"
       id="text2586"
       style="font-size:5.64444px;line-height:1.25;font-family:'Roboto Mono';-inkscape-font-specification:'Roboto Mono';text-align:start;letter-spacing:0px;word-spacing:0px;text-anchor:start;fill:#ffffff;stroke-width:0.264583">
      <path
         d="m 128.79034,237.05391 q 0.0496,0.38585 0.23151,0.60909 0.18465,0.22324 0.56224,0.22324 0.50987,0 0.68901,-0.52916 0.0909,-0.27837 0.0909,-0.57878 0,-0.30317 -0.0193,-0.46578 -0.0413,-0.38585 -0.21773,-0.60909 -0.17363,-0.226 -0.54294,-0.226 -0.61737,0 -0.75517,0.59532 -0.0579,0.24804 -0.0579,0.53192 0,0.28112 0.0193,0.44924 z m -0.0193,-1.45521 q 0.30593,-0.50712 0.91502,-0.50712 0.61185,0 0.89572,0.44098 0.28664,0.44097 0.28664,1.10794 0,0.87367 -0.41342,1.31465 -0.29765,0.3197 -0.81028,0.3197 -0.339,0 -0.51814,-0.12402 -0.17639,-0.12678 -0.35554,-0.35829 l -0.006,0.41341 h -0.49609 v -4.25814 l 0.5016,-0.0551 z"
         style="font-style:normal;font-variant:normal;font-weight:normal;font-stretch:normal;font-family:'Oxygen Mono';-inkscape-font-specification:'Oxygen Mono';text-align:start;text-anchor:start;fill:#ffffff;stroke-width:0.264583"
         id="path1812" />
      <path
         d="m 133.52527,237.53071 v -0.7717 l -0.41065,0.0579 q -0.42995,0.0606 -0.59532,0.12126 -0.36931,0.14056 -0.36931,0.47129 0,0.22876 0.13229,0.3638 0.13229,0.13505 0.3638,0.13505 0.50988,0 0.87919,-0.37758 z m 0,-1.40835 q 0,-0.64768 -0.54846,-0.64768 -0.25907,0 -0.57326,0.0606 -0.31144,0.0606 -0.43822,0.11576 l -0.11851,-0.36932 q 0.57051,-0.19017 1.07212,-0.19017 0.5016,0 0.80477,0.22876 0.30317,0.22875 0.30317,0.70555 v 2.18006 h -0.41617 l -0.0662,-0.35002 q -0.17638,0.17914 -0.45475,0.30041 -0.27561,0.11851 -0.54019,0.11851 -0.38309,0 -0.63665,-0.22875 -0.25356,-0.23151 -0.25356,-0.65044 0,-0.42168 0.33073,-0.61736 0.22324,-0.1378 0.47404,-0.18741 0.25356,-0.0524 0.6587,-0.10198 l 0.40239,-0.0469 z"
         style="font-style:normal;font-variant:normal;font-weight:normal;font-stretch:normal;font-family:'Oxygen Mono';-inkscape-font-specification:'Oxygen Mono';text-align:start;text-anchor:start;fill:#ffffff;stroke-width:0.264583"
         id="path1814" />
      <path
         d="m 136.63412,236.48891 q 0.39137,0.0965 0.57051,0.30593 0.1819,0.20946 0.1819,0.60633 0,0.39412 -0.30317,0.6339 -0.30041,0.23978 -0.75516,0.23978 -0.32522,0 -0.63114,-0.0799 -0.30593,-0.0827 -0.452,-0.19292 l 0.12403,-0.36105 q 0.11575,0.0717 0.36655,0.14607 0.25081,0.0717 0.54295,0.0717 0.2949,0 0.46853,-0.12126 0.17639,-0.12403 0.17639,-0.32798 0,-0.20395 -0.0882,-0.3197 -0.0854,-0.11851 -0.33349,-0.17915 l -0.51263,-0.12402 q -0.44373,-0.11024 -0.5898,-0.31971 -0.14607,-0.21221 -0.14607,-0.52641 0,-0.31419 0.25356,-0.57877 0.25631,-0.26458 0.74414,-0.2701 h 0.0358 q 0.54846,0 0.93431,0.20671 l -0.11025,0.35278 q -0.40238,-0.17088 -0.81579,-0.17088 -0.25632,0.003 -0.42168,0.12954 -0.16261,0.12402 -0.16261,0.31419 0,0.19017 0.0827,0.28663 0.0827,0.0937 0.31419,0.14883 z"
         style="font-style:normal;font-variant:normal;font-weight:normal;font-stretch:normal;font-family:'Oxygen Mono';-inkscape-font-specification:'Oxygen Mono';text-align:start;text-anchor:start;fill:#ffffff;stroke-width:0.264583"
         id="path1816" />
      <path
         d="m 140.83714,236.38143 v 1.82452 h -0.50161 v -1.76113 q 0,-0.56775 -0.15158,-0.76619 -0.15159,-0.2012 -0.45751,-0.2012 -0.30868,0 -0.53744,0.21498 -0.22599,0.21222 -0.22599,0.45751 v 2.05603 h -0.50161 v -4.25814 l 0.50161,-0.0551 v 1.6564 q 0.35277,-0.45751 0.94533,-0.45751 0.9288,0 0.9288,1.28985 z"
         style="font-style:normal;font-variant:normal;font-weight:normal;font-stretch:normal;font-family:'Oxygen Mono';-inkscape-font-specification:'Oxygen Mono';text-align:start;text-anchor:start;fill:#ffffff;stroke-width:0.264583"
         id="path1818" />
    </g>
    <rect
       style="fill:#ff0000;fill-rule:evenodd;stroke:none;stroke-width:0.264583;stroke-linecap:round;stroke-linejoin:round"
       id="rect2596"
       width="16.933338"
       height="8.4666681"
       x="165.89815"
       y="248.78928"
       ry="2.1166666"
       rx="2.1166649" />
    <path
       id="path2598"
       style="fill:#0000ff;fill-rule:evenodd;stroke:none;stroke-width:0.264583;stroke-linecap:round;stroke-linejoin:round"
       d="m 178.59814,248.78928 h 41.27501 v 6.35 c 0,1.17264 -0.94403,2.11667 -2.11667,2.11667 h -43.39167 z" />
    <g
       aria-label="ps"
       id="text2602"
       style="font-size:5.64444px;line-height:1.25;font-family:'Roboto Mono';-inkscape-font-specification:'Roboto Mono';text-align:start;letter-spacing:0px;word-spacing:0px;text-anchor:start;fill:#ffffff;stroke-width:0.264583">
      <path
         d="m 192.23247,253.60966 q 0,1.21267 0.84887,1.21267 0.76343,0 0.76343,-1.21267 0,-0.67248 -0.20671,-0.93431 -0.20395,-0.26458 -0.56499,-0.26458 -0.70556,0 -0.8158,0.8158 -0.0248,0.17087 -0.0248,0.38309 z m 0.86816,1.59852 q -0.29214,0 -0.51814,-0.13504 -0.226,-0.13505 -0.34451,-0.34727 v 1.57372 l -0.50161,0.0551 v -4.23884 h 0.50161 v 0.41617 q 0.13229,-0.226 0.35278,-0.36656 0.22048,-0.14056 0.49885,-0.14056 0.74689,0 1.06108,0.61736 0.19844,0.39136 0.19844,0.93155 0,0.86265 -0.41617,1.31189 -0.29765,0.32246 -0.83233,0.32246 z"
         style="font-style:normal;font-variant:normal;font-weight:normal;font-stretch:normal;font-family:'Oxygen Mono';-inkscape-font-specification:'Oxygen Mono';text-align:start;text-anchor:start;fill:#ffffff;stroke-width:0.264583"
         id="path1821" />
      <path
         d="m 196.74692,253.42225 q 0.39136,0.0965 0.5705,0.30592 0.1819,0.20946 0.1819,0.60634 0,0.39412 -0.30316,0.6339 -0.30042,0.23977 -0.75517,0.23977 -0.32522,0 -0.63114,-0.0799 -0.30592,-0.0827 -0.452,-0.19293 l 0.12403,-0.36104 q 0.11575,0.0717 0.36656,0.14607 0.2508,0.0717 0.54294,0.0717 0.2949,0 0.46853,-0.12127 0.17639,-0.12402 0.17639,-0.32797 0,-0.20395 -0.0882,-0.31971 -0.0854,-0.11851 -0.33349,-0.17914 l -0.51263,-0.12403 q -0.44372,-0.11024 -0.5898,-0.3197 -0.14607,-0.21222 -0.14607,-0.52641 0,-0.31419 0.25356,-0.57878 0.25632,-0.26458 0.74414,-0.27009 h 0.0358 q 0.54846,0 0.93431,0.2067 l -0.11024,0.35278 q -0.40239,-0.17088 -0.8158,-0.17088 -0.25632,0.003 -0.42168,0.12954 -0.16261,0.12402 -0.16261,0.31419 0,0.19017 0.0827,0.28663 0.0827,0.0937 0.3142,0.14883 z"
         style="font-style:normal;font-variant:normal;font-weight:normal;font-stretch:normal;font-family:'Oxygen Mono';-inkscape-font-specification:'Oxygen Mono';text-align:start;text-anchor:start;fill:#ffffff;stroke-width:0.264583"
         id="path1823" />
    </g>
    <path
       style="fill:none;stroke:#0000ff;stroke-width:0.264583;stroke-linecap:butt;stroke-linejoin:miter;stroke-miterlimit:4;stroke-dasharray:0.264583, 0.79375;stroke-dashoffset:0;stroke-opacity:1;marker-end:url(#marker2608)"
       d="m 219.87315,248.78928 v -8.46666"
       id="path2604" />
    <ellipse
       style="fill:#ffff00;fill-rule:evenodd;stroke:#000000;stroke-width:0.264583;stroke-linecap:round;stroke-linejoin:round;stroke-miterlimit:4;stroke-dasharray:none;stroke-dashoffset:0"
       id="path2742"
       cx="153.19836"
       cy="236.08928"
       rx="8.9960451"
       ry="3.7041662" />
    <g
       aria-label="fork"
       id="text2748"
       style="font-size:5.64444px;line-height:1.25;font-family:'Roboto Mono';-inkscape-font-specification:'Roboto Mono';text-align:center;letter-spacing:0px;word-spacing:0px;text-anchor:middle;fill:#000000;stroke-width:0.264583">
      <path
         d="m 148.28407,238.20595 h -0.50161 v -2.63757 h -0.79099 v -0.38585 h 0.79099 q 0,-0.55672 0.0441,-0.70279 0.0882,-0.28939 0.226,-0.41066 0.26734,-0.23151 0.97289,-0.23151 h 0.29215 l -0.0276,0.38585 h -0.27561 q -0.21222,0 -0.33624,0.0193 -0.12402,0.0193 -0.22049,0.0827 -0.17363,0.11024 -0.17363,0.49058 v 0.36655 h 1.03353 v 0.38585 h -1.03353 z"
         style="font-style:normal;font-variant:normal;font-weight:normal;font-stretch:normal;font-family:'Oxygen Mono';-inkscape-font-specification:'Oxygen Mono';text-align:center;text-anchor:middle;fill:#000000;stroke-width:0.264583"
         id="path1826" />
      <path
         d="m 151.49765,237.889 q 0.52641,0 0.71658,-0.52365 0.10198,-0.28112 0.10198,-0.57602 0,-0.29766 -0.0221,-0.46302 -0.0496,-0.37483 -0.23978,-0.61185 -0.18741,-0.23703 -0.55673,-0.23703 -0.51263,0 -0.70004,0.53468 -0.0992,0.28663 -0.0992,0.60083 0,0.55672 0.17363,0.91777 0.17364,0.35829 0.62563,0.35829 z m 0.99219,-2.35644 q 0.32797,0.44097 0.32797,1.15203 0,0.71107 -0.35553,1.15204 -0.35553,0.43822 -0.96463,0.43822 -0.32521,0 -0.57877,-0.12402 -0.25356,-0.12403 -0.41066,-0.34176 -0.31695,-0.43821 -0.31695,-1.14101 0,-0.7028 0.35003,-1.13826 0.35002,-0.43822 0.98391,-0.43822 0.63666,0 0.96463,0.44098 z"
         style="font-style:normal;font-variant:normal;font-weight:normal;font-stretch:normal;font-family:'Oxygen Mono';-inkscape-font-specification:'Oxygen Mono';text-align:center;text-anchor:middle;fill:#000000;stroke-width:0.264583"
         id="path1828" />
      <path
         d="m 154.6947,238.20595 h -0.50161 v -3.02342 h 0.41066 l 0.0413,0.55949 q 0.18466,-0.31971 0.48507,-0.48507 0.30041,-0.16537 0.68075,-0.16537 h 0.24253 v 0.46578 h -0.31419 q -0.48231,0 -0.76343,0.24254 -0.28112,0.23977 -0.28112,0.72484 z"
         style="font-style:normal;font-variant:normal;font-weight:normal;font-stretch:normal;font-family:'Oxygen Mono';-inkscape-font-specification:'Oxygen Mono';text-align:center;text-anchor:middle;fill:#000000;stroke-width:0.264583"
         id="path1830" />
      <path
         d="m 157.66575,236.40899 1.33945,-1.22646 h 0.6339 l -1.34772,1.25402 1.53237,1.7694 h -0.62838 l -1.25953,-1.53789 -0.27009,0.23702 v 1.30087 h -0.50161 v -4.25814 l 0.50161,-0.0551 z"
         style="font-style:normal;font-variant:normal;font-weight:normal;font-stretch:normal;font-family:'Oxygen Mono';-inkscape-font-specification:'Oxygen Mono';text-align:center;text-anchor:middle;fill:#000000;stroke-width:0.264583"
         id="path1832" />
    </g>
    <ellipse
       style="fill:#ffff00;fill-rule:evenodd;stroke:#000000;stroke-width:0.264583;stroke-linecap:round;stroke-linejoin:round;stroke-miterlimit:4;stroke-dasharray:none;stroke-dashoffset:0"
       id="ellipse2750"
       cx="176.4817"
       cy="253.02261"
       rx="8.9960451"
       ry="3.7041662" />
    <g
       aria-label="exec"
       id="text2754"
       style="font-size:5.64444px;line-height:1.25;font-family:'Roboto Mono';-inkscape-font-specification:'Roboto Mono';text-align:center;letter-spacing:0px;word-spacing:0px;text-anchor:middle;fill:#000000;stroke-width:0.264583">
      <path
         d="m 170.83429,254.99872 q -0.31694,-0.21222 -0.47128,-0.56775 -0.15159,-0.35829 -0.15159,-0.80753 0,-0.44924 0.14056,-0.80477 0.14332,-0.35829 0.42444,-0.57602 0.28387,-0.22049 0.62287,-0.22049 0.63941,0 0.93707,0.43822 0.29765,0.43821 0.29765,1.07762 v 0.16812 h -1.91547 q 0.0165,0.46578 0.23151,0.791 0.21773,0.32521 0.65043,0.32521 0.28939,-0.0276 0.80753,-0.31419 l 0.16537,0.34175 q -0.35829,0.35829 -0.97841,0.35829 -0.44373,0 -0.76068,-0.20946 z m 1.32016,-1.65915 q -0.0551,-0.9288 -0.65043,-0.9288 -0.67248,0 -0.76894,0.9288 z"
         style="font-style:normal;font-variant:normal;font-weight:normal;font-stretch:normal;font-family:'Oxygen Mono';-inkscape-font-specification:'Oxygen Mono';text-align:center;text-anchor:middle;fill:#000000;stroke-width:0.264583"
         id="path1835" />
      <path
         d="m 173.52974,252.11587 h 0.57326 l 0.71933,1.16306 0.71934,-1.16306 h 0.5209 l -0.9288,1.46623 0.96187,1.55718 h -0.55673 l -0.73862,-1.2044 -0.76895,1.2044 h -0.55121 l 0.99218,-1.5434 z"
         style="font-style:normal;font-variant:normal;font-weight:normal;font-stretch:normal;font-family:'Oxygen Mono';-inkscape-font-specification:'Oxygen Mono';text-align:center;text-anchor:middle;fill:#000000;stroke-width:0.264583"
         id="path1837" />
      <path
         d="m 177.60873,254.99872 q -0.31695,-0.21222 -0.47129,-0.56775 -0.15159,-0.35829 -0.15159,-0.80753 0,-0.44924 0.14056,-0.80477 0.14332,-0.35829 0.42444,-0.57602 0.28387,-0.22049 0.62287,-0.22049 0.63941,0 0.93707,0.43822 0.29765,0.43821 0.29765,1.07762 v 0.16812 h -1.91547 q 0.0165,0.46578 0.23151,0.791 0.21773,0.32521 0.65043,0.32521 0.28939,-0.0276 0.80753,-0.31419 l 0.16537,0.34175 q -0.35829,0.35829 -0.97841,0.35829 -0.44373,0 -0.76067,-0.20946 z m 1.32016,-1.65915 q -0.0551,-0.9288 -0.65044,-0.9288 -0.67248,0 -0.76894,0.9288 z"
         style="font-style:normal;font-variant:normal;font-weight:normal;font-stretch:normal;font-family:'Oxygen Mono';-inkscape-font-specification:'Oxygen Mono';text-align:center;text-anchor:middle;fill:#000000;stroke-width:0.264583"
         id="path1839" />
      <path
         d="m 182.63029,254.94084 q -0.28939,0.26734 -0.82406,0.26734 -0.34176,0 -0.62288,-0.12953 -0.28112,-0.13229 -0.46026,-0.35278 -0.37758,-0.46302 -0.37758,-1.11621 0,-0.42168 0.17087,-0.77997 0.17364,-0.35829 0.50988,-0.58153 0.33624,-0.22324 0.82958,-0.22324 0.49333,0 0.76618,0.26183 l -0.12677,0.33624 q -0.31695,-0.21222 -0.71658,-0.21222 -0.39963,0 -0.66422,0.34175 -0.26183,0.34176 -0.26183,0.87092 0,0.52641 0.26183,0.86265 0.26459,0.33624 0.67248,0.33624 0.41066,0 0.7221,-0.22048 z"
         style="font-style:normal;font-variant:normal;font-weight:normal;font-stretch:normal;font-family:'Oxygen Mono';-inkscape-font-specification:'Oxygen Mono';text-align:center;text-anchor:middle;fill:#000000;stroke-width:0.264583"
         id="path1841" />
    </g>
  </g>
</svg>
