<?xml version="1.0" encoding="UTF-8" standalone="no"?>
<!-- Created with Inkscape (http://www.inkscape.org/) -->

<svg
   width="162.98332mm"
   height="33.602081mm"
   viewBox="0 0 162.98332 33.60208"
   version="1.1"
   id="svg3116"
   xmlns="http://www.w3.org/2000/svg"
   xmlns:svg="http://www.w3.org/2000/svg">
  <defs
     id="defs3113" />
  <g
     id="layer1"
     transform="translate(-62.2818,-64.097815)">
    <path
       id="path2079"
       style="fill:#cccccc;fill-rule:evenodd;stroke:none;stroke-width:0.529167;stroke-linecap:round;stroke-linejoin:round;stroke-miterlimit:4;stroke-dasharray:none"
       d="m 71.723507,70.4478 h 7.491627 l 2.116667,2.11667 -2.116667,2.11666 h -7.491627 z" />
    <circle
       style="fill:#cccccc;fill-rule:evenodd;stroke:none;stroke-width:0.529167;stroke-linecap:round;stroke-linejoin:round;stroke-miterlimit:4;stroke-dasharray:none"
       id="circle2081"
       cx="70.748466"
       cy="72.564484"
       r="8.4666662" />
    <g
       id="g2209"
       transform="translate(81.331801,58.00995)">
      <rect
         style="fill:#000000;fill-rule:evenodd;stroke-width:0.264583;stroke-linecap:round;stroke-linejoin:round"
         id="rect2083"
         width="12.700002"
         height="4.7576265"
         x="-16.933334"
         y="12.175707"
         rx="0.26458246"
         ry="0.26458395" />
      <rect
         style="fill:#ffffff;fill-rule:evenodd;stroke-width:0.264583;stroke-linecap:round;stroke-linejoin:round"
         id="rect2085"
         width="0.79375082"
         height="0.52916634"
         x="-16.404167"
         y="15.879875" />
      <rect
         style="fill:#ffffff;fill-rule:evenodd;stroke-width:0.264582;stroke-linecap:round;stroke-linejoin:round"
         id="rect2087"
         width="0.52916741"
         height="0.529167"
         x="-16.404167"
         y="15.086124" />
      <rect
         style="fill:#ffffff;fill-rule:evenodd;stroke-width:0.264584;stroke-linecap:round;stroke-linejoin:round"
         id="rect2089"
         width="0.79375166"
         height="0.52916574"
         x="-16.404167"
         y="13.498623" />
      <rect
         style="fill:#ffffff;fill-rule:evenodd;stroke-width:0.264582;stroke-linecap:round;stroke-linejoin:round"
         id="rect2091"
         width="1.0583334"
         height="0.51828963"
         x="-16.404167"
         y="14.303251" />
      <rect
         style="fill:#ffffff;fill-rule:evenodd;stroke-width:0.264583;stroke-linecap:round;stroke-linejoin:round"
         id="rect2093"
         width="0.52916664"
         height="0.51868218"
         x="-16.404167"
         y="12.704874" />
      <rect
         style="fill:#ffffff;fill-rule:evenodd;stroke-width:0.264583;stroke-linecap:round;stroke-linejoin:round"
         id="rect2095"
         width="0.52916664"
         height="0.51868218"
         x="-15.610417"
         y="12.715359" />
      <rect
         style="fill:#ffffff;fill-rule:evenodd;stroke-width:0.264583;stroke-linecap:round;stroke-linejoin:round"
         id="rect2097"
         width="0.52916664"
         height="0.51868218"
         x="-14.816667"
         y="12.715359" />
      <rect
         style="fill:#ffffff;fill-rule:evenodd;stroke-width:0.264583;stroke-linecap:round;stroke-linejoin:round"
         id="rect2099"
         width="0.52916664"
         height="0.51868218"
         x="-14.022917"
         y="12.715359" />
      <rect
         style="fill:#ffffff;fill-rule:evenodd;stroke-width:0.264583;stroke-linecap:round;stroke-linejoin:round"
         id="rect2101"
         width="0.52916664"
         height="0.51868218"
         x="-13.229167"
         y="12.704874" />
      <rect
         style="fill:#ffffff;fill-rule:evenodd;stroke-width:0.264583;stroke-linecap:round;stroke-linejoin:round"
         id="rect2103"
         width="0.52916664"
         height="0.51868218"
         x="-12.435416"
         y="12.704874" />
      <rect
         style="fill:#ffffff;fill-rule:evenodd;stroke-width:0.264583;stroke-linecap:round;stroke-linejoin:round"
         id="rect2105"
         width="0.52916664"
         height="0.52916652"
         x="-11.641667"
         y="12.704876" />
      <rect
         style="fill:#ffffff;fill-rule:evenodd;stroke-width:0.264583;stroke-linecap:round;stroke-linejoin:round"
         id="rect2107"
         width="0.52916664"
         height="0.52916652"
         x="-10.847917"
         y="12.704876" />
      <rect
         style="fill:#ffffff;fill-rule:evenodd;stroke-width:0.264583;stroke-linecap:round;stroke-linejoin:round"
         id="rect2109"
         width="0.52916664"
         height="0.51868218"
         x="-10.054166"
         y="12.704874" />
      <rect
         style="fill:#ffffff;fill-rule:evenodd;stroke-width:0.264583;stroke-linecap:round;stroke-linejoin:round"
         id="rect2111"
         width="0.52916664"
         height="0.52916652"
         x="-9.260417"
         y="12.704876" />
      <rect
         style="fill:#ffffff;fill-rule:evenodd;stroke-width:0.264583;stroke-linecap:round;stroke-linejoin:round"
         id="rect2113"
         width="0.52916664"
         height="0.51868218"
         x="-8.4666681"
         y="12.704874" />
      <rect
         style="fill:#ffffff;fill-rule:evenodd;stroke-width:0.264583;stroke-linecap:round;stroke-linejoin:round"
         id="rect2115"
         width="0.52916664"
         height="0.52916652"
         x="-7.6729169"
         y="12.704876" />
      <rect
         style="fill:#ffffff;fill-rule:evenodd;stroke-width:0.264583;stroke-linecap:round;stroke-linejoin:round"
         id="rect2117"
         width="0.52916664"
         height="0.52916652"
         x="-6.8791661"
         y="12.704876" />
      <rect
         style="fill:#ffffff;fill-rule:evenodd;stroke-width:0.264584;stroke-linecap:round;stroke-linejoin:round"
         id="rect2119"
         width="1.3229179"
         height="0.52916652"
         x="-6.0854173"
         y="12.704876" />
      <rect
         style="fill:#ffffff;fill-rule:evenodd;stroke-width:0.264583;stroke-linecap:round;stroke-linejoin:round"
         id="rect2121"
         width="0.52916664"
         height="0.51868218"
         x="-15.345833"
         y="13.509109" />
      <rect
         style="fill:#ffffff;fill-rule:evenodd;stroke-width:0.264583;stroke-linecap:round;stroke-linejoin:round"
         id="rect2123"
         width="0.52916664"
         height="0.51868218"
         x="-14.552081"
         y="13.509109" />
      <rect
         style="fill:#ffffff;fill-rule:evenodd;stroke-width:0.264583;stroke-linecap:round;stroke-linejoin:round"
         id="rect2125"
         width="0.52916664"
         height="0.51868218"
         x="-13.758332"
         y="13.509109" />
      <rect
         style="fill:#ffffff;fill-rule:evenodd;stroke-width:0.264583;stroke-linecap:round;stroke-linejoin:round"
         id="rect2127"
         width="0.52916664"
         height="0.51868218"
         x="-12.964582"
         y="13.498625" />
      <rect
         style="fill:#ffffff;fill-rule:evenodd;stroke-width:0.264583;stroke-linecap:round;stroke-linejoin:round"
         id="rect2129"
         width="0.52916664"
         height="0.51868218"
         x="-12.170831"
         y="13.498625" />
      <rect
         style="fill:#ffffff;fill-rule:evenodd;stroke-width:0.264583;stroke-linecap:round;stroke-linejoin:round"
         id="rect2131"
         width="0.52916664"
         height="0.52916723"
         x="-11.377084"
         y="13.498623" />
      <rect
         style="fill:#ffffff;fill-rule:evenodd;stroke-width:0.264583;stroke-linecap:round;stroke-linejoin:round"
         id="rect2133"
         width="0.52916664"
         height="0.52916723"
         x="-10.583331"
         y="13.498623" />
      <rect
         style="fill:#ffffff;fill-rule:evenodd;stroke-width:0.264583;stroke-linecap:round;stroke-linejoin:round"
         id="rect2135"
         width="0.52916664"
         height="0.51868218"
         x="-9.7895823"
         y="13.498625" />
      <rect
         style="fill:#ffffff;fill-rule:evenodd;stroke-width:0.264583;stroke-linecap:round;stroke-linejoin:round"
         id="rect2137"
         width="0.52916664"
         height="0.52916723"
         x="-8.9958334"
         y="13.498623" />
      <rect
         style="fill:#ffffff;fill-rule:evenodd;stroke-width:0.264583;stroke-linecap:round;stroke-linejoin:round"
         id="rect2139"
         width="0.52916664"
         height="0.52916598"
         x="-8.2020845"
         y="13.498625" />
      <rect
         style="fill:#ffffff;fill-rule:evenodd;stroke-width:0.264583;stroke-linecap:round;stroke-linejoin:round"
         id="rect2141"
         width="0.52916664"
         height="0.52916723"
         x="-7.4083333"
         y="13.498623" />
      <rect
         style="fill:#ffffff;fill-rule:evenodd;stroke-width:0.264583;stroke-linecap:round;stroke-linejoin:round"
         id="rect2143"
         width="0.52916664"
         height="0.52916723"
         x="-6.6145825"
         y="13.498623" />
      <rect
         style="fill:#ffffff;fill-rule:evenodd;stroke-width:0.264583;stroke-linecap:round;stroke-linejoin:round"
         id="rect2145"
         width="0.52916664"
         height="0.51868218"
         x="-15.08125"
         y="14.302858" />
      <rect
         style="fill:#ffffff;fill-rule:evenodd;stroke-width:0.264583;stroke-linecap:round;stroke-linejoin:round"
         id="rect2147"
         width="0.52916664"
         height="0.51868218"
         x="-14.287499"
         y="14.302858" />
      <rect
         style="fill:#ffffff;fill-rule:evenodd;stroke-width:0.264583;stroke-linecap:round;stroke-linejoin:round"
         id="rect2149"
         width="0.52916664"
         height="0.51868218"
         x="-13.49375"
         y="14.302858" />
      <rect
         style="fill:#ffffff;fill-rule:evenodd;stroke-width:0.264583;stroke-linecap:round;stroke-linejoin:round"
         id="rect2151"
         width="0.52916664"
         height="0.51868218"
         x="-12.7"
         y="14.292375" />
      <rect
         style="fill:#ffffff;fill-rule:evenodd;stroke-width:0.264583;stroke-linecap:round;stroke-linejoin:round"
         id="rect2153"
         width="0.52916664"
         height="0.51868218"
         x="-11.906249"
         y="14.292375" />
      <rect
         style="fill:#ffffff;fill-rule:evenodd;stroke-width:0.264583;stroke-linecap:round;stroke-linejoin:round"
         id="rect2155"
         width="0.52916664"
         height="0.5291661"
         x="-11.1125"
         y="14.292375" />
      <rect
         style="fill:#ffffff;fill-rule:evenodd;stroke-width:0.264583;stroke-linecap:round;stroke-linejoin:round"
         id="rect2157"
         width="0.52916664"
         height="0.5291661"
         x="-10.318749"
         y="14.292375" />
      <rect
         style="fill:#ffffff;fill-rule:evenodd;stroke-width:0.264583;stroke-linecap:round;stroke-linejoin:round"
         id="rect2159"
         width="0.52916664"
         height="0.51868218"
         x="-9.5249987"
         y="14.292375" />
      <rect
         style="fill:#ffffff;fill-rule:evenodd;stroke-width:0.264583;stroke-linecap:round;stroke-linejoin:round"
         id="rect2161"
         width="0.52916664"
         height="0.5291661"
         x="-8.7312498"
         y="14.292375" />
      <rect
         style="fill:#ffffff;fill-rule:evenodd;stroke-width:0.264583;stroke-linecap:round;stroke-linejoin:round"
         id="rect2163"
         width="0.52916664"
         height="0.51868141"
         x="-7.937501"
         y="14.292375" />
      <rect
         style="fill:#ffffff;fill-rule:evenodd;stroke-width:0.264583;stroke-linecap:round;stroke-linejoin:round"
         id="rect2165"
         width="0.52916664"
         height="0.52916533"
         x="-7.1437497"
         y="14.292375" />
      <rect
         style="fill:#ffffff;fill-rule:evenodd;stroke-width:0.264583;stroke-linecap:round;stroke-linejoin:round"
         id="rect2167"
         width="0.52916664"
         height="0.52916533"
         x="-6.3500009"
         y="14.292375" />
      <rect
         style="fill:#ffffff;fill-rule:evenodd;stroke-width:0.264583;stroke-linecap:round;stroke-linejoin:round"
         id="rect2169"
         width="0.52916664"
         height="0.52916688"
         x="-14.816667"
         y="15.086124" />
      <rect
         style="fill:#ffffff;fill-rule:evenodd;stroke-width:0.264583;stroke-linecap:round;stroke-linejoin:round"
         id="rect2171"
         width="0.52916664"
         height="0.52916855"
         x="-14.022916"
         y="15.086124" />
      <rect
         style="fill:#ffffff;fill-rule:evenodd;stroke-width:0.264583;stroke-linecap:round;stroke-linejoin:round"
         id="rect2173"
         width="0.52916664"
         height="0.52916688"
         x="-13.229166"
         y="15.086124" />
      <rect
         style="fill:#ffffff;fill-rule:evenodd;stroke-width:0.264583;stroke-linecap:round;stroke-linejoin:round"
         id="rect2175"
         width="0.52916664"
         height="0.51868218"
         x="-12.435416"
         y="15.086124" />
      <rect
         style="fill:#ffffff;fill-rule:evenodd;stroke-width:0.264583;stroke-linecap:round;stroke-linejoin:round"
         id="rect2177"
         width="0.52916664"
         height="0.51868218"
         x="-11.641665"
         y="15.086124" />
      <rect
         style="fill:#ffffff;fill-rule:evenodd;stroke-width:0.264583;stroke-linecap:round;stroke-linejoin:round"
         id="rect2179"
         width="0.52916664"
         height="0.52916688"
         x="-10.847917"
         y="15.086124" />
      <rect
         style="fill:#ffffff;fill-rule:evenodd;stroke-width:0.264583;stroke-linecap:round;stroke-linejoin:round"
         id="rect2181"
         width="0.52916664"
         height="0.52916688"
         x="-10.054166"
         y="15.086124" />
      <rect
         style="fill:#ffffff;fill-rule:evenodd;stroke-width:0.264583;stroke-linecap:round;stroke-linejoin:round"
         id="rect2183"
         width="0.52916664"
         height="0.51868218"
         x="-9.2604151"
         y="15.086124" />
      <rect
         style="fill:#ffffff;fill-rule:evenodd;stroke-width:0.264583;stroke-linecap:round;stroke-linejoin:round"
         id="rect2185"
         width="0.52916664"
         height="0.52916688"
         x="-8.4666662"
         y="15.086124" />
      <rect
         style="fill:#ffffff;fill-rule:evenodd;stroke-width:0.264583;stroke-linecap:round;stroke-linejoin:round"
         id="rect2187"
         width="0.52916664"
         height="0.51868218"
         x="-7.6729169"
         y="15.086124" />
      <rect
         style="fill:#ffffff;fill-rule:evenodd;stroke-width:0.264583;stroke-linecap:round;stroke-linejoin:round"
         id="rect2189"
         width="0.52916664"
         height="0.52916688"
         x="-15.610417"
         y="15.086124" />
      <rect
         style="fill:#ffffff;fill-rule:evenodd;stroke-width:0.264583;stroke-linecap:round;stroke-linejoin:round"
         id="rect2191"
         width="0.79374981"
         height="0.52916825"
         x="-14.552081"
         y="15.879871" />
      <rect
         style="fill:#ffffff;fill-rule:evenodd;stroke-width:0.264584;stroke-linecap:round;stroke-linejoin:round"
         id="rect2193"
         width="2.1166651"
         height="0.52916688"
         x="-6.8791642"
         y="15.086124" />
      <rect
         style="fill:#ffffff;fill-rule:evenodd;stroke-width:0.264583;stroke-linecap:round;stroke-linejoin:round"
         id="rect2195"
         width="0.79374945"
         height="1.3229165"
         x="-5.5562501"
         y="13.498625" />
      <rect
         style="fill:#ffffff;fill-rule:evenodd;stroke-width:0.264583;stroke-linecap:round;stroke-linejoin:round"
         id="rect2197"
         width="0.52916664"
         height="0.52916723"
         x="-5.8208337"
         y="13.498623" />
      <rect
         style="fill:#ffffff;fill-rule:evenodd;stroke-width:0.264583;stroke-linecap:round;stroke-linejoin:round"
         id="rect2199"
         width="0.79375082"
         height="0.52916747"
         x="-7.4083333"
         y="15.879873" />
      <rect
         style="fill:#ffffff;fill-rule:evenodd;stroke-width:0.264583;stroke-linecap:round;stroke-linejoin:round"
         id="rect2201"
         width="0.79374981"
         height="0.5291701"
         x="-5.5562482"
         y="15.879873" />
      <rect
         style="fill:#ffffff;fill-rule:evenodd;stroke-width:0.264584;stroke-linecap:round;stroke-linejoin:round"
         id="rect2203"
         width="5.8208337"
         height="0.52916574"
         x="-13.493751"
         y="15.879875" />
      <rect
         style="fill:#ffffff;fill-rule:evenodd;stroke-width:0.264583;stroke-linecap:round;stroke-linejoin:round"
         id="rect2205"
         width="0.52916664"
         height="0.51868218"
         x="-6.3500009"
         y="15.890358" />
      <rect
         style="fill:#ffffff;fill-rule:evenodd;stroke-width:0.264583;stroke-linecap:round;stroke-linejoin:round"
         id="rect2207"
         width="0.52916664"
         height="0.52916688"
         x="-15.345833"
         y="15.879873" />
    </g>
    <path
       id="path2269"
       style="fill:#ff0000;fill-rule:evenodd;stroke:none;stroke-width:0.529167;stroke-linecap:round;stroke-linejoin:round;stroke-miterlimit:4;stroke-dasharray:none"
       d="m 131.33804,70.44782 h 5.02709 l 2.11666,2.11667 -2.11666,2.11666 h -5.02709 z" />
    <rect
       style="fill:#ff0000;fill-rule:evenodd;stroke:none;stroke-width:0.264583;stroke-linecap:round;stroke-linejoin:round"
       id="rect2211"
       width="27.516672"
       height="8.4666662"
       x="136.36513"
       y="68.331161"
       ry="2.1166666"
       rx="2.1166649" />
    <path
       id="path2245"
       style="fill:#0000ff;fill-rule:evenodd;stroke:none;stroke-width:0.529167;stroke-linecap:round;stroke-linejoin:round;stroke-miterlimit:4;stroke-dasharray:none"
       d="m 165.2047,70.44781 h 5.02709 l 2.11666,2.11667 -2.11666,2.11666 h -5.02709 z" />
    <path
       id="path2247"
       style="fill:#ff0000;fill-rule:evenodd;stroke:none;stroke-width:0.529167;stroke-linecap:round;stroke-linejoin:round;stroke-miterlimit:4;stroke-dasharray:none"
       d="m 158.50684,70.44779 h 7.49163 l 2.11666,2.11667 -2.11666,2.11666 h -7.49163 z" />
    <path
       id="path2271"
       style="fill:#808000;fill-rule:evenodd;stroke:none;stroke-width:0.529167;stroke-linecap:round;stroke-linejoin:round;stroke-miterlimit:4;stroke-dasharray:none"
       d="m 124.64017,70.4478 h 7.49163 l 2.11667,2.11667 -2.11667,2.11666 h -7.49163 z" />
    <g
       aria-label="sort -n"
       id="text2215"
       style="font-size:5.64444px;line-height:1.25;font-family:'Roboto Mono';-inkscape-font-specification:'Roboto Mono';text-align:center;letter-spacing:0px;word-spacing:0px;text-anchor:middle;fill:#ffffff;stroke-width:0.264583">
      <path
         d="m 140.23467,72.944831 q 0.39136,0.09646 0.57051,0.305924 0.1819,0.209462 0.1819,0.606337 0,0.394118 -0.30317,0.633897 -0.30041,0.239778 -0.75516,0.239778 -0.32522,0 -0.63114,-0.07993 -0.30593,-0.08268 -0.452,-0.192925 l 0.12402,-0.361046 q 0.11576,0.07166 0.36656,0.146072 0.2508,0.07166 0.54295,0.07166 0.2949,0 0.46853,-0.121267 0.17639,-0.124024 0.17639,-0.327973 0,-0.20395 -0.0882,-0.319705 -0.0854,-0.118511 -0.33348,-0.179145 l -0.51263,-0.124023 q -0.44373,-0.110243 -0.5898,-0.319705 -0.14607,-0.212217 -0.14607,-0.52641 0,-0.314192 0.25356,-0.578775 0.25631,-0.264584 0.74414,-0.270096 h 0.0358 q 0.54845,0 0.93431,0.206706 l -0.11025,0.352777 q -0.40238,-0.170876 -0.8158,-0.170876 -0.25631,0.0028 -0.42168,0.129535 -0.1626,0.124024 -0.1626,0.314193 0,0.190169 0.0827,0.286631 0.0827,0.09371 0.31419,0.148828 z"
         style="font-family:'Oxygen Mono';-inkscape-font-specification:'Oxygen Mono'"
         id="path7351" />
      <path
         d="m 143.24706,74.344917 q 0.52641,0 0.71658,-0.523654 0.10197,-0.28112 0.10197,-0.57602 0,-0.297656 -0.022,-0.46302 -0.0496,-0.374827 -0.23978,-0.611849 -0.18742,-0.237022 -0.55673,-0.237022 -0.51263,0 -0.70004,0.534678 -0.0992,0.286632 -0.0992,0.600824 0,0.556727 0.17363,0.917773 0.17363,0.35829 0.62563,0.35829 z m 0.99219,-2.356444 q 0.32797,0.440972 0.32797,1.152039 0,0.711067 -0.35553,1.152039 -0.35554,0.438216 -0.96463,0.438216 -0.32522,0 -0.57878,-0.124023 -0.25355,-0.124024 -0.41065,-0.341753 -0.31695,-0.438216 -0.31695,-1.141015 0,-0.702799 0.35002,-1.138259 0.35002,-0.438216 0.98392,-0.438216 0.63665,0 0.96463,0.440972 z"
         style="font-family:'Oxygen Mono';-inkscape-font-specification:'Oxygen Mono'"
         id="path7353" />
      <path
         d="m 146.44411,74.661865 h -0.50161 v -3.023413 h 0.41066 l 0.0413,0.559483 q 0.18465,-0.319705 0.48507,-0.485069 0.30041,-0.165365 0.68075,-0.165365 h 0.24253 v 0.465777 h -0.31419 q -0.48231,0 -0.76343,0.242534 -0.28112,0.239779 -0.28112,0.724848 z"
         style="font-family:'Oxygen Mono';-inkscape-font-specification:'Oxygen Mono'"
         id="path7355" />
      <path
         d="m 149.94156,72.024302 v 1.419378 q 0,0.264584 0.0276,0.418924 0.0303,0.15434 0.11575,0.250802 0.0882,0.09646 0.226,0.129536 0.1378,0.03307 0.37483,0.03307 h 0.55397 l -0.0276,0.38585 H 150.705 q -0.77997,0 -1.03904,-0.286631 -0.16812,-0.187414 -0.20671,-0.603581 -0.0193,-0.184657 -0.0193,-0.454752 v -1.292599 h -0.85438 l 0.0551,-0.38585 h 0.79926 v -1.041796 l 0.5016,-0.148828 v 1.190624 h 1.27331 v 0.38585 z"
         style="font-family:'Oxygen Mono';-inkscape-font-specification:'Oxygen Mono'"
         id="path7357" />
      <path
         d="m 157.84599,72.382592 v 0.427191 h -1.84657 v -0.427191 z"
         style="font-family:'Oxygen Mono';-inkscape-font-specification:'Oxygen Mono'"
         id="path7359" />
      <path
         d="m 160.4615,71.547501 q 0.93982,0 0.93982,1.190624 v 1.92374 h -0.5016 v -1.863106 q 0,-0.319705 -0.0331,-0.457508 -0.0331,-0.137804 -0.0992,-0.225998 -0.14056,-0.181901 -0.46026,-0.181901 -0.32246,0 -0.5457,0.187413 -0.22324,0.187413 -0.22324,0.496093 v 2.045007 h -0.50161 v -3.023413 h 0.46026 l 0.0276,0.327973 q 0.30041,-0.418924 0.93706,-0.418924 z"
         style="font-family:'Oxygen Mono';-inkscape-font-specification:'Oxygen Mono'"
         id="path7361" />
    </g>
    <path
       style="fill:none;stroke:#808000;stroke-width:1.05833;stroke-linecap:round;stroke-linejoin:miter;stroke-miterlimit:4;stroke-dasharray:none;stroke-opacity:1"
       d="m 110.96513,87.38114 h 2.11667"
       id="path2225" />
    <circle
       style="fill:#afdde9;fill-opacity:1;fill-rule:evenodd;stroke:none;stroke-width:0.529167;stroke-linecap:round;stroke-linejoin:round;stroke-miterlimit:4;stroke-dasharray:none"
       id="circle2227"
       cx="119.96096"
       cy="89.233231"
       r="8.4666662" />
    <g
       id="g2301"
       transform="translate(157.26721,78.12073)"
       style="fill:#ffffff;stroke-width:1;stroke-miterlimit:4;stroke-dasharray:none;paint-order:fill markers stroke">
      <path
         style="fill:#ffffff;stroke:#000000;stroke-width:0.529167;stroke-linecap:butt;stroke-linejoin:miter;stroke-miterlimit:4;stroke-dasharray:none;stroke-opacity:1;paint-order:fill markers stroke"
         d="M -42.068749,8.7312499 V 16.66875 h 6.349999 v -6.35 l -1.5875,-1.5875 z"
         id="path2297" />
      <path
         style="fill:none;stroke:#000000;stroke-width:0.529167;stroke-linecap:butt;stroke-linejoin:miter;stroke-miterlimit:4;stroke-dasharray:none;stroke-opacity:1;paint-order:fill markers stroke"
         d="m -37.30625,8.73125 v 1.5875 h 1.5875"
         id="path2299" />
    </g>
    <g
       id="g2295"
       transform="translate(158.06096,77.32698)"
       style="fill:#ffffff;stroke-width:1;stroke-miterlimit:4;stroke-dasharray:none;paint-order:fill markers stroke">
      <path
         style="fill:#ffffff;stroke:#000000;stroke-width:0.529167;stroke-linecap:butt;stroke-linejoin:miter;stroke-miterlimit:4;stroke-dasharray:none;stroke-opacity:1;paint-order:fill markers stroke"
         d="M -42.068749,8.7312499 V 16.66875 h 6.349999 v -6.35 l -1.5875,-1.5875 z"
         id="path2291" />
      <path
         style="fill:none;stroke:#000000;stroke-width:0.529167;stroke-linecap:butt;stroke-linejoin:miter;stroke-miterlimit:4;stroke-dasharray:none;stroke-opacity:1;paint-order:fill markers stroke"
         d="m -37.30625,8.73125 v 1.5875 h 1.5875"
         id="path2293" />
    </g>
    <g
       id="g2233"
       transform="translate(158.85471,76.53323)"
       style="fill:#ffffff;stroke-width:1;stroke-miterlimit:4;stroke-dasharray:none;paint-order:fill markers stroke">
      <path
         style="fill:#ffffff;stroke:#000000;stroke-width:0.529167;stroke-linecap:butt;stroke-linejoin:miter;stroke-miterlimit:4;stroke-dasharray:none;stroke-opacity:1;paint-order:fill markers stroke"
         d="M -42.068749,8.7312499 V 16.66875 h 6.349999 v -6.35 l -1.5875,-1.5875 z"
         id="path2229" />
      <path
         style="fill:none;stroke:#000000;stroke-width:0.529167;stroke-linecap:butt;stroke-linejoin:miter;stroke-miterlimit:4;stroke-dasharray:none;stroke-opacity:1;paint-order:fill markers stroke"
         d="m -37.30625,8.73125 v 1.5875 h 1.5875"
         id="path2231" />
    </g>
    <path
       style="fill:none;stroke:#808000;stroke-width:4.23333;stroke-linecap:butt;stroke-linejoin:miter;stroke-miterlimit:4;stroke-dasharray:none;stroke-opacity:1"
       d="m 100.3818,76.79781 c 0,8.46667 4.23333,12.7 10.58333,12.7"
       id="path2235" />
    <path
       style="fill:none;stroke:#808000;stroke-width:1.05833;stroke-linecap:round;stroke-linejoin:miter;stroke-miterlimit:4;stroke-dasharray:none;stroke-opacity:1"
       d="m 110.96513,88.43948 h 2.11666"
       id="path2237" />
    <path
       style="fill:none;stroke:#808000;stroke-width:1.05833;stroke-linecap:round;stroke-linejoin:miter;stroke-miterlimit:4;stroke-dasharray:none;stroke-opacity:1"
       d="m 110.96513,89.49781 h 2.11667"
       id="path2239" />
    <path
       style="fill:none;stroke:#808000;stroke-width:1.05833;stroke-linecap:round;stroke-linejoin:miter;stroke-miterlimit:4;stroke-dasharray:none;stroke-opacity:1"
       d="m 110.96513,90.55615 h 2.11667"
       id="path2241" />
    <path
       style="fill:none;stroke:#808000;stroke-width:1.05833;stroke-linecap:round;stroke-linejoin:miter;stroke-miterlimit:4;stroke-dasharray:none;stroke-opacity:1"
       d="m 110.96513,91.61448 h 2.11667"
       id="path2243" />
    <path
       id="path2249"
       style="fill:#b3b3b3;fill-rule:evenodd;stroke:none;stroke-width:0.529167;stroke-linecap:round;stroke-linejoin:round;stroke-miterlimit:4;stroke-dasharray:none"
       d="m 206.21512,70.4478 h 6.51659 v 4.23333 h -6.51659 z" />
    <path
       id="path2251"
       style="fill:#0000ff;fill-rule:evenodd;stroke:none;stroke-width:0.529167;stroke-linecap:round;stroke-linejoin:round;stroke-miterlimit:4;stroke-dasharray:none"
       d="m 201.18804,70.4478 h 5.02709 l 2.11666,2.11667 -2.11666,2.11666 h -5.02709 z" />
    <rect
       style="fill:#0000ff;fill-rule:evenodd;stroke:none;stroke-width:0.264583;stroke-linecap:round;stroke-linejoin:round"
       id="rect2253"
       width="33.866669"
       height="8.4666662"
       x="170.2318"
       y="68.331161"
       ry="2.1166666"
       rx="2.1166649" />
    <g
       aria-label="head -n 1"
       id="text2257"
       style="font-size:5.64444px;line-height:1.25;font-family:'Roboto Mono';-inkscape-font-specification:'Roboto Mono';text-align:center;letter-spacing:0px;word-spacing:0px;text-anchor:middle;fill:#ffffff;stroke-width:0.264583">
      <path
         d="m 174.76143,72.862155 v 1.824521 h -0.50161 v -1.761131 q 0,-0.567752 -0.15158,-0.766189 -0.15158,-0.201194 -0.45751,-0.201194 -0.30868,0 -0.53743,0.214974 -0.226,0.212218 -0.226,0.457509 v 2.056031 h -0.50161 v -4.258135 l 0.50161,-0.05512 v 1.6564 q 0.35278,-0.457508 0.94533,-0.457508 0.9288,0 0.9288,1.289843 z"
         style="font-family:'Oxygen Mono';-inkscape-font-specification:'Oxygen Mono'"
         id="path7364" />
      <path
         d="m 176.39854,74.546116 q -0.31695,-0.212217 -0.47129,-0.567751 -0.15159,-0.35829 -0.15159,-0.80753 0,-0.44924 0.14056,-0.804774 0.14332,-0.358289 0.42444,-0.576019 0.28388,-0.220486 0.62287,-0.220486 0.63941,0 0.93707,0.438216 0.29765,0.438216 0.29765,1.077625 v 0.16812 h -1.91547 q 0.0165,0.465777 0.23151,0.790994 0.21773,0.325216 0.65044,0.325216 0.28938,-0.02756 0.80753,-0.314192 l 0.16536,0.341753 q -0.35829,0.35829 -0.97841,0.35829 -0.44372,0 -0.76067,-0.209462 z m 1.32016,-1.659156 q -0.0551,-0.928798 -0.65044,-0.928798 -0.67248,0 -0.76894,0.928798 z"
         style="font-family:'Oxygen Mono';-inkscape-font-specification:'Oxygen Mono'"
         id="path7366" />
      <path
         d="m 180.99843,74.011438 v -0.771701 l -0.41066,0.05788 q -0.42995,0.06063 -0.59531,0.121267 -0.36932,0.14056 -0.36932,0.471289 0,0.228754 0.1323,0.363801 0.13229,0.135048 0.3638,0.135048 0.50987,0 0.87919,-0.377582 z m 0,-1.408354 q 0,-0.647678 -0.54846,-0.647678 -0.25907,0 -0.57327,0.06063 -0.31143,0.06063 -0.43821,0.115755 l -0.11851,-0.369314 q 0.5705,-0.190169 1.07211,-0.190169 0.5016,0 0.80477,0.228754 0.30317,0.228754 0.30317,0.705555 v 2.180055 h -0.41617 l -0.0661,-0.350021 q -0.17639,0.179144 -0.45475,0.300412 -0.27561,0.118511 -0.5402,0.118511 -0.38309,0 -0.63665,-0.228754 -0.25356,-0.231511 -0.25356,-0.650434 0,-0.421679 0.33073,-0.61736 0.22324,-0.137804 0.47405,-0.187414 0.25356,-0.05237 0.6587,-0.101974 l 0.40239,-0.04685 z"
         style="font-family:'Oxygen Mono';-inkscape-font-specification:'Oxygen Mono'"
         id="path7368" />
      <path
         d="m 184.46557,73.157055 q 0,-0.705555 -0.20947,-0.950846 -0.20946,-0.248047 -0.59531,-0.248047 -0.53468,0 -0.69177,0.529167 -0.0854,0.289388 -0.0854,0.697287 0,1.185111 0.77721,1.185111 0.80478,0 0.80478,-1.212672 z m 0,-1.077625 v -1.650889 l 0.5016,-0.05512 v 4.313256 h -0.5016 v -0.468533 q -0.30593,0.537435 -0.86541,0.537435 -0.63941,0 -0.93155,-0.457508 -0.28939,-0.457509 -0.28939,-1.149283 0,-0.832335 0.42443,-1.267795 0.29766,-0.30868 0.79927,-0.30868 0.34175,0 0.55397,0.14056 0.21497,0.14056 0.30868,0.366558 z"
         style="font-family:'Oxygen Mono';-inkscape-font-specification:'Oxygen Mono'"
         id="path7370" />
      <path
         d="m 191.55695,72.407403 v 0.427191 h -1.84657 v -0.427191 z"
         style="font-family:'Oxygen Mono';-inkscape-font-specification:'Oxygen Mono'"
         id="path7372" />
      <path
         d="m 194.17246,71.572312 q 0.93982,0 0.93982,1.190624 v 1.92374 h -0.5016 V 72.82357 q 0,-0.319705 -0.0331,-0.457509 -0.0331,-0.137803 -0.0992,-0.225998 -0.14056,-0.181901 -0.46026,-0.181901 -0.32246,0 -0.5457,0.187414 -0.22324,0.187413 -0.22324,0.496093 v 2.045007 h -0.50161 v -3.023413 h 0.46026 l 0.0276,0.327972 q 0.30042,-0.418923 0.93707,-0.418923 z"
         style="font-family:'Oxygen Mono';-inkscape-font-specification:'Oxygen Mono'"
         id="path7374" />
      <path
         d="m 199.635,71.139608 q 0.37758,-0.15434 0.92604,-0.564995 h 0.51814 v 3.709676 h 0.86541 v 0.402387 h -2.30683 v -0.402387 h 0.92604 V 71.13134 q -0.0772,0.0441 -0.38585,0.23151 -0.30868,0.184657 -0.54295,0.275608 z"
         style="font-family:'Oxygen Mono';-inkscape-font-specification:'Oxygen Mono'"
         id="path7376" />
    </g>
    <circle
       style="fill:#b3b3b3;fill-rule:evenodd;stroke:none;stroke-width:0.529167;stroke-linecap:round;stroke-linejoin:round;stroke-miterlimit:4;stroke-dasharray:none"
       id="circle2259"
       cx="216.79846"
       cy="72.564484"
       r="8.4666662" />
    <rect
       style="fill:#000000;fill-rule:evenodd;stroke-width:0.264583;stroke-linecap:round;stroke-linejoin:round"
       id="rect2261"
       width="10.583334"
       height="6.3499999"
       x="211.50679"
       y="68.595734"
       rx="0.26458246"
       ry="0.26458395" />
    <rect
       style="fill:#ffffff;fill-rule:evenodd;stroke-width:0.264583;stroke-linecap:round;stroke-linejoin:round"
       id="rect2263"
       width="9.5250015"
       height="5.291666"
       x="212.03595"
       y="69.124893" />
    <rect
       style="fill:#000000;fill-rule:evenodd;stroke-width:0.264584;stroke-linecap:round;stroke-linejoin:round"
       id="rect2265"
       width="4.2333336"
       height="1.0583334"
       x="214.68178"
       y="75.474899"
       rx="0.26458246"
       ry="0.26458395" />
    <rect
       style="fill:#000000;fill-rule:evenodd;stroke-width:0.264584;stroke-linecap:round;stroke-linejoin:round"
       id="rect2267"
       width="0.79374939"
       height="1.322917"
       x="216.40158"
       y="74.681137"
       rx="0.26458246"
       ry="0.26458395" />
    <rect
       style="fill:#808000;fill-rule:evenodd;stroke:none;stroke-width:0.264583;stroke-linecap:round;stroke-linejoin:round"
       id="rect2273"
       width="44.449997"
       height="8.4666662"
       x="85.565125"
       y="68.331161"
       ry="2.1166666"
       rx="2.1166649" />
    <g
       aria-label="wc -l *.pdb"
       id="text2277"
       style="font-size:5.64444px;line-height:1.25;font-family:'Roboto Mono';-inkscape-font-specification:'Roboto Mono';text-align:center;letter-spacing:0px;word-spacing:0px;text-anchor:middle;fill:#ffffff;stroke-width:0.264583">
      <path
         d="m 90.454419,74.612259 h -0.51263 l -0.5898,-3.023414 h 0.504361 l 0.361046,2.334395 0.504362,-2.334395 h 0.598068 l 0.493337,2.326127 0.316949,-2.326127 h 0.474045 l -0.553971,3.023414 H 91.521019 L 91.016658,71.98572 Z"
         style="font-family:'Oxygen Mono';-inkscape-font-specification:'Oxygen Mono'"
         id="path7379" />
      <path
         d="m 95.434645,74.413822 q -0.289388,0.267339 -0.824066,0.267339 -0.341754,0 -0.622873,-0.129536 -0.28112,-0.132291 -0.460265,-0.352777 -0.377582,-0.463021 -0.377582,-1.11621 0,-0.42168 0.170877,-0.779969 0.173633,-0.35829 0.509874,-0.581532 0.336241,-0.223242 0.829578,-0.223242 0.493337,0 0.766189,0.261827 l -0.12678,0.336241 q -0.316948,-0.212218 -0.716579,-0.212218 -0.399631,0 -0.664214,0.341754 -0.261827,0.341753 -0.261827,0.870919 0,0.52641 0.261827,0.862651 0.264583,0.336241 0.672482,0.336241 0.410655,0 0.722092,-0.220486 z"
         style="font-family:'Oxygen Mono';-inkscape-font-specification:'Oxygen Mono'"
         id="path7381" />
      <path
         d="m 102.18427,72.332985 v 0.427192 h -1.84657 v -0.427192 z"
         style="font-family:'Oxygen Mono';-inkscape-font-specification:'Oxygen Mono'"
         id="path7383" />
      <path
         d="m 105.69827,74.612259 h -0.39963 q -0.53193,0 -0.76068,-0.110243 -0.13229,-0.06339 -0.20946,-0.146072 -0.20395,-0.212218 -0.21222,-0.937065 v -2.734026 h -0.90399 v -0.38585 h 1.40559 v 3.095071 q 0,0.548459 0.0992,0.672482 0.10198,0.124024 0.25356,0.143316 0.15159,0.01654 0.30868,0.01654 h 0.44373 z"
         style="font-family:'Oxygen Mono';-inkscape-font-specification:'Oxygen Mono'"
         id="path7385" />
      <path
         d="m 112.49199,73.581487 -0.49609,0.286632 -0.70005,-1.110698 -0.68626,1.110698 -0.50161,-0.286632 0.87644,-1.041796 -1.22094,-0.405143 0.25355,-0.496093 1.10795,0.587044 -0.0965,-1.278819 h 0.54019 l -0.0827,1.278819 1.09968,-0.587044 0.25631,0.496093 -1.22645,0.405143 z"
         style="font-family:'Oxygen Mono';-inkscape-font-specification:'Oxygen Mono'"
         id="path7387" />
      <path
         d="m 115.10199,74.612259 h -0.82958 v -0.829578 h 0.82958 z"
         style="font-family:'Oxygen Mono';-inkscape-font-specification:'Oxygen Mono'"
         id="path7389" />
      <path
         d="m 117.31788,73.082638 q 0,1.212672 0.84887,1.212672 0.76343,0 0.76343,-1.212672 0,-0.672482 -0.20671,-0.93431 -0.20395,-0.264583 -0.56499,-0.264583 -0.70556,0 -0.8158,0.815798 -0.0248,0.170877 -0.0248,0.383095 z m 0.86816,1.598523 q -0.29215,0 -0.51814,-0.135048 -0.226,-0.135048 -0.34451,-0.347265 v 1.573718 l -0.50161,0.05512 v -4.238843 h 0.50161 v 0.416168 q 0.13229,-0.225998 0.35277,-0.366558 0.22049,-0.14056 0.49885,-0.14056 0.7469,0 1.06109,0.617361 0.19844,0.391362 0.19844,0.931553 0,0.862651 -0.41617,1.311891 -0.29765,0.322461 -0.83233,0.322461 z"
         style="font-family:'Oxygen Mono';-inkscape-font-specification:'Oxygen Mono'"
         id="path7391" />
      <path
         d="m 122.19061,73.082638 q 0,-0.705555 -0.20946,-0.950846 -0.20946,-0.248047 -0.59531,-0.248047 -0.53468,0 -0.69177,0.529167 -0.0854,0.289387 -0.0854,0.697286 0,1.185112 0.77721,1.185112 0.80477,0 0.80477,-1.212672 z m 0,-1.077625 v -1.650889 l 0.50161,-0.05512 v 4.313256 h -0.50161 v -0.468533 q -0.30592,0.537435 -0.8654,0.537435 -0.63941,0 -0.93156,-0.457509 -0.28938,-0.457508 -0.28938,-1.149283 0,-0.832334 0.42443,-1.267794 0.29766,-0.30868 0.79926,-0.30868 0.34176,0 0.55397,0.14056 0.21498,0.14056 0.30868,0.366558 z"
         style="font-family:'Oxygen Mono';-inkscape-font-specification:'Oxygen Mono'"
         id="path7393" />
      <path
         d="m 124.15018,73.46022 q 0.0496,0.38585 0.23151,0.609092 0.18466,0.223242 0.56224,0.223242 0.50988,0 0.68902,-0.529166 0.091,-0.278363 0.091,-0.578776 0,-0.303168 -0.0193,-0.465776 -0.0413,-0.385851 -0.21773,-0.609093 -0.17363,-0.225998 -0.54295,-0.225998 -0.61736,0 -0.75516,0.595312 -0.0579,0.248047 -0.0579,0.531923 0,0.281119 0.0193,0.44924 z m -0.0193,-1.455207 q 0.30593,-0.507118 0.91502,-0.507118 0.61185,0 0.89572,0.440972 0.28663,0.440972 0.28663,1.107942 0,0.873675 -0.41341,1.314647 -0.29765,0.319705 -0.81028,0.319705 -0.339,0 -0.51814,-0.124024 -0.17639,-0.126779 -0.35554,-0.358289 l -0.006,0.413411 h -0.49609 v -4.258135 l 0.5016,-0.05512 z"
         style="font-family:'Oxygen Mono';-inkscape-font-specification:'Oxygen Mono'"
         id="path7395" />
    </g>
    <g
       id="g2283"
       transform="translate(159.64846,75.73948)"
       style="fill:#ffffff;stroke-width:1;stroke-miterlimit:4;stroke-dasharray:none;paint-order:fill markers stroke">
      <path
         style="fill:#ffffff;stroke:#000000;stroke-width:0.529167;stroke-linecap:butt;stroke-linejoin:miter;stroke-miterlimit:4;stroke-dasharray:none;stroke-opacity:1;paint-order:fill markers stroke"
         d="M -42.068749,8.7312499 V 16.66875 h 6.349999 v -6.35 l -1.5875,-1.5875 z"
         id="path2279" />
      <path
         style="fill:none;stroke:#000000;stroke-width:0.529167;stroke-linecap:butt;stroke-linejoin:miter;stroke-miterlimit:4;stroke-dasharray:none;stroke-opacity:1;paint-order:fill markers stroke"
         d="m -37.30625,8.73125 v 1.5875 h 1.5875"
         id="path2281" />
    </g>
    <g
       id="g2289"
       transform="translate(160.44221,74.94573)"
       style="fill:#ffffff;stroke-width:1;stroke-miterlimit:4;stroke-dasharray:none;paint-order:fill markers stroke">
      <path
         style="fill:#ffffff;stroke:#000000;stroke-width:0.529167;stroke-linecap:butt;stroke-linejoin:miter;stroke-miterlimit:4;stroke-dasharray:none;stroke-opacity:1;paint-order:fill markers stroke"
         d="M -42.068749,8.7312499 V 16.66875 h 6.349999 v -6.35 l -1.5875,-1.5875 z"
         id="path2285" />
      <path
         style="fill:none;stroke:#000000;stroke-width:0.529167;stroke-linecap:butt;stroke-linejoin:miter;stroke-miterlimit:4;stroke-dasharray:none;stroke-opacity:1;paint-order:fill markers stroke"
         d="m -37.30625,8.73125 v 1.5875 h 1.5875"
         id="path2287" />
    </g>
  </g>
</svg>
