<?xml version="1.0" encoding="UTF-8" standalone="no"?>
<!-- Created with Inkscape (http://www.inkscape.org/) -->

<svg
   width="156.63335mm"
   height="33.602093mm"
   viewBox="0 0 156.63335 33.602092"
   version="1.1"
   id="svg3116"
   inkscape:version="1.1 (c68e22c387, 2021-05-23)"
   sodipodi:docname="sort-head-pipeline.svg"
   xmlns:inkscape="http://www.inkscape.org/namespaces/inkscape"
   xmlns:sodipodi="http://sodipodi.sourceforge.net/DTD/sodipodi-0.dtd"
   xmlns="http://www.w3.org/2000/svg"
   xmlns:svg="http://www.w3.org/2000/svg">
  <sodipodi:namedview
     id="namedview3118"
     pagecolor="#ffffff"
     bordercolor="#666666"
     borderopacity="1.0"
     inkscape:pageshadow="2"
     inkscape:pageopacity="0.0"
     inkscape:pagecheckerboard="0"
     inkscape:document-units="mm"
     showgrid="false"
     fit-margin-top="0"
     fit-margin-left="0"
     fit-margin-right="0"
     fit-margin-bottom="0"
     inkscape:zoom="0.71891835"
     inkscape:cx="276.80473"
     inkscape:cy="4.8684249"
     inkscape:window-width="1104"
     inkscape:window-height="1088"
     inkscape:window-x="185"
     inkscape:window-y="1260"
     inkscape:window-maximized="0"
     inkscape:current-layer="layer1" />
  <defs
     id="defs3113" />
  <g
     inkscape:label="Layer 1"
     inkscape:groupmode="layer"
     id="layer1"
     transform="translate(-71.413781,-70.661692)">
    <path
       id="path1647"
       style="fill:#cccccc;fill-rule:evenodd;stroke:none;stroke-width:0.529167;stroke-linecap:round;stroke-linejoin:round;stroke-miterlimit:4;stroke-dasharray:none"
       d="m 80.855489,77.011702 h 7.491627 l 2.116667,2.11667 -2.116667,2.11666 h -7.491627 z"
       sodipodi:nodetypes="cccccc" />
    <circle
       style="fill:#cccccc;fill-rule:evenodd;stroke:none;stroke-width:0.529167;stroke-linecap:round;stroke-linejoin:round;stroke-miterlimit:4;stroke-dasharray:none"
       id="circle1649"
       cx="79.880447"
       cy="79.128372"
       r="8.4666662" />
    <g
       id="g1777"
       transform="translate(90.463783,64.573852)">
      <rect
         style="fill:#000000;fill-rule:evenodd;stroke-width:0.264583;stroke-linecap:round;stroke-linejoin:round"
         id="rect1651"
         width="12.700002"
         height="4.7576265"
         x="-16.933334"
         y="12.175707"
         rx="0.26458246"
         ry="0.26458395" />
      <rect
         style="fill:#ffffff;fill-rule:evenodd;stroke-width:0.264583;stroke-linecap:round;stroke-linejoin:round"
         id="rect1653"
         width="0.79375082"
         height="0.52916634"
         x="-16.404167"
         y="15.879875" />
      <rect
         style="fill:#ffffff;fill-rule:evenodd;stroke-width:0.264582;stroke-linecap:round;stroke-linejoin:round"
         id="rect1655"
         width="0.52916741"
         height="0.529167"
         x="-16.404167"
         y="15.086124" />
      <rect
         style="fill:#ffffff;fill-rule:evenodd;stroke-width:0.264584;stroke-linecap:round;stroke-linejoin:round"
         id="rect1657"
         width="0.79375166"
         height="0.52916574"
         x="-16.404167"
         y="13.498623" />
      <rect
         style="fill:#ffffff;fill-rule:evenodd;stroke-width:0.264582;stroke-linecap:round;stroke-linejoin:round"
         id="rect1659"
         width="1.0583334"
         height="0.51828963"
         x="-16.404167"
         y="14.303251" />
      <rect
         style="fill:#ffffff;fill-rule:evenodd;stroke-width:0.264583;stroke-linecap:round;stroke-linejoin:round"
         id="rect1661"
         width="0.52916664"
         height="0.51868218"
         x="-16.404167"
         y="12.704874" />
      <rect
         style="fill:#ffffff;fill-rule:evenodd;stroke-width:0.264583;stroke-linecap:round;stroke-linejoin:round"
         id="rect1663"
         width="0.52916664"
         height="0.51868218"
         x="-15.610417"
         y="12.715359" />
      <rect
         style="fill:#ffffff;fill-rule:evenodd;stroke-width:0.264583;stroke-linecap:round;stroke-linejoin:round"
         id="rect1665"
         width="0.52916664"
         height="0.51868218"
         x="-14.816667"
         y="12.715359" />
      <rect
         style="fill:#ffffff;fill-rule:evenodd;stroke-width:0.264583;stroke-linecap:round;stroke-linejoin:round"
         id="rect1667"
         width="0.52916664"
         height="0.51868218"
         x="-14.022917"
         y="12.715359" />
      <rect
         style="fill:#ffffff;fill-rule:evenodd;stroke-width:0.264583;stroke-linecap:round;stroke-linejoin:round"
         id="rect1669"
         width="0.52916664"
         height="0.51868218"
         x="-13.229167"
         y="12.704874" />
      <rect
         style="fill:#ffffff;fill-rule:evenodd;stroke-width:0.264583;stroke-linecap:round;stroke-linejoin:round"
         id="rect1671"
         width="0.52916664"
         height="0.51868218"
         x="-12.435416"
         y="12.704874" />
      <rect
         style="fill:#ffffff;fill-rule:evenodd;stroke-width:0.264583;stroke-linecap:round;stroke-linejoin:round"
         id="rect1673"
         width="0.52916664"
         height="0.52916652"
         x="-11.641667"
         y="12.704876" />
      <rect
         style="fill:#ffffff;fill-rule:evenodd;stroke-width:0.264583;stroke-linecap:round;stroke-linejoin:round"
         id="rect1675"
         width="0.52916664"
         height="0.52916652"
         x="-10.847917"
         y="12.704876" />
      <rect
         style="fill:#ffffff;fill-rule:evenodd;stroke-width:0.264583;stroke-linecap:round;stroke-linejoin:round"
         id="rect1677"
         width="0.52916664"
         height="0.51868218"
         x="-10.054166"
         y="12.704874" />
      <rect
         style="fill:#ffffff;fill-rule:evenodd;stroke-width:0.264583;stroke-linecap:round;stroke-linejoin:round"
         id="rect1679"
         width="0.52916664"
         height="0.52916652"
         x="-9.260417"
         y="12.704876" />
      <rect
         style="fill:#ffffff;fill-rule:evenodd;stroke-width:0.264583;stroke-linecap:round;stroke-linejoin:round"
         id="rect1681"
         width="0.52916664"
         height="0.51868218"
         x="-8.4666681"
         y="12.704874" />
      <rect
         style="fill:#ffffff;fill-rule:evenodd;stroke-width:0.264583;stroke-linecap:round;stroke-linejoin:round"
         id="rect1683"
         width="0.52916664"
         height="0.52916652"
         x="-7.6729169"
         y="12.704876" />
      <rect
         style="fill:#ffffff;fill-rule:evenodd;stroke-width:0.264583;stroke-linecap:round;stroke-linejoin:round"
         id="rect1685"
         width="0.52916664"
         height="0.52916652"
         x="-6.8791661"
         y="12.704876" />
      <rect
         style="fill:#ffffff;fill-rule:evenodd;stroke-width:0.264584;stroke-linecap:round;stroke-linejoin:round"
         id="rect1687"
         width="1.3229179"
         height="0.52916652"
         x="-6.0854173"
         y="12.704876" />
      <rect
         style="fill:#ffffff;fill-rule:evenodd;stroke-width:0.264583;stroke-linecap:round;stroke-linejoin:round"
         id="rect1689"
         width="0.52916664"
         height="0.51868218"
         x="-15.345833"
         y="13.509109" />
      <rect
         style="fill:#ffffff;fill-rule:evenodd;stroke-width:0.264583;stroke-linecap:round;stroke-linejoin:round"
         id="rect1691"
         width="0.52916664"
         height="0.51868218"
         x="-14.552081"
         y="13.509109" />
      <rect
         style="fill:#ffffff;fill-rule:evenodd;stroke-width:0.264583;stroke-linecap:round;stroke-linejoin:round"
         id="rect1693"
         width="0.52916664"
         height="0.51868218"
         x="-13.758332"
         y="13.509109" />
      <rect
         style="fill:#ffffff;fill-rule:evenodd;stroke-width:0.264583;stroke-linecap:round;stroke-linejoin:round"
         id="rect1695"
         width="0.52916664"
         height="0.51868218"
         x="-12.964582"
         y="13.498625" />
      <rect
         style="fill:#ffffff;fill-rule:evenodd;stroke-width:0.264583;stroke-linecap:round;stroke-linejoin:round"
         id="rect1697"
         width="0.52916664"
         height="0.51868218"
         x="-12.170831"
         y="13.498625" />
      <rect
         style="fill:#ffffff;fill-rule:evenodd;stroke-width:0.264583;stroke-linecap:round;stroke-linejoin:round"
         id="rect1699"
         width="0.52916664"
         height="0.52916723"
         x="-11.377084"
         y="13.498623" />
      <rect
         style="fill:#ffffff;fill-rule:evenodd;stroke-width:0.264583;stroke-linecap:round;stroke-linejoin:round"
         id="rect1701"
         width="0.52916664"
         height="0.52916723"
         x="-10.583331"
         y="13.498623" />
      <rect
         style="fill:#ffffff;fill-rule:evenodd;stroke-width:0.264583;stroke-linecap:round;stroke-linejoin:round"
         id="rect1703"
         width="0.52916664"
         height="0.51868218"
         x="-9.7895823"
         y="13.498625" />
      <rect
         style="fill:#ffffff;fill-rule:evenodd;stroke-width:0.264583;stroke-linecap:round;stroke-linejoin:round"
         id="rect1705"
         width="0.52916664"
         height="0.52916723"
         x="-8.9958334"
         y="13.498623" />
      <rect
         style="fill:#ffffff;fill-rule:evenodd;stroke-width:0.264583;stroke-linecap:round;stroke-linejoin:round"
         id="rect1707"
         width="0.52916664"
         height="0.52916598"
         x="-8.2020845"
         y="13.498625" />
      <rect
         style="fill:#ffffff;fill-rule:evenodd;stroke-width:0.264583;stroke-linecap:round;stroke-linejoin:round"
         id="rect1709"
         width="0.52916664"
         height="0.52916723"
         x="-7.4083333"
         y="13.498623" />
      <rect
         style="fill:#ffffff;fill-rule:evenodd;stroke-width:0.264583;stroke-linecap:round;stroke-linejoin:round"
         id="rect1711"
         width="0.52916664"
         height="0.52916723"
         x="-6.6145825"
         y="13.498623" />
      <rect
         style="fill:#ffffff;fill-rule:evenodd;stroke-width:0.264583;stroke-linecap:round;stroke-linejoin:round"
         id="rect1713"
         width="0.52916664"
         height="0.51868218"
         x="-15.08125"
         y="14.302858" />
      <rect
         style="fill:#ffffff;fill-rule:evenodd;stroke-width:0.264583;stroke-linecap:round;stroke-linejoin:round"
         id="rect1715"
         width="0.52916664"
         height="0.51868218"
         x="-14.287499"
         y="14.302858" />
      <rect
         style="fill:#ffffff;fill-rule:evenodd;stroke-width:0.264583;stroke-linecap:round;stroke-linejoin:round"
         id="rect1717"
         width="0.52916664"
         height="0.51868218"
         x="-13.49375"
         y="14.302858" />
      <rect
         style="fill:#ffffff;fill-rule:evenodd;stroke-width:0.264583;stroke-linecap:round;stroke-linejoin:round"
         id="rect1719"
         width="0.52916664"
         height="0.51868218"
         x="-12.7"
         y="14.292375" />
      <rect
         style="fill:#ffffff;fill-rule:evenodd;stroke-width:0.264583;stroke-linecap:round;stroke-linejoin:round"
         id="rect1721"
         width="0.52916664"
         height="0.51868218"
         x="-11.906249"
         y="14.292375" />
      <rect
         style="fill:#ffffff;fill-rule:evenodd;stroke-width:0.264583;stroke-linecap:round;stroke-linejoin:round"
         id="rect1723"
         width="0.52916664"
         height="0.5291661"
         x="-11.1125"
         y="14.292375" />
      <rect
         style="fill:#ffffff;fill-rule:evenodd;stroke-width:0.264583;stroke-linecap:round;stroke-linejoin:round"
         id="rect1725"
         width="0.52916664"
         height="0.5291661"
         x="-10.318749"
         y="14.292375" />
      <rect
         style="fill:#ffffff;fill-rule:evenodd;stroke-width:0.264583;stroke-linecap:round;stroke-linejoin:round"
         id="rect1727"
         width="0.52916664"
         height="0.51868218"
         x="-9.5249987"
         y="14.292375" />
      <rect
         style="fill:#ffffff;fill-rule:evenodd;stroke-width:0.264583;stroke-linecap:round;stroke-linejoin:round"
         id="rect1729"
         width="0.52916664"
         height="0.5291661"
         x="-8.7312498"
         y="14.292375" />
      <rect
         style="fill:#ffffff;fill-rule:evenodd;stroke-width:0.264583;stroke-linecap:round;stroke-linejoin:round"
         id="rect1731"
         width="0.52916664"
         height="0.51868141"
         x="-7.937501"
         y="14.292375" />
      <rect
         style="fill:#ffffff;fill-rule:evenodd;stroke-width:0.264583;stroke-linecap:round;stroke-linejoin:round"
         id="rect1733"
         width="0.52916664"
         height="0.52916533"
         x="-7.1437497"
         y="14.292375" />
      <rect
         style="fill:#ffffff;fill-rule:evenodd;stroke-width:0.264583;stroke-linecap:round;stroke-linejoin:round"
         id="rect1735"
         width="0.52916664"
         height="0.52916533"
         x="-6.3500009"
         y="14.292375" />
      <rect
         style="fill:#ffffff;fill-rule:evenodd;stroke-width:0.264583;stroke-linecap:round;stroke-linejoin:round"
         id="rect1737"
         width="0.52916664"
         height="0.52916688"
         x="-14.816667"
         y="15.086124" />
      <rect
         style="fill:#ffffff;fill-rule:evenodd;stroke-width:0.264583;stroke-linecap:round;stroke-linejoin:round"
         id="rect1739"
         width="0.52916664"
         height="0.52916855"
         x="-14.022916"
         y="15.086124" />
      <rect
         style="fill:#ffffff;fill-rule:evenodd;stroke-width:0.264583;stroke-linecap:round;stroke-linejoin:round"
         id="rect1741"
         width="0.52916664"
         height="0.52916688"
         x="-13.229166"
         y="15.086124" />
      <rect
         style="fill:#ffffff;fill-rule:evenodd;stroke-width:0.264583;stroke-linecap:round;stroke-linejoin:round"
         id="rect1743"
         width="0.52916664"
         height="0.51868218"
         x="-12.435416"
         y="15.086124" />
      <rect
         style="fill:#ffffff;fill-rule:evenodd;stroke-width:0.264583;stroke-linecap:round;stroke-linejoin:round"
         id="rect1745"
         width="0.52916664"
         height="0.51868218"
         x="-11.641665"
         y="15.086124" />
      <rect
         style="fill:#ffffff;fill-rule:evenodd;stroke-width:0.264583;stroke-linecap:round;stroke-linejoin:round"
         id="rect1747"
         width="0.52916664"
         height="0.52916688"
         x="-10.847917"
         y="15.086124" />
      <rect
         style="fill:#ffffff;fill-rule:evenodd;stroke-width:0.264583;stroke-linecap:round;stroke-linejoin:round"
         id="rect1749"
         width="0.52916664"
         height="0.52916688"
         x="-10.054166"
         y="15.086124" />
      <rect
         style="fill:#ffffff;fill-rule:evenodd;stroke-width:0.264583;stroke-linecap:round;stroke-linejoin:round"
         id="rect1751"
         width="0.52916664"
         height="0.51868218"
         x="-9.2604151"
         y="15.086124" />
      <rect
         style="fill:#ffffff;fill-rule:evenodd;stroke-width:0.264583;stroke-linecap:round;stroke-linejoin:round"
         id="rect1753"
         width="0.52916664"
         height="0.52916688"
         x="-8.4666662"
         y="15.086124" />
      <rect
         style="fill:#ffffff;fill-rule:evenodd;stroke-width:0.264583;stroke-linecap:round;stroke-linejoin:round"
         id="rect1755"
         width="0.52916664"
         height="0.51868218"
         x="-7.6729169"
         y="15.086124" />
      <rect
         style="fill:#ffffff;fill-rule:evenodd;stroke-width:0.264583;stroke-linecap:round;stroke-linejoin:round"
         id="rect1757"
         width="0.52916664"
         height="0.52916688"
         x="-15.610417"
         y="15.086124" />
      <rect
         style="fill:#ffffff;fill-rule:evenodd;stroke-width:0.264583;stroke-linecap:round;stroke-linejoin:round"
         id="rect1759"
         width="0.79374981"
         height="0.52916825"
         x="-14.552081"
         y="15.879871" />
      <rect
         style="fill:#ffffff;fill-rule:evenodd;stroke-width:0.264584;stroke-linecap:round;stroke-linejoin:round"
         id="rect1761"
         width="2.1166651"
         height="0.52916688"
         x="-6.8791642"
         y="15.086124" />
      <rect
         style="fill:#ffffff;fill-rule:evenodd;stroke-width:0.264583;stroke-linecap:round;stroke-linejoin:round"
         id="rect1763"
         width="0.79374945"
         height="1.3229165"
         x="-5.5562501"
         y="13.498625" />
      <rect
         style="fill:#ffffff;fill-rule:evenodd;stroke-width:0.264583;stroke-linecap:round;stroke-linejoin:round"
         id="rect1765"
         width="0.52916664"
         height="0.52916723"
         x="-5.8208337"
         y="13.498623" />
      <rect
         style="fill:#ffffff;fill-rule:evenodd;stroke-width:0.264583;stroke-linecap:round;stroke-linejoin:round"
         id="rect1767"
         width="0.79375082"
         height="0.52916747"
         x="-7.4083333"
         y="15.879873" />
      <rect
         style="fill:#ffffff;fill-rule:evenodd;stroke-width:0.264583;stroke-linecap:round;stroke-linejoin:round"
         id="rect1769"
         width="0.79374981"
         height="0.5291701"
         x="-5.5562482"
         y="15.879873" />
      <rect
         style="fill:#ffffff;fill-rule:evenodd;stroke-width:0.264584;stroke-linecap:round;stroke-linejoin:round"
         id="rect1771"
         width="5.8208337"
         height="0.52916574"
         x="-13.493751"
         y="15.879875" />
      <rect
         style="fill:#ffffff;fill-rule:evenodd;stroke-width:0.264583;stroke-linecap:round;stroke-linejoin:round"
         id="rect1773"
         width="0.52916664"
         height="0.51868218"
         x="-6.3500009"
         y="15.890358" />
      <rect
         style="fill:#ffffff;fill-rule:evenodd;stroke-width:0.264583;stroke-linecap:round;stroke-linejoin:round"
         id="rect1775"
         width="0.52916664"
         height="0.52916688"
         x="-15.345833"
         y="15.879873" />
    </g>
    <rect
       style="fill:#ff0000;fill-rule:evenodd;stroke:none;stroke-width:0.264583;stroke-linecap:round;stroke-linejoin:round"
       id="rect1779"
       width="69.849998"
       height="8.4666662"
       x="94.697113"
       y="74.895035"
       ry="2.1166666"
       rx="2.1166649" />
    <g
       aria-label="sort -n delky.txt"
       id="text1783"
       style="font-size:5.64444px;line-height:1.25;font-family:'Roboto Mono';-inkscape-font-specification:'Roboto Mono';text-align:center;letter-spacing:0px;word-spacing:0px;text-anchor:middle;fill:#ffffff;stroke-width:0.264583">
      <path
         d="m 102.79724,79.533515 q 0.39136,0.09646 0.5705,0.305924 0.1819,0.209462 0.1819,0.606337 0,0.394118 -0.30316,0.633897 -0.30042,0.239778 -0.75517,0.239778 -0.32521,0 -0.63114,-0.07993 -0.30592,-0.08268 -0.45199,-0.192925 l 0.12402,-0.361046 q 0.11575,0.07166 0.36656,0.146072 0.2508,0.07166 0.54294,0.07166 0.2949,0 0.46854,-0.121267 0.17638,-0.124024 0.17638,-0.327973 0,-0.20395 -0.0882,-0.319705 -0.0854,-0.118511 -0.33348,-0.179145 l -0.51263,-0.124023 q -0.44373,-0.110243 -0.5898,-0.319705 -0.14608,-0.212217 -0.14608,-0.52641 0,-0.314192 0.25356,-0.578775 0.25632,-0.264583 0.74414,-0.270096 h 0.0358 q 0.54846,0 0.93431,0.206706 l -0.11024,0.352777 q -0.40239,-0.170876 -0.8158,-0.170876 -0.25632,0.0028 -0.42168,0.129535 -0.16261,0.124024 -0.16261,0.314193 0,0.190169 0.0827,0.286632 0.0827,0.09371 0.3142,0.148828 z"
         style="font-family:'Oxygen Mono';-inkscape-font-specification:'Oxygen Mono'"
         id="path4654" />
      <path
         d="m 105.80963,80.933601 q 0.52641,0 0.71658,-0.523654 0.10197,-0.28112 0.10197,-0.57602 0,-0.297656 -0.0221,-0.46302 -0.0496,-0.374826 -0.23978,-0.611849 -0.18741,-0.237022 -0.55672,-0.237022 -0.51263,0 -0.70005,0.534678 -0.0992,0.286632 -0.0992,0.600824 0,0.556727 0.17364,0.917773 0.17363,0.35829 0.62563,0.35829 z m 0.99218,-2.356444 q 0.32798,0.440972 0.32798,1.152039 0,0.711067 -0.35554,1.152039 -0.35553,0.438216 -0.96462,0.438216 -0.32522,0 -0.57878,-0.124023 -0.25356,-0.124024 -0.41065,-0.341753 -0.31695,-0.438216 -0.31695,-1.141015 0,-0.702799 0.35002,-1.138259 0.35002,-0.438216 0.98392,-0.438216 0.63665,0 0.96462,0.440972 z"
         style="font-family:'Oxygen Mono';-inkscape-font-specification:'Oxygen Mono'"
         id="path4656" />
      <path
         d="m 109.00667,81.250549 h -0.5016 v -3.023413 h 0.41065 l 0.0413,0.559483 q 0.18466,-0.319705 0.48507,-0.485069 0.30041,-0.165365 0.68075,-0.165365 h 0.24254 v 0.465777 h -0.3142 q -0.48231,0 -0.76343,0.242534 -0.28112,0.239779 -0.28112,0.724848 z"
         style="font-family:'Oxygen Mono';-inkscape-font-specification:'Oxygen Mono'"
         id="path4658" />
      <path
         d="m 112.50413,78.612986 v 1.419378 q 0,0.264584 0.0276,0.418924 0.0303,0.15434 0.11576,0.250803 0.0882,0.09646 0.22599,0.129535 0.13781,0.03307 0.37483,0.03307 h 0.55397 l -0.0276,0.38585 h -0.50712 q -0.77997,0 -1.03904,-0.286631 -0.16812,-0.187413 -0.2067,-0.603581 -0.0193,-0.184657 -0.0193,-0.454752 v -1.292599 h -0.85438 l 0.0551,-0.38585 h 0.79926 V 77.18534 l 0.50161,-0.148828 v 1.190624 h 1.27331 v 0.38585 z"
         style="font-family:'Oxygen Mono';-inkscape-font-specification:'Oxygen Mono'"
         id="path4660" />
      <path
         d="m 120.40855,78.971276 v 0.427191 h -1.84657 v -0.427191 z"
         style="font-family:'Oxygen Mono';-inkscape-font-specification:'Oxygen Mono'"
         id="path4662" />
      <path
         d="m 123.02407,78.136185 q 0.93982,0 0.93982,1.190624 v 1.92374 h -0.50161 v -1.863106 q 0,-0.319705 -0.0331,-0.457508 -0.0331,-0.137804 -0.0992,-0.225998 -0.14056,-0.181901 -0.46026,-0.181901 -0.32246,0 -0.54571,0.187413 -0.22324,0.187413 -0.22324,0.496093 v 2.045007 h -0.5016 v -3.023413 h 0.46026 l 0.0276,0.327973 q 0.30041,-0.418924 0.93707,-0.418924 z"
         style="font-family:'Oxygen Mono';-inkscape-font-specification:'Oxygen Mono'"
         id="path4664" />
      <path
         d="m 130.25325,79.720928 q 0,-0.705555 -0.20946,-0.950846 -0.20946,-0.248046 -0.59531,-0.248046 -0.53468,0 -0.69178,0.529166 -0.0854,0.289388 -0.0854,0.697287 0,1.185112 0.77722,1.185112 0.80477,0 0.80477,-1.212673 z m 0,-1.077625 v -1.650888 l 0.5016,-0.05512 v 4.313256 h -0.5016 v -0.468532 q -0.30592,0.537434 -0.86541,0.537434 -0.63941,0 -0.93155,-0.457508 -0.28939,-0.457508 -0.28939,-1.149283 0,-0.832335 0.42444,-1.267794 0.29765,-0.308681 0.79926,-0.308681 0.34175,0 0.55397,0.14056 0.21497,0.14056 0.30868,0.366558 z"
         style="font-family:'Oxygen Mono';-inkscape-font-specification:'Oxygen Mono'"
         id="path4666" />
      <path
         d="m 132.34787,81.10999 q -0.31695,-0.212218 -0.47129,-0.567752 -0.15159,-0.358289 -0.15159,-0.80753 0,-0.44924 0.14056,-0.804773 0.14332,-0.35829 0.42444,-0.57602 0.28387,-0.220486 0.62287,-0.220486 0.63941,0 0.93707,0.438216 0.29765,0.438216 0.29765,1.077625 v 0.168121 h -1.91547 q 0.0165,0.465776 0.23151,0.790993 0.21773,0.325217 0.65043,0.325217 0.28939,-0.02756 0.80753,-0.314193 l 0.16537,0.341754 q -0.35829,0.358289 -0.97841,0.358289 -0.44373,0 -0.76067,-0.209461 z m 1.32015,-1.659157 q -0.0551,-0.928797 -0.65043,-0.928797 -0.67248,0 -0.76894,0.928797 z"
         style="font-family:'Oxygen Mono';-inkscape-font-specification:'Oxygen Mono'"
         id="path4668" />
      <path
         d="m 137.47141,81.250549 h -0.39963 q -0.53192,0 -0.76068,-0.110243 -0.13229,-0.06339 -0.20946,-0.146072 -0.20395,-0.212217 -0.21222,-0.937065 v -2.734026 h -0.90399 v -0.38585 h 1.4056 v 3.095071 q 0,0.548459 0.0992,0.672483 0.10197,0.124023 0.25355,0.143315 0.15159,0.01654 0.30869,0.01654 h 0.44372 z"
         style="font-family:'Oxygen Mono';-inkscape-font-specification:'Oxygen Mono'"
         id="path4670" />
      <path
         d="m 139.07544,79.453589 1.33946,-1.226453 h 0.63389 l -1.34772,1.254014 1.53238,1.769399 h -0.62839 l -1.25952,-1.537889 -0.2701,0.237022 v 1.300867 h -0.5016 v -4.258134 l 0.5016,-0.05512 z"
         style="font-family:'Oxygen Mono';-inkscape-font-specification:'Oxygen Mono'"
         id="path4672" />
      <path
         d="m 143.15719,80.677286 0.79926,-2.45015 h 0.54846 q -0.83785,2.364712 -0.98943,2.756074 -0.15159,0.388607 -0.20671,0.529166 -0.0551,0.14056 -0.12402,0.289388 -0.0689,0.148828 -0.16261,0.270095 -0.0937,0.124024 -0.17914,0.181901 -0.0827,0.06063 -0.26459,0.110243 -0.17914,0.05237 -0.66972,0.05237 l -0.0579,-0.42168 q 0.36656,0 0.43822,-0.01654 0.0744,-0.01654 0.14055,-0.03859 0.0662,-0.01929 0.0992,-0.04961 0.0331,-0.02756 0.0827,-0.07441 0.12678,-0.124024 0.28387,-0.631141 -0.77721,-1.785937 -1.12172,-2.656856 l -0.11851,-0.300412 h 0.54294 z"
         style="font-family:'Oxygen Mono';-inkscape-font-specification:'Oxygen Mono'"
         id="path4674" />
      <path
         d="m 146.87513,81.250549 h -0.82958 v -0.829578 h 0.82958 z"
         style="font-family:'Oxygen Mono';-inkscape-font-specification:'Oxygen Mono'"
         id="path4676" />
      <path
         d="m 149.7635,78.612986 v 1.419378 q 0,0.264584 0.0276,0.418924 0.0303,0.15434 0.11576,0.250803 0.0882,0.09646 0.226,0.129535 0.1378,0.03307 0.37482,0.03307 h 0.55397 l -0.0276,0.38585 h -0.50712 q -0.77997,0 -1.03904,-0.286631 -0.16812,-0.187413 -0.2067,-0.603581 -0.0193,-0.184657 -0.0193,-0.454752 v -1.292599 h -0.85439 l 0.0551,-0.38585 h 0.79927 V 77.18534 l 0.5016,-0.148828 v 1.190624 h 1.27331 v 0.38585 z"
         style="font-family:'Oxygen Mono';-inkscape-font-specification:'Oxygen Mono'"
         id="path4678" />
      <path
         d="m 151.97938,78.227136 h 0.57327 l 0.71933,1.163063 0.71934,-1.163063 h 0.5209 l -0.9288,1.466231 0.96187,1.557182 h -0.55673 l -0.73863,-1.204404 -0.76894,1.204404 h -0.55122 l 0.99219,-1.543401 z"
         style="font-family:'Oxygen Mono';-inkscape-font-specification:'Oxygen Mono'"
         id="path4680" />
      <path
         d="m 156.53793,78.612986 v 1.419378 q 0,0.264584 0.0276,0.418924 0.0303,0.15434 0.11576,0.250803 0.0882,0.09646 0.22599,0.129535 0.13781,0.03307 0.37483,0.03307 h 0.55397 l -0.0276,0.38585 h -0.50712 q -0.77997,0 -1.03904,-0.286631 -0.16812,-0.187413 -0.2067,-0.603581 -0.0193,-0.184657 -0.0193,-0.454752 v -1.292599 h -0.85438 l 0.0551,-0.38585 h 0.79926 V 77.18534 l 0.50161,-0.148828 v 1.190624 h 1.27331 v 0.38585 z"
         style="font-family:'Oxygen Mono';-inkscape-font-specification:'Oxygen Mono'"
         id="path4682" />
    </g>
    <path
       style="fill:none;stroke:#ff0000;stroke-width:1.05833;stroke-linecap:round;stroke-linejoin:miter;stroke-miterlimit:4;stroke-dasharray:none;stroke-opacity:1"
       d="m 113.74712,93.945032 h 2.11666"
       id="path1793" />
    <circle
       style="fill:#afdde9;fill-opacity:1;fill-rule:evenodd;stroke:none;stroke-width:0.529167;stroke-linecap:round;stroke-linejoin:round;stroke-miterlimit:4;stroke-dasharray:none"
       id="circle1795"
       cx="122.74295"
       cy="95.797119"
       r="8.4666662" />
    <g
       id="g1801"
       transform="translate(161.6367,83.097122)"
       style="fill:#ffffff;stroke-width:1;stroke-miterlimit:4;stroke-dasharray:none;paint-order:fill markers stroke">
      <path
         style="fill:#ffffff;stroke:#000000;stroke-width:0.529167;stroke-linecap:butt;stroke-linejoin:miter;stroke-miterlimit:4;stroke-dasharray:none;stroke-opacity:1;paint-order:fill markers stroke"
         d="M -42.068749,8.7312499 V 16.66875 h 6.349999 v -6.35 l -1.5875,-1.5875 z"
         id="path1797"
         sodipodi:nodetypes="cccccc" />
      <path
         style="fill:none;stroke:#000000;stroke-width:0.529167;stroke-linecap:butt;stroke-linejoin:miter;stroke-miterlimit:4;stroke-dasharray:none;stroke-opacity:1;paint-order:fill markers stroke"
         d="m -37.30625,8.73125 v 1.5875 h 1.5875"
         id="path1799"
         sodipodi:nodetypes="ccc" />
    </g>
    <path
       style="fill:none;stroke:#ff0000;stroke-width:4.23333;stroke-linecap:butt;stroke-linejoin:miter;stroke-miterlimit:4;stroke-dasharray:none;stroke-opacity:1"
       d="m 103.16378,83.361692 c 0,8.46667 4.23334,12.7 10.58334,12.7"
       id="path1803" />
    <path
       style="fill:none;stroke:#ff0000;stroke-width:1.05833;stroke-linecap:round;stroke-linejoin:miter;stroke-miterlimit:4;stroke-dasharray:none;stroke-opacity:1"
       d="m 113.74711,95.003372 h 2.11667"
       id="path1805" />
    <path
       style="fill:none;stroke:#ff0000;stroke-width:1.05833;stroke-linecap:round;stroke-linejoin:miter;stroke-miterlimit:4;stroke-dasharray:none;stroke-opacity:1"
       d="m 113.74712,96.061702 h 2.11666"
       id="path1807" />
    <path
       style="fill:none;stroke:#ff0000;stroke-width:1.05833;stroke-linecap:round;stroke-linejoin:miter;stroke-miterlimit:4;stroke-dasharray:none;stroke-opacity:1"
       d="m 113.74712,97.120042 h 2.11666"
       id="path1809" />
    <path
       style="fill:none;stroke:#ff0000;stroke-width:1.05833;stroke-linecap:round;stroke-linejoin:miter;stroke-miterlimit:4;stroke-dasharray:none;stroke-opacity:1"
       d="m 113.74712,98.178372 h 2.11666"
       id="path1811" />
    <path
       id="path1835"
       style="fill:#0000ff;fill-rule:evenodd;stroke:none;stroke-width:0.529167;stroke-linecap:round;stroke-linejoin:round;stroke-miterlimit:4;stroke-dasharray:none"
       d="m 167.98669,77.011702 h 5.02709 l 2.11666,2.11667 -2.11666,2.11666 h -5.02709 z"
       sodipodi:nodetypes="cccccc" />
    <path
       id="path1837"
       style="fill:#ff0000;fill-rule:evenodd;stroke:none;stroke-width:0.529167;stroke-linecap:round;stroke-linejoin:round;stroke-miterlimit:4;stroke-dasharray:none"
       d="m 161.28883,77.011682 h 7.49162 l 2.11667,2.11667 -2.11667,2.11666 h -7.49162 z"
       sodipodi:nodetypes="cccccc" />
    <path
       id="path1845"
       style="fill:#b3b3b3;fill-rule:evenodd;stroke:none;stroke-width:0.529167;stroke-linecap:round;stroke-linejoin:round;stroke-miterlimit:4;stroke-dasharray:none"
       d="m 208.99711,77.011692 h 6.51659 v 4.23333 h -6.51659 z"
       sodipodi:nodetypes="ccccc" />
    <path
       id="path1847"
       style="fill:#0000ff;fill-rule:evenodd;stroke:none;stroke-width:0.529167;stroke-linecap:round;stroke-linejoin:round;stroke-miterlimit:4;stroke-dasharray:none"
       d="m 203.97003,77.011692 h 5.02709 l 2.11666,2.11667 -2.11666,2.11666 h -5.02709 z"
       sodipodi:nodetypes="cccccc" />
    <rect
       style="fill:#0000ff;fill-rule:evenodd;stroke:none;stroke-width:0.264583;stroke-linecap:round;stroke-linejoin:round"
       id="rect1839"
       width="33.866669"
       height="8.4666662"
       x="173.01378"
       y="74.895035"
       ry="2.1166666"
       rx="2.1166649" />
    <g
       aria-label="head -n 1"
       id="text1843"
       style="font-size:5.64444px;line-height:1.25;font-family:'Roboto Mono';-inkscape-font-specification:'Roboto Mono';text-align:center;letter-spacing:0px;word-spacing:0px;text-anchor:middle;fill:#ffffff;stroke-width:0.264583">
      <path
         d="m 177.54341,79.426028 v 1.824521 h -0.5016 v -1.761131 q 0,-0.567751 -0.15159,-0.766189 -0.15158,-0.201193 -0.45751,-0.201193 -0.30868,0 -0.53743,0.214974 -0.226,0.212217 -0.226,0.457508 v 2.056031 h -0.5016 v -4.258134 l 0.5016,-0.05512 v 1.656401 q 0.35278,-0.457509 0.94533,-0.457509 0.9288,0 0.9288,1.289843 z"
         style="font-family:'Oxygen Mono';-inkscape-font-specification:'Oxygen Mono'"
         id="path4685" />
      <path
         d="m 179.18052,81.10999 q -0.31695,-0.212218 -0.47129,-0.567752 -0.15158,-0.358289 -0.15158,-0.80753 0,-0.44924 0.14056,-0.804773 0.14331,-0.35829 0.42443,-0.57602 0.28388,-0.220486 0.62287,-0.220486 0.63941,0 0.93707,0.438216 0.29766,0.438216 0.29766,1.077625 v 0.168121 h -1.91548 q 0.0165,0.465776 0.23151,0.790993 0.21773,0.325217 0.65044,0.325217 0.28939,-0.02756 0.80753,-0.314193 l 0.16536,0.341754 q -0.35829,0.358289 -0.9784,0.358289 -0.44373,0 -0.76068,-0.209461 z m 1.32016,-1.659157 q -0.0551,-0.928797 -0.65043,-0.928797 -0.67249,0 -0.76895,0.928797 z"
         style="font-family:'Oxygen Mono';-inkscape-font-specification:'Oxygen Mono'"
         id="path4687" />
      <path
         d="M 183.78041,80.575311 V 79.80361 l -0.41066,0.05788 q -0.42994,0.06063 -0.59531,0.121267 -0.36931,0.14056 -0.36931,0.471289 0,0.228754 0.13229,0.363802 0.13229,0.135047 0.3638,0.135047 0.50987,0 0.87919,-0.377582 z m 0,-1.408354 q 0,-0.647677 -0.54846,-0.647677 -0.25907,0 -0.57326,0.06063 -0.31144,0.06063 -0.43822,0.115755 l -0.11851,-0.369314 q 0.57051,-0.190169 1.07211,-0.190169 0.50161,0 0.80478,0.228755 0.30316,0.228754 0.30316,0.705555 v 2.180054 h -0.41616 l -0.0661,-0.350021 q -0.17639,0.179145 -0.45475,0.300412 -0.27561,0.118511 -0.54019,0.118511 -0.3831,0 -0.63666,-0.228754 -0.25355,-0.23151 -0.25355,-0.650434 0,-0.421679 0.33072,-0.61736 0.22325,-0.137804 0.47405,-0.187413 0.25356,-0.05237 0.6587,-0.101975 l 0.40239,-0.04685 z"
         style="font-family:'Oxygen Mono';-inkscape-font-specification:'Oxygen Mono'"
         id="path4689" />
      <path
         d="m 187.24755,79.720928 q 0,-0.705555 -0.20946,-0.950846 -0.20946,-0.248046 -0.59531,-0.248046 -0.53468,0 -0.69178,0.529166 -0.0854,0.289388 -0.0854,0.697287 0,1.185112 0.77722,1.185112 0.80477,0 0.80477,-1.212673 z m 0,-1.077625 v -1.650888 l 0.5016,-0.05512 v 4.313256 h -0.5016 v -0.468532 q -0.30593,0.537434 -0.86541,0.537434 -0.63941,0 -0.93155,-0.457508 -0.28939,-0.457508 -0.28939,-1.149283 0,-0.832335 0.42444,-1.267794 0.29765,-0.308681 0.79926,-0.308681 0.34175,0 0.55397,0.14056 0.21497,0.14056 0.30868,0.366558 z"
         style="font-family:'Oxygen Mono';-inkscape-font-specification:'Oxygen Mono'"
         id="path4691" />
      <path
         d="m 194.33893,78.971276 v 0.427191 h -1.84657 v -0.427191 z"
         style="font-family:'Oxygen Mono';-inkscape-font-specification:'Oxygen Mono'"
         id="path4693" />
      <path
         d="m 196.95444,78.136185 q 0.93982,0 0.93982,1.190624 v 1.92374 h -0.5016 v -1.863106 q 0,-0.319705 -0.0331,-0.457508 -0.0331,-0.137804 -0.0992,-0.225998 -0.14056,-0.181901 -0.46027,-0.181901 -0.32246,0 -0.5457,0.187413 -0.22324,0.187413 -0.22324,0.496093 v 2.045007 h -0.50161 v -3.023413 h 0.46027 l 0.0276,0.327973 q 0.30041,-0.418924 0.93706,-0.418924 z"
         style="font-family:'Oxygen Mono';-inkscape-font-specification:'Oxygen Mono'"
         id="path4695" />
      <path
         d="m 202.41698,77.703482 q 0.37758,-0.15434 0.92604,-0.564996 h 0.51815 v 3.709676 h 0.8654 v 0.402387 h -2.30683 v -0.402387 h 0.92604 v -3.152949 q -0.0772,0.0441 -0.38585,0.231511 -0.30868,0.184657 -0.54295,0.275607 z"
         style="font-family:'Oxygen Mono';-inkscape-font-specification:'Oxygen Mono'"
         id="path4697" />
    </g>
    <circle
       style="fill:#b3b3b3;fill-rule:evenodd;stroke:none;stroke-width:0.529167;stroke-linecap:round;stroke-linejoin:round;stroke-miterlimit:4;stroke-dasharray:none"
       id="circle1849"
       cx="219.58046"
       cy="79.128357"
       r="8.4666662" />
    <rect
       style="fill:#000000;fill-rule:evenodd;stroke-width:0.264583;stroke-linecap:round;stroke-linejoin:round"
       id="rect1851"
       width="10.583334"
       height="6.3499999"
       x="214.28879"
       y="75.159607"
       rx="0.26458246"
       ry="0.26458395" />
    <rect
       style="fill:#ffffff;fill-rule:evenodd;stroke-width:0.264583;stroke-linecap:round;stroke-linejoin:round"
       id="rect1853"
       width="9.5250015"
       height="5.291666"
       x="214.81795"
       y="75.688766" />
    <rect
       style="fill:#000000;fill-rule:evenodd;stroke-width:0.264584;stroke-linecap:round;stroke-linejoin:round"
       id="rect1855"
       width="4.2333336"
       height="1.0583334"
       x="217.46378"
       y="82.038773"
       rx="0.26458246"
       ry="0.26458395" />
    <rect
       style="fill:#000000;fill-rule:evenodd;stroke-width:0.264584;stroke-linecap:round;stroke-linejoin:round"
       id="rect1857"
       width="0.79374939"
       height="1.322917"
       x="219.18358"
       y="81.24501"
       rx="0.26458246"
       ry="0.26458395" />
  </g>
</svg>
