<?xml version="1.0" encoding="UTF-8" standalone="no"?>
<svg
   xmlns:dc="http://purl.org/dc/elements/1.1/"
   xmlns:cc="http://creativecommons.org/ns#"
   xmlns:rdf="http://www.w3.org/1999/02/22-rdf-syntax-ns#"
   xmlns:svg="http://www.w3.org/2000/svg"
   xmlns="http://www.w3.org/2000/svg"
   width="99.483353mm"
   height="33.602074mm"
   viewBox="0 0 99.483351 33.602073"
   version="1.1"
   id="svg8">
  <defs
     id="defs2" />
  <metadata
     id="metadata5">
    <rdf:RDF>
      <cc:Work
         rdf:about="">
        <dc:format>image/svg+xml</dc:format>
        <dc:type
           rdf:resource="http://purl.org/dc/dcmitype/StillImage" />
        <dc:title></dc:title>
      </cc:Work>
    </rdf:RDF>
  </metadata>
  <g
     id="layer1"
     transform="translate(205.43073,82.842093)">
    <path
       id="path1437"
       style="fill:#cccccc;fill-rule:evenodd;stroke:none;stroke-width:0.529167;stroke-linecap:round;stroke-linejoin:round;stroke-miterlimit:4;stroke-dasharray:none"
       d="m -193.87236,-76.492105 h 7.49163 l 2.11667,2.11667 -2.11667,2.11666 h -7.49163 z" />
    <circle
       style="fill:#cccccc;fill-rule:evenodd;stroke:none;stroke-width:0.529167;stroke-linecap:round;stroke-linejoin:round;stroke-miterlimit:4;stroke-dasharray:none"
       id="circle1439"
       cx="-196.96407"
       cy="-74.375427"
       r="8.4666662" />
    <g
       id="g1567"
       transform="translate(-186.38073,-88.929962)">
      <rect
         style="fill:#000000;fill-rule:evenodd;stroke-width:0.264583;stroke-linecap:round;stroke-linejoin:round"
         id="rect1441"
         width="12.700002"
         height="4.7576265"
         x="-16.933334"
         y="12.175707"
         rx="0.26458246"
         ry="0.26458395" />
      <rect
         style="fill:#ffffff;fill-rule:evenodd;stroke-width:0.264583;stroke-linecap:round;stroke-linejoin:round"
         id="rect1443"
         width="0.79375082"
         height="0.52916634"
         x="-16.404167"
         y="15.879875" />
      <rect
         style="fill:#ffffff;fill-rule:evenodd;stroke-width:0.264582;stroke-linecap:round;stroke-linejoin:round"
         id="rect1445"
         width="0.52916741"
         height="0.529167"
         x="-16.404167"
         y="15.086124" />
      <rect
         style="fill:#ffffff;fill-rule:evenodd;stroke-width:0.264584;stroke-linecap:round;stroke-linejoin:round"
         id="rect1447"
         width="0.79375166"
         height="0.52916574"
         x="-16.404167"
         y="13.498623" />
      <rect
         style="fill:#ffffff;fill-rule:evenodd;stroke-width:0.264582;stroke-linecap:round;stroke-linejoin:round"
         id="rect1449"
         width="1.0583334"
         height="0.51828963"
         x="-16.404167"
         y="14.303251" />
      <rect
         style="fill:#ffffff;fill-rule:evenodd;stroke-width:0.264583;stroke-linecap:round;stroke-linejoin:round"
         id="rect1451"
         width="0.52916664"
         height="0.51868218"
         x="-16.404167"
         y="12.704874" />
      <rect
         style="fill:#ffffff;fill-rule:evenodd;stroke-width:0.264583;stroke-linecap:round;stroke-linejoin:round"
         id="rect1453"
         width="0.52916664"
         height="0.51868218"
         x="-15.610417"
         y="12.715359" />
      <rect
         style="fill:#ffffff;fill-rule:evenodd;stroke-width:0.264583;stroke-linecap:round;stroke-linejoin:round"
         id="rect1455"
         width="0.52916664"
         height="0.51868218"
         x="-14.816667"
         y="12.715359" />
      <rect
         style="fill:#ffffff;fill-rule:evenodd;stroke-width:0.264583;stroke-linecap:round;stroke-linejoin:round"
         id="rect1457"
         width="0.52916664"
         height="0.51868218"
         x="-14.022917"
         y="12.715359" />
      <rect
         style="fill:#ffffff;fill-rule:evenodd;stroke-width:0.264583;stroke-linecap:round;stroke-linejoin:round"
         id="rect1459"
         width="0.52916664"
         height="0.51868218"
         x="-13.229167"
         y="12.704874" />
      <rect
         style="fill:#ffffff;fill-rule:evenodd;stroke-width:0.264583;stroke-linecap:round;stroke-linejoin:round"
         id="rect1461"
         width="0.52916664"
         height="0.51868218"
         x="-12.435416"
         y="12.704874" />
      <rect
         style="fill:#ffffff;fill-rule:evenodd;stroke-width:0.264583;stroke-linecap:round;stroke-linejoin:round"
         id="rect1463"
         width="0.52916664"
         height="0.52916652"
         x="-11.641667"
         y="12.704876" />
      <rect
         style="fill:#ffffff;fill-rule:evenodd;stroke-width:0.264583;stroke-linecap:round;stroke-linejoin:round"
         id="rect1465"
         width="0.52916664"
         height="0.52916652"
         x="-10.847917"
         y="12.704876" />
      <rect
         style="fill:#ffffff;fill-rule:evenodd;stroke-width:0.264583;stroke-linecap:round;stroke-linejoin:round"
         id="rect1467"
         width="0.52916664"
         height="0.51868218"
         x="-10.054166"
         y="12.704874" />
      <rect
         style="fill:#ffffff;fill-rule:evenodd;stroke-width:0.264583;stroke-linecap:round;stroke-linejoin:round"
         id="rect1469"
         width="0.52916664"
         height="0.52916652"
         x="-9.260417"
         y="12.704876" />
      <rect
         style="fill:#ffffff;fill-rule:evenodd;stroke-width:0.264583;stroke-linecap:round;stroke-linejoin:round"
         id="rect1471"
         width="0.52916664"
         height="0.51868218"
         x="-8.4666681"
         y="12.704874" />
      <rect
         style="fill:#ffffff;fill-rule:evenodd;stroke-width:0.264583;stroke-linecap:round;stroke-linejoin:round"
         id="rect1473"
         width="0.52916664"
         height="0.52916652"
         x="-7.6729169"
         y="12.704876" />
      <rect
         style="fill:#ffffff;fill-rule:evenodd;stroke-width:0.264583;stroke-linecap:round;stroke-linejoin:round"
         id="rect1475"
         width="0.52916664"
         height="0.52916652"
         x="-6.8791661"
         y="12.704876" />
      <rect
         style="fill:#ffffff;fill-rule:evenodd;stroke-width:0.264584;stroke-linecap:round;stroke-linejoin:round"
         id="rect1477"
         width="1.3229179"
         height="0.52916652"
         x="-6.0854173"
         y="12.704876" />
      <rect
         style="fill:#ffffff;fill-rule:evenodd;stroke-width:0.264583;stroke-linecap:round;stroke-linejoin:round"
         id="rect1479"
         width="0.52916664"
         height="0.51868218"
         x="-15.345833"
         y="13.509109" />
      <rect
         style="fill:#ffffff;fill-rule:evenodd;stroke-width:0.264583;stroke-linecap:round;stroke-linejoin:round"
         id="rect1481"
         width="0.52916664"
         height="0.51868218"
         x="-14.552081"
         y="13.509109" />
      <rect
         style="fill:#ffffff;fill-rule:evenodd;stroke-width:0.264583;stroke-linecap:round;stroke-linejoin:round"
         id="rect1483"
         width="0.52916664"
         height="0.51868218"
         x="-13.758332"
         y="13.509109" />
      <rect
         style="fill:#ffffff;fill-rule:evenodd;stroke-width:0.264583;stroke-linecap:round;stroke-linejoin:round"
         id="rect1485"
         width="0.52916664"
         height="0.51868218"
         x="-12.964582"
         y="13.498625" />
      <rect
         style="fill:#ffffff;fill-rule:evenodd;stroke-width:0.264583;stroke-linecap:round;stroke-linejoin:round"
         id="rect1487"
         width="0.52916664"
         height="0.51868218"
         x="-12.170831"
         y="13.498625" />
      <rect
         style="fill:#ffffff;fill-rule:evenodd;stroke-width:0.264583;stroke-linecap:round;stroke-linejoin:round"
         id="rect1489"
         width="0.52916664"
         height="0.52916723"
         x="-11.377084"
         y="13.498623" />
      <rect
         style="fill:#ffffff;fill-rule:evenodd;stroke-width:0.264583;stroke-linecap:round;stroke-linejoin:round"
         id="rect1491"
         width="0.52916664"
         height="0.52916723"
         x="-10.583331"
         y="13.498623" />
      <rect
         style="fill:#ffffff;fill-rule:evenodd;stroke-width:0.264583;stroke-linecap:round;stroke-linejoin:round"
         id="rect1493"
         width="0.52916664"
         height="0.51868218"
         x="-9.7895823"
         y="13.498625" />
      <rect
         style="fill:#ffffff;fill-rule:evenodd;stroke-width:0.264583;stroke-linecap:round;stroke-linejoin:round"
         id="rect1495"
         width="0.52916664"
         height="0.52916723"
         x="-8.9958334"
         y="13.498623" />
      <rect
         style="fill:#ffffff;fill-rule:evenodd;stroke-width:0.264583;stroke-linecap:round;stroke-linejoin:round"
         id="rect1497"
         width="0.52916664"
         height="0.52916598"
         x="-8.2020845"
         y="13.498625" />
      <rect
         style="fill:#ffffff;fill-rule:evenodd;stroke-width:0.264583;stroke-linecap:round;stroke-linejoin:round"
         id="rect1499"
         width="0.52916664"
         height="0.52916723"
         x="-7.4083333"
         y="13.498623" />
      <rect
         style="fill:#ffffff;fill-rule:evenodd;stroke-width:0.264583;stroke-linecap:round;stroke-linejoin:round"
         id="rect1501"
         width="0.52916664"
         height="0.52916723"
         x="-6.6145825"
         y="13.498623" />
      <rect
         style="fill:#ffffff;fill-rule:evenodd;stroke-width:0.264583;stroke-linecap:round;stroke-linejoin:round"
         id="rect1503"
         width="0.52916664"
         height="0.51868218"
         x="-15.08125"
         y="14.302858" />
      <rect
         style="fill:#ffffff;fill-rule:evenodd;stroke-width:0.264583;stroke-linecap:round;stroke-linejoin:round"
         id="rect1505"
         width="0.52916664"
         height="0.51868218"
         x="-14.287499"
         y="14.302858" />
      <rect
         style="fill:#ffffff;fill-rule:evenodd;stroke-width:0.264583;stroke-linecap:round;stroke-linejoin:round"
         id="rect1507"
         width="0.52916664"
         height="0.51868218"
         x="-13.49375"
         y="14.302858" />
      <rect
         style="fill:#ffffff;fill-rule:evenodd;stroke-width:0.264583;stroke-linecap:round;stroke-linejoin:round"
         id="rect1509"
         width="0.52916664"
         height="0.51868218"
         x="-12.7"
         y="14.292375" />
      <rect
         style="fill:#ffffff;fill-rule:evenodd;stroke-width:0.264583;stroke-linecap:round;stroke-linejoin:round"
         id="rect1511"
         width="0.52916664"
         height="0.51868218"
         x="-11.906249"
         y="14.292375" />
      <rect
         style="fill:#ffffff;fill-rule:evenodd;stroke-width:0.264583;stroke-linecap:round;stroke-linejoin:round"
         id="rect1513"
         width="0.52916664"
         height="0.5291661"
         x="-11.1125"
         y="14.292375" />
      <rect
         style="fill:#ffffff;fill-rule:evenodd;stroke-width:0.264583;stroke-linecap:round;stroke-linejoin:round"
         id="rect1515"
         width="0.52916664"
         height="0.5291661"
         x="-10.318749"
         y="14.292375" />
      <rect
         style="fill:#ffffff;fill-rule:evenodd;stroke-width:0.264583;stroke-linecap:round;stroke-linejoin:round"
         id="rect1517"
         width="0.52916664"
         height="0.51868218"
         x="-9.5249987"
         y="14.292375" />
      <rect
         style="fill:#ffffff;fill-rule:evenodd;stroke-width:0.264583;stroke-linecap:round;stroke-linejoin:round"
         id="rect1519"
         width="0.52916664"
         height="0.5291661"
         x="-8.7312498"
         y="14.292375" />
      <rect
         style="fill:#ffffff;fill-rule:evenodd;stroke-width:0.264583;stroke-linecap:round;stroke-linejoin:round"
         id="rect1521"
         width="0.52916664"
         height="0.51868141"
         x="-7.937501"
         y="14.292375" />
      <rect
         style="fill:#ffffff;fill-rule:evenodd;stroke-width:0.264583;stroke-linecap:round;stroke-linejoin:round"
         id="rect1523"
         width="0.52916664"
         height="0.52916533"
         x="-7.1437497"
         y="14.292375" />
      <rect
         style="fill:#ffffff;fill-rule:evenodd;stroke-width:0.264583;stroke-linecap:round;stroke-linejoin:round"
         id="rect1525"
         width="0.52916664"
         height="0.52916533"
         x="-6.3500009"
         y="14.292375" />
      <rect
         style="fill:#ffffff;fill-rule:evenodd;stroke-width:0.264583;stroke-linecap:round;stroke-linejoin:round"
         id="rect1527"
         width="0.52916664"
         height="0.52916688"
         x="-14.816667"
         y="15.086124" />
      <rect
         style="fill:#ffffff;fill-rule:evenodd;stroke-width:0.264583;stroke-linecap:round;stroke-linejoin:round"
         id="rect1529"
         width="0.52916664"
         height="0.52916855"
         x="-14.022916"
         y="15.086124" />
      <rect
         style="fill:#ffffff;fill-rule:evenodd;stroke-width:0.264583;stroke-linecap:round;stroke-linejoin:round"
         id="rect1531"
         width="0.52916664"
         height="0.52916688"
         x="-13.229166"
         y="15.086124" />
      <rect
         style="fill:#ffffff;fill-rule:evenodd;stroke-width:0.264583;stroke-linecap:round;stroke-linejoin:round"
         id="rect1533"
         width="0.52916664"
         height="0.51868218"
         x="-12.435416"
         y="15.086124" />
      <rect
         style="fill:#ffffff;fill-rule:evenodd;stroke-width:0.264583;stroke-linecap:round;stroke-linejoin:round"
         id="rect1535"
         width="0.52916664"
         height="0.51868218"
         x="-11.641665"
         y="15.086124" />
      <rect
         style="fill:#ffffff;fill-rule:evenodd;stroke-width:0.264583;stroke-linecap:round;stroke-linejoin:round"
         id="rect1537"
         width="0.52916664"
         height="0.52916688"
         x="-10.847917"
         y="15.086124" />
      <rect
         style="fill:#ffffff;fill-rule:evenodd;stroke-width:0.264583;stroke-linecap:round;stroke-linejoin:round"
         id="rect1539"
         width="0.52916664"
         height="0.52916688"
         x="-10.054166"
         y="15.086124" />
      <rect
         style="fill:#ffffff;fill-rule:evenodd;stroke-width:0.264583;stroke-linecap:round;stroke-linejoin:round"
         id="rect1541"
         width="0.52916664"
         height="0.51868218"
         x="-9.2604151"
         y="15.086124" />
      <rect
         style="fill:#ffffff;fill-rule:evenodd;stroke-width:0.264583;stroke-linecap:round;stroke-linejoin:round"
         id="rect1543"
         width="0.52916664"
         height="0.52916688"
         x="-8.4666662"
         y="15.086124" />
      <rect
         style="fill:#ffffff;fill-rule:evenodd;stroke-width:0.264583;stroke-linecap:round;stroke-linejoin:round"
         id="rect1545"
         width="0.52916664"
         height="0.51868218"
         x="-7.6729169"
         y="15.086124" />
      <rect
         style="fill:#ffffff;fill-rule:evenodd;stroke-width:0.264583;stroke-linecap:round;stroke-linejoin:round"
         id="rect1547"
         width="0.52916664"
         height="0.52916688"
         x="-15.610417"
         y="15.086124" />
      <rect
         style="fill:#ffffff;fill-rule:evenodd;stroke-width:0.264583;stroke-linecap:round;stroke-linejoin:round"
         id="rect1549"
         width="0.79374981"
         height="0.52916825"
         x="-14.552081"
         y="15.879871" />
      <rect
         style="fill:#ffffff;fill-rule:evenodd;stroke-width:0.264584;stroke-linecap:round;stroke-linejoin:round"
         id="rect1551"
         width="2.1166651"
         height="0.52916688"
         x="-6.8791642"
         y="15.086124" />
      <rect
         style="fill:#ffffff;fill-rule:evenodd;stroke-width:0.264583;stroke-linecap:round;stroke-linejoin:round"
         id="rect1553"
         width="0.79374945"
         height="1.3229165"
         x="-5.5562501"
         y="13.498625" />
      <rect
         style="fill:#ffffff;fill-rule:evenodd;stroke-width:0.264583;stroke-linecap:round;stroke-linejoin:round"
         id="rect1555"
         width="0.52916664"
         height="0.52916723"
         x="-5.8208337"
         y="13.498623" />
      <rect
         style="fill:#ffffff;fill-rule:evenodd;stroke-width:0.264583;stroke-linecap:round;stroke-linejoin:round"
         id="rect1557"
         width="0.79375082"
         height="0.52916747"
         x="-7.4083333"
         y="15.879873" />
      <rect
         style="fill:#ffffff;fill-rule:evenodd;stroke-width:0.264583;stroke-linecap:round;stroke-linejoin:round"
         id="rect1559"
         width="0.79374981"
         height="0.5291701"
         x="-5.5562482"
         y="15.879873" />
      <rect
         style="fill:#ffffff;fill-rule:evenodd;stroke-width:0.264584;stroke-linecap:round;stroke-linejoin:round"
         id="rect1561"
         width="5.8208337"
         height="0.52916574"
         x="-13.493751"
         y="15.879875" />
      <rect
         style="fill:#ffffff;fill-rule:evenodd;stroke-width:0.264583;stroke-linecap:round;stroke-linejoin:round"
         id="rect1563"
         width="0.52916664"
         height="0.51868218"
         x="-6.3500009"
         y="15.890358" />
      <rect
         style="fill:#ffffff;fill-rule:evenodd;stroke-width:0.264583;stroke-linecap:round;stroke-linejoin:round"
         id="rect1565"
         width="0.52916664"
         height="0.52916688"
         x="-15.345833"
         y="15.879873" />
    </g>
    <rect
       style="fill:#ff0000;fill-rule:evenodd;stroke:none;stroke-width:0.264583;stroke-linecap:round;stroke-linejoin:round"
       id="rect1569"
       width="52.916668"
       height="8.4666662"
       x="-182.1474"
       y="-78.608757"
       ry="2.1166666"
       rx="2.1166649" />
    <g
       aria-label="cat soubor.txt"
       id="text1573"
       style="font-size:5.64444px;line-height:1.25;font-family:'Roboto Mono';-inkscape-font-specification:'Roboto Mono';text-align:center;letter-spacing:0px;word-spacing:0px;text-anchor:middle;fill:#ffffff;stroke-width:0.264583">
      <path
         d="m -176.63523,-72.501301 q -0.28939,0.267339 -0.82407,0.267339 -0.34175,0 -0.62287,-0.129536 -0.28112,-0.132291 -0.46026,-0.352777 -0.37759,-0.463021 -0.37759,-1.11621 0,-0.42168 0.17088,-0.779969 0.17363,-0.35829 0.50987,-0.581532 0.33625,-0.223242 0.82958,-0.223242 0.49334,0 0.76619,0.261827 l -0.12678,0.336241 q -0.31695,-0.212218 -0.71658,-0.212218 -0.39963,0 -0.66421,0.341754 -0.26183,0.341753 -0.26183,0.870919 0,0.52641 0.26183,0.862651 0.26458,0.336241 0.67248,0.336241 0.41066,0 0.72209,-0.220486 z"
         style="font-style:normal;font-variant:normal;font-weight:normal;font-stretch:normal;font-family:'Oxygen Mono';-inkscape-font-specification:'Oxygen Mono';fill:#ffffff;stroke-width:0.264583"
         id="path1499" />
      <path
         d="m -173.66969,-72.978102 v -0.771701 l -0.41066,0.05788 q -0.42995,0.06063 -0.59531,0.121268 -0.36932,0.14056 -0.36932,0.471288 0,0.228755 0.1323,0.363802 0.13229,0.135048 0.3638,0.135048 0.50987,0 0.87919,-0.377582 z m 0,-1.408354 q 0,-0.647678 -0.54846,-0.647678 -0.25907,0 -0.57327,0.06063 -0.31143,0.06063 -0.43821,0.115755 l -0.11851,-0.369314 q 0.5705,-0.190169 1.07211,-0.190169 0.5016,0 0.80477,0.228754 0.30317,0.228754 0.30317,0.705555 v 2.180055 h -0.41617 l -0.0661,-0.350022 q -0.17639,0.179145 -0.45475,0.300413 -0.27561,0.118511 -0.54019,0.118511 -0.3831,0 -0.63666,-0.228754 -0.25356,-0.231511 -0.25356,-0.650434 0,-0.421679 0.33073,-0.617361 0.22324,-0.137803 0.47405,-0.187413 0.25356,-0.05236 0.6587,-0.101974 l 0.40239,-0.04685 z"
         style="font-style:normal;font-variant:normal;font-weight:normal;font-stretch:normal;font-family:'Oxygen Mono';-inkscape-font-specification:'Oxygen Mono';fill:#ffffff;stroke-width:0.264583"
         id="path1501" />
      <path
         d="m -171.01559,-74.940427 v 1.419378 q 0,0.264583 0.0276,0.418923 0.0303,0.154341 0.11575,0.250803 0.0882,0.09646 0.226,0.129536 0.1378,0.03307 0.37483,0.03307 h 0.55397 l -0.0276,0.38585 h -0.50712 q -0.77997,0 -1.03904,-0.286632 -0.16812,-0.187413 -0.20671,-0.60358 -0.0193,-0.184657 -0.0193,-0.454752 v -1.292599 h -0.85438 l 0.0551,-0.385851 h 0.79926 v -1.041796 l 0.50161,-0.148828 v 1.190624 h 1.2733 v 0.385851 z"
         style="font-style:normal;font-variant:normal;font-weight:normal;font-stretch:normal;font-family:'Oxygen Mono';-inkscape-font-specification:'Oxygen Mono';fill:#ffffff;stroke-width:0.264583"
         id="path1503" />
      <path
         d="m -163.78641,-74.019898 q 0.39136,0.09646 0.57051,0.305924 0.1819,0.209462 0.1819,0.606336 0,0.394119 -0.30317,0.633897 -0.30041,0.239779 -0.75517,0.239779 -0.32521,0 -0.63114,-0.07993 -0.30592,-0.08268 -0.45199,-0.192926 l 0.12402,-0.361045 q 0.11576,0.07166 0.36656,0.146072 0.2508,0.07166 0.54294,0.07166 0.2949,0 0.46854,-0.121268 0.17639,-0.124023 0.17639,-0.327973 0,-0.203949 -0.0882,-0.319704 -0.0854,-0.118511 -0.33348,-0.179145 l -0.51263,-0.124023 q -0.44373,-0.110243 -0.5898,-0.319705 -0.14608,-0.212218 -0.14608,-0.52641 0,-0.314193 0.25356,-0.578776 0.25632,-0.264583 0.74414,-0.270095 h 0.0358 q 0.54846,0 0.93431,0.206706 l -0.11024,0.352777 q -0.40239,-0.170877 -0.8158,-0.170877 -0.25631,0.0028 -0.42168,0.129536 -0.16261,0.124023 -0.16261,0.314192 0,0.19017 0.0827,0.286632 0.0827,0.09371 0.31419,0.148828 z"
         style="font-style:normal;font-variant:normal;font-weight:normal;font-stretch:normal;font-family:'Oxygen Mono';-inkscape-font-specification:'Oxygen Mono';fill:#ffffff;stroke-width:0.264583"
         id="path1505" />
      <path
         d="m -160.77402,-72.619813 q 0.52641,0 0.71658,-0.523654 0.10197,-0.281119 0.10197,-0.576019 0,-0.297656 -0.0221,-0.463021 -0.0496,-0.374826 -0.23978,-0.611848 -0.18741,-0.237023 -0.55672,-0.237023 -0.51263,0 -0.70005,0.534679 -0.0992,0.286632 -0.0992,0.600824 0,0.556727 0.17363,0.917773 0.17363,0.358289 0.62563,0.358289 z m 0.99218,-2.356443 q 0.32798,0.440972 0.32798,1.152039 0,0.711067 -0.35554,1.152039 -0.35553,0.438216 -0.96462,0.438216 -0.32522,0 -0.57878,-0.124024 -0.25356,-0.124023 -0.41065,-0.341753 -0.31695,-0.438216 -0.31695,-1.141015 0,-0.702798 0.35002,-1.138258 0.35002,-0.438216 0.98392,-0.438216 0.63665,0 0.96462,0.440972 z"
         style="font-style:normal;font-variant:normal;font-weight:normal;font-stretch:normal;font-family:'Oxygen Mono';-inkscape-font-specification:'Oxygen Mono';fill:#ffffff;stroke-width:0.264583"
         id="path1507" />
      <path
         d="m -156.20996,-73.284027 q 0,1.050065 -1.16858,1.050065 -1.16858,0 -1.16858,-1.050065 v -2.042251 h 0.50161 v 2.086349 q 0,0.32246 0.15985,0.471288 0.15986,0.148828 0.50712,0.148828 0.34727,0 0.50712,-0.148828 0.15985,-0.148828 0.15985,-0.471288 v -2.086349 h 0.50161 z"
         style="font-style:normal;font-variant:normal;font-weight:normal;font-stretch:normal;font-family:'Oxygen Mono';-inkscape-font-specification:'Oxygen Mono';fill:#ffffff;stroke-width:0.264583"
         id="path1509" />
      <path
         d="m -154.69412,-73.454903 q 0.0496,0.38585 0.23151,0.609092 0.18466,0.223242 0.56224,0.223242 0.50987,0 0.68902,-0.529166 0.091,-0.278363 0.091,-0.578776 0,-0.303168 -0.0193,-0.465776 -0.0413,-0.385851 -0.21773,-0.609093 -0.17363,-0.225998 -0.54294,-0.225998 -0.61736,0 -0.75517,0.595312 -0.0579,0.248047 -0.0579,0.531923 0,0.281119 0.0193,0.44924 z m -0.0193,-1.455207 q 0.30592,-0.507118 0.91501,-0.507118 0.61185,0 0.89573,0.440972 0.28663,0.440972 0.28663,1.107942 0,0.873675 -0.41341,1.314647 -0.29766,0.319705 -0.81029,0.319705 -0.339,0 -0.51814,-0.124024 -0.17639,-0.126779 -0.35553,-0.358289 l -0.006,0.413411 h -0.49609 v -4.258135 l 0.50161,-0.05512 z"
         style="font-style:normal;font-variant:normal;font-weight:normal;font-stretch:normal;font-family:'Oxygen Mono';-inkscape-font-specification:'Oxygen Mono';fill:#ffffff;stroke-width:0.264583"
         id="path1511" />
      <path
         d="m -150.61238,-72.619813 q 0.52641,0 0.71658,-0.523654 0.10198,-0.281119 0.10198,-0.576019 0,-0.297656 -0.022,-0.463021 -0.0496,-0.374826 -0.23978,-0.611848 -0.18741,-0.237023 -0.55673,-0.237023 -0.51263,0 -0.70004,0.534679 -0.0992,0.286632 -0.0992,0.600824 0,0.556727 0.17363,0.917773 0.17364,0.358289 0.62563,0.358289 z m 0.99219,-2.356443 q 0.32797,0.440972 0.32797,1.152039 0,0.711067 -0.35553,1.152039 -0.35553,0.438216 -0.96463,0.438216 -0.32521,0 -0.57877,-0.124024 -0.25356,-0.124023 -0.41066,-0.341753 -0.31695,-0.438216 -0.31695,-1.141015 0,-0.702798 0.35003,-1.138258 0.35002,-0.438216 0.98391,-0.438216 0.63666,0 0.96463,0.440972 z"
         style="font-style:normal;font-variant:normal;font-weight:normal;font-stretch:normal;font-family:'Oxygen Mono';-inkscape-font-specification:'Oxygen Mono';fill:#ffffff;stroke-width:0.264583"
         id="path1513" />
      <path
         d="m -147.41533,-72.302864 h -0.50161 v -3.023414 h 0.41066 l 0.0413,0.559483 q 0.18466,-0.319704 0.48507,-0.485069 0.30041,-0.165364 0.68075,-0.165364 h 0.24253 v 0.465777 h -0.31419 q -0.48231,0 -0.76343,0.242534 -0.28112,0.239779 -0.28112,0.724848 z"
         style="font-style:normal;font-variant:normal;font-weight:normal;font-stretch:normal;font-family:'Oxygen Mono';-inkscape-font-specification:'Oxygen Mono';fill:#ffffff;stroke-width:0.264583"
         id="path1515" />
      <path
         d="m -143.41902,-72.302864 h -0.82958 v -0.829578 h 0.82958 z"
         style="font-style:normal;font-variant:normal;font-weight:normal;font-stretch:normal;font-family:'Oxygen Mono';-inkscape-font-specification:'Oxygen Mono';fill:#ffffff;stroke-width:0.264583"
         id="path1517" />
      <path
         d="m -140.53066,-74.940427 v 1.419378 q 0,0.264583 0.0276,0.418923 0.0303,0.154341 0.11576,0.250803 0.0882,0.09646 0.226,0.129536 0.1378,0.03307 0.37482,0.03307 h 0.55397 l -0.0276,0.38585 h -0.50711 q -0.77997,0 -1.03904,-0.286632 -0.16812,-0.187413 -0.20671,-0.60358 -0.0193,-0.184657 -0.0193,-0.454752 v -1.292599 h -0.85439 l 0.0551,-0.385851 h 0.79926 v -1.041796 l 0.5016,-0.148828 v 1.190624 h 1.27331 v 0.385851 z"
         style="font-style:normal;font-variant:normal;font-weight:normal;font-stretch:normal;font-family:'Oxygen Mono';-inkscape-font-specification:'Oxygen Mono';fill:#ffffff;stroke-width:0.264583"
         id="path1519" />
      <path
         d="m -138.31477,-75.326278 h 0.57326 l 0.71934,1.163064 0.71933,-1.163064 h 0.5209 l -0.9288,1.466232 0.96187,1.557182 h -0.55673 l -0.73862,-1.204405 -0.76895,1.204405 h -0.55121 l 0.99218,-1.543402 z"
         style="font-style:normal;font-variant:normal;font-weight:normal;font-stretch:normal;font-family:'Oxygen Mono';-inkscape-font-specification:'Oxygen Mono';fill:#ffffff;stroke-width:0.264583"
         id="path1521" />
      <path
         d="m -133.75623,-74.940427 v 1.419378 q 0,0.264583 0.0276,0.418923 0.0303,0.154341 0.11576,0.250803 0.0882,0.09646 0.226,0.129536 0.1378,0.03307 0.37482,0.03307 h 0.55397 l -0.0276,0.38585 h -0.50711 q -0.77997,0 -1.03904,-0.286632 -0.16813,-0.187413 -0.20671,-0.60358 -0.0193,-0.184657 -0.0193,-0.454752 v -1.292599 h -0.85439 l 0.0551,-0.385851 h 0.79926 v -1.041796 l 0.5016,-0.148828 v 1.190624 h 1.27331 v 0.385851 z"
         style="font-style:normal;font-variant:normal;font-weight:normal;font-stretch:normal;font-family:'Oxygen Mono';-inkscape-font-specification:'Oxygen Mono';fill:#ffffff;stroke-width:0.264583"
         id="path1523" />
    </g>
    <path
       style="fill:none;stroke:#ff0000;stroke-width:1.05833;stroke-linecap:round;stroke-linejoin:miter;stroke-miterlimit:4;stroke-dasharray:none;stroke-opacity:1"
       d="m -163.0974,-59.558775 h 2.11667"
       id="path1601" />
    <circle
       style="fill:#afdde9;fill-opacity:1;fill-rule:evenodd;stroke:none;stroke-width:0.529167;stroke-linecap:round;stroke-linejoin:round;stroke-miterlimit:4;stroke-dasharray:none"
       id="circle1583"
       cx="-154.10156"
       cy="-57.706684"
       r="8.4666662" />
    <g
       id="g1589"
       transform="translate(-115.20781,-70.406687)"
       style="fill:#ffffff;stroke-width:1;stroke-miterlimit:4;stroke-dasharray:none;paint-order:fill markers stroke">
      <path
         style="fill:#ffffff;stroke:#000000;stroke-width:0.529167;stroke-linecap:butt;stroke-linejoin:miter;stroke-miterlimit:4;stroke-dasharray:none;stroke-opacity:1;paint-order:fill markers stroke"
         d="M -42.068749,8.7312499 V 16.66875 h 6.349999 v -6.35 l -1.5875,-1.5875 z"
         id="path1585" />
      <path
         style="fill:none;stroke:#000000;stroke-width:0.529167;stroke-linecap:butt;stroke-linejoin:miter;stroke-miterlimit:4;stroke-dasharray:none;stroke-opacity:1;paint-order:fill markers stroke"
         d="m -37.30625,8.73125 v 1.5875 h 1.5875"
         id="path1587" />
    </g>
    <path
       style="fill:none;stroke:#ff0000;stroke-width:4.23333;stroke-linecap:butt;stroke-linejoin:miter;stroke-miterlimit:4;stroke-dasharray:none;stroke-opacity:1"
       d="m -173.68073,-70.142105 c 0,8.46667 4.23333,12.7 10.58333,12.7"
       id="path1591" />
    <path
       style="fill:none;stroke:#ff0000;stroke-width:1.05833;stroke-linecap:round;stroke-linejoin:miter;stroke-miterlimit:4;stroke-dasharray:none;stroke-opacity:1"
       d="m -163.0974,-58.500435 h 2.11667"
       id="path1593" />
    <path
       style="fill:none;stroke:#ff0000;stroke-width:1.05833;stroke-linecap:round;stroke-linejoin:miter;stroke-miterlimit:4;stroke-dasharray:none;stroke-opacity:1"
       d="m -163.0974,-57.442105 h 2.11667"
       id="path1595" />
    <path
       style="fill:none;stroke:#ff0000;stroke-width:1.05833;stroke-linecap:round;stroke-linejoin:miter;stroke-miterlimit:4;stroke-dasharray:none;stroke-opacity:1"
       d="m -163.0974,-56.383765 h 2.11667"
       id="path1597" />
    <path
       style="fill:none;stroke:#ff0000;stroke-width:1.05833;stroke-linecap:round;stroke-linejoin:miter;stroke-miterlimit:4;stroke-dasharray:none;stroke-opacity:1"
       d="m -163.0974,-55.325434 h 2.11667"
       id="path1599" />
    <path
       id="path1631"
       style="fill:#b3b3b3;fill-rule:evenodd;stroke:none;stroke-width:0.529167;stroke-linecap:round;stroke-linejoin:round;stroke-miterlimit:4;stroke-dasharray:none"
       d="m -124.99739,-76.492105 h 6.51659 v 4.23333 h -6.51659 z" />
    <path
       id="path1633"
       style="fill:#ff0000;fill-rule:evenodd;stroke:none;stroke-width:0.529167;stroke-linecap:round;stroke-linejoin:round;stroke-miterlimit:4;stroke-dasharray:none"
       d="m -130.02447,-76.492105 h 5.02708 l 2.11667,2.11667 -2.11667,2.11666 h -5.02708 z" />
    <circle
       style="fill:#b3b3b3;fill-rule:evenodd;stroke:none;stroke-width:0.529167;stroke-linecap:round;stroke-linejoin:round;stroke-miterlimit:4;stroke-dasharray:none"
       id="circle1635"
       cx="-114.41405"
       cy="-74.375427"
       r="8.4666662" />
    <rect
       style="fill:#000000;fill-rule:evenodd;stroke-width:0.264583;stroke-linecap:round;stroke-linejoin:round"
       id="rect1637"
       width="10.583334"
       height="6.3499999"
       x="-119.70573"
       y="-78.344177"
       rx="0.26458246"
       ry="0.26458395" />
    <rect
       style="fill:#ffffff;fill-rule:evenodd;stroke-width:0.264583;stroke-linecap:round;stroke-linejoin:round"
       id="rect1639"
       width="9.5250025"
       height="5.291666"
       x="-119.17656"
       y="-77.815018" />
    <rect
       style="fill:#000000;fill-rule:evenodd;stroke-width:0.264583;stroke-linecap:round;stroke-linejoin:round"
       id="rect1641"
       width="4.2333341"
       height="1.0583335"
       x="-116.53073"
       y="-71.465019"
       rx="0.26458246"
       ry="0.26458395" />
    <rect
       style="fill:#000000;fill-rule:evenodd;stroke-width:0.264583;stroke-linecap:round;stroke-linejoin:round"
       id="rect1643"
       width="0.79374939"
       height="1.3229171"
       x="-114.81094"
       y="-72.258774"
       rx="0.26458246"
       ry="0.26458395" />
  </g>
</svg>
