<?xml version="1.0" encoding="UTF-8" standalone="no"?>
<svg
   xmlns:dc="http://purl.org/dc/elements/1.1/"
   xmlns:cc="http://creativecommons.org/ns#"
   xmlns:rdf="http://www.w3.org/1999/02/22-rdf-syntax-ns#"
   xmlns:svg="http://www.w3.org/2000/svg"
   xmlns="http://www.w3.org/2000/svg"
   width="63.499996mm"
   height="16.933332mm"
   viewBox="0 0 63.499995 16.933332"
   version="1.1"
   id="svg8">
  <defs
     id="defs2" />
  <metadata
     id="metadata5">
    <rdf:RDF>
      <cc:Work
         rdf:about="">
        <dc:format>image/svg+xml</dc:format>
        <dc:type
           rdf:resource="http://purl.org/dc/dcmitype/StillImage" />
        <dc:title></dc:title>
      </cc:Work>
    </rdf:RDF>
  </metadata>
  <g
     id="layer1"
     transform="translate(231.99451,87.823524)">
    <path
       id="path1281"
       style="fill:#ff0000;fill-rule:evenodd;stroke:none;stroke-width:0.529167;stroke-linecap:round;stroke-linejoin:round;stroke-miterlimit:4;stroke-dasharray:none"
       d="m -212.94452,-81.47352 5.02708,-1e-6 2.11667,2.116667 -2.11667,2.116667 h -5.02708 z" />
    <path
       id="path1283"
       style="fill:#afdde9;fill-opacity:1;fill-rule:evenodd;stroke:none;stroke-width:0.529167;stroke-linecap:round;stroke-linejoin:round;stroke-miterlimit:4;stroke-dasharray:none"
       d="m -220.43615,-81.473519 7.49163,-10e-7 2.11667,2.116667 -2.11667,2.116666 -7.49163,1e-6 z" />
    <circle
       style="fill:#afdde9;fill-opacity:1;fill-rule:evenodd;stroke:none;stroke-width:0.529167;stroke-linecap:round;stroke-linejoin:round;stroke-miterlimit:4;stroke-dasharray:none"
       id="circle1285"
       cx="-223.52785"
       cy="-79.356857"
       r="8.4666662" />
    <g
       id="g1188"
       transform="translate(-184.6341,-92.056857)"
       style="fill:#ffffff;stroke-width:1;stroke-miterlimit:4;stroke-dasharray:none;paint-order:fill markers stroke">
      <path
         style="fill:#ffffff;stroke:#000000;stroke-width:0.529167;stroke-linecap:butt;stroke-linejoin:miter;stroke-miterlimit:4;stroke-dasharray:none;stroke-opacity:1;paint-order:fill markers stroke"
         d="M -42.068749,8.7312499 V 16.66875 h 6.349999 v -6.35 l -1.5875,-1.5875 z"
         id="path1137" />
      <path
         style="fill:none;stroke:#000000;stroke-width:0.529167;stroke-linecap:butt;stroke-linejoin:miter;stroke-miterlimit:4;stroke-dasharray:none;stroke-opacity:1;paint-order:fill markers stroke"
         d="m -37.30625,8.73125 v 1.5875 h 1.5875"
         id="path1139" />
    </g>
    <rect
       style="fill:#ff0000;fill-rule:evenodd;stroke:none;stroke-width:0.264583;stroke-linecap:round;stroke-linejoin:round"
       id="rect1415"
       width="19.050001"
       height="8.4666662"
       x="-208.71118"
       y="-83.590187"
       ry="2.1166666"
       rx="2.1166649" />
    <g
       aria-label="cat"
       id="text1419"
       style="font-size:5.64444px;line-height:1.25;font-family:'Roboto Mono';-inkscape-font-specification:'Roboto Mono';text-align:center;letter-spacing:0px;word-spacing:0px;text-anchor:middle;fill:#ffffff;stroke-width:0.264583">
      <path
         d="m -201.50266,-77.482724 q -0.28939,0.267339 -0.82407,0.267339 -0.34175,0 -0.62287,-0.129535 -0.28112,-0.132292 -0.46027,-0.352778 -0.37758,-0.46302 -0.37758,-1.11621 0,-0.421679 0.17088,-0.779969 0.17363,-0.358289 0.50987,-0.581531 0.33624,-0.223242 0.82958,-0.223242 0.49334,0 0.76619,0.261827 l -0.12678,0.336241 q -0.31695,-0.212218 -0.71658,-0.212218 -0.39963,0 -0.66421,0.341753 -0.26183,0.341753 -0.26183,0.87092 0,0.52641 0.26183,0.862651 0.26458,0.336241 0.67248,0.336241 0.41065,0 0.72209,-0.220486 z"
         style="font-style:normal;font-variant:normal;font-weight:normal;font-stretch:normal;font-family:'Oxygen Mono';-inkscape-font-specification:'Oxygen Mono';fill:#ffffff;stroke-width:0.264583"
         id="path1195" />
      <path
         d="m -198.53713,-77.959525 v -0.771701 l -0.41065,0.05788 q -0.42995,0.06063 -0.59531,0.121267 -0.36932,0.14056 -0.36932,0.471289 0,0.228754 0.13229,0.363802 0.1323,0.135047 0.36381,0.135047 0.50987,0 0.87918,-0.377582 z m 0,-1.408354 q 0,-0.647677 -0.54846,-0.647677 -0.25907,0 -0.57326,0.06063 -0.31144,0.06063 -0.43821,0.115755 l -0.11852,-0.369314 q 0.57051,-0.190169 1.07212,-0.190169 0.5016,0 0.80477,0.228754 0.30317,0.228754 0.30317,0.705555 v 2.180055 h -0.41617 l -0.0661,-0.350022 q -0.17639,0.179145 -0.45476,0.300412 -0.2756,0.118511 -0.54019,0.118511 -0.38309,0 -0.63665,-0.228754 -0.25356,-0.23151 -0.25356,-0.650433 0,-0.42168 0.33073,-0.617361 0.22324,-0.137804 0.47404,-0.187413 0.25356,-0.05237 0.65871,-0.101975 l 0.40238,-0.04685 z"
         style="font-style:normal;font-variant:normal;font-weight:normal;font-stretch:normal;font-family:'Oxygen Mono';-inkscape-font-specification:'Oxygen Mono';fill:#ffffff;stroke-width:0.264583"
         id="path1197" />
      <path
         d="m -195.88303,-79.92185 v 1.419379 q 0,0.264583 0.0276,0.418923 0.0303,0.15434 0.11576,0.250803 0.0882,0.09646 0.226,0.129535 0.1378,0.03307 0.37482,0.03307 h 0.55397 l -0.0276,0.385851 h -0.50711 q -0.77997,0 -1.03904,-0.286632 -0.16812,-0.187413 -0.20671,-0.60358 -0.0193,-0.184657 -0.0193,-0.454753 v -1.292599 h -0.85439 l 0.0551,-0.38585 h 0.79926 v -1.041796 l 0.5016,-0.148828 v 1.190624 h 1.27331 v 0.38585 z"
         style="font-style:normal;font-variant:normal;font-weight:normal;font-stretch:normal;font-family:'Oxygen Mono';-inkscape-font-specification:'Oxygen Mono';fill:#ffffff;stroke-width:0.264583"
         id="path1199" />
    </g>
    <path
       id="path1617"
       style="fill:#b3b3b3;fill-rule:evenodd;stroke:none;stroke-width:0.529167;stroke-linecap:round;stroke-linejoin:round;stroke-miterlimit:4;stroke-dasharray:none"
       d="m -187.54452,-81.473522 6.51659,-10e-7 v 4.233333 h -6.51659 z" />
    <path
       id="path1619"
       style="fill:#ff0000;fill-rule:evenodd;stroke:none;stroke-width:0.529167;stroke-linecap:round;stroke-linejoin:round;stroke-miterlimit:4;stroke-dasharray:none"
       d="m -192.5716,-81.473521 5.02709,-10e-7 2.11666,2.116667 -2.11666,2.116666 h -5.02709 z" />
    <circle
       style="fill:#b3b3b3;fill-rule:evenodd;stroke:none;stroke-width:0.529167;stroke-linecap:round;stroke-linejoin:round;stroke-miterlimit:4;stroke-dasharray:none"
       id="circle1621"
       cx="-176.96118"
       cy="-79.356857"
       r="8.4666662" />
    <rect
       style="fill:#000000;fill-rule:evenodd;stroke-width:0.264583;stroke-linecap:round;stroke-linejoin:round"
       id="rect1623"
       width="10.583334"
       height="6.3499999"
       x="-182.25285"
       y="-83.325607"
       rx="0.26458246"
       ry="0.26458395" />
    <rect
       style="fill:#ffffff;fill-rule:evenodd;stroke-width:0.264583;stroke-linecap:round;stroke-linejoin:round"
       id="rect1625"
       width="9.5250025"
       height="5.291666"
       x="-181.72368"
       y="-82.79644" />
    <rect
       style="fill:#000000;fill-rule:evenodd;stroke-width:0.264583;stroke-linecap:round;stroke-linejoin:round"
       id="rect1627"
       width="4.2333341"
       height="1.0583335"
       x="-179.07785"
       y="-76.446442"
       rx="0.26458246"
       ry="0.26458395" />
    <rect
       style="fill:#000000;fill-rule:evenodd;stroke-width:0.264583;stroke-linecap:round;stroke-linejoin:round"
       id="rect1629"
       width="0.79374939"
       height="1.3229171"
       x="-177.35806"
       y="-77.240189"
       rx="0.26458246"
       ry="0.26458395" />
  </g>
</svg>
