<?xml version="1.0" encoding="UTF-8" standalone="no"?>
<svg
   xmlns:dc="http://purl.org/dc/elements/1.1/"
   xmlns:cc="http://creativecommons.org/ns#"
   xmlns:rdf="http://www.w3.org/1999/02/22-rdf-syntax-ns#"
   xmlns:svg="http://www.w3.org/2000/svg"
   xmlns="http://www.w3.org/2000/svg"
   xmlns:sodipodi="http://sodipodi.sourceforge.net/DTD/sodipodi-0.dtd"
   xmlns:inkscape="http://www.inkscape.org/namespaces/inkscape"
   width="162.98334mm"
   height="33.602081mm"
   viewBox="0 0 162.98334 33.602081"
   version="1.1"
   id="svg8"
   inkscape:version="1.0.1 (3bc2e813f5, 2020-09-07)"
   sodipodi:docname="pipeline.svg">
  <defs
     id="defs2" />
  <sodipodi:namedview
     id="base"
     pagecolor="#ffffff"
     bordercolor="#666666"
     borderopacity="1.0"
     inkscape:pageopacity="0.0"
     inkscape:pageshadow="2"
     inkscape:zoom="1.4"
     inkscape:cx="330.77466"
     inkscape:cy="51.424718"
     inkscape:document-units="mm"
     inkscape:current-layer="layer1"
     inkscape:document-rotation="0"
     showgrid="false"
     fit-margin-top="0"
     fit-margin-left="0"
     fit-margin-right="0"
     fit-margin-bottom="0"
     inkscape:window-width="1920"
     inkscape:window-height="990"
     inkscape:window-x="1200"
     inkscape:window-y="1467"
     inkscape:window-maximized="1" />
  <metadata
     id="metadata5">
    <rdf:RDF>
      <cc:Work
         rdf:about="">
        <dc:format>image/svg+xml</dc:format>
        <dc:type
           rdf:resource="http://purl.org/dc/dcmitype/StillImage" />
        <dc:title></dc:title>
      </cc:Work>
    </rdf:RDF>
  </metadata>
  <g
     inkscape:label="Layer 1"
     inkscape:groupmode="layer"
     id="layer1"
     transform="translate(139.57767,57.80577)">
    <path
       id="path2079"
       style="fill:#cccccc;fill-rule:evenodd;stroke:none;stroke-width:0.529167;stroke-linecap:round;stroke-linejoin:round;stroke-miterlimit:4;stroke-dasharray:none"
       d="m -128.01931,-51.455785 h 7.49163 l 2.11667,2.11667 -2.11667,2.11666 h -7.49163 z"
       sodipodi:nodetypes="cccccc" />
    <circle
       style="fill:#cccccc;fill-rule:evenodd;stroke:none;stroke-width:0.529167;stroke-linecap:round;stroke-linejoin:round;stroke-miterlimit:4;stroke-dasharray:none"
       id="circle2081"
       cx="-131.11101"
       cy="-49.339104"
       r="8.4666662" />
    <g
       id="g2209"
       transform="translate(-120.52768,-63.893634)">
      <rect
         style="fill:#000000;fill-rule:evenodd;stroke-width:0.264583;stroke-linecap:round;stroke-linejoin:round"
         id="rect2083"
         width="12.700002"
         height="4.7576265"
         x="-16.933334"
         y="12.175707"
         rx="0.26458246"
         ry="0.26458395" />
      <rect
         style="fill:#ffffff;fill-rule:evenodd;stroke-width:0.264583;stroke-linecap:round;stroke-linejoin:round"
         id="rect2085"
         width="0.79375082"
         height="0.52916634"
         x="-16.404167"
         y="15.879875" />
      <rect
         style="fill:#ffffff;fill-rule:evenodd;stroke-width:0.264582;stroke-linecap:round;stroke-linejoin:round"
         id="rect2087"
         width="0.52916741"
         height="0.529167"
         x="-16.404167"
         y="15.086124" />
      <rect
         style="fill:#ffffff;fill-rule:evenodd;stroke-width:0.264584;stroke-linecap:round;stroke-linejoin:round"
         id="rect2089"
         width="0.79375166"
         height="0.52916574"
         x="-16.404167"
         y="13.498623" />
      <rect
         style="fill:#ffffff;fill-rule:evenodd;stroke-width:0.264582;stroke-linecap:round;stroke-linejoin:round"
         id="rect2091"
         width="1.0583334"
         height="0.51828963"
         x="-16.404167"
         y="14.303251" />
      <rect
         style="fill:#ffffff;fill-rule:evenodd;stroke-width:0.264583;stroke-linecap:round;stroke-linejoin:round"
         id="rect2093"
         width="0.52916664"
         height="0.51868218"
         x="-16.404167"
         y="12.704874" />
      <rect
         style="fill:#ffffff;fill-rule:evenodd;stroke-width:0.264583;stroke-linecap:round;stroke-linejoin:round"
         id="rect2095"
         width="0.52916664"
         height="0.51868218"
         x="-15.610417"
         y="12.715359" />
      <rect
         style="fill:#ffffff;fill-rule:evenodd;stroke-width:0.264583;stroke-linecap:round;stroke-linejoin:round"
         id="rect2097"
         width="0.52916664"
         height="0.51868218"
         x="-14.816667"
         y="12.715359" />
      <rect
         style="fill:#ffffff;fill-rule:evenodd;stroke-width:0.264583;stroke-linecap:round;stroke-linejoin:round"
         id="rect2099"
         width="0.52916664"
         height="0.51868218"
         x="-14.022917"
         y="12.715359" />
      <rect
         style="fill:#ffffff;fill-rule:evenodd;stroke-width:0.264583;stroke-linecap:round;stroke-linejoin:round"
         id="rect2101"
         width="0.52916664"
         height="0.51868218"
         x="-13.229167"
         y="12.704874" />
      <rect
         style="fill:#ffffff;fill-rule:evenodd;stroke-width:0.264583;stroke-linecap:round;stroke-linejoin:round"
         id="rect2103"
         width="0.52916664"
         height="0.51868218"
         x="-12.435416"
         y="12.704874" />
      <rect
         style="fill:#ffffff;fill-rule:evenodd;stroke-width:0.264583;stroke-linecap:round;stroke-linejoin:round"
         id="rect2105"
         width="0.52916664"
         height="0.52916652"
         x="-11.641667"
         y="12.704876" />
      <rect
         style="fill:#ffffff;fill-rule:evenodd;stroke-width:0.264583;stroke-linecap:round;stroke-linejoin:round"
         id="rect2107"
         width="0.52916664"
         height="0.52916652"
         x="-10.847917"
         y="12.704876" />
      <rect
         style="fill:#ffffff;fill-rule:evenodd;stroke-width:0.264583;stroke-linecap:round;stroke-linejoin:round"
         id="rect2109"
         width="0.52916664"
         height="0.51868218"
         x="-10.054166"
         y="12.704874" />
      <rect
         style="fill:#ffffff;fill-rule:evenodd;stroke-width:0.264583;stroke-linecap:round;stroke-linejoin:round"
         id="rect2111"
         width="0.52916664"
         height="0.52916652"
         x="-9.260417"
         y="12.704876" />
      <rect
         style="fill:#ffffff;fill-rule:evenodd;stroke-width:0.264583;stroke-linecap:round;stroke-linejoin:round"
         id="rect2113"
         width="0.52916664"
         height="0.51868218"
         x="-8.4666681"
         y="12.704874" />
      <rect
         style="fill:#ffffff;fill-rule:evenodd;stroke-width:0.264583;stroke-linecap:round;stroke-linejoin:round"
         id="rect2115"
         width="0.52916664"
         height="0.52916652"
         x="-7.6729169"
         y="12.704876" />
      <rect
         style="fill:#ffffff;fill-rule:evenodd;stroke-width:0.264583;stroke-linecap:round;stroke-linejoin:round"
         id="rect2117"
         width="0.52916664"
         height="0.52916652"
         x="-6.8791661"
         y="12.704876" />
      <rect
         style="fill:#ffffff;fill-rule:evenodd;stroke-width:0.264584;stroke-linecap:round;stroke-linejoin:round"
         id="rect2119"
         width="1.3229179"
         height="0.52916652"
         x="-6.0854173"
         y="12.704876" />
      <rect
         style="fill:#ffffff;fill-rule:evenodd;stroke-width:0.264583;stroke-linecap:round;stroke-linejoin:round"
         id="rect2121"
         width="0.52916664"
         height="0.51868218"
         x="-15.345833"
         y="13.509109" />
      <rect
         style="fill:#ffffff;fill-rule:evenodd;stroke-width:0.264583;stroke-linecap:round;stroke-linejoin:round"
         id="rect2123"
         width="0.52916664"
         height="0.51868218"
         x="-14.552081"
         y="13.509109" />
      <rect
         style="fill:#ffffff;fill-rule:evenodd;stroke-width:0.264583;stroke-linecap:round;stroke-linejoin:round"
         id="rect2125"
         width="0.52916664"
         height="0.51868218"
         x="-13.758332"
         y="13.509109" />
      <rect
         style="fill:#ffffff;fill-rule:evenodd;stroke-width:0.264583;stroke-linecap:round;stroke-linejoin:round"
         id="rect2127"
         width="0.52916664"
         height="0.51868218"
         x="-12.964582"
         y="13.498625" />
      <rect
         style="fill:#ffffff;fill-rule:evenodd;stroke-width:0.264583;stroke-linecap:round;stroke-linejoin:round"
         id="rect2129"
         width="0.52916664"
         height="0.51868218"
         x="-12.170831"
         y="13.498625" />
      <rect
         style="fill:#ffffff;fill-rule:evenodd;stroke-width:0.264583;stroke-linecap:round;stroke-linejoin:round"
         id="rect2131"
         width="0.52916664"
         height="0.52916723"
         x="-11.377084"
         y="13.498623" />
      <rect
         style="fill:#ffffff;fill-rule:evenodd;stroke-width:0.264583;stroke-linecap:round;stroke-linejoin:round"
         id="rect2133"
         width="0.52916664"
         height="0.52916723"
         x="-10.583331"
         y="13.498623" />
      <rect
         style="fill:#ffffff;fill-rule:evenodd;stroke-width:0.264583;stroke-linecap:round;stroke-linejoin:round"
         id="rect2135"
         width="0.52916664"
         height="0.51868218"
         x="-9.7895823"
         y="13.498625" />
      <rect
         style="fill:#ffffff;fill-rule:evenodd;stroke-width:0.264583;stroke-linecap:round;stroke-linejoin:round"
         id="rect2137"
         width="0.52916664"
         height="0.52916723"
         x="-8.9958334"
         y="13.498623" />
      <rect
         style="fill:#ffffff;fill-rule:evenodd;stroke-width:0.264583;stroke-linecap:round;stroke-linejoin:round"
         id="rect2139"
         width="0.52916664"
         height="0.52916598"
         x="-8.2020845"
         y="13.498625" />
      <rect
         style="fill:#ffffff;fill-rule:evenodd;stroke-width:0.264583;stroke-linecap:round;stroke-linejoin:round"
         id="rect2141"
         width="0.52916664"
         height="0.52916723"
         x="-7.4083333"
         y="13.498623" />
      <rect
         style="fill:#ffffff;fill-rule:evenodd;stroke-width:0.264583;stroke-linecap:round;stroke-linejoin:round"
         id="rect2143"
         width="0.52916664"
         height="0.52916723"
         x="-6.6145825"
         y="13.498623" />
      <rect
         style="fill:#ffffff;fill-rule:evenodd;stroke-width:0.264583;stroke-linecap:round;stroke-linejoin:round"
         id="rect2145"
         width="0.52916664"
         height="0.51868218"
         x="-15.08125"
         y="14.302858" />
      <rect
         style="fill:#ffffff;fill-rule:evenodd;stroke-width:0.264583;stroke-linecap:round;stroke-linejoin:round"
         id="rect2147"
         width="0.52916664"
         height="0.51868218"
         x="-14.287499"
         y="14.302858" />
      <rect
         style="fill:#ffffff;fill-rule:evenodd;stroke-width:0.264583;stroke-linecap:round;stroke-linejoin:round"
         id="rect2149"
         width="0.52916664"
         height="0.51868218"
         x="-13.49375"
         y="14.302858" />
      <rect
         style="fill:#ffffff;fill-rule:evenodd;stroke-width:0.264583;stroke-linecap:round;stroke-linejoin:round"
         id="rect2151"
         width="0.52916664"
         height="0.51868218"
         x="-12.7"
         y="14.292375" />
      <rect
         style="fill:#ffffff;fill-rule:evenodd;stroke-width:0.264583;stroke-linecap:round;stroke-linejoin:round"
         id="rect2153"
         width="0.52916664"
         height="0.51868218"
         x="-11.906249"
         y="14.292375" />
      <rect
         style="fill:#ffffff;fill-rule:evenodd;stroke-width:0.264583;stroke-linecap:round;stroke-linejoin:round"
         id="rect2155"
         width="0.52916664"
         height="0.5291661"
         x="-11.1125"
         y="14.292375" />
      <rect
         style="fill:#ffffff;fill-rule:evenodd;stroke-width:0.264583;stroke-linecap:round;stroke-linejoin:round"
         id="rect2157"
         width="0.52916664"
         height="0.5291661"
         x="-10.318749"
         y="14.292375" />
      <rect
         style="fill:#ffffff;fill-rule:evenodd;stroke-width:0.264583;stroke-linecap:round;stroke-linejoin:round"
         id="rect2159"
         width="0.52916664"
         height="0.51868218"
         x="-9.5249987"
         y="14.292375" />
      <rect
         style="fill:#ffffff;fill-rule:evenodd;stroke-width:0.264583;stroke-linecap:round;stroke-linejoin:round"
         id="rect2161"
         width="0.52916664"
         height="0.5291661"
         x="-8.7312498"
         y="14.292375" />
      <rect
         style="fill:#ffffff;fill-rule:evenodd;stroke-width:0.264583;stroke-linecap:round;stroke-linejoin:round"
         id="rect2163"
         width="0.52916664"
         height="0.51868141"
         x="-7.937501"
         y="14.292375" />
      <rect
         style="fill:#ffffff;fill-rule:evenodd;stroke-width:0.264583;stroke-linecap:round;stroke-linejoin:round"
         id="rect2165"
         width="0.52916664"
         height="0.52916533"
         x="-7.1437497"
         y="14.292375" />
      <rect
         style="fill:#ffffff;fill-rule:evenodd;stroke-width:0.264583;stroke-linecap:round;stroke-linejoin:round"
         id="rect2167"
         width="0.52916664"
         height="0.52916533"
         x="-6.3500009"
         y="14.292375" />
      <rect
         style="fill:#ffffff;fill-rule:evenodd;stroke-width:0.264583;stroke-linecap:round;stroke-linejoin:round"
         id="rect2169"
         width="0.52916664"
         height="0.52916688"
         x="-14.816667"
         y="15.086124" />
      <rect
         style="fill:#ffffff;fill-rule:evenodd;stroke-width:0.264583;stroke-linecap:round;stroke-linejoin:round"
         id="rect2171"
         width="0.52916664"
         height="0.52916855"
         x="-14.022916"
         y="15.086124" />
      <rect
         style="fill:#ffffff;fill-rule:evenodd;stroke-width:0.264583;stroke-linecap:round;stroke-linejoin:round"
         id="rect2173"
         width="0.52916664"
         height="0.52916688"
         x="-13.229166"
         y="15.086124" />
      <rect
         style="fill:#ffffff;fill-rule:evenodd;stroke-width:0.264583;stroke-linecap:round;stroke-linejoin:round"
         id="rect2175"
         width="0.52916664"
         height="0.51868218"
         x="-12.435416"
         y="15.086124" />
      <rect
         style="fill:#ffffff;fill-rule:evenodd;stroke-width:0.264583;stroke-linecap:round;stroke-linejoin:round"
         id="rect2177"
         width="0.52916664"
         height="0.51868218"
         x="-11.641665"
         y="15.086124" />
      <rect
         style="fill:#ffffff;fill-rule:evenodd;stroke-width:0.264583;stroke-linecap:round;stroke-linejoin:round"
         id="rect2179"
         width="0.52916664"
         height="0.52916688"
         x="-10.847917"
         y="15.086124" />
      <rect
         style="fill:#ffffff;fill-rule:evenodd;stroke-width:0.264583;stroke-linecap:round;stroke-linejoin:round"
         id="rect2181"
         width="0.52916664"
         height="0.52916688"
         x="-10.054166"
         y="15.086124" />
      <rect
         style="fill:#ffffff;fill-rule:evenodd;stroke-width:0.264583;stroke-linecap:round;stroke-linejoin:round"
         id="rect2183"
         width="0.52916664"
         height="0.51868218"
         x="-9.2604151"
         y="15.086124" />
      <rect
         style="fill:#ffffff;fill-rule:evenodd;stroke-width:0.264583;stroke-linecap:round;stroke-linejoin:round"
         id="rect2185"
         width="0.52916664"
         height="0.52916688"
         x="-8.4666662"
         y="15.086124" />
      <rect
         style="fill:#ffffff;fill-rule:evenodd;stroke-width:0.264583;stroke-linecap:round;stroke-linejoin:round"
         id="rect2187"
         width="0.52916664"
         height="0.51868218"
         x="-7.6729169"
         y="15.086124" />
      <rect
         style="fill:#ffffff;fill-rule:evenodd;stroke-width:0.264583;stroke-linecap:round;stroke-linejoin:round"
         id="rect2189"
         width="0.52916664"
         height="0.52916688"
         x="-15.610417"
         y="15.086124" />
      <rect
         style="fill:#ffffff;fill-rule:evenodd;stroke-width:0.264583;stroke-linecap:round;stroke-linejoin:round"
         id="rect2191"
         width="0.79374981"
         height="0.52916825"
         x="-14.552081"
         y="15.879871" />
      <rect
         style="fill:#ffffff;fill-rule:evenodd;stroke-width:0.264584;stroke-linecap:round;stroke-linejoin:round"
         id="rect2193"
         width="2.1166651"
         height="0.52916688"
         x="-6.8791642"
         y="15.086124" />
      <rect
         style="fill:#ffffff;fill-rule:evenodd;stroke-width:0.264583;stroke-linecap:round;stroke-linejoin:round"
         id="rect2195"
         width="0.79374945"
         height="1.3229165"
         x="-5.5562501"
         y="13.498625" />
      <rect
         style="fill:#ffffff;fill-rule:evenodd;stroke-width:0.264583;stroke-linecap:round;stroke-linejoin:round"
         id="rect2197"
         width="0.52916664"
         height="0.52916723"
         x="-5.8208337"
         y="13.498623" />
      <rect
         style="fill:#ffffff;fill-rule:evenodd;stroke-width:0.264583;stroke-linecap:round;stroke-linejoin:round"
         id="rect2199"
         width="0.79375082"
         height="0.52916747"
         x="-7.4083333"
         y="15.879873" />
      <rect
         style="fill:#ffffff;fill-rule:evenodd;stroke-width:0.264583;stroke-linecap:round;stroke-linejoin:round"
         id="rect2201"
         width="0.79374981"
         height="0.5291701"
         x="-5.5562482"
         y="15.879873" />
      <rect
         style="fill:#ffffff;fill-rule:evenodd;stroke-width:0.264584;stroke-linecap:round;stroke-linejoin:round"
         id="rect2203"
         width="5.8208337"
         height="0.52916574"
         x="-13.493751"
         y="15.879875" />
      <rect
         style="fill:#ffffff;fill-rule:evenodd;stroke-width:0.264583;stroke-linecap:round;stroke-linejoin:round"
         id="rect2205"
         width="0.52916664"
         height="0.51868218"
         x="-6.3500009"
         y="15.890358" />
      <rect
         style="fill:#ffffff;fill-rule:evenodd;stroke-width:0.264583;stroke-linecap:round;stroke-linejoin:round"
         id="rect2207"
         width="0.52916664"
         height="0.52916688"
         x="-15.345833"
         y="15.879873" />
    </g>
    <path
       id="path2269"
       style="fill:#ff0000;fill-rule:evenodd;stroke:none;stroke-width:0.529167;stroke-linecap:round;stroke-linejoin:round;stroke-miterlimit:4;stroke-dasharray:none"
       d="m -70.521437,-51.455765 h 5.02709 l 2.11666,2.11667 -2.11666,2.11666 h -5.02709 z"
       sodipodi:nodetypes="cccccc" />
    <rect
       style="fill:#ff0000;fill-rule:evenodd;stroke:none;stroke-width:0.264583;stroke-linecap:round;stroke-linejoin:round"
       id="rect2211"
       width="27.516672"
       height="8.4666662"
       x="-65.494354"
       y="-53.572426"
       ry="2.1166666"
       rx="2.1166649" />
    <path
       id="path2245"
       style="fill:#0000ff;fill-rule:evenodd;stroke:none;stroke-width:0.529167;stroke-linecap:round;stroke-linejoin:round;stroke-miterlimit:4;stroke-dasharray:none"
       d="m -36.654777,-51.455775 h 5.02709 l 2.11666,2.11667 -2.11666,2.11666 h -5.02709 z"
       sodipodi:nodetypes="cccccc" />
    <path
       id="path2247"
       style="fill:#ff0000;fill-rule:evenodd;stroke:none;stroke-width:0.529167;stroke-linecap:round;stroke-linejoin:round;stroke-miterlimit:4;stroke-dasharray:none"
       d="m -43.352637,-51.455795 h 7.49163 l 2.11666,2.11667 -2.11666,2.11666 h -7.49163 z"
       sodipodi:nodetypes="cccccc" />
    <path
       id="path2271"
       style="fill:#808000;fill-rule:evenodd;stroke:none;stroke-width:0.529167;stroke-linecap:round;stroke-linejoin:round;stroke-miterlimit:4;stroke-dasharray:none"
       d="m -77.219307,-51.455785 h 7.49163 l 2.11667,2.11667 -2.11667,2.11666 h -7.49163 z"
       sodipodi:nodetypes="cccccc" />
    <g
       aria-label="sort -n"
       id="text2215"
       style="font-size:5.64444px;line-height:1.25;font-family:'Roboto Mono';-inkscape-font-specification:'Roboto Mono';text-align:center;letter-spacing:0px;word-spacing:0px;text-anchor:middle;fill:#ffffff;stroke-width:0.264583">
      <path
         d="m -61.624814,-48.958756 q 0.391362,0.09646 0.570507,0.305924 0.181901,0.209461 0.181901,0.606336 0,0.394119 -0.303168,0.633897 -0.300412,0.239779 -0.755165,0.239779 -0.325216,0 -0.631141,-0.07993 -0.305924,-0.08268 -0.451996,-0.192926 l 0.124024,-0.361045 q 0.115755,0.07166 0.366557,0.146072 0.250803,0.07166 0.542947,0.07166 0.2949,0 0.468533,-0.121268 0.176388,-0.124023 0.176388,-0.327973 0,-0.203949 -0.08819,-0.319704 -0.08544,-0.118511 -0.333485,-0.179145 l -0.51263,-0.124023 q -0.443728,-0.110243 -0.5898,-0.319705 -0.146072,-0.212218 -0.146072,-0.52641 0,-0.314193 0.253559,-0.578776 0.256315,-0.264583 0.74414,-0.270095 h 0.03583 q 0.548459,0 0.93431,0.206706 l -0.110243,0.352777 q -0.402387,-0.170877 -0.815798,-0.170877 -0.256315,0.0028 -0.42168,0.129536 -0.162608,0.124023 -0.162608,0.314192 0,0.190169 0.08268,0.286632 0.08268,0.09371 0.314192,0.148828 z"
         style="font-style:normal;font-variant:normal;font-weight:normal;font-stretch:normal;font-family:'Oxygen Mono';-inkscape-font-specification:'Oxygen Mono';fill:#ffffff;stroke-width:0.264583"
         id="path2369" />
      <path
         d="m -58.612425,-47.558671 q 0.52641,0 0.716579,-0.523654 0.101975,-0.281119 0.101975,-0.576019 0,-0.297656 -0.02205,-0.463021 -0.04961,-0.374826 -0.239778,-0.611848 -0.187413,-0.237023 -0.556727,-0.237023 -0.51263,0 -0.700043,0.534679 -0.09922,0.286631 -0.09922,0.600824 0,0.556727 0.173633,0.917773 0.173633,0.358289 0.625629,0.358289 z m 0.992187,-2.356443 q 0.327973,0.440972 0.327973,1.152039 0,0.711067 -0.355534,1.152039 -0.355534,0.438216 -0.964626,0.438216 -0.325217,0 -0.578776,-0.124024 -0.253558,-0.124023 -0.410655,-0.341753 -0.316948,-0.438216 -0.316948,-1.141015 0,-0.702799 0.350021,-1.138258 0.350022,-0.438216 0.983919,-0.438216 0.636653,0 0.964626,0.440972 z"
         style="font-style:normal;font-variant:normal;font-weight:normal;font-stretch:normal;font-family:'Oxygen Mono';-inkscape-font-specification:'Oxygen Mono';fill:#ffffff;stroke-width:0.264583"
         id="path2371" />
      <path
         d="m -55.415379,-47.241722 h -0.501605 v -3.023414 h 0.410655 l 0.04134,0.559483 q 0.184657,-0.319704 0.485069,-0.485069 0.300412,-0.165364 0.68075,-0.165364 h 0.242535 v 0.465776 h -0.314193 q -0.482313,0 -0.763432,0.242535 -0.28112,0.239778 -0.28112,0.724848 z"
         style="font-style:normal;font-variant:normal;font-weight:normal;font-stretch:normal;font-family:'Oxygen Mono';-inkscape-font-specification:'Oxygen Mono';fill:#ffffff;stroke-width:0.264583"
         id="path2373" />
      <path
         d="m -51.917921,-49.879285 v 1.419378 q 0,0.264583 0.02756,0.418923 0.03032,0.154341 0.115755,0.250803 0.08819,0.09646 0.225998,0.129536 0.137804,0.03307 0.374826,0.03307 h 0.553971 l -0.02756,0.385851 h -0.507118 q -0.779969,0 -1.03904,-0.286632 -0.168121,-0.187413 -0.206706,-0.60358 -0.01929,-0.184657 -0.01929,-0.454752 v -1.292599 h -0.854383 l 0.05512,-0.385851 h 0.799262 v -1.041796 l 0.501605,-0.148828 v 1.190624 h 1.273307 v 0.385851 z"
         style="font-style:normal;font-variant:normal;font-weight:normal;font-stretch:normal;font-family:'Oxygen Mono';-inkscape-font-specification:'Oxygen Mono';fill:#ffffff;stroke-width:0.264583"
         id="path2375" />
      <path
         d="m -44.013499,-49.520996 v 0.427192 h -1.84657 v -0.427192 z"
         style="font-style:normal;font-variant:normal;font-weight:normal;font-stretch:normal;font-family:'Oxygen Mono';-inkscape-font-specification:'Oxygen Mono';fill:#ffffff;stroke-width:0.264583"
         id="path2377" />
      <path
         d="m -41.397985,-50.356086 q 0.939821,0 0.939821,1.190624 v 1.92374 h -0.501605 v -1.863106 q 0,-0.319705 -0.03307,-0.457509 -0.03307,-0.137803 -0.09922,-0.225998 -0.14056,-0.181901 -0.460264,-0.181901 -0.322461,0 -0.545703,0.187413 -0.223242,0.187413 -0.223242,0.496094 v 2.045007 h -0.501606 v -3.023414 h 0.460265 l 0.02756,0.327973 q 0.300412,-0.418923 0.937065,-0.418923 z"
         style="font-style:normal;font-variant:normal;font-weight:normal;font-stretch:normal;font-family:'Oxygen Mono';-inkscape-font-specification:'Oxygen Mono';fill:#ffffff;stroke-width:0.264583"
         id="path2379" />
    </g>
    <path
       style="fill:none;stroke:#808000;stroke-width:1.05833;stroke-linecap:round;stroke-linejoin:miter;stroke-miterlimit:4;stroke-dasharray:none;stroke-opacity:1"
       d="m -90.894347,-34.522445 h 2.11666"
       id="path2225" />
    <circle
       style="fill:#afdde9;fill-opacity:1;fill-rule:evenodd;stroke:none;stroke-width:0.529167;stroke-linecap:round;stroke-linejoin:round;stroke-miterlimit:4;stroke-dasharray:none"
       id="circle2227"
       cx="-81.898514"
       cy="-32.670357"
       r="8.4666662" />
    <g
       id="g2301"
       transform="translate(-44.592267,-43.782856)"
       style="fill:#ffffff;stroke-width:1;stroke-miterlimit:4;stroke-dasharray:none;paint-order:fill markers stroke">
      <path
         style="fill:#ffffff;stroke:#000000;stroke-width:0.529167;stroke-linecap:butt;stroke-linejoin:miter;stroke-miterlimit:4;stroke-dasharray:none;stroke-opacity:1;paint-order:fill markers stroke"
         d="M -42.068749,8.7312499 V 16.66875 h 6.349999 v -6.35 l -1.5875,-1.5875 z"
         id="path2297"
         sodipodi:nodetypes="cccccc" />
      <path
         style="fill:none;stroke:#000000;stroke-width:0.529167;stroke-linecap:butt;stroke-linejoin:miter;stroke-miterlimit:4;stroke-dasharray:none;stroke-opacity:1;paint-order:fill markers stroke"
         d="m -37.30625,8.73125 v 1.5875 h 1.5875"
         id="path2299"
         sodipodi:nodetypes="ccc" />
    </g>
    <g
       id="g2295"
       transform="translate(-43.798517,-44.576606)"
       style="fill:#ffffff;stroke-width:1;stroke-miterlimit:4;stroke-dasharray:none;paint-order:fill markers stroke">
      <path
         style="fill:#ffffff;stroke:#000000;stroke-width:0.529167;stroke-linecap:butt;stroke-linejoin:miter;stroke-miterlimit:4;stroke-dasharray:none;stroke-opacity:1;paint-order:fill markers stroke"
         d="M -42.068749,8.7312499 V 16.66875 h 6.349999 v -6.35 l -1.5875,-1.5875 z"
         id="path2291"
         sodipodi:nodetypes="cccccc" />
      <path
         style="fill:none;stroke:#000000;stroke-width:0.529167;stroke-linecap:butt;stroke-linejoin:miter;stroke-miterlimit:4;stroke-dasharray:none;stroke-opacity:1;paint-order:fill markers stroke"
         d="m -37.30625,8.73125 v 1.5875 h 1.5875"
         id="path2293"
         sodipodi:nodetypes="ccc" />
    </g>
    <g
       id="g2233"
       transform="translate(-43.004767,-45.370356)"
       style="fill:#ffffff;stroke-width:1;stroke-miterlimit:4;stroke-dasharray:none;paint-order:fill markers stroke">
      <path
         style="fill:#ffffff;stroke:#000000;stroke-width:0.529167;stroke-linecap:butt;stroke-linejoin:miter;stroke-miterlimit:4;stroke-dasharray:none;stroke-opacity:1;paint-order:fill markers stroke"
         d="M -42.068749,8.7312499 V 16.66875 h 6.349999 v -6.35 l -1.5875,-1.5875 z"
         id="path2229"
         sodipodi:nodetypes="cccccc" />
      <path
         style="fill:none;stroke:#000000;stroke-width:0.529167;stroke-linecap:butt;stroke-linejoin:miter;stroke-miterlimit:4;stroke-dasharray:none;stroke-opacity:1;paint-order:fill markers stroke"
         d="m -37.30625,8.73125 v 1.5875 h 1.5875"
         id="path2231"
         sodipodi:nodetypes="ccc" />
    </g>
    <path
       style="fill:none;stroke:#808000;stroke-width:4.23333;stroke-linecap:butt;stroke-linejoin:miter;stroke-miterlimit:4;stroke-dasharray:none;stroke-opacity:1"
       d="m -101.47769,-45.105775 c 0,8.46667 4.233343,12.7 10.583343,12.7"
       id="path2235" />
    <path
       style="fill:none;stroke:#808000;stroke-width:1.05833;stroke-linecap:round;stroke-linejoin:miter;stroke-miterlimit:4;stroke-dasharray:none;stroke-opacity:1"
       d="m -90.894347,-33.464105 h 2.11666"
       id="path2237" />
    <path
       style="fill:none;stroke:#808000;stroke-width:1.05833;stroke-linecap:round;stroke-linejoin:miter;stroke-miterlimit:4;stroke-dasharray:none;stroke-opacity:1"
       d="m -90.894347,-32.405775 h 2.11666"
       id="path2239" />
    <path
       style="fill:none;stroke:#808000;stroke-width:1.05833;stroke-linecap:round;stroke-linejoin:miter;stroke-miterlimit:4;stroke-dasharray:none;stroke-opacity:1"
       d="m -90.894347,-31.347435 h 2.11666"
       id="path2241" />
    <path
       style="fill:none;stroke:#808000;stroke-width:1.05833;stroke-linecap:round;stroke-linejoin:miter;stroke-miterlimit:4;stroke-dasharray:none;stroke-opacity:1"
       d="m -90.894347,-30.289104 h 2.11666"
       id="path2243" />
    <path
       id="path2249"
       style="fill:#b3b3b3;fill-rule:evenodd;stroke:none;stroke-width:0.529167;stroke-linecap:round;stroke-linejoin:round;stroke-miterlimit:4;stroke-dasharray:none"
       d="m 4.3556427,-51.455785 h 6.5165903 v 4.23333 H 4.3556427 Z"
       sodipodi:nodetypes="ccccc" />
    <path
       id="path2251"
       style="fill:#0000ff;fill-rule:evenodd;stroke:none;stroke-width:0.529167;stroke-linecap:round;stroke-linejoin:round;stroke-miterlimit:4;stroke-dasharray:none"
       d="m -0.6714373,-51.455785 h 5.02709 l 2.11666,2.11667 -2.11666,2.11666 h -5.02709 z"
       sodipodi:nodetypes="cccccc" />
    <rect
       style="fill:#0000ff;fill-rule:evenodd;stroke:none;stroke-width:0.264583;stroke-linecap:round;stroke-linejoin:round"
       id="rect2253"
       width="33.866673"
       height="8.4666662"
       x="-31.627672"
       y="-53.572426"
       ry="2.1166666"
       rx="2.1166649" />
    <g
       aria-label="head -n 1"
       id="text2257"
       style="font-size:5.64444px;line-height:1.25;font-family:'Roboto Mono';-inkscape-font-specification:'Roboto Mono';text-align:center;letter-spacing:0px;word-spacing:0px;text-anchor:middle;fill:#ffffff;stroke-width:0.264583">
      <path
         d="m -27.098047,-49.041433 v 1.824522 h -0.501606 v -1.761132 q 0,-0.567751 -0.151584,-0.766188 -0.151584,-0.201194 -0.457508,-0.201194 -0.30868,0 -0.537434,0.214974 -0.225999,0.212218 -0.225999,0.457508 v 2.056032 h -0.501605 v -4.258135 l 0.501605,-0.05512 v 1.656401 q 0.352778,-0.457508 0.945334,-0.457508 0.928797,0 0.928797,1.289842 z"
         style="font-style:normal;font-variant:normal;font-weight:normal;font-stretch:normal;font-family:'Oxygen Mono';-inkscape-font-specification:'Oxygen Mono';fill:#ffffff;stroke-width:0.264583"
         id="path2382" />
      <path
         d="m -25.460939,-47.357471 q -0.316948,-0.212218 -0.471289,-0.567751 -0.151584,-0.35829 -0.151584,-0.80753 0,-0.44924 0.14056,-0.804774 0.143316,-0.35829 0.424436,-0.576019 0.283875,-0.220486 0.622872,-0.220486 0.63941,0 0.937066,0.438215 0.297656,0.438216 0.297656,1.077626 v 0.16812 h -1.915472 q 0.01654,0.465777 0.23151,0.790993 0.21773,0.325217 0.650434,0.325217 0.289388,-0.02756 0.80753,-0.314192 l 0.165364,0.341753 q -0.35829,0.35829 -0.978406,0.35829 -0.443728,0 -0.760677,-0.209462 z m 1.32016,-1.659157 q -0.05512,-0.928797 -0.650434,-0.928797 -0.672482,0 -0.768945,0.928797 z"
         style="font-style:normal;font-variant:normal;font-weight:normal;font-stretch:normal;font-family:'Oxygen Mono';-inkscape-font-specification:'Oxygen Mono';fill:#ffffff;stroke-width:0.264583"
         id="path2384" />
      <path
         d="m -20.861051,-47.89215 v -0.7717 l -0.410655,0.05788 q -0.429947,0.06063 -0.595312,0.121268 -0.369314,0.140559 -0.369314,0.471288 0,0.228754 0.132292,0.363802 0.132291,0.135048 0.363802,0.135048 0.509873,0 0.879187,-0.377583 z m 0,-1.408353 q 0,-0.647678 -0.548459,-0.647678 -0.259071,0 -0.573263,0.06063 -0.311436,0.06063 -0.438216,0.115755 l -0.118511,-0.369314 q 0.570507,-0.190169 1.072113,-0.190169 0.501605,0 0.804774,0.228754 0.303168,0.228754 0.303168,0.705555 v 2.180055 h -0.416167 l -0.06615,-0.350022 q -0.176389,0.179145 -0.454753,0.300412 -0.275607,0.118512 -0.54019,0.118512 -0.383094,0 -0.636653,-0.228755 -0.253559,-0.23151 -0.253559,-0.650433 0,-0.42168 0.330729,-0.617361 0.223242,-0.137804 0.474045,-0.187413 0.253558,-0.05236 0.658701,-0.101975 l 0.402387,-0.04685 z"
         style="font-style:normal;font-variant:normal;font-weight:normal;font-stretch:normal;font-family:'Oxygen Mono';-inkscape-font-specification:'Oxygen Mono';fill:#ffffff;stroke-width:0.264583"
         id="path2386" />
      <path
         d="m -17.39391,-48.746533 q 0,-0.705555 -0.209461,-0.950845 -0.209462,-0.248047 -0.595312,-0.248047 -0.534679,0 -0.691775,0.529166 -0.08544,0.289388 -0.08544,0.697287 0,1.185112 0.777213,1.185112 0.804773,0 0.804773,-1.212673 z m 0,-1.077625 v -1.650888 l 0.501606,-0.05512 v 4.313257 h -0.501606 v -0.468533 q -0.305924,0.537435 -0.865407,0.537435 -0.639409,0 -0.931553,-0.457509 -0.289388,-0.457508 -0.289388,-1.149283 0,-0.832334 0.424436,-1.267794 0.297656,-0.30868 0.799261,-0.30868 0.341753,0 0.553971,0.14056 0.214974,0.140559 0.30868,0.366557 z"
         style="font-style:normal;font-variant:normal;font-weight:normal;font-stretch:normal;font-family:'Oxygen Mono';-inkscape-font-specification:'Oxygen Mono';fill:#ffffff;stroke-width:0.264583"
         id="path2388" />
      <path
         d="m -10.30253,-49.496185 v 0.427192 h -1.84657 v -0.427192 z"
         style="font-style:normal;font-variant:normal;font-weight:normal;font-stretch:normal;font-family:'Oxygen Mono';-inkscape-font-specification:'Oxygen Mono';fill:#ffffff;stroke-width:0.264583"
         id="path2390" />
      <path
         d="m -7.6870159,-50.331275 q 0.9398214,0 0.9398214,1.190624 v 1.92374 h -0.5016056 v -1.863107 q 0,-0.319704 -0.033073,-0.457508 -0.033073,-0.137804 -0.099219,-0.225998 -0.1405598,-0.181901 -0.4602644,-0.181901 -0.3224607,0 -0.5457027,0.187413 -0.2232421,0.187413 -0.2232421,0.496094 v 2.045007 h -0.5016055 v -3.023414 h 0.4602644 l 0.027561,0.327973 q 0.3004121,-0.418923 0.9370652,-0.418923 z"
         style="font-style:normal;font-variant:normal;font-weight:normal;font-stretch:normal;font-family:'Oxygen Mono';-inkscape-font-specification:'Oxygen Mono';fill:#ffffff;stroke-width:0.264583"
         id="path2392" />
      <path
         d="m -2.224476,-50.763979 q 0.3775822,-0.15434 0.926041,-0.564995 h 0.51814192 v 3.709676 h 0.86540733 v 0.402387 H -2.2217199 v -0.402387 h 0.9260409 v -3.152949 q -0.07717,0.0441 -0.3858504,0.23151 -0.3086803,0.184657 -0.5429466,0.275608 z"
         style="font-style:normal;font-variant:normal;font-weight:normal;font-stretch:normal;font-family:'Oxygen Mono';-inkscape-font-specification:'Oxygen Mono';fill:#ffffff;stroke-width:0.264583"
         id="path2394" />
    </g>
    <circle
       style="fill:#b3b3b3;fill-rule:evenodd;stroke:none;stroke-width:0.529167;stroke-linecap:round;stroke-linejoin:round;stroke-miterlimit:4;stroke-dasharray:none"
       id="circle2259"
       cx="14.938993"
       cy="-49.339104"
       r="8.4666662" />
    <rect
       style="fill:#000000;fill-rule:evenodd;stroke-width:0.264583;stroke-linecap:round;stroke-linejoin:round"
       id="rect2261"
       width="10.583334"
       height="6.3499999"
       x="9.6473217"
       y="-53.307854"
       rx="0.26458246"
       ry="0.26458395" />
    <rect
       style="fill:#ffffff;fill-rule:evenodd;stroke-width:0.264583;stroke-linecap:round;stroke-linejoin:round"
       id="rect2263"
       width="9.5250025"
       height="5.291666"
       x="10.176474"
       y="-52.778694" />
    <rect
       style="fill:#000000;fill-rule:evenodd;stroke-width:0.264583;stroke-linecap:round;stroke-linejoin:round"
       id="rect2265"
       width="4.2333341"
       height="1.0583335"
       x="12.822309"
       y="-46.428688"
       rx="0.26458246"
       ry="0.26458395" />
    <rect
       style="fill:#000000;fill-rule:evenodd;stroke-width:0.264583;stroke-linecap:round;stroke-linejoin:round"
       id="rect2267"
       width="0.79374939"
       height="1.3229171"
       x="14.542097"
       y="-47.22245"
       rx="0.26458246"
       ry="0.26458395" />
    <rect
       style="fill:#808000;fill-rule:evenodd;stroke:none;stroke-width:0.264583;stroke-linecap:round;stroke-linejoin:round"
       id="rect2273"
       width="44.449997"
       height="8.4666662"
       x="-116.29434"
       y="-53.572426"
       ry="2.1166666"
       rx="2.1166649" />
    <g
       aria-label="wc -l *.pdb"
       id="text2277"
       style="font-size:5.64444px;line-height:1.25;font-family:'Roboto Mono';-inkscape-font-specification:'Roboto Mono';text-align:center;letter-spacing:0px;word-spacing:0px;text-anchor:middle;fill:#ffffff;stroke-width:0.264583">
      <path
         d="m -111.40505,-47.291328 h -0.51263 l -0.5898,-3.023414 h 0.50436 l 0.36105,2.334395 0.50436,-2.334395 h 0.59807 l 0.49334,2.326127 0.31695,-2.326127 h 0.47404 l -0.55397,3.023414 h -0.52917 l -0.50436,-2.626539 z"
         style="font-style:normal;font-variant:normal;font-weight:normal;font-stretch:normal;font-family:'Oxygen Mono';-inkscape-font-specification:'Oxygen Mono';fill:#ffffff;stroke-width:0.264583"
         id="path2397" />
      <path
         d="m -106.42482,-47.489766 q -0.28939,0.267339 -0.82407,0.267339 -0.34175,0 -0.62287,-0.129535 -0.28112,-0.132292 -0.46027,-0.352778 -0.37758,-0.46302 -0.37758,-1.11621 0,-0.421679 0.17088,-0.779969 0.17363,-0.358289 0.50987,-0.581531 0.33624,-0.223242 0.82958,-0.223242 0.49334,0 0.76619,0.261827 l -0.12678,0.336241 q -0.31695,-0.212218 -0.71658,-0.212218 -0.39963,0 -0.66421,0.341753 -0.26183,0.341753 -0.26183,0.87092 0,0.52641 0.26183,0.862651 0.26458,0.336241 0.67248,0.336241 0.41065,0 0.72209,-0.220486 z"
         style="font-style:normal;font-variant:normal;font-weight:normal;font-stretch:normal;font-family:'Oxygen Mono';-inkscape-font-specification:'Oxygen Mono';fill:#ffffff;stroke-width:0.264583"
         id="path2399" />
      <path
         d="m -99.675196,-49.570602 v 0.427192 h -1.846574 v -0.427192 z"
         style="font-style:normal;font-variant:normal;font-weight:normal;font-stretch:normal;font-family:'Oxygen Mono';-inkscape-font-specification:'Oxygen Mono';fill:#ffffff;stroke-width:0.264583"
         id="path2401" />
      <path
         d="m -96.161201,-47.291328 h -0.399631 q -0.531922,0 -0.760676,-0.110243 -0.132292,-0.06339 -0.209462,-0.146072 -0.203949,-0.212218 -0.212217,-0.937066 v -2.734025 h -0.903993 v -0.385851 h 1.405598 v 3.095072 q 0,0.548459 0.09922,0.672482 0.101975,0.124023 0.253559,0.143316 0.151584,0.01654 0.30868,0.01654 h 0.443728 z"
         style="font-style:normal;font-variant:normal;font-weight:normal;font-stretch:normal;font-family:'Oxygen Mono';-inkscape-font-specification:'Oxygen Mono';fill:#ffffff;stroke-width:0.264583"
         id="path2403" />
      <path
         d="m -89.367478,-48.3221 -0.496093,0.286632 -0.700043,-1.110698 -0.686263,1.110698 -0.501605,-0.286632 0.876431,-1.041796 -1.220941,-0.405143 0.253559,-0.496094 1.107942,0.587044 -0.09646,-1.278818 h 0.54019 l -0.08268,1.278818 1.099674,-0.587044 0.256314,0.496094 -1.226453,0.405143 z"
         style="font-style:normal;font-variant:normal;font-weight:normal;font-stretch:normal;font-family:'Oxygen Mono';-inkscape-font-specification:'Oxygen Mono';fill:#ffffff;stroke-width:0.264583"
         id="path2405" />
      <path
         d="m -86.757474,-47.291328 h -0.829579 v -0.829579 h 0.829579 z"
         style="font-style:normal;font-variant:normal;font-weight:normal;font-stretch:normal;font-family:'Oxygen Mono';-inkscape-font-specification:'Oxygen Mono';fill:#ffffff;stroke-width:0.264583"
         id="path2407" />
      <path
         d="m -84.541591,-48.82095 q 0,1.212673 0.848871,1.212673 0.763432,0 0.763432,-1.212673 0,-0.672482 -0.206705,-0.934309 -0.20395,-0.264583 -0.564996,-0.264583 -0.705555,0 -0.815798,0.815798 -0.0248,0.170877 -0.0248,0.383094 z m 0.868163,1.598523 q -0.292144,0 -0.518142,-0.135047 -0.225998,-0.135048 -0.344509,-0.347266 v 1.573719 l -0.501606,0.05512 v -4.238842 h 0.501606 v 0.416167 q 0.132291,-0.225998 0.352777,-0.366558 0.220486,-0.140559 0.49885,-0.140559 0.746896,0 1.061088,0.61736 0.198438,0.391363 0.198438,0.931553 0,0.862652 -0.416167,1.311892 -0.297656,0.32246 -0.832335,0.32246 z"
         style="font-style:normal;font-variant:normal;font-weight:normal;font-stretch:normal;font-family:'Oxygen Mono';-inkscape-font-specification:'Oxygen Mono';fill:#ffffff;stroke-width:0.264583"
         id="path2409" />
      <path
         d="m -79.668853,-48.82095 q 0,-0.705555 -0.209461,-0.950845 -0.209462,-0.248047 -0.595312,-0.248047 -0.534679,0 -0.691775,0.529166 -0.08544,0.289388 -0.08544,0.697287 0,1.185112 0.777213,1.185112 0.804773,0 0.804773,-1.212673 z m 0,-1.077625 v -1.650888 l 0.501606,-0.05512 v 4.313257 h -0.501606 v -0.468533 q -0.305924,0.537434 -0.865407,0.537434 -0.639409,0 -0.931553,-0.457508 -0.289388,-0.457508 -0.289388,-1.149283 0,-0.832334 0.424436,-1.267794 0.297656,-0.30868 0.799261,-0.30868 0.341753,0 0.553971,0.140559 0.214974,0.14056 0.30868,0.366558 z"
         style="font-style:normal;font-variant:normal;font-weight:normal;font-stretch:normal;font-family:'Oxygen Mono';-inkscape-font-specification:'Oxygen Mono';fill:#ffffff;stroke-width:0.264583"
         id="path2411" />
      <path
         d="m -77.709282,-48.443367 q 0.04961,0.38585 0.23151,0.609092 0.184657,0.223242 0.562239,0.223242 0.509874,0 0.689018,-0.529166 0.09095,-0.278364 0.09095,-0.578776 0,-0.303168 -0.01929,-0.465776 -0.04134,-0.385851 -0.217729,-0.609093 -0.173633,-0.225998 -0.542947,-0.225998 -0.617361,0 -0.755164,0.595312 -0.05788,0.248047 -0.05788,0.531922 0,0.28112 0.01929,0.449241 z m -0.01929,-1.455208 q 0.305924,-0.507117 0.915017,-0.507117 0.611848,0 0.895724,0.440971 0.286632,0.440972 0.286632,1.107942 0,0.873676 -0.413412,1.314648 -0.297656,0.319704 -0.810285,0.319704 -0.338998,0 -0.518142,-0.124023 -0.176389,-0.126779 -0.355534,-0.35829 l -0.0055,0.413412 h -0.496094 v -4.258135 l 0.501606,-0.05512 z"
         style="font-style:normal;font-variant:normal;font-weight:normal;font-stretch:normal;font-family:'Oxygen Mono';-inkscape-font-specification:'Oxygen Mono';fill:#ffffff;stroke-width:0.264583"
         id="path2413" />
    </g>
    <g
       id="g2283"
       transform="translate(-42.211017,-46.164106)"
       style="fill:#ffffff;stroke-width:1;stroke-miterlimit:4;stroke-dasharray:none;paint-order:fill markers stroke">
      <path
         style="fill:#ffffff;stroke:#000000;stroke-width:0.529167;stroke-linecap:butt;stroke-linejoin:miter;stroke-miterlimit:4;stroke-dasharray:none;stroke-opacity:1;paint-order:fill markers stroke"
         d="M -42.068749,8.7312499 V 16.66875 h 6.349999 v -6.35 l -1.5875,-1.5875 z"
         id="path2279"
         sodipodi:nodetypes="cccccc" />
      <path
         style="fill:none;stroke:#000000;stroke-width:0.529167;stroke-linecap:butt;stroke-linejoin:miter;stroke-miterlimit:4;stroke-dasharray:none;stroke-opacity:1;paint-order:fill markers stroke"
         d="m -37.30625,8.73125 v 1.5875 h 1.5875"
         id="path2281"
         sodipodi:nodetypes="ccc" />
    </g>
    <g
       id="g2289"
       transform="translate(-41.417267,-46.957856)"
       style="fill:#ffffff;stroke-width:1;stroke-miterlimit:4;stroke-dasharray:none;paint-order:fill markers stroke">
      <path
         style="fill:#ffffff;stroke:#000000;stroke-width:0.529167;stroke-linecap:butt;stroke-linejoin:miter;stroke-miterlimit:4;stroke-dasharray:none;stroke-opacity:1;paint-order:fill markers stroke"
         d="M -42.068749,8.7312499 V 16.66875 h 6.349999 v -6.35 l -1.5875,-1.5875 z"
         id="path2285"
         sodipodi:nodetypes="cccccc" />
      <path
         style="fill:none;stroke:#000000;stroke-width:0.529167;stroke-linecap:butt;stroke-linejoin:miter;stroke-miterlimit:4;stroke-dasharray:none;stroke-opacity:1;paint-order:fill markers stroke"
         d="m -37.30625,8.73125 v 1.5875 h 1.5875"
         id="path2287"
         sodipodi:nodetypes="ccc" />
    </g>
  </g>
</svg>
