<?xml version="1.0" encoding="UTF-8" standalone="no"?>
<svg
   xmlns:dc="http://purl.org/dc/elements/1.1/"
   xmlns:cc="http://creativecommons.org/ns#"
   xmlns:rdf="http://www.w3.org/1999/02/22-rdf-syntax-ns#"
   xmlns:svg="http://www.w3.org/2000/svg"
   xmlns="http://www.w3.org/2000/svg"
   width="182.8271mm"
   height="42.333321mm"
   viewBox="0 0 182.82711 42.33332"
   version="1.1"
   id="svg8">
  <defs
     id="defs2" />
  <metadata
     id="metadata5">
    <rdf:RDF>
      <cc:Work
         rdf:about="">
        <dc:format>image/svg+xml</dc:format>
        <dc:type
           rdf:resource="http://purl.org/dc/dcmitype/StillImage" />
        <dc:title></dc:title>
      </cc:Work>
    </rdf:RDF>
  </metadata>
  <g
     id="layer1"
     transform="translate(138.19807,77.082549)">
    <path
       id="path1859"
       style="fill:#cccccc;fill-rule:evenodd;stroke:none;stroke-width:0.529167;stroke-linecap:round;stroke-linejoin:round;stroke-miterlimit:4;stroke-dasharray:none"
       d="m -126.63969,-70.732563 h 7.49163 l 2.11667,2.11667 -2.11667,2.11666 h -7.49163 z" />
    <circle
       style="fill:#cccccc;fill-rule:evenodd;stroke:none;stroke-width:0.529167;stroke-linecap:round;stroke-linejoin:round;stroke-miterlimit:4;stroke-dasharray:none"
       id="circle1861"
       cx="-129.7314"
       cy="-68.615883"
       r="8.4666662" />
    <g
       id="g1989"
       transform="translate(-119.14806,-83.170415)">
      <rect
         style="fill:#000000;fill-rule:evenodd;stroke-width:0.264583;stroke-linecap:round;stroke-linejoin:round"
         id="rect1863"
         width="12.700002"
         height="4.7576265"
         x="-16.933334"
         y="12.175707"
         rx="0.26458246"
         ry="0.26458395" />
      <rect
         style="fill:#ffffff;fill-rule:evenodd;stroke-width:0.264583;stroke-linecap:round;stroke-linejoin:round"
         id="rect1865"
         width="0.79375082"
         height="0.52916634"
         x="-16.404167"
         y="15.879875" />
      <rect
         style="fill:#ffffff;fill-rule:evenodd;stroke-width:0.264582;stroke-linecap:round;stroke-linejoin:round"
         id="rect1867"
         width="0.52916741"
         height="0.529167"
         x="-16.404167"
         y="15.086124" />
      <rect
         style="fill:#ffffff;fill-rule:evenodd;stroke-width:0.264584;stroke-linecap:round;stroke-linejoin:round"
         id="rect1869"
         width="0.79375166"
         height="0.52916574"
         x="-16.404167"
         y="13.498623" />
      <rect
         style="fill:#ffffff;fill-rule:evenodd;stroke-width:0.264582;stroke-linecap:round;stroke-linejoin:round"
         id="rect1871"
         width="1.0583334"
         height="0.51828963"
         x="-16.404167"
         y="14.303251" />
      <rect
         style="fill:#ffffff;fill-rule:evenodd;stroke-width:0.264583;stroke-linecap:round;stroke-linejoin:round"
         id="rect1873"
         width="0.52916664"
         height="0.51868218"
         x="-16.404167"
         y="12.704874" />
      <rect
         style="fill:#ffffff;fill-rule:evenodd;stroke-width:0.264583;stroke-linecap:round;stroke-linejoin:round"
         id="rect1875"
         width="0.52916664"
         height="0.51868218"
         x="-15.610417"
         y="12.715359" />
      <rect
         style="fill:#ffffff;fill-rule:evenodd;stroke-width:0.264583;stroke-linecap:round;stroke-linejoin:round"
         id="rect1877"
         width="0.52916664"
         height="0.51868218"
         x="-14.816667"
         y="12.715359" />
      <rect
         style="fill:#ffffff;fill-rule:evenodd;stroke-width:0.264583;stroke-linecap:round;stroke-linejoin:round"
         id="rect1879"
         width="0.52916664"
         height="0.51868218"
         x="-14.022917"
         y="12.715359" />
      <rect
         style="fill:#ffffff;fill-rule:evenodd;stroke-width:0.264583;stroke-linecap:round;stroke-linejoin:round"
         id="rect1881"
         width="0.52916664"
         height="0.51868218"
         x="-13.229167"
         y="12.704874" />
      <rect
         style="fill:#ffffff;fill-rule:evenodd;stroke-width:0.264583;stroke-linecap:round;stroke-linejoin:round"
         id="rect1883"
         width="0.52916664"
         height="0.51868218"
         x="-12.435416"
         y="12.704874" />
      <rect
         style="fill:#ffffff;fill-rule:evenodd;stroke-width:0.264583;stroke-linecap:round;stroke-linejoin:round"
         id="rect1885"
         width="0.52916664"
         height="0.52916652"
         x="-11.641667"
         y="12.704876" />
      <rect
         style="fill:#ffffff;fill-rule:evenodd;stroke-width:0.264583;stroke-linecap:round;stroke-linejoin:round"
         id="rect1887"
         width="0.52916664"
         height="0.52916652"
         x="-10.847917"
         y="12.704876" />
      <rect
         style="fill:#ffffff;fill-rule:evenodd;stroke-width:0.264583;stroke-linecap:round;stroke-linejoin:round"
         id="rect1889"
         width="0.52916664"
         height="0.51868218"
         x="-10.054166"
         y="12.704874" />
      <rect
         style="fill:#ffffff;fill-rule:evenodd;stroke-width:0.264583;stroke-linecap:round;stroke-linejoin:round"
         id="rect1891"
         width="0.52916664"
         height="0.52916652"
         x="-9.260417"
         y="12.704876" />
      <rect
         style="fill:#ffffff;fill-rule:evenodd;stroke-width:0.264583;stroke-linecap:round;stroke-linejoin:round"
         id="rect1893"
         width="0.52916664"
         height="0.51868218"
         x="-8.4666681"
         y="12.704874" />
      <rect
         style="fill:#ffffff;fill-rule:evenodd;stroke-width:0.264583;stroke-linecap:round;stroke-linejoin:round"
         id="rect1895"
         width="0.52916664"
         height="0.52916652"
         x="-7.6729169"
         y="12.704876" />
      <rect
         style="fill:#ffffff;fill-rule:evenodd;stroke-width:0.264583;stroke-linecap:round;stroke-linejoin:round"
         id="rect1897"
         width="0.52916664"
         height="0.52916652"
         x="-6.8791661"
         y="12.704876" />
      <rect
         style="fill:#ffffff;fill-rule:evenodd;stroke-width:0.264584;stroke-linecap:round;stroke-linejoin:round"
         id="rect1899"
         width="1.3229179"
         height="0.52916652"
         x="-6.0854173"
         y="12.704876" />
      <rect
         style="fill:#ffffff;fill-rule:evenodd;stroke-width:0.264583;stroke-linecap:round;stroke-linejoin:round"
         id="rect1901"
         width="0.52916664"
         height="0.51868218"
         x="-15.345833"
         y="13.509109" />
      <rect
         style="fill:#ffffff;fill-rule:evenodd;stroke-width:0.264583;stroke-linecap:round;stroke-linejoin:round"
         id="rect1903"
         width="0.52916664"
         height="0.51868218"
         x="-14.552081"
         y="13.509109" />
      <rect
         style="fill:#ffffff;fill-rule:evenodd;stroke-width:0.264583;stroke-linecap:round;stroke-linejoin:round"
         id="rect1905"
         width="0.52916664"
         height="0.51868218"
         x="-13.758332"
         y="13.509109" />
      <rect
         style="fill:#ffffff;fill-rule:evenodd;stroke-width:0.264583;stroke-linecap:round;stroke-linejoin:round"
         id="rect1907"
         width="0.52916664"
         height="0.51868218"
         x="-12.964582"
         y="13.498625" />
      <rect
         style="fill:#ffffff;fill-rule:evenodd;stroke-width:0.264583;stroke-linecap:round;stroke-linejoin:round"
         id="rect1909"
         width="0.52916664"
         height="0.51868218"
         x="-12.170831"
         y="13.498625" />
      <rect
         style="fill:#ffffff;fill-rule:evenodd;stroke-width:0.264583;stroke-linecap:round;stroke-linejoin:round"
         id="rect1911"
         width="0.52916664"
         height="0.52916723"
         x="-11.377084"
         y="13.498623" />
      <rect
         style="fill:#ffffff;fill-rule:evenodd;stroke-width:0.264583;stroke-linecap:round;stroke-linejoin:round"
         id="rect1913"
         width="0.52916664"
         height="0.52916723"
         x="-10.583331"
         y="13.498623" />
      <rect
         style="fill:#ffffff;fill-rule:evenodd;stroke-width:0.264583;stroke-linecap:round;stroke-linejoin:round"
         id="rect1915"
         width="0.52916664"
         height="0.51868218"
         x="-9.7895823"
         y="13.498625" />
      <rect
         style="fill:#ffffff;fill-rule:evenodd;stroke-width:0.264583;stroke-linecap:round;stroke-linejoin:round"
         id="rect1917"
         width="0.52916664"
         height="0.52916723"
         x="-8.9958334"
         y="13.498623" />
      <rect
         style="fill:#ffffff;fill-rule:evenodd;stroke-width:0.264583;stroke-linecap:round;stroke-linejoin:round"
         id="rect1919"
         width="0.52916664"
         height="0.52916598"
         x="-8.2020845"
         y="13.498625" />
      <rect
         style="fill:#ffffff;fill-rule:evenodd;stroke-width:0.264583;stroke-linecap:round;stroke-linejoin:round"
         id="rect1921"
         width="0.52916664"
         height="0.52916723"
         x="-7.4083333"
         y="13.498623" />
      <rect
         style="fill:#ffffff;fill-rule:evenodd;stroke-width:0.264583;stroke-linecap:round;stroke-linejoin:round"
         id="rect1923"
         width="0.52916664"
         height="0.52916723"
         x="-6.6145825"
         y="13.498623" />
      <rect
         style="fill:#ffffff;fill-rule:evenodd;stroke-width:0.264583;stroke-linecap:round;stroke-linejoin:round"
         id="rect1925"
         width="0.52916664"
         height="0.51868218"
         x="-15.08125"
         y="14.302858" />
      <rect
         style="fill:#ffffff;fill-rule:evenodd;stroke-width:0.264583;stroke-linecap:round;stroke-linejoin:round"
         id="rect1927"
         width="0.52916664"
         height="0.51868218"
         x="-14.287499"
         y="14.302858" />
      <rect
         style="fill:#ffffff;fill-rule:evenodd;stroke-width:0.264583;stroke-linecap:round;stroke-linejoin:round"
         id="rect1929"
         width="0.52916664"
         height="0.51868218"
         x="-13.49375"
         y="14.302858" />
      <rect
         style="fill:#ffffff;fill-rule:evenodd;stroke-width:0.264583;stroke-linecap:round;stroke-linejoin:round"
         id="rect1931"
         width="0.52916664"
         height="0.51868218"
         x="-12.7"
         y="14.292375" />
      <rect
         style="fill:#ffffff;fill-rule:evenodd;stroke-width:0.264583;stroke-linecap:round;stroke-linejoin:round"
         id="rect1933"
         width="0.52916664"
         height="0.51868218"
         x="-11.906249"
         y="14.292375" />
      <rect
         style="fill:#ffffff;fill-rule:evenodd;stroke-width:0.264583;stroke-linecap:round;stroke-linejoin:round"
         id="rect1935"
         width="0.52916664"
         height="0.5291661"
         x="-11.1125"
         y="14.292375" />
      <rect
         style="fill:#ffffff;fill-rule:evenodd;stroke-width:0.264583;stroke-linecap:round;stroke-linejoin:round"
         id="rect1937"
         width="0.52916664"
         height="0.5291661"
         x="-10.318749"
         y="14.292375" />
      <rect
         style="fill:#ffffff;fill-rule:evenodd;stroke-width:0.264583;stroke-linecap:round;stroke-linejoin:round"
         id="rect1939"
         width="0.52916664"
         height="0.51868218"
         x="-9.5249987"
         y="14.292375" />
      <rect
         style="fill:#ffffff;fill-rule:evenodd;stroke-width:0.264583;stroke-linecap:round;stroke-linejoin:round"
         id="rect1941"
         width="0.52916664"
         height="0.5291661"
         x="-8.7312498"
         y="14.292375" />
      <rect
         style="fill:#ffffff;fill-rule:evenodd;stroke-width:0.264583;stroke-linecap:round;stroke-linejoin:round"
         id="rect1943"
         width="0.52916664"
         height="0.51868141"
         x="-7.937501"
         y="14.292375" />
      <rect
         style="fill:#ffffff;fill-rule:evenodd;stroke-width:0.264583;stroke-linecap:round;stroke-linejoin:round"
         id="rect1945"
         width="0.52916664"
         height="0.52916533"
         x="-7.1437497"
         y="14.292375" />
      <rect
         style="fill:#ffffff;fill-rule:evenodd;stroke-width:0.264583;stroke-linecap:round;stroke-linejoin:round"
         id="rect1947"
         width="0.52916664"
         height="0.52916533"
         x="-6.3500009"
         y="14.292375" />
      <rect
         style="fill:#ffffff;fill-rule:evenodd;stroke-width:0.264583;stroke-linecap:round;stroke-linejoin:round"
         id="rect1949"
         width="0.52916664"
         height="0.52916688"
         x="-14.816667"
         y="15.086124" />
      <rect
         style="fill:#ffffff;fill-rule:evenodd;stroke-width:0.264583;stroke-linecap:round;stroke-linejoin:round"
         id="rect1951"
         width="0.52916664"
         height="0.52916855"
         x="-14.022916"
         y="15.086124" />
      <rect
         style="fill:#ffffff;fill-rule:evenodd;stroke-width:0.264583;stroke-linecap:round;stroke-linejoin:round"
         id="rect1953"
         width="0.52916664"
         height="0.52916688"
         x="-13.229166"
         y="15.086124" />
      <rect
         style="fill:#ffffff;fill-rule:evenodd;stroke-width:0.264583;stroke-linecap:round;stroke-linejoin:round"
         id="rect1955"
         width="0.52916664"
         height="0.51868218"
         x="-12.435416"
         y="15.086124" />
      <rect
         style="fill:#ffffff;fill-rule:evenodd;stroke-width:0.264583;stroke-linecap:round;stroke-linejoin:round"
         id="rect1957"
         width="0.52916664"
         height="0.51868218"
         x="-11.641665"
         y="15.086124" />
      <rect
         style="fill:#ffffff;fill-rule:evenodd;stroke-width:0.264583;stroke-linecap:round;stroke-linejoin:round"
         id="rect1959"
         width="0.52916664"
         height="0.52916688"
         x="-10.847917"
         y="15.086124" />
      <rect
         style="fill:#ffffff;fill-rule:evenodd;stroke-width:0.264583;stroke-linecap:round;stroke-linejoin:round"
         id="rect1961"
         width="0.52916664"
         height="0.52916688"
         x="-10.054166"
         y="15.086124" />
      <rect
         style="fill:#ffffff;fill-rule:evenodd;stroke-width:0.264583;stroke-linecap:round;stroke-linejoin:round"
         id="rect1963"
         width="0.52916664"
         height="0.51868218"
         x="-9.2604151"
         y="15.086124" />
      <rect
         style="fill:#ffffff;fill-rule:evenodd;stroke-width:0.264583;stroke-linecap:round;stroke-linejoin:round"
         id="rect1965"
         width="0.52916664"
         height="0.52916688"
         x="-8.4666662"
         y="15.086124" />
      <rect
         style="fill:#ffffff;fill-rule:evenodd;stroke-width:0.264583;stroke-linecap:round;stroke-linejoin:round"
         id="rect1967"
         width="0.52916664"
         height="0.51868218"
         x="-7.6729169"
         y="15.086124" />
      <rect
         style="fill:#ffffff;fill-rule:evenodd;stroke-width:0.264583;stroke-linecap:round;stroke-linejoin:round"
         id="rect1969"
         width="0.52916664"
         height="0.52916688"
         x="-15.610417"
         y="15.086124" />
      <rect
         style="fill:#ffffff;fill-rule:evenodd;stroke-width:0.264583;stroke-linecap:round;stroke-linejoin:round"
         id="rect1971"
         width="0.79374981"
         height="0.52916825"
         x="-14.552081"
         y="15.879871" />
      <rect
         style="fill:#ffffff;fill-rule:evenodd;stroke-width:0.264584;stroke-linecap:round;stroke-linejoin:round"
         id="rect1973"
         width="2.1166651"
         height="0.52916688"
         x="-6.8791642"
         y="15.086124" />
      <rect
         style="fill:#ffffff;fill-rule:evenodd;stroke-width:0.264583;stroke-linecap:round;stroke-linejoin:round"
         id="rect1975"
         width="0.79374945"
         height="1.3229165"
         x="-5.5562501"
         y="13.498625" />
      <rect
         style="fill:#ffffff;fill-rule:evenodd;stroke-width:0.264583;stroke-linecap:round;stroke-linejoin:round"
         id="rect1977"
         width="0.52916664"
         height="0.52916723"
         x="-5.8208337"
         y="13.498623" />
      <rect
         style="fill:#ffffff;fill-rule:evenodd;stroke-width:0.264583;stroke-linecap:round;stroke-linejoin:round"
         id="rect1979"
         width="0.79375082"
         height="0.52916747"
         x="-7.4083333"
         y="15.879873" />
      <rect
         style="fill:#ffffff;fill-rule:evenodd;stroke-width:0.264583;stroke-linecap:round;stroke-linejoin:round"
         id="rect1981"
         width="0.79374981"
         height="0.5291701"
         x="-5.5562482"
         y="15.879873" />
      <rect
         style="fill:#ffffff;fill-rule:evenodd;stroke-width:0.264584;stroke-linecap:round;stroke-linejoin:round"
         id="rect1983"
         width="5.8208337"
         height="0.52916574"
         x="-13.493751"
         y="15.879875" />
      <rect
         style="fill:#ffffff;fill-rule:evenodd;stroke-width:0.264583;stroke-linecap:round;stroke-linejoin:round"
         id="rect1985"
         width="0.52916664"
         height="0.51868218"
         x="-6.3500009"
         y="15.890358" />
      <rect
         style="fill:#ffffff;fill-rule:evenodd;stroke-width:0.264583;stroke-linecap:round;stroke-linejoin:round"
         id="rect1987"
         width="0.52916664"
         height="0.52916688"
         x="-15.345833"
         y="15.879873" />
    </g>
    <rect
       style="fill:#ff0000;fill-rule:evenodd;stroke:none;stroke-width:0.264583;stroke-linecap:round;stroke-linejoin:round"
       id="rect1991"
       width="69.849998"
       height="8.4666662"
       x="-114.91473"
       y="-72.84922"
       ry="2.1166666"
       rx="2.1166649" />
    <g
       aria-label="sort -n delky.txt"
       id="text1995"
       style="font-size:5.64444px;line-height:1.25;font-family:'Roboto Mono';-inkscape-font-specification:'Roboto Mono';text-align:center;letter-spacing:0px;word-spacing:0px;text-anchor:middle;fill:#ffffff;stroke-width:0.264583">
      <path
         d="m -106.8146,-68.21074 q 0.39136,0.09646 0.5705,0.305924 0.18191,0.209462 0.18191,0.606337 0,0.394118 -0.30317,0.633897 -0.30041,0.239778 -0.75517,0.239778 -0.32521,0 -0.63114,-0.07993 -0.30592,-0.08268 -0.45199,-0.192925 l 0.12402,-0.361046 q 0.11575,0.07166 0.36656,0.146072 0.2508,0.07166 0.54294,0.07166 0.2949,0 0.46854,-0.121267 0.17639,-0.124024 0.17639,-0.327973 0,-0.20395 -0.0882,-0.319705 -0.0854,-0.118511 -0.33348,-0.179145 l -0.51263,-0.124023 q -0.44373,-0.110243 -0.5898,-0.319705 -0.14608,-0.212217 -0.14608,-0.52641 0,-0.314192 0.25356,-0.578775 0.25632,-0.264584 0.74414,-0.270096 h 0.0358 q 0.54846,0 0.93431,0.206706 l -0.11024,0.352777 q -0.40239,-0.170876 -0.8158,-0.170876 -0.25631,0.0028 -0.42168,0.129535 -0.16261,0.124024 -0.16261,0.314193 0,0.190169 0.0827,0.286631 0.0827,0.09371 0.3142,0.148828 z"
         style="font-style:normal;font-variant:normal;font-weight:normal;font-stretch:normal;font-family:'Oxygen Mono';-inkscape-font-specification:'Oxygen Mono';fill:#ffffff;stroke-width:0.264583"
         id="path2640" />
      <path
         d="m -103.80221,-66.810654 q 0.52641,0 0.71658,-0.523654 0.10197,-0.28112 0.10197,-0.57602 0,-0.297656 -0.022,-0.46302 -0.0496,-0.374827 -0.23978,-0.611849 -0.18741,-0.237022 -0.55672,-0.237022 -0.51263,0 -0.70005,0.534678 -0.0992,0.286632 -0.0992,0.600824 0,0.556727 0.17363,0.917773 0.17363,0.35829 0.62563,0.35829 z m 0.99218,-2.356444 q 0.32798,0.440972 0.32798,1.152039 0,0.711067 -0.35554,1.152039 -0.35553,0.438216 -0.96462,0.438216 -0.32522,0 -0.57878,-0.124023 -0.25356,-0.124024 -0.41065,-0.341753 -0.31695,-0.438216 -0.31695,-1.141015 0,-0.702799 0.35002,-1.138259 0.35002,-0.438216 0.98392,-0.438216 0.63665,0 0.96462,0.440972 z"
         style="font-style:normal;font-variant:normal;font-weight:normal;font-stretch:normal;font-family:'Oxygen Mono';-inkscape-font-specification:'Oxygen Mono';fill:#ffffff;stroke-width:0.264583"
         id="path2642" />
      <path
         d="m -100.60517,-66.493706 h -0.5016 v -3.023413 h 0.41065 l 0.0413,0.559483 q 0.18466,-0.319705 0.48507,-0.485069 0.300415,-0.165365 0.680753,-0.165365 h 0.242535 v 0.465777 h -0.314193 q -0.482315,0 -0.763435,0.242534 -0.28112,0.239779 -0.28112,0.724848 z"
         style="font-style:normal;font-variant:normal;font-weight:normal;font-stretch:normal;font-family:'Oxygen Mono';-inkscape-font-specification:'Oxygen Mono';fill:#ffffff;stroke-width:0.264583"
         id="path2644" />
      <path
         d="m -97.107709,-69.131269 v 1.419378 q 0,0.264584 0.02756,0.418924 0.03032,0.15434 0.115755,0.250802 0.08819,0.09646 0.225998,0.129536 0.137804,0.03307 0.374826,0.03307 h 0.553971 l -0.02756,0.38585 h -0.507117 q -0.779969,0 -1.03904,-0.286631 -0.168121,-0.187414 -0.206706,-0.603581 -0.01929,-0.184657 -0.01929,-0.454752 v -1.292599 h -0.854383 l 0.05512,-0.38585 h 0.799261 v -1.041796 l 0.501606,-0.148828 v 1.190624 h 1.273306 v 0.38585 z"
         style="font-style:normal;font-variant:normal;font-weight:normal;font-stretch:normal;font-family:'Oxygen Mono';-inkscape-font-specification:'Oxygen Mono';fill:#ffffff;stroke-width:0.264583"
         id="path2646" />
      <path
         d="m -89.203287,-68.772979 v 0.427191 h -1.84657 v -0.427191 z"
         style="font-style:normal;font-variant:normal;font-weight:normal;font-stretch:normal;font-family:'Oxygen Mono';-inkscape-font-specification:'Oxygen Mono';fill:#ffffff;stroke-width:0.264583"
         id="path2648" />
      <path
         d="m -86.587773,-69.60807 q 0.939821,0 0.939821,1.190624 v 1.92374 h -0.501606 v -1.863106 q 0,-0.319705 -0.03307,-0.457508 -0.03307,-0.137804 -0.09922,-0.225998 -0.14056,-0.181901 -0.460265,-0.181901 -0.32246,0 -0.545702,0.187413 -0.223242,0.187413 -0.223242,0.496093 v 2.045007 h -0.501606 v -3.023413 h 0.460265 l 0.02756,0.327973 q 0.300412,-0.418924 0.937066,-0.418924 z"
         style="font-style:normal;font-variant:normal;font-weight:normal;font-stretch:normal;font-family:'Oxygen Mono';-inkscape-font-specification:'Oxygen Mono';fill:#ffffff;stroke-width:0.264583"
         id="path2650" />
      <path
         d="m -79.35859,-68.023327 q 0,-0.705555 -0.209462,-0.950846 -0.209461,-0.248046 -0.595312,-0.248046 -0.534678,0 -0.691774,0.529166 -0.08544,0.289388 -0.08544,0.697287 0,1.185112 0.777213,1.185112 0.804774,0 0.804774,-1.212673 z m 0,-1.077625 v -1.650889 l 0.501606,-0.05512 v 4.313256 h -0.501606 v -0.468532 q -0.305924,0.537434 -0.865407,0.537434 -0.63941,0 -0.931553,-0.457508 -0.289388,-0.457509 -0.289388,-1.149283 0,-0.832335 0.424435,-1.267794 0.297656,-0.308681 0.799262,-0.308681 0.341753,0 0.553971,0.14056 0.214974,0.14056 0.30868,0.366558 z"
         style="font-style:normal;font-variant:normal;font-weight:normal;font-stretch:normal;font-family:'Oxygen Mono';-inkscape-font-specification:'Oxygen Mono';fill:#ffffff;stroke-width:0.264583"
         id="path2652" />
      <path
         d="m -77.263974,-66.634266 q -0.316949,-0.212217 -0.471289,-0.567751 -0.151584,-0.35829 -0.151584,-0.80753 0,-0.44924 0.14056,-0.804773 0.143316,-0.35829 0.424435,-0.57602 0.283876,-0.220486 0.622873,-0.220486 0.639409,0 0.937065,0.438216 0.297656,0.438216 0.297656,1.077625 v 0.168121 h -1.915471 q 0.01654,0.465776 0.23151,0.790993 0.21773,0.325217 0.650434,0.325217 0.289387,-0.02756 0.807529,-0.314193 l 0.165365,0.341753 q -0.35829,0.35829 -0.978407,0.35829 -0.443728,0 -0.760676,-0.209462 z m 1.320159,-1.659156 q -0.05512,-0.928797 -0.650433,-0.928797 -0.672482,0 -0.768945,0.928797 z"
         style="font-style:normal;font-variant:normal;font-weight:normal;font-stretch:normal;font-family:'Oxygen Mono';-inkscape-font-specification:'Oxygen Mono';fill:#ffffff;stroke-width:0.264583"
         id="path2654" />
      <path
         d="m -72.140431,-66.493706 h -0.399631 q -0.531922,0 -0.760676,-0.110243 -0.132292,-0.06339 -0.209462,-0.146072 -0.203949,-0.212217 -0.212217,-0.937065 v -2.734026 h -0.903993 v -0.38585 h 1.405598 v 3.095071 q 0,0.548459 0.09922,0.672483 0.101975,0.124023 0.253559,0.143315 0.151584,0.01654 0.30868,0.01654 h 0.443728 z"
         style="font-style:normal;font-variant:normal;font-weight:normal;font-stretch:normal;font-family:'Oxygen Mono';-inkscape-font-specification:'Oxygen Mono';fill:#ffffff;stroke-width:0.264583"
         id="path2656" />
      <path
         d="m -70.536396,-68.290666 1.339452,-1.226453 h 0.633897 l -1.34772,1.254014 1.532377,1.769399 h -0.628385 l -1.259526,-1.537889 -0.270095,0.237022 v 1.300867 h -0.501606 v -4.258135 l 0.501606,-0.05512 z"
         style="font-style:normal;font-variant:normal;font-weight:normal;font-stretch:normal;font-family:'Oxygen Mono';-inkscape-font-specification:'Oxygen Mono';fill:#ffffff;stroke-width:0.264583"
         id="path2658" />
      <path
         d="m -66.454651,-67.066969 0.799262,-2.45015 h 0.548459 q -0.837847,2.364711 -0.989431,2.756074 -0.151584,0.388607 -0.206706,0.529166 -0.05512,0.14056 -0.124023,0.289388 -0.0689,0.148828 -0.162608,0.270095 -0.09371,0.124024 -0.179145,0.181901 -0.08268,0.06063 -0.264583,0.110243 -0.179145,0.05237 -0.669726,0.05237 l -0.05788,-0.42168 q 0.366558,0 0.438216,-0.01654 0.07441,-0.01654 0.14056,-0.03858 0.06615,-0.01929 0.09922,-0.04961 0.03307,-0.02756 0.08268,-0.07441 0.126779,-0.124023 0.283875,-0.631141 -0.777213,-1.785936 -1.121722,-2.656855 l -0.118511,-0.300412 h 0.542946 z"
         style="font-style:normal;font-variant:normal;font-weight:normal;font-stretch:normal;font-family:'Oxygen Mono';-inkscape-font-specification:'Oxygen Mono';fill:#ffffff;stroke-width:0.264583"
         id="path2660" />
      <path
         d="m -62.736707,-66.493706 h -0.829579 v -0.829578 h 0.829579 z"
         style="font-style:normal;font-variant:normal;font-weight:normal;font-stretch:normal;font-family:'Oxygen Mono';-inkscape-font-specification:'Oxygen Mono';fill:#ffffff;stroke-width:0.264583"
         id="path2662" />
      <path
         d="m -59.848338,-69.131269 v 1.419378 q 0,0.264584 0.02756,0.418924 0.03032,0.15434 0.115755,0.250802 0.08819,0.09646 0.225998,0.129536 0.137803,0.03307 0.374826,0.03307 h 0.553971 l -0.02756,0.38585 h -0.507118 q -0.779969,0 -1.03904,-0.286631 -0.16812,-0.187414 -0.206705,-0.603581 -0.01929,-0.184657 -0.01929,-0.454752 v -1.292599 h -0.854383 l 0.05512,-0.38585 h 0.799261 v -1.041796 l 0.501606,-0.148828 v 1.190624 h 1.273306 v 0.38585 z"
         style="font-style:normal;font-variant:normal;font-weight:normal;font-stretch:normal;font-family:'Oxygen Mono';-inkscape-font-specification:'Oxygen Mono';fill:#ffffff;stroke-width:0.264583"
         id="path2664" />
      <path
         d="m -57.632455,-69.517119 h 0.573263 l 0.719336,1.163063 0.719335,-1.163063 h 0.520898 l -0.928797,1.466231 0.96187,1.557182 h -0.556727 l -0.738628,-1.204404 -0.768945,1.204404 h -0.551214 l 0.992186,-1.543401 z"
         style="font-style:normal;font-variant:normal;font-weight:normal;font-stretch:normal;font-family:'Oxygen Mono';-inkscape-font-specification:'Oxygen Mono';fill:#ffffff;stroke-width:0.264583"
         id="path2666" />
      <path
         d="m -53.073909,-69.131269 v 1.419378 q 0,0.264584 0.02756,0.418924 0.03032,0.15434 0.115755,0.250802 0.08819,0.09646 0.225998,0.129536 0.137804,0.03307 0.374826,0.03307 h 0.553971 l -0.02756,0.38585 h -0.507117 q -0.779969,0 -1.03904,-0.286631 -0.168121,-0.187414 -0.206706,-0.603581 -0.01929,-0.184657 -0.01929,-0.454752 v -1.292599 h -0.854383 l 0.05512,-0.38585 h 0.799262 v -1.041796 l 0.501605,-0.148828 v 1.190624 h 1.273306 v 0.38585 z"
         style="font-style:normal;font-variant:normal;font-weight:normal;font-stretch:normal;font-family:'Oxygen Mono';-inkscape-font-specification:'Oxygen Mono';fill:#ffffff;stroke-width:0.264583"
         id="path2668" />
    </g>
    <path
       style="fill:none;stroke:#ff0000;stroke-width:1.05833;stroke-linecap:round;stroke-linejoin:miter;stroke-miterlimit:4;stroke-dasharray:none;stroke-opacity:1"
       d="m -95.864731,-53.799233 h 2.116667"
       id="path2005" />
    <circle
       style="fill:#afdde9;fill-opacity:1;fill-rule:evenodd;stroke:none;stroke-width:0.529167;stroke-linecap:round;stroke-linejoin:round;stroke-miterlimit:4;stroke-dasharray:none"
       id="circle2007"
       cx="-86.868896"
       cy="-51.94714"
       r="8.4666662" />
    <g
       id="g2013"
       transform="translate(-47.975147,-64.647145)"
       style="fill:#ffffff;stroke-width:1;stroke-miterlimit:4;stroke-dasharray:none;paint-order:fill markers stroke">
      <path
         style="fill:#ffffff;stroke:#000000;stroke-width:0.529167;stroke-linecap:butt;stroke-linejoin:miter;stroke-miterlimit:4;stroke-dasharray:none;stroke-opacity:1;paint-order:fill markers stroke"
         d="M -42.068749,8.7312499 V 16.66875 h 6.349999 v -6.35 l -1.5875,-1.5875 z"
         id="path2009" />
      <path
         style="fill:none;stroke:#000000;stroke-width:0.529167;stroke-linecap:butt;stroke-linejoin:miter;stroke-miterlimit:4;stroke-dasharray:none;stroke-opacity:1;paint-order:fill markers stroke"
         d="m -37.30625,8.73125 v 1.5875 h 1.5875"
         id="path2011" />
    </g>
    <path
       style="fill:none;stroke:#ff0000;stroke-width:4.23333;stroke-linecap:butt;stroke-linejoin:miter;stroke-miterlimit:4;stroke-dasharray:none;stroke-opacity:1"
       d="m -106.44806,-64.382563 c 0,8.46667 4.23333,12.7 10.583329,12.7"
       id="path2015" />
    <path
       style="fill:none;stroke:#ff0000;stroke-width:1.05833;stroke-linecap:round;stroke-linejoin:miter;stroke-miterlimit:4;stroke-dasharray:none;stroke-opacity:1"
       d="m -95.864731,-52.740893 h 2.116664"
       id="path2017" />
    <path
       style="fill:none;stroke:#ff0000;stroke-width:1.05833;stroke-linecap:round;stroke-linejoin:miter;stroke-miterlimit:4;stroke-dasharray:none;stroke-opacity:1"
       d="m -95.864731,-51.682563 h 2.116667"
       id="path2019" />
    <path
       style="fill:none;stroke:#ff0000;stroke-width:1.05833;stroke-linecap:round;stroke-linejoin:miter;stroke-miterlimit:4;stroke-dasharray:none;stroke-opacity:1"
       d="m -95.864731,-50.624223 h 2.116667"
       id="path2021" />
    <path
       style="fill:none;stroke:#ff0000;stroke-width:1.05833;stroke-linecap:round;stroke-linejoin:miter;stroke-miterlimit:4;stroke-dasharray:none;stroke-opacity:1"
       d="m -95.864731,-49.565893 h 2.116667"
       id="path2023" />
    <path
       id="path2025"
       style="fill:#0000ff;fill-rule:evenodd;stroke:none;stroke-width:0.529167;stroke-linecap:round;stroke-linejoin:round;stroke-miterlimit:4;stroke-dasharray:none"
       d="m -15.431392,-45.332563 h 5.027089 l 2.1166615,2.11667 -2.1166615,2.116661 h -5.027089 z" />
    <path
       id="path2067"
       style="fill:#00ffff;fill-rule:evenodd;stroke:none;stroke-width:0.529167;stroke-linecap:round;stroke-linejoin:round;stroke-miterlimit:4;stroke-dasharray:none"
       d="m -40.831395,-70.732553 h 6.516593 v 4.23333 h -6.516593 z" />
    <path
       id="path2027"
       style="fill:#ff0000;fill-rule:evenodd;stroke:none;stroke-width:0.529167;stroke-linecap:round;stroke-linejoin:round;stroke-miterlimit:4;stroke-dasharray:none"
       d="m -48.323019,-70.732583 h 7.491627 l 2.116667,2.11667 -2.116667,2.11666 h -7.491627 z" />
    <path
       id="path2029"
       style="fill:#b3b3b3;fill-rule:evenodd;stroke:none;stroke-width:0.529167;stroke-linecap:round;stroke-linejoin:round;stroke-miterlimit:4;stroke-dasharray:none"
       d="m 25.579027,-45.332573 h 6.51659 v 4.233331 h -6.51659 z" />
    <path
       id="path2031"
       style="fill:#0000ff;fill-rule:evenodd;stroke:none;stroke-width:0.529167;stroke-linecap:round;stroke-linejoin:round;stroke-miterlimit:4;stroke-dasharray:none"
       d="m 20.551947,-45.332573 h 5.027091 l 2.116659,2.116669 -2.116659,2.116662 h -5.027091 z" />
    <rect
       style="fill:#0000ff;fill-rule:evenodd;stroke:none;stroke-width:0.264583;stroke-linecap:round;stroke-linejoin:round"
       id="rect2033"
       width="33.866673"
       height="8.4666662"
       x="-10.404288"
       y="-47.449211"
       ry="2.1166666"
       rx="2.1166649" />
    <g
       aria-label="head -n 1"
       id="text2037"
       style="font-size:5.64444px;line-height:1.25;font-family:'Roboto Mono';-inkscape-font-specification:'Roboto Mono';text-align:center;letter-spacing:0px;word-spacing:0px;text-anchor:middle;fill:#ffffff;stroke-width:0.264583">
      <path
         d="m -5.874687,-42.918222 v 1.824522 h -0.5016055 v -1.761132 q 0,-0.567751 -0.1515841,-0.766189 -0.1515841,-0.201193 -0.4575083,-0.201193 -0.3086804,0 -0.5374345,0.214974 -0.2259981,0.212218 -0.2259981,0.457508 V -41.0937 H -8.250423 v -4.258135 l 0.5016055,-0.05512 v 1.656401 q 0.3527775,-0.457508 0.9453335,-0.457508 0.928797,0 0.928797,1.289842 z"
         style="font-style:normal;font-variant:normal;font-weight:normal;font-stretch:normal;font-family:'Oxygen Mono';-inkscape-font-specification:'Oxygen Mono';fill:#ffffff;stroke-width:0.264583"
         id="path2671" />
      <path
         d="m -4.2375788,-41.23426 q -0.3169485,-0.212218 -0.4712887,-0.567752 -0.1515841,-0.358289 -0.1515841,-0.807529 0,-0.44924 0.1405598,-0.804774 0.1433159,-0.35829 0.4244354,-0.57602 0.2838757,-0.220485 0.6228728,-0.220485 0.6394093,0 0.9370653,0.438215 0.297656,0.438216 0.297656,1.077625 v 0.168121 h -1.9154716 q 0.016536,0.465777 0.2315102,0.790993 0.2177299,0.325217 0.6504336,0.325217 0.2893878,-0.02756 0.8075297,-0.314192 l 0.1653645,0.341753 q -0.3582897,0.358289 -0.9784064,0.358289 -0.443728,0 -0.7606765,-0.209461 z m 1.3201596,-1.659157 q -0.055122,-0.928797 -0.6504335,-0.928797 -0.6724822,0 -0.7689448,0.928797 z"
         style="font-style:normal;font-variant:normal;font-weight:normal;font-stretch:normal;font-family:'Oxygen Mono';-inkscape-font-specification:'Oxygen Mono';fill:#ffffff;stroke-width:0.264583"
         id="path2673" />
      <path
         d="m 0.36230927,-41.768939 v -0.7717 l -0.41065507,0.05788 q -0.4299476,0.06063 -0.59531205,0.121267 -0.36931395,0.14056 -0.36931395,0.471289 0,0.228754 0.13229156,0.363802 0.13229156,0.135048 0.3638018,0.135048 0.50987375,0 0.87918771,-0.377583 z m 0,-1.408354 q 0,-0.647677 -0.54845879,-0.647677 -0.25907098,0 -0.57326345,0.06063 -0.31143643,0.06063 -0.43821583,0.115755 L -1.31614,-44.017895 q 0.5705074,-0.190169 1.07211292,-0.190169 0.50160552,0 0.8047737,0.228754 0.30316817,0.228754 0.30316817,0.705555 V -41.0937 H 0.44774757 l -0.0661458,-0.350022 q -0.17638876,0.179145 -0.45475226,0.300412 -0.27560743,0.118511 -0.54019057,0.118511 -0.38309432,0 -0.63665316,-0.228754 -0.2535588,-0.23151 -0.2535588,-0.650433 0,-0.42168 0.3307289,-0.617361 0.223242,-0.137804 0.47404476,-0.187413 0.25355884,-0.05237 0.65870176,-0.101975 l 0.40238685,-0.04685 z"
         style="font-style:normal;font-variant:normal;font-weight:normal;font-stretch:normal;font-family:'Oxygen Mono';-inkscape-font-specification:'Oxygen Mono';fill:#ffffff;stroke-width:0.264583"
         id="path2675" />
      <path
         d="m 3.8294506,-42.623322 q 0,-0.705555 -0.2094617,-0.950845 -0.2094616,-0.248047 -0.595312,-0.248047 -0.5346785,0 -0.6917747,0.529166 -0.085438,0.289388 -0.085438,0.697287 0,1.185112 0.777213,1.185112 0.8047737,0 0.8047737,-1.212673 z m 0,-1.077625 v -1.650888 l 0.5016055,-0.05512 V -41.0937 H 3.8294506 v -0.468533 q -0.3059243,0.537434 -0.8654074,0.537434 -0.6394092,0 -0.9315531,-0.457508 -0.2893878,-0.457508 -0.2893878,-1.149283 0,-0.832334 0.4244355,-1.267794 0.297656,-0.30868 0.7992615,-0.30868 0.3417532,0 0.5539709,0.140559 0.2149738,0.14056 0.3086804,0.366558 z"
         style="font-style:normal;font-variant:normal;font-weight:normal;font-stretch:normal;font-family:'Oxygen Mono';-inkscape-font-specification:'Oxygen Mono';fill:#ffffff;stroke-width:0.264583"
         id="path2677" />
      <path
         d="m 10.92083,-43.372974 v 0.427192 H 9.0742605 v -0.427192 z"
         style="font-style:normal;font-variant:normal;font-weight:normal;font-stretch:normal;font-family:'Oxygen Mono';-inkscape-font-specification:'Oxygen Mono';fill:#ffffff;stroke-width:0.264583"
         id="path2679" />
      <path
         d="m 13.536344,-44.208064 q 0.939822,0 0.939822,1.190624 v 1.92374 H 13.97456 v -1.863107 q 0,-0.319704 -0.03307,-0.457508 -0.03307,-0.137804 -0.09922,-0.225998 -0.140559,-0.181901 -0.460264,-0.181901 -0.322461,0 -0.545703,0.187413 -0.223242,0.187413 -0.223242,0.496093 v 2.045008 h -0.501605 v -3.023414 h 0.460264 l 0.02756,0.327973 q 0.300412,-0.418923 0.937065,-0.418923 z"
         style="font-style:normal;font-variant:normal;font-weight:normal;font-stretch:normal;font-family:'Oxygen Mono';-inkscape-font-specification:'Oxygen Mono';fill:#ffffff;stroke-width:0.264583"
         id="path2681" />
      <path
         d="m 18.998884,-44.640768 q 0.377582,-0.15434 0.926041,-0.564995 h 0.518142 v 3.709676 h 0.865407 V -41.0937 H 19.00164 v -0.402387 h 0.926041 v -3.152949 q -0.07717,0.0441 -0.38585,0.23151 -0.308681,0.184657 -0.542947,0.275607 z"
         style="font-style:normal;font-variant:normal;font-weight:normal;font-stretch:normal;font-family:'Oxygen Mono';-inkscape-font-specification:'Oxygen Mono';fill:#ffffff;stroke-width:0.264583"
         id="path2683" />
    </g>
    <circle
       style="fill:#b3b3b3;fill-rule:evenodd;stroke:none;stroke-width:0.529167;stroke-linecap:round;stroke-linejoin:round;stroke-miterlimit:4;stroke-dasharray:none"
       id="circle2039"
       cx="36.162373"
       cy="-43.215893"
       r="8.4666662" />
    <rect
       style="fill:#000000;fill-rule:evenodd;stroke-width:0.264583;stroke-linecap:round;stroke-linejoin:round"
       id="rect2041"
       width="10.583334"
       height="6.3499999"
       x="30.870686"
       y="-47.184643"
       rx="0.26458246"
       ry="0.26458395" />
    <rect
       style="fill:#ffffff;fill-rule:evenodd;stroke-width:0.264583;stroke-linecap:round;stroke-linejoin:round"
       id="rect2043"
       width="9.5250025"
       height="5.291666"
       x="31.399853"
       y="-46.655483" />
    <rect
       style="fill:#000000;fill-rule:evenodd;stroke-width:0.264583;stroke-linecap:round;stroke-linejoin:round"
       id="rect2045"
       width="4.2333341"
       height="1.0583335"
       x="34.045689"
       y="-40.305477"
       rx="0.26458246"
       ry="0.26458395" />
    <rect
       style="fill:#000000;fill-rule:evenodd;stroke-width:0.264583;stroke-linecap:round;stroke-linejoin:round"
       id="rect2047"
       width="0.79374939"
       height="1.3229171"
       x="35.76548"
       y="-41.099239"
       rx="0.26458246"
       ry="0.26458395" />
    <circle
       style="fill:#00ffff;fill-opacity:1;fill-rule:evenodd;stroke:none;stroke-width:0.529167;stroke-linecap:round;stroke-linejoin:round;stroke-miterlimit:4;stroke-dasharray:none"
       id="circle2051"
       cx="-28.13139"
       cy="-68.615883"
       r="8.4666662" />
    <g
       id="g2057"
       transform="translate(10.762356,-81.315895)"
       style="fill:#ffffff;stroke-width:1;stroke-miterlimit:4;stroke-dasharray:none;paint-order:fill markers stroke">
      <path
         style="fill:#ffffff;stroke:#000000;stroke-width:0.529167;stroke-linecap:butt;stroke-linejoin:miter;stroke-miterlimit:4;stroke-dasharray:none;stroke-opacity:1;paint-order:fill markers stroke"
         d="M -42.068749,8.7312499 V 16.66875 h 6.349999 v -6.35 l -1.5875,-1.5875 z"
         id="path2053" />
      <path
         style="fill:none;stroke:#000000;stroke-width:0.529167;stroke-linecap:butt;stroke-linejoin:miter;stroke-miterlimit:4;stroke-dasharray:none;stroke-opacity:1;paint-order:fill markers stroke"
         d="m -37.30625,8.73125 v 1.5875 h 1.5875"
         id="path2055" />
    </g>
    <path
       id="path2069"
       style="fill:#00ffff;fill-rule:evenodd;stroke:none;stroke-width:0.529167;stroke-linecap:round;stroke-linejoin:round;stroke-miterlimit:4;stroke-dasharray:none"
       d="m -21.781392,-45.332563 h 6.35 l 2.116659,2.116659 -2.116659,2.116672 h -6.35 z" />
    <circle
       style="fill:#00ffff;fill-opacity:1;fill-rule:evenodd;stroke:none;stroke-width:0.529167;stroke-linecap:round;stroke-linejoin:round;stroke-miterlimit:4;stroke-dasharray:none"
       id="circle2071"
       cx="-28.13139"
       cy="-43.215893"
       r="8.4666662" />
    <g
       id="g2077"
       transform="translate(10.762345,-55.915905)"
       style="fill:#ffffff;stroke-width:1;stroke-miterlimit:4;stroke-dasharray:none;paint-order:fill markers stroke">
      <path
         style="fill:#ffffff;stroke:#000000;stroke-width:0.529167;stroke-linecap:butt;stroke-linejoin:miter;stroke-miterlimit:4;stroke-dasharray:none;stroke-opacity:1;paint-order:fill markers stroke"
         d="M -42.068749,8.7312499 V 16.66875 h 6.349999 v -6.35 l -1.5875,-1.5875 z"
         id="path2073" />
      <path
         style="fill:none;stroke:#000000;stroke-width:0.529167;stroke-linecap:butt;stroke-linejoin:miter;stroke-miterlimit:4;stroke-dasharray:none;stroke-opacity:1;paint-order:fill markers stroke"
         d="m -37.30625,8.73125 v 1.5875 h 1.5875"
         id="path2075" />
    </g>
  </g>
</svg>
