<?xml version="1.0" encoding="UTF-8" standalone="no"?>
<svg
   xmlns:dc="http://purl.org/dc/elements/1.1/"
   xmlns:cc="http://creativecommons.org/ns#"
   xmlns:rdf="http://www.w3.org/1999/02/22-rdf-syntax-ns#"
   xmlns:svg="http://www.w3.org/2000/svg"
   xmlns="http://www.w3.org/2000/svg"
   width="156.63333mm"
   height="33.602097mm"
   viewBox="0 0 156.63333 33.602096"
   version="1.1"
   id="svg8">
  <defs
     id="defs2" />
  <metadata
     id="metadata5">
    <rdf:RDF>
      <cc:Work
         rdf:about="">
        <dc:format>image/svg+xml</dc:format>
        <dc:type
           rdf:resource="http://purl.org/dc/dcmitype/StillImage" />
        <dc:title></dc:title>
      </cc:Work>
    </rdf:RDF>
  </metadata>
  <path
     id="path1647"
     style="fill:#cccccc;fill-rule:evenodd;stroke:none;stroke-width:0.529167;stroke-linecap:round;stroke-linejoin:round;stroke-miterlimit:4;stroke-dasharray:none"
     d="M 11.55837,6.350013 H 19.05 L 21.16667,8.466684 19.05,10.583343 h -7.49163 z" />
  <circle
     style="fill:#cccccc;fill-rule:evenodd;stroke:none;stroke-width:0.529167;stroke-linecap:round;stroke-linejoin:round;stroke-miterlimit:4;stroke-dasharray:none"
     id="circle1649"
     cx="8.4666634"
     cy="8.4666815"
     r="8.4666662" />
  <g
     id="g1777"
     transform="translate(19.05,-6.087838)">
    <rect
       style="fill:#000000;fill-rule:evenodd;stroke-width:0.264583;stroke-linecap:round;stroke-linejoin:round"
       id="rect1651"
       width="12.700002"
       height="4.7576265"
       x="-16.933334"
       y="12.175707"
       rx="0.26458246"
       ry="0.26458395" />
    <rect
       style="fill:#ffffff;fill-rule:evenodd;stroke-width:0.264583;stroke-linecap:round;stroke-linejoin:round"
       id="rect1653"
       width="0.79375082"
       height="0.52916634"
       x="-16.404167"
       y="15.879875" />
    <rect
       style="fill:#ffffff;fill-rule:evenodd;stroke-width:0.264582;stroke-linecap:round;stroke-linejoin:round"
       id="rect1655"
       width="0.52916741"
       height="0.529167"
       x="-16.404167"
       y="15.086124" />
    <rect
       style="fill:#ffffff;fill-rule:evenodd;stroke-width:0.264584;stroke-linecap:round;stroke-linejoin:round"
       id="rect1657"
       width="0.79375166"
       height="0.52916574"
       x="-16.404167"
       y="13.498623" />
    <rect
       style="fill:#ffffff;fill-rule:evenodd;stroke-width:0.264582;stroke-linecap:round;stroke-linejoin:round"
       id="rect1659"
       width="1.0583334"
       height="0.51828963"
       x="-16.404167"
       y="14.303251" />
    <rect
       style="fill:#ffffff;fill-rule:evenodd;stroke-width:0.264583;stroke-linecap:round;stroke-linejoin:round"
       id="rect1661"
       width="0.52916664"
       height="0.51868218"
       x="-16.404167"
       y="12.704874" />
    <rect
       style="fill:#ffffff;fill-rule:evenodd;stroke-width:0.264583;stroke-linecap:round;stroke-linejoin:round"
       id="rect1663"
       width="0.52916664"
       height="0.51868218"
       x="-15.610417"
       y="12.715359" />
    <rect
       style="fill:#ffffff;fill-rule:evenodd;stroke-width:0.264583;stroke-linecap:round;stroke-linejoin:round"
       id="rect1665"
       width="0.52916664"
       height="0.51868218"
       x="-14.816667"
       y="12.715359" />
    <rect
       style="fill:#ffffff;fill-rule:evenodd;stroke-width:0.264583;stroke-linecap:round;stroke-linejoin:round"
       id="rect1667"
       width="0.52916664"
       height="0.51868218"
       x="-14.022917"
       y="12.715359" />
    <rect
       style="fill:#ffffff;fill-rule:evenodd;stroke-width:0.264583;stroke-linecap:round;stroke-linejoin:round"
       id="rect1669"
       width="0.52916664"
       height="0.51868218"
       x="-13.229167"
       y="12.704874" />
    <rect
       style="fill:#ffffff;fill-rule:evenodd;stroke-width:0.264583;stroke-linecap:round;stroke-linejoin:round"
       id="rect1671"
       width="0.52916664"
       height="0.51868218"
       x="-12.435416"
       y="12.704874" />
    <rect
       style="fill:#ffffff;fill-rule:evenodd;stroke-width:0.264583;stroke-linecap:round;stroke-linejoin:round"
       id="rect1673"
       width="0.52916664"
       height="0.52916652"
       x="-11.641667"
       y="12.704876" />
    <rect
       style="fill:#ffffff;fill-rule:evenodd;stroke-width:0.264583;stroke-linecap:round;stroke-linejoin:round"
       id="rect1675"
       width="0.52916664"
       height="0.52916652"
       x="-10.847917"
       y="12.704876" />
    <rect
       style="fill:#ffffff;fill-rule:evenodd;stroke-width:0.264583;stroke-linecap:round;stroke-linejoin:round"
       id="rect1677"
       width="0.52916664"
       height="0.51868218"
       x="-10.054166"
       y="12.704874" />
    <rect
       style="fill:#ffffff;fill-rule:evenodd;stroke-width:0.264583;stroke-linecap:round;stroke-linejoin:round"
       id="rect1679"
       width="0.52916664"
       height="0.52916652"
       x="-9.260417"
       y="12.704876" />
    <rect
       style="fill:#ffffff;fill-rule:evenodd;stroke-width:0.264583;stroke-linecap:round;stroke-linejoin:round"
       id="rect1681"
       width="0.52916664"
       height="0.51868218"
       x="-8.4666681"
       y="12.704874" />
    <rect
       style="fill:#ffffff;fill-rule:evenodd;stroke-width:0.264583;stroke-linecap:round;stroke-linejoin:round"
       id="rect1683"
       width="0.52916664"
       height="0.52916652"
       x="-7.6729169"
       y="12.704876" />
    <rect
       style="fill:#ffffff;fill-rule:evenodd;stroke-width:0.264583;stroke-linecap:round;stroke-linejoin:round"
       id="rect1685"
       width="0.52916664"
       height="0.52916652"
       x="-6.8791661"
       y="12.704876" />
    <rect
       style="fill:#ffffff;fill-rule:evenodd;stroke-width:0.264584;stroke-linecap:round;stroke-linejoin:round"
       id="rect1687"
       width="1.3229179"
       height="0.52916652"
       x="-6.0854173"
       y="12.704876" />
    <rect
       style="fill:#ffffff;fill-rule:evenodd;stroke-width:0.264583;stroke-linecap:round;stroke-linejoin:round"
       id="rect1689"
       width="0.52916664"
       height="0.51868218"
       x="-15.345833"
       y="13.509109" />
    <rect
       style="fill:#ffffff;fill-rule:evenodd;stroke-width:0.264583;stroke-linecap:round;stroke-linejoin:round"
       id="rect1691"
       width="0.52916664"
       height="0.51868218"
       x="-14.552081"
       y="13.509109" />
    <rect
       style="fill:#ffffff;fill-rule:evenodd;stroke-width:0.264583;stroke-linecap:round;stroke-linejoin:round"
       id="rect1693"
       width="0.52916664"
       height="0.51868218"
       x="-13.758332"
       y="13.509109" />
    <rect
       style="fill:#ffffff;fill-rule:evenodd;stroke-width:0.264583;stroke-linecap:round;stroke-linejoin:round"
       id="rect1695"
       width="0.52916664"
       height="0.51868218"
       x="-12.964582"
       y="13.498625" />
    <rect
       style="fill:#ffffff;fill-rule:evenodd;stroke-width:0.264583;stroke-linecap:round;stroke-linejoin:round"
       id="rect1697"
       width="0.52916664"
       height="0.51868218"
       x="-12.170831"
       y="13.498625" />
    <rect
       style="fill:#ffffff;fill-rule:evenodd;stroke-width:0.264583;stroke-linecap:round;stroke-linejoin:round"
       id="rect1699"
       width="0.52916664"
       height="0.52916723"
       x="-11.377084"
       y="13.498623" />
    <rect
       style="fill:#ffffff;fill-rule:evenodd;stroke-width:0.264583;stroke-linecap:round;stroke-linejoin:round"
       id="rect1701"
       width="0.52916664"
       height="0.52916723"
       x="-10.583331"
       y="13.498623" />
    <rect
       style="fill:#ffffff;fill-rule:evenodd;stroke-width:0.264583;stroke-linecap:round;stroke-linejoin:round"
       id="rect1703"
       width="0.52916664"
       height="0.51868218"
       x="-9.7895823"
       y="13.498625" />
    <rect
       style="fill:#ffffff;fill-rule:evenodd;stroke-width:0.264583;stroke-linecap:round;stroke-linejoin:round"
       id="rect1705"
       width="0.52916664"
       height="0.52916723"
       x="-8.9958334"
       y="13.498623" />
    <rect
       style="fill:#ffffff;fill-rule:evenodd;stroke-width:0.264583;stroke-linecap:round;stroke-linejoin:round"
       id="rect1707"
       width="0.52916664"
       height="0.52916598"
       x="-8.2020845"
       y="13.498625" />
    <rect
       style="fill:#ffffff;fill-rule:evenodd;stroke-width:0.264583;stroke-linecap:round;stroke-linejoin:round"
       id="rect1709"
       width="0.52916664"
       height="0.52916723"
       x="-7.4083333"
       y="13.498623" />
    <rect
       style="fill:#ffffff;fill-rule:evenodd;stroke-width:0.264583;stroke-linecap:round;stroke-linejoin:round"
       id="rect1711"
       width="0.52916664"
       height="0.52916723"
       x="-6.6145825"
       y="13.498623" />
    <rect
       style="fill:#ffffff;fill-rule:evenodd;stroke-width:0.264583;stroke-linecap:round;stroke-linejoin:round"
       id="rect1713"
       width="0.52916664"
       height="0.51868218"
       x="-15.08125"
       y="14.302858" />
    <rect
       style="fill:#ffffff;fill-rule:evenodd;stroke-width:0.264583;stroke-linecap:round;stroke-linejoin:round"
       id="rect1715"
       width="0.52916664"
       height="0.51868218"
       x="-14.287499"
       y="14.302858" />
    <rect
       style="fill:#ffffff;fill-rule:evenodd;stroke-width:0.264583;stroke-linecap:round;stroke-linejoin:round"
       id="rect1717"
       width="0.52916664"
       height="0.51868218"
       x="-13.49375"
       y="14.302858" />
    <rect
       style="fill:#ffffff;fill-rule:evenodd;stroke-width:0.264583;stroke-linecap:round;stroke-linejoin:round"
       id="rect1719"
       width="0.52916664"
       height="0.51868218"
       x="-12.7"
       y="14.292375" />
    <rect
       style="fill:#ffffff;fill-rule:evenodd;stroke-width:0.264583;stroke-linecap:round;stroke-linejoin:round"
       id="rect1721"
       width="0.52916664"
       height="0.51868218"
       x="-11.906249"
       y="14.292375" />
    <rect
       style="fill:#ffffff;fill-rule:evenodd;stroke-width:0.264583;stroke-linecap:round;stroke-linejoin:round"
       id="rect1723"
       width="0.52916664"
       height="0.5291661"
       x="-11.1125"
       y="14.292375" />
    <rect
       style="fill:#ffffff;fill-rule:evenodd;stroke-width:0.264583;stroke-linecap:round;stroke-linejoin:round"
       id="rect1725"
       width="0.52916664"
       height="0.5291661"
       x="-10.318749"
       y="14.292375" />
    <rect
       style="fill:#ffffff;fill-rule:evenodd;stroke-width:0.264583;stroke-linecap:round;stroke-linejoin:round"
       id="rect1727"
       width="0.52916664"
       height="0.51868218"
       x="-9.5249987"
       y="14.292375" />
    <rect
       style="fill:#ffffff;fill-rule:evenodd;stroke-width:0.264583;stroke-linecap:round;stroke-linejoin:round"
       id="rect1729"
       width="0.52916664"
       height="0.5291661"
       x="-8.7312498"
       y="14.292375" />
    <rect
       style="fill:#ffffff;fill-rule:evenodd;stroke-width:0.264583;stroke-linecap:round;stroke-linejoin:round"
       id="rect1731"
       width="0.52916664"
       height="0.51868141"
       x="-7.937501"
       y="14.292375" />
    <rect
       style="fill:#ffffff;fill-rule:evenodd;stroke-width:0.264583;stroke-linecap:round;stroke-linejoin:round"
       id="rect1733"
       width="0.52916664"
       height="0.52916533"
       x="-7.1437497"
       y="14.292375" />
    <rect
       style="fill:#ffffff;fill-rule:evenodd;stroke-width:0.264583;stroke-linecap:round;stroke-linejoin:round"
       id="rect1735"
       width="0.52916664"
       height="0.52916533"
       x="-6.3500009"
       y="14.292375" />
    <rect
       style="fill:#ffffff;fill-rule:evenodd;stroke-width:0.264583;stroke-linecap:round;stroke-linejoin:round"
       id="rect1737"
       width="0.52916664"
       height="0.52916688"
       x="-14.816667"
       y="15.086124" />
    <rect
       style="fill:#ffffff;fill-rule:evenodd;stroke-width:0.264583;stroke-linecap:round;stroke-linejoin:round"
       id="rect1739"
       width="0.52916664"
       height="0.52916855"
       x="-14.022916"
       y="15.086124" />
    <rect
       style="fill:#ffffff;fill-rule:evenodd;stroke-width:0.264583;stroke-linecap:round;stroke-linejoin:round"
       id="rect1741"
       width="0.52916664"
       height="0.52916688"
       x="-13.229166"
       y="15.086124" />
    <rect
       style="fill:#ffffff;fill-rule:evenodd;stroke-width:0.264583;stroke-linecap:round;stroke-linejoin:round"
       id="rect1743"
       width="0.52916664"
       height="0.51868218"
       x="-12.435416"
       y="15.086124" />
    <rect
       style="fill:#ffffff;fill-rule:evenodd;stroke-width:0.264583;stroke-linecap:round;stroke-linejoin:round"
       id="rect1745"
       width="0.52916664"
       height="0.51868218"
       x="-11.641665"
       y="15.086124" />
    <rect
       style="fill:#ffffff;fill-rule:evenodd;stroke-width:0.264583;stroke-linecap:round;stroke-linejoin:round"
       id="rect1747"
       width="0.52916664"
       height="0.52916688"
       x="-10.847917"
       y="15.086124" />
    <rect
       style="fill:#ffffff;fill-rule:evenodd;stroke-width:0.264583;stroke-linecap:round;stroke-linejoin:round"
       id="rect1749"
       width="0.52916664"
       height="0.52916688"
       x="-10.054166"
       y="15.086124" />
    <rect
       style="fill:#ffffff;fill-rule:evenodd;stroke-width:0.264583;stroke-linecap:round;stroke-linejoin:round"
       id="rect1751"
       width="0.52916664"
       height="0.51868218"
       x="-9.2604151"
       y="15.086124" />
    <rect
       style="fill:#ffffff;fill-rule:evenodd;stroke-width:0.264583;stroke-linecap:round;stroke-linejoin:round"
       id="rect1753"
       width="0.52916664"
       height="0.52916688"
       x="-8.4666662"
       y="15.086124" />
    <rect
       style="fill:#ffffff;fill-rule:evenodd;stroke-width:0.264583;stroke-linecap:round;stroke-linejoin:round"
       id="rect1755"
       width="0.52916664"
       height="0.51868218"
       x="-7.6729169"
       y="15.086124" />
    <rect
       style="fill:#ffffff;fill-rule:evenodd;stroke-width:0.264583;stroke-linecap:round;stroke-linejoin:round"
       id="rect1757"
       width="0.52916664"
       height="0.52916688"
       x="-15.610417"
       y="15.086124" />
    <rect
       style="fill:#ffffff;fill-rule:evenodd;stroke-width:0.264583;stroke-linecap:round;stroke-linejoin:round"
       id="rect1759"
       width="0.79374981"
       height="0.52916825"
       x="-14.552081"
       y="15.879871" />
    <rect
       style="fill:#ffffff;fill-rule:evenodd;stroke-width:0.264584;stroke-linecap:round;stroke-linejoin:round"
       id="rect1761"
       width="2.1166651"
       height="0.52916688"
       x="-6.8791642"
       y="15.086124" />
    <rect
       style="fill:#ffffff;fill-rule:evenodd;stroke-width:0.264583;stroke-linecap:round;stroke-linejoin:round"
       id="rect1763"
       width="0.79374945"
       height="1.3229165"
       x="-5.5562501"
       y="13.498625" />
    <rect
       style="fill:#ffffff;fill-rule:evenodd;stroke-width:0.264583;stroke-linecap:round;stroke-linejoin:round"
       id="rect1765"
       width="0.52916664"
       height="0.52916723"
       x="-5.8208337"
       y="13.498623" />
    <rect
       style="fill:#ffffff;fill-rule:evenodd;stroke-width:0.264583;stroke-linecap:round;stroke-linejoin:round"
       id="rect1767"
       width="0.79375082"
       height="0.52916747"
       x="-7.4083333"
       y="15.879873" />
    <rect
       style="fill:#ffffff;fill-rule:evenodd;stroke-width:0.264583;stroke-linecap:round;stroke-linejoin:round"
       id="rect1769"
       width="0.79374981"
       height="0.5291701"
       x="-5.5562482"
       y="15.879873" />
    <rect
       style="fill:#ffffff;fill-rule:evenodd;stroke-width:0.264584;stroke-linecap:round;stroke-linejoin:round"
       id="rect1771"
       width="5.8208337"
       height="0.52916574"
       x="-13.493751"
       y="15.879875" />
    <rect
       style="fill:#ffffff;fill-rule:evenodd;stroke-width:0.264583;stroke-linecap:round;stroke-linejoin:round"
       id="rect1773"
       width="0.52916664"
       height="0.51868218"
       x="-6.3500009"
       y="15.890358" />
    <rect
       style="fill:#ffffff;fill-rule:evenodd;stroke-width:0.264583;stroke-linecap:round;stroke-linejoin:round"
       id="rect1775"
       width="0.52916664"
       height="0.52916688"
       x="-15.345833"
       y="15.879873" />
  </g>
  <rect
     style="fill:#ff0000;fill-rule:evenodd;stroke:none;stroke-width:0.264583;stroke-linecap:round;stroke-linejoin:round"
     id="rect1779"
     width="69.849998"
     height="8.4666662"
     x="23.283329"
     y="4.2333446"
     ry="2.1166666"
     rx="2.1166649" />
  <g
     aria-label="sort -n delky.txt"
     id="text1783"
     style="font-size:5.64444px;line-height:1.25;font-family:'Roboto Mono';-inkscape-font-specification:'Roboto Mono';text-align:center;letter-spacing:0px;word-spacing:0px;text-anchor:middle;fill:#ffffff;stroke-width:0.264583"
     transform="translate(233.90163,88.818725)">
    <path
       d="m -202.51818,-79.9469 q 0.39136,0.09646 0.57051,0.305924 0.1819,0.209462 0.1819,0.606336 0,0.394119 -0.30317,0.633897 -0.30041,0.239779 -0.75516,0.239779 -0.32522,0 -0.63114,-0.07993 -0.30593,-0.08268 -0.452,-0.192926 l 0.12402,-0.361045 q 0.11576,0.07166 0.36656,0.146072 0.2508,0.07166 0.54295,0.07166 0.2949,0 0.46853,-0.121268 0.17639,-0.124023 0.17639,-0.327973 0,-0.203949 -0.0882,-0.319704 -0.0854,-0.118511 -0.33349,-0.179145 l -0.51263,-0.124023 q -0.44373,-0.110243 -0.5898,-0.319705 -0.14607,-0.212218 -0.14607,-0.52641 0,-0.314193 0.25356,-0.578776 0.25631,-0.264583 0.74414,-0.270095 h 0.0358 q 0.54846,0 0.93431,0.206706 l -0.11025,0.352777 q -0.40238,-0.170877 -0.81579,-0.170877 -0.25632,0.0028 -0.42168,0.129536 -0.16261,0.124023 -0.16261,0.314192 0,0.19017 0.0827,0.286632 0.0827,0.09371 0.31419,0.148828 z"
       style="font-style:normal;font-variant:normal;font-weight:normal;font-stretch:normal;font-family:'Oxygen Mono';-inkscape-font-specification:'Oxygen Mono';fill:#ffffff;stroke-width:0.264583"
       id="path1712" />
    <path
       d="m -199.50579,-78.546815 q 0.52641,0 0.71658,-0.523654 0.10198,-0.281119 0.10198,-0.576019 0,-0.297656 -0.0221,-0.463021 -0.0496,-0.374826 -0.23978,-0.611848 -0.18741,-0.237023 -0.55673,-0.237023 -0.51263,0 -0.70004,0.534679 -0.0992,0.286632 -0.0992,0.600824 0,0.556727 0.17363,0.917773 0.17364,0.358289 0.62563,0.358289 z m 0.99219,-2.356443 q 0.32797,0.440972 0.32797,1.152039 0,0.711067 -0.35553,1.152039 -0.35554,0.438216 -0.96463,0.438216 -0.32522,0 -0.57877,-0.124024 -0.25356,-0.124023 -0.41066,-0.341753 -0.31695,-0.438216 -0.31695,-1.141014 0,-0.702799 0.35002,-1.138259 0.35003,-0.438216 0.98392,-0.438216 0.63666,0 0.96463,0.440972 z"
       style="font-style:normal;font-variant:normal;font-weight:normal;font-stretch:normal;font-family:'Oxygen Mono';-inkscape-font-specification:'Oxygen Mono';fill:#ffffff;stroke-width:0.264583"
       id="path1714" />
    <path
       d="m -196.30874,-78.229866 h -0.50161 v -3.023414 h 0.41066 l 0.0413,0.559484 q 0.18466,-0.319705 0.48507,-0.48507 0.30041,-0.165364 0.68075,-0.165364 h 0.24253 v 0.465777 h -0.31419 q -0.48231,0 -0.76343,0.242534 -0.28112,0.239779 -0.28112,0.724848 z"
       style="font-style:normal;font-variant:normal;font-weight:normal;font-stretch:normal;font-family:'Oxygen Mono';-inkscape-font-specification:'Oxygen Mono';fill:#ffffff;stroke-width:0.264583"
       id="path1716" />
    <path
       d="m -192.81128,-80.867429 v 1.419378 q 0,0.264583 0.0276,0.418923 0.0303,0.154341 0.11575,0.250803 0.0882,0.09646 0.226,0.129536 0.1378,0.03307 0.37483,0.03307 h 0.55397 l -0.0276,0.38585 h -0.50712 q -0.77997,0 -1.03904,-0.286632 -0.16812,-0.187413 -0.20671,-0.60358 -0.0193,-0.184657 -0.0193,-0.454752 v -1.292599 h -0.85438 l 0.0551,-0.385851 h 0.79926 v -1.041796 l 0.50161,-0.148828 v 1.190624 h 1.2733 v 0.385851 z"
       style="font-style:normal;font-variant:normal;font-weight:normal;font-stretch:normal;font-family:'Oxygen Mono';-inkscape-font-specification:'Oxygen Mono';fill:#ffffff;stroke-width:0.264583"
       id="path1718" />
    <path
       d="m -184.90686,-80.509139 v 0.427191 h -1.84657 v -0.427191 z"
       style="font-style:normal;font-variant:normal;font-weight:normal;font-stretch:normal;font-family:'Oxygen Mono';-inkscape-font-specification:'Oxygen Mono';fill:#ffffff;stroke-width:0.264583"
       id="path1720" />
    <path
       d="m -182.29135,-81.34423 q 0.93982,0 0.93982,1.190624 v 1.92374 h -0.5016 v -1.863106 q 0,-0.319705 -0.0331,-0.457509 -0.0331,-0.137803 -0.0992,-0.225998 -0.14056,-0.181901 -0.46027,-0.181901 -0.32246,0 -0.5457,0.187413 -0.22324,0.187414 -0.22324,0.496094 v 2.045007 h -0.50161 v -3.023414 h 0.46027 l 0.0276,0.327973 q 0.30041,-0.418923 0.93706,-0.418923 z"
       style="font-style:normal;font-variant:normal;font-weight:normal;font-stretch:normal;font-family:'Oxygen Mono';-inkscape-font-specification:'Oxygen Mono';fill:#ffffff;stroke-width:0.264583"
       id="path1722" />
    <path
       d="m -175.06217,-79.759487 q 0,-0.705555 -0.20946,-0.950846 -0.20946,-0.248047 -0.59531,-0.248047 -0.53468,0 -0.69177,0.529167 -0.0854,0.289387 -0.0854,0.697286 0,1.185112 0.77721,1.185112 0.80477,0 0.80477,-1.212672 z m 0,-1.077625 v -1.650889 l 0.50161,-0.05512 v 4.313256 h -0.50161 v -0.468533 q -0.30592,0.537435 -0.8654,0.537435 -0.63941,0 -0.93156,-0.457509 -0.28938,-0.457508 -0.28938,-1.149282 0,-0.832335 0.42443,-1.267795 0.29766,-0.30868 0.79926,-0.30868 0.34176,0 0.55397,0.14056 0.21498,0.14056 0.30868,0.366557 z"
       style="font-style:normal;font-variant:normal;font-weight:normal;font-stretch:normal;font-family:'Oxygen Mono';-inkscape-font-specification:'Oxygen Mono';fill:#ffffff;stroke-width:0.264583"
       id="path1724" />
    <path
       d="m -172.96755,-78.370426 q -0.31695,-0.212218 -0.47129,-0.567751 -0.15158,-0.35829 -0.15158,-0.80753 0,-0.44924 0.14056,-0.804774 0.14331,-0.358289 0.42443,-0.576019 0.28388,-0.220486 0.62288,-0.220486 0.63941,0 0.93706,0.438216 0.29766,0.438216 0.29766,1.077625 v 0.16812 h -1.91547 q 0.0165,0.465777 0.23151,0.790994 0.21773,0.325216 0.65043,0.325216 0.28939,-0.02756 0.80753,-0.314192 l 0.16536,0.341753 q -0.35829,0.35829 -0.9784,0.35829 -0.44373,0 -0.76068,-0.209462 z m 1.32016,-1.659157 q -0.0551,-0.928797 -0.65043,-0.928797 -0.67249,0 -0.76895,0.928797 z"
       style="font-style:normal;font-variant:normal;font-weight:normal;font-stretch:normal;font-family:'Oxygen Mono';-inkscape-font-specification:'Oxygen Mono';fill:#ffffff;stroke-width:0.264583"
       id="path1726" />
    <path
       d="m -167.84401,-78.229866 h -0.39963 q -0.53192,0 -0.76067,-0.110243 -0.13229,-0.06339 -0.20946,-0.146072 -0.20395,-0.212218 -0.21222,-0.937065 v -2.734026 h -0.90399 v -0.38585 h 1.40559 v 3.095071 q 0,0.548459 0.0992,0.672482 0.10198,0.124024 0.25356,0.143316 0.15158,0.01654 0.30868,0.01654 h 0.44373 z"
       style="font-style:normal;font-variant:normal;font-weight:normal;font-stretch:normal;font-family:'Oxygen Mono';-inkscape-font-specification:'Oxygen Mono';fill:#ffffff;stroke-width:0.264583"
       id="path1728" />
    <path
       d="m -166.23997,-80.026826 1.33945,-1.226454 h 0.6339 l -1.34772,1.254014 1.53237,1.7694 h -0.62838 l -1.25953,-1.537889 -0.27009,0.237022 v 1.300867 h -0.50161 v -4.258135 l 0.50161,-0.05512 z"
       style="font-style:normal;font-variant:normal;font-weight:normal;font-stretch:normal;font-family:'Oxygen Mono';-inkscape-font-specification:'Oxygen Mono';fill:#ffffff;stroke-width:0.264583"
       id="path1730" />
    <path
       d="m -162.15823,-78.803129 0.79927,-2.450151 h 0.54845 q -0.83784,2.364712 -0.98943,2.756075 -0.15158,0.388606 -0.2067,0.529166 -0.0551,0.14056 -0.12403,0.289388 -0.0689,0.148828 -0.1626,0.270095 -0.0937,0.124023 -0.17915,0.181901 -0.0827,0.06063 -0.26458,0.110243 -0.17915,0.05236 -0.66973,0.05236 l -0.0579,-0.421679 q 0.36656,0 0.43822,-0.01654 0.0744,-0.01654 0.14056,-0.03858 0.0661,-0.01929 0.0992,-0.04961 0.0331,-0.02756 0.0827,-0.07441 0.12678,-0.124023 0.28388,-0.631141 -0.77722,-1.785936 -1.12173,-2.656855 l -0.11851,-0.300413 h 0.54295 z"
       style="font-style:normal;font-variant:normal;font-weight:normal;font-stretch:normal;font-family:'Oxygen Mono';-inkscape-font-specification:'Oxygen Mono';fill:#ffffff;stroke-width:0.264583"
       id="path1732" />
    <path
       d="m -158.44028,-78.229866 h -0.82958 v -0.829578 h 0.82958 z"
       style="font-style:normal;font-variant:normal;font-weight:normal;font-stretch:normal;font-family:'Oxygen Mono';-inkscape-font-specification:'Oxygen Mono';fill:#ffffff;stroke-width:0.264583"
       id="path1734" />
    <path
       d="m -155.55191,-80.867429 v 1.419378 q 0,0.264583 0.0276,0.418923 0.0303,0.154341 0.11575,0.250803 0.0882,0.09646 0.226,0.129536 0.1378,0.03307 0.37483,0.03307 h 0.55397 l -0.0276,0.38585 h -0.50712 q -0.77997,0 -1.03904,-0.286632 -0.16812,-0.187413 -0.20671,-0.60358 -0.0193,-0.184657 -0.0193,-0.454752 v -1.292599 h -0.85438 l 0.0551,-0.385851 h 0.79926 v -1.041796 l 0.50161,-0.148828 v 1.190624 h 1.2733 v 0.385851 z"
       style="font-style:normal;font-variant:normal;font-weight:normal;font-stretch:normal;font-family:'Oxygen Mono';-inkscape-font-specification:'Oxygen Mono';fill:#ffffff;stroke-width:0.264583"
       id="path1736" />
    <path
       d="m -153.33603,-81.25328 h 0.57326 l 0.71934,1.163064 0.71933,-1.163064 h 0.5209 l -0.92879,1.466232 0.96186,1.557182 h -0.55672 l -0.73863,-1.204404 -0.76894,1.204404 h -0.55122 l 0.99219,-1.543402 z"
       style="font-style:normal;font-variant:normal;font-weight:normal;font-stretch:normal;font-family:'Oxygen Mono';-inkscape-font-specification:'Oxygen Mono';fill:#ffffff;stroke-width:0.264583"
       id="path1738" />
    <path
       d="m -148.77748,-80.867429 v 1.419378 q 0,0.264583 0.0276,0.418923 0.0303,0.154341 0.11575,0.250803 0.0882,0.09646 0.226,0.129536 0.1378,0.03307 0.37483,0.03307 h 0.55397 l -0.0276,0.38585 h -0.50712 q -0.77997,0 -1.03904,-0.286632 -0.16812,-0.187413 -0.20671,-0.60358 -0.0193,-0.184657 -0.0193,-0.454752 v -1.292599 h -0.85438 l 0.0551,-0.385851 h 0.79926 v -1.041796 l 0.50161,-0.148828 v 1.190624 h 1.2733 v 0.385851 z"
       style="font-style:normal;font-variant:normal;font-weight:normal;font-stretch:normal;font-family:'Oxygen Mono';-inkscape-font-specification:'Oxygen Mono';fill:#ffffff;stroke-width:0.264583"
       id="path1740" />
  </g>
  <path
     style="fill:none;stroke:#ff0000;stroke-width:1.05833;stroke-linecap:round;stroke-linejoin:miter;stroke-miterlimit:4;stroke-dasharray:none;stroke-opacity:1"
     d="M 42.33333,23.283344 H 44.45"
     id="path1793" />
  <circle
     style="fill:#afdde9;fill-opacity:1;fill-rule:evenodd;stroke:none;stroke-width:0.529167;stroke-linecap:round;stroke-linejoin:round;stroke-miterlimit:4;stroke-dasharray:none"
     id="circle1795"
     cx="51.329166"
     cy="25.135429"
     r="8.4666662" />
  <g
     id="g1801"
     transform="translate(90.22292,12.435432)"
     style="fill:#ffffff;stroke-width:1;stroke-miterlimit:4;stroke-dasharray:none;paint-order:fill markers stroke">
    <path
       style="fill:#ffffff;stroke:#000000;stroke-width:0.529167;stroke-linecap:butt;stroke-linejoin:miter;stroke-miterlimit:4;stroke-dasharray:none;stroke-opacity:1;paint-order:fill markers stroke"
       d="M -42.068749,8.7312499 V 16.66875 h 6.349999 v -6.35 l -1.5875,-1.5875 z"
       id="path1797" />
    <path
       style="fill:none;stroke:#000000;stroke-width:0.529167;stroke-linecap:butt;stroke-linejoin:miter;stroke-miterlimit:4;stroke-dasharray:none;stroke-opacity:1;paint-order:fill markers stroke"
       d="m -37.30625,8.73125 v 1.5875 h 1.5875"
       id="path1799" />
  </g>
  <path
     style="fill:none;stroke:#ff0000;stroke-width:4.23333;stroke-linecap:butt;stroke-linejoin:miter;stroke-miterlimit:4;stroke-dasharray:none;stroke-opacity:1"
     d="m 31.75,12.700003 c 0,8.46667 4.23333,12.700001 10.58333,12.700001"
     id="path1803" />
  <path
     style="fill:none;stroke:#ff0000;stroke-width:1.05833;stroke-linecap:round;stroke-linejoin:miter;stroke-miterlimit:4;stroke-dasharray:none;stroke-opacity:1"
     d="M 42.33333,24.341684 H 44.45"
     id="path1805" />
  <path
     style="fill:none;stroke:#ff0000;stroke-width:1.05833;stroke-linecap:round;stroke-linejoin:miter;stroke-miterlimit:4;stroke-dasharray:none;stroke-opacity:1"
     d="M 42.33333,25.400014 H 44.45"
     id="path1807" />
  <path
     style="fill:none;stroke:#ff0000;stroke-width:1.05833;stroke-linecap:round;stroke-linejoin:miter;stroke-miterlimit:4;stroke-dasharray:none;stroke-opacity:1"
     d="M 42.33333,26.458353 H 44.45"
     id="path1809" />
  <path
     style="fill:none;stroke:#ff0000;stroke-width:1.05833;stroke-linecap:round;stroke-linejoin:miter;stroke-miterlimit:4;stroke-dasharray:none;stroke-opacity:1"
     d="M 42.33333,27.516684 H 44.45"
     id="path1811" />
  <path
     id="path1835"
     style="fill:#0000ff;fill-rule:evenodd;stroke:none;stroke-width:0.529167;stroke-linecap:round;stroke-linejoin:round;stroke-miterlimit:4;stroke-dasharray:none"
     d="M 96.57291,6.350013 H 101.6 l 2.11666,2.116671 -2.11666,2.116659 h -5.02709 z" />
  <path
     id="path1837"
     style="fill:#ff0000;fill-rule:evenodd;stroke:none;stroke-width:0.529167;stroke-linecap:round;stroke-linejoin:round;stroke-miterlimit:4;stroke-dasharray:none"
     d="m 89.87505,6.349993 h 7.49162 l 2.11667,2.11667 -2.11667,2.11666 h -7.49162 z" />
  <path
     id="path1845"
     style="fill:#b3b3b3;fill-rule:evenodd;stroke:none;stroke-width:0.529167;stroke-linecap:round;stroke-linejoin:round;stroke-miterlimit:4;stroke-dasharray:none"
     d="m 137.58333,6.350003 h 6.51659 v 4.233331 h -6.51659 z" />
  <path
     id="path1847"
     style="fill:#0000ff;fill-rule:evenodd;stroke:none;stroke-width:0.529167;stroke-linecap:round;stroke-linejoin:round;stroke-miterlimit:4;stroke-dasharray:none"
     d="m 132.55626,6.350003 h 5.02708 l 2.11667,2.11667 -2.11667,2.116661 h -5.02708 z" />
  <rect
     style="fill:#0000ff;fill-rule:evenodd;stroke:none;stroke-width:0.264583;stroke-linecap:round;stroke-linejoin:round"
     id="rect1839"
     width="33.866673"
     height="8.4666662"
     x="101.60001"
     y="4.2333446"
     ry="2.1166666"
     rx="2.1166649" />
  <g
     aria-label="head -n 1"
     id="text1843"
     style="font-size:5.64444px;line-height:1.25;font-family:'Roboto Mono';-inkscape-font-specification:'Roboto Mono';text-align:center;letter-spacing:0px;word-spacing:0px;text-anchor:middle;fill:#ffffff;stroke-width:0.264583"
     transform="translate(233.90163,88.818725)">
    <path
       d="m -127.77201,-80.054387 v 1.824521 h -0.50161 v -1.761132 q 0,-0.567751 -0.15158,-0.766188 -0.15158,-0.201194 -0.45751,-0.201194 -0.30868,0 -0.53743,0.214974 -0.226,0.212218 -0.226,0.457509 v 2.056031 h -0.50161 v -4.258135 l 0.50161,-0.05512 v 1.6564 q 0.35278,-0.457508 0.94533,-0.457508 0.9288,0 0.9288,1.289843 z"
       style="font-style:normal;font-variant:normal;font-weight:normal;font-stretch:normal;font-family:'Oxygen Mono';-inkscape-font-specification:'Oxygen Mono';fill:#ffffff;stroke-width:0.264583"
       id="path1743" />
    <path
       d="m -126.1349,-78.370426 q -0.31695,-0.212218 -0.47129,-0.567751 -0.15159,-0.35829 -0.15159,-0.80753 0,-0.44924 0.14056,-0.804774 0.14332,-0.358289 0.42444,-0.576019 0.28388,-0.220486 0.62287,-0.220486 0.63941,0 0.93707,0.438216 0.29765,0.438216 0.29765,1.077625 v 0.16812 h -1.91547 q 0.0165,0.465777 0.23151,0.790994 0.21773,0.325216 0.65044,0.325216 0.28938,-0.02756 0.80753,-0.314192 l 0.16536,0.341753 q -0.35829,0.35829 -0.97841,0.35829 -0.44372,0 -0.76067,-0.209462 z m 1.32016,-1.659157 q -0.0551,-0.928797 -0.65044,-0.928797 -0.67248,0 -0.76894,0.928797 z"
       style="font-style:normal;font-variant:normal;font-weight:normal;font-stretch:normal;font-family:'Oxygen Mono';-inkscape-font-specification:'Oxygen Mono';fill:#ffffff;stroke-width:0.264583"
       id="path1745" />
    <path
       d="m -121.53501,-78.905104 v -0.771701 l -0.41066,0.05788 q -0.42995,0.06063 -0.59531,0.121267 -0.36932,0.14056 -0.36932,0.471288 0,0.228755 0.1323,0.363802 0.13229,0.135048 0.3638,0.135048 0.50987,0 0.87919,-0.377582 z m 0,-1.408354 q 0,-0.647678 -0.54846,-0.647678 -0.25907,0 -0.57327,0.06063 -0.31143,0.06063 -0.43821,0.115755 l -0.11851,-0.369314 q 0.5705,-0.190169 1.07211,-0.190169 0.5016,0 0.80477,0.228754 0.30317,0.228754 0.30317,0.705555 v 2.180055 h -0.41617 l -0.0661,-0.350021 q -0.17639,0.179144 -0.45475,0.300412 -0.27561,0.118511 -0.54019,0.118511 -0.3831,0 -0.63666,-0.228754 -0.25356,-0.231511 -0.25356,-0.650434 0,-0.421679 0.33073,-0.617361 0.22324,-0.137803 0.47405,-0.187413 0.25356,-0.05236 0.6587,-0.101974 l 0.40239,-0.04685 z"
       style="font-style:normal;font-variant:normal;font-weight:normal;font-stretch:normal;font-family:'Oxygen Mono';-inkscape-font-specification:'Oxygen Mono';fill:#ffffff;stroke-width:0.264583"
       id="path1747" />
    <path
       d="m -118.06787,-79.759487 q 0,-0.705555 -0.20946,-0.950846 -0.20947,-0.248047 -0.59532,-0.248047 -0.53468,0 -0.69177,0.529167 -0.0854,0.289387 -0.0854,0.697286 0,1.185112 0.77721,1.185112 0.80478,0 0.80478,-1.212672 z m 0,-1.077625 v -1.650889 l 0.5016,-0.05512 v 4.313256 h -0.5016 v -0.468533 q -0.30593,0.537435 -0.86541,0.537435 -0.63941,0 -0.93155,-0.457509 -0.28939,-0.457508 -0.28939,-1.149282 0,-0.832335 0.42443,-1.267795 0.29766,-0.30868 0.79927,-0.30868 0.34175,0 0.55397,0.14056 0.21497,0.14056 0.30868,0.366557 z"
       style="font-style:normal;font-variant:normal;font-weight:normal;font-stretch:normal;font-family:'Oxygen Mono';-inkscape-font-specification:'Oxygen Mono';fill:#ffffff;stroke-width:0.264583"
       id="path1749" />
    <path
       d="m -110.97649,-80.509139 v 0.427191 h -1.84657 v -0.427191 z"
       style="font-style:normal;font-variant:normal;font-weight:normal;font-stretch:normal;font-family:'Oxygen Mono';-inkscape-font-specification:'Oxygen Mono';fill:#ffffff;stroke-width:0.264583"
       id="path1751" />
    <path
       d="m -108.36098,-81.34423 q 0.93982,0 0.93982,1.190624 v 1.92374 h -0.5016 v -1.863106 q 0,-0.319705 -0.0331,-0.457509 -0.0331,-0.137803 -0.0992,-0.225998 -0.14055,-0.181901 -0.46026,-0.181901 -0.32246,0 -0.5457,0.187413 -0.22324,0.187414 -0.22324,0.496094 v 2.045007 h -0.50161 v -3.023414 h 0.46026 l 0.0276,0.327973 q 0.30041,-0.418923 0.93706,-0.418923 z"
       style="font-style:normal;font-variant:normal;font-weight:normal;font-stretch:normal;font-family:'Oxygen Mono';-inkscape-font-specification:'Oxygen Mono';fill:#ffffff;stroke-width:0.264583"
       id="path1753" />
    <path
       d="m -102.89844,-81.776934 q 0.37758,-0.15434 0.92604,-0.564995 h 0.51814 v 3.709676 h 0.86541 v 0.402387 h -2.30683 v -0.402387 h 0.92604 v -3.152949 q -0.0772,0.0441 -0.38585,0.23151 -0.30868,0.184657 -0.54295,0.275608 z"
       style="font-style:normal;font-variant:normal;font-weight:normal;font-stretch:normal;font-family:'Oxygen Mono';-inkscape-font-specification:'Oxygen Mono';fill:#ffffff;stroke-width:0.264583"
       id="path1755" />
  </g>
  <circle
     style="fill:#b3b3b3;fill-rule:evenodd;stroke:none;stroke-width:0.529167;stroke-linecap:round;stroke-linejoin:round;stroke-miterlimit:4;stroke-dasharray:none"
     id="circle1849"
     cx="148.16667"
     cy="8.4666662"
     r="8.4666662" />
  <rect
     style="fill:#000000;fill-rule:evenodd;stroke-width:0.264583;stroke-linecap:round;stroke-linejoin:round"
     id="rect1851"
     width="10.583334"
     height="6.3499999"
     x="142.875"
     y="4.4979167"
     rx="0.26458246"
     ry="0.26458395" />
  <rect
     style="fill:#ffffff;fill-rule:evenodd;stroke-width:0.264583;stroke-linecap:round;stroke-linejoin:round"
     id="rect1853"
     width="9.5250025"
     height="5.291666"
     x="143.40417"
     y="5.0270762" />
  <rect
     style="fill:#000000;fill-rule:evenodd;stroke-width:0.264583;stroke-linecap:round;stroke-linejoin:round"
     id="rect1855"
     width="4.2333341"
     height="1.0583335"
     x="146.04999"
     y="11.377082"
     rx="0.26458246"
     ry="0.26458395" />
  <rect
     style="fill:#000000;fill-rule:evenodd;stroke-width:0.264583;stroke-linecap:round;stroke-linejoin:round"
     id="rect1857"
     width="0.79374939"
     height="1.3229171"
     x="147.76979"
     y="10.58332"
     rx="0.26458246"
     ry="0.26458395" />
</svg>
