<?xml version="1.0" encoding="UTF-8" standalone="no"?>
<svg
   xmlns:dc="http://purl.org/dc/elements/1.1/"
   xmlns:cc="http://creativecommons.org/ns#"
   xmlns:rdf="http://www.w3.org/1999/02/22-rdf-syntax-ns#"
   xmlns:svg="http://www.w3.org/2000/svg"
   xmlns="http://www.w3.org/2000/svg"
   xmlns:xlink="http://www.w3.org/1999/xlink"
   xmlns:sodipodi="http://sodipodi.sourceforge.net/DTD/sodipodi-0.dtd"
   xmlns:inkscape="http://www.inkscape.org/namespaces/inkscape"
   version="1.1"
   preserveAspectRatio="none"
   x="0px"
   y="0px"
   width="64"
   height="64"
   viewBox="0 0 64 64"
   id="svg2"
   inkscape:version="0.91 r13725"
   sodipodi:docname="mapPack_vector.svg">
  <metadata
     id="metadata1740">
    <rdf:RDF>
      <cc:Work
         rdf:about="">
        <dc:format>image/svg+xml</dc:format>
        <dc:type
           rdf:resource="http://purl.org/dc/dcmitype/StillImage" />
        <dc:title></dc:title>
      </cc:Work>
    </rdf:RDF>
  </metadata>
  <sodipodi:namedview
     pagecolor="#ffffff"
     bordercolor="#666666"
     borderopacity="1"
     objecttolerance="10"
     gridtolerance="10"
     guidetolerance="10"
     inkscape:pageopacity="0"
     inkscape:pageshadow="2"
     inkscape:window-width="1848"
     inkscape:window-height="1056"
     id="namedview1738"
     showgrid="false"
     fit-margin-top="0"
     fit-margin-left="0"
     fit-margin-right="0"
     fit-margin-bottom="0"
     inkscape:zoom="0.94707432"
     inkscape:cx="-48.233688"
     inkscape:cy="61.15"
     inkscape:window-x="72"
     inkscape:window-y="0"
     inkscape:window-maximized="1"
     inkscape:current-layer="svg2" />
  <defs
     id="defs4">
    <g
       id="Layer0_84_MEMBER_0_FILL">
      <path
         d="m 681.9,481.65 q -6.55,3.25 -6.55,7.7 0,4.45 6.55,7.6 6.65,3.2 16.05,3.2 9.3,0 15.95,-3.2 6.7,-3.15 6.7,-7.6 0,-4.45 -6.7,-7.7 -6.65,-3.15 -15.95,-3.15 -9.4,0 -16.05,3.15 z"
         id="path794"
         inkscape:connector-curvature="0"
         style="fill:#000000;fill-opacity:0.05098039;stroke:none" />
    </g>
    <g
       id="Layer0_84_MEMBER_1_FILL">
      <path
         d="m 693.1,492 q 4.85,-0.45 9.6,0.1 l 0.9,-11.25 -11.15,0.8 0.65,10.35 z"
         id="path797"
         inkscape:connector-curvature="0"
         style="fill:#637779;stroke:none" />
      <path
         d="m 707.2,487.9 -0.3,4.95 q 4.7,2.05 9.4,0 l -1,-4.3 -8.1,-0.65 m -26.85,4.9 0,0.05 q 4.4,2.65 8.8,0 l -0.25,-5 -8.1,0.7 -0.45,4.25 z"
         id="path799"
         inkscape:connector-curvature="0"
         style="fill:#a0bfc2;stroke:none" />
      <path
         d="m 701.4,474.2 -0.75,-3.15 -5.15,0 -1.2,3.3 -1.45,0.05 -1,-3.35 -3.8,0 0.85,16.8 0.25,5 q 1.95,-0.5 3.95,-0.85 l -0.65,-10.35 11.15,-0.8 -0.9,11.25 q 2.2,0.25 4.2,0.75 l 0.3,-4.95 0.85,-16.85 -4.8,0 -0.45,3.1 -1.4,0.05 m 9.45,-2.8 -0.5,4.25 3.45,0.4 0.55,-4.2 q 0.1,-0.75 -0.35,-1.3 -0.45,-0.55 -1.15,-0.7 -0.75,-0.1 -1.3,0.4 -0.65,0.4 -0.7,1.15 m -28.75,0.25 0.4,3.4 2.9,-0.4 -0.5,-3.4 q -0.05,-0.6 -0.55,-0.95 -0.45,-0.4 -1.05,-0.25 -0.6,0.05 -0.95,0.5 -0.4,0.5 -0.25,1.1 z"
         id="path801"
         inkscape:connector-curvature="0"
         style="fill:#7d9698;stroke:none" />
      <path
         d="m 720.2,468 q -0.7,-0.7 -1.45,-1.2 -4.35,-3.2 -10.25,-2.35 -0.5,0.1 -1.1,0.2 -0.6,0.15 -1.25,0.3 l 1.95,4.95 -0.05,1.15 -0.85,16.85 8.1,0.65 1.8,-16.55 3.1,-4 m -9.85,7.65 0.5,-4.25 q 0.05,-0.75 0.7,-1.15 0.55,-0.5 1.3,-0.4 0.7,0.15 1.15,0.7 0.45,0.55 0.35,1.3 l -0.55,4.2 -3.45,-0.4 M 677.3,466.8 q -0.75,0.5 -1.45,1.2 l 3.15,4 1.8,16.55 8.1,-0.7 -0.85,-16.8 -0.05,-1.15 1.9,-4.95 q -0.25,-0.05 -0.5,-0.15 -1,-0.2 -1.9,-0.35 -5.85,-0.85 -10.2,2.35 m 5.2,8.25 -0.4,-3.4 q -0.15,-0.6 0.25,-1.1 0.35,-0.45 0.95,-0.5 0.6,-0.15 1.05,0.25 0.5,0.35 0.55,0.95 l 0.5,3.4 -2.9,0.4 z"
         id="path803"
         inkscape:connector-curvature="0"
         style="fill:#92afb1;stroke:none" />
      <path
         d="m 718.75,466.8 -3.5,-13.25 -6.75,10.9 q 5.9,-0.85 10.25,2.35 m -37.95,-13.25 -3.5,13.25 q 4.35,-3.2 10.2,-2.35 l -6.7,-10.9 z"
         id="path805"
         inkscape:connector-curvature="0"
         style="fill:#e79648;stroke:none" />
      <path
         d="m 720.5,465.6 -0.3,2.4 -3.1,4 -1.8,16.55 1,4.3 2.75,-20.1 2.75,-3.5 q 0.45,-0.6 0.4,-1.35 -0.05,-0.8 -0.55,-1.3 -0.55,-0.55 -1.15,-1 m -32.5,4.3 0.05,1.15 3.8,0 1,3.35 1.45,-0.05 1.2,-3.3 5.15,0 0.75,3.15 1.4,-0.05 0.45,-3.1 4.8,0 0.05,-1.15 -1.95,-4.95 1.15,-2.3 q -0.15,0 -0.2,0.05 -0.1,0 -0.15,0 -0.6,0.15 -1.25,0.3 -0.55,0.15 -0.95,0.55 -0.45,0.4 -0.55,1 -0.1,0.6 0.1,1.15 l 1.35,3.35 -2.4,0 q -0.75,0 -1.3,0.5 l -0.05,-0.05 q -0.55,-0.45 -1.25,-0.45 l -5.15,0 q -0.65,0 -1.15,0.4 -0.45,0.3 -0.65,0.8 -0.2,-0.5 -0.65,-0.8 -0.55,-0.4 -1.2,-0.4 l -1.35,0 1.3,-3.35 q 0.2,-0.6 0.05,-1.15 -0.15,-0.6 -0.55,-1 -0.4,-0.45 -1,-0.55 -0.05,0 -0.15,-0.05 -0.15,-0.05 -0.35,-0.1 -0.55,-0.1 -1.05,-0.2 l 1.15,2.3 -1.9,4.95 m -12.15,-1.9 -0.25,-2.4 q -0.6,0.4 -1.15,1 -0.55,0.5 -0.6,1.3 -0.05,0.75 0.45,1.35 l 2.75,3.5 3.3,20.05 0.45,-4.25 -1.8,-16.55 -3.15,-4 z"
         id="path807"
         inkscape:connector-curvature="0"
         style="fill:#657a7b;stroke:none" />
      <path
         d="m 714.8,451.6 q -0.8,0.2 -1.25,0.9 l -6.25,10.15 -1.15,2.3 q 0.65,-0.15 1.25,-0.3 0.6,-0.1 1.1,-0.2 l 6.75,-10.9 3.5,13.25 q 0.75,0.5 1.45,1.2 l 0.3,-2.4 -3.3,-12.55 q -0.25,-0.8 -0.9,-1.2 -0.75,-0.45 -1.5,-0.25 m -35,0.25 q -0.7,0.4 -0.9,1.2 l -3.3,12.55 0.25,2.4 q 0.7,-0.7 1.45,-1.2 l 3.5,-13.25 6.7,10.9 q 0.9,0.15 1.9,0.35 0.25,0.1 0.5,0.15 l -1.15,-2.3 -6.25,-10.15 q -0.45,-0.7 -1.2,-0.9 -0.8,-0.2 -1.5,0.25 z"
         id="path809"
         inkscape:connector-curvature="0"
         style="fill:#bb793a;stroke:none" />
    </g>
  </defs>
  <g
     id="g5868"
     transform="translate(-666.02523,-443.84423)">
    <g
       id="g1574">
      <use
         id="use1576"
         xlink:href="#Layer0_84_MEMBER_0_FILL"
         x="0"
         y="0"
         width="100%"
         height="100%" />
    </g>
    <g
       id="g1578">
      <use
         id="use1580"
         xlink:href="#Layer0_84_MEMBER_1_FILL"
         x="0"
         y="0"
         width="100%"
         height="100%" />
    </g>
  </g>
</svg>
