<?xml version="1.0" encoding="UTF-8" standalone="no"?>
<svg
   xmlns:dc="http://purl.org/dc/elements/1.1/"
   xmlns:cc="http://creativecommons.org/ns#"
   xmlns:rdf="http://www.w3.org/1999/02/22-rdf-syntax-ns#"
   xmlns:svg="http://www.w3.org/2000/svg"
   xmlns="http://www.w3.org/2000/svg"
   xmlns:xlink="http://www.w3.org/1999/xlink"
   xmlns:sodipodi="http://sodipodi.sourceforge.net/DTD/sodipodi-0.dtd"
   xmlns:inkscape="http://www.inkscape.org/namespaces/inkscape"
   version="1.1"
   preserveAspectRatio="none"
   x="0px"
   y="0px"
   width="64"
   height="64"
   viewBox="0 0 64 64"
   id="svg2"
   inkscape:version="0.91 r13725"
   sodipodi:docname="mapPack_vector.svg">
  <metadata
     id="metadata1740">
    <rdf:RDF>
      <cc:Work
         rdf:about="">
        <dc:format>image/svg+xml</dc:format>
        <dc:type
           rdf:resource="http://purl.org/dc/dcmitype/StillImage" />
        <dc:title></dc:title>
      </cc:Work>
    </rdf:RDF>
  </metadata>
  <sodipodi:namedview
     pagecolor="#ffffff"
     bordercolor="#666666"
     borderopacity="1"
     objecttolerance="10"
     gridtolerance="10"
     guidetolerance="10"
     inkscape:pageopacity="0"
     inkscape:pageshadow="2"
     inkscape:window-width="1848"
     inkscape:window-height="1056"
     id="namedview1738"
     showgrid="false"
     inkscape:zoom="0.66968267"
     inkscape:cx="780.78631"
     inkscape:cy="289.85925"
     inkscape:window-x="72"
     inkscape:window-y="0"
     inkscape:window-maximized="1"
     inkscape:current-layer="svg2" />
  <defs
     id="defs4">
    <g
       id="Layer0_85_MEMBER_0_FILL">
      <path
         d="m 1123.55,643.8 q 0,3 5.1,5.15 5.2,2.15 12.6,2.15 7.3,0 12.5,-2.15 5.3,-2.15 5.3,-5.15 0,-3.05 -5.3,-5.25 -5.2,-2.1 -12.5,-2.1 -7.4,0 -12.6,2.1 -5.1,2.2 -5.1,5.25 z"
         id="path812"
         inkscape:connector-curvature="0"
         style="fill:#000000;fill-opacity:0.05098039;stroke:none" />
    </g>
    <g
       id="Layer0_85_MEMBER_1_FILL">
      <path
         d="m 1153,632.55 q -0.2,0.85 -0.4,1.7 -1.1,4.4 -1.55,11.05 2.25,-3.1 2.6,-5.65 0.5,0.2 1.15,0.25 1.4,0.1 2.45,-0.7 l 0,-0.05 q 1.2,-0.95 1.3,-2.35 0.5,-5.2 -1.7,-9.2 l -2.5,-0.2 q 0.2,0.25 0.35,0.55 2.35,3.7 1.85,8.65 -0.05,0.6 -0.55,1 -0.45,0.35 -1.05,0.3 -0.65,-0.05 -1.05,-0.55 -0.35,-0.45 -0.3,-1.05 0.2,-2.2 -0.6,-3.75 m -14.55,10.25 q 2,0.45 4.25,0.45 0.95,0 1.9,-0.05 l 2.25,2.1 -0.55,-4.4 q -1.7,0.35 -3.6,0.35 -3,0 -5.45,-0.9 l -1.85,4.95 3.05,-2.5 m -7.55,-15.6 -2.75,-0.25 q -3.35,3.3 -4.2,8.6 -0.25,1.4 0.55,2.55 0.85,1.2 2.3,1.45 1.45,0.2 2.6,-0.6 0.45,-0.3 0.75,-0.7 1.1,3.9 1.15,6.45 1.25,-6.5 1.05,-13.15 -2.95,1.25 -3.5,4.8 -0.1,0.6 -0.6,0.95 -0.5,0.35 -1.15,0.25 -0.6,-0.1 -0.95,-0.6 -0.35,-0.5 -0.25,-1.1 0.85,-5.25 4.5,-8.25 0.25,-0.25 0.5,-0.4 z"
         id="path815"
         inkscape:connector-curvature="0"
         style="fill:#4b8572;stroke:none" />
      <path
         d="m 1131.2,627.45 q -0.15,-0.15 -0.25,-0.25 l -0.05,0 q -0.25,0.15 -0.5,0.4 -3.65,3 -4.5,8.25 -0.1,0.6 0.25,1.1 0.35,0.5 0.95,0.6 0.65,0.1 1.15,-0.25 0.5,-0.35 0.6,-0.95 0.55,-3.55 3.5,-4.8 0.2,6.65 -1.05,13.15 0,0.15 0,0.3 -0.05,0.2 0,0.4 2,1.05 4.1,-0.1 l 1.85,-4.95 q 2.45,0.9 5.45,0.9 1.9,0 3.6,-0.35 l 0.55,4.4 q 2.1,1.3 4.2,0 0.45,-6.65 1.55,-11.05 0.2,-0.85 0.4,-1.7 0.8,1.55 0.6,3.75 -0.05,0.6 0.3,1.05 0.4,0.5 1.05,0.55 0.6,0.05 1.05,-0.3 0.5,-0.4 0.55,-1 0.5,-4.95 -1.85,-8.65 -0.15,-0.3 -0.35,-0.55 -0.05,0 -0.1,0.05 -4.8,4.75 -11.55,4.75 -6.75,0 -11.5,-4.75 m 0.75,-2.95 q 0.5,0.6 1.05,1.15 4,4.05 9.7,4.05 5.7,0 9.8,-4.05 0.5,-0.5 0.95,-1.05 l 0,-9.1 q 0,-4.45 -3.15,-7.6 -3.15,-3.15 -7.6,-3.15 -4.45,0 -7.6,3.15 -3.15,3.15 -3.15,7.6 l 0,9 m 16.15,-6.15 q 0.75,-0.75 1.85,-0.75 1,0 1.7,0.75 0.75,0.75 0.75,1.7 l 0,0.05 q 0,1.05 -0.75,1.75 -0.7,0.75 -1.7,0.75 -1.1,0 -1.85,-0.75 -0.7,-0.7 -0.7,-1.75 l 0,-0.05 q 0.05,-0.95 0.7,-1.7 m -9,0 q 0.75,-0.75 1.85,-0.75 1,0 1.7,0.75 0.75,0.75 0.75,1.7 l 0,0.05 q 0,1.05 -0.75,1.75 -0.7,0.75 -1.7,0.75 -1.1,0 -1.85,-0.75 -0.7,-0.7 -0.7,-1.75 l 0,-0.05 q 0.05,-0.95 0.7,-1.7 m 10.25,5.6 q 0.1,0.2 0,0.45 -0.3,0.7 -1,1.3 -1.15,0.9 -2.7,0.9 -1.6,0 -2.7,-0.9 -0.8,-0.6 -1.05,-1.35 -0.05,-0.25 0.05,-0.45 0.1,-0.2 0.3,-0.25 0.25,-0.05 0.45,0.05 0.2,0.1 0.25,0.3 0.15,0.5 0.65,0.9 0.8,0.65 2.05,0.65 1.15,0 2,-0.65 0.5,-0.45 0.7,-0.9 0.05,-0.25 0.25,-0.3 0.25,-0.15 0.45,0 0.2,0.05 0.3,0.25 z"
         id="path817"
         inkscape:connector-curvature="0"
         style="fill:#6fc4a9;stroke:none" />
      <path
         d="m 1126.4,615.9 q 0,-0.45 0.05,-0.9 0.3,-6.2 4.75,-10.6 4.75,-4.8 11.5,-4.8 6.75,0 11.55,4.8 4.45,4.4 4.75,10.6 0,0.45 0,0.9 0,0.45 0,0.85 -0.1,1.45 -0.35,2.85 -1,4.35 -4.3,7.8 l 2.5,0.2 q 2.8,-3.4 3.75,-7.55 0,-0.05 0.05,-0.1 0.25,-1.5 0.35,-3.05 0,-0.1 0,-0.15 0,-0.4 0,-0.85 0,-0.45 0,-0.9 0,-0.05 0,-0.1 -0.35,-7 -5.35,-11.9 l 0.05,0 q -5.4,-5.4 -13,-5.4 -7.55,0 -12.9,5.4 -4.95,4.9 -5.35,11.8 -0.05,0.55 -0.05,1.1 0,0.5 0.05,0.95 0.05,1.6 0.4,3.2 0.85,3.75 3.3,6.9 l 2.75,0.25 0.05,0 q -3.2,-3.4 -4.15,-7.6 -0.3,-1.4 -0.35,-2.85 -0.05,-0.4 -0.05,-0.85 m 2.55,-0.9 q -0.05,0.45 -0.05,0.9 0,0.45 0.05,0.85 0.05,1.5 0.45,2.85 0.7,2.7 2.55,4.9 l 0,-9 q 0,-4.45 3.15,-7.6 3.15,-3.15 7.6,-3.15 4.45,0 7.6,3.15 3.15,3.15 3.15,7.6 l 0,9.1 q 1.85,-2.25 2.6,-5 0.35,-1.35 0.45,-2.85 0,-0.4 0,-0.85 0,-0.45 0,-0.9 -0.3,-5.15 -4,-8.85 -4.1,-4.05 -9.8,-4.05 -5.7,0 -9.7,4.05 -3.75,3.7 -4.05,8.85 z"
         id="path819"
         inkscape:connector-curvature="0"
         style="fill:#cccccc;stroke:none" />
      <path
         d="m 1126.45,615 q -0.05,0.45 -0.05,0.9 0,0.45 0.05,0.85 0.05,1.45 0.35,2.85 0.95,4.2 4.15,7.6 0.1,0.1 0.25,0.25 4.75,4.75 11.5,4.75 6.75,0 11.55,-4.75 0.05,-0.05 0.1,-0.05 3.3,-3.45 4.3,-7.8 0.25,-1.4 0.35,-2.85 0,-0.4 0,-0.85 0,-0.45 0,-0.9 -0.3,-6.2 -4.75,-10.6 -4.8,-4.8 -11.55,-4.8 -6.75,0 -11.5,4.8 -4.45,4.4 -4.75,10.6 m 2.45,0.9 q 0,-0.45 0.05,-0.9 0.3,-5.15 4.05,-8.85 4,-4.05 9.7,-4.05 5.7,0 9.8,4.05 3.7,3.7 4,8.85 0,0.45 0,0.9 0,0.45 0,0.85 -0.1,1.5 -0.45,2.85 -0.75,2.75 -2.6,5 -0.45,0.55 -0.95,1.05 -4.1,4.05 -9.8,4.05 -5.7,0 -9.7,-4.05 -0.55,-0.55 -1.05,-1.15 -1.85,-2.2 -2.55,-4.9 -0.4,-1.35 -0.45,-2.85 -0.05,-0.4 -0.05,-0.85 z"
         id="path821"
         inkscape:connector-curvature="0"
         style="fill:#ffffff;stroke:none" />
      <path
         d="m 1149.35,624.4 q 0.1,-0.25 0,-0.45 -0.1,-0.2 -0.3,-0.25 -0.2,-0.15 -0.45,0 -0.2,0.05 -0.25,0.3 -0.2,0.45 -0.7,0.9 -0.85,0.65 -2,0.65 -1.25,0 -2.05,-0.65 -0.5,-0.4 -0.65,-0.9 -0.05,-0.2 -0.25,-0.3 -0.2,-0.1 -0.45,-0.05 -0.2,0.05 -0.3,0.25 -0.1,0.2 -0.05,0.45 0.25,0.75 1.05,1.35 1.1,0.9 2.7,0.9 1.55,0 2.7,-0.9 0.7,-0.6 1,-1.3 m -8.4,-6.8 q -1.1,0 -1.85,0.75 -0.65,0.75 -0.7,1.7 l 0,0.05 q 0,1.05 0.7,1.75 0.75,0.75 1.85,0.75 1,0 1.7,-0.75 0.75,-0.7 0.75,-1.75 l 0,-0.05 q 0,-0.95 -0.75,-1.7 -0.7,-0.75 -1.7,-0.75 m 9,0 q -1.1,0 -1.85,0.75 -0.65,0.75 -0.7,1.7 l 0,0.05 q 0,1.05 0.7,1.75 0.75,0.75 1.85,0.75 1,0 1.7,-0.75 0.75,-0.7 0.75,-1.75 l 0,-0.05 q 0,-0.95 -0.75,-1.7 -0.7,-0.75 -1.7,-0.75 z"
         id="path823"
         inkscape:connector-curvature="0"
         style="fill:#347e67;stroke:none" />
    </g>
  </defs>
  <g
     id="g5893"
     transform="translate(-1110.275,-592.35)">
    <g
       id="g1582">
      <use
         id="use1584"
         xlink:href="#Layer0_85_MEMBER_0_FILL"
         x="0"
         y="0"
         width="100%"
         height="100%" />
    </g>
    <g
       id="g1586">
      <use
         id="use1588"
         xlink:href="#Layer0_85_MEMBER_1_FILL"
         x="0"
         y="0"
         width="100%"
         height="100%" />
    </g>
  </g>
</svg>
