<?xml version="1.0" encoding="UTF-8" standalone="no"?>
<svg
   xmlns:dc="http://purl.org/dc/elements/1.1/"
   xmlns:cc="http://creativecommons.org/ns#"
   xmlns:rdf="http://www.w3.org/1999/02/22-rdf-syntax-ns#"
   xmlns:svg="http://www.w3.org/2000/svg"
   xmlns="http://www.w3.org/2000/svg"
   xmlns:xlink="http://www.w3.org/1999/xlink"
   xmlns:sodipodi="http://sodipodi.sourceforge.net/DTD/sodipodi-0.dtd"
   xmlns:inkscape="http://www.inkscape.org/namespaces/inkscape"
   version="1.1"
   preserveAspectRatio="none"
   x="0px"
   y="0px"
   width="64"
   height="64"
   viewBox="0 0 64 64"
   id="svg2"
   inkscape:version="0.91 r13725"
   sodipodi:docname="grass.svg">
  <metadata
     id="metadata4079">
    <rdf:RDF>
      <cc:Work
         rdf:about="">
        <dc:format>image/svg+xml</dc:format>
        <dc:type
           rdf:resource="http://purl.org/dc/dcmitype/StillImage" />
        <dc:title />
      </cc:Work>
    </rdf:RDF>
  </metadata>
  <sodipodi:namedview
     pagecolor="#ffffff"
     bordercolor="#666666"
     borderopacity="1"
     objecttolerance="10"
     gridtolerance="10"
     guidetolerance="10"
     inkscape:pageopacity="0"
     inkscape:pageshadow="2"
     inkscape:window-width="1848"
     inkscape:window-height="1056"
     id="namedview4077"
     showgrid="false"
     fit-margin-top="0"
     fit-margin-left="0"
     fit-margin-right="0"
     fit-margin-bottom="0"
     inkscape:zoom="3.3465475"
     inkscape:cx="120.75798"
     inkscape:cy="-81.253654"
     inkscape:window-x="72"
     inkscape:window-y="0"
     inkscape:window-maximized="1"
     inkscape:current-layer="svg2" />
  <defs
     id="defs4">
    <g
       id="Layer0_243_FILL">
      <path
         d="m 1247.25,446.75 1.1,1.25 7.5,0 1.05,-3.2 -9.65,1.95 m -31.25,-13.1 0,3.5 6.25,2.4 -1.6,-9.75 -4.65,3.85 m 3.45,-17.4 -3.45,0.7 0,8.25 0.3,0.35 3.15,-9.3 m -3.45,-19.9 0,7.95 6,-1.3 -6,-6.65 m 57.75,21.85 6.25,7.05 0,-8.3 -6.25,1.25 m 6.25,18.95 0,-3.5 -2.9,2.4 2.9,1.1 m 0,-32.85 0,-8 -0.55,-0.6 -3,9.35 3.55,-0.75 m -31.65,-20.3 5.4,6.1 2.1,-6.1 -7.5,0 m -17.35,13.65 6.5,7.35 3.15,-9.3 -9.65,1.95 m 10.9,40.5 -9.65,1.95 6.55,7.35 3.1,-9.3 m 12.25,-15.6 -0.3,9.85 8.65,-4.6 -8.35,-5.25 m -8.85,1.8 6.05,0.3 -2.75,-5.45 -3.3,5.15 m 2.05,8.05 -3.4,5.1 6.1,0.35 -2.7,-5.45 m -16.9,9.15 -5.8,-1.95 1.25,6 4.55,-4.05 m -2.75,-13.05 1.95,-5.8 -6,1.25 4.05,4.55 m 4.45,-6.65 0.75,9.8 8.1,-5.55 -8.85,-4.25 m -7.4,-14.25 -0.35,9.85 8.65,-4.6 -8.3,-5.25 m 2.55,-3.45 2.6,-5.55 -6.15,0.6 3.55,4.95 m 22.2,12.45 -5.25,-8.35 -4.6,8.7 9.85,-0.35 m 0.05,-19.7 4.9,8.5 4.9,-8.5 -9.8,0 m -3.2,2.3 -3.35,5.1 6.1,0.35 -2.75,-5.45 m 20.3,28.65 5.1,3.4 0.4,-6.1 -5.5,2.7 m 1.6,7.3 -4.3,8.85 9.8,-0.7 -5.5,-8.15 m -8.75,5.9 0.35,-6.1 -5.5,2.75 5.15,3.35 m 3.6,-40 5.05,3.3 0.4,-6.1 -5.45,2.8 m -6.4,15.55 0.4,-6.1 -5.5,2.75 5.1,3.35 m 10.2,3.35 3.15,-9.3 -9.65,1.95 6.5,7.35 m 6.85,-32.85 1.25,6 4.55,-4.05 -5.8,-1.95 m -2.6,8.75 -2.45,-9.5 -7,6.9 9.45,2.6 m -41,-10.15 -9.8,0 4.9,8.5 4.9,-8.5 m 10.3,2.75 -5.8,-1.95 1.25,6 4.55,-4.05 z"
         id="path2330"
         inkscape:connector-curvature="0"
         style="fill:#2cc46c;stroke:none" />
      <path
         d="m 1248.35,384 -32.35,0 0,12.35 6,6.65 -6,1.3 0,12.65 3.45,-0.7 -3.15,9.3 -0.3,-0.35 0,8.45 4.65,-3.85 1.6,9.75 -6.25,-2.4 0,10.85 32.35,0 -1.1,-1.25 9.65,-1.95 -1.05,3.2 24.15,0 0,-10.85 -2.9,-1.1 2.9,-2.4 0,-8.4 -6.25,-7.05 6.25,-1.25 0,-12.65 -3.55,0.75 3,-9.35 0.55,0.6 0,-12.3 -24.15,0 -2.1,6.1 -5.4,-6.1 m -13.7,2.5 5.8,1.95 -4.55,4.05 -1.25,-6 m -14.3,-0.8 9.8,0 -4.9,8.5 -4.9,-8.5 m 48.35,0.65 2.45,9.5 -9.45,-2.6 7,-6.9 m 6.3,6.75 -1.25,-6 5.8,1.95 -4.55,4.05 m -4.95,17.55 -3.15,9.3 -6.5,-7.35 9.65,-1.95 m -12.95,-0.15 -0.4,6.1 -5.1,-3.35 5.5,-2.75 m 11.05,-6.15 -5.05,-3.3 5.45,-2.8 -0.4,6.1 m -8.3,30.6 -0.35,6.1 -5.15,-3.35 5.5,-2.75 m 4.1,9.05 4.3,-8.85 5.5,8.15 -9.8,0.7 m 7.8,-12.75 -5.1,-3.4 5.5,-2.7 -0.4,6.1 M 1243,404.3 l 3.35,-5.1 2.75,5.45 -6.1,-0.35 m 11.45,1.1 -4.9,-8.5 9.8,0 -4.9,8.5 m -10.2,2.85 5.25,8.35 -9.85,0.35 4.6,-8.7 m -14.35,-9.65 -2.6,5.55 -3.55,-4.95 6.15,-0.6 m -5.5,18.85 0.35,-9.85 8.3,5.25 -8.65,4.6 m 8.5,14.2 -0.75,-9.8 8.85,4.25 -8.1,5.55 m -3.25,-8.95 -1.95,5.8 -4.05,-4.55 6,-1.25 m -5,16.9 5.8,1.95 -4.55,4.05 -1.25,-6 m 19.3,-2.1 3.4,-5.1 2.7,5.45 -6.1,-0.35 m 7.4,-12.85 -6.05,-0.3 3.3,-5.15 2.75,5.45 m 2.5,7.75 0.3,-9.85 8.35,5.25 -8.65,4.6 m -21.6,7.7 9.65,-1.95 -3.1,9.3 -6.55,-7.35 m 5.25,-35.1 -6.5,-7.35 9.65,-1.95 -3.15,9.3 z"
         id="path2332"
         inkscape:connector-curvature="0"
         style="fill:#2ecc71;stroke:none" />
    </g>
  </defs>
  <g
     id="g7439"
     transform="translate(-1216,-384)">
    <use
       id="use7441"
       xlink:href="#Layer0_243_FILL"
       x="0"
       y="0"
       width="100%"
       height="100%" />
  </g>
</svg>
