<?xml version="1.0" encoding="UTF-8" standalone="no"?>
<svg
   xmlns:dc="http://purl.org/dc/elements/1.1/"
   xmlns:cc="http://creativecommons.org/ns#"
   xmlns:rdf="http://www.w3.org/1999/02/22-rdf-syntax-ns#"
   xmlns:svg="http://www.w3.org/2000/svg"
   xmlns="http://www.w3.org/2000/svg"
   xmlns:xlink="http://www.w3.org/1999/xlink"
   xmlns:sodipodi="http://sodipodi.sourceforge.net/DTD/sodipodi-0.dtd"
   xmlns:inkscape="http://www.inkscape.org/namespaces/inkscape"
   version="1.1"
   preserveAspectRatio="none"
   x="0px"
   y="0px"
   width="64"
   height="64"
   viewBox="0 0 64 64"
   id="svg2"
   inkscape:version="0.91 r13725"
   sodipodi:docname="mapPack_vector.svg">
  <metadata
     id="metadata1740">
    <rdf:RDF>
      <cc:Work
         rdf:about="">
        <dc:format>image/svg+xml</dc:format>
        <dc:type
           rdf:resource="http://purl.org/dc/dcmitype/StillImage" />
        <dc:title></dc:title>
      </cc:Work>
    </rdf:RDF>
  </metadata>
  <sodipodi:namedview
     pagecolor="#ffffff"
     bordercolor="#666666"
     borderopacity="1"
     objecttolerance="10"
     gridtolerance="10"
     guidetolerance="10"
     inkscape:pageopacity="0"
     inkscape:pageshadow="2"
     inkscape:window-width="1848"
     inkscape:window-height="1056"
     id="namedview1738"
     showgrid="false"
     inkscape:zoom="0.66968267"
     inkscape:cx="780.78631"
     inkscape:cy="289.85925"
     inkscape:window-x="72"
     inkscape:window-y="0"
     inkscape:window-maximized="1"
     inkscape:current-layer="svg2" />
  <defs
     id="defs4">
    <g
       id="Layer0_4_MEMBER_0_FILL">
      <path
         d="m 1227.75,638.55 q -5.2,-2.1 -12.5,-2.1 -7.4,0 -12.6,2.1 -5.1,2.2 -5.1,5.25 0,3 5.1,5.15 5.2,2.15 12.6,2.15 7.3,0 12.5,-2.15 5.3,-2.15 5.3,-5.15 0,-3.05 -5.3,-5.25 z"
         id="path132"
         inkscape:connector-curvature="0"
         style="fill:#000000;fill-opacity:0.05098039;stroke:none" />
    </g>
    <g
       id="Layer0_4_MEMBER_1_FILL">
      <path
         d="m 1198.2,635.65 q -0.25,1.4 0.6,2.5 0.85,1.2 2.3,1.45 1.4,0.2 2.55,-0.6 0.4,-0.3 0.7,-0.65 1.1,3.95 1.1,6.45 1.3,-6.5 1.1,-13.15 -2.9,1.25 -3.45,4.75 -0.1,0.6 -0.6,0.95 -0.5,0.35 -1.1,0.25 -0.6,-0.1 -0.95,-0.6 -0.4,-0.45 -0.3,-1.05 0.85,-5.2 4.5,-8.2 0.25,-0.25 0.5,-0.45 l -2.8,-0.15 q -3.3,3.25 -4.15,8.5 m 18.6,7.6 q 0.95,0 1.85,-0.05 l 2.25,2.15 -0.55,-4.45 q -1.65,0.35 -3.55,0.35 -3,0 -5.4,-0.85 l -1.9,4.95 3.15,-2.5 q 1.9,0.4 4.15,0.4 m 14.05,-15.5 -2.55,-0.2 q 0.2,0.25 0.4,0.55 2.3,3.7 1.8,8.55 -0.05,0.6 -0.55,1 -0.45,0.35 -1,0.3 -0.65,-0.05 -1.05,-0.55 -0.4,-0.45 -0.35,-1.05 0.25,-2.15 -0.55,-3.7 -0.2,0.85 -0.4,1.65 -1.1,4.45 -1.55,11.05 2.2,-3.1 2.6,-5.7 0.5,0.25 1.15,0.3 1.3,0.1 2.4,-0.7 l 0,-0.05 q 1.2,-0.95 1.3,-2.35 0.5,-5.1 -1.65,-9.1 z"
         id="path135"
         inkscape:connector-curvature="0"
         style="fill:#637fa3;stroke:none" />
      <path
         d="m 1228.3,627.55 q -0.05,0 -0.05,0.05 -4.75,4.7 -11.45,4.7 -6.65,0 -11.35,-4.7 -0.15,-0.15 -0.3,-0.3 -0.25,0.2 -0.5,0.45 -3.65,3 -4.5,8.2 -0.1,0.6 0.3,1.05 0.35,0.5 0.95,0.6 0.6,0.1 1.1,-0.25 0.5,-0.35 0.6,-0.95 0.55,-3.5 3.45,-4.75 0.2,6.65 -1.1,13.15 0,0.25 0,0.5 0,0.05 0,0.15 2,1.35 4.05,-0.1 l 1.9,-4.95 q 2.4,0.85 5.4,0.85 1.9,0 3.55,-0.35 l 0.55,4.45 q 2.05,1.45 4.15,0 0.45,-6.6 1.55,-11.05 0.2,-0.8 0.4,-1.65 0.8,1.55 0.55,3.7 -0.05,0.6 0.35,1.05 0.4,0.5 1.05,0.55 0.55,0.05 1,-0.3 0.5,-0.4 0.55,-1 0.5,-4.85 -1.8,-8.55 -0.2,-0.3 -0.4,-0.55 m -0.85,-11.8 q 0,-4.4 -3.1,-7.5 -3.15,-3.1 -7.55,-3.1 -4.4,0 -7.5,3.1 -3.15,3.1 -3.15,7.5 l 0,8.95 q 0.5,0.6 1.05,1.15 3.95,3.95 9.6,3.95 5.65,0 9.7,-3.95 0.5,-0.5 0.95,-1.05 l 0,-9.05 m -7.65,2.25 q 0.5,0 0.85,0.4 0.35,0.35 0.35,0.85 0,0.55 -0.35,0.9 -0.35,0.35 -0.85,0.35 -0.55,0 -0.9,-0.35 -0.35,-0.35 -0.35,-0.9 0,-0.5 0.35,-0.85 0.35,-0.4 0.9,-0.4 m 2.8,2.5 q 0.35,-0.35 0.9,-0.35 0.5,0 0.85,0.35 0.4,0.35 0.4,0.85 0,0.55 -0.4,0.9 -0.35,0.35 -0.85,0.35 -0.55,0 -0.9,-0.35 -0.35,-0.35 -0.35,-0.9 0,-0.5 0.35,-0.85 m -7.45,0 q 0.4,-0.35 0.9,-0.35 0.55,0 0.85,0.35 0.4,0.35 0.4,0.85 0,0.55 -0.4,0.9 -0.3,0.35 -0.85,0.35 -0.5,0 -0.9,-0.35 -0.35,-0.35 -0.35,-0.9 0,-0.5 0.35,-0.85 m 2.65,6.05 q -0.1,-0.15 -0.1,-0.35 0,-0.2 0.1,-0.4 0.15,-0.15 0.4,-0.15 l 3.1,0 q 0.2,0 0.35,0.15 0.2,0.2 0.2,0.4 0,0.2 -0.2,0.35 -0.15,0.2 -0.35,0.2 l -3.1,0 q -0.25,0 -0.4,-0.2 z"
         id="path137"
         inkscape:connector-curvature="0"
         style="fill:#8db5e7;stroke:none" />
      <path
         d="m 1232.9,615.3 q 0.05,0.4 0.05,0.85 0,0.45 -0.05,0.9 -0.05,1.4 -0.35,2.8 -0.95,4.3 -4.25,7.7 l 2.55,0.2 q 2.75,-3.35 3.65,-7.45 0.35,-1.5 0.4,-3 0.05,-0.6 0.05,-1.15 0,-0.6 -0.05,-1.1 l 0,0.15 q -0.35,-6.95 -5.2,-11.8 -5.35,-5.35 -12.9,-5.35 -7.45,0 -12.75,5.35 -5,4.9 -5.35,11.8 0,0.05 0,0.1 0,0.4 0,0.85 0,0.45 0,0.9 0,0.05 0,0.15 0.1,1.55 0.45,3.1 0.8,3.7 3.2,6.85 l 2.8,0.15 q -3.15,-3.3 -4.05,-7.45 -0.3,-1.4 -0.4,-2.8 0,-0.45 0,-0.9 0,-0.45 0,-0.85 0.3,-6.15 4.75,-10.5 4.7,-4.75 11.35,-4.75 6.7,0 11.45,4.75 4.35,4.35 4.65,10.5 m -2.45,1.75 q 0,-0.45 0,-0.9 0,-0.45 0,-0.85 -0.3,-5.1 -3.95,-8.75 -4.05,-4 -9.7,-4 -5.65,0 -9.6,4 -3.7,3.65 -4,8.75 -0.05,0.4 -0.05,0.85 0,0.45 0.05,0.9 0.05,1.45 0.45,2.8 0.7,2.65 2.5,4.85 l 0,-8.95 q 0,-4.4 3.15,-7.5 3.1,-3.1 7.5,-3.1 4.4,0 7.55,3.1 3.1,3.1 3.1,7.5 l 0,9.05 q 1.85,-2.25 2.55,-4.95 0.35,-1.35 0.45,-2.8 z"
         id="path139"
         inkscape:connector-curvature="0"
         style="fill:#cccccc;stroke:none" />
      <path
         d="m 1232.95,616.15 q 0,-0.45 -0.05,-0.85 -0.3,-6.15 -4.65,-10.5 -4.75,-4.75 -11.45,-4.75 -6.65,0 -11.35,4.75 -4.45,4.35 -4.75,10.5 0,0.4 0,0.85 0,0.45 0,0.9 0.1,1.4 0.4,2.8 0.9,4.15 4.05,7.45 0.15,0.15 0.3,0.3 4.7,4.7 11.35,4.7 6.7,0 11.45,-4.7 0,-0.05 0.05,-0.05 3.3,-3.4 4.25,-7.7 0.3,-1.4 0.35,-2.8 0.05,-0.45 0.05,-0.9 m -2.5,0 q 0,0.45 0,0.9 -0.1,1.45 -0.45,2.8 -0.7,2.7 -2.55,4.95 -0.45,0.55 -0.95,1.05 -4.05,3.95 -9.7,3.95 -5.65,0 -9.6,-3.95 -0.55,-0.55 -1.05,-1.15 -1.8,-2.2 -2.5,-4.85 -0.4,-1.35 -0.45,-2.8 -0.05,-0.45 -0.05,-0.9 0,-0.45 0.05,-0.85 0.3,-5.1 4,-8.75 3.95,-4 9.6,-4 5.65,0 9.7,4 3.65,3.65 3.95,8.75 0,0.4 0,0.85 z"
         id="path141"
         inkscape:connector-curvature="0"
         style="fill:#ffffff;stroke:none" />
      <path
         d="m 1217.7,626.2 q 0,0.2 0.1,0.35 0.15,0.2 0.4,0.2 l 3.1,0 q 0.2,0 0.35,-0.2 0.2,-0.15 0.2,-0.35 0,-0.2 -0.2,-0.4 -0.15,-0.15 -0.35,-0.15 l -3.1,0 q -0.25,0 -0.4,0.15 -0.1,0.2 -0.1,0.4 m -1.65,-6.05 q -0.5,0 -0.9,0.35 -0.35,0.35 -0.35,0.85 0,0.55 0.35,0.9 0.4,0.35 0.9,0.35 0.55,0 0.85,-0.35 0.4,-0.35 0.4,-0.9 0,-0.5 -0.4,-0.85 -0.3,-0.35 -0.85,-0.35 m 7.45,0 q -0.55,0 -0.9,0.35 -0.35,0.35 -0.35,0.85 0,0.55 0.35,0.9 0.35,0.35 0.9,0.35 0.5,0 0.85,-0.35 0.4,-0.35 0.4,-0.9 0,-0.5 -0.4,-0.85 -0.35,-0.35 -0.85,-0.35 m -2.85,-1.75 q -0.35,-0.4 -0.85,-0.4 -0.55,0 -0.9,0.4 -0.35,0.35 -0.35,0.85 0,0.55 0.35,0.9 0.35,0.35 0.9,0.35 0.5,0 0.85,-0.35 0.35,-0.35 0.35,-0.9 0,-0.5 -0.35,-0.85 z"
         id="path143"
         inkscape:connector-curvature="0"
         style="fill:#4f719d;stroke:none" />
    </g>
  </defs>
  <g
     id="g5899"
     transform="translate(-1184.25,-592.575)">
    <g
       id="g1174">
      <use
         id="use1176"
         xlink:href="#Layer0_4_MEMBER_0_FILL"
         x="0"
         y="0"
         width="100%"
         height="100%" />
    </g>
    <g
       id="g1178">
      <use
         id="use1180"
         xlink:href="#Layer0_4_MEMBER_1_FILL"
         x="0"
         y="0"
         width="100%"
         height="100%" />
    </g>
  </g>
</svg>
