<?xml version="1.0" encoding="UTF-8" standalone="no"?>
<!-- Created with Inkscape (http://www.inkscape.org/) -->

<svg
   xmlns:dc="http://purl.org/dc/elements/1.1/"
   xmlns:cc="http://creativecommons.org/ns#"
   xmlns:rdf="http://www.w3.org/1999/02/22-rdf-syntax-ns#"
   xmlns:svg="http://www.w3.org/2000/svg"
   xmlns="http://www.w3.org/2000/svg"
   xmlns:sodipodi="http://sodipodi.sourceforge.net/DTD/sodipodi-0.dtd"
   xmlns:inkscape="http://www.inkscape.org/namespaces/inkscape"
   width="64"
   height="64"
   viewBox="0 0 16.933333 16.933334"
   version="1.1"
   id="svg5886"
   inkscape:version="0.92+devel unknown"
   sodipodi:docname="fish2.svg">
  <defs
     id="defs5880" />
  <sodipodi:namedview
     id="base"
     pagecolor="#ffffff"
     bordercolor="#666666"
     borderopacity="1.0"
     inkscape:pageopacity="0.0"
     inkscape:pageshadow="2"
     inkscape:zoom="3.3288417"
     inkscape:cx="129.58063"
     inkscape:cy="87.720324"
     inkscape:document-units="mm"
     inkscape:current-layer="layer1"
     inkscape:document-rotation="0"
     showgrid="false"
     units="px"
     inkscape:window-width="1848"
     inkscape:window-height="1056"
     inkscape:window-x="72"
     inkscape:window-y="0"
     inkscape:window-maximized="1" />
  <metadata
     id="metadata5883">
    <rdf:RDF>
      <cc:Work
         rdf:about="">
        <dc:format>image/svg+xml</dc:format>
        <dc:type
           rdf:resource="http://purl.org/dc/dcmitype/StillImage" />
        <dc:title></dc:title>
      </cc:Work>
    </rdf:RDF>
  </metadata>
  <g
     inkscape:label="Vrstva 1"
     inkscape:groupmode="layer"
     id="layer1"
     transform="translate(0,-280.06665)">
    <g
       id="g1176"
       transform="matrix(0.80946892,0,0,0.80946892,-25.800385,-34.332873)">
      <g
         transform="matrix(0.26458333,0,0,0.26458333,0,280.06665)"
         id="use1174">
        <path
           inkscape:connector-curvature="0"
           id="path4285"
           d="m 179.45,431.3 q 0,-1.5 -0.9,-2.35 -0.1,-0.05 -0.1,-0.1 -0.95,-0.85 -2.35,-0.85 -13.5,0.05 -23.9,7.75 h -0.05 q -1,0.75 -1.25,1.95 -0.25,0.95 0.1,1.95 0.05,0.1 0.1,0.2 l 0.75,1.6 q -0.95,0.55 -1.75,1.2 l -1.9,-1.85 v -0.05 q -4.4,-4.25 -8.75,0.05 l -6.35,6.2 v -0.05 q -2.2,2.15 -2.1,4.35 -0.1,2.2 2.1,4.35 l 6.35,6.2 q 4.35,4.25 8.75,0 l 1.9,-1.9 q 1.6,1.2 3.85,2.3 1.25,0.65 2.65,1.2 -0.1,0.85 0.4,1.7 0.4,1 1.35,1.5 h 0.05 q 7.65,4.1 18.15,3.15 h 0.05 q 1.05,-0.1 1.85,-0.8 0.05,-0.1 0.15,-0.1 0.65,-0.7 0.9,-1.75 0,-0.1 0.05,-0.15 l 0.3,-1.95 q 2.55,-1.1 4.65,-3.15 4.5,-4.4 4.5,-10.6 0,-6.25 -4.5,-10.6 -2.3,-2.25 -5.05,-3.3 v -6.1 M 176.1,430 q 0.6,0 1,0.35 0.35,0.35 0.35,0.95 v 7.5 q 3.15,0.9 5.65,3.3 3.9,3.8 3.9,9.2 0,5.35 -3.9,9.15 -2.25,2.25 -5.05,3.15 l -0.5,3.1 q -0.1,0.45 -0.4,0.75 -0.35,0.3 -0.8,0.35 -9.85,0.9 -17.05,-2.95 -0.4,-0.2 -0.55,-0.65 -0.25,-0.35 -0.15,-0.75 l 0.3,-1.3 q -2.15,-0.75 -4.1,-1.7 -3,-1.45 -4.8,-3.15 l -3.2,3.1 q -3,2.9 -5.95,0 l -6.35,-6.2 q -3,-2.9 0,-5.8 l 6.35,-6.2 q 2.95,-2.9 5.95,0 l 3.15,3.1 q 1.75,-1.6 4.5,-3 L 152.9,439 q -0.15,-0.45 -0.05,-0.9 0.1,-0.45 0.5,-0.75 9.9,-7.3 22.75,-7.35 z"
           stroke="none"
           fill="#1B7E44" />
        <path
           inkscape:connector-curvature="0"
           id="path4287"
           d="m 149.95,445.3 -3.15,-3.1 q -3,-2.9 -5.95,0 l -6.35,6.2 q -3,2.9 0,5.8 l 6.35,6.2 q 2.95,2.9 5.95,0 l 3.2,-3.1 q -2.9,-2.75 -2.9,-6 0,-3.3 2.85,-6 m 23.95,18.95 q -0.2,0 -0.4,0 -2.2,0 -4.2,-0.1 -5.7,-0.45 -10.4,-2 l -0.3,1.3 q -0.1,0.4 0.15,0.75 0.15,0.45 0.55,0.65 7.2,3.85 17.05,2.95 0.45,-0.05 0.8,-0.35 0.3,-0.3 0.4,-0.75 l 0.5,-3.1 q -1.95,0.65 -4.15,0.65 m -3.6,-11.05 q -2.8,-0.15 -5.55,-0.55 -4.4,-0.65 -8.75,-1.95 -0.4,-0.1 -0.75,0 -0.4,0.1 -0.65,0.4 -0.25,0.25 -0.3,0.65 l -0.35,2.7 q -0.05,0.4 0.1,0.7 0.15,0.4 0.55,0.55 5.55,2.9 11.9,4.1 1,0.15 2.05,0.3 0.5,0.05 0.9,-0.2 0.4,-0.2 0.55,-0.65 l 1.45,-4.4 q 0.1,-0.4 0.05,-0.75 -0.2,-0.4 -0.5,-0.65 -0.35,-0.25 -0.7,-0.25 m 6.8,-22.85 q -0.4,-0.35 -1,-0.35 -12.85,0.05 -22.75,7.35 -0.4,0.3 -0.5,0.75 -0.1,0.45 0.05,0.9 l 1.55,3.3 q 0.15,-0.1 0.35,-0.2 5.85,-2.85 13.5,-3.55 2.5,-0.25 5.2,-0.25 0.2,0 0.4,0 1.85,0.05 3.55,0.5 v -7.5 q 0,-0.6 -0.35,-0.95 z"
           stroke="none"
           fill="#2CC66D" />
        <path
           inkscape:connector-curvature="0"
           id="path4289"
           d="m 164.75,452.65 q -0.1,-0.95 -0.1,-1.95 0,-2.25 0.4,-4.3 0.75,-4.4 3.25,-7.85 -7.65,0.7 -13.5,3.55 -0.2,0.1 -0.35,0.2 -2.75,1.4 -4.5,3 -2.85,2.7 -2.85,6 0,3.25 2.9,6 1.8,1.7 4.8,3.15 1.95,0.95 4.1,1.7 4.7,1.55 10.4,2 -0.3,-0.4 -0.6,-0.75 -1.3,-1.7 -2.2,-3.6 -6.35,-1.2 -11.9,-4.1 -0.4,-0.15 -0.55,-0.55 -0.15,-0.3 -0.1,-0.7 l 0.35,-2.7 q 0.05,-0.4 0.3,-0.65 0.25,-0.3 0.65,-0.4 0.35,-0.1 0.75,0 4.35,1.3 8.75,1.95 z"
           stroke="none"
           fill="#27AE60" />
        <path
           inkscape:connector-curvature="0"
           id="path4291"
           d="m 173.9,438.3 q -0.2,0 -0.4,0 -2.7,0 -5.2,0.25 -2.5,3.45 -3.25,7.85 -0.4,2.05 -0.4,4.3 0,1 0.1,1.95 2.75,0.4 5.55,0.55 0.35,0 0.7,0.25 0.3,0.25 0.5,0.65 0.05,0.35 -0.05,0.75 l -1.45,4.4 q -0.15,0.45 -0.55,0.65 -0.4,0.25 -0.9,0.2 -1.05,-0.15 -2.05,-0.3 0.9,1.9 2.2,3.6 0.3,0.35 0.6,0.75 2,0.1 4.2,0.1 0.2,0 0.4,0 2.2,0 4.15,-0.65 2.8,-0.9 5.05,-3.15 3.9,-3.8 3.9,-9.15 0,-5.4 -3.9,-9.2 -2.5,-2.4 -5.65,-3.3 -1.7,-0.45 -3.55,-0.5 m 2.85,9.15 q 0.8,-0.8 1.9,-0.8 1.1,0 1.9,0.8 0.8,0.8 0.8,1.85 0,1.1 -0.8,1.85 -0.8,0.8 -1.9,0.8 -1.1,0 -1.9,-0.8 -0.8,-0.75 -0.8,-1.85 0,-1.05 0.8,-1.85 z"
           stroke="none"
           fill="#25A65B" />
        <path
           inkscape:connector-curvature="0"
           id="path4293"
           d="m 178.65,446.65 q -1.1,0 -1.9,0.8 -0.8,0.8 -0.8,1.85 0,1.1 0.8,1.85 0.8,0.8 1.9,0.8 1.1,0 1.9,-0.8 0.8,-0.75 0.8,-1.85 0,-1.05 -0.8,-1.85 -0.8,-0.8 -1.9,-0.8 z"
           stroke="none"
           fill="#1D8548" />
      </g>
    </g>
  </g>
</svg>
