<?xml version="1.0" encoding="UTF-8" standalone="no"?>
<!-- Created with Inkscape (http://www.inkscape.org/) -->

<svg
   xmlns:dc="http://purl.org/dc/elements/1.1/"
   xmlns:cc="http://creativecommons.org/ns#"
   xmlns:rdf="http://www.w3.org/1999/02/22-rdf-syntax-ns#"
   xmlns:svg="http://www.w3.org/2000/svg"
   xmlns="http://www.w3.org/2000/svg"
   xmlns:sodipodi="http://sodipodi.sourceforge.net/DTD/sodipodi-0.dtd"
   xmlns:inkscape="http://www.inkscape.org/namespaces/inkscape"
   version="1.1"
   id="svg1356"
   xml:space="preserve"
   width="166.35994"
   height="148.30804"
   viewBox="0 0 166.35994 148.30804"
   sodipodi:docname="l293d.svg"
   inkscape:version="0.92.4 (unknown)"><metadata
     id="metadata1362"><rdf:RDF><cc:Work
         rdf:about=""><dc:format>image/svg+xml</dc:format><dc:type
           rdf:resource="http://purl.org/dc/dcmitype/StillImage" /><dc:title></dc:title></cc:Work></rdf:RDF></metadata><defs
     id="defs1360"><clipPath
       clipPathUnits="userSpaceOnUse"
       id="clipPath1564"><path
         d="M 0,0 H 223.3 V 111.2 H 0 Z"
         id="path1562"
         inkscape:connector-curvature="0" /></clipPath><clipPath
       clipPathUnits="userSpaceOnUse"
       id="clipPath1690"><path
         d="M 0,0 H 93 V 23 H 0 Z"
         id="path1688"
         inkscape:connector-curvature="0" /></clipPath></defs><sodipodi:namedview
     pagecolor="#ffffff"
     bordercolor="#666666"
     borderopacity="1"
     objecttolerance="10"
     gridtolerance="10"
     guidetolerance="10"
     inkscape:pageopacity="0"
     inkscape:pageshadow="2"
     inkscape:window-width="1920"
     inkscape:window-height="990"
     id="namedview1358"
     showgrid="false"
     fit-margin-top="0"
     fit-margin-left="0"
     fit-margin-right="0"
     fit-margin-bottom="0"
     inkscape:zoom="3.0189394"
     inkscape:cx="96.985563"
     inkscape:cy="101.35436"
     inkscape:window-x="1920"
     inkscape:window-y="27"
     inkscape:window-maximized="1"
     inkscape:current-layer="g1364" /><g
     id="g1364"
     inkscape:groupmode="layer"
     inkscape:label="l293d"
     transform="matrix(1.3333333,0,0,-1.3333333,-324.5754,870.97479)"><g
       aria-label="GND"
       transform="scale(1,-1)"
       style="font-variant:normal;font-weight:normal;font-size:8.99985981px;font-family:ArialMT;-inkscape-font-specification:ArialMT;writing-mode:lr-tb;fill:#000000;fill-opacity:1;fill-rule:nonzero;stroke:none"
       id="text1596"><path
         d="m 352.61435,-594.27997 q -0.74266,0 -1.33591,-0.24609 -0.58886,-0.25048 -0.97557,-0.69432 -0.38232,-0.44824 -0.58886,-1.05907 -0.20215,-0.61083 -0.20215,-1.34031 0,-0.98436 0.37353,-1.74021 0.37353,-0.75585 1.1118,-1.1909 0.73827,-0.43505 1.749,-0.43505 1.12059,0 1.96872,0.50976 l -0.29004,0.62841 q -0.81737,-0.47021 -1.66989,-0.47021 -0.59326,0 -1.06346,0.20654 -0.46582,0.20214 -0.76464,0.56688 -0.29443,0.36035 -0.45263,0.85253 -0.15381,0.48778 -0.15381,1.07225 0,1.23924 0.61523,1.95993 0.61962,0.7163 1.8237,0.7163 0.68554,0 1.39305,-0.27685 v -1.85447 h -1.53367 l 0.0264,-0.66356 h 2.2192 v 2.97065 q -0.5537,0.26367 -1.07225,0.37793 -0.51415,0.10986 -1.17772,0.10986 z"
         style="font-style:normal;font-variant:normal;font-weight:normal;font-stretch:normal;font-family:Oxygen;-inkscape-font-specification:Oxygen"
         id="path2868" /><path
         d="m 361.32857,-594.37665 h -0.86131 l -3.37495,-5.11515 -0.21972,-0.30322 q 0.0351,0.92284 0.0351,1.64792 v 3.77045 h -0.7119 v -6.49941 h 0.84813 l 3.38374,5.11516 0.22412,0.30321 q -0.0308,-1.40183 -0.0308,-1.62155 v -3.79682 h 0.7075 z"
         style="font-style:normal;font-variant:normal;font-weight:normal;font-stretch:normal;font-family:Oxygen;-inkscape-font-specification:Oxygen"
         id="path2870" /><path
         d="m 367.38854,-597.61097 q 0,-1.36229 -0.70312,-1.98191 -0.70311,-0.61961 -2.04782,-0.61961 h -1.01951 v 5.17228 h 1.14695 q 1.28319,0 1.95115,-0.64599 0.67235,-0.65038 0.67235,-1.92477 z m 0.81297,-0.022 q 0,1.5864 -0.90086,2.42134 -0.90087,0.83495 -2.51363,0.83495 h -1.92917 v -6.49941 h 1.80173 q 0.81297,0 1.45456,0.19336 0.6416,0.18896 1.1118,0.58007 0.4746,0.38671 0.72509,1.01512 0.25048,0.62401 0.25048,1.45457 z"
         style="font-style:normal;font-variant:normal;font-weight:normal;font-stretch:normal;font-family:Oxygen;-inkscape-font-specification:Oxygen"
         id="path2872" /></g><path
       id="path1598"
       style="fill:#ffb380;stroke:#000000;stroke-width:0.96406001;stroke-linecap:round;stroke-linejoin:round;stroke-miterlimit:10;stroke-dasharray:none;stroke-opacity:1"
       d="m 311.345,652.693 v -3.798 c 0,-2.782 -2.196,-5.04 -4.902,-5.04 -2.705,0 -4.901,2.258 -4.904,5.04 l -0.003,3.798"
       inkscape:connector-curvature="0"
       sodipodi:nodetypes="csscc" /><path
       d="m 285.5492,542.70859 h 41.5562 v 109.814 h -41.5562 z"
       style="fill:none;stroke:#000000;stroke-width:1.41703999;stroke-linecap:round;stroke-linejoin:round;stroke-miterlimit:10;stroke-dasharray:none;stroke-opacity:1"
       id="path1600"
       inkscape:connector-curvature="0" /><path
       d="m 326.991,645.38 h 3.459 m 0,0 v -9.1839 m 0,0 h -3.459 m 0,0 v -3.2324 m 0,0 h 3.459 m 0,0 v -9.184 m 0,0 h -3.459 m 0,0 v -3.118 m 0,0 h 3.459 m 0,0 v -9.241 m 0,0 h -3.459 m 0,0 v -3.0051 m 0,0 h 3.459 m 0,0 v -9.2406 m 0,0 h -3.459 z m -3.459,0 h 3.459 z m 0,0.0566 v -3.0609 m 0,-0.057 h 3.459 m 0,0 v -9.241 m 0,0 h -3.459 m 0,0 v -3.175 m 0,0 h 3.459 m 0,0 v -9.2411 m 0,0 h -3.459 m 0,0 v -3.0605 m 0,0 h 3.459 m 0,0 v -9.2414 m 0,0 h -3.459 m 0,0 v -3.0051 m 0,0 h 3.459 m 0,0 v -9.24101 m 0,0 h -3.459 z m -3.459,0 h 3.459 z m 0,0 v -3.00507 M 285.4352,645.38 h -3.4579 m 0,0 v -9.1839 m 0,0 h 3.4579 m 0,0 v -3.2324 m 0,0 h -3.4579 m 0,0 v -9.184 m 0,0 h 3.4579 m 0,0 v -3.118 m 0,0 h -3.4579 m 0,0 v -9.241 m 0,0 h 3.4579 m 0,0 v -3.0051 m 0,0 h -3.4579 m 0,0 v -9.2406 m 0,0 h 3.4579 z m 3.4579,0 h -3.4579 z m 0,0.0566 v -3.0609 m 0,-0.057 h -3.4579 m 0,0 v -9.241 m 0,0 h 3.4579 m 0,0 v -3.175 m 0,0 h -3.4579 m 0,0 v -9.2411 m 0,0 h 3.4579 m 0,0 v -3.0605 m 0,0 h -3.4579 m 0,0 v -9.2414 m 0,0 h 3.4579 m 0,0 v -3.0051 m 0,0 h -3.4579 v -9.24101 m 0,0 h 3.4579 z m 3.4579,0 h -3.4579 z m 0,0 v -3.00507"
       style="fill:none;stroke:#000000;stroke-width:0.96406001;stroke-linecap:round;stroke-linejoin:round;stroke-miterlimit:10;stroke-dasharray:none;stroke-opacity:1"
       id="path1676"
       inkscape:connector-curvature="0" /><g
       id="g1698" /><g
       aria-label="1
2
3
4
5
6
7
8"
       transform="scale(1,-1)"
       style="font-style:normal;font-variant:normal;font-weight:normal;font-stretch:normal;font-size:16px;line-height:0.77999997;font-family:Oxygen;-inkscape-font-specification:Oxygen;letter-spacing:0px;word-spacing:0px;fill:#000000;fill-opacity:1;stroke:none;stroke-width:0.75"
       id="text2374"><path
         d="m 290.40057,-645.77399 h 0.77637 v 7.30469 h -0.86426 v -6.40137 q -0.49316,0.32227 -1.20605,0.55176 v -0.81543 q 0.0781,-0.0342 0.31738,-0.13672 0.23926,-0.10254 0.35645,-0.15625 0.12207,-0.0537 0.30273,-0.15136 0.18066,-0.0977 0.31738,-0.19532 z"
         style="font-size:10px;line-height:0.77999997;stroke-width:0.75"
         id="path2820" /><path
         d="m 289.47772,-625.9893 -0.1123,-0.80078 2.52441,-2.80274 q 0.25391,-0.2832 0.48828,-0.73242 0.23926,-0.44922 0.34668,-0.76172 l 0.11231,-0.30761 q 0,-0.60547 -0.33692,-0.9375 -0.33691,-0.33692 -0.95703,-0.33692 -1.03515,0 -1.63086,0.60059 l -0.2832,-0.73242 q 0.67383,-0.63477 1.97266,-0.63477 0.99609,0 1.58691,0.54199 0.59082,0.53711 0.59082,1.44043 -0.0195,0.0684 -0.0586,0.18555 -0.0391,0.1123 -0.1709,0.44434 -0.12696,0.33203 -0.26856,0.62988 -0.1416,0.29785 -0.36133,0.6543 -0.21484,0.35644 -0.43945,0.5957 l -2.06055,2.20215 h 3.38379 l -0.0537,0.75195 z"
         style="font-size:10px;line-height:0.77999997;stroke-width:0.75"
         id="path2822" /><path
         d="m 291.34784,-613.397 q -0.6543,0 -1.16699,-0.17089 -0.50782,-0.1709 -0.74219,-0.39551 l 0.27344,-0.71778 q 0.68847,0.542 1.64062,0.542 0.73242,0 1.16211,-0.36133 0.43457,-0.36621 0.43457,-1.02051 0,-0.35644 -0.1123,-0.62012 -0.10742,-0.26855 -0.29297,-0.42968 -0.18067,-0.16602 -0.46875,-0.26368 -0.2832,-0.10253 -0.58594,-0.1416 -0.29785,-0.0439 -0.69336,-0.0537 -0.0488,0 -0.14648,0 -0.0977,-0.005 -0.14649,-0.005 v -0.72754 h 0.24414 q 0.3418,-0.005 0.60059,-0.0342 0.26367,-0.0342 0.52246,-0.11719 0.26367,-0.083 0.43457,-0.21972 0.1709,-0.13672 0.27832,-0.36621 0.10742,-0.2295 0.10742,-0.542 0,-1.17187 -1.34277,-1.17187 -0.4834,0 -0.9082,0.1416 -0.42481,0.1416 -0.72754,0.38086 l -0.27344,-0.71289 q 0.72754,-0.55176 2.09473,-0.55176 0.55175,0 1.0205,0.20508 0.46875,0.20019 0.77149,0.62012 0.30273,0.41504 0.30273,0.97656 0,0.68359 -0.33691,1.12305 -0.33692,0.43945 -0.94727,0.62988 0.6836,0.14648 1.06934,0.63965 0.39062,0.49316 0.39062,1.25 0,0.96191 -0.68847,1.53808 -0.68848,0.57617 -1.76758,0.57617 z"
         style="font-size:10px;line-height:0.77999997;stroke-width:0.75"
         id="path2824" /><path
         d="m 294.40448,-602.84082 h -0.83008 v 1.81152 h -0.82031 v -1.81152 h -3.30078 v -0.74707 l 3.20801,-4.7461 h 0.91308 v 4.78516 h 0.89844 z m -1.65039,-4.38477 -2.44141,3.67676 h 2.44141 z"
         style="font-size:10px;line-height:0.77999997;stroke-width:0.75"
         id="path2826" /><path
         d="m 293.82831,-595.85399 -0.0684,0.80078 h -2.9834 q -0.0488,1.4209 -0.0732,2.29981 0.55176,-0.35157 1.19629,-0.35157 0.54199,0 0.96679,0.17579 0.42969,0.17089 0.69825,0.47363 0.27343,0.30273 0.41504,0.70801 0.1416,0.40039 0.1416,0.86914 0,1.1084 -0.71289,1.77734 -0.70801,0.66406 -1.92871,0.66406 -1.22559,0 -1.9629,-0.66894 l 0.31739,-0.68848 q 0.72265,0.56641 1.6748,0.56641 0.80078,0 1.26465,-0.4541 0.46387,-0.45411 0.46387,-1.18653 0,-0.65429 -0.39063,-1.05957 -0.39062,-0.41015 -1.11328,-0.41015 -0.72265,0 -1.16211,0.48339 l -0.67871,-0.0928 0.19043,-3.90625 z"
         style="font-size:10px;line-height:0.77999997;stroke-width:0.75"
         id="path2828" /><path
         d="m 292.03632,-580.56637 q 0.61523,0 1.13769,0.29297 0.52246,0.28808 0.83984,0.82519 0.31739,0.53223 0.31739,1.18653 0,0.99609 -0.67383,1.65039 -0.66895,0.65429 -1.76758,0.65429 -0.57129,0 -1.04492,-0.19043 -0.46875,-0.19531 -0.77637,-0.52246 -0.30273,-0.33203 -0.47363,-0.7666 -0.16602,-0.43945 -0.16602,-0.9375 0,-0.7959 0.28809,-1.4209 0.29297,-0.62988 1.05469,-1.59179 0.18554,-0.23438 0.58593,-0.72266 0.4004,-0.48828 0.7129,-0.85938 l 0.30761,-0.37109 h 1.12793 l -2.56836,3.06641 q 0.55176,-0.29297 1.09864,-0.29297 z m -1.68457,2.28515 q 0,0.43457 0.16113,0.78614 0.16601,0.35156 0.51269,0.57617 0.35157,0.21973 0.83496,0.21973 0.72266,0 1.13282,-0.44434 0.41504,-0.44434 0.41504,-1.10352 0,-0.69336 -0.41504,-1.13769 -0.41016,-0.44922 -1.13282,-0.44922 -0.7666,0 -1.13769,0.43457 -0.37109,0.43457 -0.37109,1.11816 z"
         style="font-size:10px;line-height:0.77999997;stroke-width:0.75"
         id="path2830" /><path
         d="m 290.20038,-563.5893 2.50976,-6.54785 h -3.29589 l 0.0537,-0.75684 h 4.23339 v 0.66406 l -2.6123,6.64063 z"
         style="font-size:10px;line-height:0.77999997;stroke-width:0.75"
         id="path2832" /><path
         d="m 291.82635,-550.997 q -0.66406,0 -1.20117,-0.21972 -0.53222,-0.22461 -0.86425,-0.6836 -0.33204,-0.45898 -0.33204,-1.08887 0,-0.69824 0.40039,-1.21582 0.4004,-0.51757 1.11817,-0.75195 -1.36719,-0.4834 -1.36719,-1.75781 0,-0.86426 0.625,-1.35254 0.625,-0.48828 1.62109,-0.48828 0.99122,0 1.60645,0.48828 0.61523,0.48828 0.61523,1.35254 0,0.64453 -0.33203,1.08398 -0.33203,0.43946 -0.92773,0.67383 0.65918,0.23438 1.03516,0.75195 0.37597,0.51758 0.37597,1.21582 0,0.9375 -0.67871,1.46485 -0.67383,0.52734 -1.69434,0.52734 z m 0,-3.54492 q -0.69824,0.16113 -1.11816,0.54199 -0.41992,0.37598 -0.41992,0.95215 0,0.60059 0.43457,0.95703 0.43457,0.35156 1.10351,0.35156 0.66895,0 1.08887,-0.35156 0.42481,-0.35644 0.42481,-0.95703 0,-0.58105 -0.41016,-0.95703 -0.41016,-0.38086 -1.10352,-0.53711 z m 0,-3.27148 q -0.57617,0 -0.98144,0.28808 -0.40039,0.28809 -0.40039,0.79102 0,1.15234 1.38183,1.45996 1.36231,-0.30762 1.36231,-1.45996 0,-0.50293 -0.39551,-0.79102 -0.39551,-0.28808 -0.9668,-0.28808 z"
         style="font-size:10px;line-height:0.77999997;stroke-width:0.75"
         id="path2834" /></g><g
       aria-label="16
15
14
13
12
11
10
9"
       transform="scale(1,-1)"
       style="font-style:normal;font-variant:normal;font-weight:normal;font-stretch:normal;font-size:16px;line-height:0.77999997;font-family:Oxygen;-inkscape-font-specification:Oxygen;text-align:end;letter-spacing:0px;word-spacing:0px;text-anchor:end;fill:#000000;fill-opacity:1;stroke:none;stroke-width:0.75"
       id="text2406"><path
         d="m 316.40436,-645.52557 h 0.77637 v 7.30468 h -0.86426 v -6.40136 q -0.49317,0.32226 -1.20606,0.55175 v -0.81543 q 0.0781,-0.0342 0.31739,-0.13671 0.23925,-0.10254 0.35644,-0.15625 0.12207,-0.0537 0.30274,-0.15137 0.18066,-0.0977 0.31738,-0.19531 z"
         style="font-size:10px;line-height:0.77999997;text-align:end;text-anchor:end;stroke-width:0.75"
         id="path2837" /><path
         d="m 321.10651,-642.71796 q 0.61523,0 1.13769,0.29297 0.52246,0.28809 0.83985,0.8252 0.31738,0.53222 0.31738,1.18652 0,0.99609 -0.67383,1.65039 -0.66895,0.6543 -1.76758,0.6543 -0.57129,0 -1.04492,-0.19043 -0.46875,-0.19531 -0.77637,-0.52246 -0.30273,-0.33203 -0.47363,-0.7666 -0.16602,-0.43946 -0.16602,-0.9375 0,-0.7959 0.28809,-1.4209 0.29297,-0.62988 1.05469,-1.5918 0.18554,-0.23437 0.58594,-0.72266 0.40039,-0.48828 0.71289,-0.85937 l 0.30761,-0.37109 h 1.12793 l -2.56836,3.0664 q 0.55176,-0.29297 1.09864,-0.29297 z m -1.68457,2.28516 q 0,0.43457 0.16113,0.78613 0.16601,0.35157 0.51269,0.57617 0.35157,0.21973 0.83497,0.21973 0.72265,0 1.13281,-0.44433 0.41504,-0.44434 0.41504,-1.10352 0,-0.69336 -0.41504,-1.1377 -0.41016,-0.44921 -1.13281,-0.44921 -0.76661,0 -1.1377,0.43457 -0.37109,0.43457 -0.37109,1.11816 z"
         style="font-size:10px;line-height:0.77999997;text-align:end;text-anchor:end;stroke-width:0.75"
         id="path2839" /><path
         d="m 316.52155,-633.04557 h 0.77636 v 7.30468 h -0.86426 v -6.40136 q -0.49316,0.32226 -1.20605,0.55175 v -0.81543 q 0.0781,-0.0342 0.31738,-0.13671 0.23926,-0.10254 0.35645,-0.15625 0.12207,-0.0537 0.30273,-0.15137 0.18067,-0.0977 0.31739,-0.19531 z"
         style="font-size:10px;line-height:0.77999997;text-align:end;text-anchor:end;stroke-width:0.75"
         id="path2841" /><path
         d="m 323.01569,-633.04557 -0.0684,0.80078 h -2.9834 q -0.0488,1.4209 -0.0732,2.2998 0.55175,-0.35156 1.19629,-0.35156 0.54199,0 0.96679,0.17578 0.42969,0.1709 0.69824,0.47363 0.27344,0.30274 0.41504,0.70801 0.1416,0.40039 0.1416,0.86914 0,1.1084 -0.71289,1.77735 -0.708,0.66406 -1.92871,0.66406 -1.22558,0 -1.96289,-0.66895 l 0.31739,-0.68847 q 0.72265,0.5664 1.6748,0.5664 0.80078,0 1.26465,-0.4541 0.46387,-0.4541 0.46387,-1.18652 0,-0.6543 -0.39063,-1.05957 -0.39062,-0.41016 -1.11328,-0.41016 -0.72266,0 -1.16211,0.4834 l -0.67871,-0.0928 0.19043,-3.90625 z"
         style="font-size:10px;line-height:0.77999997;text-align:end;text-anchor:end;stroke-width:0.75"
         id="path2843" /><path
         d="m 316.34576,-620.56557 h 0.77637 v 7.30468 h -0.86426 v -6.40136 q -0.49316,0.32226 -1.20605,0.55175 v -0.81543 q 0.0781,-0.0342 0.31738,-0.13671 0.23926,-0.10254 0.35645,-0.15625 0.12207,-0.0537 0.30273,-0.15137 0.18067,-0.0977 0.31738,-0.19531 z"
         style="font-size:10px;line-height:0.77999997;text-align:end;text-anchor:end;stroke-width:0.75"
         id="path2845" /><path
         d="M 323.41608,-615.07241 H 322.586 v 1.81152 h -0.82031 v -1.81152 h -3.30079 v -0.74707 l 3.20801,-4.74609 h 0.91309 v 4.78515 h 0.89844 z m -1.65039,-4.38477 -2.44141,3.67676 h 2.44141 z"
         style="font-size:10px;line-height:0.77999997;text-align:end;text-anchor:end;stroke-width:0.75"
         id="path2847" /><path
         d="m 316.87311,-608.08558 h 0.77637 v 7.30469 h -0.86426 v -6.40136 q -0.49317,0.32226 -1.20606,0.55175 v -0.81543 q 0.0781,-0.0342 0.31739,-0.13672 0.23925,-0.10253 0.35644,-0.15625 0.12207,-0.0537 0.30274,-0.15136 0.18066,-0.0977 0.31738,-0.19532 z"
         style="font-size:10px;line-height:0.77999997;text-align:end;text-anchor:end;stroke-width:0.75"
         id="path2849" /><path
         d="m 320.88678,-600.66858 q -0.6543,0 -1.16699,-0.1709 -0.50781,-0.1709 -0.74219,-0.39551 l 0.27344,-0.71777 q 0.68847,0.54199 1.64062,0.54199 0.73242,0 1.16211,-0.36133 0.43457,-0.36621 0.43457,-1.02051 0,-0.35644 -0.1123,-0.62011 -0.10742,-0.26856 -0.29297,-0.42969 -0.18067,-0.16602 -0.46875,-0.26367 -0.2832,-0.10254 -0.58594,-0.1416 -0.29785,-0.044 -0.69336,-0.0537 -0.0488,0 -0.14648,0 -0.0977,-0.005 -0.14649,-0.005 v -0.72754 h 0.24414 q 0.3418,-0.005 0.60059,-0.0342 0.26367,-0.0342 0.52246,-0.11718 0.26367,-0.083 0.43457,-0.21973 0.1709,-0.13672 0.27832,-0.36621 0.10742,-0.22949 0.10742,-0.54199 0,-1.17188 -1.34277,-1.17188 -0.4834,0 -0.9082,0.1416 -0.42481,0.1416 -0.72754,0.38086 l -0.27344,-0.71289 q 0.72754,-0.55176 2.09473,-0.55176 0.55175,0 1.0205,0.20508 0.46875,0.2002 0.77149,0.62012 0.30273,0.41504 0.30273,0.97656 0,0.68359 -0.33691,1.12305 -0.33691,0.43945 -0.94727,0.62988 0.6836,0.14649 1.06934,0.63965 0.39062,0.49316 0.39062,1.25 0,0.96191 -0.68847,1.53809 -0.68848,0.57617 -1.76758,0.57617 z"
         style="font-size:10px;line-height:0.77999997;text-align:end;text-anchor:end;stroke-width:0.75"
         id="path2851" /><path
         d="m 316.81451,-595.60558 h 0.77637 v 7.30469 h -0.86426 v -6.40137 q -0.49316,0.32227 -1.20605,0.55176 v -0.81543 q 0.0781,-0.0342 0.31738,-0.13672 0.23926,-0.10253 0.35645,-0.15625 0.12207,-0.0537 0.30273,-0.15136 0.18067,-0.0977 0.31738,-0.19532 z"
         style="font-size:10px;line-height:0.77999997;text-align:end;text-anchor:end;stroke-width:0.75"
         id="path2853" /><path
         d="m 318.95807,-588.30089 -0.11231,-0.80078 2.52442,-2.80273 q 0.2539,-0.28321 0.48828,-0.73243 0.23926,-0.44921 0.34668,-0.76171 l 0.1123,-0.30762 q 0,-0.60547 -0.33691,-0.9375 -0.33691,-0.33692 -0.95703,-0.33692 -1.03516,0 -1.63086,0.60059 l -0.2832,-0.73242 q 0.67382,-0.63477 1.97265,-0.63477 0.9961,0 1.58692,0.542 0.59082,0.5371 0.59082,1.44042 -0.0195,0.0684 -0.0586,0.18555 -0.0391,0.11231 -0.1709,0.44434 -0.12695,0.33203 -0.26855,0.62988 -0.1416,0.29785 -0.36133,0.6543 -0.21484,0.35644 -0.43945,0.5957 l -2.06055,2.20215 h 3.38379 l -0.0537,0.75195 z"
         style="font-size:10px;line-height:0.77999997;text-align:end;text-anchor:end;stroke-width:0.75"
         id="path2855" /><path
         d="m 319.19733,-583.12558 h 0.77636 v 7.30469 h -0.86425 v -6.40137 q -0.49317,0.32227 -1.20606,0.55176 v -0.81543 q 0.0781,-0.0342 0.31738,-0.13672 0.23926,-0.10254 0.35645,-0.15625 0.12207,-0.0537 0.30273,-0.15136 0.18067,-0.0977 0.31739,-0.19532 z"
         style="font-size:10px;line-height:0.77999997;text-align:end;text-anchor:end;stroke-width:0.75"
         id="path2857" /><path
         d="m 322.26373,-583.12558 h 0.77637 v 7.30469 h -0.86426 v -6.40137 q -0.49316,0.32227 -1.20605,0.55176 v -0.81543 q 0.0781,-0.0342 0.31738,-0.13672 0.23926,-0.10254 0.35645,-0.15625 0.12207,-0.0537 0.30273,-0.15136 0.18066,-0.0977 0.31738,-0.19532 z"
         style="font-size:10px;line-height:0.77999997;text-align:end;text-anchor:end;stroke-width:0.75"
         id="path2859" /><path
         d="m 316.20905,-570.64558 h 0.77636 v 7.30469 h -0.86426 v -6.40137 q -0.49316,0.32227 -1.20605,0.55176 v -0.81543 q 0.0781,-0.0342 0.31738,-0.13672 0.23926,-0.10254 0.35645,-0.15625 0.12207,-0.0537 0.30273,-0.15136 0.18067,-0.0977 0.31739,-0.19532 z"
         style="font-size:10px;line-height:0.77999997;text-align:end;text-anchor:end;stroke-width:0.75"
         id="path2861" /><path
         d="m 321.97076,-563.51179 q -0.48339,0.28321 -1.13281,0.28321 -0.64941,0 -1.13769,-0.28321 -0.48828,-0.28808 -0.78614,-0.80566 -0.29297,-0.51758 -0.43945,-1.19141 -0.1416,-0.67383 -0.1416,-1.49902 0,-0.67871 0.0928,-1.25488 0.0977,-0.57618 0.29785,-1.04493 0.2002,-0.46875 0.49317,-0.79589 0.29785,-0.32715 0.70801,-0.50293 0.41015,-0.18067 0.91308,-0.18067 0.625,0 1.10352,0.27344 0.4834,0.27344 0.78125,0.78125 0.30273,0.50293 0.4541,1.19141 0.15137,0.68359 0.15137,1.5332 0,0.82519 -0.14161,1.49902 -0.1416,0.67383 -0.43457,1.19141 -0.29296,0.51758 -0.78125,0.80566 z m -0.27832,-6.13769 q -0.35644,-0.39551 -0.85449,-0.39551 -0.49805,0 -0.85449,0.39551 -0.35645,0.39062 -0.53711,1.06445 -0.17578,0.66895 -0.17578,1.54785 0,0.89356 0.17578,1.58203 0.18066,0.6836 0.53711,1.08399 0.35644,0.40039 0.85449,0.40039 0.49805,0 0.85449,-0.40039 0.35645,-0.40039 0.53223,-1.08399 0.18066,-0.68847 0.18066,-1.58203 0,-0.8789 -0.18066,-1.54785 -0.17578,-0.67383 -0.53223,-1.06445 z"
         style="font-size:10px;line-height:0.77999997;text-align:end;text-anchor:end;stroke-width:0.75"
         id="path2863" /><path
         d="m 320.88678,-553.78081 q -0.62012,0 -1.14258,-0.26856 -0.51758,-0.27343 -0.83496,-0.78613 -0.31738,-0.51269 -0.31738,-1.16699 0,-0.99609 0.68359,-1.65039 0.6836,-0.6543 1.78711,-0.6543 0.57129,0 1.03516,0.18555 0.46875,0.18066 0.7666,0.50293 0.30273,0.31738 0.46387,0.74707 0.16601,0.4248 0.16601,0.92285 0,0.69824 -0.23926,1.26465 -0.23925,0.5664 -0.82519,1.3623 -0.20996,0.27832 -0.70313,0.89356 -0.48828,0.61523 -0.87402,1.08886 l -0.38574,0.47852 h -1.07422 l 2.59277,-3.21289 q -0.55176,0.29297 -1.09863,0.29297 z m 1.68457,-2.26074 q 0,-0.66895 -0.38086,-1.09375 -0.37598,-0.42969 -1.09863,-0.42969 -0.72754,0 -1.15235,0.44922 -0.4248,0.44433 -0.4248,1.09863 0,0.68359 0.41016,1.09375 0.41015,0.41016 1.13769,0.41016 0.77149,0 1.1377,-0.42481 0.37109,-0.4248 0.37109,-1.10351 z"
         style="font-size:10px;line-height:0.77999997;text-align:end;text-anchor:end;stroke-width:0.75"
         id="path2865" /></g><g
       aria-label="GND"
       transform="scale(1,-1)"
       style="font-variant:normal;font-weight:normal;font-size:8.99985981px;font-family:ArialMT;-inkscape-font-specification:ArialMT;text-align:end;writing-mode:lr-tb;text-anchor:end;fill:#000000;fill-opacity:1;fill-rule:nonzero;stroke:none"
       id="text2470"><path
         d="m 247.29319,-593.81323 q -0.74267,0 -1.33592,-0.24609 -0.58886,-0.25049 -0.97557,-0.69433 -0.38232,-0.44823 -0.58886,-1.05906 -0.20214,-0.61083 -0.20214,-1.34032 0,-0.98436 0.37353,-1.7402 0.37353,-0.75585 1.1118,-1.1909 0.73827,-0.43505 1.74899,-0.43505 1.12059,0 1.96872,0.50975 l -0.29003,0.62841 q -0.81737,-0.47021 -1.6699,-0.47021 -0.59325,0 -1.06346,0.20654 -0.46581,0.20215 -0.76463,0.56689 -0.29443,0.36035 -0.45263,0.85253 -0.15381,0.48778 -0.15381,1.07224 0,1.23924 0.61522,1.95993 0.61962,0.7163 1.82371,0.7163 0.68553,0 1.39304,-0.27685 v -1.85446 h -1.53367 l 0.0264,-0.66357 h 2.2192 v 2.97066 q -0.5537,0.26367 -1.07225,0.37792 -0.51415,0.10987 -1.17771,0.10987 z"
         style="font-style:normal;font-variant:normal;font-weight:normal;font-stretch:normal;font-family:Oxygen;-inkscape-font-specification:Oxygen;text-align:end;text-anchor:end"
         id="path2774" /><path
         d="m 256.00741,-593.90991 h -0.86132 l -3.37494,-5.11516 -0.21973,-0.30321 q 0.0352,0.92283 0.0352,1.64792 v 3.77045 h -0.7119 v -6.49941 h 0.84813 l 3.38373,5.11515 0.22412,0.30322 q -0.0308,-1.40183 -0.0308,-1.62156 v -3.79681 h 0.70751 z"
         style="font-style:normal;font-variant:normal;font-weight:normal;font-stretch:normal;font-family:Oxygen;-inkscape-font-specification:Oxygen;text-align:end;text-anchor:end"
         id="path2776" /><path
         d="m 262.06737,-597.14424 q 0,-1.36228 -0.70311,-1.9819 -0.70312,-0.61962 -2.04782,-0.61962 h -1.01952 v 5.17228 h 1.14696 q 1.28318,0 1.95114,-0.64598 0.67235,-0.65038 0.67235,-1.92478 z m 0.81298,-0.022 q 0,1.5864 -0.90087,2.42135 -0.90086,0.83495 -2.51363,0.83495 h -1.92917 v -6.49941 h 1.80173 q 0.81298,0 1.45457,0.19335 0.64159,0.18897 1.1118,0.58007 0.4746,0.38672 0.72508,1.01512 0.25049,0.62402 0.25049,1.45457 z"
         style="font-style:normal;font-variant:normal;font-weight:normal;font-stretch:normal;font-family:Oxygen;-inkscape-font-specification:Oxygen;text-align:end;text-anchor:end"
         id="path2778" /></g><path
       id="path2474"
       style="fill:none;stroke:#000000;stroke-width:0.75px;stroke-linecap:butt;stroke-linejoin:miter;stroke-opacity:1"
       d="m 277.74655,584.75035 c -8.65044,-0.19257 -6.23719,12.30162 -12.91844,12.17315 m 12.91844,12.17315 c -8.65044,0.19257 -6.23719,-12.30162 -12.91844,-12.17315"
       inkscape:connector-curvature="0" /><path
       inkscape:connector-curvature="0"
       d="m 333.77882,585.18951 c 8.65044,-0.19257 6.23719,12.30162 12.91844,12.17315 m -12.91844,12.17315 c 8.65044,0.19257 6.23719,-12.30162 12.91844,-12.17315"
       style="fill:none;stroke:#000000;stroke-width:0.75px;stroke-linecap:butt;stroke-linejoin:miter;stroke-opacity:1"
       id="path2477" /><g
       aria-label="1,2EN
1A
1Y


2Y
2A
Vpower"
       transform="scale(1,-1)"
       style="font-style:normal;font-variant:normal;font-weight:normal;font-stretch:normal;font-size:16px;line-height:0.77999997;font-family:Oxygen;-inkscape-font-specification:Oxygen;text-align:end;letter-spacing:0px;word-spacing:0px;text-anchor:end;fill:#000000;fill-opacity:1;stroke:none;stroke-width:0.75"
       id="text2556"><path
         d="m 256.57733,-644.78027 h 0.77637 v 7.30468 h -0.86426 v -6.40136 q -0.49316,0.32226 -1.20605,0.55175 v -0.81542 q 0.0781,-0.0342 0.31738,-0.13672 0.23926,-0.10254 0.35644,-0.15625 0.12207,-0.0537 0.30274,-0.15137 0.18066,-0.0977 0.31738,-0.19531 z"
         style="font-size:10px;line-height:0.77999997;text-align:end;text-anchor:end;stroke-width:0.75"
         id="path2781" /><path
         d="m 258.70135,-636.11816 q 0.0147,-0.14161 0.083,-0.75196 0.0732,-0.60547 0.11231,-1.0205 0.0391,-0.41504 0.0586,-0.72754 h 0.96192 v 0.21484 q -0.23926,0.9668 -0.70313,2.28516 z"
         style="font-size:10px;line-height:0.77999997;text-align:end;text-anchor:end;stroke-width:0.75"
         id="path2783" /><path
         d="m 261.18182,-637.47559 -0.1123,-0.80078 2.52441,-2.80273 q 0.25391,-0.2832 0.48828,-0.73242 0.23926,-0.44922 0.34668,-0.76172 l 0.11231,-0.30762 q 0,-0.60547 -0.33692,-0.9375 -0.33691,-0.33691 -0.95703,-0.33691 -1.03515,0 -1.63086,0.60058 l -0.2832,-0.73242 q 0.67383,-0.63476 1.97266,-0.63476 0.99609,0 1.58691,0.54199 0.59082,0.53711 0.59082,1.44043 -0.0195,0.0684 -0.0586,0.18554 -0.0391,0.11231 -0.1709,0.44434 -0.12695,0.33203 -0.26856,0.62988 -0.1416,0.29785 -0.36132,0.6543 -0.21485,0.35644 -0.43946,0.5957 l -2.06054,2.20215 h 3.38379 l -0.0537,0.75195 z"
         style="font-size:10px;line-height:0.77999997;text-align:end;text-anchor:end;stroke-width:0.75"
         id="path2785" /><path
         d="m 266.92889,-637.47559 v -7.22168 h 4.14063 l -0.0342,0.74707 h -3.26172 v 2.36329 h 3.10059 v 0.7373 h -3.10059 v 2.62695 h 3.36914 l -0.0391,0.74707 z"
         style="font-size:10px;line-height:0.77999997;text-align:end;text-anchor:end;stroke-width:0.75"
         id="path2787" /><path
         d="m 278.21796,-637.47559 h -0.95703 l -3.75,-5.68359 -0.24415,-0.33691 q 0.0391,1.02539 0.0391,1.83105 v 4.18945 h -0.79102 v -7.22168 h 0.94238 l 3.75977,5.6836 0.24902,0.33691 q -0.0342,-1.55761 -0.0342,-1.80176 v -4.21875 h 0.78614 z"
         style="font-size:10px;line-height:0.77999997;text-align:end;text-anchor:end;stroke-width:0.75"
         id="path2789" /><path
         d="m 271.10858,-632.30027 h 0.77637 v 7.30468 h -0.86426 v -6.40136 q -0.49316,0.32226 -1.20605,0.55175 v -0.81543 q 0.0781,-0.0342 0.31738,-0.13671 0.23926,-0.10254 0.35644,-0.15625 0.12207,-0.0537 0.30274,-0.15137 0.18066,-0.0977 0.31738,-0.19531 z"
         style="font-size:10px;line-height:0.77999997;text-align:end;text-anchor:end;stroke-width:0.75"
         id="path2791" /><path
         d="m 277.05585,-627.99363 q -1.03028,-2.99317 -1.1377,-3.36426 0,0 -1.18652,3.36426 z m 1.11816,2.99804 -0.84473,-2.29004 h -2.88085 l -0.87403,2.29004 h -0.85937 l 2.77343,-7.23632 h 0.86426 l 2.69043,7.23632 z"
         style="font-size:10px;line-height:0.77999997;text-align:end;text-anchor:end;stroke-width:0.75"
         id="path2793" /><path
         d="m 271.63593,-619.82027 h 0.77636 v 7.30468 h -0.86426 v -6.40136 q -0.49316,0.32226 -1.20605,0.55175 v -0.81543 q 0.0781,-0.0342 0.31738,-0.13671 0.23926,-0.10254 0.35645,-0.15625 0.12207,-0.0537 0.30273,-0.15137 0.18067,-0.0977 0.31739,-0.19531 z"
         style="font-size:10px;line-height:0.77999997;text-align:end;text-anchor:end;stroke-width:0.75"
         id="path2795" /><path
         d="m 276.11346,-616.19723 2.03125,-3.54004 h 0.91797 l -2.54883,4.34082 v 2.88086 h -0.85449 v -2.86132 l -2.43652,-4.36036 h 0.91309 z"
         style="font-size:10px;line-height:0.77999997;text-align:end;text-anchor:end;stroke-width:0.75"
         id="path2797" /><path
         d="m 268.33026,-575.07559 -0.1123,-0.80078 2.52441,-2.80273 q 0.25391,-0.28321 0.48828,-0.73243 0.23926,-0.44921 0.34668,-0.76171 l 0.11231,-0.30762 q 0,-0.60547 -0.33692,-0.9375 -0.33691,-0.33692 -0.95703,-0.33692 -1.03516,0 -1.63086,0.60059 l -0.2832,-0.73242 q 0.67383,-0.63477 1.97265,-0.63477 0.9961,0 1.58692,0.54199 0.59082,0.53711 0.59082,1.44043 -0.0195,0.0684 -0.0586,0.18555 -0.0391,0.11231 -0.1709,0.44434 -0.12696,0.33203 -0.26856,0.62988 -0.1416,0.29785 -0.36133,0.6543 -0.21484,0.35644 -0.43945,0.5957 l -2.06055,2.20215 h 3.38379 l -0.0537,0.75195 z"
         style="font-size:10px;line-height:0.77999997;text-align:end;text-anchor:end;stroke-width:0.75"
         id="path2799" /><path
         d="m 276.11346,-578.75723 2.03125,-3.54004 h 0.91797 l -2.54883,4.34082 v 2.88086 h -0.85449 v -2.86133 l -2.43652,-4.36035 h 0.91309 z"
         style="font-size:10px;line-height:0.77999997;text-align:end;text-anchor:end;stroke-width:0.75"
         id="path2801" /><path
         d="m 267.80292,-562.59559 -0.11231,-0.80078 2.52442,-2.80273 q 0.2539,-0.28321 0.48828,-0.73243 0.23926,-0.44921 0.34668,-0.76171 l 0.1123,-0.30762 q 0,-0.60547 -0.33691,-0.9375 -0.33692,-0.33692 -0.95703,-0.33692 -1.03516,0 -1.63086,0.60059 l -0.28321,-0.73242 q 0.67383,-0.63477 1.97266,-0.63477 0.99609,0 1.58691,0.54199 0.59083,0.53711 0.59083,1.44043 -0.0195,0.0684 -0.0586,0.18555 -0.0391,0.11231 -0.1709,0.44434 -0.12695,0.33203 -0.26855,0.62988 -0.1416,0.29785 -0.36133,0.6543 -0.21484,0.35644 -0.43945,0.5957 l -2.06055,2.20215 h 3.38379 l -0.0537,0.75195 z"
         style="font-size:10px;line-height:0.77999997;text-align:end;text-anchor:end;stroke-width:0.75"
         id="path2803" /><path
         d="m 277.05585,-565.59364 q -1.03028,-2.99316 -1.1377,-3.36425 0,0 -1.18652,3.36425 z m 1.11816,2.99805 -0.84473,-2.29004 h -2.88085 l -0.87403,2.29004 h -0.85937 l 2.77343,-7.23633 h 0.86426 l 2.69043,7.23633 z"
         style="font-size:10px;line-height:0.77999997;text-align:end;text-anchor:end;stroke-width:0.75"
         id="path2805" /><path
         d="m 259.61835,-557.33727 h 0.90332 l -2.62207,7.22168 h -0.87891 l -2.6123,-7.22168 h 0.90332 l 1.60644,4.58008 q 0.3125,0.89355 0.54199,1.68457 0.0732,-0.36621 0.54688,-1.69922 0.76172,-2.18262 1.61133,-4.56543 z"
         style="font-size:10px;line-height:0.77999997;text-align:end;text-anchor:end;stroke-width:0.75"
         id="path2807" /><path
         d="m 260.96088,-546.60485 v -4.99243 h 0.46655 l 0.0508,0.4729 q 0.45703,-0.5459 1.09814,-0.5459 0.47608,0 0.80616,0.23804 0.33008,0.23804 0.48559,0.64429 0.15869,0.40625 0.15869,0.94897 0,0.52051 -0.17138,0.92676 -0.17139,0.40308 -0.50464,0.63794 -0.33008,0.23169 -0.77442,0.23169 -0.33642,0 -0.63159,-0.14917 -0.29516,-0.15234 -0.4729,-0.3999 0.019,0.34277 0.019,0.6665 v 1.2854 z m 1.54248,-1.88525 q 0.24121,0 0.43164,-0.10791 0.19043,-0.11109 0.30786,-0.30151 0.11743,-0.19043 0.17773,-0.43165 0.0603,-0.24438 0.0603,-0.52685 0,-0.59668 -0.25074,-0.97754 -0.25073,-0.38403 -0.73315,-0.38403 -1.00928,0 -1.00928,1.30444 0,0.70776 0.23487,1.06641 0.23803,0.35864 0.78076,0.35864 z"
         style="font-size:64.99999762%;baseline-shift:sub"
         id="path2809" /><path
         d="m 265.15668,-549.8485 q 0,0.6189 0.27295,0.99341 0.27612,0.37134 0.80297,0.37134 0.52051,0 0.78394,-0.37134 0.2666,-0.37134 0.2666,-0.99976 0,-0.63794 -0.26343,-1.00293 -0.26025,-0.36816 -0.79663,-0.36816 -0.5205,0 -0.79345,0.37451 -0.27295,0.37451 -0.27295,1.00293 z m 2.67553,-0.01 q 0,0.80933 -0.43164,1.31396 -0.43164,0.50147 -1.19336,0.50147 -0.73315,0 -1.16796,-0.50781 -0.43165,-0.50782 -0.43165,-1.30445 0,-0.8125 0.43482,-1.31396 0.43481,-0.50147 1.19336,-0.50147 0.74585,0 1.17114,0.50464 0.42529,0.50147 0.42529,1.30762 z"
         style="font-size:64.99999762%;baseline-shift:sub"
         id="path2811" /><path
         d="m 271.55829,-548.11559 q -0.73316,-2.34228 -0.90772,-2.91675 -0.0984,0.34912 -0.22534,0.75537 -0.12695,0.40625 -0.22217,0.69825 -0.0952,0.29199 -0.24755,0.75537 -0.15235,0.46338 -0.23169,0.70776 h -0.57129 l -0.99341,-3.48169 h 0.54907 l 0.74585,2.8501 q 0.15552,-0.50781 0.91406,-2.8501 h 0.59986 q 0.75537,2.39307 0.88867,2.84058 l 0.73633,-2.84058 h 0.54272 l -1.00293,3.48169 z"
         style="font-size:64.99999762%;baseline-shift:sub"
         id="path2813" /><path
         d="m 275.63666,-550.95299 q -0.23169,-0.2793 -0.63794,-0.2793 -0.40625,0 -0.66333,0.28882 -0.25708,0.28564 -0.30152,0.78394 h 1.83765 q 0,-0.51734 -0.23486,-0.79346 z m -0.53321,2.9104 q -0.75854,0 -1.19653,-0.48242 -0.43481,-0.48242 -0.43481,-1.32032 0,-0.80932 0.42212,-1.31079 0.42212,-0.50464 1.11084,-0.51416 0.64746,0 1.02514,0.44434 0.38086,0.44116 0.38086,1.18066 0,0.0381 -0.003,0.13965 0,0.10156 0,0.146 h -2.38989 q 0.01,0.5935 0.30468,0.92676 0.29834,0.33007 0.79981,0.33007 0.55224,0 1.10766,-0.29199 l 0.0825,0.42847 q -0.53003,0.32373 -1.20923,0.32373 z"
         style="font-size:64.99999762%;baseline-shift:sub"
         id="path2815" /><path
         d="m 278.70892,-551.62902 q 0.14283,0 0.26026,0.019 l -0.019,0.48877 q -0.14599,-0.0254 -0.2539,-0.0254 -0.44434,0 -0.72363,0.31104 -0.27613,0.30786 -0.27613,0.76489 v 1.95508 h -0.53003 q -0.003,-3.20557 -0.003,-3.48169 h 0.44116 l 0.0508,0.62525 q 0.18091,-0.29517 0.46021,-0.47608 0.27929,-0.18091 0.5935,-0.18091 z"
         style="font-size:64.99999762%;baseline-shift:sub"
         id="path2817" /></g><g
       aria-label="Vlogic
4A
4Y


3Y
3A
3,4EN"
       transform="scale(1,-1)"
       style="font-style:normal;font-variant:normal;font-weight:normal;font-stretch:normal;font-size:16px;line-height:0.77999997;font-family:Oxygen;-inkscape-font-specification:Oxygen;text-align:start;letter-spacing:0px;word-spacing:0px;text-anchor:start;fill:#000000;fill-opacity:1;stroke:none;stroke-width:0.75"
       id="text2627"><path
         d="m 338.35165,-644.69727 h 0.90332 l -2.62207,7.22168 h -0.8789 l -2.61231,-7.22168 h 0.90332 l 1.60645,4.58008 q 0.3125,0.89356 0.54199,1.68457 0.0732,-0.36621 0.54688,-1.69922 0.76171,-2.18261 1.61132,-4.56543 z"
         style="font-size:10px;line-height:0.77999997;text-align:start;text-anchor:start;stroke-width:0.75"
         id="path2875" /><path
         d="m 340.63046,-635.41211 q -0.50781,0 -0.72046,-0.27295 -0.20947,-0.27295 -0.20947,-0.94897 v -3.6753 l 0.52686,-0.0317 v 3.49755 q 0,0.21582 0.003,0.34595 0.006,0.13013 0.0254,0.25708 0.019,0.12378 0.0508,0.18726 0.0317,0.0635 0.092,0.11743 0.0603,0.0508 0.14283,0.0698 0.0857,0.0159 0.20947,0.0159 0.10156,0 0.3999,-0.0381 l 0.0286,0.42212 q -0.3269,0.0539 -0.54907,0.0539 z"
         style="font-size:64.99999762%;baseline-shift:sub"
         id="path2877" /><path
         d="m 341.88412,-637.2085 q 0,0.6189 0.27295,0.99341 0.27613,0.37134 0.80298,0.37134 0.52051,0 0.78394,-0.37134 0.2666,-0.37134 0.2666,-0.99975 0,-0.63794 -0.26343,-1.00293 -0.26025,-0.36817 -0.79663,-0.36817 -0.52051,0 -0.79346,0.37451 -0.27295,0.37452 -0.27295,1.00293 z m 2.67554,-0.01 q 0,0.80933 -0.43164,1.31397 -0.43164,0.50146 -1.19336,0.50146 -0.73315,0 -1.16797,-0.50781 -0.43164,-0.50781 -0.43164,-1.30444 0,-0.8125 0.43482,-1.31397 0.43481,-0.50146 1.19336,-0.50146 0.74585,0 1.17114,0.50464 0.42529,0.50146 0.42529,1.30761 z"
         style="font-size:64.99999762%;baseline-shift:sub"
         id="path2879" /><path
         d="m 346.65756,-635.92944 q 0.26978,0 0.4729,-0.0952 0.20313,-0.0952 0.31739,-0.26343 0.11425,-0.16821 0.16821,-0.37451 0.0571,-0.2063 0.0571,-0.45068 v -0.25708 q 0,-0.25391 -0.0571,-0.46655 -0.0571,-0.21582 -0.17774,-0.38404 -0.11743,-0.17138 -0.31738,-0.2666 -0.19678,-0.0952 -0.4602,-0.0952 -0.219,0 -0.39991,0.0825 -0.17773,0.0825 -0.29516,0.21899 -0.11426,0.1333 -0.19678,0.31421 -0.0793,0.17773 -0.11426,0.36182 -0.0349,0.18408 -0.0349,0.37133 0,0.18409 0.0381,0.36499 0.0381,0.18091 0.1206,0.3523 0.0825,0.17139 0.19995,0.30151 0.11743,0.12696 0.292,0.2063 0.17773,0.0793 0.3872,0.0793 z m -0.81567,2.04712 -0.0476,-0.47925 h 0.64746 q 0.26978,0 0.46973,-0.0381 0.19995,-0.0381 0.33325,-0.12695 0.1333,-0.0857 0.21582,-0.1936 0.0825,-0.10474 0.12378,-0.27613 0.0444,-0.16821 0.0571,-0.33642 0.0159,-0.16504 0.0159,-0.40625 v -0.30786 q -0.19043,0.27294 -0.44116,0.42211 -0.25074,0.146 -0.63794,0.146 -0.29834,0 -0.55225,-0.10156 -0.25073,-0.10474 -0.42529,-0.27613 -0.17139,-0.17138 -0.29517,-0.39672 -0.1206,-0.22535 -0.17773,-0.46656 -0.054,-0.24121 -0.054,-0.48559 0,-0.38086 0.092,-0.70459 0.0952,-0.32373 0.2793,-0.57764 0.18408,-0.25391 0.48242,-0.39673 0.30152,-0.14599 0.68872,-0.14599 0.34278,0 0.59668,0.1333 0.25708,0.13012 0.46021,0.40307 v -0.46338 h 0.51733 v 3.23096 q 0,0.22217 -0.0127,0.38721 -0.01,0.16821 -0.054,0.37134 -0.0413,0.20312 -0.11426,0.34912 -0.073,0.14599 -0.2063,0.29199 -0.13012,0.14917 -0.3142,0.23804 -0.18091,0.092 -0.45069,0.14917 -0.26977,0.0571 -0.60937,0.0571 z"
         style="font-size:64.99999762%;baseline-shift:sub"
         id="path2881" /><path
         d="m 349.70126,-638.95728 v 3.48169 h -0.5332 v -3.48169 z m 0,-1.26635 v 0.62842 h -0.5332 v -0.62842 z"
         style="font-size:64.99999762%;baseline-shift:sub"
         id="path2883" /><path
         d="m 352.17368,-635.40259 q -0.76807,0 -1.20289,-0.49829 -0.43164,-0.49829 -0.43164,-1.30444 0.003,-0.8125 0.44117,-1.31714 0.44116,-0.50781 1.20605,-0.50781 0.26978,0 0.52051,0.0666 0.2539,0.0666 0.3999,0.17456 l -0.146,0.4126 q -0.37133,-0.19996 -0.78393,-0.19996 -0.50464,0 -0.79981,0.36817 -0.29199,0.36816 -0.29199,1.0061 0,0.62207 0.28882,0.98706 0.29199,0.36182 0.80615,0.36182 0.40943,0 0.83789,-0.22217 l 0.0667,0.42212 q -0.34594,0.25073 -0.91088,0.25073 z"
         style="font-size:64.99999762%;baseline-shift:sub"
         id="path2885" /><path
         d="m 338.64462,-626.80711 h -0.83008 v 1.81152 h -0.82031 v -1.81152 h -3.30078 v -0.74707 l 3.20801,-4.74609 h 0.91308 v 4.78515 h 0.89844 z m -1.65039,-4.38477 -2.4414,3.67676 h 2.4414 z"
         style="font-size:10px;line-height:0.77999997;text-align:start;text-anchor:start;stroke-width:0.75"
         id="path2887" /><path
         d="m 343.43954,-627.99363 q -1.03027,-2.99317 -1.13769,-3.36426 0,0 -1.18652,3.36426 z m 1.11817,2.99804 -0.84473,-2.29004 h -2.88086 l -0.87402,2.29004 h -0.85938 l 2.77344,-7.23632 h 0.86426 l 2.69043,7.23632 z"
         style="font-size:10px;line-height:0.77999997;text-align:start;text-anchor:start;stroke-width:0.75"
         id="path2889" /><path
         d="m 338.64462,-614.32711 h -0.83008 v 1.81152 h -0.82031 v -1.81152 h -3.30078 v -0.74707 l 3.20801,-4.74609 h 0.91308 v 4.78515 h 0.89844 z m -1.65039,-4.38477 -2.4414,3.67676 h 2.4414 z"
         style="font-size:10px;line-height:0.77999997;text-align:start;text-anchor:start;stroke-width:0.75"
         id="path2891" /><path
         d="m 341.96982,-616.19723 2.03125,-3.54004 h 0.91797 l -2.54883,4.34082 v 2.88086 h -0.85449 v -2.86132 l -2.43653,-4.36036 h 0.91309 z"
         style="font-size:10px;line-height:0.77999997;text-align:start;text-anchor:start;stroke-width:0.75"
         id="path2893" /><path
         d="m 335.58798,-574.96328 q -0.65429,0 -1.16699,-0.1709 -0.50781,-0.1709 -0.74219,-0.39551 l 0.27344,-0.71777 q 0.68848,0.54199 1.64062,0.54199 0.73243,0 1.16211,-0.36133 0.43457,-0.36621 0.43457,-1.02051 0,-0.35644 -0.1123,-0.62011 -0.10742,-0.26856 -0.29297,-0.42969 -0.18066,-0.16602 -0.46875,-0.26367 -0.2832,-0.10254 -0.58594,-0.14161 -0.29785,-0.0439 -0.69336,-0.0537 -0.0488,0 -0.14648,0 -0.0977,-0.005 -0.14648,-0.005 v -0.72754 h 0.24414 q 0.34179,-0.005 0.60058,-0.0342 0.26367,-0.0342 0.52246,-0.11719 0.26367,-0.083 0.43457,-0.21972 0.1709,-0.13672 0.27832,-0.36621 0.10743,-0.22949 0.10743,-0.54199 0,-1.17188 -1.34278,-1.17188 -0.4834,0 -0.9082,0.1416 -0.42481,0.1416 -0.72754,0.38086 l -0.27344,-0.71289 q 0.72754,-0.55176 2.09473,-0.55176 0.55176,0 1.02051,0.20508 0.46875,0.2002 0.77148,0.62012 0.30274,0.41504 0.30274,0.97656 0,0.68359 -0.33692,1.12305 -0.33691,0.43945 -0.94726,0.62988 0.68359,0.14648 1.06933,0.63965 0.39063,0.49316 0.39063,1.25 0,0.96191 -0.68848,1.53808 -0.68848,0.57618 -1.76758,0.57618 z"
         style="font-size:10px;line-height:0.77999997;text-align:start;text-anchor:start;stroke-width:0.75"
         id="path2895" /><path
         d="m 341.44247,-578.75723 2.03125,-3.54004 h 0.91797 l -2.54883,4.34082 v 2.88086 h -0.85449 v -2.86133 l -2.43652,-4.36035 h 0.91309 z"
         style="font-size:10px;line-height:0.77999997;text-align:start;text-anchor:start;stroke-width:0.75"
         id="path2897" /><path
         d="m 335.58798,-562.48328 q -0.65429,0 -1.16699,-0.1709 -0.50781,-0.1709 -0.74219,-0.39551 l 0.27344,-0.71777 q 0.68848,0.54199 1.64062,0.54199 0.73243,0 1.16211,-0.36133 0.43457,-0.36621 0.43457,-1.02051 0,-0.35644 -0.1123,-0.62011 -0.10742,-0.26856 -0.29297,-0.42969 -0.18066,-0.16602 -0.46875,-0.26367 -0.2832,-0.10254 -0.58594,-0.14161 -0.29785,-0.0439 -0.69336,-0.0537 -0.0488,0 -0.14648,0 -0.0977,-0.005 -0.14648,-0.005 v -0.72754 h 0.24414 q 0.34179,-0.005 0.60058,-0.0342 0.26367,-0.0342 0.52246,-0.11719 0.26367,-0.083 0.43457,-0.21972 0.1709,-0.13672 0.27832,-0.36621 0.10743,-0.2295 0.10743,-0.542 0,-1.17187 -1.34278,-1.17187 -0.4834,0 -0.9082,0.1416 -0.42481,0.1416 -0.72754,0.38086 l -0.27344,-0.71289 q 0.72754,-0.55176 2.09473,-0.55176 0.55176,0 1.02051,0.20508 0.46875,0.2002 0.77148,0.62012 0.30274,0.41504 0.30274,0.97656 0,0.68359 -0.33692,1.12305 -0.33691,0.43945 -0.94726,0.62988 0.68359,0.14648 1.06933,0.63965 0.39063,0.49316 0.39063,1.25 0,0.96191 -0.68848,1.53808 -0.68848,0.57618 -1.76758,0.57618 z"
         style="font-size:10px;line-height:0.77999997;text-align:start;text-anchor:start;stroke-width:0.75"
         id="path2899" /><path
         d="m 342.9122,-565.59364 q -1.03027,-2.99316 -1.13769,-3.36425 0,0 -1.18653,3.36425 z m 1.11816,2.99805 -0.84472,-2.29004 h -2.88086 l -0.87402,2.29004 h -0.85938 l 2.77344,-7.23633 h 0.86426 l 2.69043,7.23633 z"
         style="font-size:10px;line-height:0.77999997;text-align:start;text-anchor:start;stroke-width:0.75"
         id="path2901" /><path
         d="m 335.58798,-550.00328 q -0.65429,0 -1.16699,-0.1709 -0.50781,-0.1709 -0.74219,-0.39551 l 0.27344,-0.71777 q 0.68848,0.54199 1.64062,0.54199 0.73243,0 1.16211,-0.36133 0.43457,-0.36621 0.43457,-1.02051 0,-0.35644 -0.1123,-0.62012 -0.10742,-0.26855 -0.29297,-0.42968 -0.18066,-0.16602 -0.46875,-0.26367 -0.2832,-0.10254 -0.58594,-0.14161 -0.29785,-0.0439 -0.69336,-0.0537 -0.0488,0 -0.14648,0 -0.0977,-0.005 -0.14648,-0.005 v -0.72754 h 0.24414 q 0.34179,-0.005 0.60058,-0.0342 0.26367,-0.0342 0.52246,-0.11719 0.26367,-0.083 0.43457,-0.21972 0.1709,-0.13672 0.27832,-0.36621 0.10743,-0.2295 0.10743,-0.542 0,-1.17187 -1.34278,-1.17187 -0.4834,0 -0.9082,0.1416 -0.42481,0.1416 -0.72754,0.38086 l -0.27344,-0.71289 q 0.72754,-0.55176 2.09473,-0.55176 0.55176,0 1.02051,0.20508 0.46875,0.2002 0.77148,0.62012 0.30274,0.41504 0.30274,0.97656 0,0.68359 -0.33692,1.12305 -0.33691,0.43945 -0.94726,0.62988 0.68359,0.14648 1.06933,0.63965 0.39063,0.49316 0.39063,1.25 0,0.96191 -0.68848,1.53808 -0.68848,0.57618 -1.76758,0.57618 z"
         style="font-size:10px;line-height:0.77999997;text-align:start;text-anchor:start;stroke-width:0.75"
         id="path2903" /><path
         d="m 339.08896,-548.75817 q 0.0147,-0.1416 0.083,-0.75195 0.0732,-0.60547 0.1123,-1.02051 0.0391,-0.41504 0.0586,-0.72754 h 0.96192 v 0.21485 q -0.23926,0.96679 -0.70313,2.28515 z"
         style="font-size:10px;line-height:0.77999997;text-align:start;text-anchor:start;stroke-width:0.75"
         id="path2905" /><path
         d="m 346.49619,-551.92711 h -0.83008 v 1.81152 h -0.82032 v -1.81152 h -3.30078 v -0.74707 l 3.20801,-4.7461 h 0.91309 v 4.78516 h 0.89843 z m -1.6504,-4.38477 -2.4414,3.67676 h 2.4414 z"
         style="font-size:10px;line-height:0.77999997;text-align:start;text-anchor:start;stroke-width:0.75"
         id="path2907" /><path
         d="m 347.78525,-550.11559 v -7.22168 h 4.14062 l -0.0342,0.74707 h -3.26172 v 2.36328 h 3.10059 v 0.73731 h -3.10059 v 2.62695 h 3.36914 l -0.0391,0.74707 z"
         style="font-size:10px;line-height:0.77999997;text-align:start;text-anchor:start;stroke-width:0.75"
         id="path2909" /><path
         d="m 359.07431,-550.11559 h -0.95703 l -3.75,-5.68359 -0.24414,-0.33692 q 0.0391,1.02539 0.0391,1.83106 v 4.18945 h -0.79101 v -7.22168 h 0.94238 l 3.75976,5.68359 0.24903,0.33692 q -0.0342,-1.55762 -0.0342,-1.80176 v -4.21875 h 0.78613 z"
         style="font-size:10px;line-height:0.77999997;text-align:start;text-anchor:start;stroke-width:0.75"
         id="path2911" /></g><text
       y="-594.12823"
       x="482.67151"
       transform="scale(1,-1)"
       style="font-variant:normal;font-weight:normal;font-size:8.99985981px;font-family:ArialMT;-inkscape-font-specification:ArialMT;writing-mode:lr-tb;fill:#000000;fill-opacity:1;fill-rule:nonzero;stroke:none"
       id="text2682"><tspan
         y="-594.12823"
         x="482.67151"
         style="font-style:normal;font-variant:normal;font-weight:normal;font-stretch:normal;font-family:Oxygen;-inkscape-font-specification:Oxygen"
         sodipodi:role="line"
         id="tspan2680">GND</tspan></text>
<path
       sodipodi:nodetypes="csscc"
       inkscape:connector-curvature="0"
       d="m 445.00121,652.44457 v -3.798 c 0,-2.782 -2.196,-5.04 -4.902,-5.04 -2.705,0 -4.901,2.258 -4.904,5.04 l -0.003,3.798"
       style="fill:#ffb380;stroke:#000000;stroke-width:0.96406001;stroke-linecap:round;stroke-linejoin:round;stroke-miterlimit:10;stroke-dasharray:none;stroke-opacity:1"
       id="path2684" /><path
       inkscape:connector-curvature="0"
       id="path2686"
       style="fill:none;stroke:#000000;stroke-width:1.41703999;stroke-linecap:round;stroke-linejoin:round;stroke-miterlimit:10;stroke-dasharray:none;stroke-opacity:1"
       d="m 419.20541,542.46016 h 41.5562 v 109.814 h -41.5562 z" /><path
       inkscape:connector-curvature="0"
       id="path2688"
       style="fill:none;stroke:#000000;stroke-width:0.96406001;stroke-linecap:round;stroke-linejoin:round;stroke-miterlimit:10;stroke-dasharray:none;stroke-opacity:1"
       d="m 460.64721,645.13157 h 3.459 m 0,0 v -9.1839 m 0,0 h -3.459 m 0,0 v -3.2324 m 0,0 h 3.459 m 0,0 v -9.184 m 0,0 h -3.459 m 0,0 v -3.118 m 0,0 h 3.459 m 0,0 v -9.241 m 0,0 h -3.459 m 0,0 v -3.0051 m 0,0 h 3.459 m 0,0 v -9.2406 m 0,0 h -3.459 z m -3.459,0 h 3.459 z m 0,0.0566 v -3.0609 m 0,-0.057 h 3.459 m 0,0 v -9.241 m 0,0 h -3.459 m 0,0 v -3.175 m 0,0 h 3.459 m 0,0 v -9.2411 m 0,0 h -3.459 m 0,0 v -3.0605 m 0,0 h 3.459 m 0,0 v -9.2414 m 0,0 h -3.459 m 0,0 v -3.0051 m 0,0 h 3.459 m 0,0 v -9.24101 m 0,0 h -3.459 z m -3.459,0 h 3.459 z m 0,0 v -3.00507 m -41.5558,98.47648 h -3.4579 m 0,0 v -9.1839 m 0,0 h 3.4579 m 0,0 v -3.2324 m 0,0 h -3.4579 m 0,0 v -9.184 m 0,0 h 3.4579 m 0,0 v -3.118 m 0,0 h -3.4579 m 0,0 v -9.241 m 0,0 h 3.4579 m 0,0 v -3.0051 m 0,0 h -3.4579 m 0,0 v -9.2406 m 0,0 h 3.4579 z m 3.4579,0 h -3.4579 z m 0,0.0566 v -3.0609 m 0,-0.057 h -3.4579 m 0,0 v -9.241 m 0,0 h 3.4579 m 0,0 v -3.175 m 0,0 h -3.4579 m 0,0 v -9.2411 m 0,0 h 3.4579 m 0,0 v -3.0605 m 0,0 h -3.4579 m 0,0 v -9.2414 m 0,0 h 3.4579 m 0,0 v -3.0051 m 0,0 h -3.4579 v -9.24101 m 0,0 h 3.4579 z m 3.4579,0 h -3.4579 z m 0,0 v -3.00507" /><text
       transform="scale(1,-1)"
       id="text2706"
       y="-638.22089"
       x="422.58218"
       style="font-style:normal;font-variant:normal;font-weight:normal;font-stretch:normal;font-size:16px;line-height:0.77999997;font-family:Oxygen;-inkscape-font-specification:Oxygen;letter-spacing:0px;word-spacing:0px;fill:#000000;fill-opacity:1;stroke:none;stroke-width:0.75"
       xml:space="preserve"><tspan
         style="font-size:10px;line-height:0.77999997;stroke-width:0.75"
         y="-638.22089"
         x="422.58218"
         id="tspan2690"
         sodipodi:role="line">1</tspan><tspan
         id="tspan2692"
         style="font-size:10px;line-height:0.77999997;stroke-width:0.75"
         y="-625.74091"
         x="422.58218"
         sodipodi:role="line">2</tspan><tspan
         id="tspan2694"
         style="font-size:10px;line-height:0.77999997;stroke-width:0.75"
         y="-613.26086"
         x="422.58218"
         sodipodi:role="line">3</tspan><tspan
         id="tspan2696"
         style="font-size:10px;line-height:0.77999997;stroke-width:0.75"
         y="-600.78088"
         x="422.58218"
         sodipodi:role="line">4</tspan><tspan
         id="tspan2698"
         style="font-size:10px;line-height:0.77999997;stroke-width:0.75"
         y="-588.3009"
         x="422.58218"
         sodipodi:role="line">5</tspan><tspan
         id="tspan2700"
         style="font-size:10px;line-height:0.77999997;stroke-width:0.75"
         y="-575.82086"
         x="422.58218"
         sodipodi:role="line">6</tspan><tspan
         id="tspan2702"
         style="font-size:10px;line-height:0.77999997;stroke-width:0.75"
         y="-563.34088"
         x="422.58218"
         sodipodi:role="line">7</tspan><tspan
         id="tspan2704"
         style="font-size:10px;line-height:0.77999997;stroke-width:0.75"
         y="-550.8609"
         x="422.58218"
         sodipodi:role="line">8</tspan></text>
<text
       xml:space="preserve"
       style="font-style:normal;font-variant:normal;font-weight:normal;font-stretch:normal;font-size:16px;line-height:0.77999997;font-family:Oxygen;-inkscape-font-specification:Oxygen;text-align:end;letter-spacing:0px;word-spacing:0px;text-anchor:end;fill:#000000;fill-opacity:1;stroke:none;stroke-width:0.75"
       x="457.51175"
       y="-637.97247"
       id="text2724"
       transform="scale(1,-1)"><tspan
         sodipodi:role="line"
         x="457.51175"
         y="-637.97247"
         style="font-size:10px;line-height:0.77999997;text-align:end;text-anchor:end;stroke-width:0.75"
         id="tspan2708">16</tspan><tspan
         id="tspan2710"
         sodipodi:role="line"
         x="457.51175"
         y="-625.49249"
         style="font-size:10px;line-height:0.77999997;text-align:end;text-anchor:end;stroke-width:0.75">15</tspan><tspan
         id="tspan2712"
         sodipodi:role="line"
         x="457.51175"
         y="-613.01245"
         style="font-size:10px;line-height:0.77999997;text-align:end;text-anchor:end;stroke-width:0.75">14</tspan><tspan
         id="tspan2714"
         sodipodi:role="line"
         x="457.51175"
         y="-600.53247"
         style="font-size:10px;line-height:0.77999997;text-align:end;text-anchor:end;stroke-width:0.75">13</tspan><tspan
         id="tspan2716"
         sodipodi:role="line"
         x="457.51175"
         y="-588.05249"
         style="font-size:10px;line-height:0.77999997;text-align:end;text-anchor:end;stroke-width:0.75">12</tspan><tspan
         id="tspan2718"
         sodipodi:role="line"
         x="457.51175"
         y="-575.57245"
         style="font-size:10px;line-height:0.77999997;text-align:end;text-anchor:end;stroke-width:0.75">11</tspan><tspan
         id="tspan2720"
         sodipodi:role="line"
         x="457.51175"
         y="-563.09247"
         style="font-size:10px;line-height:0.77999997;text-align:end;text-anchor:end;stroke-width:0.75">10</tspan><tspan
         id="tspan2722"
         sodipodi:role="line"
         x="457.51175"
         y="-550.61249"
         style="font-size:10px;line-height:0.77999997;text-align:end;text-anchor:end;stroke-width:0.75">9</tspan></text>
<text
       id="text2728"
       style="font-variant:normal;font-weight:normal;font-size:8.99985981px;font-family:ArialMT;-inkscape-font-specification:ArialMT;text-align:end;writing-mode:lr-tb;text-anchor:end;fill:#000000;fill-opacity:1;fill-rule:nonzero;stroke:none"
       transform="scale(1,-1)"
       x="397.03754"
       y="-593.6615"><tspan
         id="tspan2726"
         sodipodi:role="line"
         style="font-style:normal;font-variant:normal;font-weight:normal;font-stretch:normal;font-family:Oxygen;-inkscape-font-specification:Oxygen;text-align:end;text-anchor:end"
         x="397.03754"
         y="-593.6615">GND</tspan></text>
<path
       inkscape:connector-curvature="0"
       d="m 411.40276,584.50192 c -8.65044,-0.19257 -6.23719,12.30162 -12.91844,12.17315 m 12.91844,12.17315 c -8.65044,0.19257 -6.23719,-12.30162 -12.91844,-12.17315"
       style="fill:none;stroke:#000000;stroke-width:0.75px;stroke-linecap:butt;stroke-linejoin:miter;stroke-opacity:1"
       id="path2730" /><path
       id="path2732"
       style="fill:none;stroke:#000000;stroke-width:0.75px;stroke-linecap:butt;stroke-linejoin:miter;stroke-opacity:1"
       d="m 467.43503,584.94108 c 8.65044,-0.19257 6.23719,12.30162 12.91844,12.17315 m -12.91844,12.17315 c 8.65044,0.19257 6.23719,-12.30162 12.91844,-12.17315"
       inkscape:connector-curvature="0" /><text
       xml:space="preserve"
       style="font-style:normal;font-variant:normal;font-weight:normal;font-stretch:normal;font-size:16px;line-height:0.77999997;font-family:Oxygen;-inkscape-font-specification:Oxygen;text-align:end;letter-spacing:0px;word-spacing:0px;text-anchor:end;fill:#000000;fill-opacity:1;stroke:none;stroke-width:0.75"
       x="412.72379"
       y="-637.22717"
       id="text2752"
       transform="scale(1,-1)"><tspan
         sodipodi:role="line"
         x="412.72379"
         y="-637.22717"
         style="font-size:10px;line-height:0.77999997;text-align:end;text-anchor:end;stroke-width:0.75"
         id="tspan2734">1,2EN</tspan><tspan
         id="tspan2736"
         sodipodi:role="line"
         x="412.72379"
         y="-624.74719"
         style="font-size:10px;line-height:0.77999997;text-align:end;text-anchor:end;stroke-width:0.75">1A</tspan><tspan
         id="tspan2738"
         sodipodi:role="line"
         x="412.72379"
         y="-612.26715"
         style="font-size:10px;line-height:0.77999997;text-align:end;text-anchor:end;stroke-width:0.75">1Y</tspan><tspan
         id="tspan2740"
         sodipodi:role="line"
         x="412.72379"
         y="-599.78717"
         style="font-size:10px;line-height:0.77999997;text-align:end;text-anchor:end;stroke-width:0.75" /><tspan
         id="tspan2742"
         sodipodi:role="line"
         x="412.72379"
         y="-587.30719"
         style="font-size:10px;line-height:0.77999997;text-align:end;text-anchor:end;stroke-width:0.75" /><tspan
         id="tspan2744"
         sodipodi:role="line"
         x="412.72379"
         y="-574.82715"
         style="font-size:10px;line-height:0.77999997;text-align:end;text-anchor:end;stroke-width:0.75">2Y</tspan><tspan
         id="tspan2746"
         sodipodi:role="line"
         x="412.72379"
         y="-562.34717"
         style="font-size:10px;line-height:0.77999997;text-align:end;text-anchor:end;stroke-width:0.75">2A</tspan><tspan
         id="tspan2750"
         sodipodi:role="line"
         x="412.72379"
         y="-549.86719"
         style="font-size:10px;line-height:0.77999997;text-align:end;text-anchor:end;stroke-width:0.75">V<tspan
   id="tspan2748"
   style="font-size:64.99999762%;baseline-shift:sub">power</tspan></tspan></text>
<text
       transform="scale(1,-1)"
       id="text2772"
       y="-637.22717"
       x="466.82233"
       style="font-style:normal;font-variant:normal;font-weight:normal;font-stretch:normal;font-size:16px;line-height:0.77999997;font-family:Oxygen;-inkscape-font-specification:Oxygen;text-align:start;letter-spacing:0px;word-spacing:0px;text-anchor:start;fill:#000000;fill-opacity:1;stroke:none;stroke-width:0.75"
       xml:space="preserve"><tspan
         style="font-size:10px;line-height:0.77999997;text-align:start;text-anchor:start;stroke-width:0.75"
         y="-637.22717"
         x="466.82233"
         sodipodi:role="line"
         id="tspan2756">V<tspan
   id="tspan2754"
   style="font-size:64.99999762%;baseline-shift:sub">logic</tspan></tspan><tspan
         id="tspan2758"
         style="font-size:10px;line-height:0.77999997;text-align:start;text-anchor:start;stroke-width:0.75"
         y="-624.74719"
         x="466.82233"
         sodipodi:role="line">4A</tspan><tspan
         id="tspan2760"
         style="font-size:10px;line-height:0.77999997;text-align:start;text-anchor:start;stroke-width:0.75"
         y="-612.26715"
         x="466.82233"
         sodipodi:role="line">4Y</tspan><tspan
         id="tspan2762"
         style="font-size:10px;line-height:0.77999997;text-align:start;text-anchor:start;stroke-width:0.75"
         y="-599.78717"
         x="466.82233"
         sodipodi:role="line" /><tspan
         id="tspan2764"
         style="font-size:10px;line-height:0.77999997;text-align:start;text-anchor:start;stroke-width:0.75"
         y="-587.30719"
         x="466.82233"
         sodipodi:role="line" /><tspan
         id="tspan2766"
         style="font-size:10px;line-height:0.77999997;text-align:start;text-anchor:start;stroke-width:0.75"
         y="-574.82715"
         x="466.82233"
         sodipodi:role="line">3Y</tspan><tspan
         id="tspan2768"
         style="font-size:10px;line-height:0.77999997;text-align:start;text-anchor:start;stroke-width:0.75"
         y="-562.34717"
         x="466.82233"
         sodipodi:role="line">3A</tspan><tspan
         id="tspan2770"
         style="font-size:10px;line-height:0.77999997;text-align:start;text-anchor:start;stroke-width:0.75"
         y="-549.86719"
         x="466.82233"
         sodipodi:role="line">3,4EN</tspan></text>
</g></svg>