<?xml version="1.0" encoding="UTF-8" standalone="no"?>
<svg
   xmlns:dc="http://purl.org/dc/elements/1.1/"
   xmlns:cc="http://creativecommons.org/ns#"
   xmlns:rdf="http://www.w3.org/1999/02/22-rdf-syntax-ns#"
   xmlns:svg="http://www.w3.org/2000/svg"
   xmlns="http://www.w3.org/2000/svg"
   viewBox="0 0 420.10838 194.6126"
   height="51.491249mm"
   width="111.15369mm"
   id="svg5382"
   version="1.1">
  <metadata
     id="metadata5388">
    <rdf:RDF>
      <cc:Work
         rdf:about="">
        <dc:format>image/svg+xml</dc:format>
        <dc:type
           rdf:resource="http://purl.org/dc/dcmitype/StillImage" />
        <dc:title></dc:title>
      </cc:Work>
    </rdf:RDF>
  </metadata>
  <defs
     id="defs5386">
    <marker
       orient="auto"
       refY="0"
       refX="0"
       id="marker4678"
       style="overflow:visible">
      <path
         id="path4680"
         style="fill:#000000;fill-opacity:1;fill-rule:evenodd;stroke:#000000;stroke-width:0.625;stroke-linejoin:round;stroke-opacity:1"
         d="M 8.7185878,4.0337352 -2.2072895,0.01601326 8.7185884,-4.0017078 c -1.7454984,2.3720609 -1.7354408,5.6174519 -6e-7,8.035443 z"
         transform="matrix(1.1,0,0,1.1,1.1,0)" />
    </marker>
    <marker
       style="overflow:visible"
       id="marker4682"
       refX="0"
       refY="0"
       orient="auto">
      <path
         transform="matrix(-1.1,0,0,-1.1,-1.1,0)"
         d="M 8.7185878,4.0337352 -2.2072895,0.01601326 8.7185884,-4.0017078 c -1.7454984,2.3720609 -1.7354408,5.6174519 -6e-7,8.035443 z"
         style="fill:#000000;fill-opacity:1;fill-rule:evenodd;stroke:#000000;stroke-width:0.625;stroke-linejoin:round;stroke-opacity:1"
         id="path4684" />
    </marker>
    <marker
       orient="auto"
       refY="0"
       refX="0"
       id="marker4664"
       style="overflow:visible">
      <path
         id="path4666"
         style="fill:#000000;fill-opacity:1;fill-rule:evenodd;stroke:#000000;stroke-width:0.625;stroke-linejoin:round;stroke-opacity:1"
         d="M 8.7185878,4.0337352 -2.2072895,0.01601326 8.7185884,-4.0017078 c -1.7454984,2.3720609 -1.7354408,5.6174519 -6e-7,8.035443 z"
         transform="matrix(1.1,0,0,1.1,1.1,0)" />
    </marker>
    <marker
       style="overflow:visible"
       id="marker4668"
       refX="0"
       refY="0"
       orient="auto">
      <path
         transform="matrix(-1.1,0,0,-1.1,-1.1,0)"
         d="M 8.7185878,4.0337352 -2.2072895,0.01601326 8.7185884,-4.0017078 c -1.7454984,2.3720609 -1.7354408,5.6174519 -6e-7,8.035443 z"
         style="fill:#000000;fill-opacity:1;fill-rule:evenodd;stroke:#000000;stroke-width:0.625;stroke-linejoin:round;stroke-opacity:1"
         id="path4670" />
    </marker>
    <marker
       style="overflow:visible"
       id="Arrow2Lstart"
       refX="0"
       refY="0"
       orient="auto">
      <path
         transform="matrix(1.1,0,0,1.1,1.1,0)"
         d="M 8.7185878,4.0337352 -2.2072895,0.01601326 8.7185884,-4.0017078 c -1.7454984,2.3720609 -1.7354408,5.6174519 -6e-7,8.035443 z"
         style="fill:#000000;fill-opacity:1;fill-rule:evenodd;stroke:#000000;stroke-width:0.625;stroke-linejoin:round;stroke-opacity:1"
         id="path4392" />
    </marker>
    <marker
       orient="auto"
       refY="0"
       refX="0"
       id="marker4652"
       style="overflow:visible">
      <path
         id="path4654"
         style="fill:#000000;fill-opacity:1;fill-rule:evenodd;stroke:#000000;stroke-width:0.625;stroke-linejoin:round;stroke-opacity:1"
         d="M 8.7185878,4.0337352 -2.2072895,0.01601326 8.7185884,-4.0017078 c -1.7454984,2.3720609 -1.7354408,5.6174519 -6e-7,8.035443 z"
         transform="matrix(-1.1,0,0,-1.1,-1.1,0)" />
    </marker>
    <marker
       orient="auto"
       refY="0"
       refX="0"
       id="marker4634"
       style="overflow:visible">
      <path
         id="path4636"
         style="fill:#000000;fill-opacity:1;fill-rule:evenodd;stroke:#000000;stroke-width:0.625;stroke-linejoin:round;stroke-opacity:1"
         d="M 8.7185878,4.0337352 -2.2072895,0.01601326 8.7185884,-4.0017078 c -1.7454984,2.3720609 -1.7354408,5.6174519 -6e-7,8.035443 z"
         transform="matrix(-1.1,0,0,-1.1,-1.1,0)" />
    </marker>
    <marker
       style="overflow:visible"
       id="Arrow2Lend"
       refX="0"
       refY="0"
       orient="auto">
      <path
         transform="matrix(-1.1,0,0,-1.1,-1.1,0)"
         d="M 8.7185878,4.0337352 -2.2072895,0.01601326 8.7185884,-4.0017078 c -1.7454984,2.3720609 -1.7354408,5.6174519 -6e-7,8.035443 z"
         style="fill:#000000;fill-opacity:1;fill-rule:evenodd;stroke:#000000;stroke-width:0.625;stroke-linejoin:round;stroke-opacity:1"
         id="path4395" />
    </marker>
  </defs>
  <rect
     transform="scale(-1,1)"
     ry="0.97619092"
     rx="0.97619104"
     y="54.267174"
     x="-128.52637"
     height="120.9449"
     width="109.62872"
     id="rect4346"
     style="opacity:1;fill:#ffaaaa;fill-opacity:1;stroke:none;stroke-width:1.00576568" />
  <rect
     transform="scale(-1,1)"
     style="opacity:1;fill:#afe9af;fill-opacity:1;stroke:none;stroke-width:1.00576568"
     id="rect4348"
     width="109.62872"
     height="120.9449"
     x="-264.61716"
     y="54.267174"
     rx="0.97619104"
     ry="0.97619092" />
  <rect
     transform="scale(-1,1)"
     ry="0.97619092"
     rx="0.97619098"
     y="54.267174"
     x="-400.70789"
     height="120.9449"
     width="109.62869"
     id="rect4350"
     style="opacity:1;fill:#cccccc;fill-opacity:1;stroke:#8c8c8c;stroke-width:1.00576568;stroke-opacity:1" />
  <g
     id="text4352"
     style="font-style:normal;font-variant:normal;font-weight:normal;font-stretch:normal;font-size:12.80000019px;line-height:0%;font-family:'Bree Serif';-inkscape-font-specification:'Bree Serif';text-align:start;letter-spacing:0px;word-spacing:0px;text-anchor:start;fill:#000000;fill-opacity:1;stroke:none;stroke-width:1.06666672px;stroke-linecap:butt;stroke-linejoin:miter;stroke-opacity:1"
     aria-label="Revize">
    <path
       id="path6240"
       style="font-size:12px;line-height:1.25;stroke-width:1.06666672px"
       d="m 358.33133,69.454872 v -0.972 l 0.396,-0.036 q 0.348,-0.036 0.348,-0.336 v -5.58 l -0.684,-0.036 v -1.02 h 3.276 q 1.392,0 2.136,0.516 0.744,0.516 0.744,1.692 0,0.816 -0.432,1.344 -0.42,0.528 -1.008,0.768 0.432,0.156 0.684,0.732 l 0.864,1.884 0.684,0.024 v 1.02 h -2.964 v -0.972 l 0.348,-0.036 q 0.276,-0.036 0.276,-0.216 0,-0.072 -0.048,-0.168 l -0.564,-1.2 q -0.132,-0.3 -0.3,-0.42 -0.156,-0.132 -0.456,-0.132 h -1.092 v 2.088 l 0.78,0.036 v 1.02 z m 2.208,-4.284 h 1.044 q 1.476,0 1.476,-1.32 0,-0.756 -0.396,-0.984 -0.384,-0.228 -1.248,-0.228 h -0.876 z" />
    <path
       id="path6242"
       style="font-size:12px;line-height:1.25;stroke-width:1.06666672px"
       d="m 368.87876,63.238872 q 0.9,0 1.428,0.444 0.528,0.432 0.528,1.224 0,0.528 -0.228,0.936 -0.228,0.396 -0.564,0.624 -0.336,0.228 -0.816,0.372 -0.804,0.24 -1.812,0.24 0.036,0.636 0.396,1.032 0.36,0.384 1.104,0.384 0.744,0 1.488,-0.528 l 0.456,0.972 q -0.24,0.216 -0.816,0.444 -0.564,0.228 -1.296,0.228 -1.464,0 -2.148,-0.804 -0.684,-0.816 -0.684,-2.232 0,-1.416 0.78,-2.376 0.78,-0.96 2.184,-0.96 z m -0.552,2.748 q 0.444,-0.084 0.816,-0.348 0.372,-0.276 0.372,-0.648 0,-0.732 -0.72,-0.732 -0.672,0 -1.032,0.54 -0.36,0.528 -0.396,1.272 0.528,-0.012 0.96,-0.084 z" />
    <path
       id="path6244"
       style="font-size:12px;line-height:1.25;stroke-width:1.06666672px"
       d="m 375.32726,63.418872 h 2.532 v 0.936 l -0.372,0.024 q -0.24,0.024 -0.324,0.288 l -1.548,4.788 h -1.836 l -1.68,-4.776 q -0.06,-0.168 -0.132,-0.228 -0.06,-0.06 -0.216,-0.072 l -0.348,-0.024 v -0.936 h 2.82 v 0.96 l -0.732,0.036 1.236,3.948 h 0.024 l 1.2,-3.948 -0.624,-0.036 z" />
    <path
       id="path6246"
       style="font-size:12px;line-height:1.25;stroke-width:1.06666672px"
       d="m 380.55439,63.418872 v 5.04 l 0.684,0.036 v 0.96 h -2.856 v -0.912 l 0.396,-0.036 q 0.348,-0.036 0.348,-0.384 v -3.336 q 0,-0.204 -0.072,-0.276 -0.06,-0.072 -0.228,-0.072 l -0.42,-0.024 v -0.996 z m -1.512,-1.032 q -0.252,-0.252 -0.252,-0.636 0,-0.384 0.252,-0.636 0.252,-0.264 0.66,-0.264 0.408,0 0.66,0.264 0.264,0.252 0.264,0.636 0,0.384 -0.264,0.636 -0.252,0.24 -0.66,0.24 -0.408,0 -0.66,-0.24 z" />
    <path
       id="path6248"
       style="font-size:12px;line-height:1.25;stroke-width:1.06666672px"
       d="m 386.92489,69.454872 h -4.896 v -0.912 l 3.084,-4.056 h -1.512 q -0.252,0 -0.324,0.096 -0.06,0.096 -0.06,0.312 v 0.42 l -1.128,-0.084 v -1.812 h 4.776 v 0.816 l -3.12,4.14 h 1.704 q 0.348,0 0.348,-0.408 v -0.504 l 1.128,0.084 z" />
    <path
       id="path6250"
       style="font-size:12px;line-height:1.25;stroke-width:1.06666672px"
       d="m 390.74595,63.238872 q 0.9,0 1.428,0.444 0.528,0.432 0.528,1.224 0,0.528 -0.228,0.936 -0.228,0.396 -0.564,0.624 -0.336,0.228 -0.816,0.372 -0.804,0.24 -1.812,0.24 0.036,0.636 0.396,1.032 0.36,0.384 1.104,0.384 0.744,0 1.488,-0.528 l 0.456,0.972 q -0.24,0.216 -0.816,0.444 -0.564,0.228 -1.296,0.228 -1.464,0 -2.148,-0.804 -0.684,-0.816 -0.684,-2.232 0,-1.416 0.78,-2.376 0.78,-0.96 2.184,-0.96 z m -0.552,2.748 q 0.444,-0.084 0.816,-0.348 0.372,-0.276 0.372,-0.648 0,-0.732 -0.72,-0.732 -0.672,0 -1.032,0.54 -0.36,0.528 -0.396,1.272 0.528,-0.012 0.96,-0.084 z" />
  </g>
  <g
     id="text4356"
     style="font-style:normal;font-variant:normal;font-weight:normal;font-stretch:normal;font-size:12.80000019px;line-height:0%;font-family:'Bree Serif';-inkscape-font-specification:'Bree Serif';text-align:start;letter-spacing:0px;word-spacing:0px;text-anchor:start;fill:#000000;fill-opacity:1;stroke:none;stroke-width:1.06666672px;stroke-linecap:butt;stroke-linejoin:miter;stroke-opacity:1"
     aria-label="Stage">
    <path
       id="path6253"
       style="font-size:12px;line-height:1.25;stroke-width:1.06666672px"
       d="m 230.0349,68.374872 q 1.44,0 1.44,-1.152 0,-0.6 -0.636,-0.888 -0.336,-0.168 -0.876,-0.312 -0.528,-0.144 -0.888,-0.288 -0.348,-0.156 -0.708,-0.42 -0.708,-0.528 -0.708,-1.62 0,-1.104 0.756,-1.728 0.768,-0.636 1.992,-0.636 1.236,0 2.292,0.492 v 1.8 l -1.224,0.084 v -0.696 q 0,-0.18 -0.048,-0.264 -0.132,-0.228 -0.852,-0.228 -0.708,0 -1.056,0.252 -0.336,0.252 -0.336,0.78 0,0.384 0.288,0.672 0.192,0.192 0.564,0.324 0.384,0.12 0.804,0.252 0.432,0.132 0.756,0.288 0.336,0.156 0.696,0.432 0.732,0.54 0.732,1.668 0,1.128 -0.816,1.776 -0.804,0.648 -2.136,0.648 -1.32,0 -2.376,-0.492 v -1.896 l 1.224,-0.084 v 0.732 q 0,0.18 0.048,0.264 0.048,0.084 0.288,0.168 0.252,0.072 0.78,0.072 z" />
    <path
       id="path6255"
       style="font-size:12px;line-height:1.25;stroke-width:1.06666672px"
       d="m 235.01152,62.146872 h 0.78 v 1.272 h 1.596 l -0.12,1.008 h -1.476 v 3.156 q 0,0.528 0.192,0.744 0.192,0.204 0.588,0.204 0.408,0 0.816,-0.252 l 0.36,0.924 q -0.6,0.42 -1.524,0.42 -0.54,0 -0.912,-0.144 -0.372,-0.132 -0.552,-0.3 -0.18,-0.168 -0.276,-0.492 -0.096,-0.324 -0.108,-0.504 -0.012,-0.192 -0.012,-0.552 v -3.204 h -0.852 l 0.12,-0.876 q 0.564,-0.048 0.852,-0.396 0.288,-0.36 0.528,-1.008 z" />
    <path
       id="path6257"
       style="font-size:12px;line-height:1.25;stroke-width:1.06666672px"
       d="m 243.59096,63.658872 v 4.464 q 0,0.192 0.06,0.264 0.072,0.072 0.24,0.084 l 0.384,0.024 v 0.96 h -1.908 v -0.696 l -0.036,-0.012 q -0.6,0.864 -1.644,0.864 -1.224,0 -1.812,-0.78 -0.588,-0.78 -0.588,-2.136 0,-1.632 0.792,-2.544 0.792,-0.912 2.376,-0.912 1.02,0 2.136,0.42 z m -1.392,3.888 v -3.108 q -0.336,-0.156 -0.924,-0.156 -0.804,0 -1.164,0.648 -0.36,0.648 -0.36,1.716 0,1.944 1.248,1.944 0.528,0 0.864,-0.312 0.336,-0.324 0.336,-0.732 z" />
    <path
       id="path6259"
       style="font-size:12px;line-height:1.25;stroke-width:1.06666672px"
       d="m 250.33984,69.442872 q -0.108,1.332 -0.768,1.956 -0.66,0.624 -2.064,0.624 -1.404,0 -2.196,-0.396 v -1.668 l 1.14,-0.096 v 0.576 q 0,0.324 0.3,0.432 0.3,0.12 0.828,0.12 0.768,0 1.08,-0.468 0.312,-0.456 0.312,-1.296 v -0.66 q -0.576,0.672 -1.596,0.672 -0.624,0 -1.104,-0.24 -0.468,-0.24 -0.732,-0.648 -0.516,-0.816 -0.516,-1.92 0,-1.572 0.852,-2.376 0.852,-0.816 2.268,-0.816 1.176,0 2.22,0.444 v 4.452 q 0,1.02 -0.024,1.308 z m -1.368,-2.436 v -2.58 q -0.42,-0.144 -0.96,-0.144 -0.732,0 -1.128,0.54 -0.384,0.54 -0.384,1.464 0,1.896 1.248,1.896 0.516,0 0.864,-0.312 0.36,-0.324 0.36,-0.864 z" />
    <path
       id="path6261"
       style="font-size:12px;line-height:1.25;stroke-width:1.06666672px"
       d="m 254.5509,63.238872 q 0.9,0 1.428,0.444 0.528,0.432 0.528,1.224 0,0.528 -0.228,0.936 -0.228,0.396 -0.564,0.624 -0.336,0.228 -0.816,0.372 -0.804,0.24 -1.812,0.24 0.036,0.636 0.396,1.032 0.36,0.384 1.104,0.384 0.744,0 1.488,-0.528 l 0.456,0.972 q -0.24,0.216 -0.816,0.444 -0.564,0.228 -1.296,0.228 -1.464,0 -2.148,-0.804 -0.684,-0.816 -0.684,-2.232 0,-1.416 0.78,-2.376 0.78,-0.96 2.184,-0.96 z m -0.552,2.748 q 0.444,-0.084 0.816,-0.348 0.372,-0.276 0.372,-0.648 0,-0.732 -0.72,-0.732 -0.672,0 -1.032,0.54 -0.36,0.528 -0.396,1.272 0.528,-0.012 0.96,-0.084 z" />
  </g>
  <g
     id="text4360"
     style="font-style:normal;font-variant:normal;font-weight:normal;font-stretch:normal;font-size:12.80000019px;line-height:0%;font-family:'Bree Serif';-inkscape-font-specification:'Bree Serif';text-align:start;letter-spacing:0px;word-spacing:0px;text-anchor:start;fill:#000000;fill-opacity:1;stroke:none;stroke-width:1.06666672px;stroke-linecap:butt;stroke-linejoin:miter;stroke-opacity:1"
     aria-label="Pracovní adresář">
    <path
       id="path6264"
       style="font-size:12px;line-height:1.25;stroke-width:1.06666672px"
       d="m 27.615518,69.454872 v -0.972 l 0.396,-0.036 q 0.348,-0.036 0.348,-0.336 v -5.58 l -0.684,-0.036 v -1.02 h 3.432 q 1.344,0 2.088,0.636 0.756,0.624 0.756,1.884 0,1.26 -0.852,1.968 -0.852,0.696 -2.256,0.696 h -1.02 v 1.74 l 1.152,0.036 v 1.02 z m 2.208,-3.96 h 0.864 q 1.752,0 1.752,-1.428 0,-0.864 -0.456,-1.14 -0.444,-0.288 -1.428,-0.288 h -0.732 z" />
    <path
       id="path6266"
       style="font-size:12px;line-height:1.25;stroke-width:1.06666672px"
       d="m 35.449643,68.110872 v -3.324 q 0,-0.192 -0.072,-0.264 -0.06,-0.084 -0.228,-0.096 l -0.504,-0.036 v -0.972 h 2.028 v 0.9 q 0.216,-0.468 0.672,-0.768 0.456,-0.312 1.044,-0.312 0.6,0 1.14,0.264 v 1.788 l -1.116,0.084 v -0.552 q 0,-0.24 -0.12,-0.3 -0.132,-0.06 -0.324,-0.06 -0.48,0 -0.792,0.348 -0.3,0.336 -0.3,0.864 v 2.784 l 1.044,0.048 v 0.948 h -3.216 v -0.912 l 0.396,-0.036 q 0.18,-0.024 0.264,-0.096 0.084,-0.084 0.084,-0.3 z" />
    <path
       id="path6268"
       style="font-size:12px;line-height:1.25;stroke-width:1.06666672px"
       d="m 45.64833,63.658872 v 4.464 q 0,0.192 0.06,0.264 0.072,0.072 0.24,0.084 l 0.384,0.024 v 0.96 h -1.908 v -0.696 l -0.036,-0.012 q -0.6,0.864 -1.644,0.864 -1.224,0 -1.812,-0.78 -0.588,-0.78 -0.588,-2.136 0,-1.632 0.792,-2.544 0.792,-0.912 2.376,-0.912 1.02,0 2.136,0.42 z m -1.392,3.888 v -3.108 q -0.336,-0.156 -0.924,-0.156 -0.804,0 -1.164,0.648 -0.36,0.648 -0.36,1.716 0,1.944 1.248,1.944 0.528,0 0.864,-0.312 0.336,-0.324 0.336,-0.732 z" />
    <path
       id="path6270"
       style="font-size:12px;line-height:1.25;stroke-width:1.06666672px"
       d="m 48.509205,66.370872 q 0,1.02 0.384,1.584 0.384,0.564 1.104,0.564 0.732,0 1.44,-0.516 l 0.516,0.924 q -0.852,0.696 -2.136,0.696 -1.284,0 -2.028,-0.804 -0.732,-0.816 -0.732,-2.4 0,-1.584 0.84,-2.376 0.852,-0.804 1.908,-0.804 1.068,0 1.98,0.492 v 1.56 l -1.104,0.084 v -0.576 q 0,-0.324 -0.24,-0.396 -0.228,-0.084 -0.48,-0.084 -1.452,0 -1.452,2.052 z" />
    <path
       id="path6272"
       style="font-size:12px;line-height:1.25;stroke-width:1.06666672px"
       d="m 55.348455,68.578872 q 1.308,0 1.308,-2.112 0,-1.068 -0.3,-1.62 -0.288,-0.552 -0.984,-0.552 -0.684,0 -1.008,0.528 -0.324,0.528 -0.324,1.44 0,1.692 0.624,2.124 0.276,0.192 0.684,0.192 z m -2.76,-2.148 q 0,-0.888 0.264,-1.536 0.264,-0.66 0.708,-1.008 0.852,-0.648 1.884,-0.648 0.72,0 1.212,0.24 0.504,0.228 0.78,0.54 0.288,0.3 0.48,0.888 0.204,0.576 0.204,1.368 0,1.656 -0.804,2.508 -0.804,0.852 -2.064,0.852 -1.248,0 -1.956,-0.804 -0.708,-0.816 -0.708,-2.4 z" />
    <path
       id="path6274"
       style="font-size:12px;line-height:1.25;stroke-width:1.06666672px"
       d="m 62.37708,63.418872 h 2.532 v 0.936 l -0.372,0.024 q -0.24,0.024 -0.324,0.288 l -1.548,4.788 h -1.836 l -1.68,-4.776 q -0.06,-0.168 -0.132,-0.228 -0.06,-0.06 -0.216,-0.072 l -0.348,-0.024 v -0.936 h 2.82 v 0.96 l -0.732,0.036 1.236,3.948 h 0.024 l 1.2,-3.948 -0.624,-0.036 z" />
    <path
       id="path6276"
       style="font-size:12px;line-height:1.25;stroke-width:1.06666672px"
       d="m 65.360205,64.378872 v -0.96 h 2.028 v 0.78 q 0.312,-0.444 0.828,-0.696 0.516,-0.264 1.116,-0.264 0.912,0 1.404,0.528 0.504,0.516 0.504,1.56 v 3.132 l 0.684,0.036 v 0.96 h -2.856 v -0.912 l 0.396,-0.036 q 0.18,-0.024 0.264,-0.096 0.084,-0.084 0.084,-0.3 v -2.472 q 0,-0.66 -0.204,-0.972 -0.204,-0.324 -0.78,-0.324 -0.564,0 -0.9,0.36 -0.336,0.36 -0.336,0.852 v 2.904 l 0.684,0.036 v 0.96 h -2.856 v -0.912 l 0.396,-0.036 q 0.18,-0.024 0.264,-0.096 0.084,-0.084 0.084,-0.3 v -3.324 q 0,-0.36 -0.3,-0.372 z" />
    <path
       id="path6278"
       style="font-size:12px;line-height:1.25;stroke-width:1.06666672px"
       d="m 74.799518,63.418872 v 5.04 l 0.684,0.036 v 0.96 h -2.856 v -0.912 l 0.396,-0.036 q 0.348,-0.036 0.348,-0.384 v -3.336 q 0,-0.204 -0.072,-0.276 -0.06,-0.072 -0.228,-0.072 l -0.42,-0.024 v -0.996 z m -1.584,-1.092 1.392,-2.304 0.564,0.264 q 0.348,0.192 0.348,0.432 0,0.24 -0.3,0.516 l -1.536,1.488 z" />
    <path
       id="path6280"
       style="font-size:12px;line-height:1.25;stroke-width:1.06666672px"
       d="m 83.968643,63.658872 v 4.464 q 0,0.192 0.06,0.264 0.072,0.072 0.24,0.084 l 0.384,0.024 v 0.96 h -1.908 v -0.696 l -0.036,-0.012 q -0.6,0.864 -1.644,0.864 -1.224,0 -1.812,-0.78 -0.588,-0.78 -0.588,-2.136 0,-1.632 0.792,-2.544 0.792,-0.912 2.376,-0.912 1.02,0 2.136,0.42 z m -1.392,3.888 v -3.108 q -0.336,-0.156 -0.924,-0.156 -0.804,0 -1.164,0.648 -0.36,0.648 -0.36,1.716 0,1.944 1.248,1.944 0.528,0 0.864,-0.312 0.336,-0.324 0.336,-0.732 z" />
    <path
       id="path6282"
       style="font-size:12px;line-height:1.25;stroke-width:1.06666672px"
       d="m 88.389518,63.238872 q 0.516,0 0.984,0.144 v -1.212 q 0,-0.264 -0.312,-0.288 l -0.516,-0.036 v -0.948 h 2.232 v 7.296 q 0.012,0.276 0.3,0.276 l 0.42,0.024 v 0.96 h -1.944 v -0.708 l -0.036,-0.012 q -0.54,0.876 -1.632,0.876 -1.368,0 -1.92,-0.912 -0.504,-0.828 -0.504,-2.028 0,-1.56 0.768,-2.496 0.78,-0.936 2.16,-0.936 z m 0.984,4.344 v -3.108 q -0.432,-0.192 -0.912,-0.192 -0.792,0 -1.164,0.636 -0.36,0.636 -0.36,1.62 0,2.016 1.296,2.016 0.492,0 0.816,-0.276 0.324,-0.288 0.324,-0.696 z" />
    <path
       id="path6284"
       style="font-size:12px;line-height:1.25;stroke-width:1.06666672px"
       d="m 92.94183,68.110872 v -3.324 q 0,-0.192 -0.072,-0.264 -0.06,-0.084 -0.228,-0.096 l -0.504,-0.036 v -0.972 h 2.028 v 0.9 q 0.216,-0.468 0.672,-0.768 0.456,-0.312 1.044,-0.312 0.6,0 1.14,0.264 v 1.788 l -1.116,0.084 v -0.552 q 0,-0.24 -0.12,-0.3 -0.132,-0.06 -0.324,-0.06 -0.48,0 -0.792,0.348 -0.3,0.336 -0.3,0.864 v 2.784 l 1.044,0.048 v 0.948 h -3.216 v -0.912 l 0.396,-0.036 q 0.18,-0.024 0.264,-0.096 0.084,-0.084 0.084,-0.3 z" />
    <path
       id="path6286"
       style="font-size:12px;line-height:1.25;stroke-width:1.06666672px"
       d="m 100.76452,63.238872 q 0.9,0 1.428,0.444 0.528,0.432 0.528,1.224 0,0.528 -0.228,0.936 -0.228,0.396 -0.564,0.624 -0.336,0.228 -0.816,0.372 -0.804,0.24 -1.812002,0.24 0.036,0.636 0.396,1.032 0.360002,0.384 1.104002,0.384 0.744,0 1.488,-0.528 l 0.456,0.972 q -0.24,0.216 -0.816,0.444 -0.564,0.228 -1.296,0.228 -1.464002,0 -2.148002,-0.804 -0.684,-0.816 -0.684,-2.232 0,-1.416 0.78,-2.376 0.78,-0.96 2.184002,-0.96 z m -0.552,2.748 q 0.444,-0.084 0.816,-0.348 0.372,-0.276 0.372,-0.648 0,-0.732 -0.72,-0.732 -0.672,0 -1.032002,0.54 -0.36,0.528 -0.396,1.272 0.528,-0.012 0.960002,-0.084 z" />
    <path
       id="path6288"
       style="font-size:12px;line-height:1.25;stroke-width:1.06666672px"
       d="m 106.70902,64.330872 q -0.288,-0.108 -0.696,-0.108 -0.408,0 -0.66,0.192 -0.24,0.18 -0.24,0.456 0,0.264 0.084,0.42 0.096,0.144 0.288,0.252 0.3,0.156 0.72,0.276 0.42,0.108 0.624,0.18 0.204,0.06 0.504,0.216 0.312,0.156 0.468,0.336 0.42,0.444 0.42,1.14 0,0.9 -0.66,1.416 -0.648,0.504 -1.656,0.504 -1.464,0 -2.208,-0.372 v -1.668 l 1.08,-0.084 v 0.576 q 0,0.528 1.008,0.528 1.008,0 1.008,-0.732 0,-0.264 -0.18,-0.432 -0.168,-0.168 -0.336,-0.228 -0.168,-0.06 -0.408,-0.12 -0.228,-0.06 -0.456,-0.12 -0.216,-0.06 -0.48,-0.156 -0.252,-0.108 -0.564,-0.3 -0.612,-0.396 -0.612,-1.32 0,-0.936 0.66,-1.44 0.66,-0.504 1.656,-0.504 1.008,0 1.992,0.48 v 1.44 l -1.08,0.084 v -0.504 q 0,-0.3 -0.276,-0.408 z" />
    <path
       id="path6290"
       style="font-size:12px;line-height:1.25;stroke-width:1.06666672px"
       d="m 114.36708,63.658872 v 4.464 q 0,0.192 0.06,0.264 0.072,0.072 0.24,0.084 l 0.384,0.024 v 0.96 h -1.908 v -0.696 l -0.036,-0.012 q -0.6,0.864 -1.644,0.864 -1.224,0 -1.812,-0.78 -0.588,-0.78 -0.588,-2.136 0,-1.632 0.792,-2.544 0.792,-0.912 2.376,-0.912 1.02,0 2.136,0.42 z m -1.392,3.888 v -3.108 q -0.336,-0.156 -0.924,-0.156 -0.804,0 -1.164,0.648 -0.36,0.648 -0.36,1.716 0,1.944 1.248,1.944 0.528,0 0.864,-0.312 0.336,-0.324 0.336,-0.732 z m -1.824,-5.22 1.392,-2.304 0.564,0.264 q 0.348,0.192 0.348,0.432 0,0.24 -0.3,0.516 l -1.536,1.488 z" />
    <path
       id="path6292"
       style="font-size:12px;line-height:1.25;stroke-width:1.06666672px"
       d="m 116.51996,68.110872 v -3.324 q 0,-0.192 -0.072,-0.264 -0.06,-0.084 -0.228,-0.096 l -0.504,-0.036 v -0.972 h 2.028 v 0.9 q 0.216,-0.468 0.672,-0.768 0.456,-0.312 1.044,-0.312 0.6,0 1.14,0.264 v 1.788 l -1.116,0.084 v -0.552 q 0,-0.24 -0.12,-0.3 -0.132,-0.06 -0.324,-0.06 -0.48,0 -0.792,0.348 -0.3,0.336 -0.3,0.864 v 2.784 l 1.044,0.048 v 0.948 h -3.216 v -0.912 l 0.396,-0.036 q 0.18,-0.024 0.264,-0.096 0.084,-0.084 0.084,-0.3 z m 2.988,-7.908 0.492,0.384 -1.38,1.752 q -0.24,0.312 -0.516,0.312 -0.3,0 -0.552,-0.336 l -1.356,-1.716 0.492,-0.408 1.416,1.248 z" />
  </g>
  <path
     id="path4368"
     d="m 109.64541,46.777671 c 18.89763,-22.677174 34.01574,-22.677174 56.69291,0"
     style="fill:none;fill-rule:evenodd;stroke:#000000;stroke-width:1.06666672px;stroke-linecap:butt;stroke-linejoin:miter;stroke-opacity:1;marker-end:url(#Arrow2Lend)" />
  <path
     style="fill:none;fill-rule:evenodd;stroke:#000000;stroke-width:1.06666672px;stroke-linecap:butt;stroke-linejoin:miter;stroke-opacity:1;marker-end:url(#marker4634)"
     d="m 245.70841,46.777671 c 18.89763,-22.677174 34.01574,-22.677174 56.69292,0"
     id="path4632" />
  <g
     id="text4638"
     style="font-style:normal;font-variant:normal;font-weight:normal;font-stretch:normal;font-size:12.80000019px;line-height:0%;font-family:'Oxygen Mono';-inkscape-font-specification:'Oxygen Mono';text-align:center;letter-spacing:0px;word-spacing:0px;text-anchor:middle;fill:#000000;fill-opacity:1;stroke:none;stroke-width:1.06666672px;stroke-linecap:butt;stroke-linejoin:miter;stroke-opacity:1"
     aria-label="git add soubor">
    <path
       id="path6314"
       style="font-size:12px;line-height:1.25999999;stroke-width:1.06666672px"
       d="m 84.256897,22.659357 q -1.587891,0 -1.587891,2.320313 0,0.392578 0.08789,0.74414 0.08789,0.351563 0.263672,0.650391 0.18164,0.298828 0.486328,0.474609 0.310547,0.175781 0.708984,0.175781 0.357422,0 0.632813,-0.117187 0.28125,-0.117188 0.451172,-0.310547 0.175781,-0.199219 0.28125,-0.474609 0.111328,-0.275391 0.152343,-0.556641 0.04687,-0.287109 0.04687,-0.615234 0,-0.386719 -0.04102,-0.703125 -0.03516,-0.316407 -0.140625,-0.621094 -0.09961,-0.304688 -0.269531,-0.509766 Q 85.1651,22.91131 84.889709,22.788263 84.620178,22.659357 84.256897,22.659357 Z m 1.599609,4.113281 q -0.175781,0.445313 -0.662109,0.779297 -0.486328,0.328125 -1.072266,0.328125 -0.708984,0 -1.265625,-0.398437 -0.55664,-0.404297 -0.855468,-1.066407 -0.298829,-0.667968 -0.298829,-1.464843 0,-0.873047 0.257813,-1.541016 0.263672,-0.673828 0.826172,-1.078125 0.5625,-0.410156 1.365234,-0.410156 1.042969,0 1.628906,0.960937 l 0.03516,-0.785156 h 0.925781 v 5.460938 q 0,1.488281 -0.720703,2.191406 -0.714844,0.703125 -2.121094,0.703125 -0.820312,0 -1.212891,-0.08789 v -0.714844 q 0.298829,0.07031 1.142579,0.07031 0.298828,0 0.568359,-0.05273 0.275391,-0.05273 0.544922,-0.19336 0.27539,-0.140625 0.46875,-0.363281 0.199219,-0.216797 0.322265,-0.574219 0.123047,-0.351562 0.123047,-0.808594 z" />
    <path
       id="path6316"
       style="font-size:12px;line-height:1.25999999;stroke-width:1.06666672px"
       d="m 89.788147,22.835138 v -0.738281 h 2.613281 v 5.044922 h 1.658203 v 0.738281 h -4.453125 v -0.738281 h 1.833985 v -4.306641 z m 1.494141,-2.261718 v -0.521485 q 0,-0.1875 0.210937,-0.333984 0.216797,-0.146485 0.427734,-0.146485 0.210938,0 0.421875,0.146485 0.216797,0.146484 0.216797,0.333984 v 0.521485 q 0,0.1875 -0.216797,0.333984 -0.210937,0.140625 -0.421875,0.140625 -0.210937,0 -0.427734,-0.140625 -0.210937,-0.146484 -0.210937,-0.333984 z" />
    <path
       id="path6318"
       style="font-size:12px;line-height:1.25999999;stroke-width:1.06666672px"
       d="m 98.366272,22.835138 v 2.712891 q 0,0.908203 0.193359,1.248047 0.19336,0.339844 0.808594,0.357422 h 1.324215 v 0.74414 h -1.453121 q -0.457031,0 -0.785156,-0.105468 -0.322266,-0.105469 -0.527344,-0.298829 -0.205078,-0.193359 -0.322266,-0.521484 -0.111328,-0.328125 -0.158203,-0.714844 -0.04102,-0.392578 -0.04102,-0.949218 v -2.472657 h -1.634765 l 0.105469,-0.738281 h 1.529296 V 20.09881 l 0.960938,-0.28125 v 2.279297 h 2.326168 v 0.738281 z" />
    <path
       id="path6320"
       style="font-size:12px;line-height:1.25999999;stroke-width:1.06666672px"
       d="m 110.8233,26.403498 q 0,-0.416016 0.12305,-0.732422 0.12891,-0.322266 0.35156,-0.533203 0.22266,-0.210938 0.55078,-0.345703 0.32813,-0.134766 0.70899,-0.1875 0.38086,-0.05859 0.84961,-0.05859 l 0.93164,0.0059 v -0.492187 q 0,-0.732422 -0.33985,-1.054688 -0.33398,-0.328125 -0.97851,-0.328125 -0.61524,0 -1.62305,0.298828 l -0.21679,-0.691406 q 1.02539,-0.357422 1.91601,-0.357422 0.375,0 0.69141,0.06445 0.3164,0.06445 0.59179,0.216797 0.28125,0.146485 0.47461,0.375 0.19922,0.228516 0.31055,0.574219 0.11719,0.345703 0.11719,0.785156 v 3.9375 h -0.7793 l -0.12891,-0.626953 q -0.25195,0.351563 -0.73242,0.556641 -0.47461,0.199218 -1.00781,0.199218 -0.35156,0 -0.66797,-0.09961 -0.3164,-0.09375 -0.58008,-0.28125 -0.25781,-0.1875 -0.41015,-0.503906 -0.15235,-0.316406 -0.15235,-0.720703 z m 3.51563,0.164062 v -1.40039 l -0.89063,0.0059 q -0.33398,0 -0.62109,0.06445 -0.28711,0.05859 -0.53906,0.1875 -0.25196,0.128906 -0.39844,0.369141 -0.14063,0.240234 -0.14063,0.5625 0,0.503906 0.25782,0.738281 0.26367,0.228516 0.6914,0.228516 0.45703,0 0.94336,-0.228516 0.49219,-0.234375 0.69727,-0.527344 z" />
    <path
       id="path6322"
       style="font-size:12px;line-height:1.25999999;stroke-width:1.06666672px"
       d="m 121.92682,22.893732 v -3.158203 l 0.96094,-0.105469 v 8.25 h -0.87305 l -0.0879,-0.896484 q -0.14649,0.251953 -0.33984,0.46289 -0.1875,0.205079 -0.54493,0.386719 -0.35156,0.175781 -0.76757,0.175781 -0.60938,0 -1.07227,-0.240234 -0.45703,-0.240234 -0.73242,-0.667969 -0.26953,-0.427734 -0.4043,-0.966797 -0.12891,-0.544921 -0.12891,-1.195312 0,-0.632813 0.14063,-1.166016 0.14062,-0.533203 0.41602,-0.955078 0.27539,-0.421875 0.73242,-0.65625 0.45703,-0.240234 1.04883,-0.240234 0.65039,0 1.06054,0.269531 0.41602,0.269531 0.5918,0.703125 z m 0,2.056641 q 0,-0.416016 -0.0352,-0.732422 -0.0293,-0.316406 -0.1289,-0.621094 -0.0996,-0.304687 -0.26953,-0.498047 -0.16407,-0.199219 -0.44532,-0.316406 -0.28125,-0.123047 -0.66211,-0.123047 -0.36328,0 -0.63867,0.134766 -0.26953,0.134765 -0.42773,0.351562 -0.15821,0.210938 -0.25782,0.533203 -0.0937,0.316407 -0.1289,0.632813 -0.0293,0.310547 -0.0293,0.697265 0,2.261719 1.48242,2.261719 1.54102,0 1.54102,-2.320312 z" />
    <path
       id="path6324"
       style="font-size:12px;line-height:1.25999999;stroke-width:1.06666672px"
       d="m 129.12213,22.893732 v -3.158203 l 0.96094,-0.105469 v 8.25 h -0.87305 l -0.0879,-0.896484 q -0.14648,0.251953 -0.33984,0.46289 -0.1875,0.205079 -0.54492,0.386719 -0.35157,0.175781 -0.76758,0.175781 -0.60938,0 -1.07227,-0.240234 -0.45703,-0.240234 -0.73242,-0.667969 -0.26953,-0.427734 -0.4043,-0.966797 -0.1289,-0.544921 -0.1289,-1.195312 0,-0.632813 0.14062,-1.166016 0.14063,-0.533203 0.41602,-0.955078 0.27539,-0.421875 0.73242,-0.65625 0.45703,-0.240234 1.04883,-0.240234 0.65039,0 1.06054,0.269531 0.41602,0.269531 0.5918,0.703125 z m 0,2.056641 q 0,-0.416016 -0.0351,-0.732422 -0.0293,-0.316406 -0.12891,-0.621094 -0.0996,-0.304687 -0.26953,-0.498047 -0.16406,-0.199219 -0.44531,-0.316406 -0.28125,-0.123047 -0.66211,-0.123047 -0.36329,0 -0.63868,0.134766 -0.26953,0.134765 -0.42773,0.351562 -0.1582,0.210938 -0.25781,0.533203 -0.0937,0.316407 -0.12891,0.632813 -0.0293,0.310547 -0.0293,0.697265 0,2.261719 1.48243,2.261719 1.54101,0 1.54101,-2.320312 z" />
    <path
       id="path6326"
       style="font-style:normal;font-variant:normal;font-weight:normal;font-stretch:normal;font-family:Oxygen;-inkscape-font-specification:Oxygen;fill:#ff5656;fill-opacity:1;stroke-width:1.06666672px"
       d="m 141.18658,28.014826 q -0.65625,0 -1.21289,-0.140625 -0.55078,-0.140625 -0.89648,-0.363281 l 0.12305,-0.826172 q 0.97851,0.521484 1.92187,0.521484 1.42969,0 1.4707,-1.007812 0,-0.427735 -0.30468,-0.673829 -0.30469,-0.246093 -1.19532,-0.550781 l -0.48632,-0.169922 q -0.84375,-0.28125 -1.20703,-0.697265 -0.35743,-0.416016 -0.36329,-1.03711 0,-0.755859 0.60352,-1.253906 0.60937,-0.498047 1.66406,-0.498047 1.08985,0 1.98633,0.421875 l -0.28711,0.75 q -0.9082,-0.375 -1.69922,-0.375 -0.61523,0 -0.96679,0.246094 -0.34571,0.240234 -0.34571,0.679687 0,0.375 0.25196,0.574219 0.25195,0.199219 1.00781,0.457031 0.19336,0.07031 0.48633,0.164063 0.97265,0.316406 1.37695,0.75 0.4043,0.427734 0.4043,1.160156 -0.0117,0.890625 -0.63868,1.382813 -0.62695,0.486328 -1.69336,0.486328 z" />
    <path
       id="path6328"
       style="font-style:normal;font-variant:normal;font-weight:normal;font-stretch:normal;font-family:Oxygen;-inkscape-font-specification:Oxygen;fill:#ff5656;fill-opacity:1;stroke-width:1.06666672px"
       d="m 145.56354,24.680841 q 0,1.142579 0.5039,1.833985 0.50977,0.685547 1.48243,0.685547 0.96093,0 1.44726,-0.685547 0.49219,-0.685547 0.49219,-1.845703 0,-1.177735 -0.48633,-1.851563 -0.48047,-0.679687 -1.4707,-0.679687 -0.96094,0 -1.46485,0.691406 -0.5039,0.691406 -0.5039,1.851562 z m 4.93945,-0.01758 q 0,1.494141 -0.79687,2.425782 -0.79688,0.925781 -2.20313,0.925781 -1.35351,0 -2.15625,-0.9375 -0.79687,-0.9375 -0.79687,-2.408203 0,-1.5 0.80273,-2.425782 0.80273,-0.925781 2.20313,-0.925781 1.37695,0 2.1621,0.931641 0.78516,0.925781 0.78516,2.414062 z" />
    <path
       id="path6330"
       style="font-style:normal;font-variant:normal;font-weight:normal;font-stretch:normal;font-family:Oxygen;-inkscape-font-specification:Oxygen;fill:#ff5656;fill-opacity:1;stroke-width:1.06666672px"
       d="m 151.65729,25.735529 v -4.283203 h 0.98437 v 4.294922 q 0,0.421875 0.11719,0.714843 0.12305,0.292969 0.3457,0.457032 0.22852,0.158203 0.50977,0.228515 0.28711,0.07031 0.65625,0.07031 0.76172,0 1.18359,-0.333985 0.42774,-0.333984 0.42774,-1.136718 v -4.294922 h 0.98437 v 4.283203 q 0,0.492187 -0.14062,0.884766 -0.14063,0.392578 -0.38086,0.65625 -0.23438,0.257812 -0.56836,0.427734 -0.33399,0.169922 -0.70899,0.246094 -0.36914,0.07617 -0.79687,0.07617 -0.42188,0 -0.79688,-0.07617 -0.375,-0.07617 -0.71484,-0.246094 -0.33398,-0.175781 -0.58008,-0.433594 -0.24023,-0.263672 -0.38086,-0.65625 -0.14062,-0.392578 -0.14062,-0.878906 z" />
    <path
       id="path6332"
       style="font-style:normal;font-variant:normal;font-weight:normal;font-stretch:normal;font-family:Oxygen;-inkscape-font-specification:Oxygen;fill:#ff5656;fill-opacity:1;stroke-width:1.06666672px"
       d="m 161.24908,22.132013 q -0.93164,0 -1.42968,0.644532 -0.49219,0.638671 -0.49219,1.880859 0,2.542969 1.91602,2.542969 0.4746,0 0.83203,-0.19336 0.36328,-0.199218 0.56836,-0.550781 0.21093,-0.357422 0.31054,-0.802734 0.10547,-0.445313 0.10547,-0.990235 0,-0.738281 -0.17578,-1.289062 -0.16992,-0.550781 -0.58594,-0.896485 -0.41601,-0.345703 -1.04883,-0.345703 z m 0.0996,-0.814453 q 0.85547,0 1.47657,0.433594 0.62109,0.433594 0.93164,1.177734 0.31054,0.744141 0.31054,1.705078 0,0.996094 -0.31054,1.751954 -0.30469,0.755859 -0.93164,1.195312 -0.6211,0.433594 -1.48828,0.433594 -0.63868,0 -1.16602,-0.275391 -0.52734,-0.27539 -0.87891,-0.75 l -0.0996,0.890625 h -0.83789 v -8.923828 l 0.97852,-0.05859 v 2.126953 q 0,0.785157 -0.0234,1.347657 0.33985,-0.486328 0.87891,-0.767578 0.54492,-0.28711 1.16015,-0.28711 z" />
    <path
       id="path6334"
       style="font-style:normal;font-variant:normal;font-weight:normal;font-stretch:normal;font-family:Oxygen;-inkscape-font-specification:Oxygen;fill:#ff5656;fill-opacity:1;stroke-width:1.06666672px"
       d="m 166.1651,24.680841 q 0,1.142579 0.50391,1.833985 0.50976,0.685547 1.48242,0.685547 0.96094,0 1.44726,-0.685547 0.49219,-0.685547 0.49219,-1.845703 0,-1.177735 -0.48633,-1.851563 -0.48047,-0.679687 -1.4707,-0.679687 -0.96094,0 -1.46484,0.691406 -0.50391,0.691406 -0.50391,1.851562 z m 4.93945,-0.01758 q 0,1.494141 -0.79687,2.425782 -0.79688,0.925781 -2.20313,0.925781 -1.35351,0 -2.15625,-0.9375 -0.79687,-0.9375 -0.79687,-2.408203 0,-1.5 0.80273,-2.425782 0.80274,-0.925781 2.20313,-0.925781 1.37695,0 2.16211,0.931641 0.78515,0.925781 0.78515,2.414062 z" />
    <path
       id="path6336"
       style="font-style:normal;font-variant:normal;font-weight:normal;font-stretch:normal;font-family:Oxygen;-inkscape-font-specification:Oxygen;fill:#ff5656;fill-opacity:1;stroke-width:1.06666672px"
       d="m 175.36432,21.393732 q 0.26367,0 0.48047,0.03516 l -0.0352,0.902344 q -0.26953,-0.04687 -0.46875,-0.04687 -0.82031,0 -1.33594,0.574219 -0.50976,0.568359 -0.50976,1.412109 v 3.609375 h -0.97852 q -0.006,-5.917969 -0.006,-6.427734 h 0.81446 l 0.0937,1.154297 q 0.33398,-0.544922 0.84961,-0.878907 0.51562,-0.333984 1.0957,-0.333984 z" />
  </g>
  <g
     id="text4642"
     style="font-style:normal;font-variant:normal;font-weight:normal;font-stretch:normal;font-size:12.80000019px;line-height:0%;font-family:'Oxygen Mono';-inkscape-font-specification:'Oxygen Mono';text-align:center;letter-spacing:0px;word-spacing:0px;text-anchor:middle;fill:#000000;fill-opacity:1;stroke:none;stroke-width:1.06666672px;stroke-linecap:butt;stroke-linejoin:miter;stroke-opacity:1"
     aria-label="git commit">
    <path
       id="path6295"
       style="font-size:12px;line-height:1.25999999;stroke-width:1.06666672px"
       d="m 240.50687,22.659357 q -1.58789,0 -1.58789,2.320313 0,0.392578 0.0879,0.74414 0.0879,0.351563 0.26367,0.650391 0.18164,0.298828 0.48633,0.474609 0.31054,0.175781 0.70898,0.175781 0.35742,0 0.63281,-0.117187 0.28125,-0.117188 0.45118,-0.310547 0.17578,-0.199219 0.28125,-0.474609 0.11132,-0.275391 0.15234,-0.556641 0.0469,-0.287109 0.0469,-0.615234 0,-0.386719 -0.041,-0.703125 -0.0352,-0.316407 -0.14063,-0.621094 -0.0996,-0.304688 -0.26953,-0.509766 -0.16406,-0.205078 -0.43945,-0.328125 -0.26953,-0.128906 -0.63281,-0.128906 z m 1.59961,4.113281 q -0.17579,0.445313 -0.66211,0.779297 -0.48633,0.328125 -1.07227,0.328125 -0.70898,0 -1.26562,-0.398437 -0.55664,-0.404297 -0.85547,-1.066407 -0.29883,-0.667968 -0.29883,-1.464843 0,-0.873047 0.25781,-1.541016 0.26367,-0.673828 0.82617,-1.078125 0.5625,-0.410156 1.36524,-0.410156 1.04297,0 1.6289,0.960937 l 0.0352,-0.785156 h 0.92578 v 5.460938 q 0,1.488281 -0.7207,2.191406 -0.71485,0.703125 -2.1211,0.703125 -0.82031,0 -1.21289,-0.08789 v -0.714844 q 0.29883,0.07031 1.14258,0.07031 0.29883,0 0.56836,-0.05273 0.27539,-0.05273 0.54492,-0.19336 0.27539,-0.140625 0.46875,-0.363281 0.19922,-0.216797 0.32227,-0.574219 0.12305,-0.351562 0.12305,-0.808594 z" />
    <path
       id="path6297"
       style="font-size:12px;line-height:1.25999999;stroke-width:1.06666672px"
       d="m 246.03812,22.835138 v -0.738281 h 2.61328 v 5.044922 h 1.6582 v 0.738281 h -4.45312 v -0.738281 h 1.83398 v -4.306641 z m 1.49414,-2.261718 v -0.521485 q 0,-0.1875 0.21093,-0.333984 0.2168,-0.146485 0.42774,-0.146485 0.21094,0 0.42187,0.146485 0.2168,0.146484 0.2168,0.333984 v 0.521485 q 0,0.1875 -0.2168,0.333984 -0.21093,0.140625 -0.42187,0.140625 -0.21094,0 -0.42774,-0.140625 -0.21093,-0.146484 -0.21093,-0.333984 z" />
    <path
       id="path6299"
       style="font-size:12px;line-height:1.25999999;stroke-width:1.06666672px"
       d="m 254.61624,22.835138 v 2.712891 q 0,0.908203 0.19336,1.248047 0.19336,0.339844 0.80859,0.357422 h 1.32422 v 0.74414 h -1.45312 q -0.45703,0 -0.78516,-0.105468 -0.32226,-0.105469 -0.52734,-0.298829 -0.20508,-0.193359 -0.32227,-0.521484 -0.11133,-0.328125 -0.1582,-0.714844 -0.041,-0.392578 -0.041,-0.949218 v -2.472657 h -1.63476 l 0.10547,-0.738281 h 1.52929 V 20.09881 l 0.96094,-0.28125 v 2.279297 h 2.32617 v 0.738281 z" />
    <path
       id="path6301"
       style="font-size:12px;line-height:1.25999999;stroke-width:1.06666672px"
       d="m 271.37405,27.499201 q -0.27539,0.251953 -0.70312,0.380859 -0.42188,0.128906 -0.87891,0.128906 -0.52734,0 -0.98437,-0.164062 -0.45117,-0.164063 -0.78516,-0.451172 -0.32812,-0.287109 -0.5625,-0.667969 -0.23437,-0.386718 -0.35156,-0.83789 -0.11719,-0.451172 -0.11719,-0.9375 0,-0.808594 0.32813,-1.494141 0.33398,-0.685547 0.97851,-1.107422 0.64453,-0.427734 1.47656,-0.427734 0.48047,0 0.89063,0.140625 0.41016,0.140625 0.66797,0.357422 l -0.39844,0.585937 q -0.49805,-0.345703 -1.14258,-0.345703 -0.81445,0 -1.32422,0.650391 -0.5039,0.65039 -0.5039,1.664062 0,1.013672 0.5039,1.658203 0.50391,0.638672 1.36524,0.638672 0.64453,0 1.1543,-0.363281 z" />
    <path
       id="path6303"
       style="font-size:12px;line-height:1.25999999;stroke-width:1.06666672px"
       d="m 276.68265,21.921076 q 0.63281,0 1.11914,0.228515 0.49219,0.228516 0.79101,0.638672 0.30469,0.410157 0.45704,0.955078 0.1582,0.544922 0.1582,1.195313 0,1.388672 -0.67969,2.232422 -0.67969,0.83789 -1.8457,0.83789 -0.6211,0 -1.10742,-0.234375 -0.48633,-0.240234 -0.78516,-0.65625 -0.29883,-0.416015 -0.45117,-0.955078 -0.15235,-0.544922 -0.15235,-1.189453 0,-1.382812 0.66797,-2.214844 0.67383,-0.83789 1.82813,-0.83789 z m -1.52344,3.058594 q 0,0.357421 0.041,0.673828 0.041,0.316406 0.14648,0.621093 0.11133,0.304688 0.27539,0.521485 0.16992,0.210937 0.43945,0.345703 0.27539,0.128906 0.6211,0.128906 0.35742,0 0.63281,-0.128906 0.28125,-0.134766 0.45117,-0.351563 0.17578,-0.216796 0.28125,-0.521484 0.11133,-0.304687 0.15235,-0.621094 0.0469,-0.322265 0.0469,-0.685547 0,-0.363281 -0.0469,-0.679687 -0.041,-0.316406 -0.15235,-0.621094 -0.10547,-0.304687 -0.28125,-0.521484 -0.16992,-0.216797 -0.45117,-0.345703 -0.27539,-0.134766 -0.63281,-0.134766 -0.4336,0 -0.74414,0.199219 -0.31055,0.199219 -0.47461,0.544922 -0.15821,0.345703 -0.23438,0.732422 -0.0703,0.386718 -0.0703,0.84375 z" />
    <path
       id="path6305"
       style="font-size:12px;line-height:1.25999999;stroke-width:1.06666672px"
       d="m 285.10257,22.659357 q -0.16992,0 -0.30469,0.06445 -0.1289,0.05859 -0.21679,0.146485 -0.082,0.08203 -0.14063,0.240234 -0.0586,0.152344 -0.0879,0.269531 -0.0234,0.111328 -0.041,0.316406 -0.0117,0.199219 -0.0176,0.304688 0,0.09961 0,0.292969 v 3.585937 h -0.8086 v -3.527344 q 0,-0.228515 -0.006,-0.375 -0.006,-0.146484 -0.0234,-0.36914 -0.0176,-0.228516 -0.0645,-0.369141 -0.041,-0.146484 -0.11133,-0.292969 -0.0703,-0.146484 -0.1875,-0.216796 -0.11718,-0.07031 -0.27539,-0.07031 -0.27539,0 -0.47461,0.234375 -0.19336,0.234375 -0.27539,0.544922 -0.0762,0.304687 -0.0762,0.638672 v 3.802734 h -0.8789 v -5.783203 h 0.76171 l 0.0586,0.761719 q 0.15234,-0.398438 0.42187,-0.667969 0.26953,-0.269531 0.66797,-0.269531 0.41016,0 0.69141,0.240234 0.28125,0.234375 0.39258,0.65625 0.17578,-0.451172 0.46875,-0.673828 0.29296,-0.222656 0.75,-0.222656 0.3164,0 0.55078,0.134765 0.23437,0.128907 0.36914,0.333985 0.13476,0.205078 0.21679,0.515625 0.082,0.304687 0.10547,0.603515 0.0293,0.292969 0.0293,0.66211 v 3.708984 h -0.87891 v -3.597656 q 0,-0.210938 -0.006,-0.328125 0,-0.123047 -0.0117,-0.316406 -0.0117,-0.199219 -0.0352,-0.310547 -0.0176,-0.117188 -0.0645,-0.257813 -0.0469,-0.146484 -0.11133,-0.222656 -0.0644,-0.07617 -0.16406,-0.128906 -0.0937,-0.05859 -0.22266,-0.05859 z" />
    <path
       id="path6307"
       style="font-size:12px;line-height:1.25999999;stroke-width:1.06666672px"
       d="m 292.29788,22.659357 q -0.16992,0 -0.30469,0.06445 -0.1289,0.05859 -0.21679,0.146485 -0.082,0.08203 -0.14063,0.240234 -0.0586,0.152344 -0.0879,0.269531 -0.0234,0.111328 -0.041,0.316406 -0.0117,0.199219 -0.0176,0.304688 0,0.09961 0,0.292969 v 3.585937 h -0.8086 v -3.527344 q 0,-0.228515 -0.006,-0.375 -0.006,-0.146484 -0.0234,-0.36914 -0.0176,-0.228516 -0.0645,-0.369141 -0.041,-0.146484 -0.11132,-0.292969 -0.0703,-0.146484 -0.1875,-0.216796 -0.11719,-0.07031 -0.27539,-0.07031 -0.27539,0 -0.47461,0.234375 -0.19336,0.234375 -0.27539,0.544922 -0.0762,0.304687 -0.0762,0.638672 v 3.802734 h -0.8789 v -5.783203 h 0.76172 l 0.0586,0.761719 q 0.15234,-0.398438 0.42188,-0.667969 0.26953,-0.269531 0.66796,-0.269531 0.41016,0 0.69141,0.240234 0.28125,0.234375 0.39258,0.65625 0.17578,-0.451172 0.46875,-0.673828 0.29297,-0.222656 0.75,-0.222656 0.3164,0 0.55078,0.134765 0.23437,0.128907 0.36914,0.333985 0.13477,0.205078 0.2168,0.515625 0.082,0.304687 0.10547,0.603515 0.0293,0.292969 0.0293,0.66211 v 3.708984 h -0.8789 v -3.597656 q 0,-0.210938 -0.006,-0.328125 0,-0.123047 -0.0117,-0.316406 -0.0117,-0.199219 -0.0352,-0.310547 -0.0176,-0.117188 -0.0645,-0.257813 -0.0469,-0.146484 -0.11133,-0.222656 -0.0644,-0.07617 -0.16406,-0.128906 -0.0937,-0.05859 -0.22266,-0.05859 z" />
    <path
       id="path6309"
       style="font-size:12px;line-height:1.25999999;stroke-width:1.06666672px"
       d="m 296.4053,22.835138 v -0.738281 h 2.61329 v 5.044922 h 1.6582 v 0.738281 h -4.45313 v -0.738281 h 1.83399 v -4.306641 z m 1.49414,-2.261718 v -0.521485 q 0,-0.1875 0.21094,-0.333984 0.2168,-0.146485 0.42774,-0.146485 0.21093,0 0.42187,0.146485 0.2168,0.146484 0.2168,0.333984 v 0.521485 q 0,0.1875 -0.2168,0.333984 -0.21094,0.140625 -0.42187,0.140625 -0.21094,0 -0.42774,-0.140625 -0.21094,-0.146484 -0.21094,-0.333984 z" />
    <path
       id="path6311"
       style="font-size:12px;line-height:1.25999999;stroke-width:1.06666672px"
       d="m 304.98343,22.835138 v 2.712891 q 0,0.908203 0.19336,1.248047 0.19336,0.339844 0.80859,0.357422 h 1.32422 v 0.74414 h -1.45312 q -0.45704,0 -0.78516,-0.105468 -0.32227,-0.105469 -0.52734,-0.298829 -0.20508,-0.193359 -0.32227,-0.521484 -0.11133,-0.328125 -0.1582,-0.714844 -0.041,-0.392578 -0.041,-0.949218 v -2.472657 h -1.63476 l 0.10546,-0.738281 h 1.5293 V 20.09881 l 0.96094,-0.28125 v 2.279297 h 2.32617 v 0.738281 z" />
  </g>
  <path
     style="fill:none;fill-rule:evenodd;stroke:#000000;stroke-width:1.06666672px;stroke-linecap:butt;stroke-linejoin:miter;stroke-opacity:1;marker-start:url(#Arrow2Lstart);marker-end:url(#marker4652)"
     d="M 86.968227,114.80917 H 189.01549"
     id="path4646" />
  <g
     id="text4648"
     style="font-style:normal;font-variant:normal;font-weight:normal;font-stretch:normal;font-size:12.80000019px;line-height:0%;font-family:'Oxygen Mono';-inkscape-font-specification:'Oxygen Mono';text-align:center;letter-spacing:0px;word-spacing:0px;text-anchor:middle;fill:#000000;fill-opacity:1;stroke:none;stroke-width:1.06666672px;stroke-linecap:butt;stroke-linejoin:miter;stroke-opacity:1"
     aria-label="git diff">
    <path
       id="path6225"
       style="font-size:12px;line-height:1.25999999;stroke-width:1.06666672px"
       d="m 111.53371,105.80897 q -1.58789,0 -1.58789,2.32031 0,0.39258 0.0879,0.74414 0.0879,0.35156 0.26367,0.65039 0.18164,0.29883 0.48633,0.47461 0.31054,0.17578 0.70898,0.17578 0.35742,0 0.63281,-0.11719 0.28125,-0.11718 0.45118,-0.31054 0.17578,-0.19922 0.28125,-0.47461 0.11132,-0.27539 0.15234,-0.55664 0.0469,-0.28711 0.0469,-0.61524 0,-0.38672 -0.041,-0.70312 -0.0352,-0.31641 -0.14063,-0.6211 -0.0996,-0.30468 -0.26953,-0.50976 -0.16406,-0.20508 -0.43945,-0.32813 -0.26953,-0.1289 -0.63281,-0.1289 z m 1.59961,4.11328 q -0.17579,0.44531 -0.66211,0.7793 -0.48633,0.32812 -1.07227,0.32812 -0.70898,0 -1.26562,-0.39844 -0.55664,-0.40429 -0.85547,-1.0664 -0.29883,-0.66797 -0.29883,-1.46485 0,-0.87304 0.25781,-1.54101 0.26367,-0.67383 0.82617,-1.07813 0.5625,-0.41015 1.36524,-0.41015 1.04297,0 1.6289,0.96093 l 0.0352,-0.78515 h 0.92578 v 5.46094 q 0,1.48828 -0.7207,2.1914 -0.71485,0.70313 -2.1211,0.70313 -0.82031,0 -1.21289,-0.0879 v -0.71485 q 0.29883,0.0703 1.14258,0.0703 0.29883,0 0.56836,-0.0527 0.27539,-0.0527 0.54492,-0.19336 0.27539,-0.14062 0.46875,-0.36328 0.19922,-0.2168 0.32227,-0.57422 0.12305,-0.35156 0.12305,-0.80859 z" />
    <path
       id="path6227"
       style="font-size:12px;line-height:1.25999999;stroke-width:1.06666672px"
       d="m 117.06496,105.98475 v -0.73828 h 2.61328 v 5.04492 h 1.6582 v 0.73828 h -4.45312 v -0.73828 h 1.83398 v -4.30664 z m 1.49414,-2.26172 v -0.52148 q 0,-0.1875 0.21093,-0.33399 0.2168,-0.14648 0.42774,-0.14648 0.21094,0 0.42187,0.14648 0.2168,0.14649 0.2168,0.33399 v 0.52148 q 0,0.1875 -0.2168,0.33398 -0.21093,0.14063 -0.42187,0.14063 -0.21094,0 -0.42774,-0.14063 -0.21093,-0.14648 -0.21093,-0.33398 z" />
    <path
       id="path6229"
       style="font-size:12px;line-height:1.25999999;stroke-width:1.06666672px"
       d="m 125.64308,105.98475 v 2.71289 q 0,0.9082 0.19336,1.24805 0.19336,0.33984 0.80859,0.35742 h 1.32422 v 0.74414 h -1.45312 q -0.45703,0 -0.78516,-0.10547 -0.32226,-0.10547 -0.52734,-0.29883 -0.20508,-0.19336 -0.32227,-0.52148 -0.11133,-0.32813 -0.1582,-0.71485 -0.041,-0.39257 -0.041,-0.94921 v -2.47266 h -1.63476 l 0.10547,-0.73828 h 1.52929 v -1.99805 l 0.96094,-0.28125 v 2.2793 h 2.32617 v 0.73828 z" />
    <path
       id="path6231"
       style="font-size:12px;line-height:1.25999999;stroke-width:1.06666672px"
       d="m 142.00832,106.04334 v -3.1582 l 0.96093,-0.10547 v 8.25 h -0.87304 l -0.0879,-0.89648 q -0.14649,0.25195 -0.33985,0.46289 -0.1875,0.20508 -0.54492,0.38672 -0.35156,0.17578 -0.76758,0.17578 -0.60937,0 -1.07226,-0.24024 -0.45703,-0.24023 -0.73243,-0.66797 -0.26953,-0.42773 -0.40429,-0.96679 -0.12891,-0.54492 -0.12891,-1.19532 0,-0.63281 0.14063,-1.16601 0.14062,-0.5332 0.41601,-0.95508 0.27539,-0.42187 0.73242,-0.65625 0.45704,-0.24023 1.04883,-0.24023 0.65039,0 1.06055,0.26953 0.41601,0.26953 0.5918,0.70312 z m 0,2.05664 q 0,-0.41601 -0.0352,-0.73242 -0.0293,-0.3164 -0.12891,-0.62109 -0.0996,-0.30469 -0.26953,-0.49805 -0.16406,-0.19922 -0.44531,-0.31641 -0.28125,-0.12304 -0.66211,-0.12304 -0.36328,0 -0.63867,0.13476 -0.26953,0.13477 -0.42774,0.35157 -0.1582,0.21093 -0.25781,0.5332 -0.0937,0.31641 -0.1289,0.63281 -0.0293,0.31055 -0.0293,0.69727 0,2.26172 1.48242,2.26172 1.54102,0 1.54102,-2.32032 z" />
    <path
       id="path6233"
       style="font-size:12px;line-height:1.25999999;stroke-width:1.06666672px"
       d="m 145.84621,105.98475 v -0.73828 h 2.61328 v 5.04492 h 1.6582 v 0.73828 h -4.45312 v -0.73828 h 1.83398 v -4.30664 z m 1.49414,-2.26172 v -0.52148 q 0,-0.1875 0.21093,-0.33399 0.2168,-0.14648 0.42774,-0.14648 0.21094,0 0.42187,0.14648 0.2168,0.14649 0.2168,0.33399 v 0.52148 q 0,0.1875 -0.2168,0.33398 -0.21093,0.14063 -0.42187,0.14063 -0.21094,0 -0.42774,-0.14063 -0.21093,-0.14648 -0.21093,-0.33398 z" />
    <path
       id="path6235"
       style="font-size:12px;line-height:1.25999999;stroke-width:1.06666672px"
       d="m 154.88136,111.02967 h -0.96093 v -5.04492 h -1.51758 v -0.73828 h 1.51758 q 0,-0.33399 0.006,-0.55664 0.0117,-0.22266 0.0352,-0.47461 0.0293,-0.25781 0.0762,-0.42188 0.0527,-0.16992 0.13477,-0.3457 0.0879,-0.17578 0.21094,-0.28125 0.1289,-0.11133 0.30468,-0.2168 0.17578,-0.10547 0.41016,-0.1582 0.23437,-0.0527 0.52734,-0.082 0.29883,-0.0352 0.67383,-0.0352 h 0.55664 l -0.0527,0.73828 h -0.52735 q -0.32226,0 -0.5332,0.0234 -0.20508,0.0234 -0.38672,0.0879 -0.18164,0.0645 -0.27539,0.19336 -0.0937,0.12305 -0.14648,0.32813 -0.0527,0.19921 -0.0527,0.49804 v 0.70313 h 1.97461 v 0.73828 h -1.97461 z" />
    <path
       id="path6237"
       style="font-size:12px;line-height:1.25999999;stroke-width:1.06666672px"
       d="m 162.07668,111.02967 h -0.96094 v -5.04492 h -1.51758 v -0.73828 h 1.51758 q 0,-0.33399 0.006,-0.55664 0.0117,-0.22266 0.0351,-0.47461 0.0293,-0.25781 0.0762,-0.42188 0.0527,-0.16992 0.13476,-0.3457 0.0879,-0.17578 0.21094,-0.28125 0.1289,-0.11133 0.30469,-0.2168 0.17578,-0.10547 0.41015,-0.1582 0.23438,-0.0527 0.52735,-0.082 0.29882,-0.0352 0.67382,-0.0352 h 0.55664 l -0.0527,0.73828 h -0.52734 q -0.32227,0 -0.53321,0.0234 -0.20507,0.0234 -0.38672,0.0879 -0.18164,0.0645 -0.27539,0.19336 -0.0937,0.12305 -0.14648,0.32813 -0.0527,0.19921 -0.0527,0.49804 v 0.70313 h 1.9746 v 0.73828 h -1.9746 z" />
  </g>
  <path
     id="path4658"
     d="m 211.69265,114.80917 h 162.5197"
     style="fill:none;fill-rule:evenodd;stroke:#000000;stroke-width:1.06666672px;stroke-linecap:butt;stroke-linejoin:miter;stroke-opacity:1;marker-start:url(#marker4664);marker-end:url(#marker4668)" />
  <g
     id="text4660"
     style="font-style:normal;font-variant:normal;font-weight:normal;font-stretch:normal;font-size:12.80000019px;line-height:0%;font-family:'Oxygen Mono';-inkscape-font-specification:'Oxygen Mono';text-align:center;letter-spacing:0px;word-spacing:0px;text-anchor:middle;fill:#000000;fill-opacity:1;stroke:none;stroke-width:1.06666672px;stroke-linecap:butt;stroke-linejoin:miter;stroke-opacity:1"
     aria-label="git diff --cached">
    <path
       id="path6194"
       style="font-size:12px;line-height:1.25999999;stroke-width:1.06666672px"
       d="m 233.19836,104.92107 q -1.58789,0 -1.58789,2.32031 0,0.39258 0.0879,0.74414 0.0879,0.35156 0.26368,0.65039 0.18164,0.29883 0.48632,0.47461 0.31055,0.17578 0.70899,0.17578 0.35742,0 0.63281,-0.11719 0.28125,-0.11718 0.45117,-0.31054 0.17578,-0.19922 0.28125,-0.47461 0.11133,-0.27539 0.15235,-0.55664 0.0469,-0.28711 0.0469,-0.61524 0,-0.38672 -0.041,-0.70312 -0.0352,-0.31641 -0.14063,-0.6211 -0.0996,-0.30468 -0.26953,-0.50976 -0.16406,-0.20508 -0.43945,-0.32813 -0.26953,-0.1289 -0.63282,-0.1289 z m 1.59961,4.11328 q -0.17578,0.44531 -0.66211,0.77929 -0.48632,0.32813 -1.07226,0.32813 -0.70899,0 -1.26563,-0.39844 -0.55664,-0.40429 -0.85547,-1.0664 -0.29882,-0.66797 -0.29882,-1.46485 0,-0.87304 0.25781,-1.54101 0.26367,-0.67383 0.82617,-1.07813 0.5625,-0.41015 1.36524,-0.41015 1.04296,0 1.6289,0.96093 l 0.0352,-0.78515 h 0.92578 v 5.46093 q 0,1.48829 -0.7207,2.19141 -0.71485,0.70313 -2.1211,0.70313 -0.82031,0 -1.21289,-0.0879 v -0.71484 q 0.29883,0.0703 1.14258,0.0703 0.29883,0 0.56836,-0.0527 0.27539,-0.0527 0.54492,-0.19336 0.27539,-0.14063 0.46875,-0.36328 0.19922,-0.2168 0.32227,-0.57422 0.12304,-0.35156 0.12304,-0.80859 z" />
    <path
       id="path6196"
       style="font-size:12px;line-height:1.25999999;stroke-width:1.06666672px"
       d="m 238.72961,105.09685 v -0.73828 h 2.61329 v 5.04492 h 1.6582 v 0.73828 h -4.45313 v -0.73828 h 1.83399 v -4.30664 z m 1.49414,-2.26172 v -0.52149 q 0,-0.1875 0.21094,-0.33398 0.2168,-0.14648 0.42774,-0.14648 0.21093,0 0.42187,0.14648 0.2168,0.14648 0.2168,0.33398 v 0.52149 q 0,0.1875 -0.2168,0.33398 -0.21094,0.14063 -0.42187,0.14063 -0.21094,0 -0.42774,-0.14063 -0.21094,-0.14648 -0.21094,-0.33398 z" />
    <path
       id="path6198"
       style="font-size:12px;line-height:1.25999999;stroke-width:1.06666672px"
       d="m 247.30774,105.09685 v 2.71289 q 0,0.9082 0.19336,1.24805 0.19336,0.33984 0.80859,0.35742 h 1.32422 v 0.74414 h -1.45312 q -0.45704,0 -0.78516,-0.10547 -0.32227,-0.10547 -0.52734,-0.29883 -0.20508,-0.19336 -0.32227,-0.52148 -0.11133,-0.32813 -0.1582,-0.71485 -0.041,-0.39258 -0.041,-0.94922 v -2.47265 h -1.63476 l 0.10546,-0.73828 h 1.5293 v -1.99805 l 0.96094,-0.28125 v 2.2793 h 2.32617 v 0.73828 z" />
    <path
       id="path6200"
       style="font-size:12px;line-height:1.25999999;stroke-width:1.06666672px"
       d="m 263.67297,105.15544 v -3.1582 l 0.96094,-0.10547 v 8.25 h -0.87305 l -0.0879,-0.89648 q -0.14648,0.25195 -0.33984,0.46289 -0.1875,0.20507 -0.54492,0.38671 -0.35156,0.17579 -0.76758,0.17579 -0.60938,0 -1.07227,-0.24024 -0.45703,-0.24023 -0.73242,-0.66797 -0.26953,-0.42773 -0.40429,-0.96679 -0.12891,-0.54493 -0.12891,-1.19532 0,-0.63281 0.14062,-1.16601 0.14063,-0.53321 0.41602,-0.95508 0.27539,-0.42188 0.73242,-0.65625 0.45703,-0.24023 1.04883,-0.24023 0.65039,0 1.06055,0.26953 0.41601,0.26953 0.59179,0.70312 z m 0,2.05664 q 0,-0.41601 -0.0352,-0.73242 -0.0293,-0.31641 -0.12891,-0.62109 -0.0996,-0.30469 -0.26953,-0.49805 -0.16406,-0.19922 -0.44531,-0.31641 -0.28125,-0.12304 -0.66211,-0.12304 -0.36328,0 -0.63867,0.13476 -0.26954,0.13477 -0.42774,0.35156 -0.1582,0.21094 -0.25781,0.53321 -0.0937,0.3164 -0.12891,0.63281 -0.0293,0.31055 -0.0293,0.69727 0,2.26171 1.48242,2.26171 1.54101,0 1.54101,-2.32031 z" />
    <path
       id="path6202"
       style="font-size:12px;line-height:1.25999999;stroke-width:1.06666672px"
       d="m 267.51086,105.09685 v -0.73828 h 2.61329 v 5.04492 h 1.6582 v 0.73828 h -4.45313 v -0.73828 h 1.83399 v -4.30664 z m 1.49414,-2.26172 v -0.52149 q 0,-0.1875 0.21094,-0.33398 0.2168,-0.14648 0.42774,-0.14648 0.21093,0 0.42187,0.14648 0.2168,0.14648 0.2168,0.33398 v 0.52149 q 0,0.1875 -0.2168,0.33398 -0.21094,0.14063 -0.42187,0.14063 -0.21094,0 -0.42774,-0.14063 -0.21094,-0.14648 -0.21094,-0.33398 z" />
    <path
       id="path6204"
       style="font-size:12px;line-height:1.25999999;stroke-width:1.06666672px"
       d="m 276.54602,110.14177 h -0.96094 v -5.04492 h -1.51758 v -0.73828 h 1.51758 q 0,-0.33399 0.006,-0.55664 0.0117,-0.22266 0.0352,-0.47461 0.0293,-0.25782 0.0762,-0.42188 0.0527,-0.16992 0.13477,-0.3457 0.0879,-0.17578 0.21093,-0.28125 0.12891,-0.11133 0.30469,-0.2168 0.17578,-0.10547 0.41016,-0.1582 0.23437,-0.0527 0.52734,-0.082 0.29883,-0.0352 0.67383,-0.0352 h 0.55664 l -0.0527,0.73828 h -0.52735 q -0.32226,0 -0.5332,0.0234 -0.20508,0.0234 -0.38672,0.0879 -0.18164,0.0645 -0.27539,0.19336 -0.0937,0.12305 -0.14649,0.32812 -0.0527,0.19922 -0.0527,0.49805 v 0.70313 h 1.97461 v 0.73828 h -1.97461 z" />
    <path
       id="path6206"
       style="font-size:12px;line-height:1.25999999;stroke-width:1.06666672px"
       d="m 283.74133,110.14177 h -0.96093 v -5.04492 h -1.51758 v -0.73828 h 1.51758 q 0,-0.33399 0.006,-0.55664 0.0117,-0.22266 0.0352,-0.47461 0.0293,-0.25782 0.0762,-0.42188 0.0527,-0.16992 0.13477,-0.3457 0.0879,-0.17578 0.21094,-0.28125 0.1289,-0.11133 0.30468,-0.2168 0.17578,-0.10547 0.41016,-0.1582 0.23437,-0.0527 0.52734,-0.082 0.29883,-0.0352 0.67383,-0.0352 h 0.55664 l -0.0527,0.73828 h -0.52735 q -0.32226,0 -0.5332,0.0234 -0.20508,0.0234 -0.38672,0.0879 -0.18164,0.0645 -0.27539,0.19336 -0.0937,0.12305 -0.14648,0.32812 -0.0527,0.19922 -0.0527,0.49805 v 0.70313 h 1.97461 v 0.73828 h -1.97461 z" />
    <path
       id="path6208"
       style="font-size:12px;line-height:1.25999999;stroke-width:1.06666672px"
       d="m 299.74915,106.42107 v 0.81445 h -3.87891 v -0.81445 z" />
    <path
       id="path6210"
       style="font-size:12px;line-height:1.25999999;stroke-width:1.06666672px"
       d="m 306.94446,106.42107 v 0.81445 h -3.87891 v -0.81445 z" />
    <path
       id="path6212"
       style="font-size:12px;line-height:1.25999999;stroke-width:1.06666672px"
       d="m 314.43274,109.76091 q -0.27539,0.25195 -0.70313,0.38086 -0.42187,0.12891 -0.8789,0.12891 -0.52735,0 -0.98438,-0.16407 -0.45117,-0.16406 -0.78515,-0.45117 -0.32813,-0.28711 -0.5625,-0.66797 -0.23438,-0.38672 -0.35157,-0.83789 -0.11718,-0.45117 -0.11718,-0.9375 0,-0.80859 0.32812,-1.49414 0.33399,-0.68555 0.97852,-1.10742 0.64453,-0.42773 1.47656,-0.42773 0.48047,0 0.89062,0.14062 0.41016,0.14063 0.66797,0.35742 l -0.39843,0.58594 q -0.49805,-0.3457 -1.14258,-0.3457 -0.81446,0 -1.32422,0.65039 -0.50391,0.65039 -0.50391,1.66406 0,1.01367 0.50391,1.6582 0.50391,0.63867 1.36523,0.63867 0.64453,0 1.1543,-0.36328 z" />
    <path
       id="path6214"
       style="font-size:12px;line-height:1.25999999;stroke-width:1.06666672px"
       d="m 317.32727,108.66521 q 0,-0.41602 0.12305,-0.73242 0.1289,-0.32227 0.35156,-0.53321 0.22266,-0.21094 0.55078,-0.3457 0.32813,-0.13477 0.70899,-0.1875 0.38085,-0.0586 0.8496,-0.0586 l 0.93165,0.006 v -0.49218 q 0,-0.73242 -0.33985,-1.05469 -0.33398,-0.32813 -0.97851,-0.32813 -0.61524,0 -1.62305,0.29883 l -0.2168,-0.6914 q 1.02539,-0.35743 1.91602,-0.35743 0.375,0 0.6914,0.0645 0.31641,0.0644 0.5918,0.21679 0.28125,0.14649 0.47461,0.375 0.19922,0.22852 0.31055,0.57422 0.11718,0.34571 0.11718,0.78516 v 3.9375 h -0.77929 l -0.12891,-0.62695 q -0.25195,0.35156 -0.73242,0.55664 -0.47461,0.19922 -1.00781,0.19922 -0.35157,0 -0.66797,-0.0996 -0.31641,-0.0937 -0.58008,-0.28125 -0.25781,-0.1875 -0.41016,-0.50391 -0.15234,-0.31641 -0.15234,-0.7207 z m 3.51563,0.16406 v -1.40039 l -0.89063,0.006 q -0.33398,0 -0.62109,0.0644 -0.28711,0.0586 -0.53907,0.1875 -0.25195,0.12891 -0.39843,0.36914 -0.14063,0.24024 -0.14063,0.5625 0,0.50391 0.25781,0.73828 0.26368,0.22852 0.69141,0.22852 0.45703,0 0.94336,-0.22852 0.49219,-0.23437 0.69727,-0.52734 z" />
    <path
       id="path6216"
       style="font-size:12px;line-height:1.25999999;stroke-width:1.06666672px"
       d="m 328.82336,109.76091 q -0.27539,0.25195 -0.70312,0.38086 -0.42188,0.12891 -0.87891,0.12891 -0.52734,0 -0.98437,-0.16407 -0.45117,-0.16406 -0.78516,-0.45117 -0.32812,-0.28711 -0.5625,-0.66797 -0.23437,-0.38672 -0.35156,-0.83789 -0.11719,-0.45117 -0.11719,-0.9375 0,-0.80859 0.32813,-1.49414 0.33398,-0.68555 0.97851,-1.10742 0.64453,-0.42773 1.47656,-0.42773 0.48047,0 0.89063,0.14062 0.41016,0.14063 0.66797,0.35742 l -0.39844,0.58594 q -0.49805,-0.3457 -1.14258,-0.3457 -0.81445,0 -1.32422,0.65039 -0.5039,0.65039 -0.5039,1.66406 0,1.01367 0.5039,1.6582 0.50391,0.63867 1.36524,0.63867 0.64453,0 1.1543,-0.36328 z" />
    <path
       id="path6218"
       style="font-size:12px;line-height:1.25999999;stroke-width:1.06666672px"
       d="m 336.29407,106.64958 v 3.49219 h -0.95508 v -3.36914 q 0,-0.32813 -0.0234,-0.57422 -0.0234,-0.25195 -0.0937,-0.50391 -0.0703,-0.25195 -0.19336,-0.41015 -0.11719,-0.16406 -0.32226,-0.26367 -0.20508,-0.0996 -0.48633,-0.0996 -0.63281,0 -1.01953,0.40429 -0.38086,0.4043 -0.38086,0.88477 v 3.93164 h -0.96094 v -8.14453 l 0.96094,-0.10547 v 3.16406 q 0.13476,-0.17578 0.25195,-0.29297 0.12305,-0.12304 0.32813,-0.26953 0.20507,-0.15234 0.48632,-0.22851 0.28711,-0.082 0.63282,-0.082 1.77539,0 1.77539,2.46679 z" />
    <path
       id="path6220"
       style="font-size:12px;line-height:1.25999999;stroke-width:1.06666672px"
       d="m 342.54602,106.69646 q -0.10547,-1.77539 -1.24219,-1.77539 -0.375,0 -0.65039,0.14062 -0.27539,0.14063 -0.43945,0.4043 -0.16406,0.25781 -0.25195,0.55664 -0.0879,0.29297 -0.12891,0.67383 z m -3.71484,0.51562 q 0,-0.83789 0.26953,-1.51758 0.26953,-0.68554 0.80859,-1.10156 0.54492,-0.41601 1.26563,-0.41601 0.57422,0 1.01953,0.22851 0.44531,0.22852 0.71484,0.63281 0.27539,0.4043 0.41602,0.91993 0.14062,0.51562 0.14062,1.11914 v 0.32226 h -3.66797 q 0.0234,0.59766 0.19922,1.06641 0.17578,0.46289 0.5625,0.76758 0.39258,0.29882 0.94922,0.29882 0.80859,0 1.41797,-0.50976 l 0.42187,0.5332 q -0.36914,0.33985 -0.80859,0.52735 -0.43359,0.1875 -1.06055,0.1875 -0.84961,0 -1.45898,-0.4043 -0.60352,-0.4043 -0.89648,-1.08399 -0.29297,-0.68554 -0.29297,-1.57031 z" />
    <path
       id="path6222"
       style="font-size:12px;line-height:1.25999999;stroke-width:1.06666672px"
       d="m 350.01672,105.15544 v -3.1582 l 0.96094,-0.10547 v 8.25 h -0.87305 l -0.0879,-0.89648 q -0.14648,0.25195 -0.33984,0.46289 -0.1875,0.20507 -0.54492,0.38671 -0.35156,0.17579 -0.76758,0.17579 -0.60938,0 -1.07227,-0.24024 -0.45703,-0.24023 -0.73242,-0.66797 -0.26953,-0.42773 -0.40429,-0.96679 -0.12891,-0.54493 -0.12891,-1.19532 0,-0.63281 0.14062,-1.16601 0.14063,-0.53321 0.41602,-0.95508 0.27539,-0.42188 0.73242,-0.65625 0.45703,-0.24023 1.04883,-0.24023 0.65039,0 1.06055,0.26953 0.41601,0.26953 0.59179,0.70312 z m 0,2.05664 q 0,-0.41601 -0.0352,-0.73242 -0.0293,-0.31641 -0.12891,-0.62109 -0.0996,-0.30469 -0.26953,-0.49805 -0.16406,-0.19922 -0.44531,-0.31641 -0.28125,-0.12304 -0.66211,-0.12304 -0.36328,0 -0.63867,0.13476 -0.26954,0.13477 -0.42774,0.35156 -0.1582,0.21094 -0.25781,0.53321 -0.0937,0.3164 -0.12891,0.63281 -0.0293,0.31055 -0.0293,0.69727 0,2.26171 1.48242,2.26171 1.54101,0 1.54101,-2.32031 z" />
  </g>
  <path
     id="path4672"
     d="M 98.306851,144.1575 H 312.91373"
     style="fill:none;fill-rule:evenodd;stroke:#000000;stroke-width:1.06666672px;stroke-linecap:butt;stroke-linejoin:miter;stroke-opacity:1;marker-start:url(#marker4678);marker-end:url(#marker4682)" />
  <g
     id="text4674"
     style="font-style:normal;font-variant:normal;font-weight:normal;font-stretch:normal;font-size:12.80000019px;line-height:0%;font-family:'Oxygen Mono';-inkscape-font-specification:'Oxygen Mono';text-align:center;letter-spacing:0px;word-spacing:0px;text-anchor:middle;fill:#000000;fill-opacity:1;stroke:none;stroke-width:1.06666672px;stroke-linecap:butt;stroke-linejoin:miter;stroke-opacity:1"
     aria-label="git diff HEAD">
    <path
       id="path6171"
       style="font-size:12px;line-height:1.25999999;stroke-width:1.06666672px"
       d="m 160.39044,135.15721 q -1.58789,0 -1.58789,2.32031 0,0.39258 0.0879,0.74414 0.0879,0.35157 0.26367,0.6504 0.18164,0.29882 0.48633,0.4746 0.31055,0.17579 0.70899,0.17579 0.35742,0 0.63281,-0.11719 0.28125,-0.11719 0.45117,-0.31055 0.17578,-0.19922 0.28125,-0.47461 0.11133,-0.27539 0.15234,-0.55664 0.0469,-0.28711 0.0469,-0.61523 0,-0.38672 -0.041,-0.70313 -0.0352,-0.3164 -0.14062,-0.62109 -0.0996,-0.30469 -0.26953,-0.50977 -0.16406,-0.20508 -0.43946,-0.32812 -0.26953,-0.12891 -0.63281,-0.12891 z m 1.59961,4.11328 q -0.17578,0.44532 -0.66211,0.7793 -0.48633,0.32812 -1.07226,0.32812 -0.70899,0 -1.26563,-0.39843 -0.55664,-0.4043 -0.85547,-1.06641 -0.29883,-0.66797 -0.29883,-1.46484 0,-0.87305 0.25782,-1.54102 0.26367,-0.67383 0.82617,-1.07812 0.5625,-0.41016 1.36523,-0.41016 1.04297,0 1.62891,0.96094 l 0.0352,-0.78516 h 0.92578 v 5.46094 q 0,1.48828 -0.72071,2.19141 -0.71484,0.70312 -2.12109,0.70312 -0.82031,0 -1.21289,-0.0879 v -0.71484 q 0.29883,0.0703 1.14258,0.0703 0.29883,0 0.56836,-0.0527 0.27539,-0.0527 0.54492,-0.19336 0.27539,-0.14062 0.46875,-0.36328 0.19922,-0.21679 0.32226,-0.57422 0.12305,-0.35156 0.12305,-0.80859 z" />
    <path
       id="path6173"
       style="font-size:12px;line-height:1.25999999;stroke-width:1.06666672px"
       d="m 165.92169,135.33299 v -0.73828 h 2.61328 v 5.04492 h 1.65821 v 0.73828 h -4.45313 v -0.73828 h 1.83399 v -4.30664 z m 1.49414,-2.26172 v -0.52148 q 0,-0.1875 0.21094,-0.33398 0.2168,-0.14649 0.42773,-0.14649 0.21094,0 0.42188,0.14649 0.2168,0.14648 0.2168,0.33398 v 0.52148 q 0,0.1875 -0.2168,0.33399 -0.21094,0.14062 -0.42188,0.14062 -0.21093,0 -0.42773,-0.14062 -0.21094,-0.14649 -0.21094,-0.33399 z" />
    <path
       id="path6175"
       style="font-size:12px;line-height:1.25999999;stroke-width:1.06666672px"
       d="m 174.49982,135.33299 v 2.71289 q 0,0.90821 0.19336,1.24805 0.19336,0.33984 0.80859,0.35742 h 1.32422 v 0.74414 h -1.45313 q -0.45703,0 -0.78515,-0.10547 -0.32227,-0.10546 -0.52735,-0.29882 -0.20507,-0.19336 -0.32226,-0.52149 -0.11133,-0.32812 -0.1582,-0.71484 -0.041,-0.39258 -0.041,-0.94922 v -2.47266 h -1.63477 l 0.10547,-0.73828 h 1.5293 v -1.99805 l 0.96094,-0.28125 v 2.2793 h 2.32617 v 0.73828 z" />
    <path
       id="path6177"
       style="font-size:12px;line-height:1.25999999;stroke-width:1.06666672px"
       d="m 190.86505,135.39159 v -3.15821 l 0.96094,-0.10547 v 8.25 h -0.87305 l -0.0879,-0.89648 q -0.14648,0.25195 -0.33984,0.46289 -0.1875,0.20508 -0.54492,0.38672 -0.35157,0.17578 -0.76758,0.17578 -0.60938,0 -1.07227,-0.24023 -0.45703,-0.24024 -0.73242,-0.66797 -0.26953,-0.42774 -0.4043,-0.9668 -0.1289,-0.54492 -0.1289,-1.19531 0,-0.63281 0.14062,-1.16602 0.14063,-0.5332 0.41602,-0.95508 0.27539,-0.42187 0.73242,-0.65625 0.45703,-0.24023 1.04883,-0.24023 0.65039,0 1.06054,0.26953 0.41602,0.26953 0.5918,0.70313 z m 0,2.05664 q 0,-0.41602 -0.0351,-0.73242 -0.0293,-0.31641 -0.12891,-0.6211 -0.0996,-0.30469 -0.26953,-0.49805 -0.16406,-0.19921 -0.44531,-0.3164 -0.28125,-0.12305 -0.66211,-0.12305 -0.36329,0 -0.63868,0.13477 -0.26953,0.13476 -0.42773,0.35156 -0.1582,0.21094 -0.25781,0.5332 -0.0937,0.31641 -0.12891,0.63282 -0.0293,0.31054 -0.0293,0.69726 0,2.26172 1.48243,2.26172 1.54101,0 1.54101,-2.32031 z" />
    <path
       id="path6179"
       style="font-size:12px;line-height:1.25999999;stroke-width:1.06666672px"
       d="m 194.70294,135.33299 v -0.73828 h 2.61328 v 5.04492 h 1.65821 v 0.73828 h -4.45313 v -0.73828 h 1.83399 v -4.30664 z m 1.49414,-2.26172 v -0.52148 q 0,-0.1875 0.21094,-0.33398 0.2168,-0.14649 0.42773,-0.14649 0.21094,0 0.42188,0.14649 0.2168,0.14648 0.2168,0.33398 v 0.52148 q 0,0.1875 -0.2168,0.33399 -0.21094,0.14062 -0.42188,0.14062 -0.21093,0 -0.42773,-0.14062 -0.21094,-0.14649 -0.21094,-0.33399 z" />
    <path
       id="path6181"
       style="font-size:12px;line-height:1.25999999;stroke-width:1.06666672px"
       d="m 203.7381,140.37791 h -0.96094 v -5.04492 h -1.51758 v -0.73828 h 1.51758 q 0,-0.33398 0.006,-0.55664 0.0117,-0.22266 0.0352,-0.47461 0.0293,-0.25781 0.0762,-0.42187 0.0527,-0.16993 0.13476,-0.34571 0.0879,-0.17578 0.21094,-0.28125 0.12891,-0.11132 0.30469,-0.21679 0.17578,-0.10547 0.41016,-0.15821 0.23437,-0.0527 0.52734,-0.082 0.29883,-0.0352 0.67383,-0.0352 h 0.55664 l -0.0527,0.73828 h -0.52734 q -0.32227,0 -0.5332,0.0234 -0.20508,0.0234 -0.38672,0.0879 -0.18164,0.0644 -0.27539,0.19335 -0.0937,0.12305 -0.14649,0.32813 -0.0527,0.19922 -0.0527,0.49805 v 0.70312 h 1.97461 v 0.73828 h -1.97461 z" />
    <path
       id="path6183"
       style="font-size:12px;line-height:1.25999999;stroke-width:1.06666672px"
       d="m 210.93341,140.37791 h -0.96094 v -5.04492 h -1.51757 v -0.73828 h 1.51757 q 0,-0.33398 0.006,-0.55664 0.0117,-0.22266 0.0352,-0.47461 0.0293,-0.25781 0.0762,-0.42187 0.0527,-0.16993 0.13477,-0.34571 0.0879,-0.17578 0.21093,-0.28125 0.12891,-0.11132 0.30469,-0.21679 0.17578,-0.10547 0.41016,-0.15821 0.23437,-0.0527 0.52734,-0.082 0.29883,-0.0352 0.67383,-0.0352 h 0.55664 l -0.0527,0.73828 h -0.52735 q -0.32226,0 -0.5332,0.0234 -0.20508,0.0234 -0.38672,0.0879 -0.18164,0.0644 -0.27539,0.19335 -0.0937,0.12305 -0.14648,0.32813 -0.0527,0.19922 -0.0527,0.49805 v 0.70312 h 1.97461 v 0.73828 h -1.97461 z" />
    <path
       id="path6185"
       style="font-size:12px;line-height:1.25999999;stroke-width:1.06666672px"
       d="m 223.84747,140.37791 h -0.98437 v -7.86328 h 0.98437 v 3.35157 h 3.0293 v -3.35157 h 0.98438 v 7.86328 h -0.98438 v -3.70312 h -3.0293 z" />
    <path
       id="path6187"
       style="font-size:12px;line-height:1.25999999;stroke-width:1.06666672px"
       d="m 231.49396,136.76854 v 2.8418 h 3.56836 l -0.0762,0.76757 h -4.48243 v -7.86328 h 4.38282 l -0.082,0.77344 h -3.31054 v 2.64258 h 3.13476 v 0.83789 z" />
    <path
       id="path6189"
       style="font-size:12px;line-height:1.25999999;stroke-width:1.06666672px"
       d="m 240.31232,132.51463 2.25,7.86328 h -1.00782 l -0.73828,-2.60156 h -2.13281 l -0.73828,2.60156 h -0.99609 l 2.23828,-7.86328 z m -1.41797,4.57032 h 1.71094 l -0.84375,-3.57422 z" />
    <path
       id="path6191"
       style="font-size:12px;line-height:1.25999999;stroke-width:1.06666672px"
       d="m 244.72443,132.51463 h 1.16601 q 1.86328,0 2.8125,1.06641 0.95508,1.06641 0.95508,2.97656 0,1.91016 -0.94336,2.86524 -0.9375,0.95507 -2.89453,0.95507 h -1.0957 z m 1.07812,7.09571 q 0.82617,0 1.37695,-0.1875 0.55665,-0.19336 0.87305,-0.5918 0.31641,-0.4043 0.44531,-0.94336 0.12891,-0.54492 0.12891,-1.33008 0,-0.62695 -0.0762,-1.10742 -0.0762,-0.48047 -0.26953,-0.89648 -0.1875,-0.42188 -0.50391,-0.69141 -0.31641,-0.26953 -0.80859,-0.42188 -0.49219,-0.15234 -1.16016,-0.15234 h -0.0996 v 6.32227 z" />
  </g>
</svg>
