<?xml version="1.0" encoding="UTF-8"?>
<!-- Generator: Adobe Illustrator 13.0.0, SVG Export Plug-In . SVG Version: 6.00 Build 14948)  -->
<!DOCTYPE svg PUBLIC "-//W3C//DTD SVG 1.1//EN" "http://www.w3.org/Graphics/SVG/1.1/DTD/svg11.dtd">
<svg version="1.1" id="Layer_1" xmlns="http://www.w3.org/2000/svg" xmlns:xlink="http://www.w3.org/1999/xlink" x="0px" y="0px" width="187.086px" height="53.867px" viewBox="0 0 187.086 53.867" enable-background="new 0 0 187.086 53.867" xml:space="preserve">
<g>
	<path fill-rule="evenodd" clip-rule="evenodd" fill="#020001" d="M56.02,47.007c-1.174-0.271-2.419-0.441-3.679-0.441   c-2.154,0-4.114,0.375-5.56,0.975c-0.157,0.08-0.271,0.246-0.271,0.436c0,0.068,0.018,0.139,0.044,0.197   c0.171,0.496-0.111,1.035-1.51,1.342c-2.074,0.455-3.385,2.596-4.133,3.307c-0.88,0.836-3.364,1.348-2.991,0.85   c0.292-0.389,1.412-1.604,2.092-2.916c0.608-1.174,1.15-1.506,1.897-2.627c0.218-0.328,1.066-1.482,1.313-2.393   c0.279-0.893,0.185-2.01,0.292-2.471c0.15-0.662,0.779-2.104,0.824-2.918c0.028-0.457-1.919,0.658-2.843,0.658   c-0.924,0-1.825-0.553-2.65-0.594c-1.021-0.049-1.678,0.789-2.604,0.643c-0.526-0.086-0.972-0.549-1.894-0.584   c-1.313-0.051-2.919,0.73-5.934,0.633c-2.966-0.098-5.704-3.746-6.079-4.328c-0.438-0.682-0.974-0.682-1.556-0.148   c-0.584,0.535-1.303,0.117-1.508-0.24c-0.389-0.682-1.431-2.674-3.04-3.088c-2.227-0.578-3.354,1.23-3.21,2.672   c0.15,1.461,1.095,1.871,1.532,2.65c0.438,0.777,0.663,1.279,1.485,1.625c0.584,0.242,0.802,0.604,0.628,1.084   c-0.154,0.416-0.76,0.51-1.161,0.531c-0.849,0.041-1.442-0.189-1.876-0.469c-0.504-0.32-0.914-0.768-1.355-1.525   c-0.509-0.838-1.313-1.203-2.246-1.203c-0.446,0-0.864,0.119-1.233,0.311c-1.467,0.76-3.21,1.213-5.088,1.213H1.589   C0.56,37.132,0,33.858,0,30.452C0,13.634,13.634,0,30.454,0c16.819,0,30.452,13.634,30.452,30.452   C60.905,36.556,59.111,42.239,56.02,47.007L56.02,47.007z"/>
	<path fill-rule="evenodd" clip-rule="evenodd" fill="#020001" d="M37.159,44.214c0.158,0.152,0.428,0.664,0.098,1.318   c-0.184,0.344-0.384,0.588-0.742,0.873c-0.427,0.344-1.264,0.738-2.414,0.012c-0.616-0.393-0.653-0.523-1.505-0.414   c-0.61,0.08-0.851-0.533-0.633-1.047c0.22-0.508,1.118-0.92,2.238-0.268c0.503,0.297,1.287,0.922,1.973,0.367   c0.287-0.229,0.456-0.379,0.851-0.836c0.02-0.02,0.044-0.031,0.072-0.031C37.121,44.188,37.144,44.198,37.159,44.214L37.159,44.214   z"/>
	<path fill-rule="evenodd" clip-rule="evenodd" fill="#E03127" d="M47.639,22.349c-0.301,1.014-0.729,2.305-2.632,3.284   c-0.278,0.141-0.383-0.09-0.257-0.31c0.722-1.223,0.847-1.53,1.058-2.013c0.292-0.705,0.445-1.708-0.137-3.804   c-1.144-4.121-3.535-9.629-5.271-11.418c-1.677-1.724-4.712-2.209-7.458-1.506c-1.012,0.259-2.988,1.288-6.656,0.462   c-6.349-1.429-7.287,1.749-7.652,3.133c-0.364,1.385-1.24,5.321-1.24,5.321c-0.291,1.601-0.673,4.387,9.183,6.266   c4.592,0.874,4.825,2.063,5.028,2.914c0.363,1.531,0.946,2.406,1.603,2.844c0.656,0.438,0,0.799-0.729,0.874   c-1.955,0.203-9.182-1.87-13.457-4.299c-3.499-2.138-3.558-4.063-2.755-5.696c-5.285-0.57-9.25,0.496-9.969,2.998   C5.063,25.69,15.736,33.024,27.89,36.702c12.752,3.863,25.869,1.168,27.326-6.852C55.879,26.211,52.811,23.517,47.639,22.349   L47.639,22.349z"/>
	<path fill-rule="evenodd" clip-rule="evenodd" fill="#020001" d="M59.774,45.679h0.207l0.308,0.51h0.2l-0.337-0.52   c0.175-0.018,0.307-0.111,0.307-0.32c0-0.232-0.139-0.336-0.415-0.336h-0.447v1.176h0.177V45.679L59.774,45.679z M59.774,45.528   v-0.365h0.245c0.124,0,0.254,0.027,0.254,0.172c0,0.182-0.134,0.193-0.286,0.193H59.774L59.774,45.528z"/>
	<path fill-rule="evenodd" clip-rule="evenodd" fill="#020001" d="M61.137,45.603c0,0.635-0.515,1.15-1.153,1.15   c-0.636,0-1.152-0.516-1.152-1.15c0-0.639,0.516-1.152,1.152-1.152C60.623,44.45,61.137,44.964,61.137,45.603L61.137,45.603z    M59.984,44.655c-0.521,0-0.947,0.422-0.947,0.947s0.425,0.945,0.947,0.945c0.521,0,0.95-0.42,0.95-0.945   S60.505,44.655,59.984,44.655L59.984,44.655z"/>
	<path fill-rule="evenodd" clip-rule="evenodd" fill="#020001" d="M28.083,14.5c-3.517,0.255-3.883,0.635-4.542,1.337   c-0.929,0.99-2.152-1.284-2.152-1.284c-0.736-0.155-1.625-1.339-1.146-2.444c0.474-1.093,1.348-0.766,1.622-0.428   c0.333,0.415,1.043,1.093,1.967,1.069c0.922-0.022,1.989-0.217,3.475-0.217c1.504,0,2.518,0.563,2.575,1.043   C29.931,13.989,29.76,14.378,28.083,14.5L28.083,14.5z"/>
	<path fill-rule="evenodd" clip-rule="evenodd" fill="#020001" d="M31.779,8.688c-0.005,0-0.01,0-0.015,0   c-0.055,0-0.099-0.041-0.099-0.092c0-0.037,0.023-0.068,0.056-0.083c0.681-0.36,1.699-0.648,2.862-0.767   c0.35-0.035,0.691-0.054,1.021-0.058c0.058,0,0.115,0,0.174,0.002c1.951,0.044,3.515,0.821,3.492,1.733   c-0.024,0.912-1.623,1.617-3.577,1.574c-0.631-0.016-1.225-0.106-1.734-0.255c-0.062-0.015-0.106-0.065-0.106-0.125   c0-0.062,0.044-0.114,0.106-0.129c1.219-0.281,2.04-0.742,1.981-1.179c-0.076-0.577-1.669-0.889-3.557-0.7   C32.175,8.631,31.974,8.659,31.779,8.688L31.779,8.688z"/>
	<path fill-rule="evenodd" clip-rule="evenodd" fill="#020001" d="M76.897,33.593c0-2.734-0.058-4.748-0.168-6.564h4.472   l0.193,3.878h0.144c1.005-2.875,3.389-4.342,5.593-4.342c0.503,0,0.797,0.019,1.21,0.111v4.863   c-0.484-0.092-0.935-0.145-1.557-0.145c-2.461,0-4.168,1.566-4.629,3.906c-0.088,0.457-0.135,1.002-0.135,1.559v10.592h-5.167   L76.897,33.593L76.897,33.593z"/>
	<path fill-rule="evenodd" clip-rule="evenodd" fill="#020001" d="M94.575,38.632c0.138,3.697,3.001,5.318,6.31,5.318   c2.373,0,4.072-0.371,5.634-0.947l0.766,3.557c-1.748,0.738-4.173,1.295-7.139,1.295c-6.63,0-10.516-4.096-10.516-10.355   c0-5.639,3.419-10.971,9.988-10.971c6.643,0,8.804,5.461,8.804,9.934c0,0.959-0.083,1.73-0.185,2.205L94.575,38.632L94.575,38.632z    M103.558,35.032c0.022-1.893-0.802-4.979-4.261-4.979c-3.179,0-4.5,2.887-4.731,4.979H103.558L103.558,35.032z"/>
	<path fill-rule="evenodd" clip-rule="evenodd" fill="#020001" d="M168.765,42.669c0,1.592,0.062,3.242,0.293,4.783h-1.836   l-0.292-2.885h-0.095c-0.977,1.553-3.22,3.346-6.421,3.346c-4.051,0-5.937-2.854-5.937-5.537c0-4.646,4.102-7.449,12.294-7.365   v-0.535c0-1.99-0.388-5.967-5.151-5.934c-1.761,0-3.598,0.471-5.054,1.5l-0.635-1.449c1.84-1.247,4.086-1.74,5.907-1.74   c5.812,0,6.926,4.361,6.926,7.959V42.669L168.765,42.669z M166.772,36.688c-4.385-0.127-10.177,0.539-10.177,5.375   c0,2.893,1.91,4.193,4.009,4.193c3.357,0,5.264-2.078,5.957-4.037c0.148-0.432,0.211-0.863,0.211-1.207V36.688L166.772,36.688z"/>
	<path fill-rule="evenodd" clip-rule="evenodd" fill="#020001" d="M176.974,22.875v4.438h5.739v1.615h-5.739v13.09   c0,2.561,0.797,4.164,2.959,4.164c1.038,0,1.771-0.135,2.286-0.314l0.243,1.541c-0.652,0.275-1.565,0.484-2.78,0.484   c-1.471,0-2.687-0.461-3.475-1.428c-0.912-1.059-1.226-2.746-1.226-4.803V28.929h-3.396v-1.615h3.396v-3.703L176.974,22.875   L176.974,22.875z"/>
	<path fill-rule="evenodd" clip-rule="evenodd" fill="#020001" d="M144.173,26.853c-1.531,0-2.904,0.442-4.057,1.154   c-1.197,0.701-2.173,1.783-2.751,2.904h-0.082v-9.965l-1.992-0.542v27.048h1.992V35.138c0-0.818,0.062-1.385,0.272-1.984   c0.859-2.504,3.219-4.561,6.073-4.561c4.121,0,5.55,3.307,5.55,6.932v11.928h1.991V35.308   C151.17,27.805,146.083,26.853,144.173,26.853L144.173,26.853z"/>
	<path fill-rule="evenodd" clip-rule="evenodd" fill="#020001" d="M130.672,19.153l-5.163-1.399v11.474h-0.084   c-0.913-1.508-2.928-2.662-5.725-2.662c-4.911,0-9.188,4.064-9.156,10.908c0,6.279,3.862,10.439,8.739,10.439   c2.947,0,5.413-1.406,6.632-3.695h0.094l0.231,3.234h4.601c-0.094-1.389-0.169-3.637-0.169-5.729V19.153L130.672,19.153z    M125.509,38.595c0,0.543-0.038,1.047-0.156,1.508c-0.521,2.236-2.348,3.676-4.458,3.676c-3.253,0-5.113-2.742-5.113-6.494   c0-3.789,1.844-6.721,5.17-6.721c2.323,0,3.984,1.637,4.441,3.625c0.088,0.418,0.116,0.936,0.116,1.348V38.595L125.509,38.595z"/>
	<path fill-rule="evenodd" clip-rule="evenodd" fill="#020001" d="M185.453,46.554h0.247l0.372,0.613h0.238l-0.399-0.623   c0.207-0.027,0.365-0.133,0.365-0.387c0-0.279-0.166-0.4-0.5-0.4h-0.534v1.41h0.211V46.554L185.453,46.554z M185.453,46.374v-0.436   h0.292c0.148,0,0.309,0.031,0.309,0.205c0,0.217-0.161,0.23-0.343,0.23H185.453L185.453,46.374z"/>
	<path fill-rule="evenodd" clip-rule="evenodd" fill="#020001" d="M187.086,46.464c0,0.762-0.616,1.381-1.379,1.381   s-1.381-0.619-1.381-1.381c0-0.764,0.618-1.383,1.381-1.383S187.086,45.7,187.086,46.464L187.086,46.464z M185.708,45.327   c-0.629,0-1.138,0.508-1.138,1.137c0,0.627,0.509,1.137,1.138,1.137c0.626,0,1.133-0.51,1.133-1.137   C186.84,45.835,186.333,45.327,185.708,45.327L185.708,45.327z"/>
</g>
</svg>