<?xml version="1.0" encoding="UTF-8" standalone="no"?>
<!-- Created with Inkscape (http://www.inkscape.org/) -->

<svg
   xmlns:dc="http://purl.org/dc/elements/1.1/"
   xmlns:cc="http://creativecommons.org/ns#"
   xmlns:rdf="http://www.w3.org/1999/02/22-rdf-syntax-ns#"
   xmlns:svg="http://www.w3.org/2000/svg"
   xmlns="http://www.w3.org/2000/svg"
   xmlns:sodipodi="http://sodipodi.sourceforge.net/DTD/sodipodi-0.dtd"
   xmlns:inkscape="http://www.inkscape.org/namespaces/inkscape"
   width="105.96063mm"
   height="73.220123mm"
   viewBox="0 0 105.96063 73.220123"
   version="1.1"
   id="svg8"
   inkscape:version="0.92.3 (2405546, 2018-03-11)"
   sodipodi:docname="quote-comic.svg">
  <defs
     id="defs2" />
  <sodipodi:namedview
     id="base"
     pagecolor="#ffffff"
     bordercolor="#666666"
     borderopacity="1.0"
     inkscape:pageopacity="0.0"
     inkscape:pageshadow="2"
     inkscape:zoom="1.979899"
     inkscape:cx="252.50157"
     inkscape:cy="86.326191"
     inkscape:document-units="mm"
     inkscape:current-layer="layer1"
     showgrid="false"
     fit-margin-top="2"
     fit-margin-left="2"
     fit-margin-right="2"
     fit-margin-bottom="2"
     inkscape:window-width="1920"
     inkscape:window-height="990"
     inkscape:window-x="1920"
     inkscape:window-y="27"
     inkscape:window-maximized="1" />
  <metadata
     id="metadata5">
    <rdf:RDF>
      <cc:Work
         rdf:about="">
        <dc:format>image/svg+xml</dc:format>
        <dc:type
           rdf:resource="http://purl.org/dc/dcmitype/StillImage" />
        <dc:title></dc:title>
      </cc:Work>
    </rdf:RDF>
  </metadata>
  <g
     inkscape:label="Layer 1"
     inkscape:groupmode="layer"
     id="layer1"
     transform="translate(-0.5404035,-73.83581)">
    <rect
       style="opacity:1;fill:none;fill-opacity:1;stroke:#000000;stroke-width:0.26458332"
       id="rect4747"
       width="49.311222"
       height="68.821907"
       x="2.6726952"
       y="75.968102" />
    <ellipse
       style="opacity:1;fill:none;fill-opacity:1;stroke:#000000;stroke-width:0.26458332"
       id="path4749"
       cx="15.56845"
       cy="104.09822"
       rx="5.0113039"
       ry="5.6794777" />
    <path
       style="fill:none;stroke:#000000;stroke-width:0.26458332px;stroke-linecap:butt;stroke-linejoin:miter;stroke-opacity:1"
       d="m 15.768902,109.7777 c 0,15.90253 -1.069078,24.05425 -1.069078,24.05425 l -7.2162774,8.01809"
       id="path4751"
       inkscape:connector-curvature="0" />
    <path
       style="fill:none;stroke:#000000;stroke-width:0.26458332px;stroke-linecap:butt;stroke-linejoin:miter;stroke-opacity:1"
       d="m 14.699824,133.83195 c 0,0 4.543582,7.08265 5.211756,7.61718"
       id="path4753"
       inkscape:connector-curvature="0" />
    <path
       style="fill:none;stroke:#000000;stroke-width:0.26458332px;stroke-linecap:butt;stroke-linejoin:miter;stroke-opacity:1"
       d="m 6.6817382,122.20573 c 1.6036171,-3.87541 8.9535288,-6.41447 8.9535288,-6.41447 0,0 12.160762,0.13364 12.294398,-5.61266"
       id="path4755"
       inkscape:connector-curvature="0" />
    <rect
       style="opacity:1;fill:none;fill-opacity:1;stroke:#000000;stroke-width:0.26458332"
       id="rect4757"
       width="10.022608"
       height="10.423512"
       x="36.749561"
       y="98.819649" />
    <path
       id="path4761"
       style="fill:none;stroke:#000000;stroke-width:0.26458332px;stroke-linecap:butt;stroke-linejoin:miter;stroke-opacity:1"
       d="m 41.894501,134.63376 6.414468,6.41447 m -6.414468,-31.93871 v 25.52424 0 l -6.68174,6.68174"
       inkscape:connector-curvature="0" />
    <path
       style="fill:none;stroke:#000000;stroke-width:0.26458332px;stroke-linecap:butt;stroke-linejoin:miter;stroke-opacity:1"
       d="M 35.7473,115.65762 H 47.77443"
       id="path4763"
       inkscape:connector-curvature="0" />
    <path
       style="fill:none;stroke:#000000;stroke-width:0.26458332px;stroke-linecap:butt;stroke-linejoin:miter;stroke-opacity:1"
       d="m 38.954536,105.63501 h 5.612659"
       id="path4765"
       inkscape:connector-curvature="0" />
    <ellipse
       style="opacity:1;fill:none;fill-opacity:1;stroke:#000000;stroke-width:0.26458332"
       id="path4767"
       cx="39.800114"
       cy="102.08907"
       rx="1.3363467"
       ry="1.4031662" />
    <ellipse
       ry="1.4031662"
       rx="1.3363467"
       cy="102.08907"
       cx="43.721615"
       id="ellipse4769"
       style="opacity:1;fill:none;fill-opacity:1;stroke:#000000;stroke-width:0.26458332" />
    <path
       style="fill:none;stroke:#000000;stroke-width:0.26458332px;stroke-linecap:butt;stroke-linejoin:miter;stroke-opacity:1"
       d="m 13.418155,106.03261 c 0.755952,1.6064 3.96875,1.03944 4.346726,0.0945"
       id="path4776"
       inkscape:connector-curvature="0" />
    <circle
       style="opacity:1;fill:none;fill-opacity:1;stroke:#000000;stroke-width:0.26458332"
       id="path4780"
       cx="17.706606"
       cy="103.51357"
       r="0.43431297" />
    <circle
       r="0.43431297"
       cy="103.51357"
       cx="13.480408"
       id="circle4782"
       style="opacity:1;fill:none;fill-opacity:1;stroke:#000000;stroke-width:0.26458332" />
    <g
       aria-label="Řekni Pavlovi,
ať  mi zavolá!"
       style="font-style:normal;font-variant:normal;font-weight:normal;font-stretch:normal;font-size:5.64444447px;line-height:1.25;font-family:Oxygen;-inkscape-font-specification:Oxygen;letter-spacing:0px;word-spacing:0px;fill:#000000;fill-opacity:1;stroke:none;stroke-width:0.26458332"
       id="text4788">
      <path
         d="M 8.4964399,77.36362 H 8.857486 L 9.3012143,78.223516 9.7449426,77.36362 H 10.114257 L 9.5988705,78.432978 H 9.0118262 Z m -0.253559,1.857596 v 1.378038 q 0.1129992,0 0.4657769,0.0055 0.3555339,0.0055 0.5484592,0.0055 0.5264106,0 0.7331164,-0.173633 0.2067056,-0.176388 0.2067056,-0.556727 0,-0.333485 -0.1984374,-0.496094 -0.1984375,-0.162608 -0.6642144,-0.162608 z m 2.6127601,3.695898 H 10.304426 L 9.7421865,81.638295 q -0.2287544,-0.515386 -0.2921441,-0.620117 -0.2011936,0.01378 -0.4768012,0.01378 l -0.7303603,-0.02205 v 1.907205 H 7.7550554 v -4.12309 h 1.3036241 q 0.2259983,0 0.3996311,0.01102 0.1736328,0.01103 0.3445096,0.04134 0.1736328,0.02756 0.3004118,0.07993 0.12678,0.04961 0.237023,0.132291 0.110243,0.07993 0.176389,0.192926 0.0689,0.112999 0.107487,0.270095 0.03858,0.15434 0.03858,0.350022 0,0.385851 -0.20395,0.664214 -0.201193,0.278364 -0.5732635,0.385851 0,0.0055 0.055122,0.09922 0.055122,0.09371 0.1295365,0.23151 0.07717,0.135048 0.118511,0.225998 z"
         style="stroke-width:0.26458332"
         id="path4877"
         inkscape:connector-curvature="0" />
      <path
         d="m 13.179014,80.453182 q -0.201194,-0.242535 -0.553972,-0.242535 -0.352777,0 -0.57602,0.250803 -0.223242,0.248047 -0.261827,0.680751 h 1.595768 q 0,-0.44924 -0.203949,-0.689019 z m -0.463021,2.527322 q -0.658702,0 -1.039041,-0.418924 -0.377582,-0.418923 -0.377582,-1.146527 0,-0.7028 0.366558,-1.13826 0.366558,-0.438216 0.964627,-0.446484 0.562239,0 0.890212,0.38585 0.330729,0.383095 0.330729,1.025261 0,0.03307 -0.0028,0.121267 0,0.08819 0,0.12678 h -2.075325 q 0.0083,0.515386 0.264583,0.804774 0.259071,0.286632 0.694531,0.286632 0.479558,0 0.961871,-0.253559 l 0.07166,0.37207 q -0.460265,0.28112 -1.050065,0.28112 z"
         style="stroke-width:0.26458332"
         id="path4879"
         inkscape:connector-curvature="0" />
      <path
         d="M 14.496418,82.917114 V 78.71961 l 0.457509,-0.02756 v 2.196593 0.385851 q 0.01654,-0.01654 0.04961,-0.05512 0.03307,-0.03858 0.05237,-0.05788 0.239778,-0.261828 1.240234,-1.267796 h 0.584288 l -1.256771,1.273308 1.344966,1.750108 H 16.39536 l -1.105187,-1.488281 -0.336241,0.289388 v 1.198893 z"
         style="stroke-width:0.26458332"
         id="path4881"
         inkscape:connector-curvature="0" />
      <path
         d="m 17.357226,82.917114 v -3.023416 h 0.38585 l 0.05788,0.432704 q 0.179145,-0.223242 0.446484,-0.358289 0.270096,-0.137804 0.581532,-0.137804 0.523655,0 0.774458,0.2949 0.250803,0.292144 0.250803,0.901237 v 1.890668 h -0.460265 q 0,-1.81901 -0.0028,-1.948546 -0.01102,-0.38585 -0.157096,-0.564995 -0.143316,-0.179145 -0.482314,-0.179145 -0.355534,0 -0.592556,0.170876 -0.237023,0.170877 -0.308681,0.443729 -0.02756,0.184657 -0.02756,0.424435 v 1.653646 z"
         style="stroke-width:0.26458332"
         id="path4883"
         inkscape:connector-curvature="0" />
      <path
         d="m 21.163367,79.893698 v 3.023416 h -0.463021 v -3.023416 z m 0,-1.099674 v 0.545703 h -0.463021 v -0.545703 z"
         style="stroke-width:0.26458332"
         id="path4885"
         inkscape:connector-curvature="0" />
      <path
         d="m 23.938736,82.917114 h -0.487825 v -4.12309 h 1.328428 q 0.303169,0 0.54846,0.06339 0.24529,0.06339 0.43546,0.192925 0.190169,0.129536 0.2949,0.347266 0.104731,0.21773 0.104731,0.507118 0,0.239778 -0.0441,0.429948 -0.0441,0.187413 -0.151585,0.352777 -0.107487,0.165365 -0.281119,0.275608 -0.173633,0.107487 -0.446485,0.170877 -0.270095,0.06063 -0.628385,0.06063 -0.283876,0 -0.672483,-0.03583 z m 0.719336,-2.144227 q 0.270096,0 0.463021,-0.05237 0.192925,-0.05237 0.2949,-0.129535 0.104731,-0.07717 0.162609,-0.201194 0.06063,-0.124023 0.07441,-0.225998 0.01378,-0.104731 0.01378,-0.250803 0,-0.350022 -0.237023,-0.515386 -0.234266,-0.165365 -0.639409,-0.165365 h -0.851628 v 1.535135 q 0.531923,0.0055 0.719336,0.0055 z"
         style="stroke-width:0.26458332"
         id="path4887"
         inkscape:connector-curvature="0" />
      <path
         d="m 27.491319,82.608434 q 0.327973,0 0.57602,-0.179145 0.250803,-0.181901 0.322461,-0.487826 v -0.509874 q -0.01378,0 -0.168121,0.01378 -0.151584,0.01378 -0.198437,0.01654 -0.598069,0.05236 -0.835092,0.195681 -0.234266,0.143316 -0.234266,0.460265 0,0.242535 0.143316,0.366558 0.143316,0.124024 0.394119,0.124024 z m 1.000455,0.30868 q -0.04134,-0.176389 -0.07993,-0.380338 -0.250803,0.250803 -0.471289,0.347265 -0.220486,0.09646 -0.518142,0.09646 -0.424436,0 -0.683507,-0.220486 -0.256315,-0.223242 -0.256315,-0.63941 0,-0.463021 0.350022,-0.686263 0.352777,-0.223242 1.014236,-0.278364 0.09095,-0.0083 0.272851,-0.02205 0.184657,-0.01654 0.275608,-0.02481 v -0.267339 q 0,-0.319705 -0.148828,-0.474045 -0.148828,-0.154341 -0.468533,-0.154341 -0.446485,0 -0.901237,0.220486 -0.01378,-0.03307 -0.07166,-0.190169 -0.05788,-0.159852 -0.06063,-0.165364 0.201194,-0.113 0.476801,-0.179145 0.278364,-0.0689 0.564996,-0.0689 0.564996,0 0.813042,0.248047 0.250803,0.24529 0.250803,0.837847 v 2.000911 z"
         style="stroke-width:0.26458332"
         id="path4889"
         inkscape:connector-curvature="0" />
      <path
         d="m 30.423783,82.917114 -1.171332,-3.023416 h 0.493337 l 0.666971,1.796962 q 0,0 0.275607,0.766189 0.09371,-0.2949 0.259071,-0.760677 0.209462,-0.587044 0.650435,-1.802474 h 0.490581 l -1.163064,3.023416 z"
         style="stroke-width:0.26458332"
         id="path4891"
         inkscape:connector-curvature="0" />
      <path
         d="m 33.306639,82.972236 q -0.440972,0 -0.62563,-0.237023 -0.181901,-0.237022 -0.181901,-0.824067 V 78.71961 l 0.457509,-0.02756 v 3.037196 q 0,0.187414 0.0028,0.300413 0.0055,0.112999 0.02205,0.223242 0.01654,0.107487 0.0441,0.162608 0.02756,0.05512 0.07993,0.101975 0.05237,0.0441 0.124024,0.06063 0.07441,0.01378 0.181901,0.01378 0.08819,0 0.347265,-0.03307 l 0.02481,0.366558 q -0.283876,0.04685 -0.476801,0.04685 z"
         style="stroke-width:0.26458332"
         id="path4893"
         inkscape:connector-curvature="0" />
      <path
         d="m 34.39529,81.412297 q 0,0.537434 0.237023,0.862651 0.239778,0.322461 0.697287,0.322461 0.451997,0 0.680751,-0.322461 0.23151,-0.32246 0.23151,-0.868164 0,-0.553971 -0.228754,-0.87092 -0.225998,-0.319705 -0.691775,-0.319705 -0.451997,0 -0.689019,0.325217 -0.237023,0.325217 -0.237023,0.870921 z m 2.323373,-0.0083 q 0,0.7028 -0.374827,1.141016 -0.374826,0.43546 -1.036285,0.43546 -0.636653,0 -1.014236,-0.440972 -0.374826,-0.440972 -0.374826,-1.132748 0,-0.705555 0.377582,-1.141015 0.377583,-0.43546 1.036285,-0.43546 0.647678,0 1.016992,0.438216 0.369315,0.43546 0.369315,1.135503 z"
         style="stroke-width:0.26458332"
         id="path4895"
         inkscape:connector-curvature="0" />
      <path
         d="m 38.107726,82.917114 -1.171333,-3.023416 h 0.493338 l 0.66697,1.796962 q 0,0 0.275608,0.766189 0.09371,-0.2949 0.259071,-0.760677 0.209462,-0.587044 0.650434,-1.802474 h 0.490582 l -1.163064,3.023416 z"
         style="stroke-width:0.26458332"
         id="path4897"
         inkscape:connector-curvature="0" />
      <path
         d="m 40.720484,79.893698 v 3.023416 h -0.463021 v -3.023416 z m 0,-1.099674 v 0.545703 h -0.463021 v -0.545703 z"
         style="stroke-width:0.26458332"
         id="path4899"
         inkscape:connector-curvature="0" />
      <path
         d="m 41.494944,83.683303 q 0.0083,-0.07993 0.04685,-0.424435 0.04134,-0.341754 0.06339,-0.57602 0.02205,-0.234267 0.03307,-0.410656 h 0.542947 v 0.121268 q -0.135047,0.545703 -0.396875,1.289843 z"
         style="stroke-width:0.26458332"
         id="path4901"
         inkscape:connector-curvature="0" />
      <path
         d="m 8.6177073,89.663989 q 0.3279731,0 0.57602,-0.179145 0.2508029,-0.181901 0.3224609,-0.487825 v -0.509874 q -0.01378,0 -0.1681206,0.01378 -0.1515842,0.01378 -0.1984375,0.01654 -0.5980686,0.05237 -0.8350912,0.195681 -0.2342665,0.143316 -0.2342665,0.460265 0,0.242534 0.143316,0.366558 0.143316,0.124023 0.3941189,0.124023 z M 9.618163,89.97267 q -0.041341,-0.176389 -0.079926,-0.380339 -0.2508029,0.250803 -0.471289,0.347266 -0.2204861,0.09646 -0.5181424,0.09646 -0.4244358,0 -0.6835069,-0.220487 -0.2563152,-0.223242 -0.2563152,-0.639409 0,-0.463021 0.3500218,-0.686263 0.3527777,-0.223242 1.0142361,-0.278364 0.09095,-0.0083 0.2728515,-0.02205 0.1846571,-0.01654 0.2756077,-0.0248 v -0.26734 q 0,-0.319705 -0.1488282,-0.474045 -0.1488281,-0.15434 -0.4685329,-0.15434 -0.4464844,0 -0.901237,0.220486 -0.01378,-0.03307 -0.071658,-0.190169 -0.057878,-0.159853 -0.060634,-0.165365 0.2011936,-0.112999 0.4768012,-0.179145 0.2783637,-0.0689 0.5649957,-0.0689 0.5649956,0 0.8130425,0.248047 0.250803,0.245291 0.250803,0.837847 v 2.000912 z"
         style="stroke-width:0.26458332"
         id="path4903"
         inkscape:connector-curvature="0" />
      <path
         d="m 12.74631,87.657566 q 0.0083,-0.07993 0.04685,-0.42168 0.04134,-0.34451 0.06339,-0.578776 0.02205,-0.234267 0.03307,-0.410655 h 0.542947 v 0.121267 q -0.135048,0.545703 -0.396875,1.289844 z m -1.005968,2.370225 q -0.446485,0 -0.633898,-0.21773 -0.187413,-0.21773 -0.198437,-0.702799 v -1.816254 h -0.449241 l 0.01929,-0.303169 0.427192,-0.03858 0.157096,-0.691775 0.303168,-0.01102 v 0.702799 h 0.840604 v 0.341754 h -0.840604 v 1.733572 q 0,0.344509 0.104731,0.485069 0.104731,0.14056 0.35829,0.14056 0.09095,0 0.394119,-0.0441 l 0.01929,0.363802 q -0.327973,0.05788 -0.501606,0.05788 z"
         style="stroke-width:0.26458332"
         id="path4905"
         inkscape:connector-curvature="0" />
      <path
         d="m 19.399478,89.97267 v -1.57372 q 0,-0.220486 -0.01102,-0.369314 -0.0083,-0.148828 -0.0441,-0.303168 -0.03307,-0.154341 -0.09646,-0.242535 -0.06063,-0.09095 -0.170877,-0.146072 -0.110243,-0.05788 -0.264583,-0.05788 -0.303168,0 -0.518142,0.162609 -0.212218,0.162608 -0.303169,0.457508 -0.02481,0.198438 -0.02481,0.424436 v 1.648134 h -0.460264 v -1.623329 q 0,-0.20395 -0.01378,-0.352778 -0.01378,-0.151584 -0.05237,-0.292144 -0.03858,-0.143316 -0.104731,-0.23151 -0.06339,-0.08819 -0.170877,-0.14056 -0.107487,-0.05237 -0.256315,-0.05237 -0.330729,0 -0.556727,0.168121 -0.223242,0.168121 -0.300413,0.446484 -0.0248,0.212218 -0.0248,0.460265 v 1.617817 h -0.460265 q -0.0055,-2.836003 -0.0055,-3.023416 h 0.38585 l 0.05788,0.432704 q 0.137804,-0.209462 0.391363,-0.352778 0.253559,-0.143316 0.57602,-0.143316 0.168121,0 0.30868,0.03583 0.143316,0.03307 0.237023,0.08544 0.09646,0.05236 0.170877,0.126779 0.07441,0.07166 0.115755,0.143316 0.04134,0.0689 0.0689,0.146072 0.330729,-0.537435 1.01148,-0.537435 0.504362,0 0.738628,0.289388 0.237023,0.286632 0.237023,0.851628 v 1.94579 z"
         style="stroke-width:0.26458332"
         id="path4907"
         inkscape:connector-curvature="0" />
      <path
         d="m 20.986978,86.949254 v 3.023416 h -0.463021 v -3.023416 z m 0,-1.099674 v 0.545703 H 20.523957 V 85.84958 Z"
         style="stroke-width:0.26458332"
         id="path4909"
         inkscape:connector-curvature="0" />
      <path
         d="m 25.212044,89.97267 h -2.111155 v -0.347266 l 1.546159,-2.312348 H 23.14223 v -0.363802 h 2.020204 v 0.363802 l -1.543403,2.295812 h 1.593013 z"
         style="stroke-width:0.26458332"
         id="path4911"
         inkscape:connector-curvature="0" />
      <path
         d="m 26.653472,89.663989 q 0.327973,0 0.57602,-0.179145 0.250803,-0.181901 0.322461,-0.487825 v -0.509874 q -0.01378,0 -0.168121,0.01378 -0.151584,0.01378 -0.198437,0.01654 -0.598069,0.05237 -0.835091,0.195681 -0.234267,0.143316 -0.234267,0.460265 0,0.242534 0.143316,0.366558 0.143316,0.124023 0.394119,0.124023 z m 1.000456,0.308681 q -0.04134,-0.176389 -0.07993,-0.380339 -0.250803,0.250803 -0.47129,0.347266 -0.220486,0.09646 -0.518142,0.09646 -0.424436,0 -0.683507,-0.220487 -0.256315,-0.223242 -0.256315,-0.639409 0,-0.463021 0.350022,-0.686263 0.352778,-0.223242 1.014236,-0.278364 0.09095,-0.0083 0.272851,-0.02205 0.184658,-0.01654 0.275608,-0.0248 v -0.26734 q 0,-0.319705 -0.148828,-0.474045 -0.148828,-0.15434 -0.468533,-0.15434 -0.446484,0 -0.901237,0.220486 -0.01378,-0.03307 -0.07166,-0.190169 -0.05788,-0.159853 -0.06063,-0.165365 0.201194,-0.112999 0.476802,-0.179145 0.278363,-0.0689 0.564995,-0.0689 0.564996,0 0.813043,0.248047 0.250803,0.245291 0.250803,0.837847 v 2.000912 z"
         style="stroke-width:0.26458332"
         id="path4913"
         inkscape:connector-curvature="0" />
      <path
         d="m 29.585936,89.97267 -1.171332,-3.023416 h 0.493337 l 0.666971,1.796962 q 0,0 0.275608,0.766189 0.09371,-0.2949 0.259071,-0.760677 0.209462,-0.587044 0.650434,-1.802474 h 0.490581 l -1.163064,3.023416 z"
         style="stroke-width:0.26458332"
         id="path4915"
         inkscape:connector-curvature="0" />
      <path
         d="m 31.958919,88.467852 q 0,0.537435 0.237023,0.862652 0.239778,0.322461 0.697287,0.322461 0.451997,0 0.680751,-0.322461 0.23151,-0.322461 0.23151,-0.868164 0,-0.553971 -0.228754,-0.87092 -0.225998,-0.319705 -0.691775,-0.319705 -0.451997,0 -0.689019,0.325217 -0.237023,0.325217 -0.237023,0.87092 z m 2.323373,-0.0083 q 0,0.702799 -0.374827,1.141016 -0.374826,0.43546 -1.036284,0.43546 -0.636654,0 -1.014237,-0.440973 -0.374826,-0.440972 -0.374826,-1.132747 0,-0.705556 0.377583,-1.141016 0.377582,-0.43546 1.036284,-0.43546 0.647678,0 1.016992,0.438216 0.369315,0.43546 0.369315,1.135504 z"
         style="stroke-width:0.26458332"
         id="path4917"
         inkscape:connector-curvature="0" />
      <path
         d="m 35.743012,90.027791 q -0.440973,0 -0.62563,-0.237022 -0.181901,-0.237023 -0.181901,-0.824067 v -3.191537 l 0.457509,-0.02756 v 3.037196 q 0,0.187413 0.0028,0.300412 0.0055,0.112999 0.02205,0.223242 0.01654,0.107487 0.0441,0.162609 0.02756,0.05512 0.07993,0.101975 0.05237,0.0441 0.124023,0.06063 0.07441,0.01378 0.181901,0.01378 0.0882,0 0.347266,-0.03307 l 0.02481,0.366558 q -0.283876,0.04685 -0.476801,0.04685 z"
         style="stroke-width:0.26458332"
         id="path4919"
         inkscape:connector-curvature="0" />
      <path
         d="m 38.59555,85.480265 -0.895725,1.069358 h -0.314193 l 0.512631,-1.069358 z m -1.226454,4.183724 q 0.327973,0 0.57602,-0.179145 0.250803,-0.181901 0.322461,-0.487825 v -0.509874 q -0.01378,0 -0.168121,0.01378 -0.151584,0.01378 -0.198437,0.01654 -0.598069,0.05237 -0.835092,0.195681 -0.234266,0.143316 -0.234266,0.460265 0,0.242534 0.143316,0.366558 0.143316,0.124023 0.394119,0.124023 z m 1.000456,0.308681 q -0.04134,-0.176389 -0.07993,-0.380339 -0.250803,0.250803 -0.471289,0.347266 -0.220486,0.09646 -0.518142,0.09646 -0.424436,0 -0.683507,-0.220487 -0.256315,-0.223242 -0.256315,-0.639409 0,-0.463021 0.350022,-0.686263 0.352777,-0.223242 1.014236,-0.278364 0.09095,-0.0083 0.272851,-0.02205 0.184657,-0.01654 0.275608,-0.0248 v -0.26734 q 0,-0.319705 -0.148828,-0.474045 -0.148828,-0.15434 -0.468533,-0.15434 -0.446485,0 -0.901237,0.220486 -0.01378,-0.03307 -0.07166,-0.190169 -0.05788,-0.159853 -0.06063,-0.165365 0.201194,-0.112999 0.476801,-0.179145 0.278364,-0.0689 0.564996,-0.0689 0.564996,0 0.813043,0.248047 0.250803,0.245291 0.250803,0.837847 v 2.000912 z"
         style="stroke-width:0.26458332"
         id="path4921"
         inkscape:connector-curvature="0" />
      <path
         d="m 39.67042,89.898256 q -0.09646,-0.110243 -0.09646,-0.256315 0,-0.146072 0.09646,-0.253559 0.09922,-0.110243 0.270096,-0.110243 0.173633,0 0.270095,0.107487 0.09646,0.107487 0.09646,0.256315 0,0.148828 -0.09646,0.256315 -0.09646,0.107487 -0.270095,0.107487 -0.170877,0 -0.270096,-0.107487 z m 0.540191,-4.048676 v 0.391362 l -0.15434,2.532835 h -0.21773 L 39.667664,86.240942 V 85.84958 Z"
         style="stroke-width:0.26458332"
         id="path4923"
         inkscape:connector-curvature="0" />
    </g>
    <path
       style="fill:none;stroke:#000000;stroke-width:0.26458332px;stroke-linecap:butt;stroke-linejoin:miter;stroke-opacity:1"
       d="m 20.980658,99.086912 c 4.276312,-1.737251 3.875408,-6.949006 3.875408,-6.949006"
       id="path4792"
       inkscape:connector-curvature="0" />
    <rect
       y="76.101738"
       x="55.057522"
       height="68.821907"
       width="49.311222"
       id="rect4794"
       style="opacity:1;fill:none;fill-opacity:1;stroke:#000000;stroke-width:0.26458332" />
    <ellipse
       ry="5.6794777"
       rx="5.0113039"
       cy="104.23186"
       cx="67.953278"
       id="ellipse4796"
       style="opacity:1;fill:none;fill-opacity:1;stroke:#000000;stroke-width:0.26458332" />
    <path
       inkscape:connector-curvature="0"
       id="path4798"
       d="m 68.004404,109.91133 c 0,15.90253 1.069078,24.05425 1.069078,24.05425 l 7.216277,8.01809"
       style="fill:none;stroke:#000000;stroke-width:0.26458332px;stroke-linecap:butt;stroke-linejoin:miter;stroke-opacity:1" />
    <path
       inkscape:connector-curvature="0"
       id="path4800"
       d="m 69.073482,133.96558 c 0,0 -4.543582,7.08265 -5.211756,7.61718"
       style="fill:none;stroke:#000000;stroke-width:0.26458332px;stroke-linecap:butt;stroke-linejoin:miter;stroke-opacity:1" />
    <path
       inkscape:connector-curvature="0"
       id="path4802"
       d="m 73.617063,125.01206 c 0.133635,-4.14268 -5.479024,-9.08717 -5.479024,-9.08717 0,0 -2.539059,5.61267 -3.073599,9.88897"
       style="fill:none;stroke:#000000;stroke-width:0.26458332px;stroke-linecap:butt;stroke-linejoin:miter;stroke-opacity:1"
       sodipodi:nodetypes="ccc" />
    <rect
       y="98.953285"
       x="89.134392"
       height="10.423512"
       width="10.022608"
       id="rect4804"
       style="opacity:1;fill:none;fill-opacity:1;stroke:#000000;stroke-width:0.26458332" />
    <path
       inkscape:connector-curvature="0"
       d="m 94.279328,134.76739 6.414472,6.41447 m -6.414472,-31.93871 v 25.52424 0 l -6.68174,6.68174"
       style="fill:none;stroke:#000000;stroke-width:0.26458332px;stroke-linecap:butt;stroke-linejoin:miter;stroke-opacity:1"
       id="path4806" />
    <path
       inkscape:connector-curvature="0"
       id="path4808"
       d="M 88.132127,115.79125 H 100.15926"
       style="fill:none;stroke:#000000;stroke-width:0.26458332px;stroke-linecap:butt;stroke-linejoin:miter;stroke-opacity:1" />
    <path
       inkscape:connector-curvature="0"
       id="path4810"
       d="m 91.339363,105.76864 h 5.612655"
       style="fill:none;stroke:#000000;stroke-width:0.26458332px;stroke-linecap:butt;stroke-linejoin:miter;stroke-opacity:1" />
    <ellipse
       ry="1.4031662"
       rx="1.3363467"
       cy="102.22271"
       cx="92.184944"
       id="ellipse4812"
       style="opacity:1;fill:none;fill-opacity:1;stroke:#000000;stroke-width:0.26458332" />
    <ellipse
       style="opacity:1;fill:none;fill-opacity:1;stroke:#000000;stroke-width:0.26458332"
       id="ellipse4814"
       cx="96.106438"
       cy="102.22271"
       rx="1.3363467"
       ry="1.4031662" />
    <path
       inkscape:connector-curvature="0"
       id="path4816"
       d="m 65.802982,107.25431 c 0.755952,-1.6064 3.96875,-1.03944 4.346726,-0.0945"
       style="fill:none;stroke:#000000;stroke-width:0.26458332px;stroke-linecap:butt;stroke-linejoin:miter;stroke-opacity:1" />
    <circle
       r="0.43431297"
       cy="103.64721"
       cx="70.091438"
       id="circle4818"
       style="opacity:1;fill:none;fill-opacity:1;stroke:#000000;stroke-width:0.26458332" />
    <circle
       style="opacity:1;fill:none;fill-opacity:1;stroke:#000000;stroke-width:0.26458332"
       id="circle4820"
       cx="65.865234"
       cy="103.64721"
       r="0.43431297" />
    <g
       aria-label="PAVLOVI AŤ
MI ZAVOLÁ!"
       style="font-style:normal;font-variant:normal;font-weight:normal;font-stretch:normal;font-size:5.64444447px;line-height:1.25;font-family:Oxygen;-inkscape-font-specification:Oxygen;letter-spacing:0px;word-spacing:0px;fill:#000000;fill-opacity:1;stroke:none;stroke-width:0.26458332"
       id="text4826"
       transform="translate(-4.543582)">
      <path
         d="m 73.430494,81.343254 h 0.713824 q 0.391363,0 0.625629,-0.20395 0.237023,-0.203949 0.237023,-0.600824 0,-0.396875 -0.234267,-0.595313 -0.234266,-0.198437 -0.628385,-0.198437 h -0.713824 z m 1.998156,-1.378038 q 0.118511,0.234266 0.118511,0.542947 0,0.837847 -0.600825,1.08865 -0.374826,0.157096 -0.939822,0.157096 h -0.57602 v 1.697744 h -0.515386 v -4.10931 h 1.094162 q 1.105187,0 1.41938,0.622873 z"
         style="font-style:normal;font-variant:normal;font-weight:normal;font-stretch:normal;font-family:'Oxygen Mono';-inkscape-font-specification:'Oxygen Mono';stroke-width:0.26458332"
         id="path4840"
         inkscape:connector-curvature="0" />
      <path
         d="m 77.035442,81.712568 h 0.942578 l -0.463021,-1.783181 z m 0.763433,-2.370225 1.21543,4.10931 H 78.471358 L 78.082751,82.12598 h -1.154796 l -0.38585,1.325673 h -0.540191 l 1.212673,-4.10931 z"
         style="font-style:normal;font-variant:normal;font-weight:normal;font-stretch:normal;font-family:'Oxygen Mono';-inkscape-font-specification:'Oxygen Mono';stroke-width:0.26458332"
         id="path4842"
         inkscape:connector-curvature="0" />
      <path
         d="m 81.864088,79.342343 h 0.564996 l -1.240235,4.10931 h -0.598068 l -1.234722,-4.10931 h 0.564995 l 0.978407,3.494704 z"
         style="font-style:normal;font-variant:normal;font-weight:normal;font-stretch:normal;font-family:'Oxygen Mono';-inkscape-font-specification:'Oxygen Mono';stroke-width:0.26458332"
         id="path4844"
         inkscape:connector-curvature="0" />
      <path
         d="m 83.933901,83.049265 h 1.5875 l -0.02756,0.402388 h -2.075325 v -4.10931 h 0.515386 z"
         style="font-style:normal;font-variant:normal;font-weight:normal;font-stretch:normal;font-family:'Oxygen Mono';-inkscape-font-specification:'Oxygen Mono';stroke-width:0.26458332"
         id="path4846"
         inkscape:connector-curvature="0" />
      <path
         d="m 88.109357,79.926631 q -0.187413,-0.231511 -0.44924,-0.231511 -0.261827,0 -0.449241,0.231511 -0.187413,0.228754 -0.275607,0.606337 -0.08819,0.377582 -0.08819,0.862652 0,0.485069 0.08819,0.862651 0.08819,0.377583 0.275607,0.606337 0.187414,0.228755 0.449241,0.228755 0.261827,0 0.44924,-0.228755 0.187414,-0.228754 0.275608,-0.606337 0.08819,-0.377582 0.08819,-0.862651 0,-0.48507 -0.08819,-0.862652 -0.08819,-0.377583 -0.275608,-0.606337 z m 0.154341,3.423047 q -0.264584,0.170876 -0.603581,0.170876 -0.338998,0 -0.603581,-0.170876 -0.264583,-0.173633 -0.427192,-0.471289 -0.322461,-0.598069 -0.322461,-1.485526 0,-1.096918 0.432704,-1.672938 0.151585,-0.20395 0.385851,-0.325217 0.237023,-0.121267 0.534679,-0.121267 0.297656,0 0.534679,0.121267 0.429948,0.220486 0.622873,0.768945 0.195681,0.545704 0.195681,1.22921 0,0.887457 -0.322461,1.485526 -0.162608,0.297656 -0.427191,0.471289 z"
         style="font-style:normal;font-variant:normal;font-weight:normal;font-stretch:normal;font-family:'Oxygen Mono';-inkscape-font-specification:'Oxygen Mono';stroke-width:0.26458332"
         id="path4848"
         inkscape:connector-curvature="0" />
      <path
         d="m 92.017474,79.342343 h 0.564996 l -1.240235,4.10931 h -0.598068 l -1.234722,-4.10931 h 0.564995 l 0.978407,3.494704 z"
         style="font-style:normal;font-variant:normal;font-weight:normal;font-stretch:normal;font-family:'Oxygen Mono';-inkscape-font-specification:'Oxygen Mono';stroke-width:0.26458332"
         id="path4850"
         inkscape:connector-curvature="0" />
      <path
         d="m 93.271488,79.74473 v -0.402387 h 2.31786 v 0.402387 h -0.912261 v 3.304535 h 0.912261 v 0.402388 h -2.31786 V 83.049265 H 94.1617 V 79.74473 Z"
         style="font-style:normal;font-variant:normal;font-weight:normal;font-stretch:normal;font-family:'Oxygen Mono';-inkscape-font-specification:'Oxygen Mono';stroke-width:0.26458332"
         id="path4852"
         inkscape:connector-curvature="0" />
      <path
         d="m 100.72668,81.712568 h 0.94257 l -0.46302,-1.783181 z m 0.76343,-2.370225 1.21543,4.10931 h -0.54295 l -0.38861,-1.325673 h -1.15479 l -0.38585,1.325673 h -0.540193 l 1.212673,-4.10931 z"
         style="font-style:normal;font-variant:normal;font-weight:normal;font-stretch:normal;font-family:'Oxygen Mono';-inkscape-font-specification:'Oxygen Mono';stroke-width:0.26458332"
         id="path4854"
         inkscape:connector-curvature="0" />
      <path
         d="m 103.14927,83.451653 z m 2.85254,-4.10931 v 0.402387 h -1.16858 v 3.706923 h -0.51539 V 79.74473 h -1.16857 v -0.402387 z m -1.95406,-1.309137 0.51814,0.647678 0.52365,-0.647678 h 0.47129 l -0.7524,0.959115 h -0.45476 l -0.74965,-0.959115 z"
         style="font-style:normal;font-variant:normal;font-weight:normal;font-stretch:normal;font-family:'Oxygen Mono';-inkscape-font-specification:'Oxygen Mono';stroke-width:0.26458332"
         id="path4856"
         inkscape:connector-curvature="0" />
      <path
         d="m 73.353324,87.47463 v 3.389974 h -0.51263 v -4.10931 h 0.702799 l 0.587045,1.898936 0.587044,-1.898936 h 0.686263 v 4.10931 h -0.49885 V 87.47463 l -0.487825,1.609548 h -0.57602 z"
         style="font-style:normal;font-variant:normal;font-weight:normal;font-stretch:normal;font-family:'Oxygen Mono';-inkscape-font-specification:'Oxygen Mono';stroke-width:0.26458332"
         id="path4858"
         inkscape:connector-curvature="0" />
      <path
         d="m 76.349179,87.157681 v -0.402387 h 2.31786 v 0.402387 h -0.912261 v 3.304535 h 0.912261 v 0.402388 h -2.31786 v -0.402388 h 0.890213 v -3.304535 z"
         style="font-style:normal;font-variant:normal;font-weight:normal;font-stretch:normal;font-family:'Oxygen Mono';-inkscape-font-specification:'Oxygen Mono';stroke-width:0.26458332"
         id="path4860"
         inkscape:connector-curvature="0" />
      <path
         d="m 83.677586,90.462216 h 1.796962 v 0.402388 h -2.461176 v -0.394119 l 1.783181,-3.312804 h -1.686719 v -0.402387 h 2.389518 v 0.350021 z"
         style="font-style:normal;font-variant:normal;font-weight:normal;font-stretch:normal;font-family:'Oxygen Mono';-inkscape-font-specification:'Oxygen Mono';stroke-width:0.26458332"
         id="path4862"
         inkscape:connector-curvature="0" />
      <path
         d="m 87.188828,89.125519 h 0.942578 l -0.463021,-1.783181 z m 0.763433,-2.370225 1.21543,4.10931 h -0.542947 l -0.388607,-1.325673 h -1.154796 l -0.385851,1.325673 h -0.540191 l 1.212674,-4.10931 z"
         style="font-style:normal;font-variant:normal;font-weight:normal;font-stretch:normal;font-family:'Oxygen Mono';-inkscape-font-specification:'Oxygen Mono';stroke-width:0.26458332"
         id="path4864"
         inkscape:connector-curvature="0" />
      <path
         d="m 92.017474,86.755294 h 0.564996 l -1.240235,4.10931 h -0.598068 l -1.234722,-4.10931 h 0.564995 l 0.978407,3.494705 z"
         style="font-style:normal;font-variant:normal;font-weight:normal;font-stretch:normal;font-family:'Oxygen Mono';-inkscape-font-specification:'Oxygen Mono';stroke-width:0.26458332"
         id="path4866"
         inkscape:connector-curvature="0" />
      <path
         d="m 94.87828,87.339582 q -0.187413,-0.231511 -0.44924,-0.231511 -0.261828,0 -0.449241,0.231511 -0.187413,0.228754 -0.275607,0.606337 -0.0882,0.377582 -0.0882,0.862652 0,0.485069 0.0882,0.862652 0.08819,0.377582 0.275607,0.606336 0.187413,0.228755 0.449241,0.228755 0.261827,0 0.44924,-0.228755 0.187413,-0.228754 0.275608,-0.606336 0.08819,-0.377583 0.08819,-0.862652 0,-0.48507 -0.08819,-0.862652 -0.08819,-0.377583 -0.275608,-0.606337 z m 0.15434,3.423047 q -0.264583,0.170877 -0.60358,0.170877 -0.338998,0 -0.603581,-0.170877 -0.264583,-0.173633 -0.427192,-0.471289 -0.322461,-0.598069 -0.322461,-1.485525 0,-1.096919 0.432704,-1.672939 0.151584,-0.203949 0.385851,-0.325217 0.237022,-0.121267 0.534679,-0.121267 0.297656,0 0.534679,0.121267 0.429947,0.220486 0.622873,0.768945 0.195681,0.545704 0.195681,1.229211 0,0.887456 -0.322461,1.485525 -0.162608,0.297656 -0.427192,0.471289 z"
         style="font-style:normal;font-variant:normal;font-weight:normal;font-stretch:normal;font-family:'Oxygen Mono';-inkscape-font-specification:'Oxygen Mono';stroke-width:0.26458332"
         id="path4868"
         inkscape:connector-curvature="0" />
      <path
         d="m 97.471749,90.462216 h 1.5875 l -0.02756,0.402388 h -2.075326 v -4.10931 h 0.515387 z"
         style="font-style:normal;font-variant:normal;font-weight:normal;font-stretch:normal;font-family:'Oxygen Mono';-inkscape-font-specification:'Oxygen Mono';stroke-width:0.26458332"
         id="path4870"
         inkscape:connector-curvature="0" />
      <path
         d="m 99.693147,90.864604 z m 1.033533,-1.739085 h 0.94257 l -0.46302,-1.783181 z m 0.76343,-2.370225 1.21543,4.10931 h -0.54295 l -0.38861,-1.325673 h -1.15479 l -0.38585,1.325673 h -0.540193 l 1.212673,-4.10931 z m -0.48783,-0.405144 0.71934,-1.204405 h 0.63941 l -0.96738,1.204405 z"
         style="font-style:normal;font-variant:normal;font-weight:normal;font-stretch:normal;font-family:'Oxygen Mono';-inkscape-font-specification:'Oxygen Mono';stroke-width:0.26458332"
         id="path4872"
         inkscape:connector-curvature="0" />
      <path
         d="m 104.91591,90.864604 h -0.66146 v -0.760677 h 0.66146 z m -0.41617,-1.347722 -0.24529,-2.764344 h 0.66146 l -0.24529,2.764344 z"
         style="font-style:normal;font-variant:normal;font-weight:normal;font-stretch:normal;font-family:'Oxygen Mono';-inkscape-font-specification:'Oxygen Mono';stroke-width:0.26458332"
         id="path4874"
         inkscape:connector-curvature="0" />
    </g>
    <path
       inkscape:connector-curvature="0"
       id="path4828"
       d="M 85.79352,100.69054 C 81.517208,98.953286 81.918112,93.741531 81.918112,93.741531"
       style="fill:none;stroke:#000000;stroke-width:0.26458332px;stroke-linecap:butt;stroke-linejoin:miter;stroke-opacity:1" />
    <rect
       style="opacity:1;fill:none;fill-opacity:1;stroke:#000000;stroke-width:0.26458332"
       id="rect4838"
       width="5.6745329"
       height="1.6054294"
       x="91.339371"
       y="105.76864" />
  </g>
</svg>
