<?xml version="1.0" encoding="UTF-8" standalone="no"?>
<!-- Created with Inkscape (http://www.inkscape.org/) -->

<svg
   width="99.483337mm"
   height="33.602081mm"
   viewBox="0 0 99.483337 33.602081"
   version="1.1"
   id="svg3116"
   inkscape:version="1.1 (c68e22c387, 2021-05-23)"
   sodipodi:docname="cat-file-arg.svg"
   xmlns:inkscape="http://www.inkscape.org/namespaces/inkscape"
   xmlns:sodipodi="http://sodipodi.sourceforge.net/DTD/sodipodi-0.dtd"
   xmlns="http://www.w3.org/2000/svg"
   xmlns:svg="http://www.w3.org/2000/svg">
  <sodipodi:namedview
     id="namedview3118"
     pagecolor="#ffffff"
     bordercolor="#666666"
     borderopacity="1.0"
     inkscape:pageshadow="2"
     inkscape:pageopacity="0.0"
     inkscape:pagecheckerboard="0"
     inkscape:document-units="mm"
     showgrid="false"
     fit-margin-top="0"
     fit-margin-left="0"
     fit-margin-right="0"
     fit-margin-bottom="0"
     inkscape:zoom="0.71891835"
     inkscape:cx="132.14296"
     inkscape:cy="-375.56421"
     inkscape:window-width="1440"
     inkscape:window-height="2523"
     inkscape:window-x="0"
     inkscape:window-y="0"
     inkscape:window-maximized="1"
     inkscape:current-layer="layer1" />
  <defs
     id="defs3113" />
  <g
     inkscape:label="Layer 1"
     inkscape:groupmode="layer"
     id="layer1"
     transform="translate(-109.61521,29.682095)">
    <path
       id="path1437"
       style="fill:#cccccc;fill-rule:evenodd;stroke:none;stroke-width:0.529167;stroke-linecap:round;stroke-linejoin:round;stroke-miterlimit:4;stroke-dasharray:none"
       d="m 119.05692,-23.3321 h 7.49162 l 2.11667,2.11667 -2.11667,2.11666 h -7.49162 z"
       sodipodi:nodetypes="cccccc" />
    <circle
       style="fill:#cccccc;fill-rule:evenodd;stroke:none;stroke-width:0.529167;stroke-linecap:round;stroke-linejoin:round;stroke-miterlimit:4;stroke-dasharray:none"
       id="circle1439"
       cx="118.08188"
       cy="-21.215427"
       r="8.4666662" />
    <g
       id="g1567"
       transform="translate(128.66521,-35.769955)">
      <rect
         style="fill:#000000;fill-rule:evenodd;stroke-width:0.264583;stroke-linecap:round;stroke-linejoin:round"
         id="rect1441"
         width="12.700002"
         height="4.7576265"
         x="-16.933334"
         y="12.175707"
         rx="0.26458246"
         ry="0.26458395" />
      <rect
         style="fill:#ffffff;fill-rule:evenodd;stroke-width:0.264583;stroke-linecap:round;stroke-linejoin:round"
         id="rect1443"
         width="0.79375082"
         height="0.52916634"
         x="-16.404167"
         y="15.879875" />
      <rect
         style="fill:#ffffff;fill-rule:evenodd;stroke-width:0.264582;stroke-linecap:round;stroke-linejoin:round"
         id="rect1445"
         width="0.52916741"
         height="0.529167"
         x="-16.404167"
         y="15.086124" />
      <rect
         style="fill:#ffffff;fill-rule:evenodd;stroke-width:0.264584;stroke-linecap:round;stroke-linejoin:round"
         id="rect1447"
         width="0.79375166"
         height="0.52916574"
         x="-16.404167"
         y="13.498623" />
      <rect
         style="fill:#ffffff;fill-rule:evenodd;stroke-width:0.264582;stroke-linecap:round;stroke-linejoin:round"
         id="rect1449"
         width="1.0583334"
         height="0.51828963"
         x="-16.404167"
         y="14.303251" />
      <rect
         style="fill:#ffffff;fill-rule:evenodd;stroke-width:0.264583;stroke-linecap:round;stroke-linejoin:round"
         id="rect1451"
         width="0.52916664"
         height="0.51868218"
         x="-16.404167"
         y="12.704874" />
      <rect
         style="fill:#ffffff;fill-rule:evenodd;stroke-width:0.264583;stroke-linecap:round;stroke-linejoin:round"
         id="rect1453"
         width="0.52916664"
         height="0.51868218"
         x="-15.610417"
         y="12.715359" />
      <rect
         style="fill:#ffffff;fill-rule:evenodd;stroke-width:0.264583;stroke-linecap:round;stroke-linejoin:round"
         id="rect1455"
         width="0.52916664"
         height="0.51868218"
         x="-14.816667"
         y="12.715359" />
      <rect
         style="fill:#ffffff;fill-rule:evenodd;stroke-width:0.264583;stroke-linecap:round;stroke-linejoin:round"
         id="rect1457"
         width="0.52916664"
         height="0.51868218"
         x="-14.022917"
         y="12.715359" />
      <rect
         style="fill:#ffffff;fill-rule:evenodd;stroke-width:0.264583;stroke-linecap:round;stroke-linejoin:round"
         id="rect1459"
         width="0.52916664"
         height="0.51868218"
         x="-13.229167"
         y="12.704874" />
      <rect
         style="fill:#ffffff;fill-rule:evenodd;stroke-width:0.264583;stroke-linecap:round;stroke-linejoin:round"
         id="rect1461"
         width="0.52916664"
         height="0.51868218"
         x="-12.435416"
         y="12.704874" />
      <rect
         style="fill:#ffffff;fill-rule:evenodd;stroke-width:0.264583;stroke-linecap:round;stroke-linejoin:round"
         id="rect1463"
         width="0.52916664"
         height="0.52916652"
         x="-11.641667"
         y="12.704876" />
      <rect
         style="fill:#ffffff;fill-rule:evenodd;stroke-width:0.264583;stroke-linecap:round;stroke-linejoin:round"
         id="rect1465"
         width="0.52916664"
         height="0.52916652"
         x="-10.847917"
         y="12.704876" />
      <rect
         style="fill:#ffffff;fill-rule:evenodd;stroke-width:0.264583;stroke-linecap:round;stroke-linejoin:round"
         id="rect1467"
         width="0.52916664"
         height="0.51868218"
         x="-10.054166"
         y="12.704874" />
      <rect
         style="fill:#ffffff;fill-rule:evenodd;stroke-width:0.264583;stroke-linecap:round;stroke-linejoin:round"
         id="rect1469"
         width="0.52916664"
         height="0.52916652"
         x="-9.260417"
         y="12.704876" />
      <rect
         style="fill:#ffffff;fill-rule:evenodd;stroke-width:0.264583;stroke-linecap:round;stroke-linejoin:round"
         id="rect1471"
         width="0.52916664"
         height="0.51868218"
         x="-8.4666681"
         y="12.704874" />
      <rect
         style="fill:#ffffff;fill-rule:evenodd;stroke-width:0.264583;stroke-linecap:round;stroke-linejoin:round"
         id="rect1473"
         width="0.52916664"
         height="0.52916652"
         x="-7.6729169"
         y="12.704876" />
      <rect
         style="fill:#ffffff;fill-rule:evenodd;stroke-width:0.264583;stroke-linecap:round;stroke-linejoin:round"
         id="rect1475"
         width="0.52916664"
         height="0.52916652"
         x="-6.8791661"
         y="12.704876" />
      <rect
         style="fill:#ffffff;fill-rule:evenodd;stroke-width:0.264584;stroke-linecap:round;stroke-linejoin:round"
         id="rect1477"
         width="1.3229179"
         height="0.52916652"
         x="-6.0854173"
         y="12.704876" />
      <rect
         style="fill:#ffffff;fill-rule:evenodd;stroke-width:0.264583;stroke-linecap:round;stroke-linejoin:round"
         id="rect1479"
         width="0.52916664"
         height="0.51868218"
         x="-15.345833"
         y="13.509109" />
      <rect
         style="fill:#ffffff;fill-rule:evenodd;stroke-width:0.264583;stroke-linecap:round;stroke-linejoin:round"
         id="rect1481"
         width="0.52916664"
         height="0.51868218"
         x="-14.552081"
         y="13.509109" />
      <rect
         style="fill:#ffffff;fill-rule:evenodd;stroke-width:0.264583;stroke-linecap:round;stroke-linejoin:round"
         id="rect1483"
         width="0.52916664"
         height="0.51868218"
         x="-13.758332"
         y="13.509109" />
      <rect
         style="fill:#ffffff;fill-rule:evenodd;stroke-width:0.264583;stroke-linecap:round;stroke-linejoin:round"
         id="rect1485"
         width="0.52916664"
         height="0.51868218"
         x="-12.964582"
         y="13.498625" />
      <rect
         style="fill:#ffffff;fill-rule:evenodd;stroke-width:0.264583;stroke-linecap:round;stroke-linejoin:round"
         id="rect1487"
         width="0.52916664"
         height="0.51868218"
         x="-12.170831"
         y="13.498625" />
      <rect
         style="fill:#ffffff;fill-rule:evenodd;stroke-width:0.264583;stroke-linecap:round;stroke-linejoin:round"
         id="rect1489"
         width="0.52916664"
         height="0.52916723"
         x="-11.377084"
         y="13.498623" />
      <rect
         style="fill:#ffffff;fill-rule:evenodd;stroke-width:0.264583;stroke-linecap:round;stroke-linejoin:round"
         id="rect1491"
         width="0.52916664"
         height="0.52916723"
         x="-10.583331"
         y="13.498623" />
      <rect
         style="fill:#ffffff;fill-rule:evenodd;stroke-width:0.264583;stroke-linecap:round;stroke-linejoin:round"
         id="rect1493"
         width="0.52916664"
         height="0.51868218"
         x="-9.7895823"
         y="13.498625" />
      <rect
         style="fill:#ffffff;fill-rule:evenodd;stroke-width:0.264583;stroke-linecap:round;stroke-linejoin:round"
         id="rect1495"
         width="0.52916664"
         height="0.52916723"
         x="-8.9958334"
         y="13.498623" />
      <rect
         style="fill:#ffffff;fill-rule:evenodd;stroke-width:0.264583;stroke-linecap:round;stroke-linejoin:round"
         id="rect1497"
         width="0.52916664"
         height="0.52916598"
         x="-8.2020845"
         y="13.498625" />
      <rect
         style="fill:#ffffff;fill-rule:evenodd;stroke-width:0.264583;stroke-linecap:round;stroke-linejoin:round"
         id="rect1499"
         width="0.52916664"
         height="0.52916723"
         x="-7.4083333"
         y="13.498623" />
      <rect
         style="fill:#ffffff;fill-rule:evenodd;stroke-width:0.264583;stroke-linecap:round;stroke-linejoin:round"
         id="rect1501"
         width="0.52916664"
         height="0.52916723"
         x="-6.6145825"
         y="13.498623" />
      <rect
         style="fill:#ffffff;fill-rule:evenodd;stroke-width:0.264583;stroke-linecap:round;stroke-linejoin:round"
         id="rect1503"
         width="0.52916664"
         height="0.51868218"
         x="-15.08125"
         y="14.302858" />
      <rect
         style="fill:#ffffff;fill-rule:evenodd;stroke-width:0.264583;stroke-linecap:round;stroke-linejoin:round"
         id="rect1505"
         width="0.52916664"
         height="0.51868218"
         x="-14.287499"
         y="14.302858" />
      <rect
         style="fill:#ffffff;fill-rule:evenodd;stroke-width:0.264583;stroke-linecap:round;stroke-linejoin:round"
         id="rect1507"
         width="0.52916664"
         height="0.51868218"
         x="-13.49375"
         y="14.302858" />
      <rect
         style="fill:#ffffff;fill-rule:evenodd;stroke-width:0.264583;stroke-linecap:round;stroke-linejoin:round"
         id="rect1509"
         width="0.52916664"
         height="0.51868218"
         x="-12.7"
         y="14.292375" />
      <rect
         style="fill:#ffffff;fill-rule:evenodd;stroke-width:0.264583;stroke-linecap:round;stroke-linejoin:round"
         id="rect1511"
         width="0.52916664"
         height="0.51868218"
         x="-11.906249"
         y="14.292375" />
      <rect
         style="fill:#ffffff;fill-rule:evenodd;stroke-width:0.264583;stroke-linecap:round;stroke-linejoin:round"
         id="rect1513"
         width="0.52916664"
         height="0.5291661"
         x="-11.1125"
         y="14.292375" />
      <rect
         style="fill:#ffffff;fill-rule:evenodd;stroke-width:0.264583;stroke-linecap:round;stroke-linejoin:round"
         id="rect1515"
         width="0.52916664"
         height="0.5291661"
         x="-10.318749"
         y="14.292375" />
      <rect
         style="fill:#ffffff;fill-rule:evenodd;stroke-width:0.264583;stroke-linecap:round;stroke-linejoin:round"
         id="rect1517"
         width="0.52916664"
         height="0.51868218"
         x="-9.5249987"
         y="14.292375" />
      <rect
         style="fill:#ffffff;fill-rule:evenodd;stroke-width:0.264583;stroke-linecap:round;stroke-linejoin:round"
         id="rect1519"
         width="0.52916664"
         height="0.5291661"
         x="-8.7312498"
         y="14.292375" />
      <rect
         style="fill:#ffffff;fill-rule:evenodd;stroke-width:0.264583;stroke-linecap:round;stroke-linejoin:round"
         id="rect1521"
         width="0.52916664"
         height="0.51868141"
         x="-7.937501"
         y="14.292375" />
      <rect
         style="fill:#ffffff;fill-rule:evenodd;stroke-width:0.264583;stroke-linecap:round;stroke-linejoin:round"
         id="rect1523"
         width="0.52916664"
         height="0.52916533"
         x="-7.1437497"
         y="14.292375" />
      <rect
         style="fill:#ffffff;fill-rule:evenodd;stroke-width:0.264583;stroke-linecap:round;stroke-linejoin:round"
         id="rect1525"
         width="0.52916664"
         height="0.52916533"
         x="-6.3500009"
         y="14.292375" />
      <rect
         style="fill:#ffffff;fill-rule:evenodd;stroke-width:0.264583;stroke-linecap:round;stroke-linejoin:round"
         id="rect1527"
         width="0.52916664"
         height="0.52916688"
         x="-14.816667"
         y="15.086124" />
      <rect
         style="fill:#ffffff;fill-rule:evenodd;stroke-width:0.264583;stroke-linecap:round;stroke-linejoin:round"
         id="rect1529"
         width="0.52916664"
         height="0.52916855"
         x="-14.022916"
         y="15.086124" />
      <rect
         style="fill:#ffffff;fill-rule:evenodd;stroke-width:0.264583;stroke-linecap:round;stroke-linejoin:round"
         id="rect1531"
         width="0.52916664"
         height="0.52916688"
         x="-13.229166"
         y="15.086124" />
      <rect
         style="fill:#ffffff;fill-rule:evenodd;stroke-width:0.264583;stroke-linecap:round;stroke-linejoin:round"
         id="rect1533"
         width="0.52916664"
         height="0.51868218"
         x="-12.435416"
         y="15.086124" />
      <rect
         style="fill:#ffffff;fill-rule:evenodd;stroke-width:0.264583;stroke-linecap:round;stroke-linejoin:round"
         id="rect1535"
         width="0.52916664"
         height="0.51868218"
         x="-11.641665"
         y="15.086124" />
      <rect
         style="fill:#ffffff;fill-rule:evenodd;stroke-width:0.264583;stroke-linecap:round;stroke-linejoin:round"
         id="rect1537"
         width="0.52916664"
         height="0.52916688"
         x="-10.847917"
         y="15.086124" />
      <rect
         style="fill:#ffffff;fill-rule:evenodd;stroke-width:0.264583;stroke-linecap:round;stroke-linejoin:round"
         id="rect1539"
         width="0.52916664"
         height="0.52916688"
         x="-10.054166"
         y="15.086124" />
      <rect
         style="fill:#ffffff;fill-rule:evenodd;stroke-width:0.264583;stroke-linecap:round;stroke-linejoin:round"
         id="rect1541"
         width="0.52916664"
         height="0.51868218"
         x="-9.2604151"
         y="15.086124" />
      <rect
         style="fill:#ffffff;fill-rule:evenodd;stroke-width:0.264583;stroke-linecap:round;stroke-linejoin:round"
         id="rect1543"
         width="0.52916664"
         height="0.52916688"
         x="-8.4666662"
         y="15.086124" />
      <rect
         style="fill:#ffffff;fill-rule:evenodd;stroke-width:0.264583;stroke-linecap:round;stroke-linejoin:round"
         id="rect1545"
         width="0.52916664"
         height="0.51868218"
         x="-7.6729169"
         y="15.086124" />
      <rect
         style="fill:#ffffff;fill-rule:evenodd;stroke-width:0.264583;stroke-linecap:round;stroke-linejoin:round"
         id="rect1547"
         width="0.52916664"
         height="0.52916688"
         x="-15.610417"
         y="15.086124" />
      <rect
         style="fill:#ffffff;fill-rule:evenodd;stroke-width:0.264583;stroke-linecap:round;stroke-linejoin:round"
         id="rect1549"
         width="0.79374981"
         height="0.52916825"
         x="-14.552081"
         y="15.879871" />
      <rect
         style="fill:#ffffff;fill-rule:evenodd;stroke-width:0.264584;stroke-linecap:round;stroke-linejoin:round"
         id="rect1551"
         width="2.1166651"
         height="0.52916688"
         x="-6.8791642"
         y="15.086124" />
      <rect
         style="fill:#ffffff;fill-rule:evenodd;stroke-width:0.264583;stroke-linecap:round;stroke-linejoin:round"
         id="rect1553"
         width="0.79374945"
         height="1.3229165"
         x="-5.5562501"
         y="13.498625" />
      <rect
         style="fill:#ffffff;fill-rule:evenodd;stroke-width:0.264583;stroke-linecap:round;stroke-linejoin:round"
         id="rect1555"
         width="0.52916664"
         height="0.52916723"
         x="-5.8208337"
         y="13.498623" />
      <rect
         style="fill:#ffffff;fill-rule:evenodd;stroke-width:0.264583;stroke-linecap:round;stroke-linejoin:round"
         id="rect1557"
         width="0.79375082"
         height="0.52916747"
         x="-7.4083333"
         y="15.879873" />
      <rect
         style="fill:#ffffff;fill-rule:evenodd;stroke-width:0.264583;stroke-linecap:round;stroke-linejoin:round"
         id="rect1559"
         width="0.79374981"
         height="0.5291701"
         x="-5.5562482"
         y="15.879873" />
      <rect
         style="fill:#ffffff;fill-rule:evenodd;stroke-width:0.264584;stroke-linecap:round;stroke-linejoin:round"
         id="rect1561"
         width="5.8208337"
         height="0.52916574"
         x="-13.493751"
         y="15.879875" />
      <rect
         style="fill:#ffffff;fill-rule:evenodd;stroke-width:0.264583;stroke-linecap:round;stroke-linejoin:round"
         id="rect1563"
         width="0.52916664"
         height="0.51868218"
         x="-6.3500009"
         y="15.890358" />
      <rect
         style="fill:#ffffff;fill-rule:evenodd;stroke-width:0.264583;stroke-linecap:round;stroke-linejoin:round"
         id="rect1565"
         width="0.52916664"
         height="0.52916688"
         x="-15.345833"
         y="15.879873" />
    </g>
    <rect
       style="fill:#ff0000;fill-rule:evenodd;stroke:none;stroke-width:0.264583;stroke-linecap:round;stroke-linejoin:round"
       id="rect1569"
       width="52.916668"
       height="8.4666662"
       x="132.89854"
       y="-25.448757"
       ry="2.1166666"
       rx="2.1166649" />
    <g
       aria-label="cat soubor.txt"
       id="text1573"
       style="font-size:5.64444px;line-height:1.25;font-family:'Roboto Mono';-inkscape-font-specification:'Roboto Mono';text-align:center;letter-spacing:0px;word-spacing:0px;text-anchor:middle;fill:#ffffff;stroke-width:0.264583">
      <path
         d="m 138.41071,-19.341302 q -0.28938,0.26734 -0.82406,0.26734 -0.34176,0 -0.62288,-0.129536 -0.28111,-0.132291 -0.46026,-0.352777 -0.37758,-0.463021 -0.37758,-1.11621 0,-0.42168 0.17087,-0.779969 0.17364,-0.35829 0.50988,-0.581532 0.33624,-0.223242 0.82958,-0.223242 0.49333,0 0.76619,0.261827 l -0.12678,0.336241 q -0.31695,-0.212218 -0.71658,-0.212218 -0.39963,0 -0.66422,0.341753 -0.26182,0.341754 -0.26182,0.87092 0,0.52641 0.26182,0.862651 0.26459,0.336241 0.67248,0.336241 0.41066,0 0.7221,-0.220486 z"
         style="font-family:'Oxygen Mono';-inkscape-font-specification:'Oxygen Mono'"
         id="path3860" />
      <path
         d="m 141.37625,-19.818102 v -0.771701 l -0.41066,0.05788 q -0.42994,0.06063 -0.59531,0.121268 -0.36931,0.140559 -0.36931,0.471288 0,0.228754 0.13229,0.363802 0.13229,0.135048 0.3638,0.135048 0.50988,0 0.87919,-0.377582 z m 0,-1.408354 q 0,-0.647678 -0.54846,-0.647678 -0.25907,0 -0.57326,0.06063 -0.31144,0.06063 -0.43822,0.115755 l -0.11851,-0.369314 q 0.57051,-0.190169 1.07211,-0.190169 0.50161,0 0.80478,0.228754 0.30317,0.228754 0.30317,0.705555 v 2.180055 h -0.41617 l -0.0661,-0.350022 q -0.17639,0.179145 -0.45475,0.300412 -0.27561,0.118512 -0.54019,0.118512 -0.3831,0 -0.63665,-0.228755 -0.25356,-0.23151 -0.25356,-0.650433 0,-0.421679 0.33073,-0.617361 0.22324,-0.137803 0.47404,-0.187413 0.25356,-0.05237 0.6587,-0.101975 l 0.40239,-0.04685 z"
         style="font-family:'Oxygen Mono';-inkscape-font-specification:'Oxygen Mono'"
         id="path3862" />
      <path
         d="m 144.03035,-21.780427 v 1.419378 q 0,0.264583 0.0276,0.418923 0.0303,0.15434 0.11576,0.250803 0.0882,0.09646 0.22599,0.129535 0.13781,0.03307 0.37483,0.03307 h 0.55397 l -0.0276,0.385851 h -0.50712 q -0.77997,0 -1.03904,-0.286632 -0.16812,-0.187413 -0.2067,-0.60358 -0.0193,-0.184657 -0.0193,-0.454752 v -1.292599 h -0.85438 l 0.0551,-0.385851 h 0.79926 v -1.041796 l 0.50161,-0.148828 v 1.190624 h 1.27331 v 0.385851 z"
         style="font-family:'Oxygen Mono';-inkscape-font-specification:'Oxygen Mono'"
         id="path3864" />
      <path
         d="m 151.25953,-20.859899 q 0.39136,0.09646 0.57051,0.305925 0.1819,0.209461 0.1819,0.606336 0,0.394119 -0.30317,0.633897 -0.30041,0.239779 -0.75516,0.239779 -0.32522,0 -0.63114,-0.07993 -0.30593,-0.08268 -0.452,-0.192925 l 0.12402,-0.361045 q 0.11576,0.07166 0.36656,0.146071 0.2508,0.07166 0.54295,0.07166 0.2949,0 0.46853,-0.121267 0.17639,-0.124023 0.17639,-0.327973 0,-0.203949 -0.0882,-0.319704 -0.0854,-0.118512 -0.33349,-0.179145 l -0.51263,-0.124023 q -0.44373,-0.110243 -0.5898,-0.319705 -0.14607,-0.212218 -0.14607,-0.52641 0,-0.314193 0.25356,-0.578776 0.25631,-0.264583 0.74414,-0.270095 h 0.0358 q 0.54846,0 0.93431,0.206705 l -0.11025,0.352778 q -0.40238,-0.170877 -0.81579,-0.170877 -0.25632,0.0028 -0.42168,0.129536 -0.16261,0.124023 -0.16261,0.314192 0,0.190169 0.0827,0.286632 0.0827,0.09371 0.31419,0.148828 z"
         style="font-family:'Oxygen Mono';-inkscape-font-specification:'Oxygen Mono'"
         id="path3866" />
      <path
         d="m 154.27192,-19.459813 q 0.52641,0 0.71658,-0.523654 0.10198,-0.281119 0.10198,-0.576019 0,-0.297656 -0.0221,-0.463021 -0.0496,-0.374826 -0.23978,-0.611848 -0.18741,-0.237023 -0.55673,-0.237023 -0.51263,0 -0.70004,0.534679 -0.0992,0.286631 -0.0992,0.600824 0,0.556727 0.17363,0.917773 0.17364,0.358289 0.62563,0.358289 z m 0.99219,-2.356443 q 0.32797,0.440972 0.32797,1.152039 0,0.711067 -0.35553,1.152039 -0.35554,0.438216 -0.96463,0.438216 -0.32522,0 -0.57877,-0.124024 -0.25356,-0.124023 -0.41066,-0.341753 -0.31695,-0.438216 -0.31695,-1.141015 0,-0.702799 0.35002,-1.138258 0.35003,-0.438216 0.98392,-0.438216 0.63666,0 0.96463,0.440972 z"
         style="font-family:'Oxygen Mono';-inkscape-font-specification:'Oxygen Mono'"
         id="path3868" />
      <path
         d="m 158.83598,-20.124027 q 0,1.050065 -1.16858,1.050065 -1.16857,0 -1.16857,-1.050065 v -2.042251 h 0.5016 v 2.086349 q 0,0.32246 0.15986,0.471288 0.15985,0.148828 0.50711,0.148828 0.34727,0 0.50712,-0.148828 0.15985,-0.148828 0.15985,-0.471288 v -2.086349 h 0.50161 z"
         style="font-family:'Oxygen Mono';-inkscape-font-specification:'Oxygen Mono'"
         id="path3870" />
      <path
         d="m 160.35182,-20.294903 q 0.0496,0.38585 0.23151,0.609092 0.18466,0.223242 0.56224,0.223242 0.50988,0 0.68902,-0.529166 0.091,-0.278364 0.091,-0.578776 0,-0.303168 -0.0193,-0.465776 -0.0413,-0.385851 -0.21773,-0.609093 -0.17363,-0.225998 -0.54295,-0.225998 -0.61736,0 -0.75516,0.595312 -0.0579,0.248047 -0.0579,0.531923 0,0.281119 0.0193,0.44924 z m -0.0193,-1.455208 q 0.30592,-0.507117 0.91502,-0.507117 0.61184,0 0.89572,0.440972 0.28663,0.440972 0.28663,1.107942 0,0.873675 -0.41341,1.314647 -0.29765,0.319705 -0.81028,0.319705 -0.339,0 -0.51815,-0.124024 -0.17639,-0.126779 -0.35553,-0.358289 l -0.006,0.413411 h -0.4961 v -4.258135 l 0.50161,-0.05512 z"
         style="font-family:'Oxygen Mono';-inkscape-font-specification:'Oxygen Mono'"
         id="path3872" />
      <path
         d="m 164.43357,-19.459813 q 0.52641,0 0.71658,-0.523654 0.10197,-0.281119 0.10197,-0.576019 0,-0.297656 -0.022,-0.463021 -0.0496,-0.374826 -0.23978,-0.611848 -0.18741,-0.237023 -0.55672,-0.237023 -0.51263,0 -0.70005,0.534679 -0.0992,0.286631 -0.0992,0.600824 0,0.556727 0.17363,0.917773 0.17363,0.358289 0.62563,0.358289 z m 0.99218,-2.356443 q 0.32798,0.440972 0.32798,1.152039 0,0.711067 -0.35554,1.152039 -0.35553,0.438216 -0.96462,0.438216 -0.32522,0 -0.57878,-0.124024 -0.25356,-0.124023 -0.41065,-0.341753 -0.31695,-0.438216 -0.31695,-1.141015 0,-0.702799 0.35002,-1.138258 0.35002,-0.438216 0.98392,-0.438216 0.63665,0 0.96462,0.440972 z"
         style="font-family:'Oxygen Mono';-inkscape-font-specification:'Oxygen Mono'"
         id="path3874" />
      <path
         d="m 167.63061,-19.142864 h -0.5016 v -3.023414 h 0.41065 l 0.0413,0.559483 q 0.18466,-0.319704 0.48507,-0.485069 0.30042,-0.165364 0.68075,-0.165364 h 0.24254 v 0.465776 h -0.31419 q -0.48232,0 -0.76344,0.242535 -0.28112,0.239778 -0.28112,0.724847 z"
         style="font-family:'Oxygen Mono';-inkscape-font-specification:'Oxygen Mono'"
         id="path3876" />
      <path
         d="m 171.62692,-19.142864 h -0.82958 v -0.829579 h 0.82958 z"
         style="font-family:'Oxygen Mono';-inkscape-font-specification:'Oxygen Mono'"
         id="path3878" />
      <path
         d="m 174.51529,-21.780427 v 1.419378 q 0,0.264583 0.0276,0.418923 0.0303,0.15434 0.11575,0.250803 0.0882,0.09646 0.226,0.129535 0.13781,0.03307 0.37483,0.03307 h 0.55397 l -0.0276,0.385851 h -0.50712 q -0.77997,0 -1.03904,-0.286632 -0.16812,-0.187413 -0.20671,-0.60358 -0.0193,-0.184657 -0.0193,-0.454752 v -1.292599 h -0.85438 l 0.0551,-0.385851 h 0.79926 v -1.041796 l 0.50161,-0.148828 v 1.190624 h 1.2733 v 0.385851 z"
         style="font-family:'Oxygen Mono';-inkscape-font-specification:'Oxygen Mono'"
         id="path3880" />
      <path
         d="m 176.73117,-22.166278 h 0.57326 l 0.71934,1.163064 0.71933,-1.163064 h 0.5209 l -0.92879,1.466232 0.96187,1.557182 h -0.55673 l -0.73863,-1.204405 -0.76894,1.204405 h -0.55122 l 0.99219,-1.543402 z"
         style="font-family:'Oxygen Mono';-inkscape-font-specification:'Oxygen Mono'"
         id="path3882" />
      <path
         d="m 181.28972,-21.780427 v 1.419378 q 0,0.264583 0.0276,0.418923 0.0303,0.15434 0.11575,0.250803 0.0882,0.09646 0.226,0.129535 0.1378,0.03307 0.37483,0.03307 h 0.55397 l -0.0276,0.385851 h -0.50712 q -0.77997,0 -1.03904,-0.286632 -0.16812,-0.187413 -0.20671,-0.60358 -0.0193,-0.184657 -0.0193,-0.454752 v -1.292599 h -0.85438 l 0.0551,-0.385851 h 0.79926 v -1.041796 l 0.50161,-0.148828 v 1.190624 h 1.2733 v 0.385851 z"
         style="font-family:'Oxygen Mono';-inkscape-font-specification:'Oxygen Mono'"
         id="path3884" />
    </g>
    <path
       style="fill:none;stroke:#ff0000;stroke-width:1.05833;stroke-linecap:round;stroke-linejoin:miter;stroke-miterlimit:4;stroke-dasharray:none;stroke-opacity:1"
       d="m 151.94854,-6.39877 h 2.11667"
       id="path1601" />
    <circle
       style="fill:#afdde9;fill-opacity:1;fill-rule:evenodd;stroke:none;stroke-width:0.529167;stroke-linecap:round;stroke-linejoin:round;stroke-miterlimit:4;stroke-dasharray:none"
       id="circle1583"
       cx="160.94438"
       cy="-4.54668"
       r="8.4666662" />
    <g
       id="g1589"
       transform="translate(199.83813,-17.24668)"
       style="fill:#ffffff;stroke-width:1;stroke-miterlimit:4;stroke-dasharray:none;paint-order:fill markers stroke">
      <path
         style="fill:#ffffff;stroke:#000000;stroke-width:0.529167;stroke-linecap:butt;stroke-linejoin:miter;stroke-miterlimit:4;stroke-dasharray:none;stroke-opacity:1;paint-order:fill markers stroke"
         d="M -42.068749,8.7312499 V 16.66875 h 6.349999 v -6.35 l -1.5875,-1.5875 z"
         id="path1585"
         sodipodi:nodetypes="cccccc" />
      <path
         style="fill:none;stroke:#000000;stroke-width:0.529167;stroke-linecap:butt;stroke-linejoin:miter;stroke-miterlimit:4;stroke-dasharray:none;stroke-opacity:1;paint-order:fill markers stroke"
         d="m -37.30625,8.73125 v 1.5875 h 1.5875"
         id="path1587"
         sodipodi:nodetypes="ccc" />
    </g>
    <path
       style="fill:none;stroke:#ff0000;stroke-width:4.23333;stroke-linecap:butt;stroke-linejoin:miter;stroke-miterlimit:4;stroke-dasharray:none;stroke-opacity:1"
       d="m 141.36521,-16.9821 c 0,8.46667 4.23333,12.7 10.58333,12.7"
       id="path1591" />
    <path
       style="fill:none;stroke:#ff0000;stroke-width:1.05833;stroke-linecap:round;stroke-linejoin:miter;stroke-miterlimit:4;stroke-dasharray:none;stroke-opacity:1"
       d="m 151.94854,-5.34043 h 2.11667"
       id="path1593" />
    <path
       style="fill:none;stroke:#ff0000;stroke-width:1.05833;stroke-linecap:round;stroke-linejoin:miter;stroke-miterlimit:4;stroke-dasharray:none;stroke-opacity:1"
       d="m 151.94854,-4.2821 h 2.11667"
       id="path1595" />
    <path
       style="fill:none;stroke:#ff0000;stroke-width:1.05833;stroke-linecap:round;stroke-linejoin:miter;stroke-miterlimit:4;stroke-dasharray:none;stroke-opacity:1"
       d="m 151.94854,-3.22376 h 2.11667"
       id="path1597" />
    <path
       style="fill:none;stroke:#ff0000;stroke-width:1.05833;stroke-linecap:round;stroke-linejoin:miter;stroke-miterlimit:4;stroke-dasharray:none;stroke-opacity:1"
       d="m 151.94854,-2.16543 h 2.11667"
       id="path1599" />
    <path
       id="path1631"
       style="fill:#b3b3b3;fill-rule:evenodd;stroke:none;stroke-width:0.529167;stroke-linecap:round;stroke-linejoin:round;stroke-miterlimit:4;stroke-dasharray:none"
       d="m 190.04855,-23.3321 h 6.51658 v 4.23333 h -6.51658 z"
       sodipodi:nodetypes="ccccc" />
    <path
       id="path1633"
       style="fill:#ff0000;fill-rule:evenodd;stroke:none;stroke-width:0.529167;stroke-linecap:round;stroke-linejoin:round;stroke-miterlimit:4;stroke-dasharray:none"
       d="m 185.02147,-23.3321 h 5.02708 l 2.11666,2.11667 -2.11666,2.11666 h -5.02708 z"
       sodipodi:nodetypes="cccccc" />
    <circle
       style="fill:#b3b3b3;fill-rule:evenodd;stroke:none;stroke-width:0.529167;stroke-linecap:round;stroke-linejoin:round;stroke-miterlimit:4;stroke-dasharray:none"
       id="circle1635"
       cx="200.63188"
       cy="-21.215427"
       r="8.4666662" />
    <rect
       style="fill:#000000;fill-rule:evenodd;stroke-width:0.264583;stroke-linecap:round;stroke-linejoin:round"
       id="rect1637"
       width="10.583334"
       height="6.3499999"
       x="195.34021"
       y="-25.184177"
       rx="0.26458246"
       ry="0.26458395" />
    <rect
       style="fill:#ffffff;fill-rule:evenodd;stroke-width:0.264583;stroke-linecap:round;stroke-linejoin:round"
       id="rect1639"
       width="9.5250015"
       height="5.291666"
       x="195.86937"
       y="-24.655018" />
    <rect
       style="fill:#000000;fill-rule:evenodd;stroke-width:0.264584;stroke-linecap:round;stroke-linejoin:round"
       id="rect1641"
       width="4.2333336"
       height="1.0583334"
       x="198.5152"
       y="-18.305019"
       rx="0.26458246"
       ry="0.26458395" />
    <rect
       style="fill:#000000;fill-rule:evenodd;stroke-width:0.264584;stroke-linecap:round;stroke-linejoin:round"
       id="rect1643"
       width="0.79374939"
       height="1.322917"
       x="200.235"
       y="-19.098774"
       rx="0.26458246"
       ry="0.26458395" />
  </g>
</svg>
