<?xml version="1.0" encoding="UTF-8" standalone="no"?>
<!-- Created with Inkscape (http://www.inkscape.org/) -->

<svg
   width="182.82709mm"
   height="42.333328mm"
   viewBox="0 0 182.82709 42.333327"
   version="1.1"
   id="svg3116"
   inkscape:version="1.1 (c68e22c387, 2021-05-23)"
   sodipodi:docname="sort-head-nopipe.svg"
   xmlns:inkscape="http://www.inkscape.org/namespaces/inkscape"
   xmlns:sodipodi="http://sodipodi.sourceforge.net/DTD/sodipodi-0.dtd"
   xmlns="http://www.w3.org/2000/svg"
   xmlns:svg="http://www.w3.org/2000/svg">
  <sodipodi:namedview
     id="namedview3118"
     pagecolor="#ffffff"
     bordercolor="#666666"
     borderopacity="1.0"
     inkscape:pageshadow="2"
     inkscape:pageopacity="0.0"
     inkscape:pagecheckerboard="0"
     inkscape:document-units="mm"
     showgrid="false"
     fit-margin-top="0"
     fit-margin-left="0"
     fit-margin-right="0"
     fit-margin-bottom="0"
     inkscape:zoom="0.71891835"
     inkscape:cx="318.53409"
     inkscape:cy="-278.8912"
     inkscape:window-width="1104"
     inkscape:window-height="1088"
     inkscape:window-x="185"
     inkscape:window-y="1260"
     inkscape:window-maximized="0"
     inkscape:current-layer="layer1" />
  <defs
     id="defs3113" />
  <g
     inkscape:label="Layer 1"
     inkscape:groupmode="layer"
     id="layer1"
     transform="translate(-60.230714,13.326672)">
    <path
       id="path1859"
       style="fill:#cccccc;fill-rule:evenodd;stroke:none;stroke-width:0.529167;stroke-linecap:round;stroke-linejoin:round;stroke-miterlimit:4;stroke-dasharray:none"
       d="m 69.672423,-6.97668 h 7.491627 l 2.116667,2.11667 -2.116667,2.11666 h -7.491627 z"
       sodipodi:nodetypes="cccccc" />
    <circle
       style="fill:#cccccc;fill-rule:evenodd;stroke:none;stroke-width:0.529167;stroke-linecap:round;stroke-linejoin:round;stroke-miterlimit:4;stroke-dasharray:none"
       id="circle1861"
       cx="68.69738"
       cy="-4.8600025"
       r="8.4666662" />
    <g
       id="g1989"
       transform="translate(79.280717,-19.41453)">
      <rect
         style="fill:#000000;fill-rule:evenodd;stroke-width:0.264583;stroke-linecap:round;stroke-linejoin:round"
         id="rect1863"
         width="12.700002"
         height="4.7576265"
         x="-16.933334"
         y="12.175707"
         rx="0.26458246"
         ry="0.26458395" />
      <rect
         style="fill:#ffffff;fill-rule:evenodd;stroke-width:0.264583;stroke-linecap:round;stroke-linejoin:round"
         id="rect1865"
         width="0.79375082"
         height="0.52916634"
         x="-16.404167"
         y="15.879875" />
      <rect
         style="fill:#ffffff;fill-rule:evenodd;stroke-width:0.264582;stroke-linecap:round;stroke-linejoin:round"
         id="rect1867"
         width="0.52916741"
         height="0.529167"
         x="-16.404167"
         y="15.086124" />
      <rect
         style="fill:#ffffff;fill-rule:evenodd;stroke-width:0.264584;stroke-linecap:round;stroke-linejoin:round"
         id="rect1869"
         width="0.79375166"
         height="0.52916574"
         x="-16.404167"
         y="13.498623" />
      <rect
         style="fill:#ffffff;fill-rule:evenodd;stroke-width:0.264582;stroke-linecap:round;stroke-linejoin:round"
         id="rect1871"
         width="1.0583334"
         height="0.51828963"
         x="-16.404167"
         y="14.303251" />
      <rect
         style="fill:#ffffff;fill-rule:evenodd;stroke-width:0.264583;stroke-linecap:round;stroke-linejoin:round"
         id="rect1873"
         width="0.52916664"
         height="0.51868218"
         x="-16.404167"
         y="12.704874" />
      <rect
         style="fill:#ffffff;fill-rule:evenodd;stroke-width:0.264583;stroke-linecap:round;stroke-linejoin:round"
         id="rect1875"
         width="0.52916664"
         height="0.51868218"
         x="-15.610417"
         y="12.715359" />
      <rect
         style="fill:#ffffff;fill-rule:evenodd;stroke-width:0.264583;stroke-linecap:round;stroke-linejoin:round"
         id="rect1877"
         width="0.52916664"
         height="0.51868218"
         x="-14.816667"
         y="12.715359" />
      <rect
         style="fill:#ffffff;fill-rule:evenodd;stroke-width:0.264583;stroke-linecap:round;stroke-linejoin:round"
         id="rect1879"
         width="0.52916664"
         height="0.51868218"
         x="-14.022917"
         y="12.715359" />
      <rect
         style="fill:#ffffff;fill-rule:evenodd;stroke-width:0.264583;stroke-linecap:round;stroke-linejoin:round"
         id="rect1881"
         width="0.52916664"
         height="0.51868218"
         x="-13.229167"
         y="12.704874" />
      <rect
         style="fill:#ffffff;fill-rule:evenodd;stroke-width:0.264583;stroke-linecap:round;stroke-linejoin:round"
         id="rect1883"
         width="0.52916664"
         height="0.51868218"
         x="-12.435416"
         y="12.704874" />
      <rect
         style="fill:#ffffff;fill-rule:evenodd;stroke-width:0.264583;stroke-linecap:round;stroke-linejoin:round"
         id="rect1885"
         width="0.52916664"
         height="0.52916652"
         x="-11.641667"
         y="12.704876" />
      <rect
         style="fill:#ffffff;fill-rule:evenodd;stroke-width:0.264583;stroke-linecap:round;stroke-linejoin:round"
         id="rect1887"
         width="0.52916664"
         height="0.52916652"
         x="-10.847917"
         y="12.704876" />
      <rect
         style="fill:#ffffff;fill-rule:evenodd;stroke-width:0.264583;stroke-linecap:round;stroke-linejoin:round"
         id="rect1889"
         width="0.52916664"
         height="0.51868218"
         x="-10.054166"
         y="12.704874" />
      <rect
         style="fill:#ffffff;fill-rule:evenodd;stroke-width:0.264583;stroke-linecap:round;stroke-linejoin:round"
         id="rect1891"
         width="0.52916664"
         height="0.52916652"
         x="-9.260417"
         y="12.704876" />
      <rect
         style="fill:#ffffff;fill-rule:evenodd;stroke-width:0.264583;stroke-linecap:round;stroke-linejoin:round"
         id="rect1893"
         width="0.52916664"
         height="0.51868218"
         x="-8.4666681"
         y="12.704874" />
      <rect
         style="fill:#ffffff;fill-rule:evenodd;stroke-width:0.264583;stroke-linecap:round;stroke-linejoin:round"
         id="rect1895"
         width="0.52916664"
         height="0.52916652"
         x="-7.6729169"
         y="12.704876" />
      <rect
         style="fill:#ffffff;fill-rule:evenodd;stroke-width:0.264583;stroke-linecap:round;stroke-linejoin:round"
         id="rect1897"
         width="0.52916664"
         height="0.52916652"
         x="-6.8791661"
         y="12.704876" />
      <rect
         style="fill:#ffffff;fill-rule:evenodd;stroke-width:0.264584;stroke-linecap:round;stroke-linejoin:round"
         id="rect1899"
         width="1.3229179"
         height="0.52916652"
         x="-6.0854173"
         y="12.704876" />
      <rect
         style="fill:#ffffff;fill-rule:evenodd;stroke-width:0.264583;stroke-linecap:round;stroke-linejoin:round"
         id="rect1901"
         width="0.52916664"
         height="0.51868218"
         x="-15.345833"
         y="13.509109" />
      <rect
         style="fill:#ffffff;fill-rule:evenodd;stroke-width:0.264583;stroke-linecap:round;stroke-linejoin:round"
         id="rect1903"
         width="0.52916664"
         height="0.51868218"
         x="-14.552081"
         y="13.509109" />
      <rect
         style="fill:#ffffff;fill-rule:evenodd;stroke-width:0.264583;stroke-linecap:round;stroke-linejoin:round"
         id="rect1905"
         width="0.52916664"
         height="0.51868218"
         x="-13.758332"
         y="13.509109" />
      <rect
         style="fill:#ffffff;fill-rule:evenodd;stroke-width:0.264583;stroke-linecap:round;stroke-linejoin:round"
         id="rect1907"
         width="0.52916664"
         height="0.51868218"
         x="-12.964582"
         y="13.498625" />
      <rect
         style="fill:#ffffff;fill-rule:evenodd;stroke-width:0.264583;stroke-linecap:round;stroke-linejoin:round"
         id="rect1909"
         width="0.52916664"
         height="0.51868218"
         x="-12.170831"
         y="13.498625" />
      <rect
         style="fill:#ffffff;fill-rule:evenodd;stroke-width:0.264583;stroke-linecap:round;stroke-linejoin:round"
         id="rect1911"
         width="0.52916664"
         height="0.52916723"
         x="-11.377084"
         y="13.498623" />
      <rect
         style="fill:#ffffff;fill-rule:evenodd;stroke-width:0.264583;stroke-linecap:round;stroke-linejoin:round"
         id="rect1913"
         width="0.52916664"
         height="0.52916723"
         x="-10.583331"
         y="13.498623" />
      <rect
         style="fill:#ffffff;fill-rule:evenodd;stroke-width:0.264583;stroke-linecap:round;stroke-linejoin:round"
         id="rect1915"
         width="0.52916664"
         height="0.51868218"
         x="-9.7895823"
         y="13.498625" />
      <rect
         style="fill:#ffffff;fill-rule:evenodd;stroke-width:0.264583;stroke-linecap:round;stroke-linejoin:round"
         id="rect1917"
         width="0.52916664"
         height="0.52916723"
         x="-8.9958334"
         y="13.498623" />
      <rect
         style="fill:#ffffff;fill-rule:evenodd;stroke-width:0.264583;stroke-linecap:round;stroke-linejoin:round"
         id="rect1919"
         width="0.52916664"
         height="0.52916598"
         x="-8.2020845"
         y="13.498625" />
      <rect
         style="fill:#ffffff;fill-rule:evenodd;stroke-width:0.264583;stroke-linecap:round;stroke-linejoin:round"
         id="rect1921"
         width="0.52916664"
         height="0.52916723"
         x="-7.4083333"
         y="13.498623" />
      <rect
         style="fill:#ffffff;fill-rule:evenodd;stroke-width:0.264583;stroke-linecap:round;stroke-linejoin:round"
         id="rect1923"
         width="0.52916664"
         height="0.52916723"
         x="-6.6145825"
         y="13.498623" />
      <rect
         style="fill:#ffffff;fill-rule:evenodd;stroke-width:0.264583;stroke-linecap:round;stroke-linejoin:round"
         id="rect1925"
         width="0.52916664"
         height="0.51868218"
         x="-15.08125"
         y="14.302858" />
      <rect
         style="fill:#ffffff;fill-rule:evenodd;stroke-width:0.264583;stroke-linecap:round;stroke-linejoin:round"
         id="rect1927"
         width="0.52916664"
         height="0.51868218"
         x="-14.287499"
         y="14.302858" />
      <rect
         style="fill:#ffffff;fill-rule:evenodd;stroke-width:0.264583;stroke-linecap:round;stroke-linejoin:round"
         id="rect1929"
         width="0.52916664"
         height="0.51868218"
         x="-13.49375"
         y="14.302858" />
      <rect
         style="fill:#ffffff;fill-rule:evenodd;stroke-width:0.264583;stroke-linecap:round;stroke-linejoin:round"
         id="rect1931"
         width="0.52916664"
         height="0.51868218"
         x="-12.7"
         y="14.292375" />
      <rect
         style="fill:#ffffff;fill-rule:evenodd;stroke-width:0.264583;stroke-linecap:round;stroke-linejoin:round"
         id="rect1933"
         width="0.52916664"
         height="0.51868218"
         x="-11.906249"
         y="14.292375" />
      <rect
         style="fill:#ffffff;fill-rule:evenodd;stroke-width:0.264583;stroke-linecap:round;stroke-linejoin:round"
         id="rect1935"
         width="0.52916664"
         height="0.5291661"
         x="-11.1125"
         y="14.292375" />
      <rect
         style="fill:#ffffff;fill-rule:evenodd;stroke-width:0.264583;stroke-linecap:round;stroke-linejoin:round"
         id="rect1937"
         width="0.52916664"
         height="0.5291661"
         x="-10.318749"
         y="14.292375" />
      <rect
         style="fill:#ffffff;fill-rule:evenodd;stroke-width:0.264583;stroke-linecap:round;stroke-linejoin:round"
         id="rect1939"
         width="0.52916664"
         height="0.51868218"
         x="-9.5249987"
         y="14.292375" />
      <rect
         style="fill:#ffffff;fill-rule:evenodd;stroke-width:0.264583;stroke-linecap:round;stroke-linejoin:round"
         id="rect1941"
         width="0.52916664"
         height="0.5291661"
         x="-8.7312498"
         y="14.292375" />
      <rect
         style="fill:#ffffff;fill-rule:evenodd;stroke-width:0.264583;stroke-linecap:round;stroke-linejoin:round"
         id="rect1943"
         width="0.52916664"
         height="0.51868141"
         x="-7.937501"
         y="14.292375" />
      <rect
         style="fill:#ffffff;fill-rule:evenodd;stroke-width:0.264583;stroke-linecap:round;stroke-linejoin:round"
         id="rect1945"
         width="0.52916664"
         height="0.52916533"
         x="-7.1437497"
         y="14.292375" />
      <rect
         style="fill:#ffffff;fill-rule:evenodd;stroke-width:0.264583;stroke-linecap:round;stroke-linejoin:round"
         id="rect1947"
         width="0.52916664"
         height="0.52916533"
         x="-6.3500009"
         y="14.292375" />
      <rect
         style="fill:#ffffff;fill-rule:evenodd;stroke-width:0.264583;stroke-linecap:round;stroke-linejoin:round"
         id="rect1949"
         width="0.52916664"
         height="0.52916688"
         x="-14.816667"
         y="15.086124" />
      <rect
         style="fill:#ffffff;fill-rule:evenodd;stroke-width:0.264583;stroke-linecap:round;stroke-linejoin:round"
         id="rect1951"
         width="0.52916664"
         height="0.52916855"
         x="-14.022916"
         y="15.086124" />
      <rect
         style="fill:#ffffff;fill-rule:evenodd;stroke-width:0.264583;stroke-linecap:round;stroke-linejoin:round"
         id="rect1953"
         width="0.52916664"
         height="0.52916688"
         x="-13.229166"
         y="15.086124" />
      <rect
         style="fill:#ffffff;fill-rule:evenodd;stroke-width:0.264583;stroke-linecap:round;stroke-linejoin:round"
         id="rect1955"
         width="0.52916664"
         height="0.51868218"
         x="-12.435416"
         y="15.086124" />
      <rect
         style="fill:#ffffff;fill-rule:evenodd;stroke-width:0.264583;stroke-linecap:round;stroke-linejoin:round"
         id="rect1957"
         width="0.52916664"
         height="0.51868218"
         x="-11.641665"
         y="15.086124" />
      <rect
         style="fill:#ffffff;fill-rule:evenodd;stroke-width:0.264583;stroke-linecap:round;stroke-linejoin:round"
         id="rect1959"
         width="0.52916664"
         height="0.52916688"
         x="-10.847917"
         y="15.086124" />
      <rect
         style="fill:#ffffff;fill-rule:evenodd;stroke-width:0.264583;stroke-linecap:round;stroke-linejoin:round"
         id="rect1961"
         width="0.52916664"
         height="0.52916688"
         x="-10.054166"
         y="15.086124" />
      <rect
         style="fill:#ffffff;fill-rule:evenodd;stroke-width:0.264583;stroke-linecap:round;stroke-linejoin:round"
         id="rect1963"
         width="0.52916664"
         height="0.51868218"
         x="-9.2604151"
         y="15.086124" />
      <rect
         style="fill:#ffffff;fill-rule:evenodd;stroke-width:0.264583;stroke-linecap:round;stroke-linejoin:round"
         id="rect1965"
         width="0.52916664"
         height="0.52916688"
         x="-8.4666662"
         y="15.086124" />
      <rect
         style="fill:#ffffff;fill-rule:evenodd;stroke-width:0.264583;stroke-linecap:round;stroke-linejoin:round"
         id="rect1967"
         width="0.52916664"
         height="0.51868218"
         x="-7.6729169"
         y="15.086124" />
      <rect
         style="fill:#ffffff;fill-rule:evenodd;stroke-width:0.264583;stroke-linecap:round;stroke-linejoin:round"
         id="rect1969"
         width="0.52916664"
         height="0.52916688"
         x="-15.610417"
         y="15.086124" />
      <rect
         style="fill:#ffffff;fill-rule:evenodd;stroke-width:0.264583;stroke-linecap:round;stroke-linejoin:round"
         id="rect1971"
         width="0.79374981"
         height="0.52916825"
         x="-14.552081"
         y="15.879871" />
      <rect
         style="fill:#ffffff;fill-rule:evenodd;stroke-width:0.264584;stroke-linecap:round;stroke-linejoin:round"
         id="rect1973"
         width="2.1166651"
         height="0.52916688"
         x="-6.8791642"
         y="15.086124" />
      <rect
         style="fill:#ffffff;fill-rule:evenodd;stroke-width:0.264583;stroke-linecap:round;stroke-linejoin:round"
         id="rect1975"
         width="0.79374945"
         height="1.3229165"
         x="-5.5562501"
         y="13.498625" />
      <rect
         style="fill:#ffffff;fill-rule:evenodd;stroke-width:0.264583;stroke-linecap:round;stroke-linejoin:round"
         id="rect1977"
         width="0.52916664"
         height="0.52916723"
         x="-5.8208337"
         y="13.498623" />
      <rect
         style="fill:#ffffff;fill-rule:evenodd;stroke-width:0.264583;stroke-linecap:round;stroke-linejoin:round"
         id="rect1979"
         width="0.79375082"
         height="0.52916747"
         x="-7.4083333"
         y="15.879873" />
      <rect
         style="fill:#ffffff;fill-rule:evenodd;stroke-width:0.264583;stroke-linecap:round;stroke-linejoin:round"
         id="rect1981"
         width="0.79374981"
         height="0.5291701"
         x="-5.5562482"
         y="15.879873" />
      <rect
         style="fill:#ffffff;fill-rule:evenodd;stroke-width:0.264584;stroke-linecap:round;stroke-linejoin:round"
         id="rect1983"
         width="5.8208337"
         height="0.52916574"
         x="-13.493751"
         y="15.879875" />
      <rect
         style="fill:#ffffff;fill-rule:evenodd;stroke-width:0.264583;stroke-linecap:round;stroke-linejoin:round"
         id="rect1985"
         width="0.52916664"
         height="0.51868218"
         x="-6.3500009"
         y="15.890358" />
      <rect
         style="fill:#ffffff;fill-rule:evenodd;stroke-width:0.264583;stroke-linecap:round;stroke-linejoin:round"
         id="rect1987"
         width="0.52916664"
         height="0.52916688"
         x="-15.345833"
         y="15.879873" />
    </g>
    <rect
       style="fill:#ff0000;fill-rule:evenodd;stroke:none;stroke-width:0.264583;stroke-linecap:round;stroke-linejoin:round"
       id="rect1991"
       width="69.849998"
       height="8.4666662"
       x="83.514046"
       y="-9.0933399"
       ry="2.1166666"
       rx="2.1166649" />
    <g
       aria-label="sort -n delky.txt"
       id="text1995"
       style="font-size:5.64444px;line-height:1.25;font-family:'Roboto Mono';-inkscape-font-specification:'Roboto Mono';text-align:center;letter-spacing:0px;word-spacing:0px;text-anchor:middle;fill:#ffffff;stroke-width:0.264583">
      <path
         d="m 91.614177,-4.4548597 q 0.391363,0.096463 0.570507,0.3059243 0.181901,0.2094616 0.181901,0.6063363 0,0.3941186 -0.303168,0.6338971 -0.300412,0.2397785 -0.755164,0.2397785 -0.325217,0 -0.631141,-0.079926 -0.305925,-0.082682 -0.451996,-0.1929252 l 0.124023,-0.3610457 q 0.115755,0.071658 0.366558,0.1460719 0.250803,0.071658 0.542946,0.071658 0.2949,0 0.468533,-0.1212672 0.176389,-0.1240234 0.176389,-0.3279729 0,-0.2039495 -0.08819,-0.3197046 -0.08544,-0.1185112 -0.333485,-0.1791448 l -0.512629,-0.1240234 q -0.443728,-0.1102429 -0.5898,-0.3197046 -0.146072,-0.2122177 -0.146072,-0.5264102 0,-0.3141924 0.253559,-0.5787756 0.256315,-0.2645831 0.74414,-0.2700953 h 0.03583 q 0.548458,0 0.934309,0.2067056 l -0.110243,0.3527775 q -0.402387,-0.1708766 -0.815798,-0.1708766 -0.256315,0.00276 -0.42168,0.1295355 -0.162608,0.1240234 -0.162608,0.3141925 0,0.1901691 0.08268,0.2866317 0.08268,0.093707 0.314193,0.148828 z"
         style="font-family:'Oxygen Mono';-inkscape-font-specification:'Oxygen Mono'"
         id="path5915" />
      <path
         d="m 94.626566,-3.0547739 q 0.52641,0 0.71658,-0.5236542 0.101974,-0.2811195 0.101974,-0.5760195 0,-0.297656 -0.02205,-0.4630205 -0.04961,-0.3748261 -0.239779,-0.6118485 -0.187413,-0.2370224 -0.556727,-0.2370224 -0.51263,0 -0.700043,0.5346785 -0.09922,0.2866317 -0.09922,0.6008242 0,0.556727 0.173632,0.9177727 0.173633,0.3582897 0.625629,0.3582897 z m 0.992187,-2.3564436 q 0.327973,0.4409719 0.327973,1.1520391 0,0.7110672 -0.355534,1.152039 -0.355533,0.4382159 -0.964626,0.4382159 -0.325217,0 -0.578775,-0.1240234 -0.253559,-0.1240233 -0.410655,-0.3417532 -0.316949,-0.4382158 -0.316949,-1.1410148 0,-0.7027989 0.350021,-1.1382586 0.350022,-0.4382159 0.983919,-0.4382159 0.636653,0 0.964626,0.4409719 z"
         style="font-family:'Oxygen Mono';-inkscape-font-specification:'Oxygen Mono'"
         id="path5917" />
      <path
         d="m 97.823613,-2.7378254 h -0.501606 v -3.0234135 h 0.410655 l 0.04134,0.5594831 q 0.184657,-0.3197046 0.485069,-0.4850691 0.300412,-0.1653645 0.680751,-0.1653645 h 0.242534 v 0.4657766 h -0.314192 q -0.482313,0 -0.763433,0.2425345 -0.281119,0.2397785 -0.281119,0.7248476 z"
         style="font-family:'Oxygen Mono';-inkscape-font-specification:'Oxygen Mono'"
         id="path5919" />
      <path
         d="m 101.32107,-5.3753885 v 1.4193783 q 0,0.2645831 0.0276,0.4189233 0.0303,0.1543401 0.11576,0.2508027 0.0882,0.096463 0.22599,0.1295355 0.13781,0.033073 0.37483,0.033073 h 0.55397 l -0.0276,0.3858504 h -0.50712 q -0.77997,0 -1.03904,-0.2866317 -0.16812,-0.1874131 -0.2067,-0.6035803 -0.0193,-0.184657 -0.0193,-0.4547523 v -1.2925988 h -0.854388 l 0.05512,-0.3858504 h 0.79927 V -6.803035 l 0.5016,-0.148828 v 1.1906241 h 1.27331 v 0.3858504 z"
         style="font-family:'Oxygen Mono';-inkscape-font-specification:'Oxygen Mono'"
         id="path5921" />
      <path
         d="m 109.22549,-5.0170988 v 0.4271915 h -1.84657 v -0.4271915 z"
         style="font-family:'Oxygen Mono';-inkscape-font-specification:'Oxygen Mono'"
         id="path5923" />
      <path
         d="m 111.84101,-5.8521894 q 0.93982,0 0.93982,1.1906241 v 1.9237399 h -0.50161 v -1.8631062 q 0,-0.3197046 -0.0331,-0.4575084 -0.0331,-0.1378037 -0.0992,-0.2259981 -0.14056,-0.1819009 -0.46026,-0.1819009 -0.32246,0 -0.54571,0.1874131 -0.22324,0.1874131 -0.22324,0.4960934 v 2.0450071 h -0.5016 v -3.0234135 h 0.46026 l 0.0276,0.3279728 q 0.30041,-0.4189233 0.93707,-0.4189233 z"
         style="font-family:'Oxygen Mono';-inkscape-font-specification:'Oxygen Mono'"
         id="path5925" />
      <path
         d="m 119.07019,-4.2674466 q 0,-0.7055551 -0.20946,-0.9508457 -0.20946,-0.2480467 -0.59531,-0.2480467 -0.53468,0 -0.69178,0.5291663 -0.0854,0.2893878 -0.0854,0.6972868 0,1.185112 0.77722,1.185112 0.80477,0 0.80477,-1.2126727 z m 0,-1.0776251 v -1.6508885 l 0.50161,-0.055122 v 4.3132563 h -0.50161 V -3.206358 q -0.30592,0.5374345 -0.86541,0.5374345 -0.63941,0 -0.93155,-0.4575084 -0.28939,-0.4575083 -0.28939,-1.149283 0,-0.8323344 0.42444,-1.2677941 0.29765,-0.3086804 0.79926,-0.3086804 0.34175,0 0.55397,0.1405598 0.21497,0.1405598 0.30868,0.3665579 z"
         style="font-family:'Oxygen Mono';-inkscape-font-specification:'Oxygen Mono'"
         id="path5927" />
      <path
         d="m 121.16481,-2.8783852 q -0.31695,-0.2122177 -0.47129,-0.5677513 -0.15159,-0.3582896 -0.15159,-0.8075298 0,-0.4492401 0.14056,-0.8047737 0.14332,-0.3582896 0.42444,-0.5760195 0.28387,-0.2204859 0.62287,-0.2204859 0.63941,0 0.93707,0.4382158 0.29765,0.4382158 0.29765,1.077625 v 0.1681206 h -1.91547 q 0.0165,0.4657765 0.23151,0.7909933 0.21773,0.3252168 0.65043,0.3252168 0.28939,-0.027561 0.80753,-0.3141925 l 0.16537,0.3417532 q -0.35829,0.3582897 -0.97841,0.3582897 -0.44373,0 -0.76067,-0.2094617 z m 1.32016,-1.6591567 q -0.0551,-0.9287971 -0.65044,-0.9287971 -0.67248,0 -0.76894,0.9287971 z"
         style="font-family:'Oxygen Mono';-inkscape-font-specification:'Oxygen Mono'"
         id="path5929" />
      <path
         d="m 126.28835,-2.7378254 h -0.39963 q -0.53192,0 -0.76068,-0.110243 -0.13229,-0.06339 -0.20946,-0.1460719 -0.20395,-0.2122177 -0.21222,-0.9370653 v -2.7340257 h -0.90399 v -0.3858504 h 1.4056 v 3.0950715 q 0,0.5484588 0.0992,0.6724821 0.10197,0.1240233 0.25356,0.1433159 0.15158,0.016536 0.30868,0.016536 h 0.44372 z"
         style="font-family:'Oxygen Mono';-inkscape-font-specification:'Oxygen Mono'"
         id="path5931" />
      <path
         d="m 127.89238,-4.5347858 1.33946,-1.2264531 h 0.63389 l -1.34772,1.2540138 1.53238,1.7693997 H 129.422 l -1.25952,-1.5378895 -0.2701,0.2370224 v 1.3008671 h -0.5016 v -4.2581348 l 0.5016,-0.055122 z"
         style="font-family:'Oxygen Mono';-inkscape-font-specification:'Oxygen Mono'"
         id="path5933" />
      <path
         d="m 131.97413,-3.3110888 0.79926,-2.4501501 h 0.54846 q -0.83785,2.3647117 -0.98943,2.7560743 -0.15159,0.3886065 -0.20671,0.5291663 -0.0551,0.1405598 -0.12402,0.2893878 -0.0689,0.148828 -0.16261,0.2700952 -0.0937,0.1240234 -0.17914,0.181901 -0.0827,0.060634 -0.26459,0.1102429 -0.17914,0.052365 -0.66972,0.052365 l -0.0579,-0.4216793 q 0.36656,0 0.43822,-0.016536 0.0744,-0.016536 0.14056,-0.038585 0.0661,-0.019293 0.0992,-0.049609 0.0331,-0.027561 0.0827,-0.074414 0.12678,-0.1240233 0.28387,-0.631141 -0.77721,-1.7859361 -1.12172,-2.6568556 l -0.11851,-0.3004121 h 0.54294 z"
         style="font-family:'Oxygen Mono';-inkscape-font-specification:'Oxygen Mono'"
         id="path5935" />
      <path
         d="m 135.69207,-2.7378254 h -0.82958 v -0.8295784 h 0.82958 z"
         style="font-family:'Oxygen Mono';-inkscape-font-specification:'Oxygen Mono'"
         id="path5937" />
      <path
         d="m 138.58044,-5.3753885 v 1.4193783 q 0,0.2645831 0.0276,0.4189233 0.0303,0.1543401 0.11576,0.2508027 0.0882,0.096463 0.226,0.1295355 0.1378,0.033073 0.37482,0.033073 h 0.55397 l -0.0276,0.3858504 h -0.50712 q -0.77997,0 -1.03904,-0.2866317 -0.16812,-0.1874131 -0.2067,-0.6035803 -0.0193,-0.184657 -0.0193,-0.4547523 v -1.2925988 h -0.85439 l 0.0551,-0.3858504 h 0.79927 V -6.803035 l 0.5016,-0.148828 v 1.1906241 h 1.27331 v 0.3858504 z"
         style="font-family:'Oxygen Mono';-inkscape-font-specification:'Oxygen Mono'"
         id="path5939" />
      <path
         d="m 140.79632,-5.7612389 h 0.57327 l 0.71933,1.1630634 0.71934,-1.1630634 h 0.5209 l -0.9288,1.4662315 0.96187,1.557182 h -0.55673 l -0.73863,-1.2044045 -0.76894,1.2044045 h -0.55121 l 0.99218,-1.5434016 z"
         style="font-family:'Oxygen Mono';-inkscape-font-specification:'Oxygen Mono'"
         id="path5941" />
      <path
         d="m 145.35487,-5.3753885 v 1.4193783 q 0,0.2645831 0.0276,0.4189233 0.0303,0.1543401 0.11576,0.2508027 0.0882,0.096463 0.22599,0.1295355 0.13781,0.033073 0.37483,0.033073 h 0.55397 l -0.0276,0.3858504 h -0.50712 q -0.77997,0 -1.03904,-0.2866317 -0.16812,-0.1874131 -0.2067,-0.6035803 -0.0193,-0.184657 -0.0193,-0.4547523 v -1.2925988 h -0.85439 l 0.0551,-0.3858504 h 0.79927 V -6.803035 l 0.5016,-0.148828 v 1.1906241 h 1.27331 v 0.3858504 z"
         style="font-family:'Oxygen Mono';-inkscape-font-specification:'Oxygen Mono'"
         id="path5943" />
    </g>
    <path
       style="fill:none;stroke:#ff0000;stroke-width:1.05833;stroke-linecap:round;stroke-linejoin:miter;stroke-miterlimit:4;stroke-dasharray:none;stroke-opacity:1"
       d="m 102.56405,9.95665 h 2.11667"
       id="path2005" />
    <circle
       style="fill:#afdde9;fill-opacity:1;fill-rule:evenodd;stroke:none;stroke-width:0.529167;stroke-linecap:round;stroke-linejoin:round;stroke-miterlimit:4;stroke-dasharray:none"
       id="circle2007"
       cx="111.55988"
       cy="11.808744"
       r="8.4666662" />
    <g
       id="g2013"
       transform="translate(150.45363,-0.89126)"
       style="fill:#ffffff;stroke-width:1;stroke-miterlimit:4;stroke-dasharray:none;paint-order:fill markers stroke">
      <path
         style="fill:#ffffff;stroke:#000000;stroke-width:0.529167;stroke-linecap:butt;stroke-linejoin:miter;stroke-miterlimit:4;stroke-dasharray:none;stroke-opacity:1;paint-order:fill markers stroke"
         d="M -42.068749,8.7312499 V 16.66875 h 6.349999 v -6.35 l -1.5875,-1.5875 z"
         id="path2009"
         sodipodi:nodetypes="cccccc" />
      <path
         style="fill:none;stroke:#000000;stroke-width:0.529167;stroke-linecap:butt;stroke-linejoin:miter;stroke-miterlimit:4;stroke-dasharray:none;stroke-opacity:1;paint-order:fill markers stroke"
         d="m -37.30625,8.73125 v 1.5875 h 1.5875"
         id="path2011"
         sodipodi:nodetypes="ccc" />
    </g>
    <path
       style="fill:none;stroke:#ff0000;stroke-width:4.23333;stroke-linecap:butt;stroke-linejoin:miter;stroke-miterlimit:4;stroke-dasharray:none;stroke-opacity:1"
       d="m 91.980717,-0.62668 c 0,8.46667 4.233333,12.7 10.583333,12.7"
       id="path2015" />
    <path
       style="fill:none;stroke:#ff0000;stroke-width:1.05833;stroke-linecap:round;stroke-linejoin:miter;stroke-miterlimit:4;stroke-dasharray:none;stroke-opacity:1"
       d="m 102.56405,11.01499 h 2.11666"
       id="path2017" />
    <path
       style="fill:none;stroke:#ff0000;stroke-width:1.05833;stroke-linecap:round;stroke-linejoin:miter;stroke-miterlimit:4;stroke-dasharray:none;stroke-opacity:1"
       d="m 102.56405,12.07332 h 2.11667"
       id="path2019" />
    <path
       style="fill:none;stroke:#ff0000;stroke-width:1.05833;stroke-linecap:round;stroke-linejoin:miter;stroke-miterlimit:4;stroke-dasharray:none;stroke-opacity:1"
       d="m 102.56405,13.13166 h 2.11667"
       id="path2021" />
    <path
       style="fill:none;stroke:#ff0000;stroke-width:1.05833;stroke-linecap:round;stroke-linejoin:miter;stroke-miterlimit:4;stroke-dasharray:none;stroke-opacity:1"
       d="m 102.56405,14.18999 h 2.11667"
       id="path2023" />
    <path
       id="path2025"
       style="fill:#0000ff;fill-rule:evenodd;stroke:none;stroke-width:0.529167;stroke-linecap:round;stroke-linejoin:round;stroke-miterlimit:4;stroke-dasharray:none"
       d="m 182.99739,18.42332 h 5.02709 l 2.11666,2.11667 -2.11666,2.11666 h -5.02709 z"
       sodipodi:nodetypes="cccccc" />
    <path
       id="path2067"
       style="fill:#00ffff;fill-rule:evenodd;stroke:none;stroke-width:0.529167;stroke-linecap:round;stroke-linejoin:round;stroke-miterlimit:4;stroke-dasharray:none"
       d="m 157.59738,-6.97667 h 6.5166 v 4.23333 h -6.5166 z"
       sodipodi:nodetypes="ccccc" />
    <path
       id="path2027"
       style="fill:#ff0000;fill-rule:evenodd;stroke:none;stroke-width:0.529167;stroke-linecap:round;stroke-linejoin:round;stroke-miterlimit:4;stroke-dasharray:none"
       d="m 150.10576,-6.9767 h 7.49163 l 2.11666,2.11667 -2.11666,2.11666 h -7.49163 z"
       sodipodi:nodetypes="cccccc" />
    <path
       id="path2029"
       style="fill:#b3b3b3;fill-rule:evenodd;stroke:none;stroke-width:0.529167;stroke-linecap:round;stroke-linejoin:round;stroke-miterlimit:4;stroke-dasharray:none"
       d="m 224.00781,18.42331 h 6.51659 v 4.23333 h -6.51659 z"
       sodipodi:nodetypes="ccccc" />
    <path
       id="path2031"
       style="fill:#0000ff;fill-rule:evenodd;stroke:none;stroke-width:0.529167;stroke-linecap:round;stroke-linejoin:round;stroke-miterlimit:4;stroke-dasharray:none"
       d="m 218.98073,18.42331 h 5.02709 l 2.11666,2.11667 -2.11666,2.11666 h -5.02709 z"
       sodipodi:nodetypes="cccccc" />
    <rect
       style="fill:#0000ff;fill-rule:evenodd;stroke:none;stroke-width:0.264583;stroke-linecap:round;stroke-linejoin:round"
       id="rect2033"
       width="33.866669"
       height="8.4666662"
       x="188.02449"
       y="16.306669"
       ry="2.1166666"
       rx="2.1166649" />
    <g
       aria-label="head -n 1"
       id="text2037"
       style="font-size:5.64444px;line-height:1.25;font-family:'Roboto Mono';-inkscape-font-specification:'Roboto Mono';text-align:center;letter-spacing:0px;word-spacing:0px;text-anchor:middle;fill:#ffffff;stroke-width:0.264583">
      <path
         d="m 192.55409,20.837663 v 1.824521 h -0.5016 v -1.761132 q 0,-0.567751 -0.15159,-0.766188 -0.15158,-0.201194 -0.45751,-0.201194 -0.30868,0 -0.53743,0.214974 -0.226,0.212218 -0.226,0.457508 v 2.056032 h -0.5016 v -4.258135 l 0.5016,-0.05512 v 1.656401 q 0.35278,-0.457508 0.94534,-0.457508 0.92879,0 0.92879,1.289843 z"
         style="font-family:'Oxygen Mono';-inkscape-font-specification:'Oxygen Mono'"
         id="path5946" />
      <path
         d="m 194.1912,22.521624 q -0.31695,-0.212218 -0.47129,-0.567751 -0.15158,-0.35829 -0.15158,-0.80753 0,-0.44924 0.14056,-0.804774 0.14331,-0.358289 0.42443,-0.576019 0.28388,-0.220486 0.62288,-0.220486 0.63941,0 0.93706,0.438216 0.29766,0.438215 0.29766,1.077625 v 0.16812 h -1.91547 q 0.0165,0.465777 0.23151,0.790993 0.21773,0.325217 0.65043,0.325217 0.28939,-0.02756 0.80753,-0.314192 l 0.16536,0.341753 q -0.35829,0.35829 -0.9784,0.35829 -0.44373,0 -0.76068,-0.209462 z m 1.32016,-1.659157 q -0.0551,-0.928797 -0.65043,-0.928797 -0.67249,0 -0.76895,0.928797 z"
         style="font-family:'Oxygen Mono';-inkscape-font-specification:'Oxygen Mono'"
         id="path5948" />
      <path
         d="m 198.79109,21.986946 v -0.771701 l -0.41066,0.05788 q -0.42994,0.06063 -0.59531,0.121268 -0.36931,0.140559 -0.36931,0.471288 0,0.228754 0.13229,0.363802 0.13229,0.135048 0.3638,0.135048 0.50987,0 0.87919,-0.377582 z m 0,-1.408354 q 0,-0.647678 -0.54846,-0.647678 -0.25907,0 -0.57326,0.06063 -0.31144,0.06063 -0.43822,0.115755 l -0.11851,-0.369314 q 0.57051,-0.190169 1.07211,-0.190169 0.50161,0 0.80478,0.228754 0.30316,0.228754 0.30316,0.705555 v 2.180055 h -0.41616 l -0.0661,-0.350022 q -0.17639,0.179145 -0.45475,0.300412 -0.27561,0.118512 -0.54019,0.118512 -0.3831,0 -0.63665,-0.228755 -0.25356,-0.23151 -0.25356,-0.650433 0,-0.421679 0.33073,-0.617361 0.22324,-0.137803 0.47404,-0.187413 0.25356,-0.05237 0.6587,-0.101975 l 0.40239,-0.04685 z"
         style="font-family:'Oxygen Mono';-inkscape-font-specification:'Oxygen Mono'"
         id="path5950" />
      <path
         d="m 202.25823,21.132563 q 0,-0.705555 -0.20946,-0.950846 -0.20946,-0.248047 -0.59531,-0.248047 -0.53468,0 -0.69178,0.529166 -0.0854,0.289388 -0.0854,0.697287 0,1.185112 0.77722,1.185112 0.80477,0 0.80477,-1.212672 z m 0,-1.077626 v -1.650888 l 0.50161,-0.05512 v 4.313257 h -0.50161 v -0.468533 q -0.30592,0.537435 -0.86541,0.537435 -0.63941,0 -0.93155,-0.457509 -0.28939,-0.457508 -0.28939,-1.149283 0,-0.832334 0.42444,-1.267794 0.29765,-0.30868 0.79926,-0.30868 0.34175,0 0.55397,0.14056 0.21497,0.140559 0.30868,0.366557 z"
         style="font-family:'Oxygen Mono';-inkscape-font-specification:'Oxygen Mono'"
         id="path5952" />
      <path
         d="m 209.34961,20.38291 v 0.427192 h -1.84657 V 20.38291 Z"
         style="font-family:'Oxygen Mono';-inkscape-font-specification:'Oxygen Mono'"
         id="path5954" />
      <path
         d="m 211.96512,19.54782 q 0.93983,0 0.93983,1.190624 v 1.92374 h -0.50161 v -1.863106 q 0,-0.319705 -0.0331,-0.457509 -0.0331,-0.137804 -0.0992,-0.225998 -0.14056,-0.181901 -0.46027,-0.181901 -0.32246,0 -0.5457,0.187413 -0.22324,0.187413 -0.22324,0.496094 v 2.045007 h -0.50161 V 19.63877 h 0.46027 l 0.0276,0.327973 q 0.30041,-0.418923 0.93706,-0.418923 z"
         style="font-family:'Oxygen Mono';-inkscape-font-specification:'Oxygen Mono'"
         id="path5956" />
      <path
         d="m 217.42766,19.115116 q 0.37759,-0.15434 0.92604,-0.564995 h 0.51815 v 3.709676 h 0.8654 v 0.402387 h -2.30683 v -0.402387 h 0.92604 v -3.152949 q -0.0772,0.0441 -0.38585,0.23151 -0.30868,0.184657 -0.54295,0.275608 z"
         style="font-family:'Oxygen Mono';-inkscape-font-specification:'Oxygen Mono'"
         id="path5958" />
    </g>
    <circle
       style="fill:#b3b3b3;fill-rule:evenodd;stroke:none;stroke-width:0.529167;stroke-linecap:round;stroke-linejoin:round;stroke-miterlimit:4;stroke-dasharray:none"
       id="circle2039"
       cx="234.59114"
       cy="20.539991"
       r="8.4666662" />
    <rect
       style="fill:#000000;fill-rule:evenodd;stroke-width:0.264583;stroke-linecap:round;stroke-linejoin:round"
       id="rect2041"
       width="10.583334"
       height="6.3499999"
       x="229.29947"
       y="16.571241"
       rx="0.26458246"
       ry="0.26458395" />
    <rect
       style="fill:#ffffff;fill-rule:evenodd;stroke-width:0.264583;stroke-linecap:round;stroke-linejoin:round"
       id="rect2043"
       width="9.5250015"
       height="5.291666"
       x="229.82863"
       y="17.100401" />
    <rect
       style="fill:#000000;fill-rule:evenodd;stroke-width:0.264584;stroke-linecap:round;stroke-linejoin:round"
       id="rect2045"
       width="4.2333336"
       height="1.0583334"
       x="232.47446"
       y="23.450407"
       rx="0.26458246"
       ry="0.26458395" />
    <rect
       style="fill:#000000;fill-rule:evenodd;stroke-width:0.264584;stroke-linecap:round;stroke-linejoin:round"
       id="rect2047"
       width="0.79374939"
       height="1.322917"
       x="234.19426"
       y="22.656645"
       rx="0.26458246"
       ry="0.26458395" />
    <circle
       style="fill:#00ffff;fill-opacity:1;fill-rule:evenodd;stroke:none;stroke-width:0.529167;stroke-linecap:round;stroke-linejoin:round;stroke-miterlimit:4;stroke-dasharray:none"
       id="circle2051"
       cx="170.29739"
       cy="-4.8600025"
       r="8.4666662" />
    <g
       id="g2057"
       transform="translate(209.19114,-17.56001)"
       style="fill:#ffffff;stroke-width:1;stroke-miterlimit:4;stroke-dasharray:none;paint-order:fill markers stroke">
      <path
         style="fill:#ffffff;stroke:#000000;stroke-width:0.529167;stroke-linecap:butt;stroke-linejoin:miter;stroke-miterlimit:4;stroke-dasharray:none;stroke-opacity:1;paint-order:fill markers stroke"
         d="M -42.068749,8.7312499 V 16.66875 h 6.349999 v -6.35 l -1.5875,-1.5875 z"
         id="path2053"
         sodipodi:nodetypes="cccccc" />
      <path
         style="fill:none;stroke:#000000;stroke-width:0.529167;stroke-linecap:butt;stroke-linejoin:miter;stroke-miterlimit:4;stroke-dasharray:none;stroke-opacity:1;paint-order:fill markers stroke"
         d="m -37.30625,8.73125 v 1.5875 h 1.5875"
         id="path2055"
         sodipodi:nodetypes="ccc" />
    </g>
    <path
       id="path2069"
       style="fill:#00ffff;fill-rule:evenodd;stroke:none;stroke-width:0.529167;stroke-linecap:round;stroke-linejoin:round;stroke-miterlimit:4;stroke-dasharray:none"
       d="m 176.64739,18.42332 h 6.35 l 2.11666,2.11666 -2.11666,2.11667 h -6.35 z"
       sodipodi:nodetypes="cccccc" />
    <circle
       style="fill:#00ffff;fill-opacity:1;fill-rule:evenodd;stroke:none;stroke-width:0.529167;stroke-linecap:round;stroke-linejoin:round;stroke-miterlimit:4;stroke-dasharray:none"
       id="circle2071"
       cx="170.29739"
       cy="20.539991"
       r="8.4666662" />
    <g
       id="g2077"
       transform="translate(209.19113,7.83998)"
       style="fill:#ffffff;stroke-width:1;stroke-miterlimit:4;stroke-dasharray:none;paint-order:fill markers stroke">
      <path
         style="fill:#ffffff;stroke:#000000;stroke-width:0.529167;stroke-linecap:butt;stroke-linejoin:miter;stroke-miterlimit:4;stroke-dasharray:none;stroke-opacity:1;paint-order:fill markers stroke"
         d="M -42.068749,8.7312499 V 16.66875 h 6.349999 v -6.35 l -1.5875,-1.5875 z"
         id="path2073"
         sodipodi:nodetypes="cccccc" />
      <path
         style="fill:none;stroke:#000000;stroke-width:0.529167;stroke-linecap:butt;stroke-linejoin:miter;stroke-miterlimit:4;stroke-dasharray:none;stroke-opacity:1;paint-order:fill markers stroke"
         d="m -37.30625,8.73125 v 1.5875 h 1.5875"
         id="path2075"
         sodipodi:nodetypes="ccc" />
    </g>
  </g>
</svg>
