<?xml version="1.0" encoding="UTF-8" standalone="no"?>
<svg
   xmlns:dc="http://purl.org/dc/elements/1.1/"
   xmlns:cc="http://creativecommons.org/ns#"
   xmlns:rdf="http://www.w3.org/1999/02/22-rdf-syntax-ns#"
   xmlns:svg="http://www.w3.org/2000/svg"
   xmlns="http://www.w3.org/2000/svg"
   width="63.499992mm"
   height="16.933332mm"
   viewBox="0 0 63.499992 16.933332"
   version="1.1"
   id="svg8">
  <defs
     id="defs2" />
  <metadata
     id="metadata5">
    <rdf:RDF>
      <cc:Work
         rdf:about="">
        <dc:format>image/svg+xml</dc:format>
        <dc:type
           rdf:resource="http://purl.org/dc/dcmitype/StillImage" />
        <dc:title></dc:title>
      </cc:Work>
    </rdf:RDF>
  </metadata>
  <g
     id="layer1"
     transform="translate(287.29584,101.35892)">
    <circle
       style="fill:#afdde9;fill-rule:evenodd;stroke:none;stroke-width:0.529167;stroke-linecap:round;stroke-linejoin:round;stroke-miterlimit:4;stroke-dasharray:none"
       id="circle1158"
       cx="-232.26251"
       cy="-92.892258"
       r="8.4666662" />
    <path
       id="path1154"
       style="fill:#afdde9;fill-rule:evenodd;stroke:none;stroke-width:0.529167;stroke-linecap:round;stroke-linejoin:round;stroke-miterlimit:4;stroke-dasharray:none"
       d="m -242.84584,-95.008914 6.51659,-10e-7 v 4.233334 h -6.51659 z" />
    <path
       id="path1156"
       style="fill:#ff0000;fill-rule:evenodd;stroke:none;stroke-width:0.529167;stroke-linecap:round;stroke-linejoin:round;stroke-miterlimit:4;stroke-dasharray:none"
       d="m -247.87292,-95.008913 5.02708,-10e-7 2.11667,2.116667 -2.11667,2.116667 h -5.02708 z" />
    <rect
       style="fill:#ff0000;fill-rule:evenodd;stroke:none;stroke-width:0.264583;stroke-linecap:round;stroke-linejoin:round"
       id="rect1160"
       width="42.333336"
       height="8.4666662"
       x="-287.29584"
       y="-97.125587"
       ry="2.1166666"
       rx="2.1166649" />
    <g
       aria-label="wc -l *.pdb"
       id="text1164"
       style="font-size:5.64444px;line-height:1.25;font-family:'Roboto Mono';-inkscape-font-specification:'Roboto Mono';text-align:center;letter-spacing:0px;word-spacing:0px;text-anchor:middle;fill:#ffffff;stroke-width:0.264583">
      <path
         d="m -283.46489,-90.775581 h -0.51263 l -0.5898,-3.023414 h 0.50436 l 0.36104,2.334395 0.50437,-2.334395 h 0.59806 l 0.49334,2.326127 0.31695,-2.326127 h 0.47405 l -0.55398,3.023414 h -0.52916 l -0.50436,-2.626539 z"
         style="font-style:normal;font-variant:normal;font-weight:normal;font-stretch:normal;font-family:'Oxygen Mono';-inkscape-font-specification:'Oxygen Mono';fill:#ffffff;stroke-width:0.264583"
         id="path916" />
      <path
         d="m -278.48467,-90.974019 q -0.28938,0.267339 -0.82406,0.267339 -0.34176,0 -0.62288,-0.129535 -0.28112,-0.132292 -0.46026,-0.352778 -0.37758,-0.46302 -0.37758,-1.11621 0,-0.421679 0.17087,-0.779969 0.17364,-0.358289 0.50988,-0.581531 0.33624,-0.223242 0.82958,-0.223242 0.49333,0 0.76619,0.261827 l -0.12678,0.336241 q -0.31695,-0.212218 -0.71658,-0.212218 -0.39963,0 -0.66422,0.341753 -0.26182,0.341754 -0.26182,0.87092 0,0.52641 0.26182,0.862651 0.26459,0.336241 0.67248,0.336241 0.41066,0 0.7221,-0.220486 z"
         style="font-style:normal;font-variant:normal;font-weight:normal;font-stretch:normal;font-family:'Oxygen Mono';-inkscape-font-specification:'Oxygen Mono';fill:#ffffff;stroke-width:0.264583"
         id="path918" />
      <path
         d="m -271.73504,-93.054855 v 0.427192 h -1.84657 v -0.427192 z"
         style="font-style:normal;font-variant:normal;font-weight:normal;font-stretch:normal;font-family:'Oxygen Mono';-inkscape-font-specification:'Oxygen Mono';fill:#ffffff;stroke-width:0.264583"
         id="path920" />
      <path
         d="m -268.22105,-90.775581 h -0.39963 q -0.53192,0 -0.76067,-0.110243 -0.13229,-0.06339 -0.20946,-0.146072 -0.20395,-0.212218 -0.21222,-0.937066 v -2.734025 h -0.90399 v -0.385851 h 1.40559 v 3.095072 q 0,0.548459 0.0992,0.672482 0.10198,0.124023 0.25356,0.143316 0.15158,0.01654 0.30868,0.01654 h 0.44373 z"
         style="font-style:normal;font-variant:normal;font-weight:normal;font-stretch:normal;font-family:'Oxygen Mono';-inkscape-font-specification:'Oxygen Mono';fill:#ffffff;stroke-width:0.264583"
         id="path922" />
      <path
         d="m -261.42732,-91.806353 -0.4961,0.286632 -0.70004,-1.110698 -0.68626,1.110698 -0.50161,-0.286632 0.87643,-1.041796 -1.22094,-0.405143 0.25356,-0.496094 1.10794,0.587044 -0.0965,-1.278818 h 0.54019 l -0.0827,1.278818 1.09967,-0.587044 0.25632,0.496094 -1.22645,0.405143 z"
         style="font-style:normal;font-variant:normal;font-weight:normal;font-stretch:normal;font-family:'Oxygen Mono';-inkscape-font-specification:'Oxygen Mono';fill:#ffffff;stroke-width:0.264583"
         id="path924" />
      <path
         d="m -258.81732,-90.775581 h -0.82958 v -0.829579 h 0.82958 z"
         style="font-style:normal;font-variant:normal;font-weight:normal;font-stretch:normal;font-family:'Oxygen Mono';-inkscape-font-specification:'Oxygen Mono';fill:#ffffff;stroke-width:0.264583"
         id="path926" />
      <path
         d="m -256.60144,-92.305203 q 0,1.212673 0.84887,1.212673 0.76344,0 0.76344,-1.212673 0,-0.672482 -0.20671,-0.934309 -0.20395,-0.264583 -0.56499,-0.264583 -0.70556,0 -0.8158,0.815798 -0.0248,0.170877 -0.0248,0.383094 z m 0.86817,1.598523 q -0.29215,0 -0.51814,-0.135047 -0.226,-0.135048 -0.34451,-0.347266 v 1.573719 l -0.50161,0.05512 v -4.238842 h 0.50161 v 0.416167 q 0.13229,-0.225998 0.35277,-0.366558 0.22049,-0.140559 0.49885,-0.140559 0.7469,0 1.06109,0.61736 0.19844,0.391363 0.19844,0.931553 0,0.862652 -0.41617,1.311892 -0.29765,0.32246 -0.83233,0.32246 z"
         style="font-style:normal;font-variant:normal;font-weight:normal;font-stretch:normal;font-family:'Oxygen Mono';-inkscape-font-specification:'Oxygen Mono';fill:#ffffff;stroke-width:0.264583"
         id="path928" />
      <path
         d="m -251.7287,-92.305203 q 0,-0.705555 -0.20946,-0.950845 -0.20946,-0.248047 -0.59531,-0.248047 -0.53468,0 -0.69178,0.529166 -0.0854,0.289388 -0.0854,0.697287 0,1.185112 0.77721,1.185112 0.80477,0 0.80477,-1.212673 z m 0,-1.077625 v -1.650888 l 0.50161,-0.05512 v 4.313257 h -0.50161 v -0.468533 q -0.30592,0.537434 -0.8654,0.537434 -0.63941,0 -0.93156,-0.457508 -0.28939,-0.457508 -0.28939,-1.149283 0,-0.832334 0.42444,-1.267794 0.29766,-0.30868 0.79926,-0.30868 0.34175,0 0.55397,0.140559 0.21498,0.14056 0.30868,0.366558 z"
         style="font-style:normal;font-variant:normal;font-weight:normal;font-stretch:normal;font-family:'Oxygen Mono';-inkscape-font-specification:'Oxygen Mono';fill:#ffffff;stroke-width:0.264583"
         id="path930" />
      <path
         d="m -249.76913,-91.92762 q 0.0496,0.38585 0.23151,0.609092 0.18466,0.223242 0.56224,0.223242 0.50988,0 0.68902,-0.529166 0.0909,-0.278364 0.0909,-0.578776 0,-0.303168 -0.0193,-0.465776 -0.0413,-0.385851 -0.21773,-0.609093 -0.17363,-0.225998 -0.54295,-0.225998 -0.61736,0 -0.75516,0.595312 -0.0579,0.248047 -0.0579,0.531922 0,0.28112 0.0193,0.449241 z m -0.0193,-1.455208 q 0.30592,-0.507117 0.91502,-0.507117 0.61185,0 0.89572,0.440972 0.28663,0.440971 0.28663,1.107941 0,0.873676 -0.41341,1.314648 -0.29765,0.319704 -0.81028,0.319704 -0.339,0 -0.51815,-0.124023 -0.17639,-0.126779 -0.35553,-0.35829 l -0.006,0.413412 h -0.4961 v -4.258135 l 0.50161,-0.05512 z"
         style="font-style:normal;font-variant:normal;font-weight:normal;font-stretch:normal;font-family:'Oxygen Mono';-inkscape-font-specification:'Oxygen Mono';fill:#ffffff;stroke-width:0.264583"
         id="path932" />
    </g>
    <g
       id="g1433"
       transform="translate(-193.36876,-105.59225)"
       style="fill:#ffffff;stroke-width:1;stroke-miterlimit:4;stroke-dasharray:none;paint-order:fill markers stroke">
      <path
         style="fill:#ffffff;stroke:#000000;stroke-width:0.529167;stroke-linecap:butt;stroke-linejoin:miter;stroke-miterlimit:4;stroke-dasharray:none;stroke-opacity:1;paint-order:fill markers stroke"
         d="M -42.068749,8.7312499 V 16.66875 h 6.349999 v -6.35 l -1.5875,-1.5875 z"
         id="path1429" />
      <path
         style="fill:none;stroke:#000000;stroke-width:0.529167;stroke-linecap:butt;stroke-linejoin:miter;stroke-miterlimit:4;stroke-dasharray:none;stroke-opacity:1;paint-order:fill markers stroke"
         d="m -37.30625,8.73125 v 1.5875 h 1.5875"
         id="path1431" />
    </g>
  </g>
</svg>
