<?xml version="1.0" encoding="UTF-8" standalone="no"?>
<svg
   xmlns:dc="http://purl.org/dc/elements/1.1/"
   xmlns:cc="http://creativecommons.org/ns#"
   xmlns:rdf="http://www.w3.org/1999/02/22-rdf-syntax-ns#"
   xmlns:svg="http://www.w3.org/2000/svg"
   xmlns="http://www.w3.org/2000/svg"
   width="118.53335mm"
   height="44.450024mm"
   viewBox="0 0 118.53335 44.450023"
   version="1.1"
   id="svg8">
  <defs
     id="defs2">
    <marker
       style="overflow:visible"
       id="marker2398"
       refX="0"
       refY="0"
       orient="auto">
      <path
         transform="matrix(-0.4,0,0,-0.4,-4,0)"
         style="fill:#0000ff;fill-opacity:1;fill-rule:evenodd;stroke:#0000ff;stroke-width:1pt;stroke-opacity:1"
         d="M 0,0 5,-5 -12.5,0 5,5 Z"
         id="path2396" />
    </marker>
    <marker
       style="overflow:visible"
       id="marker2388"
       refX="0"
       refY="0"
       orient="auto">
      <path
         transform="matrix(-0.4,0,0,-0.4,-4,0)"
         style="fill:#0000ff;fill-opacity:1;fill-rule:evenodd;stroke:#0000ff;stroke-width:1pt;stroke-opacity:1"
         d="M 0,0 5,-5 -12.5,0 5,5 Z"
         id="path2386" />
    </marker>
  </defs>
  <metadata
     id="metadata5">
    <rdf:RDF>
      <cc:Work
         rdf:about="">
        <dc:format>image/svg+xml</dc:format>
        <dc:type
           rdf:resource="http://purl.org/dc/dcmitype/StillImage" />
        <dc:title></dc:title>
      </cc:Work>
    </rdf:RDF>
  </metadata>
  <g
     id="layer1"
     transform="translate(-100.51246,-183.48487)">
    <path
       id="path2304"
       style="fill:#ff0000;fill-rule:evenodd;stroke:none;stroke-width:0.264583;stroke-linecap:round;stroke-linejoin:round"
       d="m 100.51246,183.48488 h 25.41933 2.12711 90.98691 v 8.46667 H 100.51246 Z" />
    <path
       style="fill:none;stroke:#ff0000;stroke-width:8.46667;stroke-linecap:butt;stroke-linejoin:miter;stroke-miterlimit:4;stroke-dasharray:none;stroke-opacity:1"
       d="m 108.97913,187.71821 c 16.93334,0 8.46667,35.98333 25.4,35.98333"
       id="path2306" />
    <path
       style="fill:none;stroke:#ff0000;stroke-width:8.46667;stroke-linecap:butt;stroke-linejoin:miter;stroke-miterlimit:4;stroke-dasharray:none;stroke-opacity:1"
       d="m 108.97913,187.71821 c 16.93334,0 8.46667,16.93334 25.4,16.93334"
       id="path2308" />
    <path
       id="path2316"
       style="fill:#ff8080;fill-rule:evenodd;stroke:none;stroke-width:0.529167;stroke-linecap:round;stroke-linejoin:round;stroke-miterlimit:4;stroke-dasharray:none"
       d="m 138.61247,213.11821 v 7.8052 l -2.11667,2.11668 -2.11667,-2.11668 v -7.8052 z" />
    <path
       id="path2318"
       style="fill:#ffaaaa;fill-rule:evenodd;stroke:none;stroke-width:0.529167;stroke-linecap:round;stroke-linejoin:round;stroke-miterlimit:4;stroke-dasharray:none"
       d="m 138.61247,205.31301 v 7.8052 l -2.11667,2.11667 -2.11667,-2.11667 v -7.8052 z" />
    <rect
       style="fill:#ff0000;fill-rule:evenodd;stroke:none;stroke-width:0.264583;stroke-linecap:round;stroke-linejoin:round"
       id="rect2320"
       width="13.758328"
       height="8.4666681"
       x="131.20415"
       y="200.41823"
       ry="2.1166666"
       rx="2.1166649" />
    <path
       id="path2322"
       style="fill:#ff5555;fill-rule:evenodd;stroke:none;stroke-width:0.264583;stroke-linecap:round;stroke-linejoin:round"
       d="m 142.8458,200.41821 21.16666,1e-5 c 0,0 1e-5,3.95259 1e-5,6.35 0,1.17264 -0.94403,2.11667 -2.11667,2.11667 l -23.28333,-1e-5 z" />
    <g
       aria-label="echo"
       id="text2326"
       style="font-size:5.64444px;line-height:1.25;font-family:'Roboto Mono';-inkscape-font-specification:'Roboto Mono';text-align:start;letter-spacing:0px;word-spacing:0px;text-anchor:start;fill:#ffffff;stroke-width:0.264583">
      <path
         d="m 146.0897,206.62766 q -0.31695,-0.21222 -0.47129,-0.56775 -0.15159,-0.35829 -0.15159,-0.80753 0,-0.44924 0.14056,-0.80478 0.14332,-0.35829 0.42444,-0.57602 0.28388,-0.22048 0.62287,-0.22048 0.63941,0 0.93707,0.43821 0.29765,0.43822 0.29765,1.07763 v 0.16812 h -1.91547 q 0.0165,0.46578 0.23151,0.79099 0.21773,0.32522 0.65044,0.32522 0.28938,-0.0276 0.80753,-0.31419 l 0.16536,0.34175 q -0.35829,0.35829 -0.97841,0.35829 -0.44372,0 -0.76067,-0.20946 z m 1.32016,-1.65916 q -0.0551,-0.92879 -0.65044,-0.92879 -0.67248,0 -0.76894,0.92879 z"
         style="font-style:normal;font-variant:normal;font-weight:normal;font-stretch:normal;font-family:'Oxygen Mono';-inkscape-font-specification:'Oxygen Mono';text-align:start;text-anchor:start;fill:#ffffff;stroke-width:0.264583"
         id="path1667" />
      <path
         d="m 151.11127,206.56978 q -0.28939,0.26734 -0.82407,0.26734 -0.34175,0 -0.62287,-0.12953 -0.28112,-0.1323 -0.46027,-0.35278 -0.37758,-0.46302 -0.37758,-1.11621 0,-0.42168 0.17088,-0.77997 0.17363,-0.35829 0.50987,-0.58153 0.33624,-0.22324 0.82958,-0.22324 0.49334,0 0.76619,0.26182 l -0.12678,0.33624 q -0.31695,-0.21221 -0.71658,-0.21221 -0.39963,0 -0.66422,0.34175 -0.26182,0.34175 -0.26182,0.87092 0,0.52641 0.26182,0.86265 0.26459,0.33624 0.67249,0.33624 0.41065,0 0.72209,-0.22049 z"
         style="font-style:normal;font-variant:normal;font-weight:normal;font-stretch:normal;font-family:'Oxygen Mono';-inkscape-font-specification:'Oxygen Mono';text-align:start;text-anchor:start;fill:#ffffff;stroke-width:0.264583"
         id="path1669" />
      <path
         d="m 154.61424,204.9437 v 1.82452 h -0.50161 v -1.76113 q 0,-0.56775 -0.15158,-0.76619 -0.15159,-0.20119 -0.45751,-0.20119 -0.30868,0 -0.53744,0.21497 -0.22599,0.21222 -0.22599,0.45751 v 2.05603 h -0.50161 v -4.25814 l 0.50161,-0.0551 v 1.6564 q 0.35277,-0.4575 0.94533,-0.4575 0.9288,0 0.9288,1.28984 z"
         style="font-style:normal;font-variant:normal;font-weight:normal;font-stretch:normal;font-family:'Oxygen Mono';-inkscape-font-specification:'Oxygen Mono';text-align:start;text-anchor:start;fill:#ffffff;stroke-width:0.264583"
         id="path1671" />
      <path
         d="m 156.81083,206.45127 q 0.52641,0 0.71658,-0.52365 0.10197,-0.28112 0.10197,-0.57602 0,-0.29766 -0.0221,-0.46302 -0.0496,-0.37483 -0.23978,-0.61185 -0.18741,-0.23702 -0.55672,-0.23702 -0.51263,0 -0.70005,0.53467 -0.0992,0.28664 -0.0992,0.60083 0,0.55673 0.17363,0.91777 0.17363,0.35829 0.62563,0.35829 z m 0.99218,-2.35644 q 0.32798,0.44097 0.32798,1.15204 0,0.71106 -0.35554,1.15204 -0.35553,0.43821 -0.96462,0.43821 -0.32522,0 -0.57878,-0.12402 -0.25356,-0.12403 -0.41065,-0.34176 -0.31695,-0.43821 -0.31695,-1.14101 0,-0.7028 0.35002,-1.13826 0.35002,-0.43821 0.98392,-0.43821 0.63665,0 0.96462,0.44097 z"
         style="font-style:normal;font-variant:normal;font-weight:normal;font-stretch:normal;font-family:'Oxygen Mono';-inkscape-font-specification:'Oxygen Mono';text-align:start;text-anchor:start;fill:#ffffff;stroke-width:0.264583"
         id="path1673" />
    </g>
    <path
       style="fill:none;stroke:#0000ff;stroke-width:0.264583;stroke-linecap:butt;stroke-linejoin:miter;stroke-miterlimit:4;stroke-dasharray:0.264583, 0.79375;stroke-dashoffset:0;stroke-opacity:1;marker-end:url(#marker2398)"
       d="m 164.01246,200.41821 v -8.46666"
       id="path2328" />
    <rect
       style="fill:#ff0000;fill-rule:evenodd;stroke:none;stroke-width:0.264583;stroke-linecap:round;stroke-linejoin:round"
       id="rect2334"
       width="13.758328"
       height="8.4666681"
       x="131.20415"
       y="219.46823"
       ry="2.1166666"
       rx="2.1166649" />
    <path
       id="path2336"
       style="fill:#0000ff;fill-rule:evenodd;stroke:none;stroke-width:0.264583;stroke-linecap:round;stroke-linejoin:round"
       d="m 142.8458,219.46821 h 50.8 v 6.35 c 0,1.17263 -0.94403,2.11667 -2.11667,2.11667 h -52.91667 z" />
    <g
       aria-label="ps"
       id="text2340"
       style="font-size:5.64444px;line-height:1.25;font-family:'Roboto Mono';-inkscape-font-specification:'Roboto Mono';text-align:start;letter-spacing:0px;word-spacing:0px;text-anchor:start;fill:#ffffff;stroke-width:0.264583">
      <path
         d="m 145.89677,224.2886 q 0,1.21267 0.84887,1.21267 0.76344,0 0.76344,-1.21267 0,-0.67248 -0.20671,-0.93431 -0.20395,-0.26458 -0.56499,-0.26458 -0.70556,0 -0.8158,0.8158 -0.0248,0.17087 -0.0248,0.38309 z m 0.86817,1.59852 q -0.29215,0 -0.51815,-0.13504 -0.22599,-0.13505 -0.34451,-0.34727 v 1.57372 l -0.5016,0.0551 v -4.23884 h 0.5016 v 0.41617 q 0.1323,-0.226 0.35278,-0.36656 0.22049,-0.14056 0.49885,-0.14056 0.7469,0 1.06109,0.61736 0.19844,0.39136 0.19844,0.93155 0,0.86265 -0.41617,1.31189 -0.29766,0.32246 -0.83233,0.32246 z"
         style="font-style:normal;font-variant:normal;font-weight:normal;font-stretch:normal;font-family:'Oxygen Mono';-inkscape-font-specification:'Oxygen Mono';text-align:start;text-anchor:start;fill:#ffffff;stroke-width:0.264583"
         id="path1676" />
      <path
         d="m 150.41122,224.10119 q 0.39136,0.0965 0.57051,0.30592 0.1819,0.20946 0.1819,0.60634 0,0.39412 -0.30317,0.6339 -0.30041,0.23977 -0.75516,0.23977 -0.32522,0 -0.63114,-0.0799 -0.30593,-0.0827 -0.452,-0.19293 l 0.12402,-0.36104 q 0.11576,0.0717 0.36656,0.14607 0.2508,0.0717 0.54295,0.0717 0.2949,0 0.46853,-0.12127 0.17639,-0.12402 0.17639,-0.32797 0,-0.20395 -0.0882,-0.31971 -0.0854,-0.11851 -0.33349,-0.17914 l -0.51263,-0.12403 q -0.44373,-0.11024 -0.5898,-0.3197 -0.14607,-0.21222 -0.14607,-0.52641 0,-0.31419 0.25356,-0.57878 0.25631,-0.26458 0.74414,-0.27009 h 0.0358 q 0.54846,0 0.93431,0.2067 l -0.11025,0.35278 q -0.40238,-0.17088 -0.81579,-0.17088 -0.25632,0.003 -0.42168,0.12954 -0.16261,0.12402 -0.16261,0.31419 0,0.19017 0.0827,0.28663 0.0827,0.0937 0.31419,0.14883 z"
         style="font-style:normal;font-variant:normal;font-weight:normal;font-stretch:normal;font-family:'Oxygen Mono';-inkscape-font-specification:'Oxygen Mono';text-align:start;text-anchor:start;fill:#ffffff;stroke-width:0.264583"
         id="path1678" />
    </g>
    <path
       style="fill:none;stroke:#0000ff;stroke-width:0.264583;stroke-linecap:butt;stroke-linejoin:miter;stroke-miterlimit:4;stroke-dasharray:0.264583, 0.79375;stroke-dashoffset:0;stroke-opacity:1;marker-end:url(#marker2388)"
       d="M 193.6458,219.46821 V 191.95155"
       id="path2342" />
    <g
       aria-label="out"
       transform="rotate(90)"
       id="text2346"
       style="font-size:3.70417px;line-height:1.25;font-family:'Roboto Mono';-inkscape-font-specification:'Roboto Mono';text-align:start;letter-spacing:0px;word-spacing:0px;text-anchor:start;fill:#000000;stroke-width:0.264583">
      <path
         d="m 207.87307,-135.34368 q 0.34546,0 0.47026,-0.34365 0.0669,-0.18448 0.0669,-0.37801 0,-0.19534 -0.0145,-0.30386 -0.0326,-0.24598 -0.15736,-0.40152 -0.12299,-0.15555 -0.36535,-0.15555 -0.33641,0 -0.4594,0.35088 -0.0651,0.1881 -0.0651,0.39429 0,0.36536 0.11395,0.60229 0.11395,0.23513 0.41057,0.23513 z m 0.65112,-1.54642 q 0.21524,0.28939 0.21524,0.75603 0,0.46664 -0.23332,0.75603 -0.23332,0.28758 -0.63304,0.28758 -0.21342,0 -0.37982,-0.0814 -0.1664,-0.0814 -0.2695,-0.22428 -0.20799,-0.28758 -0.20799,-0.74879 0,-0.46122 0.2297,-0.74699 0.2297,-0.28758 0.6457,-0.28758 0.4178,0 0.63303,0.28939 z"
         style="font-style:normal;font-variant:normal;font-weight:normal;font-stretch:normal;font-size:3.70417px;font-family:'Oxygen Mono';-inkscape-font-specification:'Oxygen Mono';text-align:start;text-anchor:start;fill:#000000;stroke-width:0.264583"
         id="path1681" />
      <path
         d="m 210.86824,-135.77957 q 0,0.68911 -0.76688,0.68911 -0.76688,0 -0.76688,-0.68911 v -1.34023 h 0.32918 v 1.36917 q 0,0.21161 0.1049,0.30928 0.10491,0.0977 0.3328,0.0977 0.22789,0 0.3328,-0.0977 0.1049,-0.0977 0.1049,-0.30928 v -1.36917 h 0.32918 z"
         style="font-style:normal;font-variant:normal;font-weight:normal;font-stretch:normal;font-size:3.70417px;font-family:'Oxygen Mono';-inkscape-font-specification:'Oxygen Mono';text-align:start;text-anchor:start;fill:#000000;stroke-width:0.264583"
         id="path1683" />
      <path
         d="m 212.26634,-136.86658 v 0.93146 q 0,0.17364 0.0181,0.27492 0.0199,0.10129 0.076,0.16459 0.0579,0.0633 0.14831,0.085 0.0904,0.0217 0.24598,0.0217 h 0.36354 l -0.0181,0.25322 h -0.33279 q -0.51186,0 -0.68187,-0.1881 -0.11033,-0.12299 -0.13565,-0.3961 -0.0127,-0.12119 -0.0127,-0.29844 v -0.84826 h -0.56069 l 0.0362,-0.25322 h 0.52452 v -0.68368 l 0.32917,-0.0977 v 0.78135 h 0.83561 v 0.25322 z"
         style="font-style:normal;font-variant:normal;font-weight:normal;font-stretch:normal;font-size:3.70417px;font-family:'Oxygen Mono';-inkscape-font-specification:'Oxygen Mono';text-align:start;text-anchor:start;fill:#000000;stroke-width:0.264583"
         id="path1685" />
    </g>
    <g
       aria-label="in"
       transform="rotate(90)"
       id="text2350"
       style="font-size:3.70417px;line-height:1.25;font-family:'Roboto Mono';-inkscape-font-specification:'Roboto Mono';text-align:start;letter-spacing:0px;word-spacing:0px;text-anchor:start;fill:#000000;stroke-width:0.264583">
      <path
         d="m 218.03084,-137.51227 v -0.17906 q 0,-0.0651 0.0723,-0.11395 0.0742,-0.0506 0.14651,-0.0506 0.0723,0 0.14469,0.0506 0.0742,0.0488 0.0742,0.11395 v 0.17906 q 0,0.0651 -0.0742,0.11575 -0.0724,0.0488 -0.14469,0.0488 -0.0724,0 -0.14651,-0.0488 -0.0723,-0.0506 -0.0723,-0.11575 z m -0.51186,0.77592 v -0.25322 h 0.8953 v 1.73091 h 0.56792 v 0.25321 h -1.52652 v -0.25321 h 0.62942 v -1.47769 z"
         style="font-style:normal;font-variant:normal;font-weight:normal;font-stretch:normal;font-size:3.70417px;font-family:'Oxygen Mono';-inkscape-font-specification:'Oxygen Mono';text-align:start;text-anchor:start;fill:#000000;stroke-width:0.264583"
         id="path1688" />
      <path
         d="m 220.57022,-137.04925 q 0.61676,0 0.61676,0.78135 v 1.26245 h -0.32918 v -1.22266 q 0,-0.20981 -0.0217,-0.30024 -0.0217,-0.0904 -0.0651,-0.14831 -0.0922,-0.11938 -0.30205,-0.11938 -0.21161,0 -0.35811,0.12299 -0.14651,0.12299 -0.14651,0.32556 v 1.34204 h -0.32918 v -1.98412 h 0.30205 l 0.0181,0.21524 q 0.19715,-0.27492 0.61495,-0.27492 z"
         style="font-style:normal;font-variant:normal;font-weight:normal;font-stretch:normal;font-size:3.70417px;font-family:'Oxygen Mono';-inkscape-font-specification:'Oxygen Mono';text-align:start;text-anchor:start;fill:#000000;stroke-width:0.264583"
         id="path1690" />
    </g>
    <g
       aria-label="bash"
       id="text2374"
       style="font-size:5.64444px;line-height:1.25;font-family:'Roboto Mono';-inkscape-font-specification:'Roboto Mono';text-align:start;letter-spacing:0px;word-spacing:0px;text-anchor:start;fill:#ffffff;stroke-width:0.264583">
      <path
         d="m 105.73798,188.68285 q 0.0496,0.38585 0.23151,0.60909 0.18466,0.22324 0.56224,0.22324 0.50988,0 0.68902,-0.52917 0.091,-0.27836 0.091,-0.57877 0,-0.30317 -0.0193,-0.46578 -0.0413,-0.38585 -0.21773,-0.60909 -0.17363,-0.226 -0.54295,-0.226 -0.61736,0 -0.75516,0.59531 -0.0579,0.24805 -0.0579,0.53193 0,0.28112 0.0193,0.44924 z m -0.0193,-1.45521 q 0.30592,-0.50712 0.91502,-0.50712 0.61185,0 0.89572,0.44097 0.28663,0.44097 0.28663,1.10794 0,0.87368 -0.41341,1.31465 -0.29765,0.31971 -0.81028,0.31971 -0.339,0 -0.51815,-0.12403 -0.17638,-0.12678 -0.35553,-0.35829 l -0.006,0.41341 h -0.4961 v -4.25813 l 0.50161,-0.0551 z"
         style="font-style:normal;font-variant:normal;font-weight:normal;font-stretch:normal;font-family:'Oxygen Mono';-inkscape-font-specification:'Oxygen Mono';text-align:start;text-anchor:start;fill:#ffffff;stroke-width:0.264583"
         id="path1693" />
      <path
         d="m 110.47292,189.15965 v -0.7717 l -0.41066,0.0579 q -0.42994,0.0606 -0.59531,0.12127 -0.36931,0.14056 -0.36931,0.47129 0,0.22875 0.13229,0.3638 0.13229,0.13505 0.3638,0.13505 0.50987,0 0.87919,-0.37758 z m 0,-1.40836 q 0,-0.64767 -0.54846,-0.64767 -0.25907,0 -0.57326,0.0606 -0.31144,0.0606 -0.43822,0.11575 l -0.11851,-0.36931 q 0.57051,-0.19017 1.07211,-0.19017 0.50161,0 0.80478,0.22875 0.30316,0.22876 0.30316,0.70556 v 2.18005 h -0.41616 l -0.0661,-0.35002 q -0.17639,0.17915 -0.45475,0.30042 -0.27561,0.11851 -0.54019,0.11851 -0.3831,0 -0.63665,-0.22876 -0.25356,-0.23151 -0.25356,-0.65043 0,-0.42168 0.33073,-0.61736 0.22324,-0.13781 0.47404,-0.18741 0.25356,-0.0524 0.6587,-0.10198 l 0.40239,-0.0469 z"
         style="font-style:normal;font-variant:normal;font-weight:normal;font-stretch:normal;font-family:'Oxygen Mono';-inkscape-font-specification:'Oxygen Mono';text-align:start;text-anchor:start;fill:#ffffff;stroke-width:0.264583"
         id="path1695" />
      <path
         d="m 113.58177,188.11785 q 0.39136,0.0965 0.57051,0.30592 0.1819,0.20947 0.1819,0.60634 0,0.39412 -0.30317,0.6339 -0.30041,0.23978 -0.75516,0.23978 -0.32522,0 -0.63114,-0.0799 -0.30593,-0.0827 -0.452,-0.19292 l 0.12402,-0.36105 q 0.11576,0.0717 0.36656,0.14607 0.2508,0.0717 0.54295,0.0717 0.2949,0 0.46853,-0.12127 0.17639,-0.12402 0.17639,-0.32797 0,-0.20395 -0.0882,-0.31971 -0.0854,-0.11851 -0.33348,-0.17914 l -0.51263,-0.12402 q -0.44373,-0.11025 -0.5898,-0.31971 -0.14607,-0.21222 -0.14607,-0.52641 0,-0.31419 0.25356,-0.57877 0.25631,-0.26459 0.74414,-0.2701 h 0.0358 q 0.54845,0 0.9343,0.20671 l -0.11024,0.35277 q -0.40239,-0.17087 -0.8158,-0.17087 -0.25631,0.003 -0.42168,0.12953 -0.1626,0.12403 -0.1626,0.3142 0,0.19016 0.0827,0.28663 0.0827,0.0937 0.31419,0.14882 z"
         style="font-style:normal;font-variant:normal;font-weight:normal;font-stretch:normal;font-family:'Oxygen Mono';-inkscape-font-specification:'Oxygen Mono';text-align:start;text-anchor:start;fill:#ffffff;stroke-width:0.264583"
         id="path1697" />
      <path
         d="m 117.78478,188.01036 v 1.82452 h -0.5016 v -1.76113 q 0,-0.56775 -0.15159,-0.76619 -0.15158,-0.20119 -0.4575,-0.20119 -0.30868,0 -0.53744,0.21497 -0.226,0.21222 -0.226,0.45751 v 2.05603 h -0.5016 v -4.25813 l 0.5016,-0.0551 v 1.6564 q 0.35278,-0.45751 0.94534,-0.45751 0.92879,0 0.92879,1.28984 z"
         style="font-style:normal;font-variant:normal;font-weight:normal;font-stretch:normal;font-family:'Oxygen Mono';-inkscape-font-specification:'Oxygen Mono';text-align:start;text-anchor:start;fill:#ffffff;stroke-width:0.264583"
         id="path1699" />
    </g>
  </g>
</svg>
