<?xml version="1.0" encoding="UTF-8" standalone="no"?>
<svg
   xmlns:dc="http://purl.org/dc/elements/1.1/"
   xmlns:cc="http://creativecommons.org/ns#"
   xmlns:rdf="http://www.w3.org/1999/02/22-rdf-syntax-ns#"
   xmlns:svg="http://www.w3.org/2000/svg"
   xmlns="http://www.w3.org/2000/svg"
   width="118.53333mm"
   height="44.450008mm"
   viewBox="0 0 118.53333 44.450008"
   version="1.1"
   id="svg8">
  <defs
     id="defs2">
    <marker
       style="overflow:visible"
       id="marker1784"
       refX="0"
       refY="0"
       orient="auto">
      <path
         transform="matrix(-0.4,0,0,-0.4,-4,0)"
         style="fill:#0000ff;fill-opacity:1;fill-rule:evenodd;stroke:#0000ff;stroke-width:1pt;stroke-opacity:1"
         d="M 0,0 5,-5 -12.5,0 5,5 Z"
         id="path1782" />
    </marker>
    <marker
       style="overflow:visible"
       id="marker1862"
       refX="0"
       refY="0"
       orient="auto">
      <path
         transform="matrix(-0.4,0,0,-0.4,-4,0)"
         style="fill:#0000ff;fill-opacity:1;fill-rule:evenodd;stroke:#0000ff;stroke-width:1pt;stroke-opacity:1"
         d="M 0,0 5,-5 -12.5,0 5,5 Z"
         id="path1860" />
    </marker>
  </defs>
  <metadata
     id="metadata5">
    <rdf:RDF>
      <cc:Work
         rdf:about="">
        <dc:format>image/svg+xml</dc:format>
        <dc:type
           rdf:resource="http://purl.org/dc/dcmitype/StillImage" />
        <dc:title></dc:title>
      </cc:Work>
    </rdf:RDF>
  </metadata>
  <g
     id="layer1"
     transform="translate(-97.415047,-145.84854)">
    <path
       id="path1753"
       style="fill:#ff0000;fill-rule:evenodd;stroke:none;stroke-width:0.264583;stroke-linecap:round;stroke-linejoin:round"
       d="m 97.415047,145.84854 h 25.419323 2.12712 90.98689 v 8.46667 H 97.415047 Z" />
    <path
       style="fill:none;stroke:#ff0000;stroke-width:8.46667;stroke-linecap:butt;stroke-linejoin:miter;stroke-miterlimit:4;stroke-dasharray:none;stroke-opacity:1"
       d="m 105.88171,150.08188 c 16.93334,0 8.46667,35.98333 25.4,35.98333"
       id="path1848" />
    <path
       style="fill:none;stroke:#ff0000;stroke-width:8.46667;stroke-linecap:butt;stroke-linejoin:miter;stroke-miterlimit:4;stroke-dasharray:none;stroke-opacity:1"
       d="m 105.88171,150.08188 c 16.93334,0 8.46667,16.93333 25.4,16.93333"
       id="path1755" />
    <g
       aria-label="bash"
       id="text1759"
       style="font-size:5.64444px;line-height:1.25;font-family:'Roboto Mono';-inkscape-font-specification:'Roboto Mono';text-align:start;letter-spacing:0px;word-spacing:0px;text-anchor:start;fill:#ffffff;stroke-width:0.264583">
      <path
         d="m 102.64056,151.04651 q 0.0496,0.38585 0.23151,0.60909 0.18466,0.22324 0.56224,0.22324 0.50988,0 0.68902,-0.52916 0.091,-0.27837 0.091,-0.57878 0,-0.30317 -0.0193,-0.46578 -0.0413,-0.38585 -0.21773,-0.60909 -0.17363,-0.226 -0.54295,-0.226 -0.61736,0 -0.75516,0.59532 -0.0579,0.24804 -0.0579,0.53192 0,0.28112 0.0193,0.44924 z m -0.0193,-1.45521 q 0.30592,-0.50712 0.91502,-0.50712 0.61185,0 0.89572,0.44098 0.28663,0.44097 0.28663,1.10794 0,0.87367 -0.41341,1.31464 -0.29765,0.31971 -0.81028,0.31971 -0.339,0 -0.51815,-0.12402 -0.17638,-0.12678 -0.35553,-0.35829 l -0.006,0.41341 h -0.49609 v -4.25814 l 0.5016,-0.0551 z"
         style="font-style:normal;font-variant:normal;font-weight:normal;font-stretch:normal;font-family:'Oxygen Mono';-inkscape-font-specification:'Oxygen Mono';text-align:start;text-anchor:start;fill:#ffffff;stroke-width:0.264583"
         id="path1248" />
      <path
         d="m 107.3755,151.52331 v -0.7717 l -0.41066,0.0579 q -0.42994,0.0606 -0.59531,0.12126 -0.36931,0.14056 -0.36931,0.47129 0,0.22876 0.13229,0.3638 0.13229,0.13505 0.3638,0.13505 0.50987,0 0.87919,-0.37758 z m 0,-1.40835 q 0,-0.64768 -0.54846,-0.64768 -0.25907,0 -0.57326,0.0606 -0.31144,0.0606 -0.43822,0.11576 l -0.11851,-0.36932 q 0.57051,-0.19017 1.07211,-0.19017 0.50161,0 0.80478,0.22876 0.30316,0.22875 0.30316,0.70555 v 2.18006 h -0.41616 l -0.0661,-0.35002 q -0.17639,0.17914 -0.45475,0.30041 -0.27561,0.11851 -0.54019,0.11851 -0.3831,0 -0.63665,-0.22875 -0.25356,-0.23152 -0.25356,-0.65044 0,-0.42168 0.33073,-0.61736 0.22324,-0.1378 0.47404,-0.18741 0.25356,-0.0524 0.6587,-0.10198 l 0.40239,-0.0468 z"
         style="font-style:normal;font-variant:normal;font-weight:normal;font-stretch:normal;font-family:'Oxygen Mono';-inkscape-font-specification:'Oxygen Mono';text-align:start;text-anchor:start;fill:#ffffff;stroke-width:0.264583"
         id="path1250" />
      <path
         d="m 110.48435,150.48151 q 0.39136,0.0965 0.57051,0.30593 0.1819,0.20946 0.1819,0.60633 0,0.39412 -0.30317,0.6339 -0.30041,0.23978 -0.75516,0.23978 -0.32522,0 -0.63114,-0.0799 -0.30593,-0.0827 -0.452,-0.19292 l 0.12402,-0.36105 q 0.11576,0.0717 0.36656,0.14607 0.2508,0.0717 0.54295,0.0717 0.2949,0 0.46853,-0.12127 0.17639,-0.12402 0.17639,-0.32797 0,-0.20395 -0.0882,-0.3197 -0.0854,-0.11851 -0.33348,-0.17915 l -0.51263,-0.12402 q -0.44373,-0.11024 -0.5898,-0.31971 -0.14607,-0.21221 -0.14607,-0.52641 0,-0.31419 0.25356,-0.57877 0.25631,-0.26458 0.74414,-0.2701 h 0.0358 q 0.54845,0 0.9343,0.20671 l -0.11024,0.35278 q -0.40239,-0.17088 -0.8158,-0.17088 -0.25631,0.003 -0.42168,0.12954 -0.1626,0.12402 -0.1626,0.31419 0,0.19017 0.0827,0.28663 0.0827,0.0937 0.31419,0.14883 z"
         style="font-style:normal;font-variant:normal;font-weight:normal;font-stretch:normal;font-family:'Oxygen Mono';-inkscape-font-specification:'Oxygen Mono';text-align:start;text-anchor:start;fill:#ffffff;stroke-width:0.264583"
         id="path1252" />
      <path
         d="m 114.68736,150.37403 v 1.82452 h -0.5016 v -1.76113 q 0,-0.56776 -0.15159,-0.76619 -0.15158,-0.2012 -0.4575,-0.2012 -0.30868,0 -0.53744,0.21498 -0.226,0.21222 -0.226,0.45751 v 2.05603 h -0.5016 v -4.25814 l 0.5016,-0.0551 v 1.6564 q 0.35278,-0.45751 0.94534,-0.45751 0.92879,0 0.92879,1.28985 z"
         style="font-style:normal;font-variant:normal;font-weight:normal;font-stretch:normal;font-family:'Oxygen Mono';-inkscape-font-specification:'Oxygen Mono';text-align:start;text-anchor:start;fill:#ffffff;stroke-width:0.264583"
         id="path1254" />
    </g>
    <path
       id="path1945"
       style="fill:#ff8080;fill-rule:evenodd;stroke:none;stroke-width:0.529167;stroke-linecap:round;stroke-linejoin:round;stroke-miterlimit:4;stroke-dasharray:none"
       d="m 135.51505,175.48188 v 7.8052 l -2.11667,2.11667 -2.11667,-2.11667 v -7.8052 z" />
    <path
       id="path1947"
       style="fill:#ffaaaa;fill-rule:evenodd;stroke:none;stroke-width:0.529167;stroke-linecap:round;stroke-linejoin:round;stroke-miterlimit:4;stroke-dasharray:none"
       d="m 135.51505,167.67667 v 7.80521 l -2.11667,2.11667 -2.11667,-2.11667 v -7.80521 z" />
    <rect
       style="fill:#ff0000;fill-rule:evenodd;stroke:none;stroke-width:0.264583;stroke-linecap:round;stroke-linejoin:round"
       id="rect1772"
       width="13.758328"
       height="8.4666681"
       x="128.10672"
       y="162.78188"
       ry="2.1166666"
       rx="2.1166649" />
    <path
       id="path1774"
       style="fill:#0000ff;fill-rule:evenodd;stroke:none;stroke-width:0.264583;stroke-linecap:round;stroke-linejoin:round"
       d="m 139.74838,162.78188 h 42.33333 c 0,0 1e-5,3.95258 1e-5,6.35 0,1.17263 -0.94403,2.11666 -2.11667,2.11666 h -44.45 z" />
    <g
       aria-label="ps"
       id="text1778"
       style="font-size:5.64444px;line-height:1.25;font-family:'Roboto Mono';-inkscape-font-specification:'Roboto Mono';text-align:start;letter-spacing:0px;word-spacing:0px;text-anchor:start;fill:#ffffff;stroke-width:0.264583">
      <path
         d="m 142.79936,167.60226 q 0,1.21267 0.84887,1.21267 0.76343,0 0.76343,-1.21267 0,-0.67248 -0.2067,-0.93431 -0.20395,-0.26458 -0.565,-0.26458 -0.70555,0 -0.81579,0.8158 -0.0248,0.17087 -0.0248,0.38309 z m 0.86816,1.59852 q -0.29214,0 -0.51814,-0.13504 -0.226,-0.13505 -0.34451,-0.34727 v 1.57372 l -0.5016,0.0551 v -4.23884 h 0.5016 v 0.41617 q 0.13229,-0.226 0.35278,-0.36656 0.22049,-0.14056 0.49885,-0.14056 0.7469,0 1.06109,0.61736 0.19844,0.39136 0.19844,0.93155 0,0.86265 -0.41617,1.31189 -0.29766,0.32246 -0.83234,0.32246 z"
         style="font-style:normal;font-variant:normal;font-weight:normal;font-stretch:normal;font-family:'Oxygen Mono';-inkscape-font-specification:'Oxygen Mono';text-align:start;text-anchor:start;fill:#ffffff;stroke-width:0.264583"
         id="path1257" />
      <path
         d="m 147.31381,167.41485 q 0.39136,0.0965 0.57051,0.30592 0.1819,0.20946 0.1819,0.60634 0,0.39412 -0.30317,0.6339 -0.30041,0.23977 -0.75516,0.23977 -0.32522,0 -0.63115,-0.0799 -0.30592,-0.0827 -0.45199,-0.19293 l 0.12402,-0.36104 q 0.11576,0.0717 0.36656,0.14607 0.2508,0.0717 0.54295,0.0717 0.2949,0 0.46853,-0.12127 0.17639,-0.12402 0.17639,-0.32797 0,-0.20395 -0.0882,-0.31971 -0.0854,-0.11851 -0.33348,-0.17914 l -0.51263,-0.12403 q -0.44373,-0.11024 -0.5898,-0.3197 -0.14607,-0.21222 -0.14607,-0.52641 0,-0.31419 0.25356,-0.57878 0.25631,-0.26458 0.74414,-0.27009 h 0.0358 q 0.54846,0 0.93431,0.2067 l -0.11024,0.35278 q -0.40239,-0.17088 -0.8158,-0.17088 -0.25631,0.003 -0.42168,0.12954 -0.1626,0.12402 -0.1626,0.31419 0,0.19017 0.0827,0.28663 0.0827,0.0937 0.31419,0.14883 z"
         style="font-style:normal;font-variant:normal;font-weight:normal;font-stretch:normal;font-family:'Oxygen Mono';-inkscape-font-specification:'Oxygen Mono';text-align:start;text-anchor:start;fill:#ffffff;stroke-width:0.264583"
         id="path1259" />
    </g>
    <path
       style="fill:none;stroke:#0000ff;stroke-width:0.264583;stroke-linecap:butt;stroke-linejoin:miter;stroke-miterlimit:4;stroke-dasharray:0.264583, 0.79375;stroke-dashoffset:0;stroke-opacity:1;marker-end:url(#marker1784)"
       d="m 182.08171,162.78187 v -8.46666"
       id="path1780" />
    <rect
       style="fill:#ff0000;fill-rule:evenodd;stroke:none;stroke-width:0.264583;stroke-linecap:round;stroke-linejoin:round"
       id="rect1850"
       width="13.758328"
       height="8.4666681"
       x="128.10672"
       y="181.83188"
       ry="2.1166666"
       rx="2.1166649" />
    <path
       id="path1852"
       style="fill:#808000;fill-rule:evenodd;stroke:none;stroke-width:0.264583;stroke-linecap:round;stroke-linejoin:round"
       d="m 139.74838,181.83188 h 50.8 v 6.35 c 0,1.17263 -0.94403,2.11666 -2.11667,2.11666 h -52.91666 z" />
    <g
       aria-label="cat"
       id="text1856"
       style="font-size:5.64444px;line-height:1.25;font-family:'Roboto Mono';-inkscape-font-specification:'Roboto Mono';text-align:start;letter-spacing:0px;word-spacing:0px;text-anchor:start;fill:#ffffff;stroke-width:0.264583">
      <path
         d="m 144.62664,187.98345 q -0.28939,0.26734 -0.82407,0.26734 -0.34175,0 -0.62287,-0.12954 -0.28112,-0.13229 -0.46027,-0.35278 -0.37758,-0.46302 -0.37758,-1.11621 0,-0.42168 0.17088,-0.77997 0.17363,-0.35829 0.50987,-0.58153 0.33624,-0.22324 0.82958,-0.22324 0.49334,0 0.76619,0.26183 l -0.12678,0.33624 q -0.31695,-0.21222 -0.71658,-0.21222 -0.39963,0 -0.66421,0.34175 -0.26183,0.34176 -0.26183,0.87092 0,0.52641 0.26183,0.86266 0.26458,0.33624 0.67248,0.33624 0.41065,0 0.72209,-0.22049 z"
         style="font-style:normal;font-variant:normal;font-weight:normal;font-stretch:normal;font-family:'Oxygen Mono';-inkscape-font-specification:'Oxygen Mono';text-align:start;text-anchor:start;fill:#ffffff;stroke-width:0.264583"
         id="path1262" />
      <path
         d="m 147.59217,187.50665 v -0.7717 l -0.41065,0.0579 q -0.42995,0.0606 -0.59531,0.12127 -0.36932,0.14056 -0.36932,0.47129 0,0.22875 0.13229,0.3638 0.1323,0.13505 0.36381,0.13505 0.50987,0 0.87918,-0.37758 z m 0,-1.40836 q 0,-0.64767 -0.54846,-0.64767 -0.25907,0 -0.57326,0.0606 -0.31143,0.0606 -0.43821,0.11575 l -0.11852,-0.36931 q 0.57051,-0.19017 1.07212,-0.19017 0.5016,0 0.80477,0.22875 0.30317,0.22876 0.30317,0.70556 v 2.18005 h -0.41617 l -0.0661,-0.35002 q -0.17639,0.17915 -0.45476,0.30042 -0.2756,0.11851 -0.54019,0.11851 -0.38309,0 -0.63665,-0.22876 -0.25356,-0.23151 -0.25356,-0.65043 0,-0.42168 0.33073,-0.61736 0.22324,-0.13781 0.47405,-0.18741 0.25355,-0.0524 0.6587,-0.10198 l 0.40238,-0.0469 z"
         style="font-style:normal;font-variant:normal;font-weight:normal;font-stretch:normal;font-family:'Oxygen Mono';-inkscape-font-specification:'Oxygen Mono';text-align:start;text-anchor:start;fill:#ffffff;stroke-width:0.264583"
         id="path1264" />
      <path
         d="m 150.24627,185.54432 v 1.41938 q 0,0.26458 0.0276,0.41892 0.0303,0.15434 0.11576,0.25081 0.0882,0.0965 0.226,0.12953 0.1378,0.0331 0.37482,0.0331 h 0.55397 l -0.0276,0.38585 h -0.50711 q -0.77997,0 -1.03904,-0.28663 -0.16812,-0.18741 -0.20671,-0.60358 -0.0193,-0.18465 -0.0193,-0.45475 v -1.2926 h -0.85439 l 0.0551,-0.38585 h 0.79926 v -1.04179 l 0.5016,-0.14883 v 1.19062 h 1.27331 v 0.38585 z"
         style="font-style:normal;font-variant:normal;font-weight:normal;font-stretch:normal;font-family:'Oxygen Mono';-inkscape-font-specification:'Oxygen Mono';text-align:start;text-anchor:start;fill:#ffffff;stroke-width:0.264583"
         id="path1266" />
    </g>
    <path
       style="fill:none;stroke:#0000ff;stroke-width:0.264583;stroke-linecap:butt;stroke-linejoin:miter;stroke-miterlimit:4;stroke-dasharray:0.264583, 0.79375;stroke-dashoffset:0;stroke-opacity:1;marker-end:url(#marker1862)"
       d="M 190.54838,181.83188 V 154.31521"
       id="path1858" />
    <g
       aria-label="out"
       transform="rotate(90)"
       id="text1951"
       style="font-size:3.70417px;line-height:1.25;font-family:'Roboto Mono';-inkscape-font-specification:'Roboto Mono';text-align:start;letter-spacing:0px;word-spacing:0px;text-anchor:start;fill:#000000;stroke-width:0.264583">
      <path
         d="m 170.23672,-132.24625 q 0.34545,0 0.47025,-0.34365 0.0669,-0.18449 0.0669,-0.37801 0,-0.19534 -0.0145,-0.30386 -0.0326,-0.24598 -0.15735,-0.40153 -0.12299,-0.15554 -0.36535,-0.15554 -0.33642,0 -0.45941,0.35088 -0.0651,0.1881 -0.0651,0.39429 0,0.36535 0.11395,0.60229 0.11394,0.23513 0.41057,0.23513 z m 0.65112,-1.54642 q 0.21523,0.28939 0.21523,0.75603 0,0.46664 -0.23332,0.75602 -0.23332,0.28758 -0.63303,0.28758 -0.21343,0 -0.37983,-0.0814 -0.16639,-0.0814 -0.26949,-0.22427 -0.208,-0.28758 -0.208,-0.7488 0,-0.46121 0.22971,-0.74698 0.2297,-0.28758 0.64569,-0.28758 0.41781,0 0.63304,0.28939 z"
         style="font-style:normal;font-variant:normal;font-weight:normal;font-stretch:normal;font-size:3.70417px;font-family:'Oxygen Mono';-inkscape-font-specification:'Oxygen Mono';text-align:start;text-anchor:start;fill:#000000;stroke-width:0.264583"
         id="path1269" />
      <path
         d="m 173.23189,-132.68214 q 0,0.6891 -0.76688,0.6891 -0.76688,0 -0.76688,-0.6891 v -1.34023 h 0.32918 v 1.36917 q 0,0.21161 0.1049,0.30928 0.1049,0.0977 0.3328,0.0977 0.22789,0 0.33279,-0.0977 0.10491,-0.0977 0.10491,-0.30928 v -1.36917 h 0.32918 z"
         style="font-style:normal;font-variant:normal;font-weight:normal;font-stretch:normal;font-size:3.70417px;font-family:'Oxygen Mono';-inkscape-font-specification:'Oxygen Mono';text-align:start;text-anchor:start;fill:#000000;stroke-width:0.264583"
         id="path1271" />
      <path
         d="m 174.62999,-133.76916 v 0.93147 q 0,0.17363 0.0181,0.27492 0.0199,0.10129 0.076,0.16459 0.0579,0.0633 0.14832,0.085 0.0904,0.0217 0.24598,0.0217 h 0.36354 l -0.0181,0.25322 H 175.131 q -0.51186,0 -0.68188,-0.18811 -0.11032,-0.12299 -0.13565,-0.3961 -0.0127,-0.12118 -0.0127,-0.29843 v -0.84827 h -0.56069 l 0.0362,-0.25321 h 0.52451 v -0.68368 l 0.32918,-0.0977 v 0.78135 h 0.83561 v 0.25321 z"
         style="font-style:normal;font-variant:normal;font-weight:normal;font-stretch:normal;font-size:3.70417px;font-family:'Oxygen Mono';-inkscape-font-specification:'Oxygen Mono';text-align:start;text-anchor:start;fill:#000000;stroke-width:0.264583"
         id="path1273" />
    </g>
    <g
       aria-label="in"
       transform="rotate(90)"
       id="text1955"
       style="font-size:3.70417px;line-height:1.25;font-family:'Roboto Mono';-inkscape-font-specification:'Roboto Mono';text-align:start;letter-spacing:0px;word-spacing:0px;text-anchor:start;fill:#000000;stroke-width:0.264583">
      <path
         d="m 180.3945,-134.41486 v -0.17906 q 0,-0.0651 0.0724,-0.11395 0.0742,-0.0506 0.1465,-0.0506 0.0724,0 0.14469,0.0506 0.0742,0.0488 0.0742,0.11395 v 0.17906 q 0,0.0651 -0.0742,0.11575 -0.0723,0.0488 -0.14469,0.0488 -0.0724,0 -0.1465,-0.0488 -0.0724,-0.0506 -0.0724,-0.11575 z m -0.51185,0.77592 v -0.25321 h 0.89529 v 1.7309 h 0.56792 v 0.25321 h -1.52652 v -0.25321 h 0.62942 v -1.47769 z"
         style="font-style:normal;font-variant:normal;font-weight:normal;font-stretch:normal;font-size:3.70417px;font-family:'Oxygen Mono';-inkscape-font-specification:'Oxygen Mono';text-align:start;text-anchor:start;fill:#000000;stroke-width:0.264583"
         id="path1276" />
      <path
         d="m 182.93388,-133.95184 q 0.61676,0 0.61676,0.78135 v 1.26245 h -0.32918 v -1.22266 q 0,-0.20981 -0.0217,-0.30024 -0.0217,-0.0904 -0.0651,-0.14831 -0.0923,-0.11938 -0.30205,-0.11938 -0.21162,0 -0.35812,0.12299 -0.1465,0.12299 -0.1465,0.32557 v 1.34203 h -0.32918 v -1.98411 h 0.30205 l 0.0181,0.21523 q 0.19715,-0.27492 0.61495,-0.27492 z"
         style="font-style:normal;font-variant:normal;font-weight:normal;font-stretch:normal;font-size:3.70417px;font-family:'Oxygen Mono';-inkscape-font-specification:'Oxygen Mono';text-align:start;text-anchor:start;fill:#000000;stroke-width:0.264583"
         id="path1278" />
    </g>
  </g>
</svg>
