<?xml version="1.0" encoding="UTF-8" standalone="no"?>
<svg
   xmlns:dc="http://purl.org/dc/elements/1.1/"
   xmlns:cc="http://creativecommons.org/ns#"
   xmlns:rdf="http://www.w3.org/1999/02/22-rdf-syntax-ns#"
   xmlns:svg="http://www.w3.org/2000/svg"
   xmlns="http://www.w3.org/2000/svg"
   width="118.53333mm"
   height="25.400005mm"
   viewBox="0 0 118.53333 25.400005"
   version="1.1"
   id="svg8">
  <defs
     id="defs2">
    <marker
       style="overflow:visible"
       id="Arrow1Mend"
       refX="0"
       refY="0"
       orient="auto">
      <path
         transform="matrix(-0.4,0,0,-0.4,-4,0)"
         style="fill:#0000ff;fill-opacity:1;fill-rule:evenodd;stroke:#0000ff;stroke-width:1pt;stroke-opacity:1"
         d="M 0,0 5,-5 -12.5,0 5,5 Z"
         id="path1430" />
    </marker>
  </defs>
  <metadata
     id="metadata5">
    <rdf:RDF>
      <cc:Work
         rdf:about="">
        <dc:format>image/svg+xml</dc:format>
        <dc:type
           rdf:resource="http://purl.org/dc/dcmitype/StillImage" />
        <dc:title></dc:title>
      </cc:Work>
    </rdf:RDF>
  </metadata>
  <g
     id="layer1"
     transform="translate(-46.566668,-135.46666)">
    <path
       id="rect1117"
       style="fill:#ff0000;fill-rule:evenodd;stroke:none;stroke-width:0.264583;stroke-linecap:round;stroke-linejoin:round"
       d="M 46.566668,135.46667 H 71.985991 74.113106 165.1 v 8.46666 H 46.566668 Z" />
    <path
       style="fill:none;stroke:#ff0000;stroke-width:8.46667;stroke-linecap:butt;stroke-linejoin:miter;stroke-miterlimit:4;stroke-dasharray:none;stroke-opacity:1"
       d="m 55.033335,139.7 c 16.933334,0 8.466666,16.93333 25.4,16.93333"
       id="path1408" />
    <g
       aria-label="bash"
       id="text1121"
       style="font-size:5.64444px;line-height:1.25;font-family:'Roboto Mono';-inkscape-font-specification:'Roboto Mono';text-align:start;letter-spacing:0px;word-spacing:0px;text-anchor:start;fill:#ffffff;stroke-width:0.264583">
      <path
         d="m 51.79219,140.66463 q 0.04961,0.38585 0.23151,0.60909 0.184657,0.22324 0.562239,0.22324 0.509874,0 0.689019,-0.52917 0.09095,-0.27836 0.09095,-0.57877 0,-0.30317 -0.01929,-0.46578 -0.04134,-0.38585 -0.21773,-0.60909 -0.173633,-0.226 -0.542947,-0.226 -0.61736,0 -0.755164,0.59531 -0.05788,0.24805 -0.05788,0.53193 0,0.28112 0.01929,0.44924 z m -0.01929,-1.45521 q 0.305925,-0.50712 0.915017,-0.50712 0.611848,0 0.895724,0.44097 0.286632,0.44098 0.286632,1.10795 0,0.87367 -0.413411,1.31464 -0.297656,0.31971 -0.810286,0.31971 -0.338997,0 -0.518142,-0.12403 -0.176389,-0.12678 -0.355534,-0.35829 l -0.0055,0.41342 h -0.496093 v -4.25814 l 0.501605,-0.0551 z"
         style="font-style:normal;font-variant:normal;font-weight:normal;font-stretch:normal;font-family:'Oxygen Mono';-inkscape-font-specification:'Oxygen Mono';text-align:start;text-anchor:start;fill:#ffffff;stroke-width:0.264583"
         id="path883" />
      <path
         d="m 56.527126,141.14143 v -0.7717 l -0.410656,0.0579 q -0.429947,0.0606 -0.595312,0.12127 -0.369314,0.14056 -0.369314,0.47129 0,0.22875 0.132292,0.3638 0.132292,0.13505 0.363802,0.13505 0.509874,0 0.879188,-0.37758 z m 0,-1.40836 q 0,-0.64767 -0.548459,-0.64767 -0.259071,0 -0.573264,0.0606 -0.311436,0.0606 -0.438216,0.11575 l -0.118511,-0.36931 q 0.570508,-0.19017 1.072113,-0.19017 0.501606,0 0.804774,0.22876 0.303168,0.22875 0.303168,0.70555 v 2.18006 h -0.416167 l -0.06615,-0.35003 q -0.176389,0.17915 -0.454752,0.30042 -0.275608,0.11851 -0.540191,0.11851 -0.383094,0 -0.636653,-0.22876 -0.253559,-0.23151 -0.253559,-0.65043 0,-0.42168 0.330729,-0.61736 0.223242,-0.1378 0.474045,-0.18741 0.253559,-0.0524 0.658702,-0.10198 l 0.402387,-0.0468 z"
         style="font-style:normal;font-variant:normal;font-weight:normal;font-stretch:normal;font-family:'Oxygen Mono';-inkscape-font-specification:'Oxygen Mono';text-align:start;text-anchor:start;fill:#ffffff;stroke-width:0.264583"
         id="path885" />
      <path
         d="m 59.635977,140.09963 q 0.391363,0.0965 0.570508,0.30593 0.181901,0.20946 0.181901,0.60633 0,0.39412 -0.303169,0.6339 -0.300412,0.23978 -0.755164,0.23978 -0.325217,0 -0.631141,-0.0799 -0.305924,-0.0827 -0.451996,-0.19292 l 0.124023,-0.36105 q 0.115755,0.0717 0.366558,0.14607 0.250803,0.0717 0.542947,0.0717 0.2949,0 0.468532,-0.12127 0.176389,-0.12402 0.176389,-0.32797 0,-0.20395 -0.08819,-0.3197 -0.08544,-0.11852 -0.333485,-0.17915 l -0.51263,-0.12402 q -0.443728,-0.11025 -0.5898,-0.31971 -0.146072,-0.21221 -0.146072,-0.52641 0,-0.31419 0.253559,-0.57877 0.256315,-0.26459 0.74414,-0.2701 h 0.03583 q 0.548459,0 0.934309,0.20671 l -0.110243,0.35277 q -0.402387,-0.17087 -0.815798,-0.17087 -0.256315,0.003 -0.421679,0.12953 -0.162609,0.12403 -0.162609,0.3142 0,0.19017 0.08268,0.28663 0.08268,0.0937 0.314192,0.14883 z"
         style="font-style:normal;font-variant:normal;font-weight:normal;font-stretch:normal;font-family:'Oxygen Mono';-inkscape-font-specification:'Oxygen Mono';text-align:start;text-anchor:start;fill:#ffffff;stroke-width:0.264583"
         id="path887" />
      <path
         d="m 63.838991,139.99214 v 1.82453 h -0.501606 v -1.76114 q 0,-0.56775 -0.151584,-0.76618 -0.151584,-0.2012 -0.457508,-0.2012 -0.308681,0 -0.537435,0.21498 -0.225998,0.21221 -0.225998,0.4575 v 2.05604 h -0.501606 v -4.25814 l 0.501606,-0.0551 v 1.6564 q 0.352777,-0.45751 0.945333,-0.45751 0.928798,0 0.928798,1.28984 z"
         style="font-style:normal;font-variant:normal;font-weight:normal;font-stretch:normal;font-family:'Oxygen Mono';-inkscape-font-specification:'Oxygen Mono';text-align:start;text-anchor:start;fill:#ffffff;stroke-width:0.264583"
         id="path889" />
    </g>
    <rect
       style="fill:#ff0000;fill-rule:evenodd;stroke:none;stroke-width:0.264583;stroke-linecap:round;stroke-linejoin:round"
       id="rect1410"
       width="13.758328"
       height="8.4666681"
       x="77.258339"
       y="152.39999"
       ry="2.1166666"
       rx="2.1166649" />
    <path
       id="rect1412"
       style="fill:#0000ff;fill-rule:evenodd;stroke:none;stroke-width:0.264583;stroke-linecap:round;stroke-linejoin:round"
       d="m 88.900001,152.4 h 42.333339 c 0,0 0,3.95258 0,6.35 0,1.17263 -0.94403,2.11667 -2.11667,2.11667 H 84.666668 Z" />
    <g
       aria-label="ps"
       id="text1417"
       style="font-size:5.64444px;line-height:1.25;font-family:'Roboto Mono';-inkscape-font-specification:'Roboto Mono';text-align:start;letter-spacing:0px;word-spacing:0px;text-anchor:start;fill:#ffffff;stroke-width:0.264583">
      <path
         d="m 91.950979,157.22038 q 0,1.21267 0.848871,1.21267 0.763433,0 0.763433,-1.21267 0,-0.67248 -0.206706,-0.93431 -0.203949,-0.26458 -0.564995,-0.26458 -0.705555,0 -0.815798,0.81579 -0.02481,0.17088 -0.02481,0.3831 z m 0.868164,1.59852 q -0.292144,0 -0.518142,-0.13505 -0.225998,-0.13504 -0.344509,-0.34726 v 1.57372 l -0.501606,0.0551 v -4.23884 h 0.501606 v 0.41616 q 0.132291,-0.22599 0.352777,-0.36655 0.220486,-0.14056 0.49885,-0.14056 0.746896,0 1.061088,0.61736 0.198437,0.39136 0.198437,0.93155 0,0.86265 -0.416167,1.31189 -0.297656,0.32246 -0.832334,0.32246 z"
         style="font-style:normal;font-variant:normal;font-weight:normal;font-stretch:normal;font-family:'Oxygen Mono';-inkscape-font-specification:'Oxygen Mono';text-align:start;text-anchor:start;fill:#ffffff;stroke-width:0.264583"
         id="path892" />
      <path
         d="m 96.465429,157.03297 q 0.391363,0.0965 0.570508,0.30592 0.1819,0.20946 0.1819,0.60634 0,0.39411 -0.303168,0.63389 -0.300412,0.23978 -0.755164,0.23978 -0.325217,0 -0.631141,-0.0799 -0.305924,-0.0827 -0.451996,-0.19293 l 0.124023,-0.36105 q 0.115755,0.0717 0.366558,0.14608 0.250803,0.0717 0.542947,0.0717 0.2949,0 0.468532,-0.12126 0.176389,-0.12403 0.176389,-0.32798 0,-0.20394 -0.08819,-0.3197 -0.08544,-0.11851 -0.333485,-0.17914 l -0.51263,-0.12403 q -0.443728,-0.11024 -0.5898,-0.3197 -0.146072,-0.21222 -0.146072,-0.52641 0,-0.3142 0.253559,-0.57878 0.256315,-0.26458 0.74414,-0.27009 h 0.03583 q 0.548459,0 0.934309,0.2067 l -0.110243,0.35278 q -0.402387,-0.17088 -0.815798,-0.17088 -0.256315,0.003 -0.421679,0.12954 -0.162609,0.12402 -0.162609,0.31419 0,0.19017 0.08268,0.28663 0.08268,0.0937 0.314192,0.14883 z"
         style="font-style:normal;font-variant:normal;font-weight:normal;font-stretch:normal;font-family:'Oxygen Mono';-inkscape-font-specification:'Oxygen Mono';text-align:start;text-anchor:start;fill:#ffffff;stroke-width:0.264583"
         id="path894" />
    </g>
    <path
       style="fill:none;stroke:#0000ff;stroke-width:0.264583;stroke-linecap:butt;stroke-linejoin:miter;stroke-miterlimit:4;stroke-dasharray:0.264583, 0.79375;stroke-dashoffset:0;stroke-opacity:1;marker-end:url(#Arrow1Mend)"
       d="m 131.23334,152.4 v -8.46667"
       id="path1419" />
  </g>
</svg>
