<?xml version="1.0" encoding="UTF-8" standalone="no"?>
<svg
   xmlns:dc="http://purl.org/dc/elements/1.1/"
   xmlns:cc="http://creativecommons.org/ns#"
   xmlns:rdf="http://www.w3.org/1999/02/22-rdf-syntax-ns#"
   xmlns:svg="http://www.w3.org/2000/svg"
   xmlns="http://www.w3.org/2000/svg"
   xmlns:xlink="http://www.w3.org/1999/xlink"
   xmlns:sodipodi="http://sodipodi.sourceforge.net/DTD/sodipodi-0.dtd"
   xmlns:inkscape="http://www.inkscape.org/namespaces/inkscape"
   version="1.1"
   preserveAspectRatio="none"
   x="0px"
   y="0px"
   width="64"
   height="64"
   viewBox="0 0 64 64"
   id="svg2"
   inkscape:version="0.91 r13725"
   sodipodi:docname="1.svg">
  <metadata
     id="metadata1740">
    <rdf:RDF>
      <cc:Work
         rdf:about="">
        <dc:format>image/svg+xml</dc:format>
        <dc:type
           rdf:resource="http://purl.org/dc/dcmitype/StillImage" />
        <dc:title></dc:title>
      </cc:Work>
    </rdf:RDF>
  </metadata>
  <sodipodi:namedview
     pagecolor="#ffffff"
     bordercolor="#666666"
     borderopacity="1"
     objecttolerance="10"
     gridtolerance="10"
     guidetolerance="10"
     inkscape:pageopacity="0"
     inkscape:pageshadow="2"
     inkscape:window-width="1848"
     inkscape:window-height="1056"
     id="namedview1738"
     showgrid="false"
     inkscape:zoom="1.6428097"
     inkscape:cx="9.7944834"
     inkscape:cy="-189.43771"
     inkscape:window-x="72"
     inkscape:window-y="0"
     inkscape:window-maximized="1"
     inkscape:current-layer="svg2"
     fit-margin-top="0"
     fit-margin-left="0"
     fit-margin-right="0"
     fit-margin-bottom="0" />
  <defs
     id="defs4">
    <g
       id="Layer0_27_FILL">
      <path
         d="m 624,617.05 q -1.55,0 -2.9,0.6 -1.1,0.5 -2.05,1.45 -2.05,2.1 -2.05,4.95 l 0,31.95 14,0 0,-31.95 q 0,-2.85 -2.05,-4.95 -2.1,-2.05 -4.95,-2.05 z"
         id="path331"
         inkscape:connector-curvature="0"
         style="fill:#ffcc00;stroke:none" />
      <path
         d="m 617.65,617.7 q 1.2,-1.25 2.65,-1.9 1.7,-0.75 3.7,-0.75 3.7,0 6.35,2.65 2.65,2.65 2.65,6.35 l 0,31.95 2,0 0,-31.95 q 0,-4.55 -3.2,-7.8 -3.25,-3.2 -7.8,-3.2 -2.45,0 -4.5,0.9 -1.75,0.8 -3.25,2.3 -3.25,3.25 -3.25,7.8 l 0,31.95 2,0 0,-31.95 q 0,-3.7 2.65,-6.35 z"
         id="path333"
         inkscape:connector-curvature="0"
         style="fill:#000000;fill-opacity:0.30196078;stroke:none" />
      <path
         d="m 620.3,615.8 q -1.45,0.65 -2.65,1.9 -2.65,2.65 -2.65,6.35 l 0,31.95 2,0 0,-31.95 q 0,-2.85 2.05,-4.95 0.95,-0.95 2.05,-1.45 1.35,-0.6 2.9,-0.6 2.85,0 4.95,2.05 2.05,2.1 2.05,4.95 l 0,31.95 2,0 0,-31.95 q 0,-3.7 -2.65,-6.35 -2.65,-2.65 -6.35,-2.65 -2,0 -3.7,0.75 z"
         id="path335"
         inkscape:connector-curvature="0"
         style="fill:#ffffff;stroke:none" />
    </g>
  </defs>
  <g
     id="g1290"
     transform="matrix(1,0,0,-1,-592,656)">
    <use
       xlink:href="#Layer0_27_FILL"
       id="use1292"
       x="0"
       y="0"
       width="100%"
       height="100%" />
  </g>
</svg>
