<?xml version="1.0" encoding="UTF-8" standalone="no"?>
<svg
   xmlns:dc="http://purl.org/dc/elements/1.1/"
   xmlns:cc="http://creativecommons.org/ns#"
   xmlns:rdf="http://www.w3.org/1999/02/22-rdf-syntax-ns#"
   xmlns:svg="http://www.w3.org/2000/svg"
   xmlns="http://www.w3.org/2000/svg"
   width="143.93333mm"
   height="42.333336mm"
   viewBox="0 0 143.93333 42.333335"
   version="1.1"
   id="svg8">
  <defs
     id="defs2">
    <marker
       style="overflow:visible"
       id="marker2398"
       refX="0"
       refY="0"
       orient="auto">
      <path
         transform="matrix(-0.4,0,0,-0.4,-4,0)"
         style="fill:#0000ff;fill-opacity:1;fill-rule:evenodd;stroke:#0000ff;stroke-width:1pt;stroke-opacity:1"
         d="M 0,0 5,-5 -12.5,0 5,5 Z"
         id="path2396" />
    </marker>
    <marker
       style="overflow:visible"
       id="marker2388"
       refX="0"
       refY="0"
       orient="auto">
      <path
         transform="matrix(-0.4,0,0,-0.4,-4,0)"
         style="fill:#0000ff;fill-opacity:1;fill-rule:evenodd;stroke:#0000ff;stroke-width:1pt;stroke-opacity:1"
         d="M 0,0 5,-5 -12.5,0 5,5 Z"
         id="path2386" />
    </marker>
    <marker
       style="overflow:visible"
       id="marker2608"
       refX="0"
       refY="0"
       orient="auto">
      <path
         transform="matrix(-0.4,0,0,-0.4,-4,0)"
         style="fill:#0000ff;fill-opacity:1;fill-rule:evenodd;stroke:#0000ff;stroke-width:1pt;stroke-opacity:1"
         d="M 0,0 5,-5 -12.5,0 5,5 Z"
         id="path2606" />
    </marker>
    <marker
       style="overflow:visible"
       id="marker3080"
       refX="0"
       refY="0"
       orient="auto">
      <path
         transform="matrix(-0.4,0,0,-0.4,-4,0)"
         style="fill:#0000ff;fill-opacity:1;fill-rule:evenodd;stroke:#0000ff;stroke-width:1pt;stroke-opacity:1"
         d="M 0,0 5,-5 -12.5,0 5,5 Z"
         id="path3078" />
    </marker>
    <marker
       style="overflow:visible"
       id="marker3258"
       refX="0"
       refY="0"
       orient="auto">
      <path
         transform="matrix(-0.4,0,0,-0.4,-4,0)"
         style="fill:#0000ff;fill-opacity:1;fill-rule:evenodd;stroke:#0000ff;stroke-width:1pt;stroke-opacity:1"
         d="M 0,0 5,-5 -12.5,0 5,5 Z"
         id="path3256" />
    </marker>
    <marker
       style="overflow:visible"
       id="marker3478"
       refX="0"
       refY="0"
       orient="auto">
      <path
         transform="matrix(-0.4,0,0,-0.4,-4,0)"
         style="fill:#0000ff;fill-opacity:1;fill-rule:evenodd;stroke:#0000ff;stroke-width:1pt;stroke-opacity:1"
         d="M 0,0 5,-5 -12.5,0 5,5 Z"
         id="path3476" />
    </marker>
  </defs>
  <metadata
     id="metadata5">
    <rdf:RDF>
      <cc:Work
         rdf:about="">
        <dc:format>image/svg+xml</dc:format>
        <dc:type
           rdf:resource="http://purl.org/dc/dcmitype/StillImage" />
        <dc:title></dc:title>
      </cc:Work>
    </rdf:RDF>
  </metadata>
  <path
     style="stroke:#ff8080;stroke-width:8.46667;stroke-linecap:butt;stroke-linejoin:miter;stroke-miterlimit:4;stroke-dasharray:none;stroke-opacity:1"
     d="m 31.75,21.166665 c 16.933331,0 8.466661,16.93333 25.4,16.93333"
     id="path3244" />
  <path
     id="path3054"
     style="fill:#ff0000;fill-rule:evenodd;stroke:none;stroke-width:0.264583;stroke-linecap:round;stroke-linejoin:round"
     d="m 0,2.018158e-6 h 27.008029 2.26006 l 114.665251,1e-6 V 8.466669 L 0,8.466668 Z" />
  <path
     style="fill:none;stroke:#ff0000;stroke-width:8.46667;stroke-linecap:butt;stroke-linejoin:miter;stroke-miterlimit:4;stroke-dasharray:none;stroke-opacity:1"
     d="m 2.11667,4.233335 c 16.93333,0 8.46666,16.93333 25.399999,16.93333"
     id="path3056" />
  <g
     aria-label="bash"
     id="text3060"
     style="font-size:5.64444px;line-height:1.25;font-family:'Roboto Mono';-inkscape-font-specification:'Roboto Mono';text-align:start;letter-spacing:0px;word-spacing:0px;text-anchor:start;fill:#ffffff;stroke-width:0.264583">
    <path
       d="m 5.2255237,5.1979589 q 0.049609,0.3858504 0.2315102,0.6090925 0.184657,0.223242 0.5622392,0.223242 0.5098737,0 0.6890186,-0.5291663 0.09095,-0.2783635 0.09095,-0.5787756 0,-0.3031682 -0.019292,-0.4657765 Q 6.7386085,4.0707245 6.5622197,3.8474825 6.388587,3.6214844 6.0192731,3.6214844 q -0.6173607,0 -0.7551644,0.5953121 -0.057878,0.2480467 -0.057878,0.5319223 0,0.2811196 0.019292,0.4492401 z M 5.2062312,3.7427517 Q 5.5121554,3.235634 6.1212478,3.235634 q 0.6118485,0 0.8957242,0.4409719 0.2866317,0.4409719 0.2866317,1.1079419 0,0.8736755 -0.4134111,1.3146474 -0.2976561,0.3197047 -0.8102859,0.3197047 -0.3389971,0 -0.518142,-0.1240234 Q 5.385376,6.1680971 5.2062312,5.9365869 L 5.200719,6.349998 H 4.7046256 V 2.0918632 l 0.5016056,-0.055122 z"
       style="font-style:normal;font-variant:normal;font-weight:normal;font-stretch:normal;font-family:'Oxygen Mono';-inkscape-font-specification:'Oxygen Mono';text-align:start;text-anchor:start;fill:#ffffff;stroke-width:0.264583"
       id="path3390" />
    <path
       d="M 9.9604594,5.6747598 V 4.903059 l -0.4106551,0.057878 q -0.4299476,0.060634 -0.595312,0.1212673 -0.369314,0.1405598 -0.369314,0.4712887 0,0.2287542 0.1322916,0.3638018 0.1322915,0.1350477 0.3638018,0.1350477 0.5098737,0 0.8791877,-0.3775822 z m 0,-1.408354 q 0,-0.6476774 -0.5484588,-0.6476774 -0.259071,0 -0.5732635,0.060634 -0.3114364,0.060634 -0.4382158,0.1157551 L 8.2820101,3.4258032 Q 8.8525175,3.235634 9.354123,3.235634 q 0.5016056,0 0.804774,0.2287542 0.303168,0.2287542 0.303168,0.705555 V 6.349998 H 10.045898 L 9.9797519,5.9999766 Q 9.8033631,6.1791214 9.5249996,6.3003887 9.2493922,6.4188999 8.9848091,6.4188999 q -0.3830943,0 -0.6366532,-0.2287542 -0.2535588,-0.2315103 -0.2535588,-0.6504335 0,-0.4216794 0.3307289,-0.6173607 Q 8.648568,4.7845478 8.8993708,4.7349385 9.1529296,4.682573 9.5580725,4.6329637 l 0.4023869,-0.046853 z"
       style="font-style:normal;font-variant:normal;font-weight:normal;font-stretch:normal;font-family:'Oxygen Mono';-inkscape-font-specification:'Oxygen Mono';text-align:start;text-anchor:start;fill:#ffffff;stroke-width:0.264583"
       id="path3392" />
    <path
       d="m 13.069311,4.6329637 q 0.391363,0.096463 0.570508,0.3059243 0.181901,0.2094616 0.181901,0.6063363 0,0.3941186 -0.303169,0.6338971 -0.300412,0.2397785 -0.755164,0.2397785 -0.325217,0 -0.631141,-0.079926 -0.305924,-0.082682 -0.451996,-0.1929252 l 0.124023,-0.3610457 q 0.115755,0.071658 0.366558,0.1460719 0.250803,0.071658 0.542947,0.071658 0.2949,0 0.468532,-0.1212672 0.176389,-0.1240234 0.176389,-0.3279729 0,-0.2039495 -0.08819,-0.3197046 Q 13.185066,5.1152767 12.93702,5.0546431 L 12.42439,4.9306197 Q 11.980662,4.8203768 11.83459,4.6109151 11.688518,4.3986974 11.688518,4.0845049 q 0,-0.3141925 0.253559,-0.5787756 0.256315,-0.2645831 0.74414,-0.2700953 h 0.03583 q 0.548459,0 0.934309,0.2067056 l -0.110243,0.3527775 q -0.402387,-0.1708766 -0.815798,-0.1708766 -0.256315,0.00276 -0.421679,0.1295355 -0.162609,0.1240233 -0.162609,0.3141925 0,0.1901691 0.08268,0.2866317 0.08268,0.093706 0.314192,0.148828 z"
       style="font-style:normal;font-variant:normal;font-weight:normal;font-stretch:normal;font-family:'Oxygen Mono';-inkscape-font-specification:'Oxygen Mono';text-align:start;text-anchor:start;fill:#ffffff;stroke-width:0.264583"
       id="path3394" />
    <path
       d="M 17.272324,4.5254768 V 6.349998 H 16.770719 V 4.5888665 q 0,-0.5677513 -0.151584,-0.7661886 -0.151584,-0.2011935 -0.457509,-0.2011935 -0.30868,0 -0.537434,0.2149738 -0.225998,0.2122178 -0.225998,0.4575084 V 6.349998 H 14.896588 V 2.0918632 l 0.501606,-0.055122 v 1.6564007 q 0.352777,-0.4575084 0.945333,-0.4575084 0.928797,0 0.928797,1.2898428 z"
       style="font-style:normal;font-variant:normal;font-weight:normal;font-stretch:normal;font-family:'Oxygen Mono';-inkscape-font-specification:'Oxygen Mono';text-align:start;text-anchor:start;fill:#ffffff;stroke-width:0.264583"
       id="path3396" />
  </g>
  <rect
     style="fill:#ff0000;fill-rule:evenodd;stroke:none;stroke-width:0.264583;stroke-linecap:round;stroke-linejoin:round"
     id="rect3068"
     width="13.758328"
     height="8.4666681"
     x="24.341661"
     y="16.933332"
     ry="2.1166666"
     rx="2.1166649" />
  <path
     id="path3070"
     style="fill:#ff8080;fill-rule:evenodd;stroke:none;stroke-width:0.264583;stroke-linecap:round;stroke-linejoin:round"
     d="m 31.75,16.933335 h 103.71667 v 6.35 c 0,1.17263 -0.94403,2.11667 -2.11667,2.11667 H 27.516669 Z" />
  <g
     aria-label="./mcd (bash)"
     id="text3074"
     style="font-size:5.64444px;line-height:1.25;font-family:'Roboto Mono';-inkscape-font-specification:'Roboto Mono';text-align:start;letter-spacing:0px;word-spacing:0px;text-anchor:start;fill:#f9f9f9;stroke-width:0.264583">
    <path
       d="m 35.972294,23.283333 h -0.829578 v -0.829579 h 0.829578 z"
       style="font-style:normal;font-variant:normal;font-weight:normal;font-stretch:normal;font-family:'Oxygen Mono';-inkscape-font-specification:'Oxygen Mono';text-align:start;text-anchor:start;fill:#f9f9f9;stroke-width:0.264583"
       id="path3399" />
    <path
       d="m 39.698507,18.914955 h 0.542946 l -1.954056,4.985738 h -0.526411 z"
       style="font-style:normal;font-variant:normal;font-weight:normal;font-stretch:normal;font-family:'Oxygen Mono';-inkscape-font-specification:'Oxygen Mono';text-align:start;text-anchor:start;fill:#f9f9f9;stroke-width:0.264583"
       id="path3401" />
    <path
       d="m 42.482142,20.637501 q 0.181901,-0.468532 0.636653,-0.468532 0.57602,0 0.650434,0.829578 0.01378,0.15434 0.01378,0.347266 v 1.93752 H 43.322744 V 21.40369 q 0,-0.542946 -0.07166,-0.672482 -0.07166,-0.132292 -0.132292,-0.15434 -0.05788,-0.02205 -0.129535,-0.02205 -0.242535,0 -0.34451,0.270096 -0.06615,0.173632 -0.06615,0.584287 v 1.874131 h -0.421679 v -1.843814 q 0,-0.609092 -0.143316,-0.790993 -0.07441,-0.09371 -0.214974,-0.09371 -0.137803,0 -0.237022,0.121268 -0.184657,0.225998 -0.184657,0.620116 v 1.98713 h -0.460264 v -3.023414 h 0.39963 l 0.03032,0.399631 q 0.07993,-0.206705 0.220486,-0.347265 0.14056,-0.143316 0.350022,-0.143316 0.212217,0 0.358289,0.124023 0.148828,0.124024 0.206706,0.344509 z"
       style="font-style:normal;font-variant:normal;font-weight:normal;font-stretch:normal;font-family:'Oxygen Mono';-inkscape-font-specification:'Oxygen Mono';text-align:start;text-anchor:start;fill:#f9f9f9;stroke-width:0.264583"
       id="path3403" />
    <path
       d="m 46.789886,23.084895 q -0.289388,0.26734 -0.824066,0.26734 -0.341754,0 -0.622873,-0.129536 -0.28112,-0.132291 -0.460265,-0.352777 -0.377582,-0.463021 -0.377582,-1.11621 0,-0.42168 0.170877,-0.779969 0.173632,-0.35829 0.509874,-0.581532 0.336241,-0.223242 0.829578,-0.223242 0.493337,0 0.766189,0.261827 l -0.12678,0.336241 q -0.316948,-0.212218 -0.716579,-0.212218 -0.399631,0 -0.664214,0.341753 -0.261827,0.341754 -0.261827,0.87092 0,0.52641 0.261827,0.862651 0.264583,0.336241 0.672482,0.336241 0.410655,0 0.722092,-0.220486 z"
       style="font-style:normal;font-variant:normal;font-weight:normal;font-stretch:normal;font-family:'Oxygen Mono';-inkscape-font-specification:'Oxygen Mono';text-align:start;text-anchor:start;fill:#f9f9f9;stroke-width:0.264583"
       id="path3405" />
    <path
       d="m 49.835348,21.753712 q 0,-0.705555 -0.209461,-0.950846 -0.209462,-0.248047 -0.595313,-0.248047 -0.534678,0 -0.691774,0.529167 -0.08544,0.289387 -0.08544,0.697286 0,1.185112 0.777212,1.185112 0.804774,0 0.804774,-1.212672 z m 0,-1.077625 v -1.650889 l 0.501606,-0.05512 v 4.313256 H 49.835348 V 22.8148 q -0.305924,0.537435 -0.865407,0.537435 -0.639409,0 -0.931553,-0.457509 Q 47.749,22.437218 47.749,21.745443 q 0,-0.832334 0.424435,-1.267794 0.297656,-0.30868 0.799262,-0.30868 0.341753,0 0.553971,0.14056 0.214974,0.140559 0.30868,0.366558 z"
       style="font-style:normal;font-variant:normal;font-weight:normal;font-stretch:normal;font-family:'Oxygen Mono';-inkscape-font-specification:'Oxygen Mono';text-align:start;text-anchor:start;fill:#f9f9f9;stroke-width:0.264583"
       id="path3407" />
    <path
       d="m 56.086124,23.702256 q -0.840602,-1.121722 -0.840602,-2.543856 0,-1.424891 0.832334,-2.574174 h 0.485069 q -0.782725,1.234721 -0.782725,2.546613 0,0.735872 0.20395,1.353232 0.206705,0.617361 0.584287,1.218185 z"
       style="font-style:normal;font-variant:normal;font-weight:normal;font-stretch:normal;font-family:'Oxygen Mono';-inkscape-font-specification:'Oxygen Mono';text-align:start;text-anchor:start;fill:#f9f9f9;stroke-width:0.264583"
       id="path3409" />
    <path
       d="m 58.569349,22.131294 q 0.04961,0.38585 0.23151,0.609092 0.184657,0.223242 0.562239,0.223242 0.509874,0 0.689019,-0.529166 0.09095,-0.278364 0.09095,-0.578776 0,-0.303168 -0.01929,-0.465776 -0.04134,-0.385851 -0.217729,-0.609093 -0.173633,-0.225998 -0.542947,-0.225998 -0.617361,0 -0.755164,0.595312 -0.05788,0.248047 -0.05788,0.531923 0,0.281119 0.01929,0.44924 z m -0.01929,-1.455207 q 0.305924,-0.507118 0.915017,-0.507118 0.611848,0 0.895724,0.440972 0.286632,0.440972 0.286632,1.107942 0,0.873675 -0.413412,1.314647 -0.297656,0.319705 -0.810285,0.319705 -0.338998,0 -0.518142,-0.124024 -0.176389,-0.126779 -0.355534,-0.358289 l -0.0055,0.413411 H 58.04845 v -4.258135 l 0.501606,-0.05512 z"
       style="font-style:normal;font-variant:normal;font-weight:normal;font-stretch:normal;font-family:'Oxygen Mono';-inkscape-font-specification:'Oxygen Mono';text-align:start;text-anchor:start;fill:#f9f9f9;stroke-width:0.264583"
       id="path3411" />
    <path
       d="m 63.304284,22.608095 v -0.771701 l -0.410656,0.05788 q -0.429947,0.06063 -0.595312,0.121268 -0.369314,0.140559 -0.369314,0.471288 0,0.228755 0.132292,0.363802 0.132292,0.135048 0.363802,0.135048 0.509874,0 0.879188,-0.377582 z m 0,-1.408354 q 0,-0.647678 -0.548459,-0.647678 -0.259071,0 -0.573264,0.06063 -0.311436,0.06063 -0.438216,0.115755 l -0.118511,-0.369314 q 0.570508,-0.190169 1.072113,-0.190169 0.501606,0 0.804774,0.228754 0.303168,0.228754 0.303168,0.705555 v 2.180055 h -0.416167 l -0.06615,-0.350022 q -0.176389,0.179145 -0.454752,0.300412 -0.275608,0.118512 -0.540191,0.118512 -0.383094,0 -0.636653,-0.228754 -0.253559,-0.231511 -0.253559,-0.650434 0,-0.421679 0.330729,-0.617361 0.223242,-0.137803 0.474045,-0.187413 0.253559,-0.05236 0.658702,-0.101974 l 0.402387,-0.04685 z"
       style="font-style:normal;font-variant:normal;font-weight:normal;font-stretch:normal;font-family:'Oxygen Mono';-inkscape-font-specification:'Oxygen Mono';text-align:start;text-anchor:start;fill:#f9f9f9;stroke-width:0.264583"
       id="path3413" />
    <path
       d="m 66.413135,21.566299 q 0.391362,0.09646 0.570507,0.305924 0.181901,0.209461 0.181901,0.606336 0,0.394119 -0.303168,0.633897 -0.300412,0.239779 -0.755165,0.239779 -0.325216,0 -0.631141,-0.07993 -0.305924,-0.08268 -0.451996,-0.192926 l 0.124024,-0.361045 q 0.115755,0.07166 0.366557,0.146072 0.250803,0.07166 0.542947,0.07166 0.2949,0 0.468533,-0.121267 0.176388,-0.124023 0.176388,-0.327973 0,-0.203949 -0.08819,-0.319704 -0.08544,-0.118511 -0.333485,-0.179145 l -0.51263,-0.124023 q -0.443728,-0.110243 -0.5898,-0.319705 -0.146072,-0.212218 -0.146072,-0.52641 0,-0.314193 0.253559,-0.578776 0.256315,-0.264583 0.74414,-0.270095 h 0.03583 q 0.548459,0 0.93431,0.206705 l -0.110243,0.352778 q -0.402387,-0.170877 -0.815798,-0.170877 -0.256315,0.0028 -0.42168,0.129536 -0.162608,0.124023 -0.162608,0.314192 0,0.190169 0.08268,0.286632 0.08268,0.09371 0.314192,0.148828 z"
       style="font-style:normal;font-variant:normal;font-weight:normal;font-stretch:normal;font-family:'Oxygen Mono';-inkscape-font-specification:'Oxygen Mono';text-align:start;text-anchor:start;fill:#f9f9f9;stroke-width:0.264583"
       id="path3415" />
    <path
       d="m 70.616149,21.458812 v 1.824521 h -0.501605 v -1.761132 q 0,-0.567751 -0.151584,-0.766188 -0.151584,-0.201194 -0.457509,-0.201194 -0.30868,0 -0.537434,0.214974 -0.225998,0.212218 -0.225998,0.457508 v 2.056032 h -0.501606 v -4.258135 l 0.501606,-0.05512 v 1.6564 q 0.352777,-0.457508 0.945333,-0.457508 0.928797,0 0.928797,1.289843 z"
       style="font-style:normal;font-variant:normal;font-weight:normal;font-stretch:normal;font-family:'Oxygen Mono';-inkscape-font-specification:'Oxygen Mono';text-align:start;text-anchor:start;fill:#f9f9f9;stroke-width:0.264583"
       id="path3417" />
    <path
       d="m 72.539888,18.584226 q 0.832335,1.149283 0.832335,2.574174 0,1.422134 -0.840603,2.543856 h -0.485069 q 0.377582,-0.600824 0.581532,-1.218185 0.206705,-0.61736 0.206705,-1.353232 0,-1.311892 -0.782725,-2.546613 z"
       style="font-style:normal;font-variant:normal;font-weight:normal;font-stretch:normal;font-family:'Oxygen Mono';-inkscape-font-specification:'Oxygen Mono';text-align:start;text-anchor:start;fill:#f9f9f9;stroke-width:0.264583"
       id="path3419" />
  </g>
  <path
     style="fill:none;stroke:#0000ff;stroke-width:0.264583;stroke-linecap:butt;stroke-linejoin:miter;stroke-miterlimit:4;stroke-dasharray:0.264583, 0.79375;stroke-dashoffset:0;stroke-opacity:1;marker-end:url(#marker3080)"
     d="M 135.46667,16.933335 V 8.466668"
     id="path3076" />
  <rect
     style="fill:#ff8080;fill-rule:evenodd;stroke-width:1"
     id="rect3246"
     width="13.758328"
     height="8.4666681"
     x="53.974991"
     y="33.866665"
     ry="2.1166666"
     rx="2.1166649" />
  <path
     id="path3248"
     style="fill:#0000ff;fill-rule:evenodd;stroke:none;stroke-width:0.264583;stroke-linecap:round;stroke-linejoin:round"
     d="m 65.616661,33.866667 h 21.16668 v 6.35 c 0,1.172628 -0.94403,2.116669 -2.116669,2.116669 H 61.383331 Z" />
  <g
     aria-label="mkdir"
     id="text3252"
     style="font-size:5.64444px;line-height:1.25;font-family:'Roboto Mono';-inkscape-font-specification:'Roboto Mono';text-align:start;letter-spacing:0px;word-spacing:0px;text-anchor:start;fill:#f9f9f9;stroke-width:0.264583">
    <path
       d="m 69.57438,37.570836 q 0.181901,-0.468533 0.636653,-0.468533 0.576019,0 0.650433,0.829579 0.01378,0.15434 0.01378,0.347265 v 1.93752 h -0.460265 v -1.879642 q 0,-0.542947 -0.07166,-0.672483 -0.07166,-0.132291 -0.132292,-0.15434 -0.05788,-0.02205 -0.129536,-0.02205 -0.242534,0 -0.344509,0.270095 -0.06615,0.173633 -0.06615,0.584288 v 1.87413 h -0.421679 v -1.843814 q 0,-0.609092 -0.143316,-0.790993 -0.07441,-0.09371 -0.214974,-0.09371 -0.137803,0 -0.237022,0.121267 -0.184657,0.225998 -0.184657,0.620117 v 1.987129 H 68.00893 v -3.023413 h 0.39963 l 0.03032,0.39963 q 0.07993,-0.206705 0.220486,-0.347265 0.14056,-0.143316 0.350022,-0.143316 0.212217,0 0.358289,0.124024 0.148828,0.124023 0.206706,0.344509 z"
       style="font-style:normal;font-variant:normal;font-weight:normal;font-stretch:normal;font-family:'Oxygen Mono';-inkscape-font-specification:'Oxygen Mono';text-align:start;text-anchor:start;fill:#f9f9f9;stroke-width:0.264583"
       id="path3422" />
    <path
       d="m 72.200919,38.419707 1.339452,-1.226453 h 0.633897 l -1.34772,1.254013 1.532377,1.7694 H 73.73054 L 72.471014,38.678778 72.200919,38.9158 v 1.300867 h -0.501606 v -4.258135 l 0.501606,-0.05512 z"
       style="font-style:normal;font-variant:normal;font-weight:normal;font-stretch:normal;font-family:'Oxygen Mono';-inkscape-font-specification:'Oxygen Mono';text-align:start;text-anchor:start;fill:#f9f9f9;stroke-width:0.264583"
       id="path3424" />
    <path
       d="m 76.927586,38.687046 q 0,-0.705555 -0.209462,-0.950846 -0.209461,-0.248046 -0.595312,-0.248046 -0.534678,0 -0.691774,0.529166 -0.08544,0.289388 -0.08544,0.697287 0,1.185112 0.777213,1.185112 0.804774,0 0.804774,-1.212673 z m 0,-1.077625 v -1.650889 l 0.501606,-0.05512 v 4.313256 h -0.501606 v -0.468532 q -0.305924,0.537434 -0.865407,0.537434 -0.639409,0 -0.931553,-0.457508 -0.289388,-0.457509 -0.289388,-1.149283 0,-0.832335 0.424435,-1.267794 0.297656,-0.308681 0.799262,-0.308681 0.341753,0 0.553971,0.14056 0.214974,0.14056 0.30868,0.366558 z"
       style="font-style:normal;font-variant:normal;font-weight:normal;font-stretch:normal;font-family:'Oxygen Mono';-inkscape-font-specification:'Oxygen Mono';text-align:start;text-anchor:start;fill:#f9f9f9;stroke-width:0.264583"
       id="path3426" />
    <path
       d="m 79.377736,36.396748 v -0.272851 q 0,-0.09922 0.110243,-0.173633 0.112999,-0.07717 0.223242,-0.07717 0.110243,0 0.220486,0.07717 0.112999,0.07441 0.112999,0.173633 v 0.272851 q 0,0.09922 -0.112999,0.176389 -0.110243,0.07441 -0.220486,0.07441 -0.110243,0 -0.223242,-0.07441 -0.110243,-0.07717 -0.110243,-0.176389 z m -0.779969,1.182356 v -0.38585 h 1.364257 v 2.637563 h 0.865407 v 0.38585 h -2.326127 v -0.38585 h 0.959114 v -2.251713 z"
       style="font-style:normal;font-variant:normal;font-weight:normal;font-stretch:normal;font-family:'Oxygen Mono';-inkscape-font-specification:'Oxygen Mono';text-align:start;text-anchor:start;fill:#f9f9f9;stroke-width:0.264583"
       id="path3428" />
    <path
       d="m 82.778732,40.216667 h -0.501606 v -3.023413 h 0.410656 l 0.04134,0.559483 q 0.184657,-0.319705 0.485069,-0.485069 0.300412,-0.165365 0.68075,-0.165365 h 0.242535 v 0.465777 h -0.314193 q -0.482313,0 -0.763432,0.242534 -0.28112,0.239779 -0.28112,0.724848 z"
       style="font-style:normal;font-variant:normal;font-weight:normal;font-stretch:normal;font-family:'Oxygen Mono';-inkscape-font-specification:'Oxygen Mono';text-align:start;text-anchor:start;fill:#f9f9f9;stroke-width:0.264583"
       id="path3430" />
  </g>
  <path
     style="fill:none;stroke:#0000ff;stroke-width:0.264583;stroke-linecap:butt;stroke-linejoin:miter;stroke-miterlimit:4;stroke-dasharray:0.264583, 0.79375;stroke-dashoffset:0;stroke-opacity:1;marker-end:url(#marker3258)"
     d="M 86.783341,33.866667 V 25.400005"
     id="path3254" />
  <path
     style="stroke:#ff8080;stroke-width:8.46667;stroke-linecap:butt;stroke-linejoin:miter;stroke-miterlimit:4;stroke-dasharray:none;stroke-opacity:1"
     d="m 85.725011,21.166665 c 16.933329,0 8.466661,16.93333 25.399999,16.93333"
     id="path3460" />
  <rect
     style="fill:#ff8080;fill-rule:evenodd;stroke-width:1"
     id="rect3466"
     width="13.758328"
     height="8.4666681"
     x="107.95"
     y="33.866665"
     ry="2.1166666"
     rx="2.1166649" />
  <path
     id="path3468"
     style="fill:#ff5555;fill-rule:evenodd;stroke:none;stroke-width:0.264583;stroke-linecap:round;stroke-linejoin:round"
     d="m 119.59167,33.866667 h 11.64166 v 6.35 c 0,1.172628 -0.94403,2.116669 -2.11667,2.116669 h -13.75832 z" />
  <g
     aria-label="cd"
     id="text3472"
     style="font-size:5.64444px;line-height:1.25;font-family:'Roboto Mono';-inkscape-font-specification:'Roboto Mono';text-align:start;letter-spacing:0px;word-spacing:0px;text-anchor:start;fill:#f9f9f9;stroke-width:0.264583">
    <path
       d="m 124.46993,40.01823 q -0.28939,0.267339 -0.82407,0.267339 -0.34175,0 -0.62287,-0.129535 -0.28112,-0.132292 -0.46026,-0.352778 -0.37759,-0.46302 -0.37759,-1.11621 0,-0.421679 0.17088,-0.779969 0.17363,-0.35829 0.50987,-0.581532 0.33625,-0.223242 0.82958,-0.223242 0.49334,0 0.76619,0.261827 l -0.12678,0.336241 q -0.31695,-0.212217 -0.71658,-0.212217 -0.39963,0 -0.66421,0.341753 -0.26183,0.341753 -0.26183,0.870919 0,0.526411 0.26183,0.862652 0.26458,0.336241 0.67248,0.336241 0.41066,0 0.72209,-0.220486 z"
       style="font-style:normal;font-variant:normal;font-weight:normal;font-stretch:normal;font-family:'Oxygen Mono';-inkscape-font-specification:'Oxygen Mono';text-align:start;text-anchor:start;fill:#f9f9f9;stroke-width:0.264583"
       id="path3433" />
    <path
       d="m 127.51539,38.687046 q 0,-0.705555 -0.20946,-0.950846 -0.20946,-0.248046 -0.59531,-0.248046 -0.53468,0 -0.69178,0.529166 -0.0854,0.289388 -0.0854,0.697287 0,1.185112 0.77721,1.185112 0.80477,0 0.80477,-1.212673 z m 0,-1.077625 v -1.650889 l 0.50161,-0.05512 v 4.313256 h -0.50161 v -0.468532 q -0.30592,0.537434 -0.86541,0.537434 -0.6394,0 -0.93155,-0.457508 -0.28939,-0.457509 -0.28939,-1.149283 0,-0.832335 0.42444,-1.267794 0.29766,-0.308681 0.79926,-0.308681 0.34175,0 0.55397,0.14056 0.21498,0.14056 0.30868,0.366558 z"
       style="font-style:normal;font-variant:normal;font-weight:normal;font-stretch:normal;font-family:'Oxygen Mono';-inkscape-font-specification:'Oxygen Mono';text-align:start;text-anchor:start;fill:#f9f9f9;stroke-width:0.264583"
       id="path3435" />
  </g>
  <path
     style="fill:none;stroke:#0000ff;stroke-width:0.264583;stroke-linecap:butt;stroke-linejoin:miter;stroke-miterlimit:4;stroke-dasharray:0.264583, 0.79375;stroke-dashoffset:0;stroke-opacity:1;marker-end:url(#marker3478)"
     d="M 131.23333,33.866667 V 25.400005"
     id="path3474" />
</svg>
