<?xml version="1.0" encoding="UTF-8" standalone="no"?>
<svg
   xmlns:dc="http://purl.org/dc/elements/1.1/"
   xmlns:cc="http://creativecommons.org/ns#"
   xmlns:rdf="http://www.w3.org/1999/02/22-rdf-syntax-ns#"
   xmlns:svg="http://www.w3.org/2000/svg"
   xmlns="http://www.w3.org/2000/svg"
   width="84.666672mm"
   height="25.400003mm"
   viewBox="0 0 84.66667 25.400003"
   version="1.1"
   id="svg8">
  <defs
     id="defs2">
    <marker
       style="overflow:visible"
       id="marker2398"
       refX="0"
       refY="0"
       orient="auto">
      <path
         transform="matrix(-0.4,0,0,-0.4,-4,0)"
         style="fill:#0000ff;fill-opacity:1;fill-rule:evenodd;stroke:#0000ff;stroke-width:1pt;stroke-opacity:1"
         d="M 0,0 5,-5 -12.5,0 5,5 Z"
         id="path2396" />
    </marker>
    <marker
       style="overflow:visible"
       id="marker2388"
       refX="0"
       refY="0"
       orient="auto">
      <path
         transform="matrix(-0.4,0,0,-0.4,-4,0)"
         style="fill:#0000ff;fill-opacity:1;fill-rule:evenodd;stroke:#0000ff;stroke-width:1pt;stroke-opacity:1"
         d="M 0,0 5,-5 -12.5,0 5,5 Z"
         id="path2386" />
    </marker>
    <marker
       style="overflow:visible"
       id="marker2608"
       refX="0"
       refY="0"
       orient="auto">
      <path
         transform="matrix(-0.4,0,0,-0.4,-4,0)"
         style="fill:#0000ff;fill-opacity:1;fill-rule:evenodd;stroke:#0000ff;stroke-width:1pt;stroke-opacity:1"
         d="M 0,0 5,-5 -12.5,0 5,5 Z"
         id="path2606" />
    </marker>
  </defs>
  <metadata
     id="metadata5">
    <rdf:RDF>
      <cc:Work
         rdf:about="">
        <dc:format>image/svg+xml</dc:format>
        <dc:type
           rdf:resource="http://purl.org/dc/dcmitype/StillImage" />
        <dc:title></dc:title>
      </cc:Work>
    </rdf:RDF>
  </metadata>
  <path
     id="path2834"
     style="fill:#afaf10;fill-opacity:1;fill-rule:evenodd;stroke:none;stroke-width:0.529167;stroke-linecap:round;stroke-linejoin:round;stroke-miterlimit:4;stroke-dasharray:none"
     d="m 38.099999,12.03854 v 7.805205 l -2.116669,2.11667 -2.116662,-2.11667 V 12.03854 Z" />
  <path
     id="path2836"
     style="fill:#dfdf74;fill-opacity:1;fill-rule:evenodd;stroke:none;stroke-width:0.529167;stroke-linecap:round;stroke-linejoin:round;stroke-miterlimit:4;stroke-dasharray:none"
     d="M 38.099999,4.233335 V 12.03854 L 35.98333,14.155209 33.866668,12.03854 V 4.2333339 Z" />
  <path
     id="path2818"
     style="fill:#808000;fill-rule:evenodd;stroke:none;stroke-width:0.264583;stroke-linecap:round;stroke-linejoin:round"
     d="m 0,1.908158e-6 h 16.34099 1.36744 50.024897 V 6.3500018 c 0,1.0583331 -1.05833,2.1166658 -2.116668,2.1166658 H 0 Z" />
  <path
     style="fill:none;stroke:#808000;stroke-width:8.46667;stroke-linecap:butt;stroke-linejoin:miter;stroke-miterlimit:4;stroke-dasharray:none;stroke-opacity:1"
     d="m 8.46667,4.233335 c 16.933329,0 8.46666,16.933333 25.399998,16.933333"
     id="path2822" />
  <g
     aria-label="man"
     id="text2826"
     style="font-size:5.64444px;line-height:1.25;font-family:'Roboto Mono';-inkscape-font-specification:'Roboto Mono';text-align:start;letter-spacing:0px;word-spacing:0px;text-anchor:start;fill:#ffffff;stroke-width:0.264583">
    <path
       d="m 6.074395,3.7041714 q 0.1819009,-0.4685326 0.6366532,-0.4685326 0.5760195,0 0.6504335,0.8295784 0.01378,0.1543401 0.01378,0.3472653 V 6.3500028 H 6.9149977 V 4.4703601 q 0,-0.5429466 -0.071658,-0.6724821 -0.071658,-0.1322916 -0.1322916,-0.1543402 -0.057878,-0.022049 -0.1295355,-0.022049 -0.2425345,0 -0.3445093,0.2700953 -0.066146,0.1736327 -0.066146,0.5842877 V 6.3500028 H 5.7491783 V 4.5061891 q 0,-0.6090925 -0.1433159,-0.7909934 -0.074414,-0.093707 -0.2149738,-0.093707 -0.1378037,0 -0.2370224,0.1212673 -0.184657,0.2259981 -0.184657,0.6201167 V 6.3500028 H 4.5089448 V 3.3265893 H 4.9085756 L 4.9388924,3.72622 q 0.079926,-0.2067055 0.220486,-0.3472653 0.1405598,-0.1433159 0.3500214,-0.1433159 0.2122177,0 0.3582897,0.1240233 0.148828,0.1240234 0.2067055,0.3445093 z"
       style="font-style:normal;font-variant:normal;font-weight:normal;font-stretch:normal;font-family:'Oxygen Mono';-inkscape-font-specification:'Oxygen Mono';text-align:start;text-anchor:start;fill:#ffffff;stroke-width:0.264583"
       id="path2968" />
    <path
       d="M 9.9604599,5.6747646 V 4.9030638 L 9.5498048,4.9609413 Q 9.1198572,5.021575 8.9544927,5.0822086 8.5851788,5.2227684 8.5851788,5.5534973 q 0,0.2287542 0.1322916,0.3638018 0.1322915,0.1350476 0.3638018,0.1350476 0.5098737,0 0.8791877,-0.3775821 z m 0,-1.408354 q 0,-0.6476775 -0.5484588,-0.6476775 -0.259071,0 -0.5732635,0.060634 -0.3114364,0.060634 -0.4382158,0.1157551 L 8.2820106,3.4258079 Q 8.852518,3.2356388 9.3541235,3.2356388 q 0.5016055,0 0.8047735,0.2287542 0.303168,0.2287541 0.303168,0.705555 V 6.3500028 H 10.045898 L 9.9797524,5.9999813 Q 9.8033636,6.1791262 9.5250001,6.3003934 9.2493927,6.4189046 8.9848096,6.4189046 q -0.3830944,0 -0.6366532,-0.2287541 -0.2535588,-0.2315103 -0.2535588,-0.6504336 0,-0.4216793 0.3307289,-0.6173606 Q 8.6485685,4.7845526 8.8993713,4.7349432 9.1529301,4.6825778 9.558073,4.6329685 l 0.4023869,-0.046853 z"
       style="font-style:normal;font-variant:normal;font-weight:normal;font-stretch:normal;font-family:'Oxygen Mono';-inkscape-font-specification:'Oxygen Mono';text-align:start;text-anchor:start;fill:#ffffff;stroke-width:0.264583"
       id="path2970" />
    <path
       d="m 12.972849,3.2356388 q 0.939821,0 0.939821,1.1906241 V 6.3500028 H 13.411065 V 4.4868965 q 0,-0.3197046 -0.03307,-0.4575083 -0.03307,-0.1378037 -0.09922,-0.2259981 -0.140559,-0.1819009 -0.460264,-0.1819009 -0.322461,0 -0.545703,0.1874131 -0.223242,0.187413 -0.223242,0.4960933 V 6.3500028 H 11.547959 V 3.3265893 h 0.460264 l 0.02756,0.3279728 q 0.300412,-0.4189233 0.937065,-0.4189233 z"
       style="font-style:normal;font-variant:normal;font-weight:normal;font-stretch:normal;font-family:'Oxygen Mono';-inkscape-font-specification:'Oxygen Mono';text-align:start;text-anchor:start;fill:#ffffff;stroke-width:0.264583"
       id="path2972" />
  </g>
  <rect
     style="fill:#808000;fill-rule:evenodd;stroke:none;stroke-width:0.264583;stroke-linecap:round;stroke-linejoin:round"
     id="rect2838"
     width="13.758327"
     height="8.4666672"
     x="30.691669"
     y="16.933334"
     ry="2.1166666"
     rx="2.1166649" />
  <path
     id="path2840"
     style="fill:#0000ff;fill-rule:evenodd;stroke:none;stroke-width:0.264583;stroke-linecap:round;stroke-linejoin:round"
     d="m 42.333329,16.933335 h 42.333338 c 0,0 0,3.952583 0,6.349999 0,1.172633 -0.94403,2.116667 -2.11667,2.116667 H 38.099999 Z" />
  <g
     aria-label="less"
     id="text2844"
     style="font-size:5.64444px;line-height:1.25;font-family:'Roboto Mono';-inkscape-font-specification:'Roboto Mono';text-align:start;letter-spacing:0px;word-spacing:0px;text-anchor:start;fill:#ffffff;stroke-width:0.264583">
    <path
       d="m 47.313554,23.283333 h -0.39963 q -0.531923,0 -0.760677,-0.110243 Q 46.020955,23.1097 45.943785,23.027018 45.739836,22.8148 45.731568,22.089953 v -2.734026 h -0.903993 v -0.38585 h 1.405598 v 3.095071 q 0,0.548459 0.09922,0.672482 0.101975,0.124023 0.253559,0.143316 0.151584,0.01654 0.30868,0.01654 h 0.443728 z"
       style="font-style:normal;font-variant:normal;font-weight:normal;font-stretch:normal;font-family:'Oxygen Mono';-inkscape-font-specification:'Oxygen Mono';text-align:start;text-anchor:start;fill:#ffffff;stroke-width:0.264583"
       id="path2975" />
    <path
       d="m 48.964443,23.142773 q -0.316949,-0.212218 -0.471289,-0.567751 -0.151584,-0.35829 -0.151584,-0.80753 0,-0.44924 0.14056,-0.804774 0.143316,-0.358289 0.424435,-0.576019 0.283876,-0.220486 0.622873,-0.220486 0.639409,0 0.937065,0.438216 0.297656,0.438215 0.297656,1.077625 v 0.16812 h -1.915471 q 0.01654,0.465777 0.23151,0.790994 0.21773,0.325216 0.650434,0.325216 0.289387,-0.02756 0.807529,-0.314192 l 0.165365,0.341753 q -0.35829,0.35829 -0.978407,0.35829 -0.443728,0 -0.760676,-0.209462 z m 1.320159,-1.659157 q -0.05512,-0.928797 -0.650433,-0.928797 -0.672482,0 -0.768945,0.928797 z"
       style="font-style:normal;font-variant:normal;font-weight:normal;font-stretch:normal;font-family:'Oxygen Mono';-inkscape-font-specification:'Oxygen Mono';text-align:start;text-anchor:start;fill:#ffffff;stroke-width:0.264583"
       id="path2977" />
    <path
       d="m 53.285967,21.566299 q 0.391363,0.09646 0.570508,0.305924 0.181901,0.209461 0.181901,0.606336 0,0.394119 -0.303168,0.633897 -0.300413,0.239779 -0.755165,0.239779 -0.325217,0 -0.631141,-0.07993 -0.305924,-0.08268 -0.451996,-0.192926 l 0.124023,-0.361045 q 0.115755,0.07166 0.366558,0.146072 0.250803,0.07166 0.542947,0.07166 0.2949,0 0.468533,-0.121267 0.176388,-0.124023 0.176388,-0.327973 0,-0.203949 -0.08819,-0.319704 -0.08544,-0.118511 -0.333485,-0.179145 l -0.51263,-0.124023 q -0.443728,-0.110243 -0.5898,-0.319705 -0.146072,-0.212218 -0.146072,-0.52641 0,-0.314193 0.253559,-0.578776 0.256315,-0.264583 0.74414,-0.270095 h 0.03583 q 0.548459,0 0.934309,0.206705 l -0.110243,0.352778 q -0.402387,-0.170877 -0.815798,-0.170877 -0.256315,0.0028 -0.421679,0.129536 -0.162608,0.124023 -0.162608,0.314192 0,0.190169 0.08268,0.286632 0.08268,0.09371 0.314192,0.148828 z"
       style="font-style:normal;font-variant:normal;font-weight:normal;font-stretch:normal;font-family:'Oxygen Mono';-inkscape-font-specification:'Oxygen Mono';text-align:start;text-anchor:start;fill:#ffffff;stroke-width:0.264583"
       id="path2979" />
    <path
       d="m 56.673183,21.566299 q 0.391362,0.09646 0.570507,0.305924 0.181901,0.209461 0.181901,0.606336 0,0.394119 -0.303168,0.633897 -0.300412,0.239779 -0.755165,0.239779 -0.325216,0 -0.631141,-0.07993 -0.305924,-0.08268 -0.451996,-0.192926 l 0.124023,-0.361045 q 0.115756,0.07166 0.366558,0.146072 0.250803,0.07166 0.542947,0.07166 0.2949,0 0.468533,-0.121267 0.176388,-0.124023 0.176388,-0.327973 0,-0.203949 -0.08819,-0.319704 -0.08544,-0.118511 -0.333485,-0.179145 l -0.51263,-0.124023 q -0.443728,-0.110243 -0.5898,-0.319705 -0.146072,-0.212218 -0.146072,-0.52641 0,-0.314193 0.253559,-0.578776 0.256315,-0.264583 0.74414,-0.270095 h 0.03583 q 0.548459,0 0.934309,0.206705 l -0.110243,0.352778 q -0.402386,-0.170877 -0.815798,-0.170877 -0.256314,0.0028 -0.421679,0.129536 -0.162608,0.124023 -0.162608,0.314192 0,0.190169 0.08268,0.286632 0.08268,0.09371 0.314192,0.148828 z"
       style="font-style:normal;font-variant:normal;font-weight:normal;font-stretch:normal;font-family:'Oxygen Mono';-inkscape-font-specification:'Oxygen Mono';text-align:start;text-anchor:start;fill:#ffffff;stroke-width:0.264583"
       id="path2981" />
  </g>
  <g
     aria-label="out"
     transform="rotate(90)"
     id="text2860"
     style="font-size:3.70417px;line-height:1.25;font-family:'Roboto Mono';-inkscape-font-specification:'Roboto Mono';text-align:start;letter-spacing:0px;word-spacing:0px;text-anchor:start;fill:#000000;stroke-width:0.264583">
    <path
       d="m 6.7933807,-34.831209 q 0.3454572,0 0.4702559,-0.343648 0.066921,-0.184485 0.066921,-0.378014 0,-0.195337 -0.014469,-0.303857 -0.032556,-0.24598 -0.1573549,-0.401527 -0.12299,-0.155546 -0.3653527,-0.155546 -0.3364139,0 -0.4594039,0.350883 -0.065112,0.188103 -0.065112,0.394292 0,0.365353 0.1139467,0.602289 0.1139466,0.235128 0.4105696,0.235128 z m 0.6511236,-1.546418 q 0.2152325,0.289388 0.2152325,0.756027 0,0.466638 -0.2333193,0.756026 -0.2333193,0.28758 -0.6330368,0.28758 -0.2134239,0 -0.3798221,-0.08139 -0.1663983,-0.08139 -0.2694929,-0.224276 -0.2079978,-0.28758 -0.2079978,-0.748793 0,-0.461212 0.2297019,-0.746983 0.229702,-0.28758 0.6456976,-0.28758 0.4178044,0 0.6330369,0.289389 z"
       style="font-style:normal;font-variant:normal;font-weight:normal;font-stretch:normal;font-size:3.70417px;font-family:'Oxygen Mono';-inkscape-font-specification:'Oxygen Mono';text-align:start;text-anchor:start;fill:#000000;stroke-width:0.264583"
       id="path2984" />
    <path
       d="m 9.7885493,-35.2671 q 0,0.689106 -0.7668789,0.689106 -0.766879,0 -0.766879,-0.689106 v -1.340229 h 0.3291792 v 1.369168 q 0,0.211615 0.1049033,0.309284 0.1049032,0.09767 0.3327965,0.09767 0.2278933,0 0.3327965,-0.09767 0.1049033,-0.09767 0.1049033,-0.309284 v -1.369168 h 0.3291791 z"
       style="font-style:normal;font-variant:normal;font-weight:normal;font-stretch:normal;font-size:3.70417px;font-family:'Oxygen Mono';-inkscape-font-specification:'Oxygen Mono';text-align:start;text-anchor:start;fill:#000000;stroke-width:0.264583"
       id="path2986" />
    <path
       d="m 11.186656,-36.354115 v 0.931469 q 0,0.173633 0.01809,0.274919 0.0199,0.101286 0.07597,0.164589 0.05788,0.0633 0.148311,0.08501 0.09043,0.0217 0.24598,0.0217 h 0.363544 l -0.01809,0.253215 H 11.68766 q -0.511856,0 -0.681871,-0.188102 -0.11033,-0.12299 -0.135651,-0.3961 -0.01266,-0.121182 -0.01266,-0.298432 v -0.84827 h -0.56069 l 0.03617,-0.253214 h 0.524516 v -0.68368 l 0.329179,-0.09767 v 0.781349 h 0.835609 v 0.253214 z"
       style="font-style:normal;font-variant:normal;font-weight:normal;font-stretch:normal;font-size:3.70417px;font-family:'Oxygen Mono';-inkscape-font-specification:'Oxygen Mono';text-align:start;text-anchor:start;fill:#000000;stroke-width:0.264583"
       id="path2988" />
  </g>
  <g
     aria-label="in"
     transform="rotate(90)"
     id="text2864"
     style="font-size:3.70417px;line-height:1.25;font-family:'Roboto Mono';-inkscape-font-specification:'Roboto Mono';text-align:start;letter-spacing:0px;word-spacing:0px;text-anchor:start;fill:#000000;stroke-width:0.264583">
    <path
       d="m 16.951157,-36.999811 v -0.179059 q 0,-0.06511 0.07235,-0.113946 0.07416,-0.05064 0.146503,-0.05064 0.07235,0 0.144694,0.05064 0.07416,0.04883 0.07416,0.113946 v 0.179059 q 0,0.06511 -0.07416,0.115756 -0.07235,0.04883 -0.144694,0.04883 -0.07235,0 -0.146503,-0.04883 -0.07235,-0.05064 -0.07235,-0.115756 z m -0.511855,0.775923 v -0.253215 h 0.895295 v 1.730903 h 0.567924 v 0.253215 H 16.375998 V -34.7462 h 0.62942 v -1.477688 z"
       style="font-style:normal;font-variant:normal;font-weight:normal;font-stretch:normal;font-size:3.70417px;font-family:'Oxygen Mono';-inkscape-font-specification:'Oxygen Mono';text-align:start;text-anchor:start;fill:#000000;stroke-width:0.264583"
       id="path2991" />
    <path
       d="m 19.49054,-36.53679 q 0.616758,0 0.616758,0.781349 v 1.262456 h -0.329179 v -1.222665 q 0,-0.209807 -0.0217,-0.300241 -0.0217,-0.09043 -0.06511,-0.148311 -0.09224,-0.119373 -0.302049,-0.119373 -0.211616,0 -0.358118,0.12299 -0.146503,0.12299 -0.146503,0.325562 v 1.342038 h -0.329179 v -1.984118 h 0.302049 l 0.01809,0.215232 q 0.197146,-0.274919 0.614951,-0.274919 z"
       style="font-style:normal;font-variant:normal;font-weight:normal;font-stretch:normal;font-size:3.70417px;font-family:'Oxygen Mono';-inkscape-font-specification:'Oxygen Mono';text-align:start;text-anchor:start;fill:#000000;stroke-width:0.264583"
       id="path2993" />
  </g>
</svg>
