<?xml version="1.0" encoding="UTF-8" standalone="no"?>
<svg
   xmlns:dc="http://purl.org/dc/elements/1.1/"
   xmlns:cc="http://creativecommons.org/ns#"
   xmlns:rdf="http://www.w3.org/1999/02/22-rdf-syntax-ns#"
   xmlns:svg="http://www.w3.org/2000/svg"
   xmlns="http://www.w3.org/2000/svg"
   xmlns:xlink="http://www.w3.org/1999/xlink"
   xmlns:sodipodi="http://sodipodi.sourceforge.net/DTD/sodipodi-0.dtd"
   xmlns:inkscape="http://www.inkscape.org/namespaces/inkscape"
   version="1.1"
   preserveAspectRatio="none"
   x="0px"
   y="0px"
   width="64"
   height="64"
   viewBox="0 0 64 64"
   id="svg2"
   inkscape:version="0.91 r13725"
   sodipodi:docname="dude2.svg">
  <metadata
     id="metadata1740">
    <rdf:RDF>
      <cc:Work
         rdf:about="">
        <dc:format>image/svg+xml</dc:format>
        <dc:type
           rdf:resource="http://purl.org/dc/dcmitype/StillImage" />
        <dc:title />
      </cc:Work>
    </rdf:RDF>
  </metadata>
  <sodipodi:namedview
     pagecolor="#ffffff"
     bordercolor="#666666"
     borderopacity="1"
     objecttolerance="10"
     gridtolerance="10"
     guidetolerance="10"
     inkscape:pageopacity="0"
     inkscape:pageshadow="2"
     inkscape:window-width="1848"
     inkscape:window-height="1056"
     id="namedview1738"
     showgrid="false"
     inkscape:zoom="2.3232837"
     inkscape:cx="720.31156"
     inkscape:cy="286.87276"
     inkscape:window-x="72"
     inkscape:window-y="0"
     inkscape:window-maximized="1"
     inkscape:current-layer="svg2" />
  <defs
     id="defs4">
    <g
       id="Layer0_86_MEMBER_0_FILL">
      <path
         d="m 1197.55,717.8 q 0,3 5.1,5.15 5.2,2.15 12.6,2.15 7.3,0 12.5,-2.15 5.3,-2.15 5.3,-5.15 0,-3.05 -5.3,-5.25 -5.2,-2.1 -12.5,-2.1 -7.4,0 -12.6,2.1 -5.1,2.2 -5.1,5.25 z"
         id="path826"
         inkscape:connector-curvature="0"
         style="fill:#000000;fill-opacity:0.05098039;stroke:none" />
    </g>
    <g
       id="Layer0_86_MEMBER_1_FILL">
      <path
         d="m 1228.6,707.1 q -0.45,0.45 -0.9,0.9 0.4,1.3 0.25,2.95 -0.05,0.6 0.3,1.1 0.4,0.45 1.1,0.55 0.6,0.05 1.05,-0.35 0.5,-0.35 0.55,-1 0.35,-3.35 -0.6,-6.1 -0.8,1 -1.75,1.95 m -23.2,12.85 q 2.1,0.95 4.25,0 l 1.9,-4.9 q 2.45,0.9 5.45,0.9 1.95,0 3.6,-0.35 l 0.5,4.35 q 2.15,0.95 4.3,0 0.5,-6.6 1.55,-11.05 0.05,-0.2 0.1,-0.4 -4.3,3.35 -10.05,3.35 -5.95,0 -10.35,-3.65 0,5.9 -1.25,11.7 l 0,0.05 m -5,-8.3 q 0.35,0.5 0.95,0.6 0.65,0.1 1.15,-0.25 0.5,-0.4 0.6,-1 0.4,-2.7 2.2,-4.05 -1.4,-1.45 -2.35,-3 -2.2,2.7 -2.85,6.6 -0.1,0.6 0.3,1.1 m 24.25,-24.2 q -3.15,-3.15 -7.65,-3.15 -4.45,0 -7.6,3.15 -3.2,3.15 -3.2,7.65 l 0,6 q -0.5,0.3 -1,0.7 -0.2,0.15 -0.4,0.3 0.95,1.7 2.45,3.2 4.05,4.05 9.75,4.05 5.75,0 9.85,-4.05 1.3,-1.3 2.2,-2.75 -0.2,-0.3 -0.35,-0.55 -0.4,-0.55 -0.9,-1.05 l 0,-5.85 q 0,-4.5 -3.15,-7.65 m -11.8,12.35 q 0,-0.1 0,-0.2 l 5,0 q 0,0.1 0,0.2 0,1 -0.8,1.7 -0.7,0.75 -1.7,0.75 -1.05,0 -1.8,-0.75 -0.7,-0.7 -0.7,-1.7 m 13.85,0 q 0,1 -0.75,1.7 -0.7,0.75 -1.7,0.75 -1.05,0 -1.85,-0.75 -0.7,-0.7 -0.7,-1.7 0,-0.1 0.05,-0.2 l 4.95,0 q 0,0.1 0,0.2 m -10.4,3.85 q 0.05,-0.2 0.25,-0.25 0.25,-0.05 0.45,0.05 0.15,0.05 0.2,0.25 0.15,0.45 0.65,0.8 0.75,0.6 1.9,0.6 1.1,0 1.9,-0.6 0.45,-0.35 0.65,-0.8 0.05,-0.2 0.25,-0.3 0.2,-0.1 0.4,0 0.2,0.05 0.35,0.25 0.05,0.2 0,0.4 -0.35,0.7 -1,1.25 -1.05,0.8 -2.55,0.8 -1.5,0 -2.55,-0.8 -0.75,-0.55 -0.95,-1.3 -0.05,-0.2 0.05,-0.35 z"
         id="path829"
         inkscape:connector-curvature="0"
         style="fill:#ffcc00;stroke:none" />
      <path
         d="m 1232.95,711.4 q 0.3,-3.2 -0.4,-5.95 l -2.2,-0.3 q 0.95,2.75 0.6,6.1 -0.05,0.65 -0.55,1 -0.45,0.4 -1.05,0.35 -0.7,-0.1 -1.1,-0.55 -0.35,-0.5 -0.3,-1.1 0.15,-1.65 -0.25,-2.95 -0.35,0.25 -0.65,0.5 -0.05,0.2 -0.1,0.4 -1.05,4.45 -1.55,11.05 2.25,-3.1 2.6,-5.65 0.5,0.2 1.1,0.3 0.05,0 0.1,0 1.3,0.1 2.35,-0.7 1.25,-0.85 1.4,-2.5 m -23.3,8.55 3.1,-2.45 q 2,0.45 4.25,0.45 0.95,0 1.9,-0.05 l 2.2,2.05 -0.5,-4.35 q -1.65,0.35 -3.6,0.35 -3,0 -5.45,-0.9 l -1.9,4.9 m -6.7,-16 -2.35,-0.15 q -1.85,2.7 -2.45,6.45 -0.3,1.45 0.7,2.65 l -0.1,-0.1 q 0.85,1.2 2.3,1.45 1.45,0.2 2.6,-0.6 0.05,-0.05 0.1,-0.1 0.4,-0.3 0.7,-0.7 -0.35,3.5 0.95,7.05 1.25,-5.8 1.25,-11.7 -0.6,-0.55 -1.2,-1.1 -0.05,-0.1 -0.15,-0.15 -1.8,1.35 -2.2,4.05 -0.1,0.6 -0.6,1 -0.5,0.35 -1.15,0.25 -0.6,-0.1 -0.95,-0.6 -0.4,-0.5 -0.3,-1.1 0.65,-3.9 2.85,-6.6 z"
         id="path831"
         inkscape:connector-curvature="0"
         style="fill:#c29b00;stroke:none" />
      <path
         d="m 1217,679.15 q 6.8,0 11.6,4.8 4.45,4.45 4.75,10.65 0.05,0.45 0.05,0.9 0,0.45 -0.05,0.85 -0.05,1.5 -0.35,2.85 -0.7,3.2 -2.65,5.95 l 2.2,0.3 q 1.75,-2.7 2.4,-5.8 0.35,-1.55 0.4,-3.2 0.05,-0.45 0.05,-0.95 0,-0.55 -0.05,-1.1 -0.4,-6.9 -5.3,-11.85 -5.4,-5.4 -13.05,-5.4 -7.6,0 -12.95,5.4 -5,4.95 -5.4,11.95 0,0.05 0,0.1 0,0.45 0,0.9 0,0.45 0,0.85 0,0.05 0,0.15 0.1,1.65 0.45,3.15 0.5,2.15 1.5,4.15 l 2.35,0.15 q -1.35,-2.25 -1.9,-4.75 -0.3,-1.35 -0.4,-2.85 0,-0.4 0,-0.85 0,-0.45 0,-0.9 0.35,-6.2 4.8,-10.65 4.8,-4.8 11.55,-4.8 m 9.85,6.55 q -4.1,-4.05 -9.85,-4.05 -5.7,0 -9.75,4.05 -3.75,3.75 -4.05,8.9 -0.05,0.45 -0.05,0.9 0,0.45 0.05,0.85 0.05,1.5 0.45,2.85 0.4,1.5 1.15,2.9 0.2,-0.15 0.4,-0.3 0.5,-0.4 1,-0.7 l 0,-6 q 0,-4.5 3.2,-7.65 3.15,-3.15 7.6,-3.15 4.5,0 7.65,3.15 3.15,3.15 3.15,7.65 l 0,5.85 q 0.5,0.5 0.9,1.05 0.15,0.25 0.35,0.55 0.95,-1.6 1.4,-3.35 0.35,-1.35 0.4,-2.85 0.05,-0.4 0.05,-0.85 0,-0.45 -0.05,-0.9 -0.3,-5.15 -4,-8.9 z"
         id="path833"
         inkscape:connector-curvature="0"
         style="fill:#cccccc;stroke:none" />
      <path
         d="m 1228.6,683.95 q -4.8,-4.8 -11.6,-4.8 -6.75,0 -11.55,4.8 -4.45,4.45 -4.8,10.65 0,0.45 0,0.9 0,0.45 0,0.85 0.1,1.5 0.4,2.85 0.55,2.5 1.9,4.75 0.95,1.55 2.35,3 0.1,0.05 0.15,0.15 0.6,0.55 1.2,1.1 4.4,3.65 10.35,3.65 5.75,0 10.05,-3.35 0.3,-0.25 0.65,-0.5 0.45,-0.45 0.9,-0.9 0.95,-0.95 1.75,-1.95 1.95,-2.75 2.65,-5.95 0.3,-1.35 0.35,-2.85 0.05,-0.4 0.05,-0.85 0,-0.45 -0.05,-0.9 -0.3,-6.2 -4.75,-10.65 m -11.6,-2.3 q 5.75,0 9.85,4.05 3.7,3.75 4,8.9 0.05,0.45 0.05,0.9 0,0.45 -0.05,0.85 -0.05,1.5 -0.4,2.85 -0.45,1.75 -1.4,3.35 -0.9,1.45 -2.2,2.75 -4.1,4.05 -9.85,4.05 -5.7,0 -9.75,-4.05 -1.5,-1.5 -2.45,-3.2 -0.75,-1.4 -1.15,-2.9 -0.4,-1.35 -0.45,-2.85 -0.05,-0.4 -0.05,-0.85 0,-0.45 0.05,-0.9 0.3,-5.15 4.05,-8.9 4.05,-4.05 9.75,-4.05 z"
         id="path835"
         inkscape:connector-curvature="0"
         style="fill:#ffffff;stroke:none" />
      <path
         d="m 1216.55,703.4 q -0.2,0.05 -0.25,0.25 -0.1,0.15 -0.05,0.35 0.2,0.75 0.95,1.3 1.05,0.8 2.55,0.8 1.5,0 2.55,-0.8 0.65,-0.55 1,-1.25 0.05,-0.2 0,-0.4 -0.15,-0.2 -0.35,-0.25 -0.2,-0.1 -0.4,0 -0.2,0.1 -0.25,0.3 -0.2,0.45 -0.65,0.8 -0.8,0.6 -1.9,0.6 -1.15,0 -1.9,-0.6 -0.5,-0.35 -0.65,-0.8 -0.05,-0.2 -0.2,-0.25 -0.2,-0.1 -0.45,-0.05 m 9.4,-1.9 q 0.75,-0.7 0.75,-1.7 0,-0.1 0,-0.2 l -4.95,0 q -0.05,0.1 -0.05,0.2 0,1 0.7,1.7 0.8,0.75 1.85,0.75 1,0 1.7,-0.75 m -13.1,-1.9 q 0,0.1 0,0.2 0,1 0.7,1.7 0.75,0.75 1.8,0.75 1,0 1.7,-0.75 0.8,-0.7 0.8,-1.7 0,-0.1 0,-0.2 l -5,0 z"
         id="path837"
         inkscape:connector-curvature="0"
         style="fill:#ad8a00;stroke:none" />
    </g>
  </defs>
  <g
     id="g5905"
     transform="translate(-1184.475,-669.125)">
    <g
       id="g1590">
      <use
         id="use1592"
         xlink:href="#Layer0_86_MEMBER_0_FILL"
         x="0"
         y="0"
         width="100%"
         height="100%" />
    </g>
    <g
       id="g1594">
      <use
         id="use1596"
         xlink:href="#Layer0_86_MEMBER_1_FILL"
         x="0"
         y="0"
         width="100%"
         height="100%" />
    </g>
  </g>
</svg>
