<?xml version="1.0" encoding="UTF-8" standalone="no"?>
<!-- Created with Inkscape (http://www.inkscape.org/) -->

<svg
   xmlns:dc="http://purl.org/dc/elements/1.1/"
   xmlns:cc="http://creativecommons.org/ns#"
   xmlns:rdf="http://www.w3.org/1999/02/22-rdf-syntax-ns#"
   xmlns:svg="http://www.w3.org/2000/svg"
   xmlns="http://www.w3.org/2000/svg"
   xmlns:sodipodi="http://sodipodi.sourceforge.net/DTD/sodipodi-0.dtd"
   xmlns:inkscape="http://www.inkscape.org/namespaces/inkscape"
   width="64"
   height="64"
   viewBox="0 0 16.933333 16.933334"
   version="1.1"
   id="svg5886"
   inkscape:version="0.92+devel unknown"
   sodipodi:docname="fish.svg">
  <defs
     id="defs5880" />
  <sodipodi:namedview
     id="base"
     pagecolor="#ffffff"
     bordercolor="#666666"
     borderopacity="1.0"
     inkscape:pageopacity="0.0"
     inkscape:pageshadow="2"
     inkscape:zoom="3.0529914"
     inkscape:cx="129.58063"
     inkscape:cy="87.720324"
     inkscape:document-units="mm"
     inkscape:current-layer="layer1"
     inkscape:document-rotation="0"
     showgrid="false"
     units="px"
     inkscape:window-width="1848"
     inkscape:window-height="1056"
     inkscape:window-x="72"
     inkscape:window-y="0"
     inkscape:window-maximized="1" />
  <metadata
     id="metadata5883">
    <rdf:RDF>
      <cc:Work
         rdf:about="">
        <dc:format>image/svg+xml</dc:format>
        <dc:type
           rdf:resource="http://purl.org/dc/dcmitype/StillImage" />
        <dc:title></dc:title>
      </cc:Work>
    </rdf:RDF>
  </metadata>
  <g
     inkscape:label="Vrstva 1"
     inkscape:groupmode="layer"
     id="layer1"
     transform="translate(0,-280.06665)">
    <g
       id="g1232"
       transform="matrix(0.91779544,0,0,0.91779544,-216.89792,179.74134)">
      <g
         transform="scale(0.26458333)"
         id="use1230">
        <path
           inkscape:connector-curvature="0"
           id="path6445"
           d="m 946.95,432.45 q -0.89961,-0.84746 -2.3,-0.85 h -0.05 q -13.02285,0.10898 -23.15,7.45 -0.0496,0.0859 -0.15,0.15 -0.88672,0.80137 -1.05,1.7 -0.15098,0.47461 -0.15,0.95 0.0268,0.092 0,0.15 l -0.05,-0.1 -2.35,-2.5 v 0.05 q -1.83105,-2.01797 -3.75,-1.9 -2.37383,-0.0365 -4.6,1.65 l 0.05,-0.05 -7.4,5.15 0.05,-0.05 q -2.94355,1.91562 -2.7,4 -0.23594,2.11523 2.7,4.05 H 902 l 7.4,5.1 v 0 q 2.2041,1.5293 4.55,1.5 1.54238,0.0842 3.05,-1.15 -0.0539,0.72891 0.35,1.45 0.45605,1.27051 1.65,1.75 7.98145,4.34883 18.95,3.25 1.13398,-0.0441 2,-0.95 l -0.1,0.1 q 0.81777,-0.65703 1.05,-1.8 2.94316,-0.4584 5.5,-1.8 0.0227,0.0109 0.05,0 0.58906,-0.3125 1.1,-0.65 0.084,-0.0106 0.15,-0.05 1.55664,-1.10313 3.4,-2.7 7.53281,-6.23984 5.1,-11.25 v -0.05 q -1.83711,-4.39844 -6.5,-6.95 -0.80762,-0.46641 -1.7,-0.85 v -2.35 q 0.005,-1.5123 -0.95,-2.4 -0.0252,-0.0115 -0.1,-0.05 M 946,434.9 v 3.8 q 1.4584,0.4252 2.75,1.15 4,2.2 5.6,6 1.6,3.9 -4.5,9 -1.8,1.5 -3.3,2.55 -0.5,0.3 -1.05,0.6 -2.89102,1.47988 -6.3,1.75 l -0.2,1.3 q -0.1,0.5 -0.45,0.8 -0.35,0.35 -0.8,0.35 -10.4,1.05 -17.95,-3.05 -0.45,-0.2 -0.6,-0.7 -0.25,-0.4 -0.1,-0.75 l 0.7,-3.6 q -0.57695,-0.47207 -1.05,-1 l -2.5,2.65 q -1.15,1.15 -2.3,1.15 -1.75,0 -3.4,-1.15 l -7.4,-5.1 q -3.6,-2.4 0,-4.7 l 7.4,-5.15 q 1.65,-1.25 3.4,-1.25 1.15,0 2.3,1.25 l 3.35,3.6 q 1.2291,-0.76113 2.95,-1.35 l -0.3,-0.7 q -0.2,-0.5 -0.05,-0.9 0.05,-0.4 0.45,-0.75 9.6,-7 22,-7.1 0.6,0 1,0.35 0.35,0.35 0.35,0.95 z"
           stroke="none"
           fill="#A36000" />
        <path
           inkscape:connector-curvature="0"
           id="path6447"
           d="m 919.8,454.1 -0.7,3.6 q -0.15,0.35 0.1,0.75 0.15,0.5 0.6,0.7 7.55,4.1 17.95,3.05 0.45,0 0.8,-0.35 0.35,-0.3 0.45,-0.8 l 0.2,-1.3 q -1.54805,0.15918 -3.2,0.05 -6.85,-0.6 -12,-3.1 -2.54492,-1.22598 -4.2,-2.6 m 15.85,-15.2 q 0.45,-0.15 0.9,-0.2 5.37578,-1.17832 9.45,0 v -3.8 q 0,-0.6 -0.35,-0.95 -0.4,-0.35 -1,-0.35 -12.4,0.1 -22,7.1 -0.4,0.35 -0.45,0.75 -0.15,0.4 0.05,0.9 l 0.3,0.7 q 0.15918,-0.0545 0.3,-0.1 6.15,-2 11.8,-3.75 0.55,-0.15 1,-0.3 z"
           stroke="none"
           fill="#FCB245" />
        <path
           inkscape:connector-curvature="0"
           id="path6449"
           d="m 916.25,440.8 q -1.15,-1.25 -2.3,-1.25 -1.75,0 -3.4,1.25 l -7.4,5.15 q -3.6,2.3 0,4.7 l 7.4,5.1 q 1.65,1.15 3.4,1.15 1.15,0 2.3,-1.15 l 2.5,-2.65 q -1.72715,-1.83438 -1.85,-3.9 -0.17227,-2.92852 2.7,-4.8 l -3.35,-3.6 m 32.5,-0.95 q -1.2916,-0.7248 -2.75,-1.15 -4.07422,-1.17832 -9.45,0 -0.0236,5.20469 1.95,9.8 2.23906,5.13574 7,9.5 0.55,-0.3 1.05,-0.6 1.5,-1.05 3.3,-2.55 6.1,-5.1 4.5,-9 -1.6,-3.8 -5.6,-6 m 0.3,9.4 q -0.45,0.55 -1.2,0.55 -0.7,0 -1.25,-0.55 -0.5,-0.55 -0.5,-1.25 0,-0.65 0.5,-1.2 0.55,-0.55 1.25,-0.55 0.75,0 1.2,0.55 0.6,0.55 0.6,1.2 0,0.7 -0.6,1.25 m -24.5,3.95 q 0.15,0.25 0.4,0.35 4.15,2.2 9,2.9 0.35,0 0.65,-0.15 0.2,-0.15 0.3,-0.45 l 0.95,-2.85 q 0.05,-0.25 0.05,-0.45 -0.15,-0.3 -0.35,-0.45 -0.25,-0.2 -0.45,-0.15 -4.7,-0.25 -9.3,-1.65 -0.25,0 -0.45,0 -0.25,0.1 -0.4,0.3 -0.15,0.15 -0.25,0.4 l -0.2,1.7 q -0.05,0.3 0.05,0.5 z"
           stroke="none"
           fill="#EC8D00" />
        <path
           inkscape:connector-curvature="0"
           id="path6451"
           d="m 947.85,449.8 q 0.75,0 1.2,-0.55 0.6,-0.55 0.6,-1.25 0,-0.65 -0.6,-1.2 -0.45,-0.55 -1.2,-0.55 -0.7,0 -1.25,0.55 -0.5,0.55 -0.5,1.2 0,0.7 0.5,1.25 0.55,0.55 1.25,0.55 z"
           stroke="none"
           fill="#CD7B00" />
        <path
           inkscape:connector-curvature="0"
           id="path6453"
           d="m 936.55,438.7 q -0.45,0.05 -0.9,0.2 -0.45,0.15 -1,0.3 -5.65,1.75 -11.8,3.75 -0.14082,0.0455 -0.3,0.1 -1.7209,0.58887 -2.95,1.35 -2.87227,1.87148 -2.7,4.8 0.12285,2.06562 1.85,3.9 0.47305,0.52793 1.05,1 1.65508,1.37402 4.2,2.6 5.15,2.5 12,3.1 1.65195,0.10918 3.2,-0.05 3.40898,-0.27012 6.3,-1.75 -4.76094,-4.36426 -7,-9.5 -1.97363,-4.59531 -1.95,-9.8 m -11.6,14.85 q -0.25,-0.1 -0.4,-0.35 -0.1,-0.2 -0.05,-0.5 l 0.2,-1.7 q 0.1,-0.25 0.25,-0.4 0.15,-0.2 0.4,-0.3 0.2,0 0.45,0 4.6,1.4 9.3,1.65 0.2,-0.05 0.45,0.15 0.2,0.15 0.35,0.45 0,0.2 -0.05,0.45 l -0.95,2.85 q -0.1,0.3 -0.3,0.45 -0.3,0.15 -0.65,0.15 -4.85,-0.7 -9,-2.9 z"
           stroke="none"
           fill="#FF9900" />
      </g>
    </g>
  </g>
</svg>
