<?xml version="1.0" encoding="UTF-8" standalone="no"?>
<svg
   xmlns:dc="http://purl.org/dc/elements/1.1/"
   xmlns:cc="http://creativecommons.org/ns#"
   xmlns:rdf="http://www.w3.org/1999/02/22-rdf-syntax-ns#"
   xmlns:svg="http://www.w3.org/2000/svg"
   xmlns="http://www.w3.org/2000/svg"
   xmlns:xlink="http://www.w3.org/1999/xlink"
   xmlns:sodipodi="http://sodipodi.sourceforge.net/DTD/sodipodi-0.dtd"
   xmlns:inkscape="http://www.inkscape.org/namespaces/inkscape"
   version="1.1"
   preserveAspectRatio="none"
   x="0px"
   y="0px"
   width="64"
   height="64"
   viewBox="0 0 64 64"
   id="svg4075"
   sodipodi:docname="wall2.svg"
   inkscape:version="0.92pre2 r">
  <metadata
     id="metadata4079">
    <rdf:RDF>
      <cc:Work
         rdf:about="">
        <dc:format>image/svg+xml</dc:format>
        <dc:type
           rdf:resource="http://purl.org/dc/dcmitype/StillImage" />
        <dc:title></dc:title>
      </cc:Work>
    </rdf:RDF>
  </metadata>
  <sodipodi:namedview
     pagecolor="#ffffff"
     bordercolor="#666666"
     borderopacity="1"
     objecttolerance="10"
     gridtolerance="10"
     guidetolerance="10"
     inkscape:pageopacity="0"
     inkscape:pageshadow="2"
     inkscape:window-width="1848"
     inkscape:window-height="1056"
     id="namedview4077"
     showgrid="false"
     fit-margin-top="0"
     fit-margin-left="0"
     fit-margin-right="0"
     fit-margin-bottom="0"
     inkscape:zoom="0.99611253"
     inkscape:cx="-232.51004"
     inkscape:cy="89.999985"
     inkscape:window-x="72"
     inkscape:window-y="0"
     inkscape:window-maximized="1"
     inkscape:current-layer="svg4075" />
  <defs
     id="defs2837">
    <g
       id="Layer0_247_FILL">
      <path
         d="m 1329.45,454.6 q -0.6,-0.6 -1.45,-0.6 h -32 q -0.85,0 -1.4,0.6 l -8,8 q -0.6,0.55 -0.6,1.4 v 32 q 0,0.85 0.6,1.45 l 8,8 q 0.55,0.55 1.4,0.55 h 32 q 0.85,0 1.45,-0.55 l 8,-8 q 0.55,-0.6 0.55,-1.45 v -32 q 0,-0.85 -0.55,-1.4 l -8,-8 m -1.45,1.4 8,8 v 32 l -8,8 h -32 l -8,-8 v -32 l 8,-8 z"
         id="path2353"
         inkscape:connector-curvature="0"
         style="fill:#758c8e;stroke:none" />
      <path
         d="m 1296,504 8,-8 -8,-8 -8,8 8,8 m 24,-8 8,8 8,-8 -8,-8 -8,8 m -16,-32 -8,-8 -8,8 8,8 8,-8 m 32,0 -8,-8 -8,8 8,8 z"
         id="path2355"
         inkscape:connector-curvature="0"
         style="fill:#a3c3c6;stroke:none" />
      <path
         d="m 1296,504 h 32 l -8,-8 h -16 l -8,8 m 32,-32 v 16 l 8,8 v -32 l -8,8 m -32,16 v -16 l -8,-8 v 32 l 8,-8 m 24,-24 8,-8 h -32 l 8,8 z"
         id="path2357"
         inkscape:connector-curvature="0"
         style="fill:#94b1b4;stroke:none" />
      <path
         d="m 1296,472 v 16 l 8,8 h 16 l 8,-8 v -16 l -8,-8 h -16 z"
         id="path2359"
         inkscape:connector-curvature="0"
         style="fill:#89a4a6;stroke:none" />
    </g>
  </defs>
  <g
     transform="matrix(1.2307692,0,0,1.2307692,-1582.7692,-558.76922)"
     id="g3829">
    <use
       xlink:href="#Layer0_247_FILL"
       id="use3827"
       x="0"
       y="0"
       width="100%"
       height="100%" />
  </g>
</svg>
