<?xml version="1.0" encoding="UTF-8" standalone="no"?>
<svg
   xmlns:dc="http://purl.org/dc/elements/1.1/"
   xmlns:cc="http://creativecommons.org/ns#"
   xmlns:rdf="http://www.w3.org/1999/02/22-rdf-syntax-ns#"
   xmlns:svg="http://www.w3.org/2000/svg"
   xmlns="http://www.w3.org/2000/svg"
   xmlns:xlink="http://www.w3.org/1999/xlink"
   xmlns:sodipodi="http://sodipodi.sourceforge.net/DTD/sodipodi-0.dtd"
   xmlns:inkscape="http://www.inkscape.org/namespaces/inkscape"
   version="1.1"
   preserveAspectRatio="none"
   x="0px"
   y="0px"
   width="64"
   height="64"
   viewBox="0 0 64 64"
   id="svg2"
   inkscape:version="0.91 r13725"
   sodipodi:docname="5.svg">
  <metadata
     id="metadata1740">
    <rdf:RDF>
      <cc:Work
         rdf:about="">
        <dc:format>image/svg+xml</dc:format>
        <dc:type
           rdf:resource="http://purl.org/dc/dcmitype/StillImage" />
        <dc:title></dc:title>
      </cc:Work>
    </rdf:RDF>
  </metadata>
  <sodipodi:namedview
     pagecolor="#ffffff"
     bordercolor="#666666"
     borderopacity="1"
     objecttolerance="10"
     gridtolerance="10"
     guidetolerance="10"
     inkscape:pageopacity="0"
     inkscape:pageshadow="2"
     inkscape:window-width="1848"
     inkscape:window-height="1056"
     id="namedview1738"
     showgrid="false"
     inkscape:zoom="1.6428097"
     inkscape:cx="-160.67305"
     inkscape:cy="-116.02223"
     inkscape:window-x="72"
     inkscape:window-y="0"
     inkscape:window-maximized="1"
     inkscape:current-layer="svg2"
     fit-margin-top="0"
     fit-margin-left="0"
     fit-margin-right="0"
     fit-margin-bottom="0" />
  <defs
     id="defs4">
    <g
       id="Layer0_14_FILL">
      <path
         d="m 444,613 0,2 64,0 0,-2 -64,0 m 0,20 0,2 64,0 0,-2 -64,0 z"
         id="path240"
         inkscape:connector-curvature="0"
         style="fill:#000000;fill-opacity:0.30196078;stroke:none" />
      <path
         d="m 444,615 0,2 64,0 0,-2 -64,0 m 0,16 0,2 64,0 0,-2 -64,0 z"
         id="path242"
         inkscape:connector-curvature="0"
         style="fill:#ffffff;stroke:none" />
      <path
         d="m 444,617 0,14 64,0 0,-14 -64,0 z"
         id="path244"
         inkscape:connector-curvature="0"
         style="fill:#ffcc00;stroke:none" />
    </g>
  </defs>
  <g
     id="g1238"
     transform="matrix(0,1,-1,0,656,-444)">
    <use
       xlink:href="#Layer0_14_FILL"
       id="use1240"
       x="0"
       y="0"
       width="100%"
       height="100%" />
  </g>
</svg>
