<?xml version="1.0" encoding="UTF-8" standalone="no"?>
<svg
   xmlns:dc="http://purl.org/dc/elements/1.1/"
   xmlns:cc="http://creativecommons.org/ns#"
   xmlns:rdf="http://www.w3.org/1999/02/22-rdf-syntax-ns#"
   xmlns:svg="http://www.w3.org/2000/svg"
   xmlns="http://www.w3.org/2000/svg"
   xmlns:xlink="http://www.w3.org/1999/xlink"
   xmlns:sodipodi="http://sodipodi.sourceforge.net/DTD/sodipodi-0.dtd"
   xmlns:inkscape="http://www.inkscape.org/namespaces/inkscape"
   version="1.1"
   preserveAspectRatio="none"
   x="0px"
   y="0px"
   width="64"
   height="64"
   viewBox="0 0 64 64"
   id="svg2"
   inkscape:version="0.91 r13725"
   sodipodi:docname="7.svg">
  <metadata
     id="metadata1740">
    <rdf:RDF>
      <cc:Work
         rdf:about="">
        <dc:format>image/svg+xml</dc:format>
        <dc:type
           rdf:resource="http://purl.org/dc/dcmitype/StillImage" />
        <dc:title></dc:title>
      </cc:Work>
    </rdf:RDF>
  </metadata>
  <sodipodi:namedview
     pagecolor="#ffffff"
     bordercolor="#666666"
     borderopacity="1"
     objecttolerance="10"
     gridtolerance="10"
     guidetolerance="10"
     inkscape:pageopacity="0"
     inkscape:pageshadow="2"
     inkscape:window-width="1848"
     inkscape:window-height="1056"
     id="namedview1738"
     showgrid="false"
     inkscape:zoom="2.3232837"
     inkscape:cx="87.253647"
     inkscape:cy="36.702995"
     inkscape:window-x="72"
     inkscape:window-y="0"
     inkscape:window-maximized="1"
     inkscape:current-layer="svg2" />
  <defs
     id="defs4">
    <g
       id="Layer0_22_FILL">
      <path
         d="m 338.85,633 q -1.8,0.05 -1.85,1.9 l 0,21.1 2,0 0,-21 21,0 0,-2 -21.15,0 m -42.85,0 0,2 21,0 0,21 2,0 0,-21.1 q -0.05,-1.85 -1.9,-1.9 l -21.1,0 m 0,-20 0,2 64,0 0,-2 -64,0 z"
         id="path296"
         inkscape:connector-curvature="0"
         style="fill:#000000;fill-opacity:0.30196078;stroke:none" />
      <path
         d="m 338.8,631 q -1.05,0.05 -1.8,0.35 -1.9,0.8 -2,3.4 l 0,21.25 2,0 0,-21.1 q 0.05,-1.85 1.85,-1.9 l 21.15,0 0,-2 -21.2,0 m -42.8,0 0,2 21.1,0 q 1.85,0.05 1.9,1.9 l 0,21.1 2,0 0,-21.25 q -0.1,-2.6 -2,-3.4 -0.75,-0.3 -1.85,-0.35 L 296,631 m 0,-16 0,2 64,0 0,-2 -64,0 z"
         id="path298"
         inkscape:connector-curvature="0"
         style="fill:#ffffff;stroke:none" />
      <path
         d="m 319,631.35 q 1.9,0.8 2,3.4 l 0,21.25 14,0 0,-21.25 q 0.1,-2.6 2,-3.4 0.75,-0.3 1.8,-0.35 l 21.2,0 0,-14 -64,0 0,14 21.15,0 q 1.1,0.05 1.85,0.35 z"
         id="path300"
         inkscape:connector-curvature="0"
         style="fill:#ffcc00;stroke:none" />
    </g>
  </defs>
  <g
     id="g1270"
     transform="matrix(0,1,-1,0,656,-296)">
    <use
       xlink:href="#Layer0_22_FILL"
       id="use1272"
       x="0"
       y="0"
       width="100%"
       height="100%" />
  </g>
</svg>
