<?xml version="1.0" encoding="UTF-8" standalone="no"?>
<svg
   xmlns:dc="http://purl.org/dc/elements/1.1/"
   xmlns:cc="http://creativecommons.org/ns#"
   xmlns:rdf="http://www.w3.org/1999/02/22-rdf-syntax-ns#"
   xmlns:svg="http://www.w3.org/2000/svg"
   xmlns="http://www.w3.org/2000/svg"
   id="svg1349"
   version="1.1"
   viewBox="0 0 167.21666 135.46667"
   height="512"
   width="632">
  <defs
     id="defs1343">
    <marker
       orient="auto"
       refY="0"
       refX="0"
       id="marker8073"
       style="overflow:visible">
      <path
         id="path8071"
         d="M 0,0 5,-5 -12.5,0 5,5 Z"
         style="fill:#000000;fill-opacity:1;fill-rule:evenodd;stroke:#000000;stroke-width:1.00000003pt;stroke-opacity:1"
         transform="matrix(-0.2,0,0,-0.2,-1.2,0)" />
    </marker>
    <marker
       style="overflow:visible"
       id="marker7754"
       refX="0"
       refY="0"
       orient="auto">
      <path
         transform="matrix(-0.2,0,0,-0.2,-1.2,0)"
         style="fill:#000000;fill-opacity:1;fill-rule:evenodd;stroke:#000000;stroke-width:1.00000003pt;stroke-opacity:1"
         d="M 0,0 5,-5 -12.5,0 5,5 Z"
         id="path7752" />
    </marker>
    <marker
       style="overflow:visible"
       id="marker5829"
       refX="0"
       refY="0"
       orient="auto">
      <path
         transform="matrix(-0.2,0,0,-0.2,-1.2,0)"
         style="fill:#000000;fill-opacity:1;fill-rule:evenodd;stroke:#000000;stroke-width:1.00000003pt;stroke-opacity:1"
         d="M 0,0 5,-5 -12.5,0 5,5 Z"
         id="path5827" />
    </marker>
    <marker
       style="overflow:visible"
       id="Arrow1Send"
       refX="0"
       refY="0"
       orient="auto">
      <path
         transform="matrix(-0.2,0,0,-0.2,-1.2,0)"
         style="fill:#000000;fill-opacity:1;fill-rule:evenodd;stroke:#000000;stroke-width:1.00000003pt;stroke-opacity:1"
         d="M 0,0 5,-5 -12.5,0 5,5 Z"
         id="path1929" />
    </marker>
  </defs>
  <metadata
     id="metadata1346">
    <rdf:RDF>
      <cc:Work
         rdf:about="">
        <dc:format>image/svg+xml</dc:format>
        <dc:type
           rdf:resource="http://purl.org/dc/dcmitype/StillImage" />
        <dc:title></dc:title>
      </cc:Work>
    </rdf:RDF>
  </metadata>
  <g
     transform="translate(0,-161.56667)"
     id="layer1">
    <rect
       style="opacity:1;fill:#cccccc;fill-opacity:1;stroke:#b3b3b3;stroke-width:0.13199998;stroke-linecap:round;stroke-linejoin:round;stroke-miterlimit:4;stroke-dasharray:none;stroke-opacity:1"
       id="rect8211"
       width="84.737053"
       height="23.295614"
       x="78.374725"
       y="269.50662"
       rx="2.1166658"
       ry="2.1166637" />
    <rect
       style="opacity:1;fill:#cccccc;fill-opacity:1;stroke:#b3b3b3;stroke-width:0.13199998;stroke-linecap:round;stroke-linejoin:round;stroke-miterlimit:4;stroke-dasharray:none;stroke-opacity:1"
       id="rect8209"
       width="69.908081"
       height="23.295614"
       x="4.2298012"
       y="269.50662"
       rx="2.1166658"
       ry="2.1166637" />
    <rect
       ry="2.1166637"
       rx="2.1166658"
       y="241.97546"
       x="4.229805"
       height="23.295614"
       width="69.908081"
       id="rect8207"
       style="opacity:1;fill:#cccccc;fill-opacity:1;stroke:#b3b3b3;stroke-width:0.13199998;stroke-linecap:round;stroke-linejoin:round;stroke-miterlimit:4;stroke-dasharray:none;stroke-opacity:1" />
    <rect
       style="opacity:1;fill:#cccccc;fill-opacity:1;stroke:#b3b3b3;stroke-width:0.13199998;stroke-linecap:round;stroke-linejoin:round;stroke-miterlimit:4;stroke-dasharray:none;stroke-opacity:1"
       id="rect8205"
       width="69.908081"
       height="23.295614"
       x="4.2298012"
       y="214.44427"
       rx="2.1166658"
       ry="2.1166637" />
    <rect
       ry="2.1166637"
       rx="2.1166658"
       y="239.85764"
       x="78.374725"
       height="23.295614"
       width="84.737053"
       id="rect8203"
       style="opacity:1;fill:#cccccc;fill-opacity:1;stroke:#b3b3b3;stroke-width:0.13199998;stroke-linecap:round;stroke-linejoin:round;stroke-miterlimit:4;stroke-dasharray:none;stroke-opacity:1" />
    <rect
       style="opacity:1;fill:#cccccc;fill-opacity:1;stroke:#b3b3b3;stroke-width:0.13199998;stroke-linecap:round;stroke-linejoin:round;stroke-miterlimit:4;stroke-dasharray:none;stroke-opacity:1"
       id="rect8201"
       width="84.737053"
       height="23.295614"
       x="78.374664"
       y="184.79532"
       rx="2.1166658"
       ry="2.1166637" />
    <rect
       ry="2.1166637"
       rx="2.1166658"
       y="184.79532"
       x="4.2298012"
       height="23.295614"
       width="69.908081"
       id="rect8199"
       style="opacity:1;fill:#cccccc;fill-opacity:1;stroke:#b3b3b3;stroke-width:0.13199998;stroke-linecap:round;stroke-linejoin:round;stroke-miterlimit:4;stroke-dasharray:none;stroke-opacity:1" />
    <path
       id="path7706"
       d="M 137.69077,191.14858 H 152.5196"
       style="fill:none;stroke:#000000;stroke-width:0.52916664;stroke-linecap:butt;stroke-linejoin:miter;stroke-miterlimit:4;stroke-dasharray:none;stroke-opacity:1" />
    <ellipse
       ry="2.1177926"
       rx="2.1184361"
       cy="191.14861"
       cx="64.977013"
       id="circle1910"
       style="opacity:1;fill:#3fb0ac;fill-opacity:1;stroke:#000000;stroke-width:0.52916664;stroke-linecap:round;stroke-linejoin:round;stroke-miterlimit:4;stroke-dasharray:none;stroke-opacity:1" />
    <g
       style="font-style:normal;font-variant:normal;font-weight:normal;font-stretch:normal;font-size:5.64828px;line-height:1.25;font-family:'Oxygen Mono';-inkscape-font-specification:'Oxygen Mono';letter-spacing:0px;word-spacing:0px;fill:#000000;fill-opacity:1;stroke:none;stroke-width:0.264583"
       id="text3630"
       transform="scale(1.0001519,0.99984812)"
       aria-label=".append(  )">
      <path
         id="path1032"
         style="font-size:5.64828px;stroke-width:0.264583"
         d="m 36.519228,193.29572 h -0.830142 v -0.83015 h 0.830142 z" />
      <path
         id="path1034"
         style="font-size:5.64828px;stroke-width:0.264583"
         d="m 40.143174,192.62002 v -0.77223 l -0.410935,0.0579 q -0.43024,0.0607 -0.595717,0.12135 -0.369565,0.14065 -0.369565,0.47161 0,0.22891 0.132382,0.36405 0.132381,0.13514 0.364049,0.13514 0.510221,0 0.879786,-0.37784 z m 0,-1.40931 q 0,-0.64812 -0.548832,-0.64812 -0.259247,0 -0.573654,0.0607 -0.311648,0.0607 -0.438514,0.11584 l -0.118591,-0.36957 q 0.570895,-0.1903 1.072842,-0.1903 0.501947,0 0.805321,0.22891 0.303375,0.22891 0.303375,0.70604 v 2.18154 H 40.22867 l -0.06619,-0.35026 q -0.176508,0.17926 -0.455061,0.30061 -0.275795,0.11859 -0.540558,0.11859 -0.383355,0 -0.637087,-0.22891 -0.253731,-0.23166 -0.253731,-0.65087 0,-0.42197 0.330954,-0.61778 0.223394,-0.1379 0.474367,-0.18754 0.253732,-0.0524 0.65915,-0.10205 l 0.402661,-0.0469 z" />
      <path
         id="path1036"
         style="font-size:5.64828px;stroke-width:0.264583"
         d="m 42.126139,191.76505 q 0,1.2135 0.849449,1.2135 0.763952,0 0.763952,-1.2135 0,-0.67294 -0.206847,-0.93494 -0.204088,-0.26476 -0.565379,-0.26476 -0.706035,0 -0.816353,0.81635 -0.02482,0.17099 -0.02482,0.38335 z m 0.868754,1.59961 q -0.292342,0 -0.518494,-0.13514 -0.226152,-0.13513 -0.344744,-0.3475 v 1.57479 l -0.501947,0.0552 v -4.24173 h 0.501947 v 0.41646 q 0.132382,-0.22616 0.353018,-0.36681 0.220636,-0.14066 0.499189,-0.14066 0.747404,0 1.06181,0.61778 0.198572,0.39163 0.198572,0.93219 0,0.86324 -0.41645,1.31278 -0.297858,0.32268 -0.832901,0.32268 z" />
      <path
         id="path1038"
         style="font-size:5.64828px;stroke-width:0.264583"
         d="m 45.515659,191.76505 q 0,1.2135 0.849448,1.2135 0.763952,0 0.763952,-1.2135 0,-0.67294 -0.206846,-0.93494 -0.204088,-0.26476 -0.565379,-0.26476 -0.706035,0 -0.816353,0.81635 -0.02482,0.17099 -0.02482,0.38335 z m 0.868754,1.59961 q -0.292343,0 -0.518494,-0.13514 -0.226152,-0.13513 -0.344744,-0.3475 v 1.57479 l -0.501947,0.0552 v -4.24173 h 0.501947 v 0.41646 q 0.132381,-0.22616 0.353017,-0.36681 0.220636,-0.14066 0.499189,-0.14066 0.747405,0 1.061811,0.61778 0.198572,0.39163 0.198572,0.93219 0,0.86324 -0.41645,1.31278 -0.297859,0.32268 -0.832901,0.32268 z" />
      <path
         id="path1040"
         style="font-size:5.64828px;stroke-width:0.264583"
         d="m 49.098235,193.15506 q -0.317164,-0.21236 -0.471609,-0.56814 -0.151687,-0.35853 -0.151687,-0.80808 0,-0.44954 0.140655,-0.80532 0.143413,-0.35853 0.424724,-0.57641 0.284069,-0.22064 0.623297,-0.22064 0.639844,0 0.937703,0.43852 0.297858,0.43851 0.297858,1.07836 v 0.16823 h -1.916775 q 0.01655,0.4661 0.231668,0.79153 0.217878,0.32544 0.650876,0.32544 0.289585,-0.0276 0.808079,-0.31441 l 0.165477,0.34199 q -0.358533,0.35853 -0.979072,0.35853 -0.44403,0 -0.761194,-0.2096 z m 1.321058,-1.66029 q -0.05516,-0.92942 -0.650876,-0.92942 -0.67294,0 -0.769468,0.92942 z" />
      <path
         id="path1042"
         style="font-size:5.64828px;stroke-width:0.264583"
         d="m 53.32617,190.17923 q 0.940461,0 0.940461,1.19144 v 1.92505 h -0.501947 v -1.86438 q 0,-0.31992 -0.0331,-0.45782 -0.0331,-0.1379 -0.09929,-0.22615 -0.140656,-0.18202 -0.460578,-0.18202 -0.32268,0 -0.546074,0.18754 -0.223394,0.18754 -0.223394,0.49643 v 2.0464 h -0.501946 v -3.02548 h 0.460577 l 0.02758,0.3282 q 0.300616,-0.41921 0.937702,-0.41921 z" />
      <path
         id="path1044"
         style="font-size:5.64828px;stroke-width:0.264583"
         d="m 57.170753,191.76505 q 0,-0.70603 -0.209604,-0.95149 -0.209605,-0.24821 -0.595717,-0.24821 -0.535043,0 -0.692246,0.52952 -0.0855,0.28959 -0.0855,0.69776 0,1.18592 0.777742,1.18592 0.805321,0 0.805321,-1.2135 z m 0,-1.07835 v -1.65202 l 0.501947,-0.0552 v 4.3162 h -0.501947 v -0.46886 q -0.306133,0.5378 -0.865996,0.5378 -0.639845,0 -0.932187,-0.45782 -0.289585,-0.45782 -0.289585,-1.15006 0,-0.8329 0.424724,-1.26866 0.297859,-0.30889 0.799806,-0.30889 0.341985,0 0.554347,0.14066 0.215121,0.14065 0.308891,0.36681 z" />
      <path
         id="path1046"
         style="font-size:5.64828px;stroke-width:0.264583"
         d="m 60.036263,193.71492 q -0.841174,-1.12248 -0.841174,-2.54558 0,-1.42586 0.8329,-2.57593 h 0.485399 q -0.783257,1.23556 -0.783257,2.54835 0,0.73637 0.204088,1.35415 0.206846,0.61778 0.584685,1.21901 z" />
      <path
         id="path1048"
         style="font-size:5.64828px;stroke-width:0.264583"
         d="m 69.722178,188.59341 q 0.832901,1.15007 0.832901,2.57593 0,1.4231 -0.841175,2.54558 h -0.485399 q 0.377839,-0.60123 0.581928,-1.21901 0.206846,-0.61778 0.206846,-1.35415 0,-1.31279 -0.783258,-2.54835 z" />
    </g>
    <path
       id="path1908-3"
       d="m 10.585075,191.14862 c 1.114962,0 21.184275,0 21.184275,0"
       style="fill:none;stroke:#000000;stroke-width:0.52916664;stroke-linecap:butt;stroke-linejoin:miter;stroke-miterlimit:4;stroke-dasharray:none;stroke-opacity:1" />
    <ellipse
       ry="2.1177735"
       rx="2.118417"
       cy="191.14854"
       cx="14.821911"
       id="path1896-6"
       style="opacity:1;fill:#ffffff;fill-opacity:1;stroke:#000000;stroke-width:0.52916664;stroke-linecap:round;stroke-linejoin:round;stroke-miterlimit:4;stroke-dasharray:none;stroke-opacity:1" />
    <ellipse
       ry="2.1177735"
       rx="2.118417"
       style="opacity:1;fill:#ffffff;fill-opacity:1;stroke:#000000;stroke-width:0.52916664;stroke-linecap:round;stroke-linejoin:round;stroke-miterlimit:4;stroke-dasharray:none;stroke-opacity:1"
       id="circle1898-7"
       cx="21.177166"
       cy="191.14854" />
    <ellipse
       ry="2.1177735"
       rx="2.118417"
       cy="191.14854"
       cx="27.532413"
       id="circle1900-5"
       style="opacity:1;fill:#ffffff;fill-opacity:1;stroke:#000000;stroke-width:0.52916664;stroke-linecap:round;stroke-linejoin:round;stroke-miterlimit:4;stroke-dasharray:none;stroke-opacity:1" />
    <path
       id="path5029"
       d="M 10.585075,189.03082 H 8.4666566 v 4.23556 h 2.1184184"
       style="fill:none;stroke:#000000;stroke-width:0.52916664;stroke-linecap:butt;stroke-linejoin:miter;stroke-miterlimit:4;stroke-dasharray:none;stroke-opacity:1" />
    <path
       style="fill:none;stroke:#000000;stroke-width:0.52916664;stroke-linecap:butt;stroke-linejoin:miter;stroke-miterlimit:4;stroke-dasharray:none;stroke-opacity:1"
       d="m 31.76916,189.0308 h 2.118418 v 4.23556 H 31.76916"
       id="path5031" />
    <path
       style="fill:none;stroke:#000000;stroke-width:0.52916664;stroke-linecap:butt;stroke-linejoin:miter;stroke-miterlimit:4;stroke-dasharray:none;stroke-opacity:1"
       d="m 10.585116,201.73756 c 1.449451,0 27.539554,0 27.539554,0"
       id="path7632" />
    <ellipse
       ry="2.1177735"
       rx="2.118417"
       style="opacity:1;fill:#ffffff;fill-opacity:1;stroke:#000000;stroke-width:0.52916664;stroke-linecap:round;stroke-linejoin:round;stroke-miterlimit:4;stroke-dasharray:none;stroke-opacity:1"
       id="circle7634"
       cx="14.821951"
       cy="201.7375" />
    <ellipse
       ry="2.1177735"
       rx="2.118417"
       cy="201.7375"
       cx="21.177206"
       id="circle7636"
       style="opacity:1;fill:#ffffff;fill-opacity:1;stroke:#000000;stroke-width:0.52916664;stroke-linecap:round;stroke-linejoin:round;stroke-miterlimit:4;stroke-dasharray:none;stroke-opacity:1" />
    <ellipse
       ry="2.1177735"
       rx="2.118417"
       style="opacity:1;fill:#ffffff;fill-opacity:1;stroke:#000000;stroke-width:0.52916664;stroke-linecap:round;stroke-linejoin:round;stroke-miterlimit:4;stroke-dasharray:none;stroke-opacity:1"
       id="circle7638"
       cx="27.532454"
       cy="201.7375" />
    <path
       style="fill:none;stroke:#000000;stroke-width:0.52916664;stroke-linecap:butt;stroke-linejoin:miter;stroke-miterlimit:4;stroke-dasharray:none;stroke-opacity:1"
       d="M 10.585115,199.61976 H 8.4666966 v 4.23556 h 2.1184184"
       id="path7646" />
    <path
       id="path7648"
       d="m 38.124678,199.61974 h 2.118418 v 4.23556 h -2.118418"
       style="fill:none;stroke:#000000;stroke-width:0.52916664;stroke-linecap:butt;stroke-linejoin:miter;stroke-miterlimit:4;stroke-dasharray:none;stroke-opacity:1" />
    <ellipse
       ry="2.1177735"
       rx="2.118417"
       style="opacity:1;fill:#3fb0ac;fill-opacity:1;stroke:#000000;stroke-width:0.52916664;stroke-linecap:round;stroke-linejoin:round;stroke-miterlimit:4;stroke-dasharray:none;stroke-opacity:1"
       id="circle7650"
       cx="33.887817"
       cy="201.73756" />
    <g
       style="font-style:normal;font-variant:normal;font-weight:normal;font-stretch:normal;font-size:5.64828px;line-height:1.25;font-family:'Oxygen Mono';-inkscape-font-specification:'Oxygen Mono';letter-spacing:0px;word-spacing:0px;fill:#000000;fill-opacity:1;stroke:none;stroke-width:0.264583"
       id="text7662"
       transform="scale(1.0001519,0.99984812)"
       aria-label=".extend(      )">
      <path
         id="path1051"
         style="font-size:5.64828px;stroke-width:0.264583"
         d="m 110.65301,193.29572 h -0.83014 v -0.83015 h 0.83014 z" />
      <path
         id="path1053"
         style="font-size:5.64828px;stroke-width:0.264583"
         d="m 113.06346,193.15506 q -0.31717,-0.21236 -0.47161,-0.56814 -0.15169,-0.35853 -0.15169,-0.80808 0,-0.44954 0.14066,-0.80532 0.14341,-0.35853 0.42472,-0.57641 0.28407,-0.22064 0.6233,-0.22064 0.63984,0 0.9377,0.43852 0.29786,0.43851 0.29786,1.07836 v 0.16823 h -1.91678 q 0.0165,0.4661 0.23167,0.79153 0.21788,0.32544 0.65088,0.32544 0.28958,-0.0276 0.80808,-0.31441 l 0.16547,0.34199 q -0.35853,0.35853 -0.97907,0.35853 -0.44403,0 -0.76119,-0.2096 z m 1.32106,-1.66029 q -0.0552,-0.92942 -0.65088,-0.92942 -0.67294,0 -0.76947,0.92942 z" />
      <path
         id="path1055"
         style="font-size:5.64828px;stroke-width:0.264583"
         d="m 115.76073,190.27024 h 0.57366 l 0.71982,1.16386 0.71982,-1.16386 h 0.52126 l -0.92943,1.46723 0.96252,1.55825 h -0.5571 l -0.73913,-1.20523 -0.76947,1.20523 h -0.55159 l 0.99286,-1.54446 z" />
      <path
         id="path1057"
         style="font-size:5.64828px;stroke-width:0.264583"
         d="m 120.32238,190.65636 v 1.42034 q 0,0.26476 0.0276,0.41921 0.0303,0.15445 0.11583,0.25097 0.0883,0.0965 0.22616,0.12963 0.13789,0.0331 0.37508,0.0331 h 0.55434 l -0.0276,0.38612 h -0.50746 q -0.7805,0 -1.03974,-0.28683 -0.16824,-0.18754 -0.20685,-0.60399 -0.0193,-0.18478 -0.0193,-0.45506 v -1.29348 h -0.85496 l 0.0552,-0.38612 h 0.7998 v -1.0425 l 0.50195,-0.14893 v 1.19143 h 1.27417 v 0.38612 z" />
      <path
         id="path1059"
         style="font-size:5.64828px;stroke-width:0.264583"
         d="m 123.23202,193.15506 q -0.31717,-0.21236 -0.47161,-0.56814 -0.15169,-0.35853 -0.15169,-0.80808 0,-0.44954 0.14066,-0.80532 0.14341,-0.35853 0.42472,-0.57641 0.28407,-0.22064 0.6233,-0.22064 0.63984,0 0.9377,0.43852 0.29786,0.43851 0.29786,1.07836 v 0.16823 h -1.91678 q 0.0165,0.4661 0.23167,0.79153 0.21788,0.32544 0.65088,0.32544 0.28958,-0.0276 0.80808,-0.31441 l 0.16547,0.34199 q -0.35853,0.35853 -0.97907,0.35853 -0.44403,0 -0.76119,-0.2096 z m 1.32105,-1.66029 q -0.0552,-0.92942 -0.65087,-0.92942 -0.67294,0 -0.76947,0.92942 z" />
      <path
         id="path1061"
         style="font-size:5.64828px;stroke-width:0.264583"
         d="m 127.45995,190.17923 q 0.94046,0 0.94046,1.19144 v 1.92505 h -0.50194 v -1.86438 q 0,-0.31992 -0.0331,-0.45782 -0.0331,-0.1379 -0.0993,-0.22615 -0.14065,-0.18202 -0.46057,-0.18202 -0.32268,0 -0.54608,0.18754 -0.22339,0.18754 -0.22339,0.49643 v 2.0464 h -0.50195 v -3.02548 h 0.46058 l 0.0276,0.3282 q 0.30062,-0.41921 0.9377,-0.41921 z" />
      <path
         id="path1063"
         style="font-size:5.64828px;stroke-width:0.264583"
         d="m 131.30453,191.76505 q 0,-0.70603 -0.2096,-0.95149 -0.2096,-0.24821 -0.59572,-0.24821 -0.53504,0 -0.69224,0.52952 -0.0855,0.28959 -0.0855,0.69776 0,1.18592 0.77774,1.18592 0.80532,0 0.80532,-1.2135 z m 0,-1.07835 v -1.65202 l 0.50195,-0.0552 v 4.3162 h -0.50195 v -0.46886 q -0.30613,0.5378 -0.86599,0.5378 -0.63985,0 -0.93219,-0.45782 -0.28958,-0.45782 -0.28958,-1.15006 0,-0.8329 0.42472,-1.26866 0.29786,-0.30889 0.79981,-0.30889 0.34198,0 0.55434,0.14066 0.21512,0.14065 0.30889,0.36681 z" />
      <path
         id="path1065"
         style="font-size:5.64828px;stroke-width:0.264583"
         d="m 134.17004,193.71492 q -0.84117,-1.12248 -0.84117,-2.54558 0,-1.42586 0.8329,-2.57593 h 0.4854 q -0.78326,1.23556 -0.78326,2.54835 0,0.73637 0.20409,1.35415 0.20685,0.61778 0.58469,1.21901 z" />
      <path
         id="path1067"
         style="font-size:5.64828px;stroke-width:0.264583"
         d="m 157.41404,188.59341 q 0.8329,1.15007 0.8329,2.57593 0,1.4231 -0.84117,2.54558 h -0.4854 q 0.37784,-0.60123 0.58193,-1.21901 0.20684,-0.61778 0.20684,-1.35415 0,-1.31279 -0.78325,-2.54835 z" />
    </g>
    <path
       style="fill:none;stroke:#000000;stroke-width:0.52916664;stroke-linecap:butt;stroke-linejoin:miter;stroke-miterlimit:4;stroke-dasharray:none;stroke-opacity:1"
       d="m 84.729934,191.14862 c 1.114963,0 21.184276,0 21.184276,0"
       id="path7664" />
    <ellipse
       ry="2.1177735"
       rx="2.118417"
       style="opacity:1;fill:#ffffff;fill-opacity:1;stroke:#000000;stroke-width:0.52916664;stroke-linecap:round;stroke-linejoin:round;stroke-miterlimit:4;stroke-dasharray:none;stroke-opacity:1"
       id="circle7666"
       cx="88.966774"
       cy="191.14854" />
    <ellipse
       ry="2.1177735"
       rx="2.118417"
       cy="191.14854"
       cx="95.322029"
       id="circle7668"
       style="opacity:1;fill:#ffffff;fill-opacity:1;stroke:#000000;stroke-width:0.52916664;stroke-linecap:round;stroke-linejoin:round;stroke-miterlimit:4;stroke-dasharray:none;stroke-opacity:1" />
    <ellipse
       ry="2.1177735"
       rx="2.118417"
       style="opacity:1;fill:#ffffff;fill-opacity:1;stroke:#000000;stroke-width:0.52916664;stroke-linecap:round;stroke-linejoin:round;stroke-miterlimit:4;stroke-dasharray:none;stroke-opacity:1"
       id="circle7670"
       cx="101.67727"
       cy="191.14854" />
    <path
       style="fill:none;stroke:#000000;stroke-width:0.52916664;stroke-linecap:butt;stroke-linejoin:miter;stroke-miterlimit:4;stroke-dasharray:none;stroke-opacity:1"
       d="m 84.729934,189.03082 h -2.118418 v 4.23556 h 2.118418"
       id="path7678" />
    <path
       id="path7680"
       d="m 105.91421,189.03082 h 2.11842 v 4.23556 h -2.11842"
       style="fill:none;stroke:#000000;stroke-width:0.52916664;stroke-linecap:butt;stroke-linejoin:miter;stroke-miterlimit:4;stroke-dasharray:none;stroke-opacity:1" />
    <path
       id="path7682"
       d="m 84.729978,201.73756 c 1.783938,0 33.894832,0 33.894832,0"
       style="fill:none;stroke:#000000;stroke-width:0.52916664;stroke-linecap:butt;stroke-linejoin:miter;stroke-miterlimit:4;stroke-dasharray:none;stroke-opacity:1" />
    <ellipse
       ry="2.1177735"
       rx="2.118417"
       cy="201.7375"
       cx="88.966812"
       id="circle7684"
       style="opacity:1;fill:#ffffff;fill-opacity:1;stroke:#000000;stroke-width:0.52916664;stroke-linecap:round;stroke-linejoin:round;stroke-miterlimit:4;stroke-dasharray:none;stroke-opacity:1" />
    <ellipse
       ry="2.1177735"
       rx="2.118417"
       style="opacity:1;fill:#ffffff;fill-opacity:1;stroke:#000000;stroke-width:0.52916664;stroke-linecap:round;stroke-linejoin:round;stroke-miterlimit:4;stroke-dasharray:none;stroke-opacity:1"
       id="circle7686"
       cx="95.322067"
       cy="201.7375" />
    <ellipse
       ry="2.1177735"
       rx="2.118417"
       cy="201.7375"
       cx="101.67731"
       id="circle7688"
       style="opacity:1;fill:#ffffff;fill-opacity:1;stroke:#000000;stroke-width:0.52916664;stroke-linecap:round;stroke-linejoin:round;stroke-miterlimit:4;stroke-dasharray:none;stroke-opacity:1" />
    <path
       id="path7696"
       d="m 84.729974,199.61976 h -2.118418 v 4.23556 h 2.118418"
       style="fill:none;stroke:#000000;stroke-width:0.52916664;stroke-linecap:butt;stroke-linejoin:miter;stroke-miterlimit:4;stroke-dasharray:none;stroke-opacity:1" />
    <path
       style="fill:none;stroke:#000000;stroke-width:0.52916664;stroke-linecap:butt;stroke-linejoin:miter;stroke-miterlimit:4;stroke-dasharray:none;stroke-opacity:1"
       d="m 118.62478,199.61978 h 2.11842 v 4.23556 h -2.11842"
       id="path7698" />
    <ellipse
       ry="2.1177926"
       rx="2.1184361"
       cy="191.14861"
       cx="141.92746"
       id="circle7702"
       style="opacity:1;fill:#3fb0ac;fill-opacity:1;stroke:#000000;stroke-width:0.52916664;stroke-linecap:round;stroke-linejoin:round;stroke-miterlimit:4;stroke-dasharray:none;stroke-opacity:1" />
    <ellipse
       ry="2.1177926"
       rx="2.1184361"
       style="opacity:1;fill:#3fb0ac;fill-opacity:1;stroke:#000000;stroke-width:0.52916664;stroke-linecap:round;stroke-linejoin:round;stroke-miterlimit:4;stroke-dasharray:none;stroke-opacity:1"
       id="circle7704"
       cx="148.2827"
       cy="191.14861" />
    <ellipse
       ry="2.1177926"
       rx="2.1184361"
       cy="201.7375"
       cx="108.03269"
       id="circle7708"
       style="opacity:1;fill:#3fb0ac;fill-opacity:1;stroke:#000000;stroke-width:0.52916664;stroke-linecap:round;stroke-linejoin:round;stroke-miterlimit:4;stroke-dasharray:none;stroke-opacity:1" />
    <ellipse
       ry="2.1177926"
       rx="2.1184361"
       style="opacity:1;fill:#3fb0ac;fill-opacity:1;stroke:#000000;stroke-width:0.52916664;stroke-linecap:round;stroke-linejoin:round;stroke-miterlimit:4;stroke-dasharray:none;stroke-opacity:1"
       id="circle7710"
       cx="114.38798"
       cy="201.7375" />
    <path
       id="path7714"
       d="m 137.95561,189.03082 h -2.11842 v 4.23556 h 2.11842"
       style="fill:none;stroke:#000000;stroke-width:0.52916664;stroke-linecap:butt;stroke-linejoin:miter;stroke-miterlimit:4;stroke-dasharray:none;stroke-opacity:1" />
    <path
       style="fill:none;stroke:#000000;stroke-width:0.52916664;stroke-linecap:butt;stroke-linejoin:miter;stroke-miterlimit:4;stroke-dasharray:none;stroke-opacity:1"
       d="m 152.5196,189.03082 h 2.11842 v 4.23556 h -2.11842"
       id="path7716" />
    <g
       style="font-style:normal;font-variant:normal;font-weight:normal;font-stretch:normal;font-size:5.64828px;line-height:1.25;font-family:'Oxygen Mono';-inkscape-font-specification:'Oxygen Mono';letter-spacing:0px;word-spacing:0px;fill:#000000;fill-opacity:1;stroke:none;stroke-width:0.264583"
       id="text7722"
       transform="scale(1.0001519,0.99984812)"
       aria-label=".pop()">
      <path
         id="path1070"
         style="font-size:5.64828px;stroke-width:0.264583"
         d="m 36.519278,222.9493 h -0.830143 v -0.83015 h 0.830143 z" />
      <path
         id="path1072"
         style="font-size:5.64828px;stroke-width:0.264583"
         d="m 38.736669,221.41863 q 0,1.2135 0.849449,1.2135 0.763952,0 0.763952,-1.2135 0,-0.67294 -0.206847,-0.93494 -0.204088,-0.26476 -0.565379,-0.26476 -0.706035,0 -0.816353,0.81635 -0.02482,0.17099 -0.02482,0.38335 z m 0.868754,1.59961 q -0.292342,0 -0.518494,-0.13514 -0.226152,-0.13514 -0.344744,-0.3475 v 1.57479 l -0.501947,0.0552 v -4.24173 h 0.501947 v 0.41646 q 0.132382,-0.22616 0.353018,-0.36681 0.220636,-0.14066 0.499188,-0.14066 0.747405,0 1.061811,0.61778 0.198572,0.39163 0.198572,0.93219 0,0.86324 -0.41645,1.31278 -0.297859,0.32268 -0.832901,0.32268 z" />
      <path
         id="path1074"
         style="font-size:5.64828px;stroke-width:0.264583"
         d="m 42.879109,222.63213 q 0.526768,0 0.717067,-0.52401 0.102044,-0.28131 0.102044,-0.57641 0,-0.29786 -0.02206,-0.46334 -0.04964,-0.37508 -0.239941,-0.61226 -0.187541,-0.23718 -0.557106,-0.23718 -0.512978,0 -0.700519,0.53504 -0.09929,0.28682 -0.09929,0.60123 0,0.55711 0.173751,0.9184 0.17375,0.35853 0.626054,0.35853 z m 0.992862,-2.35805 q 0.328196,0.44128 0.328196,1.15283 0,0.71155 -0.355776,1.15282 -0.355775,0.43851 -0.965282,0.43851 -0.325438,0 -0.579169,-0.1241 -0.253732,-0.12411 -0.410935,-0.34199 -0.317164,-0.43851 -0.317164,-1.14179 0,-0.70328 0.35026,-1.13903 0.350259,-0.43852 0.984588,-0.43852 0.637086,0 0.965282,0.44127 z" />
      <path
         id="path1076"
         style="font-size:5.64828px;stroke-width:0.264583"
         d="m 45.515709,221.41863 q 0,1.2135 0.849448,1.2135 0.763952,0 0.763952,-1.2135 0,-0.67294 -0.206846,-0.93494 -0.204088,-0.26476 -0.56538,-0.26476 -0.706035,0 -0.816353,0.81635 -0.02482,0.17099 -0.02482,0.38335 z m 0.868754,1.59961 q -0.292343,0 -0.518495,-0.13514 -0.226152,-0.13514 -0.344743,-0.3475 v 1.57479 l -0.501947,0.0552 v -4.24173 h 0.501947 v 0.41646 q 0.132381,-0.22616 0.353017,-0.36681 0.220636,-0.14066 0.499189,-0.14066 0.747404,0 1.06181,0.61778 0.198573,0.39163 0.198573,0.93219 0,0.86324 -0.416451,1.31278 -0.297858,0.32268 -0.8329,0.32268 z" />
      <path
         id="path1078"
         style="font-size:5.64828px;stroke-width:0.264583"
         d="m 49.867753,223.3685 q -0.841175,-1.12248 -0.841175,-2.54558 0,-1.42586 0.832901,-2.57593 h 0.485399 q -0.783258,1.23556 -0.783258,2.54835 0,0.73637 0.204088,1.35415 0.206847,0.61778 0.584686,1.21901 z" />
      <path
         id="path1080"
         style="font-size:5.64828px;stroke-width:0.264583"
         d="m 52.77463,218.24699 q 0.832901,1.15007 0.832901,2.57593 0,1.4231 -0.841175,2.54558 h -0.485399 q 0.377839,-0.60123 0.581928,-1.21901 0.206846,-0.61778 0.206846,-1.35415 0,-1.31279 -0.783258,-2.54835 z" />
    </g>
    <path
       style="fill:none;stroke:#000000;stroke-width:0.52916664;stroke-linecap:butt;stroke-linejoin:miter;stroke-miterlimit:4;stroke-dasharray:none;stroke-opacity:1"
       d="m 10.585125,220.79765 c 1.114963,0 21.184275,0 21.184275,0"
       id="path7724" />
    <ellipse
       ry="2.1177735"
       rx="2.118417"
       style="opacity:1;fill:#ffffff;fill-opacity:1;stroke:#000000;stroke-width:0.52916664;stroke-linecap:round;stroke-linejoin:round;stroke-miterlimit:4;stroke-dasharray:none;stroke-opacity:1"
       id="circle7726"
       cx="14.82196"
       cy="220.79759" />
    <ellipse
       ry="2.1177735"
       rx="2.118417"
       cy="220.79759"
       cx="21.177216"
       id="circle7728"
       style="opacity:1;fill:#ffffff;fill-opacity:1;stroke:#000000;stroke-width:0.52916664;stroke-linecap:round;stroke-linejoin:round;stroke-miterlimit:4;stroke-dasharray:none;stroke-opacity:1" />
    <ellipse
       ry="2.1177735"
       rx="2.118417"
       style="opacity:1;fill:#3fb0ac;fill-opacity:1;stroke:#000000;stroke-width:0.52916664;stroke-linecap:round;stroke-linejoin:round;stroke-miterlimit:4;stroke-dasharray:none;stroke-opacity:1"
       id="circle7730"
       cx="27.532463"
       cy="220.79759" />
    <path
       style="fill:none;stroke:#000000;stroke-width:0.52916664;stroke-linecap:butt;stroke-linejoin:miter;stroke-miterlimit:4;stroke-dasharray:none;stroke-opacity:1"
       d="M 10.585125,218.67985 H 8.4667066 v 4.23556 h 2.1184184"
       id="path7732" />
    <path
       id="path7734"
       d="m 31.76921,218.67983 h 2.118418 v 4.23556 H 31.76921"
       style="fill:none;stroke:#000000;stroke-width:0.52916664;stroke-linecap:butt;stroke-linejoin:miter;stroke-miterlimit:4;stroke-dasharray:none;stroke-opacity:1" />
    <path
       id="path7736"
       d="m 10.585125,233.50435 c 0.780472,0 14.828945,0 14.828945,0"
       style="fill:none;stroke:#000000;stroke-width:0.52916664;stroke-linecap:butt;stroke-linejoin:miter;stroke-miterlimit:4;stroke-dasharray:none;stroke-opacity:1" />
    <ellipse
       ry="2.1177735"
       rx="2.118417"
       cy="233.5043"
       cx="14.82196"
       id="circle7738"
       style="opacity:1;fill:#ffffff;fill-opacity:1;stroke:#000000;stroke-width:0.52916664;stroke-linecap:round;stroke-linejoin:round;stroke-miterlimit:4;stroke-dasharray:none;stroke-opacity:1" />
    <ellipse
       ry="2.1177735"
       rx="2.118417"
       style="opacity:1;fill:#ffffff;fill-opacity:1;stroke:#000000;stroke-width:0.52916664;stroke-linecap:round;stroke-linejoin:round;stroke-miterlimit:4;stroke-dasharray:none;stroke-opacity:1"
       id="circle7740"
       cx="21.177216"
       cy="233.5043" />
    <path
       id="path7744"
       d="M 10.585125,231.38655 H 8.4667066 v 4.23555 h 2.1184184"
       style="fill:none;stroke:#000000;stroke-width:0.52916664;stroke-linecap:butt;stroke-linejoin:miter;stroke-miterlimit:4;stroke-dasharray:none;stroke-opacity:1" />
    <path
       style="fill:none;stroke:#000000;stroke-width:0.52916664;stroke-linecap:butt;stroke-linejoin:miter;stroke-miterlimit:4;stroke-dasharray:none;stroke-opacity:1"
       d="m 25.41408,231.38647 h 2.118418 v 4.23555 H 25.41408"
       id="path7746" />
    <ellipse
       ry="2.1177735"
       rx="2.118417"
       cy="233.50424"
       cx="52.953617"
       id="circle7748"
       style="opacity:1;fill:#3fb0ac;fill-opacity:1;stroke:#000000;stroke-width:0.52916664;stroke-linecap:round;stroke-linejoin:round;stroke-miterlimit:4;stroke-dasharray:none;stroke-opacity:1" />
    <path
       id="path7750"
       d="m 27.532498,225.03312 v 1.0589 c -4e-6,6.35335 12.71056,7.41225 19.065838,7.41225 h 2.118428"
       style="fill:none;stroke:#000000;stroke-width:0.52916664;stroke-linecap:butt;stroke-linejoin:miter;stroke-miterlimit:4;stroke-dasharray:none;stroke-opacity:1;marker-end:url(#marker7754)" />
    <g
       style="font-style:normal;font-variant:normal;font-weight:normal;font-stretch:normal;font-size:5.64828px;line-height:1.25;font-family:'Oxygen Mono';-inkscape-font-specification:'Oxygen Mono';letter-spacing:0px;word-spacing:0px;fill:#000000;fill-opacity:1;stroke:none;stroke-width:0.264583"
       id="text7964"
       transform="scale(1.0001519,0.99984812)"
       aria-label=".remove( )">
      <path
         id="path1083"
         style="font-size:5.64828px;stroke-width:0.264583"
         d="m 123.36149,248.36644 h -0.83014 v -0.83014 h 0.83014 z" />
      <path
         id="path1085"
         style="font-size:5.64828px;stroke-width:0.264583"
         d="m 126.1415,248.36644 h -0.50194 v -3.02547 h 0.41093 l 0.0414,0.55986 q 0.18478,-0.31992 0.4854,-0.4854 0.30062,-0.16547 0.68121,-0.16547 h 0.2427 v 0.46609 h -0.3144 q -0.48264,0 -0.76396,0.2427 -0.28131,0.23994 -0.28131,0.72534 z" />
      <path
         id="path1087"
         style="font-size:5.64828px;stroke-width:0.264583"
         d="m 129.16146,248.22578 q -0.31717,-0.21236 -0.47161,-0.56813 -0.15169,-0.35854 -0.15169,-0.80808 0,-0.44955 0.14066,-0.80532 0.14341,-0.35854 0.42472,-0.57641 0.28407,-0.22064 0.6233,-0.22064 0.63984,0 0.9377,0.43851 0.29786,0.43852 0.29786,1.07836 v 0.16824 h -1.91678 q 0.0165,0.46609 0.23167,0.79153 0.21788,0.32544 0.65088,0.32544 0.28958,-0.0276 0.80808,-0.31441 l 0.16547,0.34199 q -0.35853,0.35853 -0.97907,0.35853 -0.44403,0 -0.76119,-0.20961 z m 1.32106,-1.66028 q -0.0552,-0.92943 -0.65088,-0.92943 -0.67294,0 -0.76947,0.92943 z" />
      <path
         id="path1089"
         style="font-size:5.64828px;stroke-width:0.264583"
         d="m 133.26529,245.71881 q 0.18202,-0.46885 0.63708,-0.46885 0.57641,0 0.65088,0.83014 0.0138,0.15445 0.0138,0.3475 v 1.93884 h -0.46058 v -1.88092 q 0,-0.54332 -0.0717,-0.67294 -0.0717,-0.13238 -0.13238,-0.15445 -0.0579,-0.0221 -0.12962,-0.0221 -0.2427,0 -0.34474,0.27028 -0.0662,0.17375 -0.0662,0.58468 v 1.87541 h -0.42196 v -1.84507 q 0,-0.60951 -0.14341,-0.79153 -0.0745,-0.0938 -0.21512,-0.0938 -0.1379,0 -0.23719,0.12135 -0.18478,0.22615 -0.18478,0.62054 v 1.98848 h -0.46058 v -3.02547 h 0.3999 l 0.0303,0.3999 q 0.08,-0.20684 0.22064,-0.3475 0.14065,-0.14341 0.35026,-0.14341 0.21236,0 0.35853,0.1241 0.14893,0.12411 0.20685,0.34475 z" />
      <path
         id="path1091"
         style="font-size:5.64828px;stroke-width:0.264583"
         d="m 136.50036,248.04928 q 0.52677,0 0.71707,-0.52401 0.10204,-0.28132 0.10204,-0.57642 0,-0.29785 -0.0221,-0.46333 -0.0496,-0.37508 -0.23994,-0.61227 -0.18754,-0.23718 -0.55711,-0.23718 -0.51298,0 -0.70052,0.53504 -0.0993,0.28683 -0.0993,0.60124 0,0.5571 0.17375,0.91839 0.17375,0.35854 0.62605,0.35854 z m 0.99286,-2.35805 q 0.3282,0.44127 0.3282,1.15282 0,0.71155 -0.35578,1.15282 -0.35577,0.43852 -0.96528,0.43852 -0.32544,0 -0.57917,-0.12411 -0.25373,-0.12411 -0.41093,-0.34198 -0.31717,-0.43852 -0.31717,-1.1418 0,-0.70327 0.35026,-1.13903 0.35026,-0.43851 0.98459,-0.43851 0.63709,0 0.96528,0.44127 z" />
      <path
         id="path1093"
         style="font-size:5.64828px;stroke-width:0.264583"
         d="m 139.90643,247.84519 q 0.23994,-0.65364 0.8853,-2.50422 h 0.55711 l -1.17765,3.02547 h -0.55986 l -1.16937,-3.02547 h 0.57917 z" />
      <path
         id="path1095"
         style="font-size:5.64828px;stroke-width:0.264583"
         d="m 142.71954,248.22578 q -0.31717,-0.21236 -0.47161,-0.56813 -0.15169,-0.35854 -0.15169,-0.80808 0,-0.44955 0.14066,-0.80532 0.14341,-0.35854 0.42472,-0.57641 0.28407,-0.22064 0.6233,-0.22064 0.63984,0 0.9377,0.43851 0.29786,0.43852 0.29786,1.07836 v 0.16824 h -1.91678 q 0.0165,0.46609 0.23167,0.79153 0.21788,0.32544 0.65088,0.32544 0.28958,-0.0276 0.80808,-0.31441 l 0.16547,0.34199 q -0.35853,0.35853 -0.97907,0.35853 -0.44403,0 -0.76119,-0.20961 z m 1.32105,-1.66028 q -0.0551,-0.92943 -0.65087,-0.92943 -0.67294,0 -0.76947,0.92943 z" />
      <path
         id="path1097"
         style="font-size:5.64828px;stroke-width:0.264583"
         d="m 146.87853,248.78565 q -0.84118,-1.12249 -0.84118,-2.54559 0,-1.42586 0.8329,-2.57592 h 0.4854 q -0.78326,1.23556 -0.78326,2.54834 0,0.73637 0.20409,1.35415 0.20685,0.61779 0.58469,1.21902 z" />
      <path
         id="path1099"
         style="font-size:5.64828px;stroke-width:0.264583"
         d="m 153.17492,243.66414 q 0.8329,1.15006 0.8329,2.57592 0,1.4231 -0.84117,2.54559 h -0.4854 q 0.37784,-0.60123 0.58193,-1.21902 0.20684,-0.61778 0.20684,-1.35415 0,-1.31278 -0.78326,-2.54834 z" />
    </g>
    <path
       id="path7966"
       d="m 84.729998,246.21105 c 1.783938,0 33.894812,0 33.894812,0"
       style="fill:none;stroke:#000000;stroke-width:0.52916664;stroke-linecap:butt;stroke-linejoin:miter;stroke-miterlimit:4;stroke-dasharray:none;stroke-opacity:1" />
    <ellipse
       ry="2.1177735"
       rx="2.118417"
       cy="246.21097"
       cx="88.966835"
       id="circle7968"
       style="opacity:1;fill:#ffffff;fill-opacity:1;stroke:#000000;stroke-width:0.52916664;stroke-linecap:round;stroke-linejoin:round;stroke-miterlimit:4;stroke-dasharray:none;stroke-opacity:1" />
    <ellipse
       ry="2.1177735"
       rx="2.118417"
       style="opacity:1;fill:#ffffff;fill-opacity:1;stroke:#000000;stroke-width:0.52916664;stroke-linecap:round;stroke-linejoin:round;stroke-miterlimit:4;stroke-dasharray:none;stroke-opacity:1"
       id="circle7970"
       cx="95.32209"
       cy="246.21097" />
    <ellipse
       ry="2.1177735"
       rx="2.118417"
       cy="246.21097"
       cx="101.67733"
       id="circle7972"
       style="opacity:1;fill:#3fb0ac;fill-opacity:1;stroke:#000000;stroke-width:0.52916664;stroke-linecap:round;stroke-linejoin:round;stroke-miterlimit:4;stroke-dasharray:none;stroke-opacity:1" />
    <path
       id="path7974"
       d="M 84.729998,244.09325 H 82.61158 v 4.23555 h 2.118418"
       style="fill:none;stroke:#000000;stroke-width:0.52916664;stroke-linecap:butt;stroke-linejoin:miter;stroke-miterlimit:4;stroke-dasharray:none;stroke-opacity:1" />
    <path
       style="fill:none;stroke:#000000;stroke-width:0.52916664;stroke-linecap:butt;stroke-linejoin:miter;stroke-miterlimit:4;stroke-dasharray:none;stroke-opacity:1"
       d="m 118.62481,244.09321 h 2.11842 v 4.23555 h -2.11842"
       id="path7976" />
    <path
       style="fill:none;stroke:#000000;stroke-width:0.52916664;stroke-linecap:butt;stroke-linejoin:miter;stroke-miterlimit:4;stroke-dasharray:none;stroke-opacity:1"
       d="m 87.907574,256.79997 c 1.44945,0 27.539546,0 27.539546,0"
       id="path7978" />
    <ellipse
       ry="2.1177735"
       rx="2.118417"
       style="opacity:1;fill:#ffffff;fill-opacity:1;stroke:#000000;stroke-width:0.52916664;stroke-linecap:round;stroke-linejoin:round;stroke-miterlimit:4;stroke-dasharray:none;stroke-opacity:1"
       id="circle7980"
       cx="92.144455"
       cy="256.79987" />
    <ellipse
       ry="2.1177735"
       rx="2.118417"
       cy="256.79987"
       cx="98.49971"
       id="circle7982"
       style="opacity:1;fill:#ffffff;fill-opacity:1;stroke:#000000;stroke-width:0.52916664;stroke-linecap:round;stroke-linejoin:round;stroke-miterlimit:4;stroke-dasharray:none;stroke-opacity:1" />
    <path
       style="fill:none;stroke:#000000;stroke-width:0.52916664;stroke-linecap:butt;stroke-linejoin:miter;stroke-miterlimit:4;stroke-dasharray:none;stroke-opacity:1"
       d="m 87.907614,254.68217 h -2.118418 v 4.23555 h 2.118418"
       id="path7986" />
    <path
       id="path7988"
       d="m 115.44708,254.68217 h 2.11842 v 4.23555 h -2.11842"
       style="fill:none;stroke:#000000;stroke-width:0.52916664;stroke-linecap:butt;stroke-linejoin:miter;stroke-miterlimit:4;stroke-dasharray:none;stroke-opacity:1" />
    <ellipse
       ry="2.1177926"
       rx="2.1184361"
       cy="246.21097"
       cx="150.4012"
       id="circle7992"
       style="opacity:1;fill:#3fb0ac;fill-opacity:1;stroke:#000000;stroke-width:0.52916664;stroke-linecap:round;stroke-linejoin:round;stroke-miterlimit:4;stroke-dasharray:none;stroke-opacity:1" />
    <ellipse
       ry="2.1177926"
       rx="2.1184361"
       style="opacity:1;fill:#ffffff;fill-opacity:1;stroke:#000000;stroke-width:0.52916664;stroke-linecap:round;stroke-linejoin:round;stroke-miterlimit:4;stroke-dasharray:none;stroke-opacity:1"
       id="circle7994"
       cx="104.855"
       cy="256.79987" />
    <ellipse
       ry="2.1177926"
       rx="2.1184361"
       cy="256.79987"
       cx="111.21029"
       id="circle7996"
       style="opacity:1;fill:#3fb0ac;fill-opacity:1;stroke:#000000;stroke-width:0.52916664;stroke-linecap:round;stroke-linejoin:round;stroke-miterlimit:4;stroke-dasharray:none;stroke-opacity:1" />
    <ellipse
       ry="2.1177735"
       rx="2.118417"
       style="opacity:1;fill:#ffffff;fill-opacity:1;stroke:#000000;stroke-width:0.52916664;stroke-linecap:round;stroke-linejoin:round;stroke-miterlimit:4;stroke-dasharray:none;stroke-opacity:1"
       id="circle8002"
       cx="108.03269"
       cy="246.21097" />
    <ellipse
       ry="2.1177735"
       rx="2.118417"
       cy="246.21097"
       cx="114.38796"
       id="circle8004"
       style="opacity:1;fill:#3fb0ac;fill-opacity:1;stroke:#000000;stroke-width:0.52916664;stroke-linecap:round;stroke-linejoin:round;stroke-miterlimit:4;stroke-dasharray:none;stroke-opacity:1" />
    <path
       d="m 100.08858,249.3877 3.17764,3.17668 m -3.17764,0 3.17764,-3.17668"
       style="fill:none;stroke:#800000;stroke-width:0.26458332px;stroke-linecap:butt;stroke-linejoin:miter;stroke-opacity:1"
       id="path8008" />
    <path
       style="fill:#b3b3b3;stroke:#b3b3b3;stroke-width:0.26458332;stroke-linecap:butt;stroke-linejoin:miter;stroke-miterlimit:4;stroke-dasharray:none;stroke-opacity:1"
       d="m 96.381332,249.3877 1.059212,4.23557"
       id="path8021" />
    <path
       id="path8027"
       d="m 90.02605,249.3877 1.059212,4.23557"
       style="fill:#b3b3b3;stroke:#b3b3b3;stroke-width:0.26458332;stroke-linecap:butt;stroke-linejoin:miter;stroke-miterlimit:4;stroke-dasharray:none;stroke-opacity:1" />
    <path
       style="fill:#b3b3b3;stroke:#b3b3b3;stroke-width:0.26458332;stroke-linecap:butt;stroke-linejoin:miter;stroke-miterlimit:4;stroke-dasharray:none;stroke-opacity:1"
       d="m 106.97347,249.3877 -1.05922,4.23557"
       id="path8029" />
    <path
       id="path8031"
       d="m 113.32874,249.3877 -1.05921,4.23557"
       style="fill:#b3b3b3;stroke:#b3b3b3;stroke-width:0.26458332;stroke-linecap:butt;stroke-linejoin:miter;stroke-miterlimit:4;stroke-dasharray:none;stroke-opacity:1" />
    <g
       style="font-style:normal;font-variant:normal;font-weight:normal;font-stretch:normal;font-size:5.64828px;line-height:1.25;font-family:'Oxygen Mono';-inkscape-font-specification:'Oxygen Mono';letter-spacing:0px;word-spacing:0px;fill:#000000;fill-opacity:1;stroke:none;stroke-width:0.264583"
       id="text8041"
       transform="scale(1.0001519,0.99984812)"
       aria-label=".sort()">
      <path
         id="path1102"
         style="font-size:5.64828px;stroke-width:0.264583"
         d="m 42.344019,250.48463 h -0.830142 v -0.83014 h 0.830142 z" />
      <path
         id="path1104"
         style="font-size:5.64828px;stroke-width:0.264583"
         d="m 45.689412,248.76643 q 0.391629,0.0965 0.570895,0.30613 0.182025,0.20961 0.182025,0.60675 0,0.39439 -0.303374,0.63433 -0.300617,0.23994 -0.755679,0.23994 -0.325438,0 -0.63157,-0.08 -0.306132,-0.0827 -0.452304,-0.19305 l 0.124108,-0.3613 q 0.115834,0.0717 0.366807,0.14618 0.250974,0.0717 0.543316,0.0717 0.295101,0 0.468852,-0.12135 0.176509,-0.1241 0.176509,-0.32819 0,-0.20409 -0.08825,-0.31993 -0.0855,-0.11859 -0.333712,-0.17926 l -0.512978,-0.12411 q -0.44403,-0.11032 -0.590201,-0.31992 -0.146172,-0.21236 -0.146172,-0.52677 0,-0.31441 0.253732,-0.57917 0.256489,-0.26476 0.744646,-0.27028 h 0.03585 q 0.548832,0 0.934945,0.20685 l -0.110318,0.35302 q -0.402661,-0.171 -0.816353,-0.171 -0.256489,0.003 -0.421966,0.12963 -0.162719,0.1241 -0.162719,0.3144 0,0.1903 0.08274,0.28683 0.08274,0.0938 0.314407,0.14893 z" />
      <path
         id="path1106"
         style="font-size:5.64828px;stroke-width:0.264583"
         d="m 48.70385,250.16747 q 0.526769,0 0.717067,-0.52401 0.102044,-0.28131 0.102044,-0.57641 0,-0.29786 -0.02206,-0.46334 -0.04964,-0.37508 -0.239942,-0.61226 -0.18754,-0.23719 -0.557106,-0.23719 -0.512978,0 -0.700519,0.53505 -0.09929,0.28682 -0.09929,0.60123 0,0.55711 0.173751,0.9184 0.173751,0.35853 0.626054,0.35853 z m 0.992862,-2.35805 q 0.328196,0.44128 0.328196,1.15283 0,0.71155 -0.355775,1.15282 -0.355776,0.43851 -0.965283,0.43851 -0.325438,0 -0.579169,-0.1241 -0.253731,-0.12411 -0.410934,-0.34199 -0.317165,-0.43851 -0.317165,-1.14179 0,-0.70328 0.35026,-1.13903 0.35026,-0.43852 0.984588,-0.43852 0.637086,0 0.965282,0.44127 z" />
      <path
         id="path1108"
         style="font-size:5.64828px;stroke-width:0.264583"
         d="m 51.903072,250.48463 h -0.501947 v -3.02547 h 0.410934 l 0.04137,0.55987 q 0.184782,-0.31992 0.485399,-0.4854 0.300616,-0.16548 0.681213,-0.16548 h 0.2427 v 0.4661 h -0.314407 q -0.482641,0 -0.763952,0.24269 -0.28131,0.23995 -0.28131,0.72535 z" />
      <path
         id="path1110"
         style="font-size:5.64828px;stroke-width:0.264583"
         d="m 55.402909,247.84528 v 1.42034 q 0,0.26476 0.02758,0.41921 0.03034,0.15444 0.115834,0.25097 0.08825,0.0965 0.226152,0.12963 0.137897,0.0331 0.375081,0.0331 h 0.554347 l -0.02758,0.38611 h -0.507463 q -0.780499,0 -1.039747,-0.28682 -0.168235,-0.18754 -0.206846,-0.60399 -0.01931,-0.18479 -0.01931,-0.45506 v -1.29348 h -0.854965 l 0.05516,-0.38612 h 0.799806 v -1.0425 l 0.501946,-0.14893 v 1.19143 h 1.274173 v 0.38612 z" />
      <path
         id="path1112"
         style="font-size:5.64828px;stroke-width:0.264583"
         d="m 59.082013,250.90384 q -0.841175,-1.12248 -0.841175,-2.54558 0,-1.42586 0.832901,-2.57593 h 0.485399 q -0.783258,1.23556 -0.783258,2.54835 0,0.73637 0.204089,1.35415 0.206846,0.61778 0.584685,1.21901 z" />
      <path
         id="path1114"
         style="font-size:5.64828px;stroke-width:0.264583"
         d="m 61.988892,245.78233 q 0.832901,1.15007 0.832901,2.57593 0,1.4231 -0.841175,2.54558 h -0.485399 q 0.377839,-0.60123 0.581928,-1.21901 0.206846,-0.61778 0.206846,-1.35415 0,-1.31279 -0.783258,-2.54835 z" />
    </g>
    <path
       id="path8043"
       d="m 10.585101,248.32886 c 1.449449,0 27.539529,0 27.539529,0"
       style="fill:none;stroke:#000000;stroke-width:0.52916664;stroke-linecap:butt;stroke-linejoin:miter;stroke-miterlimit:4;stroke-dasharray:none;stroke-opacity:1" />
    <ellipse
       ry="1.5883007"
       rx="1.5887834"
       cy="248.32883"
       cx="14.821936"
       id="circle8045"
       style="opacity:1;fill:#ffffff;fill-opacity:1;stroke:#000000;stroke-width:0.52916664;stroke-linecap:round;stroke-linejoin:round;stroke-miterlimit:4;stroke-dasharray:none;stroke-opacity:1" />
    <ellipse
       ry="1.0588549"
       rx="1.0591767"
       style="opacity:1;fill:#ffffff;fill-opacity:1;stroke:#000000;stroke-width:0.52916664;stroke-linecap:round;stroke-linejoin:round;stroke-miterlimit:4;stroke-dasharray:none;stroke-opacity:1"
       id="circle8047"
       cx="20.118004"
       cy="248.32877" />
    <ellipse
       ry="2.6471922"
       rx="2.6479967"
       cy="248.32877"
       cx="26.473282"
       id="circle8049"
       style="opacity:1;fill:#ffffff;fill-opacity:1;stroke:#000000;stroke-width:0.52916664;stroke-linecap:round;stroke-linejoin:round;stroke-miterlimit:4;stroke-dasharray:none;stroke-opacity:1" />
    <path
       id="path8051"
       d="M 10.585101,246.21107 H 8.4666826 v 4.23555 h 2.1184184"
       style="fill:none;stroke:#000000;stroke-width:0.52916664;stroke-linecap:butt;stroke-linejoin:miter;stroke-miterlimit:4;stroke-dasharray:none;stroke-opacity:1" />
    <path
       style="fill:none;stroke:#000000;stroke-width:0.52916664;stroke-linecap:butt;stroke-linejoin:miter;stroke-miterlimit:4;stroke-dasharray:none;stroke-opacity:1"
       d="m 38.12463,246.21103 h 2.118418 v 4.23555 H 38.12463"
       id="path8053" />
    <ellipse
       ry="2.1177466"
       rx="2.1183901"
       style="opacity:1;fill:#ffffff;fill-opacity:1;stroke:#000000;stroke-width:0.52916664;stroke-linecap:round;stroke-linejoin:round;stroke-miterlimit:4;stroke-dasharray:none;stroke-opacity:1"
       id="circle8069"
       cx="33.887775"
       cy="248.32883" />
    <path
       style="fill:none;stroke:#000000;stroke-width:0.52916664;stroke-linecap:butt;stroke-linejoin:miter;stroke-miterlimit:4;stroke-dasharray:none;stroke-opacity:1"
       d="m 10.58512,258.91768 c 1.44945,0 27.539528,0 27.539528,0"
       id="path8117" />
    <ellipse
       ry="1.0588427"
       rx="1.0591645"
       style="opacity:1;fill:#ffffff;fill-opacity:1;stroke:#000000;stroke-width:0.52916664;stroke-linecap:round;stroke-linejoin:round;stroke-miterlimit:4;stroke-dasharray:none;stroke-opacity:1"
       id="circle8119"
       cx="14.292366"
       cy="258.91772" />
    <ellipse
       ry="1.5882884"
       rx="1.5887711"
       cy="258.91772"
       cx="19.764963"
       id="circle8121"
       style="opacity:1;fill:#ffffff;fill-opacity:1;stroke:#000000;stroke-width:0.52916664;stroke-linecap:round;stroke-linejoin:round;stroke-miterlimit:4;stroke-dasharray:none;stroke-opacity:1" />
    <ellipse
       ry="2.1177344"
       rx="2.1183779"
       style="opacity:1;fill:#ffffff;fill-opacity:1;stroke:#000000;stroke-width:0.52916664;stroke-linecap:round;stroke-linejoin:round;stroke-miterlimit:4;stroke-dasharray:none;stroke-opacity:1"
       id="circle8123"
       cx="26.296774"
       cy="258.91766" />
    <path
       style="fill:none;stroke:#000000;stroke-width:0.52916664;stroke-linecap:butt;stroke-linejoin:miter;stroke-miterlimit:4;stroke-dasharray:none;stroke-opacity:1"
       d="M 10.58512,256.79989 H 8.4667016 v 4.23555 H 10.58512"
       id="path8125" />
    <path
       id="path8127"
       d="m 38.124648,256.79985 h 2.118418 v 4.23555 h -2.118418"
       style="fill:none;stroke:#000000;stroke-width:0.52916664;stroke-linecap:butt;stroke-linejoin:miter;stroke-miterlimit:4;stroke-dasharray:none;stroke-opacity:1" />
    <ellipse
       ry="2.6471798"
       rx="2.6479843"
       cy="258.91772"
       cx="33.887798"
       id="circle8129"
       style="opacity:1;fill:#ffffff;fill-opacity:1;stroke:#000000;stroke-width:0.52916664;stroke-linecap:round;stroke-linejoin:round;stroke-miterlimit:4;stroke-dasharray:none;stroke-opacity:1" />
    <path
       id="path8131"
       d="m 84.729974,275.86002 c 1.449451,0 27.539526,0 27.539526,0"
       style="fill:none;stroke:#000000;stroke-width:0.52916664;stroke-linecap:butt;stroke-linejoin:miter;stroke-miterlimit:4;stroke-dasharray:none;stroke-opacity:1" />
    <ellipse
       ry="1.0588427"
       rx="1.0591645"
       cy="275.86002"
       cx="88.437225"
       id="circle8133"
       style="opacity:1;fill:#ffffff;fill-opacity:1;stroke:#000000;stroke-width:0.52916664;stroke-linecap:round;stroke-linejoin:round;stroke-miterlimit:4;stroke-dasharray:none;stroke-opacity:1" />
    <ellipse
       ry="1.5882884"
       rx="1.5887711"
       style="opacity:1;fill:#ffffff;fill-opacity:1;stroke:#000000;stroke-width:0.52916664;stroke-linecap:round;stroke-linejoin:round;stroke-miterlimit:4;stroke-dasharray:none;stroke-opacity:1"
       id="circle8135"
       cx="93.909821"
       cy="275.86002" />
    <ellipse
       ry="2.1177344"
       rx="2.1183779"
       cy="275.85995"
       cx="100.44164"
       id="circle8137"
       style="opacity:1;fill:#ffffff;fill-opacity:1;stroke:#000000;stroke-width:0.52916664;stroke-linecap:round;stroke-linejoin:round;stroke-miterlimit:4;stroke-dasharray:none;stroke-opacity:1" />
    <path
       id="path8139"
       d="m 84.729974,273.74222 h -2.118418 v 4.23555 h 2.118418"
       style="fill:none;stroke:#000000;stroke-width:0.52916664;stroke-linecap:butt;stroke-linejoin:miter;stroke-miterlimit:4;stroke-dasharray:none;stroke-opacity:1" />
    <path
       style="fill:none;stroke:#000000;stroke-width:0.52916664;stroke-linecap:butt;stroke-linejoin:miter;stroke-miterlimit:4;stroke-dasharray:none;stroke-opacity:1"
       d="m 112.2695,273.74218 h 2.11842 v 4.23555 h -2.11842"
       id="path8141" />
    <ellipse
       ry="2.6471798"
       rx="2.6479843"
       style="opacity:1;fill:#ffffff;fill-opacity:1;stroke:#000000;stroke-width:0.52916664;stroke-linecap:round;stroke-linejoin:round;stroke-miterlimit:4;stroke-dasharray:none;stroke-opacity:1"
       id="circle8143"
       cx="108.03266"
       cy="275.86002" />
    <g
       style="font-style:normal;font-variant:normal;font-weight:normal;font-stretch:normal;font-size:5.64828px;line-height:1.25;font-family:'Oxygen Mono';-inkscape-font-specification:'Oxygen Mono';letter-spacing:0px;word-spacing:0px;fill:#000000;fill-opacity:1;stroke:none;stroke-width:0.264583"
       id="text8147"
       transform="scale(1.0001519,0.99984812)"
       aria-label=".reverse()">
      <path
         id="path1117"
         style="font-size:5.64828px;stroke-width:0.264583"
         d="m 116.47764,278.01999 h -0.83014 v -0.83014 h 0.83014 z" />
      <path
         id="path1119"
         style="font-size:5.64828px;stroke-width:0.264583"
         d="m 119.25765,278.01999 h -0.50194 v -3.02547 h 0.41093 l 0.0414,0.55986 q 0.18478,-0.31992 0.4854,-0.4854 0.30062,-0.16547 0.68121,-0.16547 h 0.2427 v 0.46609 h -0.3144 q -0.48264,0 -0.76396,0.2427 -0.28131,0.23994 -0.28131,0.72534 z" />
      <path
         id="path1121"
         style="font-size:5.64828px;stroke-width:0.264583"
         d="m 122.27761,277.87933 q -0.31717,-0.21236 -0.47161,-0.56813 -0.15169,-0.35854 -0.15169,-0.80808 0,-0.44955 0.14066,-0.80532 0.14341,-0.35854 0.42472,-0.57642 0.28407,-0.22063 0.6233,-0.22063 0.63984,0 0.9377,0.43851 0.29786,0.43852 0.29786,1.07836 v 0.16824 h -1.91678 q 0.0165,0.46609 0.23167,0.79153 0.21788,0.32543 0.65088,0.32543 0.28958,-0.0276 0.80808,-0.3144 l 0.16547,0.34198 q -0.35853,0.35854 -0.97907,0.35854 -0.44403,0 -0.76119,-0.20961 z m 1.32106,-1.66028 q -0.0552,-0.92943 -0.65088,-0.92943 -0.67294,0 -0.76947,0.92943 z" />
      <path
         id="path1123"
         style="font-size:5.64828px;stroke-width:0.264583"
         d="m 126.24354,277.49874 q 0.23994,-0.65364 0.8853,-2.50422 h 0.55711 l -1.17765,3.02547 h -0.55986 l -1.16937,-3.02547 h 0.57917 z" />
      <path
         id="path1125"
         style="font-size:5.64828px;stroke-width:0.264583"
         d="m 129.05665,277.87933 q -0.31717,-0.21236 -0.47161,-0.56813 -0.15169,-0.35854 -0.15169,-0.80808 0,-0.44955 0.14066,-0.80532 0.14341,-0.35854 0.42472,-0.57642 0.28407,-0.22063 0.6233,-0.22063 0.63984,0 0.9377,0.43851 0.29786,0.43852 0.29786,1.07836 v 0.16824 h -1.91678 q 0.0165,0.46609 0.23167,0.79153 0.21788,0.32543 0.65088,0.32543 0.28958,-0.0276 0.80808,-0.3144 l 0.16547,0.34198 q -0.35853,0.35854 -0.97907,0.35854 -0.44403,0 -0.76119,-0.20961 z m 1.32106,-1.66028 q -0.0552,-0.92943 -0.65088,-0.92943 -0.67294,0 -0.76947,0.92943 z" />
      <path
         id="path1127"
         style="font-size:5.64828px;stroke-width:0.264583"
         d="m 132.81573,278.01999 h -0.50195 v -3.02547 h 0.41094 l 0.0414,0.55986 q 0.18478,-0.31992 0.4854,-0.4854 0.30061,-0.16547 0.68121,-0.16547 h 0.2427 v 0.46609 h -0.31441 q -0.48264,0 -0.76395,0.2427 -0.28131,0.23994 -0.28131,0.72534 z" />
      <path
         id="path1129"
         style="font-size:5.64828px;stroke-width:0.264583"
         d="m 136.77063,276.30179 q 0.39163,0.0965 0.5709,0.30613 0.18202,0.2096 0.18202,0.60675 0,0.39438 -0.30337,0.63433 -0.30062,0.23994 -0.75568,0.23994 -0.32544,0 -0.63157,-0.08 -0.30613,-0.0827 -0.4523,-0.19306 l 0.1241,-0.36129 q 0.11584,0.0717 0.36681,0.14617 0.25097,0.0717 0.54332,0.0717 0.2951,0 0.46885,-0.12135 0.17651,-0.12411 0.17651,-0.3282 0,-0.20409 -0.0883,-0.31992 -0.0855,-0.11859 -0.33371,-0.17927 l -0.51298,-0.1241 q -0.44403,-0.11032 -0.5902,-0.31993 -0.14617,-0.21236 -0.14617,-0.52677 0,-0.3144 0.25373,-0.57916 0.25649,-0.26477 0.74465,-0.27028 h 0.0358 q 0.54883,0 0.93494,0.20684 l -0.11031,0.35302 q -0.40266,-0.17099 -0.81636,-0.17099 -0.25649,0.003 -0.42196,0.12962 -0.16272,0.12411 -0.16272,0.31441 0,0.1903 0.0827,0.28682 0.0827,0.0938 0.3144,0.14893 z" />
      <path
         id="path1131"
         style="font-size:5.64828px;stroke-width:0.264583"
         d="m 139.22521,277.87933 q -0.31717,-0.21236 -0.47161,-0.56813 -0.15169,-0.35854 -0.15169,-0.80808 0,-0.44955 0.14066,-0.80532 0.14341,-0.35854 0.42472,-0.57642 0.28407,-0.22063 0.6233,-0.22063 0.63984,0 0.9377,0.43851 0.29786,0.43852 0.29786,1.07836 v 0.16824 h -1.91678 q 0.0165,0.46609 0.23167,0.79153 0.21788,0.32543 0.65088,0.32543 0.28958,-0.0276 0.80808,-0.3144 l 0.16547,0.34198 q -0.35853,0.35854 -0.97907,0.35854 -0.44403,0 -0.76119,-0.20961 z m 1.32106,-1.66028 q -0.0552,-0.92943 -0.65088,-0.92943 -0.67294,0 -0.76947,0.92943 z" />
      <path
         id="path1133"
         style="font-size:5.64828px;stroke-width:0.264583"
         d="m 143.38419,278.4392 q -0.84117,-1.12249 -0.84117,-2.54559 0,-1.42586 0.8329,-2.57592 h 0.4854 q -0.78326,1.23556 -0.78326,2.54834 0,0.73637 0.20409,1.35415 0.20685,0.61778 0.58469,1.21902 z" />
      <path
         id="path1135"
         style="font-size:5.64828px;stroke-width:0.264583"
         d="m 146.29107,273.31769 q 0.8329,1.15006 0.8329,2.57592 0,1.4231 -0.84117,2.54559 h -0.4854 q 0.37784,-0.60124 0.58193,-1.21902 0.20684,-0.61778 0.20684,-1.35415 0,-1.31278 -0.78326,-2.54834 z" />
    </g>
    <path
       style="fill:none;stroke:#000000;stroke-width:0.52916664;stroke-linecap:butt;stroke-linejoin:miter;stroke-miterlimit:4;stroke-dasharray:none;stroke-opacity:1"
       d="m 112.26954,286.44892 c -1.44945,0 -27.53953,0 -27.53953,0"
       id="path8149" />
    <ellipse
       ry="1.0588427"
       rx="1.0591645"
       transform="scale(-1,1)"
       style="opacity:1;fill:#ffffff;fill-opacity:1;stroke:#000000;stroke-width:0.52916664;stroke-linecap:round;stroke-linejoin:round;stroke-miterlimit:4;stroke-dasharray:none;stroke-opacity:1"
       id="circle8151"
       cx="-108.56229"
       cy="286.44891" />
    <ellipse
       ry="1.5882884"
       rx="1.5887711"
       transform="scale(-1,1)"
       cy="286.44891"
       cx="-103.08971"
       id="circle8153"
       style="opacity:1;fill:#ffffff;fill-opacity:1;stroke:#000000;stroke-width:0.52916664;stroke-linecap:round;stroke-linejoin:round;stroke-miterlimit:4;stroke-dasharray:none;stroke-opacity:1" />
    <ellipse
       ry="2.1177344"
       rx="2.1183779"
       transform="scale(-1,1)"
       style="opacity:1;fill:#ffffff;fill-opacity:1;stroke:#000000;stroke-width:0.52916664;stroke-linecap:round;stroke-linejoin:round;stroke-miterlimit:4;stroke-dasharray:none;stroke-opacity:1"
       id="circle8155"
       cx="-96.557884"
       cy="286.44885" />
    <path
       style="fill:none;stroke:#000000;stroke-width:0.52916664;stroke-linecap:butt;stroke-linejoin:miter;stroke-miterlimit:4;stroke-dasharray:none;stroke-opacity:1"
       d="m 112.26954,284.33112 h 2.11842 v 4.23555 h -2.11842"
       id="path8157" />
    <path
       id="path8159"
       d="m 84.73001,284.33108 h -2.118418 v 4.23555 h 2.118418"
       style="fill:none;stroke:#000000;stroke-width:0.52916664;stroke-linecap:butt;stroke-linejoin:miter;stroke-miterlimit:4;stroke-dasharray:none;stroke-opacity:1" />
    <ellipse
       ry="2.6471798"
       rx="2.6479843"
       transform="scale(-1,1)"
       cy="286.44891"
       cx="-88.966866"
       id="circle8161"
       style="opacity:1;fill:#ffffff;fill-opacity:1;stroke:#000000;stroke-width:0.52916664;stroke-linecap:round;stroke-linejoin:round;stroke-miterlimit:4;stroke-dasharray:none;stroke-opacity:1" />
    <g
       style="font-style:normal;font-variant:normal;font-weight:normal;font-stretch:normal;font-size:5.64828px;line-height:1.25;font-family:'Oxygen Mono';-inkscape-font-specification:'Oxygen Mono';letter-spacing:0px;word-spacing:0px;fill:#000000;fill-opacity:1;stroke:none;stroke-width:0.264583"
       id="text8171"
       transform="scale(1.0001519,0.99984812)"
       aria-label=".clear()">
      <path
         id="path1138"
         style="font-size:5.64828px;stroke-width:0.264583"
         d="m 36.51924,278.01999 h -0.830143 v -0.83014 h 0.830143 z" />
      <path
         id="path1140"
         style="font-size:5.64828px;stroke-width:0.264583"
         d="m 40.565151,277.82142 q -0.289584,0.26752 -0.824626,0.26752 -0.341986,0 -0.623297,-0.12963 -0.281311,-0.13238 -0.460577,-0.35301 -0.377839,-0.46334 -0.377839,-1.11697 0,-0.42197 0.170992,-0.7805 0.173751,-0.35854 0.510221,-0.58193 0.33647,-0.22339 0.830143,-0.22339 0.493673,0 0.76671,0.262 l -0.126866,0.33647 q -0.317164,-0.21236 -0.717067,-0.21236 -0.399903,0 -0.664666,0.34198 -0.262005,0.34199 -0.262005,0.87152 0,0.52677 0.262005,0.86324 0.264763,0.33646 0.67294,0.33646 0.410934,0 0.722583,-0.22063 z" />
      <path
         id="path1142"
         style="font-size:5.64828px;stroke-width:0.264583"
         d="m 44.056715,278.01999 h -0.399902 q -0.532285,0 -0.761194,-0.11032 -0.132382,-0.0634 -0.209605,-0.14617 -0.204088,-0.21236 -0.212362,-0.9377 v -2.73589 h -0.904607 v -0.38611 h 1.406554 v 3.09718 q 0,0.54883 0.09929,0.67294 0.102044,0.1241 0.253732,0.14341 0.151687,0.0165 0.30889,0.0165 h 0.44403 z" />
      <path
         id="path1144"
         style="font-size:5.64828px;stroke-width:0.264583"
         d="m 45.708727,277.87933 q -0.317164,-0.21236 -0.471609,-0.56813 -0.151688,-0.35854 -0.151688,-0.80808 0,-0.44955 0.140656,-0.80532 0.143413,-0.35854 0.424724,-0.57642 0.284069,-0.22063 0.623297,-0.22063 0.639844,0 0.937702,0.43851 0.297859,0.43852 0.297859,1.07836 v 0.16824 h -1.916775 q 0.01655,0.46609 0.231668,0.79153 0.217878,0.32543 0.650876,0.32543 0.289585,-0.0276 0.808079,-0.3144 l 0.165477,0.34198 q -0.358533,0.35854 -0.979072,0.35854 -0.44403,0 -0.761194,-0.20961 z m 1.321058,-1.66028 q -0.05516,-0.92943 -0.650876,-0.92943 -0.67294,0 -0.769468,0.92943 z" />
      <path
         id="path1146"
         style="font-size:5.64828px;stroke-width:0.264583"
         d="m 50.311744,277.34429 v -0.77222 l -0.410934,0.0579 q -0.43024,0.0607 -0.595717,0.12135 -0.369565,0.14066 -0.369565,0.47161 0,0.22891 0.132381,0.36405 0.132382,0.13514 0.364049,0.13514 0.510221,0 0.879786,-0.37784 z m 0,-1.40931 q 0,-0.64812 -0.548832,-0.64812 -0.259247,0 -0.573653,0.0607 -0.311648,0.0607 -0.438514,0.11583 l -0.118592,-0.36957 q 0.570896,-0.19029 1.072842,-0.19029 0.501947,0 0.805322,0.22891 0.303374,0.22891 0.303374,0.70603 v 2.18154 h -0.41645 l -0.06619,-0.35026 q -0.176509,0.17927 -0.455062,0.30062 -0.275795,0.11859 -0.540558,0.11859 -0.383355,0 -0.637086,-0.22891 -0.253731,-0.23167 -0.253731,-0.65088 0,-0.42196 0.330954,-0.61778 0.223393,-0.1379 0.474367,-0.18754 0.253731,-0.0524 0.65915,-0.10204 l 0.40266,-0.0469 z" />
      <path
         id="path1148"
         style="font-size:5.64828px;stroke-width:0.264583"
         d="m 52.857331,278.01999 h -0.501947 v -3.02547 h 0.410934 l 0.04137,0.55986 q 0.184783,-0.31992 0.4854,-0.4854 0.300616,-0.16547 0.681213,-0.16547 h 0.2427 v 0.46609 h -0.314407 q -0.482641,0 -0.763952,0.2427 -0.28131,0.23994 -0.28131,0.72534 z" />
      <path
         id="path1150"
         style="font-size:5.64828px;stroke-width:0.264583"
         d="m 56.646754,278.4392 q -0.841175,-1.12249 -0.841175,-2.54559 0,-1.42586 0.832901,-2.57592 h 0.485399 q -0.783258,1.23556 -0.783258,2.54834 0,0.73637 0.204089,1.35415 0.206846,0.61778 0.584685,1.21902 z" />
      <path
         id="path1152"
         style="font-size:5.64828px;stroke-width:0.264583"
         d="m 59.553633,273.31769 q 0.832901,1.15006 0.832901,2.57592 0,1.4231 -0.841174,2.54559 h -0.4854 q 0.37784,-0.60124 0.581928,-1.21902 0.206846,-0.61778 0.206846,-1.35415 0,-1.31278 -0.783258,-2.54834 z" />
    </g>
    <path
       style="fill:none;stroke:#000000;stroke-width:0.52916664;stroke-linecap:butt;stroke-linejoin:miter;stroke-miterlimit:4;stroke-dasharray:none;stroke-opacity:1"
       d="m 10.585085,275.86002 c 1.114962,0 21.184275,0 21.184275,0"
       id="path8173" />
    <ellipse
       ry="2.1177735"
       rx="2.118417"
       style="opacity:1;fill:#ffffff;fill-opacity:1;stroke:#000000;stroke-width:0.52916664;stroke-linecap:round;stroke-linejoin:round;stroke-miterlimit:4;stroke-dasharray:none;stroke-opacity:1"
       id="circle8175"
       cx="14.82192"
       cy="275.85995" />
    <ellipse
       ry="2.1177735"
       rx="2.118417"
       cy="275.85995"
       cx="21.177177"
       id="circle8177"
       style="opacity:1;fill:#ffffff;fill-opacity:1;stroke:#000000;stroke-width:0.52916664;stroke-linecap:round;stroke-linejoin:round;stroke-miterlimit:4;stroke-dasharray:none;stroke-opacity:1" />
    <ellipse
       ry="2.1177735"
       rx="2.118417"
       style="opacity:1;fill:#ffffff;fill-opacity:1;stroke:#000000;stroke-width:0.52916664;stroke-linecap:round;stroke-linejoin:round;stroke-miterlimit:4;stroke-dasharray:none;stroke-opacity:1"
       id="circle8179"
       cx="27.532427"
       cy="275.85995" />
    <path
       style="fill:none;stroke:#000000;stroke-width:0.52916664;stroke-linecap:butt;stroke-linejoin:miter;stroke-miterlimit:4;stroke-dasharray:none;stroke-opacity:1"
       d="M 10.585085,273.74222 H 8.4666666 v 4.23555 h 2.1184184"
       id="path8181" />
    <path
       id="path8183"
       d="m 31.76917,273.7422 h 2.118418 v 4.23555 H 31.76917"
       style="fill:none;stroke:#000000;stroke-width:0.52916664;stroke-linecap:butt;stroke-linejoin:miter;stroke-miterlimit:4;stroke-dasharray:none;stroke-opacity:1" />
    <path
       id="path8185"
       d="m 10.585085,286.44892 c 0.111497,0 2.118419,0 2.118419,0"
       style="fill:none;stroke:#b3b3b3;stroke-width:0.26458332;stroke-linecap:butt;stroke-linejoin:miter;stroke-miterlimit:4;stroke-dasharray:none;stroke-opacity:1" />
    <path
       id="path8193"
       d="M 10.585085,284.33112 H 8.4666666 v 4.23555 h 2.1184184"
       style="fill:none;stroke:#000000;stroke-width:0.52916664;stroke-linecap:butt;stroke-linejoin:miter;stroke-miterlimit:4;stroke-dasharray:none;stroke-opacity:1" />
    <path
       style="fill:none;stroke:#000000;stroke-width:0.52916664;stroke-linecap:butt;stroke-linejoin:miter;stroke-miterlimit:4;stroke-dasharray:none;stroke-opacity:1"
       d="m 12.703513,284.33108 h 2.118418 v 4.23555 h -2.118418"
       id="path8195" />
    <rect
       ry="2.1166637"
       rx="2.1166658"
       y="212.32646"
       x="78.374733"
       height="23.295614"
       width="84.737053"
       id="rect8213"
       style="opacity:1;fill:#cccccc;fill-opacity:1;stroke:#b3b3b3;stroke-width:0.13199998;stroke-linecap:round;stroke-linejoin:round;stroke-miterlimit:4;stroke-dasharray:none;stroke-opacity:1" />
    <g
       style="font-style:normal;font-variant:normal;font-weight:normal;font-stretch:normal;font-size:5.64828px;line-height:1.25;font-family:'Oxygen Mono';-inkscape-font-specification:'Oxygen Mono';letter-spacing:0px;word-spacing:0px;fill:#000000;fill-opacity:1;stroke:none;stroke-width:0.264583"
       id="text8219"
       transform="scale(1.0001519,0.99984812)"
       aria-label=".insert(2,  )">
      <path
         id="path1155"
         style="font-size:5.64828px;stroke-width:0.264583"
         d="m 112.77117,220.83109 h -0.83015 v -0.83015 h 0.83015 z" />
      <path
         id="path1157"
         style="font-size:5.64828px;stroke-width:0.264583"
         d="m 115.53739,217.00857 v -0.27304 q 0,-0.0993 0.11032,-0.17375 0.11307,-0.0772 0.22339,-0.0772 0.11032,0 0.22064,0.0772 0.11307,0.0745 0.11307,0.17375 v 0.27304 q 0,0.0993 -0.11307,0.17651 -0.11032,0.0745 -0.22064,0.0745 -0.11032,0 -0.22339,-0.0745 -0.11032,-0.0772 -0.11032,-0.17651 z m -0.7805,1.18316 v -0.38612 h 1.36518 v 2.63936 h 0.866 v 0.38612 h -2.32771 v -0.38612 h 0.95977 v -2.25324 z" />
      <path
         id="path1159"
         style="font-size:5.64828px;stroke-width:0.264583"
         d="m 119.40955,217.7146 q 0.94046,0 0.94046,1.19144 v 1.92505 h -0.50195 v -1.86438 q 0,-0.31992 -0.0331,-0.45782 -0.0331,-0.1379 -0.0993,-0.22615 -0.14065,-0.18202 -0.46057,-0.18202 -0.32268,0 -0.54608,0.18754 -0.22339,0.18754 -0.22339,0.49643 v 2.0464 h -0.50195 v -3.02548 h 0.46058 l 0.0276,0.3282 q 0.30061,-0.41921 0.9377,-0.41921 z" />
      <path
         id="path1161"
         style="font-size:5.64828px;stroke-width:0.264583"
         d="m 122.8956,219.11288 q 0.39163,0.0965 0.57089,0.30614 0.18203,0.2096 0.18203,0.60674 0,0.39439 -0.30338,0.63433 -0.30061,0.23994 -0.75567,0.23994 -0.32544,0 -0.63157,-0.08 -0.30614,-0.0827 -0.45231,-0.19305 l 0.12411,-0.36129 q 0.11583,0.0717 0.36681,0.14617 0.25097,0.0717 0.54331,0.0717 0.2951,0 0.46885,-0.12135 0.17651,-0.1241 0.17651,-0.32819 0,-0.20409 -0.0883,-0.31992 -0.0855,-0.1186 -0.33371,-0.17927 l -0.51298,-0.12411 q -0.44403,-0.11032 -0.5902,-0.31992 -0.14617,-0.21236 -0.14617,-0.52677 0,-0.31441 0.25373,-0.57917 0.25649,-0.26476 0.74464,-0.27028 h 0.0359 q 0.54883,0 0.93494,0.20685 l -0.11032,0.35302 q -0.40266,-0.171 -0.81635,-0.171 -0.25649,0.003 -0.42197,0.12963 -0.16271,0.1241 -0.16271,0.3144 0,0.1903 0.0827,0.28683 0.0827,0.0938 0.31441,0.14893 z" />
      <path
         id="path1163"
         style="font-size:5.64828px;stroke-width:0.264583"
         d="m 125.35017,220.69043 q -0.31716,-0.21236 -0.47161,-0.56814 -0.15168,-0.35853 -0.15168,-0.80808 0,-0.44954 0.14065,-0.80532 0.14342,-0.35853 0.42473,-0.57641 0.28406,-0.22064 0.62329,-0.22064 0.63985,0 0.93771,0.43852 0.29785,0.43851 0.29785,1.07836 v 0.16823 h -1.91677 q 0.0165,0.4661 0.23167,0.79153 0.21787,0.32544 0.65087,0.32544 0.28959,-0.0276 0.80808,-0.31441 l 0.16548,0.34199 q -0.35853,0.35853 -0.97907,0.35853 -0.44403,0 -0.7612,-0.2096 z m 1.32106,-1.66029 q -0.0552,-0.92942 -0.65088,-0.92942 -0.67293,0 -0.76946,0.92942 z" />
      <path
         id="path1165"
         style="font-size:5.64828px;stroke-width:0.264583"
         d="m 129.10926,220.83109 h -0.50195 v -3.02548 h 0.41093 l 0.0414,0.55987 q 0.18479,-0.31992 0.4854,-0.4854 0.30062,-0.16548 0.68122,-0.16548 h 0.2427 v 0.4661 h -0.31441 q -0.48264,0 -0.76395,0.2427 -0.28131,0.23994 -0.28131,0.72534 z" />
      <path
         id="path1167"
         style="font-size:5.64828px;stroke-width:0.264583"
         d="m 132.6091,218.19173 v 1.42034 q 0,0.26476 0.0276,0.41921 0.0303,0.15445 0.11583,0.25097 0.0882,0.0965 0.22615,0.12963 0.1379,0.0331 0.37508,0.0331 h 0.55435 l -0.0276,0.38612 h -0.50746 q -0.7805,0 -1.03975,-0.28683 -0.16823,-0.18754 -0.20685,-0.60399 -0.0193,-0.18479 -0.0193,-0.45506 v -1.29348 h -0.85497 l 0.0552,-0.38612 h 0.79981 v -1.0425 l 0.50195,-0.14893 v 1.19143 h 1.27417 v 0.38612 z" />
      <path
         id="path1169"
         style="font-size:5.64828px;stroke-width:0.264583"
         d="m 136.2882,221.25029 q -0.84117,-1.12248 -0.84117,-2.54558 0,-1.42586 0.8329,-2.57593 h 0.4854 q -0.78326,1.23556 -0.78326,2.54835 0,0.73637 0.20409,1.35415 0.20684,0.61778 0.58468,1.21901 z" />
      <path
         id="path1171"
         style="font-size:5.64828px;stroke-width:0.264583"
         d="m 138.29323,216.98375 q 0.21788,-0.171 0.4523,-0.25098 0.23443,-0.0827 0.56814,-0.0827 0.59572,0 0.92116,0.32268 0.32819,0.32268 0.32819,0.85773 0,0.38887 -0.17927,0.71155 -0.1765,0.31992 -0.31164,0.4854 -0.13239,0.16272 -0.23443,0.28131 l -0.94873,1.11972 h 1.76784 v 0.40267 h -2.33598 v -0.52677 l 1.20798,-1.46723 q 0.3475,-0.42473 0.43024,-0.71431 0.0414,-0.1379 0.0414,-0.27855 0,-0.34199 -0.17651,-0.52677 -0.17375,-0.18478 -0.47712,-0.18478 -0.30338,0 -0.4854,0.0717 -0.17927,0.069 -0.37784,0.20961 z" />
      <path
         id="path1173"
         style="font-size:5.64828px;stroke-width:0.264583"
         d="m 142.38327,221.71639 0.14065,-1.67408 h 0.7088 l -0.51298,1.67408 z" />
      <path
         id="path1175"
         style="font-size:5.64828px;stroke-width:0.264583"
         d="m 152.75316,216.12878 q 0.8329,1.15007 0.8329,2.57593 0,1.4231 -0.84118,2.54558 h -0.4854 q 0.37784,-0.60123 0.58193,-1.21901 0.20685,-0.61778 0.20685,-1.35415 0,-1.31279 -0.78326,-2.54835 z" />
    </g>
    <path
       id="path8221"
       d="m 86.84841,218.67985 c 1.114967,0 21.18428,0 21.18428,0"
       style="fill:none;stroke:#000000;stroke-width:0.52916664;stroke-linecap:butt;stroke-linejoin:miter;stroke-miterlimit:4;stroke-dasharray:none;stroke-opacity:1" />
    <ellipse
       ry="2.1177735"
       rx="2.118417"
       cy="218.67972"
       cx="91.085258"
       id="circle8223"
       style="opacity:1;fill:#ffffff;fill-opacity:1;stroke:#000000;stroke-width:0.52916664;stroke-linecap:round;stroke-linejoin:round;stroke-miterlimit:4;stroke-dasharray:none;stroke-opacity:1" />
    <ellipse
       ry="2.1177735"
       rx="2.118417"
       style="opacity:1;fill:#ffffff;fill-opacity:1;stroke:#000000;stroke-width:0.52916664;stroke-linecap:round;stroke-linejoin:round;stroke-miterlimit:4;stroke-dasharray:none;stroke-opacity:1"
       id="circle8225"
       cx="97.440514"
       cy="218.67972" />
    <ellipse
       ry="2.1177735"
       rx="2.118417"
       cy="218.67972"
       cx="103.79575"
       id="circle8227"
       style="opacity:1;fill:#ffffff;fill-opacity:1;stroke:#000000;stroke-width:0.52916664;stroke-linecap:round;stroke-linejoin:round;stroke-miterlimit:4;stroke-dasharray:none;stroke-opacity:1" />
    <path
       id="path8229"
       d="m 86.84841,216.56206 h -2.11842 v 4.23555 h 2.11842"
       style="fill:none;stroke:#000000;stroke-width:0.52916664;stroke-linecap:butt;stroke-linejoin:miter;stroke-miterlimit:4;stroke-dasharray:none;stroke-opacity:1" />
    <path
       style="fill:none;stroke:#000000;stroke-width:0.52916664;stroke-linecap:butt;stroke-linejoin:miter;stroke-miterlimit:4;stroke-dasharray:none;stroke-opacity:1"
       d="m 108.03269,216.56206 h 2.11842 v 4.23555 h -2.11842"
       id="path8231" />
    <ellipse
       ry="2.1177926"
       rx="2.1184361"
       cy="218.67972"
       cx="148.2827"
       id="circle8235"
       style="opacity:1;fill:#3fb0ac;fill-opacity:1;stroke:#000000;stroke-width:0.52916664;stroke-linecap:round;stroke-linejoin:round;stroke-miterlimit:4;stroke-dasharray:none;stroke-opacity:1" />
    <path
       style="fill:none;stroke:#000000;stroke-width:0.52916664;stroke-linecap:butt;stroke-linejoin:miter;stroke-miterlimit:4;stroke-dasharray:none;stroke-opacity:1"
       d="m 83.67077,229.26873 c 1.449445,0 27.53954,0 27.53954,0"
       id="path8241" />
    <ellipse
       ry="2.1177735"
       rx="2.118417"
       style="opacity:1;fill:#ffffff;fill-opacity:1;stroke:#000000;stroke-width:0.52916664;stroke-linecap:round;stroke-linejoin:round;stroke-miterlimit:4;stroke-dasharray:none;stroke-opacity:1"
       id="circle8243"
       cx="87.9076"
       cy="229.26862" />
    <ellipse
       ry="2.1177735"
       rx="2.118417"
       cy="229.26862"
       cx="94.262856"
       id="circle8245"
       style="opacity:1;fill:#ffffff;fill-opacity:1;stroke:#000000;stroke-width:0.52916664;stroke-linecap:round;stroke-linejoin:round;stroke-miterlimit:4;stroke-dasharray:none;stroke-opacity:1" />
    <ellipse
       ry="2.1177735"
       rx="2.118417"
       style="opacity:1;fill:#3fb0ac;fill-opacity:1;stroke:#000000;stroke-width:0.52916664;stroke-linecap:round;stroke-linejoin:round;stroke-miterlimit:4;stroke-dasharray:none;stroke-opacity:1"
       id="circle8247"
       cx="100.6181"
       cy="229.26862" />
    <path
       style="fill:none;stroke:#000000;stroke-width:0.52916664;stroke-linecap:butt;stroke-linejoin:miter;stroke-miterlimit:4;stroke-dasharray:none;stroke-opacity:1"
       d="m 83.67077,227.15094 h -2.11842 v 4.23555 h 2.11842"
       id="path8249" />
    <path
       id="path8251"
       d="m 111.21033,227.15096 h 2.11842 v 4.23555 h -2.11842"
       style="fill:none;stroke:#000000;stroke-width:0.52916664;stroke-linecap:butt;stroke-linejoin:miter;stroke-miterlimit:4;stroke-dasharray:none;stroke-opacity:1" />
    <ellipse
       ry="2.1177735"
       rx="2.118417"
       cy="229.26868"
       cx="106.97346"
       id="circle8253"
       style="opacity:1;fill:#ffffff;fill-opacity:1;stroke:#000000;stroke-width:0.52916664;stroke-linecap:round;stroke-linejoin:round;stroke-miterlimit:4;stroke-dasharray:none;stroke-opacity:1" />
    <g
       style="font-style:normal;font-variant:normal;font-weight:normal;font-stretch:normal;font-size:2.82414px;line-height:1.25;font-family:'Oxygen Mono';-inkscape-font-specification:'Oxygen Mono';text-align:center;letter-spacing:0px;word-spacing:0px;text-anchor:middle;fill:#000000;fill-opacity:1;stroke:none;stroke-width:0.264583"
       id="text8257"
       transform="scale(1.0001519,0.99984812)"
       aria-label="0">
      <path
         id="path1178"
         style="font-size:2.82414px;text-align:center;text-anchor:middle;stroke-width:0.264583"
         d="m 87.147482,222.39482 -0.488157,1.3707 q 0.07584,0.0634 0.190298,0.0634 0.115834,0 0.209604,-0.11446 0.182025,-0.22201 0.182025,-0.73499 0,-0.35578 -0.09377,-0.58469 z m -0.01103,1.56238 q -0.132382,0.0855 -0.301995,0.0855 -0.169614,0 -0.301996,-0.0855 -0.132381,-0.0869 -0.213741,-0.2358 -0.16134,-0.29924 -0.16134,-0.74327 0,-0.54883 0.216499,-0.83704 0.07584,-0.10204 0.193056,-0.16272 0.118592,-0.0607 0.267522,-0.0607 0.148929,0 0.267521,0.0607 0.21512,0.11032 0.311648,0.38474 0.09791,0.27303 0.09791,0.61502 0,0.44403 -0.16134,0.74327 -0.08136,0.14893 -0.213741,0.2358 z m -0.115834,-1.75543 q -0.08136,-0.0731 -0.199951,-0.0731 -0.117213,0 -0.210983,0.11446 -0.182025,0.22477 -0.182025,0.73637 0,0.36819 0.09929,0.5971 z" />
    </g>
    <g
       style="font-style:normal;font-variant:normal;font-weight:normal;font-stretch:normal;font-size:2.82414px;line-height:1.25;font-family:'Oxygen Mono';-inkscape-font-specification:'Oxygen Mono';text-align:center;letter-spacing:0px;word-spacing:0px;text-anchor:middle;fill:#000000;fill-opacity:1;stroke:none;stroke-width:0.264583"
       id="text8261"
       transform="scale(1.0001519,0.99984812)"
       aria-label="1">
      <path
         id="path1181"
         style="font-size:2.82414px;text-align:center;text-anchor:middle;stroke-width:0.264583"
         d="m 93.727957,222.23348 q 0.188919,-0.0772 0.463335,-0.28269 h 0.259248 v 1.8561 h 0.432998 v 0.20133 h -1.154202 v -0.20133 h 0.463335 v -1.57754 q -0.03861,0.0221 -0.193056,0.11583 -0.154445,0.0924 -0.271658,0.1379 z" />
    </g>
    <g
       style="font-style:normal;font-variant:normal;font-weight:normal;font-stretch:normal;font-size:2.82414px;line-height:1.25;font-family:'Oxygen Mono';-inkscape-font-specification:'Oxygen Mono';text-align:center;letter-spacing:0px;word-spacing:0px;text-anchor:middle;fill:#000000;fill-opacity:1;stroke:none;stroke-width:0.264583"
       id="text8265"
       transform="scale(1.0001519,0.99984812)"
       aria-label="2">
      <path
         id="path1184"
         style="font-size:2.82414px;text-align:center;text-anchor:middle;stroke-width:0.264583"
         d="m 100.01194,222.08455 q 0.10894,-0.0855 0.22615,-0.12548 0.11721,-0.0414 0.28407,-0.0414 0.29786,0 0.46058,0.16134 0.16409,0.16134 0.16409,0.42886 0,0.19444 -0.0896,0.35578 -0.0882,0.15996 -0.15582,0.2427 -0.0662,0.0813 -0.11722,0.14065 l -0.47436,0.55986 h 0.88392 v 0.20133 h -1.16799 v -0.26338 l 0.60399,-0.73361 q 0.17375,-0.21237 0.21512,-0.35716 0.0207,-0.069 0.0207,-0.13928 0,-0.17099 -0.0883,-0.26338 -0.0869,-0.0924 -0.23856,-0.0924 -0.15169,0 -0.2427,0.0359 -0.0896,0.0345 -0.18892,0.1048 z" />
    </g>
    <g
       style="font-style:normal;font-variant:normal;font-weight:normal;font-stretch:normal;font-size:2.82414px;line-height:1.25;font-family:'Oxygen Mono';-inkscape-font-specification:'Oxygen Mono';text-align:center;letter-spacing:0px;word-spacing:0px;text-anchor:middle;fill:#000000;fill-opacity:1;stroke:none;stroke-width:0.264583"
       id="text8269"
       transform="scale(1.0001519,0.99984812)"
       aria-label="3">
      <path
         id="path1187"
         style="font-size:2.82414px;text-align:center;text-anchor:middle;stroke-width:0.264583"
         d="m 106.4283,223.63176 q 0.0717,0.0621 0.20409,0.1117 0.13376,0.0483 0.30475,0.0483 0.171,0 0.28821,-0.0979 0.11859,-0.0979 0.11859,-0.28131 0,-0.28683 -0.3544,-0.35716 -0.0979,-0.0193 -0.21374,-0.0193 h -0.15168 v -0.24546 l 0.15168,-0.003 q 0.36681,-0.004 0.4592,-0.16961 0.0386,-0.0676 0.0386,-0.16548 0,-0.14617 -0.0979,-0.22477 -0.0965,-0.08 -0.2758,-0.08 -0.27166,0 -0.47023,0.17651 l -0.0952,-0.22202 q 0.21788,-0.18478 0.59848,-0.18478 0.28406,0 0.46471,0.13928 0.18065,0.13927 0.18065,0.35991 0,0.22063 -0.13239,0.33095 -0.131,0.10894 -0.31716,0.15307 0.20823,0.0372 0.36681,0.16823 0.15858,0.13101 0.15858,0.36957 0,0.35164 -0.31303,0.49919 -0.18478,0.0869 -0.44954,0.0869 -0.32958,0 -0.55987,-0.17237 z" />
    </g>
    <path
       style="fill:#b3b3b3;stroke:#b3b3b3;stroke-width:0.26458332;stroke-linecap:butt;stroke-linejoin:miter;stroke-miterlimit:4;stroke-dasharray:none;stroke-opacity:1"
       d="m 104.85505,221.85651 1.0592,4.23557"
       id="path8271" />
    <path
       id="path8273"
       d="m 96.91095,221.85649 -1.05922,4.23557"
       style="fill:#b3b3b3;stroke:#b3b3b3;stroke-width:0.26458332;stroke-linecap:butt;stroke-linejoin:miter;stroke-miterlimit:4;stroke-dasharray:none;stroke-opacity:1" />
    <path
       style="fill:#b3b3b3;stroke:#b3b3b3;stroke-width:0.26458332;stroke-linecap:butt;stroke-linejoin:miter;stroke-miterlimit:4;stroke-dasharray:none;stroke-opacity:1"
       d="m 90.55567,221.85649 -1.05922,4.23557"
       id="path8275" />
    <g
       style="font-style:normal;font-variant:normal;font-weight:normal;font-stretch:normal;font-size:11.2966px;line-height:1.25;font-family:'Bree Serif';-inkscape-font-specification:'Bree Serif';text-align:center;letter-spacing:0px;word-spacing:0px;text-anchor:middle;fill:#000000;fill-opacity:1;stroke:none;stroke-width:0.264583"
       id="text8286"
       transform="scale(1.0001519,0.99984812)"
       aria-label="Metody na zmny seznam">
      <path
         id="path1190"
         style="text-align:center;text-anchor:middle;stroke-width:0.264583"
         d="m 16.723018,168.83865 1.920422,5.10607 h 0.02259 l 1.931719,-5.10607 h 2.236727 v 0.91503 l -0.372788,0.0339 q -0.338898,0.0339 -0.327602,0.39538 l 0.282415,5.17384 0.70039,0.0339 v 0.96021 h -2.722481 v -0.91502 l 0.406677,-0.0339 q 0.305009,-0.0226 0.293712,-0.29371 l -0.214635,-3.9877 h -0.02259 l -1.739676,4.50734 H 18.04472 l -1.717083,-4.46216 h -0.02259 l -0.225932,4.19104 0.734279,0.0339 v 0.96021 h -2.665998 v -0.91502 l 0.406678,-0.0339 q 0.259821,-0.0226 0.282415,-0.30501 l 0.305008,-5.25292 -0.689093,-0.0452 v -0.96021 z" />
      <path
         id="path1192"
         style="text-align:center;text-anchor:middle;stroke-width:0.264583"
         d="m 26.551056,170.49925 q 0.847245,0 1.344296,0.41798 0.49705,0.40667 0.49705,1.15225 0,0.49705 -0.214635,0.88113 -0.214636,0.37279 -0.53094,0.58743 -0.316305,0.21463 -0.768169,0.35019 -0.756872,0.22593 -1.705787,0.22593 0.03389,0.59872 0.372788,0.97151 0.338898,0.36149 1.039287,0.36149 0.700389,0 1.400779,-0.49705 l 0.42927,0.91503 q -0.225932,0.20334 -0.768168,0.41797 -0.530941,0.21464 -1.220033,0.21464 -1.378185,0 -2.022092,-0.75688 -0.643906,-0.76816 -0.643906,-2.10116 0,-1.333 0.734279,-2.23673 0.734279,-0.90373 2.055981,-0.90373 z m -0.519643,2.58692 q 0.417974,-0.0791 0.768169,-0.3276 0.350194,-0.25982 0.350194,-0.61001 0,-0.6891 -0.677796,-0.6891 -0.632609,0 -0.971507,0.50835 -0.338898,0.49705 -0.372788,1.19744 0.49705,-0.0113 0.903728,-0.0791 z" />
      <path
         id="path1194"
         style="text-align:center;text-anchor:middle;stroke-width:0.264583"
         d="m 30.437078,169.47126 h 0.734279 v 1.19744 h 1.502448 l -0.112966,0.94892 h -1.389482 v 2.971 q 0,0.49705 0.180745,0.70039 0.180746,0.19204 0.553534,0.19204 0.384084,0 0.768169,-0.23723 l 0.338898,0.86984 q -0.56483,0.39538 -1.434669,0.39538 -0.508347,0 -0.858541,-0.13556 -0.350195,-0.12426 -0.519644,-0.28241 -0.169449,-0.15815 -0.259822,-0.46316 -0.09037,-0.30501 -0.101669,-0.47446 -0.0113,-0.18074 -0.0113,-0.51964 v -3.01619 h -0.802058 l 0.112966,-0.82466 q 0.53094,-0.0452 0.802058,-0.37278 0.271119,-0.3389 0.497051,-0.94892 z" />
      <path
         id="path1196"
         style="text-align:center;text-anchor:middle;stroke-width:0.264583"
         d="m 35.814243,175.52624 q 1.231329,0 1.231329,-1.9882 0,-1.0054 -0.282415,-1.52504 -0.271118,-0.51965 -0.926321,-0.51965 -0.643906,0 -0.948915,0.49705 -0.305008,0.49705 -0.305008,1.3556 0,1.59282 0.587423,1.99949 0.259822,0.18075 0.643907,0.18075 z m -2.598218,-2.02209 q 0,-0.83595 0.248525,-1.44597 0.248525,-0.62131 0.666499,-0.94891 0.802059,-0.61002 1.773566,-0.61002 0.677796,0 1.140957,0.22593 0.474457,0.21464 0.734279,0.50835 0.271118,0.28242 0.451864,0.83595 0.192042,0.54224 0.192042,1.28781 0,1.55893 -0.756872,2.36099 -0.756872,0.80206 -1.943015,0.80206 -1.174847,0 -1.841346,-0.75687 -0.666499,-0.76817 -0.666499,-2.25932 z" />
      <path
         id="path1198"
         style="text-align:center;text-anchor:middle;stroke-width:0.264583"
         d="m 42.016075,170.49925 q 0.485753,0 0.926321,0.13556 v -1.14096 q 0,-0.24852 -0.293712,-0.27111 l -0.485754,-0.0339 v -0.89243 h 2.101168 v 6.86833 q 0.0113,0.25982 0.282415,0.25982 l 0.395381,0.0226 v 0.90373 h -1.830049 v -0.6665 l -0.03389,-0.0113 q -0.508347,0.82465 -1.536338,0.82465 -1.287812,0 -1.807456,-0.85854 -0.474457,-0.77947 -0.474457,-1.90913 0,-1.46856 0.722983,-2.34969 0.734279,-0.88114 2.033388,-0.88114 z m 0.926321,4.08937 v -2.92582 q -0.406678,-0.18074 -0.858542,-0.18074 -0.745575,0 -1.09577,0.59872 -0.338898,0.59872 -0.338898,1.52504 0,1.89783 1.220033,1.89783 0.46316,0 0.768169,-0.25983 0.305008,-0.27111 0.305008,-0.6552 z" />
      <path
         id="path1200"
         style="text-align:center;text-anchor:middle;stroke-width:0.264583"
         d="m 49.754233,176.13626 v -0.85855 q -0.621313,0.88114 -1.830049,0.88114 -1.750973,0 -1.750973,-1.95431 v -2.27062 q 0,-0.30501 -0.282415,-0.3163 l -0.361491,-0.0226 v -0.92632 h 1.988201 v 3.24213 q 0,0.59872 0.169449,0.90372 0.169449,0.30501 0.700389,0.30501 0.530941,0 0.847245,-0.3276 0.327602,-0.3276 0.327602,-0.79076 v -2.04469 q 0,-0.19204 -0.06778,-0.25982 -0.05648,-0.0791 -0.214635,-0.0791 l -0.361491,-0.0226 v -0.92632 h 1.988201 v 5.46756 q 0,1.36688 -0.666499,1.99949 -0.655203,0.63261 -1.999498,0.63261 -1.332999,0 -2.078575,-0.37278 v -1.57023 l 1.073177,-0.0904 v 0.54223 q 0,0.30501 0.282415,0.40668 0.282415,0.11297 0.779466,0.11297 1.457261,0 1.457261,-1.6606 z" />
      <path
         id="path1202"
         style="text-align:center;text-anchor:middle;stroke-width:0.264583"
         d="m 54.261564,171.57243 v -0.90373 h 1.909126 v 0.73428 q 0.293711,-0.41797 0.779465,-0.6552 0.485754,-0.24853 1.050584,-0.24853 0.858542,0 1.321702,0.49705 0.474457,0.48576 0.474457,1.46856 v 2.94841 l 0.643907,0.0339 v 0.90373 h -2.688591 v -0.85854 l 0.372788,-0.0339 q 0.169449,-0.0226 0.248525,-0.0904 0.07908,-0.0791 0.07908,-0.28242 v -2.3271 q 0,-0.62131 -0.192042,-0.91502 -0.192042,-0.30501 -0.734279,-0.30501 -0.53094,0 -0.847245,0.3389 -0.316305,0.3389 -0.316305,0.80206 v 2.73377 l 0.643906,0.0339 v 0.90373 h -2.688591 v -0.85854 l 0.372788,-0.0339 q 0.169449,-0.0226 0.248525,-0.0904 0.07908,-0.0791 0.07908,-0.28242 v -3.12916 q 0,-0.33889 -0.282415,-0.35019 z" />
      <path
         id="path1204"
         style="text-align:center;text-anchor:middle;stroke-width:0.264583"
         d="m 66.17946,170.89463 v 4.20234 q 0,0.18074 0.05648,0.24852 0.06778,0.0678 0.225932,0.0791 l 0.361491,0.0226 v 0.90373 h -1.796159 v -0.6552 l -0.03389,-0.0113 q -0.56483,0.81336 -1.547634,0.81336 -1.152253,0 -1.705787,-0.73428 -0.553533,-0.73428 -0.553533,-2.0108 0,-1.53633 0.745575,-2.39488 0.745576,-0.85854 2.236727,-0.85854 0.960211,0 2.010795,0.39538 z m -1.310406,3.6601 v -2.92582 q -0.316304,-0.14685 -0.869838,-0.14685 -0.756872,0 -1.09577,0.61001 -0.338898,0.61002 -0.338898,1.61542 0,1.83005 1.174846,1.83005 0.497051,0 0.813356,-0.29372 0.316304,-0.305 0.316304,-0.68909 z" />
      <path
         id="path1206"
         style="text-align:center;text-anchor:middle;stroke-width:0.264583"
         d="m 74.459846,176.35089 h -4.609013 v -0.85854 l 2.903227,-3.81825 h -1.423372 q -0.237229,0 -0.305008,0.0904 -0.05648,0.0904 -0.05648,0.29371 v 0.39538 l -1.061881,-0.0791 v -1.70579 h 4.496047 v 0.76817 l -2.937116,3.89733 h 1.604118 q 0.327601,0 0.327601,-0.38409 v -0.47445 l 1.06188,0.0791 z" />
      <path
         id="path1208"
         style="text-align:center;text-anchor:middle;stroke-width:0.264583"
         d="m 75.160235,171.58373 v -0.91503 h 1.909125 v 0.73428 q 0.63261,-0.90373 1.72838,-0.90373 1.107067,0 1.491151,0.90373 0.63261,-0.90373 1.717083,-0.90373 0.813356,0 1.253923,0.49705 0.440567,0.48576 0.440567,1.46856 v 2.94841 l 0.643907,0.0339 v 0.90373 H 81.65578 v -0.85854 l 0.372788,-0.0339 q 0.169449,-0.0226 0.237228,-0.0904 0.07908,-0.0791 0.09037,-0.27112 v -2.3384 q 0,-0.62131 -0.146856,-0.91502 -0.135559,-0.30501 -0.655203,-0.30501 -0.519643,0 -0.802058,0.3163 -0.271119,0.31631 -0.271119,0.84725 v 2.71118 l 0.621313,0.0339 v 0.90373 h -2.665997 v -0.85854 l 0.372787,-0.0339 q 0.169449,-0.0226 0.248526,-0.0904 0.07908,-0.0791 0.07908,-0.28242 v -2.3271 q 0,-0.62131 -0.146856,-0.91502 -0.135559,-0.30501 -0.666499,-0.30501 -0.519644,0 -0.790762,0.3276 -0.271119,0.3276 -0.271119,0.81336 v 2.73377 l 0.610017,0.0339 v 0.90373 h -2.665998 v -0.85854 l 0.372788,-0.0339 q 0.169449,-0.0226 0.248525,-0.0904 0.07908,-0.0791 0.07908,-0.28242 h 0.0113 v -3.11786 q 0,-0.19204 -0.06778,-0.25982 -0.05648,-0.0791 -0.214635,-0.0904 z" />
      <path
         id="path1210"
         style="text-align:center;text-anchor:middle;stroke-width:0.264583"
         d="m 87.846309,170.49925 q 0.847245,0 1.344296,0.41798 0.49705,0.40667 0.49705,1.15225 0,0.49705 -0.214635,0.88113 -0.214636,0.37279 -0.530941,0.58743 -0.316304,0.21463 -0.768168,0.35019 -0.756873,0.22593 -1.705787,0.22593 0.03389,0.59872 0.372788,0.97151 0.338898,0.36149 1.039287,0.36149 0.700389,0 1.400778,-0.49705 l 0.429271,0.91503 q -0.225932,0.20334 -0.768169,0.41797 -0.53094,0.21464 -1.220032,0.21464 -1.378186,0 -2.022092,-0.75688 -0.643906,-0.76816 -0.643906,-2.10116 0,-1.333 0.734279,-2.23673 0.734279,-0.90373 2.055981,-0.90373 z m -0.519643,2.58692 q 0.417974,-0.0791 0.768168,-0.3276 0.350195,-0.25982 0.350195,-0.61001 0,-0.6891 -0.677796,-0.6891 -0.63261,0 -0.971508,0.50835 -0.338898,0.49705 -0.372787,1.19744 0.49705,-0.0113 0.903728,-0.0791 z m 1.615413,-5.44496 0.463161,0.36149 -1.299109,1.64931 q -0.225932,0.29371 -0.485754,0.29371 -0.282415,0 -0.519643,-0.31631 l -1.276516,-1.61541 0.46316,-0.38408 1.332999,1.17484 z" />
      <path
         id="path1212"
         style="text-align:center;text-anchor:middle;stroke-width:0.264583"
         d="m 90.410627,171.57243 v -0.90373 h 1.909126 v 0.73428 q 0.293711,-0.41797 0.779465,-0.6552 0.485754,-0.24853 1.050584,-0.24853 0.858542,0 1.321702,0.49705 0.474458,0.48576 0.474458,1.46856 v 2.94841 l 0.643906,0.0339 v 0.90373 h -2.688591 v -0.85854 l 0.372788,-0.0339 q 0.169449,-0.0226 0.248525,-0.0904 0.07908,-0.0791 0.07908,-0.28242 v -2.3271 q 0,-0.62131 -0.192042,-0.91502 -0.192042,-0.30501 -0.734279,-0.30501 -0.53094,0 -0.847245,0.3389 -0.316305,0.3389 -0.316305,0.80206 v 2.73377 l 0.643906,0.0339 v 0.90373 H 90.46711 v -0.85854 l 0.372788,-0.0339 q 0.169449,-0.0226 0.248525,-0.0904 0.07908,-0.0791 0.07908,-0.28242 v -3.12916 q 0,-0.33889 -0.282415,-0.35019 z" />
      <path
         id="path1214"
         style="text-align:center;text-anchor:middle;stroke-width:0.264583"
         d="m 101.4135,176.13626 v -0.85855 q -0.62131,0.88114 -1.830047,0.88114 -1.750973,0 -1.750973,-1.95431 v -2.27062 q 0,-0.30501 -0.282415,-0.3163 l -0.361491,-0.0226 v -0.92632 h 1.988202 v 3.24213 q 0,0.59872 0.169449,0.90372 0.169449,0.30501 0.700385,0.30501 0.53094,0 0.84725,-0.3276 0.3276,-0.3276 0.3276,-0.79076 v -2.04469 q 0,-0.19204 -0.0678,-0.25982 -0.0565,-0.0791 -0.21463,-0.0791 l -0.3615,-0.0226 v -0.92632 h 1.98821 v 5.46756 q 0,1.36688 -0.6665,1.99949 -0.65521,0.63261 -1.999502,0.63261 -1.332999,0 -2.078574,-0.37278 v -1.57023 l 1.073177,-0.0904 v 0.54223 q 0,0.30501 0.282415,0.40668 0.282415,0.11297 0.779465,0.11297 1.457259,0 1.457259,-1.6606 z" />
      <path
         id="path1216"
         style="text-align:center;text-anchor:middle;stroke-width:0.264583"
         d="m 108.94832,171.52724 q -0.27112,-0.10167 -0.65521,-0.10167 -0.38408,0 -0.62131,0.18075 -0.22593,0.16945 -0.22593,0.42927 0,0.24852 0.0791,0.39538 0.0904,0.13556 0.27111,0.23723 0.28242,0.14686 0.6778,0.25982 0.39538,0.10167 0.58742,0.16945 0.19205,0.0565 0.47446,0.20334 0.29371,0.14685 0.44057,0.3163 0.39538,0.41798 0.39538,1.07318 0,0.84725 -0.62131,1.333 -0.61002,0.47446 -1.55894,0.47446 -1.37818,0 -2.07857,-0.3502 v -1.57023 l 1.01669,-0.0791 v 0.54224 q 0,0.49705 0.94892,0.49705 0.94891,0 0.94891,-0.6891 0,-0.24852 -0.16945,-0.40667 -0.15815,-0.15816 -0.3163,-0.21464 -0.15815,-0.0565 -0.38409,-0.11297 -0.21463,-0.0565 -0.42927,-0.11296 -0.20333,-0.0565 -0.45186,-0.14686 -0.23723,-0.10167 -0.53094,-0.28241 -0.57613,-0.37279 -0.57613,-1.24263 0,-0.88113 0.62132,-1.35559 0.62131,-0.47446 1.55893,-0.47446 0.94891,0 1.87523,0.45187 v 1.35559 l -1.01669,0.0791 v -0.47445 q 0,-0.28242 -0.25982,-0.38409 z" />
      <path
         id="path1218"
         style="text-align:center;text-anchor:middle;stroke-width:0.264583"
         d="m 113.9188,170.49925 q 0.84725,0 1.3443,0.41798 0.49705,0.40667 0.49705,1.15225 0,0.49705 -0.21464,0.88113 -0.21463,0.37279 -0.53094,0.58743 -0.3163,0.21463 -0.76816,0.35019 -0.75688,0.22593 -1.70579,0.22593 0.0339,0.59872 0.37279,0.97151 0.33889,0.36149 1.03928,0.36149 0.70039,0 1.40078,-0.49705 l 0.42927,0.91503 q -0.22593,0.20334 -0.76817,0.41797 -0.53094,0.21464 -1.22003,0.21464 -1.37818,0 -2.02209,-0.75688 -0.64391,-0.76816 -0.64391,-2.10116 0,-1.333 0.73428,-2.23673 0.73428,-0.90373 2.05598,-0.90373 z m -0.51964,2.58692 q 0.41797,-0.0791 0.76817,-0.3276 0.35019,-0.25982 0.35019,-0.61001 0,-0.6891 -0.67779,-0.6891 -0.63261,0 -0.97151,0.50835 -0.3389,0.49705 -0.37279,1.19744 0.49705,-0.0113 0.90373,-0.0791 z" />
      <path
         id="path1220"
         style="text-align:center;text-anchor:middle;stroke-width:0.264583"
         d="m 121.23899,176.35089 h -4.60901 v -0.85854 l 2.90322,-3.81825 h -1.42337 q -0.23723,0 -0.30501,0.0904 -0.0565,0.0904 -0.0565,0.29371 v 0.39538 l -1.06188,-0.0791 v -1.70579 h 4.49605 v 0.76817 l -2.93712,3.89733 h 1.60412 q 0.3276,0 0.3276,-0.38409 v -0.47445 l 1.06188,0.0791 z" />
      <path
         id="path1222"
         style="text-align:center;text-anchor:middle;stroke-width:0.264583"
         d="m 121.93938,171.57243 v -0.90373 h 1.90913 v 0.73428 q 0.29371,-0.41797 0.77946,-0.6552 0.48576,-0.24853 1.05059,-0.24853 0.85854,0 1.3217,0.49705 0.47446,0.48576 0.47446,1.46856 v 2.94841 l 0.6439,0.0339 v 0.90373 h -2.68859 v -0.85854 l 0.37279,-0.0339 q 0.16945,-0.0226 0.24853,-0.0904 0.0791,-0.0791 0.0791,-0.28242 v -2.3271 q 0,-0.62131 -0.19204,-0.91502 -0.19204,-0.30501 -0.73428,-0.30501 -0.53094,0 -0.84724,0.3389 -0.31631,0.3389 -0.31631,0.80206 v 2.73377 l 0.64391,0.0339 v 0.90373 h -2.68859 v -0.85854 l 0.37278,-0.0339 q 0.16945,-0.0226 0.24853,-0.0904 0.0791,-0.0791 0.0791,-0.28242 v -3.12916 q 0,-0.33889 -0.28241,-0.35019 z" />
      <path
         id="path1224"
         style="text-align:center;text-anchor:middle;stroke-width:0.264583"
         d="m 133.85727,170.89463 v 4.20234 q 0,0.18074 0.0565,0.24852 0.0678,0.0678 0.22593,0.0791 l 0.36149,0.0226 v 0.90373 h -1.79616 v -0.6552 l -0.0339,-0.0113 q -0.56483,0.81336 -1.54763,0.81336 -1.15226,0 -1.70579,-0.73428 -0.55353,-0.73428 -0.55353,-2.0108 0,-1.53633 0.74557,-2.39488 0.74558,-0.85854 2.23673,-0.85854 0.96021,0 2.01079,0.39538 z m -1.3104,3.6601 v -2.92582 q -0.31631,-0.14685 -0.86984,-0.14685 -0.75687,0 -1.09577,0.61001 -0.3389,0.61002 -0.3389,1.61542 0,1.83005 1.17485,1.83005 0.49705,0 0.81335,-0.29372 0.31631,-0.305 0.31631,-0.68909 z" />
      <path
         id="path1226"
         style="text-align:center;text-anchor:middle;stroke-width:0.264583"
         d="m 135.12249,171.58373 v -0.91503 h 1.90912 v 0.73428 q 0.63261,-0.90373 1.72838,-0.90373 1.10707,0 1.49115,0.90373 0.63261,-0.90373 1.71709,-0.90373 0.81335,0 1.25392,0.49705 0.44057,0.48576 0.44057,1.46856 v 2.94841 l 0.6439,0.0339 v 0.90373 h -2.68859 v -0.85854 l 0.37279,-0.0339 q 0.16945,-0.0226 0.23723,-0.0904 0.0791,-0.0791 0.0904,-0.27112 v -2.3384 q 0,-0.62131 -0.14685,-0.91502 -0.13556,-0.30501 -0.65521,-0.30501 -0.51964,0 -0.80205,0.3163 -0.27112,0.31631 -0.27112,0.84725 v 2.71118 l 0.62131,0.0339 v 0.90373 h -2.666 v -0.85854 l 0.37279,-0.0339 q 0.16945,-0.0226 0.24853,-0.0904 0.0791,-0.0791 0.0791,-0.28242 v -2.3271 q 0,-0.62131 -0.14685,-0.91502 -0.13556,-0.30501 -0.6665,-0.30501 -0.51965,0 -0.79077,0.3276 -0.27111,0.3276 -0.27111,0.81336 v 2.73377 l 0.61001,0.0339 v 0.90373 h -2.666 v -0.85854 l 0.37279,-0.0339 q 0.16945,-0.0226 0.24853,-0.0904 0.0791,-0.0791 0.0791,-0.28242 h 0.0113 v -3.11786 q 0,-0.19204 -0.0678,-0.25982 -0.0565,-0.0791 -0.21463,-0.0904 z" />
      <path
         id="path1228"
         style="text-align:center;text-anchor:middle;stroke-width:0.264583"
         d="m 150.96031,175.45846 v 0.89243 h -1.83005 v -0.73428 q -0.62131,0.88114 -1.83005,0.88114 -1.75097,0 -1.75097,-1.95431 v -2.60952 q 0,-0.30501 -0.28242,-0.3163 l -0.36149,-0.0226 v -0.92632 h 1.9882 v 3.58102 q 0,0.59872 0.16945,0.90373 0.16945,0.30501 0.70039,0.30501 0.53094,0 0.84725,-0.3276 0.3276,-0.3276 0.3276,-0.79076 v -2.38359 q 0,-0.18074 -0.0678,-0.24852 -0.0565,-0.0791 -0.21464,-0.0904 l -0.36149,-0.0226 v -0.92632 h 1.9882 v 4.42827 q 0,0.18074 0.0565,0.24852 0.0565,0.0565 0.22593,0.0791 z m -3.26472,-5.47885 q -0.48575,0 -0.76817,-0.29371 -0.27111,-0.30501 -0.27111,-0.75688 0,-0.46316 0.29371,-0.75687 0.30501,-0.29371 0.77946,-0.29371 0.48576,0 0.76817,0.29371 0.28242,0.28242 0.28242,0.73428 0,0.45187 -0.29372,0.76817 -0.29371,0.30501 -0.79076,0.30501 z m 0.44057,-1.05059 q 0,-0.46316 -0.40668,-0.46316 -0.40667,0 -0.40667,0.47446 0,0.46316 0.40667,0.46316 0.19204,0 0.29371,-0.13556 0.11297,-0.13556 0.11297,-0.3389 z" />
    </g>
    <path
       id="path8288"
       d="m 14.821931,225.03314 v 4.23557"
       style="fill:#b3b3b3;stroke:#b3b3b3;stroke-width:0.26458332;stroke-linecap:butt;stroke-linejoin:miter;stroke-miterlimit:4;stroke-dasharray:none;stroke-opacity:1" />
    <path
       style="fill:#b3b3b3;stroke:#b3b3b3;stroke-width:0.26458332;stroke-linecap:butt;stroke-linejoin:miter;stroke-miterlimit:4;stroke-dasharray:none;stroke-opacity:1"
       d="m 21.17721,225.03314 v 4.23557"
       id="path8290" />
    <path
       id="path8292"
       d="m 21.17721,194.32529 v 4.23558"
       style="fill:#b3b3b3;stroke:#b3b3b3;stroke-width:0.26458332;stroke-linecap:butt;stroke-linejoin:miter;stroke-miterlimit:4;stroke-dasharray:none;stroke-opacity:1" />
    <path
       style="fill:#b3b3b3;stroke:#b3b3b3;stroke-width:0.26458332;stroke-linecap:butt;stroke-linejoin:miter;stroke-miterlimit:4;stroke-dasharray:none;stroke-opacity:1"
       d="m 14.821931,194.32527 v 4.23558"
       id="path8294" />
    <path
       id="path8296"
       d="m 27.53249,194.32527 v 4.23558"
       style="fill:#b3b3b3;stroke:#b3b3b3;stroke-width:0.26458332;stroke-linecap:butt;stroke-linejoin:miter;stroke-miterlimit:4;stroke-dasharray:none;stroke-opacity:1" />
    <path
       style="fill:#b3b3b3;stroke:#b3b3b3;stroke-width:0.26458332;stroke-linecap:butt;stroke-linejoin:miter;stroke-miterlimit:4;stroke-dasharray:none;stroke-opacity:1"
       d="m 95.322144,194.32531 v 4.23558"
       id="path8298" />
    <path
       id="path8300"
       d="m 88.966864,194.32529 v 4.23558"
       style="fill:#b3b3b3;stroke:#b3b3b3;stroke-width:0.26458332;stroke-linecap:butt;stroke-linejoin:miter;stroke-miterlimit:4;stroke-dasharray:none;stroke-opacity:1" />
    <path
       style="fill:#b3b3b3;stroke:#b3b3b3;stroke-width:0.26458332;stroke-linecap:butt;stroke-linejoin:miter;stroke-miterlimit:4;stroke-dasharray:none;stroke-opacity:1"
       d="m 101.67742,194.32529 v 4.23558"
       id="path8302" />
  </g>
</svg>
