<?xml version="1.0" encoding="UTF-8" standalone="no"?>
<svg
   xmlns:dc="http://purl.org/dc/elements/1.1/"
   xmlns:cc="http://creativecommons.org/ns#"
   xmlns:rdf="http://www.w3.org/1999/02/22-rdf-syntax-ns#"
   xmlns:svg="http://www.w3.org/2000/svg"
   xmlns="http://www.w3.org/2000/svg"
   id="svg8"
   version="1.1"
   viewBox="0 0 111.54536 11.557594"
   height="11.557594mm"
   width="111.54536mm">
  <defs
     id="defs2">
    <clipPath
       id="clipPath5480"
       clipPathUnits="userSpaceOnUse">
      <rect
         ry="1"
         rx="1"
         y="26.458231"
         x="3.9422255"
         height="11.557592"
         width="111.54535"
         id="rect5482"
         style="fill:#ff0000;fill-opacity:1;stroke-width:0.38105029" />
    </clipPath>
  </defs>
  <metadata
     id="metadata5">
    <rdf:RDF>
      <cc:Work
         rdf:about="">
        <dc:format>image/svg+xml</dc:format>
        <dc:type
           rdf:resource="http://purl.org/dc/dcmitype/StillImage" />
        <dc:title></dc:title>
      </cc:Work>
    </rdf:RDF>
  </metadata>
  <g
     transform="translate(-3.9422255,-26.458231)"
     id="layer1">
    <g
       clip-path="url(#clipPath5480)"
       id="g5478">
      <rect
         style="fill:#cdb086;fill-opacity:1;stroke-width:0.0964738"
         id="rect30"
         width="58.079342"
         height="11.557593"
         x="57.408241"
         y="26.458231" />
      <rect
         y="32.576958"
         x="57.408241"
         height="5.4388671"
         width="58.079342"
         id="rect4533"
         style="fill:#b0813f;fill-opacity:1;stroke-width:0.06618048" />
      <rect
         style="fill:#a9d68a;fill-opacity:1;stroke-width:0.09533566"
         id="rect28"
         width="36.955166"
         height="11.557593"
         x="20.453075"
         y="26.458231" />
      <rect
         style="fill:#94c9c8;fill-opacity:1;stroke-width:0.09114931"
         id="rect26"
         width="16.510849"
         height="11.557594"
         x="3.9422255"
         y="26.458231" />
      <rect
         y="32.576958"
         x="3.9422255"
         height="5.4388671"
         width="16.510849"
         id="rect4529"
         style="fill:#3fb0ac;fill-opacity:1;stroke-width:0.0625279" />
      <rect
         y="32.576958"
         x="20.453075"
         height="5.4388666"
         width="36.955166"
         id="rect4531"
         style="fill:#6cb03f;fill-opacity:1;stroke-width:0.06539972" />
    </g>
    <g
       id="text12"
       style="font-style:normal;font-variant:normal;font-weight:normal;font-stretch:normal;font-size:3.84586048px;line-height:1.25;font-family:'Oxygen Mono';-inkscape-font-specification:'Oxygen Mono';letter-spacing:0px;word-spacing:0px;fill:#000000;fill-opacity:1;stroke:none;stroke-width:0.09614651"
       aria-label="http://naucse.python.cz/lessons/fast-track/http/">
      <path
         id="path4642"
         style="font-style:normal;font-variant:normal;font-weight:normal;font-stretch:normal;font-family:'Oxygen Mono';-inkscape-font-specification:'Oxygen Mono';stroke-width:0.09614651"
         d="m 6.475422,29.35936 v 1.243145 H 6.1336512 v -1.199954 q 0,-0.386839 -0.1032824,-0.522045 -0.1032824,-0.137084 -0.311725,-0.137084 -0.2103205,0 -0.366183,0.146473 -0.1539847,0.144595 -0.1539847,0.311725 v 1.400885 H 4.8567053 v -2.901296 l 0.3417708,-0.03756 v 1.128595 q 0.2403663,-0.311725 0.6441066,-0.311725 0.6328393,0 0.6328393,0.878839 z" />
      <path
         id="path4644"
         style="font-style:normal;font-variant:normal;font-weight:normal;font-stretch:normal;font-family:'Oxygen Mono';-inkscape-font-specification:'Oxygen Mono';stroke-width:0.09614651"
         d="m 7.9157419,28.805391 v 0.967099 q 0,0.180275 0.018779,0.285435 0.020657,0.10516 0.07887,0.170885 0.060092,0.06573 0.1539846,0.08826 0.093893,0.02253 0.2553892,0.02253 h 0.3774502 l -0.018779,0.262901 H 8.4359095 q -0.5314348,0 -0.7079538,-0.195298 Q 7.6134062,30.279513 7.5871161,29.995955 7.5739711,29.870139 7.5739711,29.686108 V 28.805391 H 6.991834 l 0.037557,-0.2629 h 0.5445799 v -0.709832 l 0.3417708,-0.101405 v 0.811237 h 0.867572 v 0.2629 z" />
      <path
         id="path4646"
         style="font-style:normal;font-variant:normal;font-weight:normal;font-stretch:normal;font-family:'Oxygen Mono';-inkscape-font-specification:'Oxygen Mono';stroke-width:0.09614651"
         d="m 10.221756,28.805391 v 0.967099 q 0,0.180275 0.01878,0.285435 0.02066,0.10516 0.07887,0.170885 0.06009,0.06573 0.153984,0.08826 0.09389,0.02253 0.25539,0.02253 h 0.37745 l -0.01878,0.262901 h -0.345526 q -0.531435,0 -0.707954,-0.195298 -0.1145498,-0.127694 -0.1408398,-0.411252 -0.013145,-0.125816 -0.013145,-0.309847 v -0.880717 h -0.582137 l 0.037557,-0.2629 h 0.5445798 v -0.709832 l 0.3417709,-0.101405 v 0.811237 h 0.867572 v 0.2629 z" />
      <path
         id="path4648"
         style="font-style:normal;font-variant:normal;font-weight:normal;font-stretch:normal;font-family:'Oxygen Mono';-inkscape-font-specification:'Oxygen Mono';stroke-width:0.09614651"
         d="m 12.069572,29.560292 q 0,0.826259 0.578381,0.826259 0.520168,0 0.520168,-0.826259 0,-0.458199 -0.14084,-0.636596 -0.138962,-0.180274 -0.384961,-0.180274 -0.480733,0 -0.555847,0.555847 -0.0169,0.116427 -0.0169,0.261023 z m 0.591526,1.089159 q -0.199053,0 -0.353038,-0.09201 -0.153984,-0.09201 -0.234732,-0.236611 v 1.072259 l -0.341771,0.03756 v -2.888151 h 0.341771 v 0.283557 q 0.09014,-0.153985 0.240366,-0.249756 0.150229,-0.09577 0.339893,-0.09577 0.5089,0 0.722976,0.420641 0.135206,0.266656 0.135206,0.634717 0,0.587771 -0.283557,0.893862 -0.202809,0.21971 -0.567114,0.21971 z" />
      <path
         id="path4650"
         style="font-style:normal;font-variant:normal;font-weight:normal;font-stretch:normal;font-family:'Oxygen Mono';-inkscape-font-specification:'Oxygen Mono';stroke-width:0.09614651"
         d="m 15.218746,30.332093 h -0.565237 v -0.565237 h 0.565237 z m 0,-1.288213 h -0.565237 v -0.563359 h 0.565237 z" />
      <path
         id="path4652"
         style="font-style:normal;font-variant:normal;font-weight:normal;font-stretch:normal;font-family:'Oxygen Mono';-inkscape-font-specification:'Oxygen Mono';stroke-width:0.09614651"
         d="m 17.710668,27.626094 h 0.369939 l -1.331404,3.397052 h -0.358672 z" />
      <path
         id="path4654"
         style="font-style:normal;font-variant:normal;font-weight:normal;font-stretch:normal;font-family:'Oxygen Mono';-inkscape-font-specification:'Oxygen Mono';stroke-width:0.09614651"
         d="m 20.016682,27.626094 h 0.369939 l -1.331404,3.397052 h -0.358672 z" />
      <path
         id="path4656"
         style="font-style:normal;font-variant:normal;font-weight:normal;font-stretch:normal;font-family:'Oxygen Mono';-inkscape-font-specification:'Oxygen Mono';stroke-width:0.09614651"
         d="m 21.995947,28.480521 q 0.640351,0 0.640351,0.811236 v 1.310748 H 22.294527 V 29.33307 q 0,-0.217832 -0.02253,-0.311725 -0.02253,-0.09389 -0.0676,-0.153984 -0.09577,-0.123939 -0.313603,-0.123939 -0.21971,0 -0.371817,0.127694 -0.152106,0.127695 -0.152106,0.338015 v 1.393374 h -0.341771 v -2.060014 h 0.313603 l 0.01878,0.223465 q 0.204687,-0.285435 0.638473,-0.285435 z" />
      <path
         id="path4658"
         style="font-style:normal;font-variant:normal;font-weight:normal;font-stretch:normal;font-family:'Oxygen Mono';-inkscape-font-specification:'Oxygen Mono';stroke-width:0.09614651"
         d="m 24.557351,30.142429 v -0.525802 l -0.279801,0.03944 q -0.292946,0.04131 -0.405618,0.08263 -0.251633,0.09577 -0.251633,0.321115 0,0.155862 0.09014,0.247877 0.09014,0.09202 0.247878,0.09202 0.347404,0 0.599037,-0.257267 z m 0,-0.959588 q 0,-0.441297 -0.373694,-0.441297 -0.176519,0 -0.390595,0.04131 -0.212199,0.04131 -0.29858,0.07887 l -0.08075,-0.251633 q 0.388717,-0.129573 0.730488,-0.129573 0.341771,0 0.548336,0.155863 0.206564,0.155862 0.206564,0.480732 v 1.485389 h -0.283557 l -0.04507,-0.238489 q -0.120184,0.122061 -0.309848,0.204687 -0.187786,0.08075 -0.36806,0.08075 -0.261023,0 -0.433787,-0.155862 -0.172763,-0.157741 -0.172763,-0.443176 0,-0.287312 0.225344,-0.420641 0.152106,-0.09389 0.322992,-0.127694 0.172763,-0.03568 0.448809,-0.06948 l 0.274167,-0.03192 z" />
      <path
         id="path4660"
         style="font-style:normal;font-variant:normal;font-weight:normal;font-stretch:normal;font-family:'Oxygen Mono';-inkscape-font-specification:'Oxygen Mono';stroke-width:0.09614651"
         d="m 27.22016,29.933986 q 0,0.715465 -0.796213,0.715465 -0.796213,0 -0.796213,-0.715465 v -1.391495 h 0.34177 v 1.421541 q 0,0.21971 0.108916,0.321114 0.108916,0.101405 0.345527,0.101405 0.23661,0 0.345526,-0.101405 0.108916,-0.101404 0.108916,-0.321114 v -1.421541 h 0.341771 z" />
      <path
         id="path4662"
         style="font-style:normal;font-variant:normal;font-weight:normal;font-stretch:normal;font-family:'Oxygen Mono';-inkscape-font-specification:'Oxygen Mono';stroke-width:0.09614651"
         d="m 29.456692,30.467299 q -0.197175,0.182152 -0.56148,0.182152 -0.232855,0 -0.424397,-0.08826 -0.191542,-0.09014 -0.313603,-0.240367 -0.257267,-0.31548 -0.257267,-0.760533 0,-0.287313 0.116428,-0.531435 0.118305,-0.244122 0.347404,-0.396229 0.229099,-0.152107 0.565236,-0.152107 0.336138,0 0.522046,0.178397 l -0.08638,0.229099 q -0.215954,-0.144595 -0.488244,-0.144595 -0.27229,0 -0.452564,0.232855 -0.178397,0.232854 -0.178397,0.593404 0,0.358671 0.178397,0.587771 0.180274,0.229099 0.458198,0.229099 0.279801,0 0.492,-0.150229 z" />
      <path
         id="path4664"
         style="font-style:normal;font-variant:normal;font-weight:normal;font-stretch:normal;font-family:'Oxygen Mono';-inkscape-font-specification:'Oxygen Mono';stroke-width:0.09614651"
         d="m 31.285729,29.432597 q 0.266656,0.06573 0.388717,0.208443 0.123939,0.142717 0.123939,0.413129 0,0.268534 -0.206565,0.431908 -0.204687,0.163374 -0.514534,0.163374 -0.221588,0 -0.43003,-0.05446 -0.208443,-0.05634 -0.30797,-0.13145 l 0.0845,-0.246 q 0.07887,0.04883 0.249756,0.09953 0.170885,0.04882 0.369939,0.04882 0.200931,0 0.319236,-0.08263 0.120183,-0.0845 0.120183,-0.223465 0,-0.138962 -0.06009,-0.217832 -0.05821,-0.08075 -0.227222,-0.122061 l -0.349282,-0.0845 q -0.302336,-0.07511 -0.401862,-0.217832 -0.09953,-0.144595 -0.09953,-0.358671 0,-0.214077 0.172763,-0.394351 0.174641,-0.180275 0.507023,-0.184031 h 0.02441 q 0.373695,0 0.636595,0.14084 l -0.07511,0.240366 Q 31.336431,28.7453 31.054752,28.7453 q -0.174641,0.0019 -0.287313,0.08826 -0.110794,0.0845 -0.110794,0.214076 0,0.129573 0.05634,0.195298 0.05634,0.06385 0.214076,0.101404 z" />
      <path
         id="path4666"
         style="font-style:normal;font-variant:normal;font-weight:normal;font-stretch:normal;font-family:'Oxygen Mono';-inkscape-font-specification:'Oxygen Mono';stroke-width:0.09614651"
         d="m 32.955149,30.506734 q -0.215954,-0.144596 -0.321115,-0.38684 -0.103282,-0.244122 -0.103282,-0.550213 0,-0.306092 0.09577,-0.548336 0.09765,-0.244122 0.289191,-0.392473 0.193419,-0.150229 0.424396,-0.150229 0.435664,0 0.638473,0.29858 0.202809,0.29858 0.202809,0.734244 v 0.11455 h -1.305114 q 0.01127,0.317358 0.157741,0.538946 0.148351,0.221588 0.443175,0.221588 0.197176,-0.01878 0.550214,-0.214077 l 0.112671,0.232855 q -0.244122,0.244122 -0.666641,0.244122 -0.302335,0 -0.518289,-0.142717 z m 0.899495,-1.130473 q -0.03756,-0.632839 -0.443175,-0.632839 -0.458198,0 -0.523923,0.632839 z" />
      <path
         id="path4668"
         style="font-style:normal;font-variant:normal;font-weight:normal;font-stretch:normal;font-family:'Oxygen Mono';-inkscape-font-specification:'Oxygen Mono';stroke-width:0.09614651"
         d="m 35.927805,30.602505 h -0.565237 v -0.565237 h 0.565237 z" />
      <path
         id="path4670"
         style="font-style:normal;font-variant:normal;font-weight:normal;font-stretch:normal;font-family:'Oxygen Mono';-inkscape-font-specification:'Oxygen Mono';stroke-width:0.09614651"
         d="m 37.435725,29.560292 q 0,0.826259 0.578381,0.826259 0.520168,0 0.520168,-0.826259 0,-0.458199 -0.14084,-0.636596 -0.138962,-0.180274 -0.384962,-0.180274 -0.480732,0 -0.555847,0.555847 -0.0169,0.116427 -0.0169,0.261023 z m 0.591526,1.089159 q -0.199053,0 -0.353038,-0.09201 -0.153985,-0.09201 -0.234733,-0.236611 v 1.072259 l -0.341771,0.03756 v -2.888151 h 0.341771 v 0.283557 q 0.09014,-0.153985 0.240367,-0.249756 0.150228,-0.09577 0.339893,-0.09577 0.5089,0 0.722976,0.420641 0.135206,0.266656 0.135206,0.634717 0,0.587771 -0.283557,0.893862 -0.202809,0.21971 -0.567114,0.21971 z" />
      <path
         id="path4672"
         style="font-style:normal;font-variant:normal;font-weight:normal;font-stretch:normal;font-family:'Oxygen Mono';-inkscape-font-specification:'Oxygen Mono';stroke-width:0.09614651"
         d="m 40.314487,30.21191 0.54458,-1.669419 h 0.373695 q -0.57087,1.611205 -0.674153,1.877861 -0.103282,0.264779 -0.140839,0.36055 -0.03756,0.09577 -0.0845,0.197175 -0.04695,0.101405 -0.110794,0.18403 -0.06385,0.0845 -0.122061,0.123939 -0.05634,0.04131 -0.180275,0.07512 -0.122061,0.03568 -0.45632,0.03568 l -0.03944,-0.287313 q 0.249756,0 0.29858,-0.01127 0.0507,-0.01127 0.09577,-0.02629 0.04507,-0.01315 0.0676,-0.0338 0.02253,-0.01878 0.05634,-0.0507 0.08638,-0.0845 0.193419,-0.43003 -0.529556,-1.216854 -0.764289,-1.810258 l -0.08075,-0.204687 h 0.369939 z" />
      <path
         id="path4674"
         style="font-style:normal;font-variant:normal;font-weight:normal;font-stretch:normal;font-family:'Oxygen Mono';-inkscape-font-specification:'Oxygen Mono';stroke-width:0.09614651"
         d="m 42.505953,28.805391 v 0.967099 q 0,0.180275 0.01878,0.285435 0.02066,0.10516 0.07887,0.170885 0.06009,0.06573 0.153984,0.08826 0.09389,0.02253 0.255389,0.02253 h 0.377451 l -0.01878,0.262901 H 43.02612 q -0.531434,0 -0.707953,-0.195298 -0.11455,-0.127694 -0.14084,-0.411252 -0.01315,-0.125816 -0.01315,-0.309847 v -0.880717 h -0.582137 l 0.03756,-0.2629 h 0.54458 v -0.709832 l 0.341771,-0.101405 v 0.811237 h 0.867572 v 0.2629 z" />
      <path
         id="path4676"
         style="font-style:normal;font-variant:normal;font-weight:normal;font-stretch:normal;font-family:'Oxygen Mono';-inkscape-font-specification:'Oxygen Mono';stroke-width:0.09614651"
         d="m 45.677662,29.35936 v 1.243145 h -0.341771 v -1.199954 q 0,-0.386839 -0.103282,-0.522045 -0.103283,-0.137084 -0.311725,-0.137084 -0.210321,0 -0.366183,0.146473 -0.153985,0.144595 -0.153985,0.311725 v 1.400885 h -0.341771 v -2.901296 l 0.341771,-0.03756 v 1.128595 q 0.240366,-0.311725 0.644107,-0.311725 0.632839,0 0.632839,0.878839 z" />
      <path
         id="path4678"
         style="font-style:normal;font-variant:normal;font-weight:normal;font-stretch:normal;font-family:'Oxygen Mono';-inkscape-font-specification:'Oxygen Mono';stroke-width:0.09614651"
         d="m 47.172441,30.386551 q 0.358671,0 0.488244,-0.356794 0.06948,-0.191542 0.06948,-0.392473 0,-0.202809 -0.01502,-0.315481 -0.0338,-0.255389 -0.163374,-0.416885 -0.127695,-0.161496 -0.379328,-0.161496 -0.349282,0 -0.476977,0.364305 -0.0676,0.195298 -0.0676,0.409374 0,0.379328 0.118305,0.625328 0.118306,0.244122 0.426275,0.244122 z m 0.67603,-1.605572 q 0.223466,0.300458 0.223466,0.784946 0,0.484488 -0.242245,0.784946 -0.242244,0.29858 -0.657251,0.29858 -0.221588,0 -0.394351,-0.0845 -0.172763,-0.0845 -0.279801,-0.232854 -0.215955,-0.29858 -0.215955,-0.777435 0,-0.478855 0.238489,-0.775557 0.238488,-0.29858 0.670396,-0.29858 0.433786,0 0.657252,0.300458 z" />
      <path
         id="path4680"
         style="font-style:normal;font-variant:normal;font-weight:normal;font-stretch:normal;font-family:'Oxygen Mono';-inkscape-font-specification:'Oxygen Mono';stroke-width:0.09614651"
         d="m 49.668116,28.480521 q 0.640351,0 0.640351,0.811236 v 1.310748 H 49.966696 V 29.33307 q 0,-0.217832 -0.02253,-0.311725 -0.02253,-0.09389 -0.0676,-0.153984 -0.09577,-0.123939 -0.313603,-0.123939 -0.21971,0 -0.371817,0.127694 -0.152107,0.127695 -0.152107,0.338015 v 1.393374 h -0.34177 v -2.060014 h 0.313602 l 0.01878,0.223465 q 0.204687,-0.285435 0.638473,-0.285435 z" />
      <path
         id="path4682"
         style="font-style:normal;font-variant:normal;font-weight:normal;font-stretch:normal;font-family:'Oxygen Mono';-inkscape-font-specification:'Oxygen Mono';stroke-width:0.09614651"
         d="m 52.069902,30.602505 h -0.565236 v -0.565237 h 0.565236 z" />
      <path
         id="path4684"
         style="font-style:normal;font-variant:normal;font-weight:normal;font-stretch:normal;font-family:'Oxygen Mono';-inkscape-font-specification:'Oxygen Mono';stroke-width:0.09614651"
         d="m 54.822848,30.467299 q -0.197175,0.182152 -0.561481,0.182152 -0.232854,0 -0.424396,-0.08826 -0.191542,-0.09014 -0.313603,-0.240367 -0.257267,-0.31548 -0.257267,-0.760533 0,-0.287313 0.116427,-0.531435 0.118306,-0.244122 0.347405,-0.396229 0.229099,-0.152107 0.565236,-0.152107 0.336137,0 0.522045,0.178397 l -0.08638,0.229099 q -0.215954,-0.144595 -0.488244,-0.144595 -0.27229,0 -0.452565,0.232855 -0.178397,0.232854 -0.178397,0.593404 0,0.358671 0.178397,0.587771 0.180275,0.229099 0.458198,0.229099 0.279802,0 0.492,-0.150229 z" />
      <path
         id="path4686"
         style="font-style:normal;font-variant:normal;font-weight:normal;font-stretch:normal;font-family:'Oxygen Mono';-inkscape-font-specification:'Oxygen Mono';stroke-width:0.09614651"
         d="M 55.666005,28.542491 H 57.0406 v 0.259144 l -1.038458,1.537969 1.107939,0.0038 v 0.259145 h -1.481633 v -0.266657 l 1.019679,-1.530457 h -0.982122 z" />
      <path
         id="path4688"
         style="font-style:normal;font-variant:normal;font-weight:normal;font-stretch:normal;font-family:'Oxygen Mono';-inkscape-font-specification:'Oxygen Mono';stroke-width:0.09614651"
         d="m 59.21892,27.626094 h 0.369939 l -1.331404,3.397052 h -0.358671 z" />
      <path
         id="path4690"
         style="font-style:normal;font-variant:normal;font-weight:normal;font-stretch:normal;font-family:'Oxygen Mono';-inkscape-font-specification:'Oxygen Mono';stroke-width:0.09614651"
         d="m 61.81037,30.602505 h -0.27229 q -0.362427,0 -0.51829,-0.07512 -0.09014,-0.04319 -0.142717,-0.09953 -0.138962,-0.144596 -0.144595,-0.638473 v -1.862839 h -0.615939 v -0.262901 h 0.957709 v 2.108839 q 0,0.373694 0.0676,0.458198 0.06948,0.0845 0.172764,0.09765 0.103282,0.01127 0.21032,0.01127 h 0.302336 z" />
      <path
         id="path4692"
         style="font-style:normal;font-variant:normal;font-weight:normal;font-stretch:normal;font-family:'Oxygen Mono';-inkscape-font-specification:'Oxygen Mono';stroke-width:0.09614651"
         d="m 62.933332,30.506734 q -0.215954,-0.144596 -0.321114,-0.38684 -0.103282,-0.244122 -0.103282,-0.550213 0,-0.306092 0.09577,-0.548336 0.09765,-0.244122 0.28919,-0.392473 0.19342,-0.150229 0.424397,-0.150229 0.435664,0 0.638473,0.29858 0.202809,0.29858 0.202809,0.734244 v 0.11455 h -1.305114 q 0.01127,0.317358 0.157741,0.538946 0.148351,0.221588 0.443175,0.221588 0.197175,-0.01878 0.550213,-0.214077 l 0.112672,0.232855 q -0.244122,0.244122 -0.666641,0.244122 -0.302336,0 -0.51829,-0.142717 z m 0.899496,-1.130473 q -0.03756,-0.632839 -0.443175,-0.632839 -0.458198,0 -0.523924,0.632839 z" />
      <path
         id="path4694"
         style="font-style:normal;font-variant:normal;font-weight:normal;font-stretch:normal;font-family:'Oxygen Mono';-inkscape-font-specification:'Oxygen Mono';stroke-width:0.09614651"
         d="m 65.875942,29.432597 q 0.266657,0.06573 0.388718,0.208443 0.123939,0.142717 0.123939,0.413129 0,0.268534 -0.206565,0.431908 -0.204687,0.163374 -0.514534,0.163374 -0.221588,0 -0.43003,-0.05446 -0.208443,-0.05634 -0.30797,-0.13145 l 0.0845,-0.246 q 0.07887,0.04883 0.249756,0.09953 0.170885,0.04882 0.369938,0.04882 0.200932,0 0.319237,-0.08263 0.120183,-0.0845 0.120183,-0.223465 0,-0.138962 -0.06009,-0.217832 -0.05821,-0.08075 -0.227221,-0.122061 l -0.349282,-0.0845 q -0.302336,-0.07511 -0.401862,-0.217832 -0.09953,-0.144595 -0.09953,-0.358671 0,-0.214077 0.172763,-0.394351 0.174641,-0.180275 0.507023,-0.184031 h 0.02441 q 0.373694,0 0.636595,0.14084 l -0.07511,0.240366 Q 65.926645,28.7453 65.644966,28.7453 q -0.174642,0.0019 -0.287313,0.08826 -0.110794,0.0845 -0.110794,0.214076 0,0.129573 0.05634,0.195298 0.05634,0.06385 0.214076,0.101404 z" />
      <path
         id="path4696"
         style="font-style:normal;font-variant:normal;font-weight:normal;font-stretch:normal;font-family:'Oxygen Mono';-inkscape-font-specification:'Oxygen Mono';stroke-width:0.09614651"
         d="m 68.181954,29.432597 q 0.266656,0.06573 0.388717,0.208443 0.123939,0.142717 0.123939,0.413129 0,0.268534 -0.206565,0.431908 -0.204687,0.163374 -0.514534,0.163374 -0.221588,0 -0.43003,-0.05446 -0.208443,-0.05634 -0.30797,-0.13145 l 0.0845,-0.246 q 0.07887,0.04883 0.249756,0.09953 0.170885,0.04882 0.369939,0.04882 0.200931,0 0.319236,-0.08263 0.120183,-0.0845 0.120183,-0.223465 0,-0.138962 -0.06009,-0.217832 -0.05821,-0.08075 -0.227222,-0.122061 l -0.349282,-0.0845 q -0.302336,-0.07511 -0.401862,-0.217832 -0.09953,-0.144595 -0.09953,-0.358671 0,-0.214077 0.172763,-0.394351 0.174641,-0.180275 0.507023,-0.184031 h 0.02441 q 0.373695,0 0.636595,0.14084 l -0.07511,0.240366 Q 68.232656,28.7453 67.950977,28.7453 q -0.174641,0.0019 -0.287313,0.08826 -0.110794,0.0845 -0.110794,0.214076 0,0.129573 0.05634,0.195298 0.05634,0.06385 0.214076,0.101404 z" />
      <path
         id="path4698"
         style="font-style:normal;font-variant:normal;font-weight:normal;font-stretch:normal;font-family:'Oxygen Mono';-inkscape-font-specification:'Oxygen Mono';stroke-width:0.09614651"
         d="m 70.232576,30.386551 q 0.358671,0 0.488244,-0.356794 0.06948,-0.191542 0.06948,-0.392473 0,-0.202809 -0.01502,-0.315481 -0.0338,-0.255389 -0.163374,-0.416885 -0.127695,-0.161496 -0.379328,-0.161496 -0.349283,0 -0.476977,0.364305 -0.0676,0.195298 -0.0676,0.409374 0,0.379328 0.118305,0.625328 0.118305,0.244122 0.426275,0.244122 z m 0.67603,-1.605572 q 0.223465,0.300458 0.223465,0.784946 0,0.484488 -0.242244,0.784946 -0.242244,0.29858 -0.657251,0.29858 -0.221588,0 -0.394351,-0.0845 -0.172763,-0.0845 -0.279802,-0.232854 -0.215954,-0.29858 -0.215954,-0.777435 0,-0.478855 0.238489,-0.775557 0.238488,-0.29858 0.670396,-0.29858 0.433786,0 0.657252,0.300458 z" />
      <path
         id="path4700"
         style="font-style:normal;font-variant:normal;font-weight:normal;font-stretch:normal;font-family:'Oxygen Mono';-inkscape-font-specification:'Oxygen Mono';stroke-width:0.09614651"
         d="m 72.728255,28.480521 q 0.640351,0 0.640351,0.811236 v 1.310748 H 73.026835 V 29.33307 q 0,-0.217832 -0.02254,-0.311725 -0.02253,-0.09389 -0.0676,-0.153984 -0.09577,-0.123939 -0.313603,-0.123939 -0.219709,0 -0.371816,0.127694 -0.152107,0.127695 -0.152107,0.338015 v 1.393374 H 71.7574 v -2.060014 h 0.313603 l 0.01878,0.223465 q 0.204687,-0.285435 0.638473,-0.285435 z" />
      <path
         id="path4702"
         style="font-style:normal;font-variant:normal;font-weight:normal;font-stretch:normal;font-family:'Oxygen Mono';-inkscape-font-specification:'Oxygen Mono';stroke-width:0.09614651"
         d="m 75.099995,29.432597 q 0.266656,0.06573 0.388717,0.208443 0.123939,0.142717 0.123939,0.413129 0,0.268534 -0.206565,0.431908 -0.204687,0.163374 -0.514534,0.163374 -0.221587,0 -0.43003,-0.05446 -0.208443,-0.05634 -0.307969,-0.13145 l 0.0845,-0.246 q 0.07887,0.04883 0.249756,0.09953 0.170885,0.04882 0.369939,0.04882 0.200931,0 0.319236,-0.08263 0.120183,-0.0845 0.120183,-0.223465 0,-0.138962 -0.06009,-0.217832 -0.05821,-0.08075 -0.227221,-0.122061 l -0.349283,-0.0845 q -0.302335,-0.07511 -0.401862,-0.217832 -0.09953,-0.144595 -0.09953,-0.358671 0,-0.214077 0.172764,-0.394351 0.174641,-0.180275 0.507022,-0.184031 h 0.02441 q 0.373695,0 0.636595,0.14084 l -0.07511,0.240366 Q 75.150697,28.7453 74.869018,28.7453 q -0.174641,0.0019 -0.287313,0.08826 -0.110794,0.0845 -0.110794,0.214076 0,0.129573 0.05634,0.195298 0.05634,0.06385 0.214076,0.101404 z" />
      <path
         id="path4704"
         style="font-style:normal;font-variant:normal;font-weight:normal;font-stretch:normal;font-family:'Oxygen Mono';-inkscape-font-specification:'Oxygen Mono';stroke-width:0.09614651"
         d="m 77.667033,27.626094 h 0.369938 l -1.331403,3.397052 h -0.358672 z" />
      <path
         id="path4706"
         style="font-style:normal;font-variant:normal;font-weight:normal;font-stretch:normal;font-family:'Oxygen Mono';-inkscape-font-specification:'Oxygen Mono';stroke-width:0.09614651"
         d="M 79.574941,30.602505 H 79.23317 v -1.797114 h -0.538946 v -0.2629 h 0.538946 q 0,-0.379328 0.03005,-0.478855 0.06009,-0.197176 0.153985,-0.279801 0.182152,-0.157741 0.662885,-0.157741 h 0.199053 l -0.01878,0.262901 h -0.187787 q -0.144595,0 -0.229099,0.01314 -0.0845,0.01315 -0.150229,0.05634 -0.118305,0.07511 -0.118305,0.334259 v 0.249756 h 0.704198 v 0.2629 h -0.704198 z" />
      <path
         id="path4708"
         style="font-style:normal;font-variant:normal;font-weight:normal;font-stretch:normal;font-family:'Oxygen Mono';-inkscape-font-specification:'Oxygen Mono';stroke-width:0.09614651"
         d="m 82.207704,30.142429 v -0.525802 l -0.279801,0.03944 q -0.292947,0.04131 -0.405618,0.08263 -0.251634,0.09577 -0.251634,0.321115 0,0.155862 0.09014,0.247877 0.09014,0.09202 0.247878,0.09202 0.347405,0 0.599038,-0.257267 z m 0,-0.959588 q 0,-0.441297 -0.373694,-0.441297 -0.176519,0 -0.390596,0.04131 -0.212198,0.04131 -0.29858,0.07887 l -0.08075,-0.251633 q 0.388718,-0.129573 0.730488,-0.129573 0.341771,0 0.548336,0.155863 0.206565,0.155862 0.206565,0.480732 v 1.485389 h -0.283557 l -0.04507,-0.238489 q -0.120183,0.122061 -0.309847,0.204687 -0.187786,0.08075 -0.368061,0.08075 -0.261023,0 -0.433786,-0.155862 -0.172763,-0.157741 -0.172763,-0.443176 0,-0.287312 0.225343,-0.420641 0.152107,-0.09389 0.322992,-0.127694 0.172764,-0.03568 0.448809,-0.06948 l 0.274168,-0.03192 z" />
      <path
         id="path4710"
         style="font-style:normal;font-variant:normal;font-weight:normal;font-stretch:normal;font-family:'Oxygen Mono';-inkscape-font-specification:'Oxygen Mono';stroke-width:0.09614651"
         d="m 84.324055,29.432597 q 0.266656,0.06573 0.388717,0.208443 0.123939,0.142717 0.123939,0.413129 0,0.268534 -0.206565,0.431908 -0.204687,0.163374 -0.514534,0.163374 -0.221587,0 -0.43003,-0.05446 -0.208443,-0.05634 -0.307969,-0.13145 l 0.0845,-0.246 q 0.07887,0.04883 0.249755,0.09953 0.170886,0.04882 0.369939,0.04882 0.200931,0 0.319236,-0.08263 0.120183,-0.0845 0.120183,-0.223465 0,-0.138962 -0.06009,-0.217832 -0.05821,-0.08075 -0.227221,-0.122061 l -0.349283,-0.0845 q -0.302335,-0.07511 -0.401862,-0.217832 -0.09953,-0.144595 -0.09953,-0.358671 0,-0.214077 0.172764,-0.394351 0.174641,-0.180275 0.507022,-0.184031 h 0.02441 q 0.373695,0 0.636595,0.14084 l -0.07511,0.240366 Q 84.374757,28.7453 84.093078,28.7453 q -0.174641,0.0019 -0.287313,0.08826 -0.110794,0.0845 -0.110794,0.214076 0,0.129573 0.05634,0.195298 0.05634,0.06385 0.214076,0.101404 z" />
      <path
         id="path4712"
         style="font-style:normal;font-variant:normal;font-weight:normal;font-stretch:normal;font-family:'Oxygen Mono';-inkscape-font-specification:'Oxygen Mono';stroke-width:0.09614651"
         d="m 86.320223,28.805391 v 0.967099 q 0,0.180275 0.01878,0.285435 0.02066,0.10516 0.07887,0.170885 0.06009,0.06573 0.153984,0.08826 0.09389,0.02253 0.255389,0.02253 h 0.377451 l -0.01878,0.262901 H 86.84039 q -0.531434,0 -0.707953,-0.195298 -0.11455,-0.127694 -0.14084,-0.411252 -0.01314,-0.125816 -0.01314,-0.309847 v -0.880717 h -0.582137 l 0.03756,-0.2629 h 0.54458 v -0.709832 l 0.341771,-0.101405 v 0.811237 h 0.867572 v 0.2629 z" />
      <path
         id="path4714"
         style="font-style:normal;font-variant:normal;font-weight:normal;font-stretch:normal;font-family:'Oxygen Mono';-inkscape-font-specification:'Oxygen Mono';stroke-width:0.09614651"
         d="m 89.396161,29.049513 v 0.291069 h -1.258167 v -0.291069 z" />
      <path
         id="path4716"
         style="font-style:normal;font-variant:normal;font-weight:normal;font-stretch:normal;font-family:'Oxygen Mono';-inkscape-font-specification:'Oxygen Mono';stroke-width:0.09614651"
         d="m 90.932245,28.805391 v 0.967099 q 0,0.180275 0.01878,0.285435 0.02066,0.10516 0.07887,0.170885 0.06009,0.06573 0.153985,0.08826 0.09389,0.02253 0.255389,0.02253 h 0.37745 l -0.01878,0.262901 h -0.345526 q -0.531435,0 -0.707954,-0.195298 -0.114549,-0.127694 -0.14084,-0.411252 -0.01314,-0.125816 -0.01314,-0.309847 v -0.880717 h -0.582137 l 0.03756,-0.2629 h 0.544579 v -0.709832 l 0.341771,-0.101405 v 0.811237 h 0.867572 v 0.2629 z" />
      <path
         id="path4718"
         style="font-style:normal;font-variant:normal;font-weight:normal;font-stretch:normal;font-family:'Oxygen Mono';-inkscape-font-specification:'Oxygen Mono';stroke-width:0.09614651"
         d="m 93.163146,30.602505 h -0.341771 v -2.060014 h 0.279801 l 0.02817,0.381205 q 0.125817,-0.217831 0.330504,-0.330503 0.204687,-0.112672 0.463832,-0.112672 h 0.165252 v 0.317359 h -0.214077 q -0.328625,0 -0.520167,0.165252 -0.191542,0.163374 -0.191542,0.493877 z" />
      <path
         id="path4720"
         style="font-style:normal;font-variant:normal;font-weight:normal;font-stretch:normal;font-family:'Oxygen Mono';-inkscape-font-specification:'Oxygen Mono';stroke-width:0.09614651"
         d="m 96.043786,30.142429 v -0.525802 l -0.279801,0.03944 q -0.292946,0.04131 -0.405618,0.08263 -0.251633,0.09577 -0.251633,0.321115 0,0.155862 0.09014,0.247877 0.09014,0.09202 0.247878,0.09202 0.347404,0 0.599037,-0.257267 z m 0,-0.959588 q 0,-0.441297 -0.373694,-0.441297 -0.176519,0 -0.390595,0.04131 -0.212199,0.04131 -0.29858,0.07887 l -0.08075,-0.251633 q 0.388717,-0.129573 0.730488,-0.129573 0.341771,0 0.548335,0.155863 0.206565,0.155862 0.206565,0.480732 v 1.485389 H 96.102 l -0.04507,-0.238489 q -0.120183,0.122061 -0.309847,0.204687 -0.187786,0.08075 -0.368061,0.08075 -0.261022,0 -0.433786,-0.155862 -0.172763,-0.157741 -0.172763,-0.443176 0,-0.287312 0.225344,-0.420641 0.152106,-0.09389 0.322992,-0.127694 0.172763,-0.03568 0.448809,-0.06948 l 0.274167,-0.03192 z" />
      <path
         id="path4722"
         style="font-style:normal;font-variant:normal;font-weight:normal;font-stretch:normal;font-family:'Oxygen Mono';-inkscape-font-specification:'Oxygen Mono';stroke-width:0.09614651"
         d="m 98.637114,30.467299 q -0.197175,0.182152 -0.56148,0.182152 -0.232855,0 -0.424397,-0.08826 -0.191542,-0.09014 -0.313603,-0.240367 -0.257267,-0.31548 -0.257267,-0.760533 0,-0.287313 0.116427,-0.531435 0.118306,-0.244122 0.347405,-0.396229 0.229099,-0.152107 0.565236,-0.152107 0.336137,0 0.522046,0.178397 l -0.08638,0.229099 q -0.215954,-0.144595 -0.488244,-0.144595 -0.27229,0 -0.452565,0.232855 -0.178396,0.232854 -0.178396,0.593404 0,0.358671 0.178396,0.587771 0.180275,0.229099 0.458199,0.229099 0.279801,0 0.491999,-0.150229 z" />
      <path
         id="path4724"
         style="font-style:normal;font-variant:normal;font-weight:normal;font-stretch:normal;font-family:'Oxygen Mono';-inkscape-font-specification:'Oxygen Mono';stroke-width:0.09614651"
         d="m 99.797634,29.378139 0.912636,-0.835648 h 0.43191 l -0.91827,0.854427 1.04409,1.205587 h -0.42815 l -0.858186,-1.047847 -0.18403,0.161496 v 0.886351 h -0.341771 v -2.901296 l 0.341771,-0.03756 z" />
      <path
         id="path4726"
         style="font-style:normal;font-variant:normal;font-weight:normal;font-stretch:normal;font-family:'Oxygen Mono';-inkscape-font-specification:'Oxygen Mono';stroke-width:0.09614651"
         d="m 103.03319,27.626094 h 0.36994 l -1.3314,3.397052 h -0.35868 z" />
      <path
         id="path4728"
         style="font-style:normal;font-variant:normal;font-weight:normal;font-stretch:normal;font-family:'Oxygen Mono';-inkscape-font-specification:'Oxygen Mono';stroke-width:0.09614651"
         d="m 105.63403,29.35936 v 1.243145 h -0.34177 v -1.199954 q 0,-0.386839 -0.10328,-0.522045 -0.10329,-0.137084 -0.31173,-0.137084 -0.21032,0 -0.36618,0.146473 -0.15399,0.144595 -0.15399,0.311725 v 1.400885 h -0.34177 v -2.901296 l 0.34177,-0.03756 v 1.128595 q 0.24037,-0.311725 0.64411,-0.311725 0.63284,0 0.63284,0.878839 z" />
      <path
         id="path4730"
         style="font-style:normal;font-variant:normal;font-weight:normal;font-stretch:normal;font-family:'Oxygen Mono';-inkscape-font-specification:'Oxygen Mono';stroke-width:0.09614651"
         d="m 107.07434,28.805391 v 0.967099 q 0,0.180275 0.0188,0.285435 0.0207,0.10516 0.0789,0.170885 0.0601,0.06573 0.15399,0.08826 0.0939,0.02253 0.25539,0.02253 h 0.37745 l -0.0188,0.262901 h -0.34553 q -0.53143,0 -0.70795,-0.195298 -0.11455,-0.127694 -0.14084,-0.411252 -0.0132,-0.125816 -0.0132,-0.309847 v -0.880717 h -0.58214 l 0.0376,-0.2629 h 0.54458 v -0.709832 l 0.34177,-0.101405 v 0.811237 h 0.86757 v 0.2629 z" />
      <path
         id="path4732"
         style="font-style:normal;font-variant:normal;font-weight:normal;font-stretch:normal;font-family:'Oxygen Mono';-inkscape-font-specification:'Oxygen Mono';stroke-width:0.09614651"
         d="m 109.38036,28.805391 v 0.967099 q 0,0.180275 0.0188,0.285435 0.0207,0.10516 0.0789,0.170885 0.0601,0.06573 0.15398,0.08826 0.0939,0.02253 0.25539,0.02253 h 0.37745 l -0.0188,0.262901 h -0.34552 q -0.53144,0 -0.70796,-0.195298 -0.11455,-0.127694 -0.14084,-0.411252 -0.0131,-0.125816 -0.0131,-0.309847 v -0.880717 h -0.58214 l 0.0376,-0.2629 h 0.54458 v -0.709832 l 0.34177,-0.101405 v 0.811237 h 0.86757 v 0.2629 z" />
      <path
         id="path4734"
         style="font-style:normal;font-variant:normal;font-weight:normal;font-stretch:normal;font-family:'Oxygen Mono';-inkscape-font-specification:'Oxygen Mono';stroke-width:0.09614651"
         d="m 111.22817,29.560292 q 0,0.826259 0.57839,0.826259 0.52016,0 0.52016,-0.826259 0,-0.458199 -0.14084,-0.636596 -0.13896,-0.180274 -0.38496,-0.180274 -0.48073,0 -0.55584,0.555847 -0.0169,0.116427 -0.0169,0.261023 z m 0.59153,1.089159 q -0.19905,0 -0.35304,-0.09201 -0.15398,-0.09201 -0.23473,-0.236611 v 1.072259 l -0.34177,0.03756 v -2.888151 h 0.34177 v 0.283557 q 0.0901,-0.153985 0.24037,-0.249756 0.15023,-0.09577 0.33989,-0.09577 0.5089,0 0.72298,0.420641 0.1352,0.266656 0.1352,0.634717 0,0.587771 -0.28355,0.893862 -0.20281,0.21971 -0.56712,0.21971 z" />
      <path
         id="path4736"
         style="font-style:normal;font-variant:normal;font-weight:normal;font-stretch:normal;font-family:'Oxygen Mono';-inkscape-font-specification:'Oxygen Mono';stroke-width:0.09614651"
         d="m 114.56326,27.626094 h 0.36994 l -1.33141,3.397052 h -0.35867 z" />
    </g>
    <g
       id="text16"
       style="font-style:normal;font-variant:normal;font-weight:normal;font-stretch:normal;font-size:3.84586048px;line-height:1.25;font-family:Oxygen;-inkscape-font-specification:Oxygen;letter-spacing:0px;word-spacing:0px;fill:#000000;fill-opacity:1;stroke:none;stroke-width:0.09614651"
       aria-label="protokol">
      <path
         id="path4625"
         style="font-style:normal;font-variant:normal;font-weight:normal;font-stretch:normal;font-family:Oxygen;-inkscape-font-specification:Oxygen;stroke-width:0.09614651"
         d="m 4.9528599,37.423937 v -2.953876 h 0.2760456 l 0.030046,0.279801 q 0.2704121,-0.322992 0.6497401,-0.322992 0.2816793,0 0.4769769,0.14084 0.1952976,0.140839 0.2873128,0.381206 0.093893,0.240366 0.093893,0.56148 0,0.30797 -0.1014046,0.548336 -0.1014045,0.238488 -0.2985799,0.37745 -0.1952976,0.137084 -0.4581983,0.137084 -0.1990533,0 -0.3736944,-0.08826 -0.1746411,-0.09014 -0.2798014,-0.23661 0.011267,0.202809 0.011267,0.394351 v 0.760534 z m 0.9126407,-1.11545 q 0.1427175,0 0.2553892,-0.06385 0.1126717,-0.06572 0.1821526,-0.178397 0.069481,-0.112671 0.1051602,-0.255389 0.035679,-0.144595 0.035679,-0.311725 0,-0.353038 -0.1483511,-0.578381 -0.148351,-0.227222 -0.433786,-0.227222 -0.59716,0 -0.59716,0.771802 0,0.418763 0.1389618,0.630961 0.1408396,0.212198 0.4619539,0.212198 z" />
      <path
         id="path4627"
         style="font-style:normal;font-variant:normal;font-weight:normal;font-stretch:normal;font-family:Oxygen;-inkscape-font-specification:Oxygen;stroke-width:0.09614651"
         d="m 8.1302017,34.451282 q 0.084504,0 0.1539847,0.01127 l -0.011267,0.289191 q -0.086382,-0.01502 -0.1502289,-0.01502 -0.2629006,0 -0.4281525,0.184031 -0.1633739,0.182152 -0.1633739,0.452564 v 1.156763 H 7.217561 q -0.00188,-1.89664 -0.00188,-2.060014 H 7.4767059 L 7.5067517,34.84 q 0.1070381,-0.174641 0.2722899,-0.28168 0.1652518,-0.107038 0.3511601,-0.107038 z" />
      <path
         id="path4629"
         style="font-style:normal;font-variant:normal;font-weight:normal;font-stretch:normal;font-family:Oxygen;-inkscape-font-specification:Oxygen;stroke-width:0.09614651"
         d="m 8.8024763,35.504763 q 0,0.366183 0.1614961,0.58777 0.1633739,0.21971 0.4750989,0.21971 0.3079693,0 0.4638318,-0.21971 0.1577409,-0.219709 0.1577409,-0.591526 0,-0.37745 -0.155863,-0.593404 -0.1539846,-0.217832 -0.4713433,-0.217832 -0.3079692,0 -0.4694653,0.221587 -0.1614961,0.221588 -0.1614961,0.593405 z m 1.5830377,-0.0056 q 0,0.478855 -0.25539,0.777435 -0.2553888,0.296702 -0.7060756,0.296702 -0.433786,0 -0.691053,-0.300458 -0.2553892,-0.300458 -0.2553892,-0.771801 0,-0.480733 0.257267,-0.777435 0.2572671,-0.296702 0.706076,-0.296702 0.4412975,0 0.6929308,0.29858 0.251634,0.296702 0.251634,0.773679 z" />
      <path
         id="path4631"
         style="font-style:normal;font-variant:normal;font-weight:normal;font-stretch:normal;font-family:Oxygen;-inkscape-font-specification:Oxygen;stroke-width:0.09614651"
         d="m 11.484062,36.567632 q -0.304213,0 -0.431908,-0.148351 -0.127694,-0.148351 -0.135206,-0.478854 v -1.237511 h -0.306091 l 0.01315,-0.206565 0.291068,-0.02629 0.107038,-0.471343 0.206565,-0.0075 v 0.478855 h 0.572748 v 0.232855 h -0.572748 v 1.181175 q 0,0.234732 0.07136,0.330503 0.07136,0.09577 0.244122,0.09577 0.06197,0 0.268534,-0.03005 l 0.01314,0.247878 q -0.223465,0.03944 -0.341771,0.03944 z" />
      <path
         id="path4633"
         style="font-style:normal;font-variant:normal;font-weight:normal;font-stretch:normal;font-family:Oxygen;-inkscape-font-specification:Oxygen;stroke-width:0.09614651"
         d="m 12.370413,35.504763 q 0,0.366183 0.161496,0.58777 0.163374,0.21971 0.475099,0.21971 0.30797,0 0.463832,-0.21971 0.15774,-0.219709 0.15774,-0.591526 0,-0.37745 -0.155862,-0.593404 -0.153985,-0.217832 -0.471343,-0.217832 -0.30797,0 -0.469466,0.221587 -0.161496,0.221588 -0.161496,0.593405 z m 1.583037,-0.0056 q 0,0.478855 -0.255389,0.777435 -0.255389,0.296702 -0.706076,0.296702 -0.433786,0 -0.691053,-0.300458 -0.255389,-0.300458 -0.255389,-0.771801 0,-0.480733 0.257267,-0.777435 0.257267,-0.296702 0.706076,-0.296702 0.441298,0 0.692931,0.29858 0.251633,0.296702 0.251633,0.773679 z" />
      <path
         id="path4635"
         style="font-style:normal;font-variant:normal;font-weight:normal;font-stretch:normal;font-family:Oxygen;-inkscape-font-specification:Oxygen;stroke-width:0.09614651"
         d="m 14.398503,36.530075 v -2.859983 l 0.311725,-0.01878 v 1.496656 0.262901 q 0.01127,-0.01127 0.0338,-0.03756 0.02253,-0.02629 0.03568,-0.03943 0.163374,-0.178397 0.845038,-0.863816 h 0.398107 l -0.856305,0.867572 0.916396,1.192442 H 15.69235 l -0.753022,-1.014045 -0.2291,0.197175 v 0.81687 z" />
      <path
         id="path4637"
         style="font-style:normal;font-variant:normal;font-weight:normal;font-stretch:normal;font-family:Oxygen;-inkscape-font-specification:Oxygen;stroke-width:0.09614651"
         d="m 16.539265,35.504763 q 0,0.366183 0.161497,0.58777 0.163374,0.21971 0.475099,0.21971 0.307969,0 0.463831,-0.21971 0.157741,-0.219709 0.157741,-0.591526 0,-0.37745 -0.155863,-0.593404 -0.153984,-0.217832 -0.471343,-0.217832 -0.307969,0 -0.469465,0.221587 -0.161497,0.221588 -0.161497,0.593405 z m 1.583038,-0.0056 q 0,0.478855 -0.255389,0.777435 -0.25539,0.296702 -0.706076,0.296702 -0.433786,0 -0.691053,-0.300458 -0.25539,-0.300458 -0.25539,-0.771801 0,-0.480733 0.257267,-0.777435 0.257268,-0.296702 0.706076,-0.296702 0.441298,0 0.692931,0.29858 0.251634,0.296702 0.251634,0.773679 z" />
      <path
         id="path4639"
         style="font-style:normal;font-variant:normal;font-weight:normal;font-stretch:normal;font-family:Oxygen;-inkscape-font-specification:Oxygen;stroke-width:0.09614651"
         d="m 19.11757,36.567632 q -0.300458,0 -0.426275,-0.161496 -0.123939,-0.161496 -0.123939,-0.56148 v -2.174564 l 0.311725,-0.01878 v 2.069404 q 0,0.127694 0.0019,0.204687 0.0038,0.07699 0.01502,0.152106 0.01127,0.07324 0.03005,0.110794 0.01878,0.03756 0.05446,0.06948 0.03568,0.03005 0.0845,0.04131 0.0507,0.0094 0.123938,0.0094 0.06009,0 0.236611,-0.02253 l 0.0169,0.249756 q -0.19342,0.03192 -0.32487,0.03192 z" />
    </g>
    <g
       id="text20"
       style="font-style:normal;font-variant:normal;font-weight:normal;font-stretch:normal;font-size:3.84586048px;line-height:1.25;font-family:Oxygen;-inkscape-font-specification:Oxygen;letter-spacing:0px;word-spacing:0px;fill:#000000;fill-opacity:1;stroke:none;stroke-width:0.09614651"
       aria-label="server">
      <path
         id="path4612"
         style="font-style:normal;font-variant:normal;font-weight:normal;font-stretch:normal;font-family:Oxygen;-inkscape-font-specification:Oxygen;stroke-width:0.09614651"
         d="m 34.408768,36.573266 q -0.210321,0 -0.388718,-0.04507 -0.176519,-0.04507 -0.287313,-0.116427 l 0.03944,-0.264779 q 0.313602,0.16713 0.615938,0.16713 0.458198,0 0.471343,-0.322992 0,-0.137084 -0.09765,-0.215954 -0.09765,-0.07887 -0.383084,-0.176519 l -0.155863,-0.05446 q -0.270412,-0.09014 -0.386839,-0.223466 -0.11455,-0.133328 -0.116428,-0.332381 0,-0.242244 0.19342,-0.401863 0.195298,-0.159618 0.533313,-0.159618 0.349282,0 0.636595,0.135206 l -0.09202,0.240366 q -0.291069,-0.120183 -0.54458,-0.120183 -0.197176,0 -0.309847,0.07887 -0.110794,0.07699 -0.110794,0.217832 0,0.120184 0.08075,0.184031 0.08075,0.06385 0.322992,0.146473 0.06197,0.02253 0.155863,0.05258 0.311725,0.101405 0.441297,0.240366 0.129572,0.137084 0.129572,0.371817 -0.0038,0.285435 -0.204686,0.443175 -0.200932,0.155863 -0.542702,0.155863 z" />
      <path
         id="path4614"
         style="font-style:normal;font-variant:normal;font-weight:normal;font-stretch:normal;font-family:Oxygen;-inkscape-font-specification:Oxygen;stroke-width:0.09614651"
         d="m 36.76924,34.851267 q -0.137084,-0.165252 -0.377451,-0.165252 -0.240366,0 -0.392473,0.170885 -0.152106,0.169008 -0.178396,0.463832 h 1.087281 q 0,-0.306091 -0.138961,-0.469465 z m -0.315481,1.721999 q -0.448809,0 -0.707954,-0.285435 -0.257267,-0.285435 -0.257267,-0.78119 0,-0.478855 0.249756,-0.775557 0.249755,-0.29858 0.657251,-0.304214 0.383084,0 0.606549,0.262901 0.225344,0.261022 0.225344,0.698564 0,0.02254 -0.0019,0.08263 0,0.06009 0,0.08638 h -1.41403 q 0.0056,0.35116 0.180275,0.548335 0.176519,0.195298 0.473221,0.195298 0.326748,0 0.655374,-0.172763 l 0.04882,0.253511 q -0.313603,0.191542 -0.715465,0.191542 z" />
      <path
         id="path4616"
         style="font-style:normal;font-variant:normal;font-weight:normal;font-stretch:normal;font-family:Oxygen;-inkscape-font-specification:Oxygen;stroke-width:0.09614651"
         d="m 38.58701,34.451282 q 0.0845,0 0.153984,0.01127 l -0.01127,0.289191 q -0.08638,-0.01502 -0.150229,-0.01502 -0.2629,0 -0.428152,0.184031 -0.163374,0.182152 -0.163374,0.452564 v 1.156763 h -0.313603 q -0.0019,-1.89664 -0.0019,-2.060014 h 0.261023 L 37.96356,34.84 q 0.107038,-0.174641 0.272289,-0.28168 0.165252,-0.107038 0.351161,-0.107038 z" />
      <path
         id="path4618"
         style="font-style:normal;font-variant:normal;font-weight:normal;font-stretch:normal;font-family:Oxygen;-inkscape-font-specification:Oxygen;stroke-width:0.09614651"
         d="M 39.595421,36.530075 38.79733,34.470061 h 0.336137 l 0.454443,1.224366 q 0,0 0.187786,0.522045 0.06385,-0.200931 0.176519,-0.51829 0.142717,-0.399984 0.443175,-1.228121 h 0.334259 l -0.792457,2.060014 z" />
      <path
         id="path4620"
         style="font-style:normal;font-variant:normal;font-weight:normal;font-stretch:normal;font-family:Oxygen;-inkscape-font-specification:Oxygen;stroke-width:0.09614651"
         d="m 42.16997,34.851267 q -0.137084,-0.165252 -0.377451,-0.165252 -0.240366,0 -0.392473,0.170885 -0.152107,0.169008 -0.178397,0.463832 h 1.087282 q 0,-0.306091 -0.138961,-0.469465 z m -0.315481,1.721999 q -0.448809,0 -0.707954,-0.285435 -0.257267,-0.285435 -0.257267,-0.78119 0,-0.478855 0.249756,-0.775557 0.249755,-0.29858 0.657251,-0.304214 0.383084,0 0.606549,0.262901 0.225344,0.261022 0.225344,0.698564 0,0.02254 -0.0019,0.08263 0,0.06009 0,0.08638 h -1.41403 q 0.0056,0.35116 0.180275,0.548335 0.176519,0.195298 0.473221,0.195298 0.326748,0 0.655374,-0.172763 l 0.04882,0.253511 q -0.313603,0.191542 -0.715465,0.191542 z" />
      <path
         id="path4622"
         style="font-style:normal;font-variant:normal;font-weight:normal;font-stretch:normal;font-family:Oxygen;-inkscape-font-specification:Oxygen;stroke-width:0.09614651"
         d="m 43.98774,34.451282 q 0.0845,0 0.153984,0.01127 l -0.01127,0.289191 q -0.08638,-0.01502 -0.150229,-0.01502 -0.2629,0 -0.428152,0.184031 -0.163374,0.182152 -0.163374,0.452564 v 1.156763 h -0.313603 q -0.0019,-1.89664 -0.0019,-2.060014 h 0.261023 L 43.36429,34.84 q 0.107038,-0.174641 0.27229,-0.28168 0.165251,-0.107038 0.35116,-0.107038 z" />
    </g>
    <g
       id="text24"
       style="font-style:normal;font-variant:normal;font-weight:normal;font-stretch:normal;font-size:3.84586048px;line-height:1.25;font-family:Oxygen;-inkscape-font-specification:Oxygen;letter-spacing:0px;word-spacing:0px;fill:#000000;fill-opacity:1;stroke:none;stroke-width:0.09614651"
       aria-label="cesta">
      <path
         id="path4601"
         style="font-style:normal;font-variant:normal;font-weight:normal;font-stretch:normal;font-family:Oxygen;-inkscape-font-specification:Oxygen;stroke-width:0.09614651"
         d="m 83.098747,36.573266 q -0.454442,0 -0.711709,-0.294824 -0.25539,-0.294825 -0.25539,-0.771801 0.0019,-0.480733 0.261023,-0.779313 0.261023,-0.300458 0.713588,-0.300458 0.159618,0 0.307969,0.03943 0.150229,0.03944 0.23661,0.103283 l -0.08638,0.244122 q -0.21971,-0.118306 -0.463832,-0.118306 -0.29858,0 -0.473221,0.217832 -0.172763,0.217832 -0.172763,0.595282 0,0.368061 0.170885,0.584015 0.172763,0.214077 0.476977,0.214077 0.242244,0 0.495755,-0.131451 l 0.03943,0.249756 q -0.204686,0.148351 -0.538946,0.148351 z" />
      <path
         id="path4603"
         style="font-style:normal;font-variant:normal;font-weight:normal;font-stretch:normal;font-family:Oxygen;-inkscape-font-specification:Oxygen;stroke-width:0.09614651"
         d="m 85.231998,34.851267 q -0.137084,-0.165252 -0.37745,-0.165252 -0.240367,0 -0.392473,0.170885 -0.152107,0.169008 -0.178397,0.463832 h 1.087282 q 0,-0.306091 -0.138962,-0.469465 z m -0.315481,1.721999 q -0.448809,0 -0.707954,-0.285435 -0.257267,-0.285435 -0.257267,-0.78119 0,-0.478855 0.249756,-0.775557 0.249755,-0.29858 0.657251,-0.304214 0.383084,0 0.60655,0.262901 0.225343,0.261022 0.225343,0.698564 0,0.02254 -0.0019,0.08263 0,0.06009 0,0.08638 h -1.414029 q 0.0056,0.35116 0.180274,0.548335 0.176519,0.195298 0.473221,0.195298 0.326748,0 0.655374,-0.172763 l 0.04882,0.253511 q -0.313602,0.191542 -0.715465,0.191542 z" />
      <path
         id="path4605"
         style="font-style:normal;font-variant:normal;font-weight:normal;font-stretch:normal;font-family:Oxygen;-inkscape-font-specification:Oxygen;stroke-width:0.09614651"
         d="m 86.739921,36.573266 q -0.210321,0 -0.388718,-0.04507 -0.176519,-0.04507 -0.287312,-0.116427 l 0.03943,-0.264779 q 0.313603,0.16713 0.615938,0.16713 0.458198,0 0.471344,-0.322992 0,-0.137084 -0.09765,-0.215954 -0.09765,-0.07887 -0.383084,-0.176519 l -0.155863,-0.05446 q -0.270412,-0.09014 -0.386839,-0.223466 -0.11455,-0.133328 -0.116427,-0.332381 0,-0.242244 0.193419,-0.401863 0.195298,-0.159618 0.533313,-0.159618 0.349282,0 0.636595,0.135206 l -0.09202,0.240366 q -0.291069,-0.120183 -0.54458,-0.120183 -0.197176,0 -0.309847,0.07887 -0.110794,0.07699 -0.110794,0.217832 0,0.120184 0.08075,0.184031 0.08075,0.06385 0.322992,0.146473 0.06197,0.02253 0.155863,0.05258 0.311725,0.101405 0.441297,0.240366 0.129573,0.137084 0.129573,0.371817 -0.0038,0.285435 -0.204687,0.443175 -0.200931,0.155863 -0.542702,0.155863 z" />
      <path
         id="path4607"
         style="font-style:normal;font-variant:normal;font-weight:normal;font-stretch:normal;font-family:Oxygen;-inkscape-font-specification:Oxygen;stroke-width:0.09614651"
         d="m 88.570836,36.567632 q -0.304214,0 -0.431908,-0.148351 -0.127695,-0.148351 -0.135206,-0.478854 V 34.702916 H 87.69763 l 0.01314,-0.206565 0.291069,-0.02629 0.107038,-0.471343 0.206565,-0.0075 v 0.478855 h 0.572747 v 0.232855 h -0.572747 v 1.181175 q 0,0.234732 0.07136,0.330503 0.07136,0.09577 0.244122,0.09577 0.06197,0 0.268535,-0.03005 l 0.01314,0.247878 q -0.223466,0.03944 -0.341771,0.03944 z" />
      <path
         id="path4609"
         style="font-style:normal;font-variant:normal;font-weight:normal;font-stretch:normal;font-family:Oxygen;-inkscape-font-specification:Oxygen;stroke-width:0.09614651"
         d="m 89.838392,36.319755 q 0.223466,0 0.392473,-0.122061 0.170886,-0.123939 0.21971,-0.332382 v -0.347404 q -0.0094,0 -0.114549,0.0094 -0.103283,0.0094 -0.135206,0.01127 -0.407496,0.03568 -0.568992,0.133328 -0.159619,0.09765 -0.159619,0.313603 0,0.165252 0.09765,0.249756 0.09765,0.0845 0.268534,0.0845 z m 0.681664,0.21032 q -0.02817,-0.120183 -0.05446,-0.259145 -0.170885,0.170886 -0.321114,0.236611 -0.150229,0.06572 -0.353038,0.06572 -0.289191,0 -0.46571,-0.150229 -0.174641,-0.152107 -0.174641,-0.435664 0,-0.315481 0.238488,-0.467587 0.240367,-0.152107 0.691053,-0.189664 0.06197,-0.0056 0.185909,-0.01502 0.125816,-0.01127 0.187786,-0.0169 v -0.182153 q 0,-0.217832 -0.101405,-0.322992 -0.101404,-0.10516 -0.319236,-0.10516 -0.304214,0 -0.614061,0.150229 -0.0094,-0.02253 -0.04882,-0.129573 -0.03943,-0.108916 -0.04131,-0.112671 0.137084,-0.07699 0.32487,-0.122061 0.189664,-0.04695 0.384962,-0.04695 0.384961,0 0.553969,0.169008 0.170885,0.167129 0.170885,0.57087 v 1.363327 z" />
    </g>
    <rect
       style="fill:#cdb086;fill-opacity:1;stroke-width:0.0964738"
       id="rect4573"
       width="58.079342"
       height="11.557593"
       x="57.408241"
       y="44.498924" />
    <rect
       y="50.617649"
       x="57.408241"
       height="5.4388671"
       width="58.079342"
       id="rect4575"
       style="fill:#b0813f;fill-opacity:1;stroke-width:0.06618048" />
    <rect
       style="fill:#a9d68a;fill-opacity:1;stroke-width:0.09533566"
       id="rect4577"
       width="36.955166"
       height="11.557593"
       x="20.453075"
       y="44.498924" />
    <rect
       style="fill:#94c9c8;fill-opacity:1;stroke-width:0.09114931"
       id="rect4579"
       width="16.510849"
       height="11.557594"
       x="3.9422255"
       y="44.498924" />
    <text
       xml:space="preserve"
       style="font-style:normal;font-variant:normal;font-weight:normal;font-stretch:normal;font-size:3.84586048px;line-height:1.25;font-family:'Oxygen Mono';-inkscape-font-specification:'Oxygen Mono';letter-spacing:0px;word-spacing:0px;fill:#000000;fill-opacity:1;stroke:none;stroke-width:0.09614651"
       x="4.5149345"
       y="48.643196"
       id="text4583"><tspan
         id="tspan4581"
         x="4.5149345"
         y="48.643196"
         style="font-style:normal;font-variant:normal;font-weight:normal;font-stretch:normal;font-family:'Oxygen Mono';-inkscape-font-specification:'Oxygen Mono';stroke-width:0.09614651">http://naucse.python.cz/lessons/fast-track/http/</tspan></text>
    <rect
       y="50.617649"
       x="3.9422255"
       height="5.4388671"
       width="16.510849"
       id="rect4585"
       style="fill:#3fb0ac;fill-opacity:1;stroke-width:0.0625279" />
    <text
       xml:space="preserve"
       style="font-style:normal;font-variant:normal;font-weight:normal;font-stretch:normal;font-size:3.84586048px;line-height:1.25;font-family:Oxygen;-inkscape-font-specification:Oxygen;letter-spacing:0px;word-spacing:0px;fill:#000000;fill-opacity:1;stroke:none;stroke-width:0.09614651"
       x="4.6843257"
       y="54.570766"
       id="text4589"><tspan
         id="tspan4587"
         x="4.6843257"
         y="54.570766"
         style="font-style:normal;font-variant:normal;font-weight:normal;font-stretch:normal;font-family:Oxygen;-inkscape-font-specification:Oxygen;stroke-width:0.09614651">protokol</tspan></text>
    <rect
       y="50.617649"
       x="20.453075"
       height="5.4388666"
       width="36.955166"
       id="rect4591"
       style="fill:#6cb03f;fill-opacity:1;stroke-width:0.06539972" />
    <text
       xml:space="preserve"
       style="font-style:normal;font-variant:normal;font-weight:normal;font-stretch:normal;font-size:3.84586048px;line-height:1.25;font-family:Oxygen;-inkscape-font-specification:Oxygen;letter-spacing:0px;word-spacing:0px;fill:#000000;fill-opacity:1;stroke:none;stroke-width:0.09614651"
       x="33.526173"
       y="54.570766"
       id="text4595"><tspan
         id="tspan4593"
         x="33.526173"
         y="54.570766"
         style="font-style:normal;font-variant:normal;font-weight:normal;font-stretch:normal;font-family:Oxygen;-inkscape-font-specification:Oxygen;stroke-width:0.09614651">server</tspan></text>
    <text
       xml:space="preserve"
       style="font-style:normal;font-variant:normal;font-weight:normal;font-stretch:normal;font-size:3.84586048px;line-height:1.25;font-family:Oxygen;-inkscape-font-specification:Oxygen;letter-spacing:0px;word-spacing:0px;fill:#000000;fill-opacity:1;stroke:none;stroke-width:0.09614651"
       x="81.958885"
       y="54.570766"
       id="text4599"><tspan
         id="tspan4597"
         x="81.958885"
         y="54.570766"
         style="font-style:normal;font-variant:normal;font-weight:normal;font-stretch:normal;font-family:Oxygen;-inkscape-font-specification:Oxygen;stroke-width:0.09614651">cesta</tspan></text>
  </g>
</svg>
