<?xml version="1.0" encoding="UTF-8" standalone="no"?>
<svg
   xmlns:dc="http://purl.org/dc/elements/1.1/"
   xmlns:cc="http://creativecommons.org/ns#"
   xmlns:rdf="http://www.w3.org/1999/02/22-rdf-syntax-ns#"
   xmlns:svg="http://www.w3.org/2000/svg"
   xmlns="http://www.w3.org/2000/svg"
   xmlns:sodipodi="http://sodipodi.sourceforge.net/DTD/sodipodi-0.dtd"
   xmlns:inkscape="http://www.inkscape.org/namespaces/inkscape"
   version="1.1"
   id="svg840"
   sodipodi:docname="water.svg"
   width="64"
   height="64"
   inkscape:version="0.92+devel unknown">
  <metadata
     id="metadata844">
    <rdf:RDF>
      <cc:Work
         rdf:about="">
        <dc:format>image/svg+xml</dc:format>
        <dc:type
           rdf:resource="http://purl.org/dc/dcmitype/StillImage" />
        <dc:title />
      </cc:Work>
    </rdf:RDF>
  </metadata>
  <sodipodi:namedview
     pagecolor="#ffffff"
     bordercolor="#666666"
     inkscape:document-rotation="0"
     borderopacity="1"
     objecttolerance="10"
     gridtolerance="10"
     guidetolerance="10"
     inkscape:pageopacity="0"
     inkscape:pageshadow="2"
     inkscape:window-width="1848"
     inkscape:window-height="1056"
     id="namedview842"
     showgrid="false"
     fit-margin-top="0"
     fit-margin-left="0"
     fit-margin-right="0"
     fit-margin-bottom="0"
     inkscape:zoom="4.7495438"
     inkscape:cx="32"
     inkscape:cy="32"
     inkscape:window-x="72"
     inkscape:window-y="0"
     inkscape:window-maximized="1"
     inkscape:current-layer="svg840" />
  <defs
     id="defs120" />
  <g
     id="g5464"
     transform="scale(0.91428571)">
    <path
       stroke="none"
       fill="#A2E7EE"
       d="M 0,3.7 V 0 H 70 V 3.7 Q 53.7,-3.65 35,3.7 18.7,11.05 0,3.7 M 70,24 v 5.95 q -16.3,-7.35 -35,0 -16.3,7.35 -35,0 V 21.9 l 0.25,2.15 V 24.2 Q 18.8,31.35 35,24.1 53.6,16.85 69.85,24 H 70 m 0,15.3 v 13.6 q -16.3,-7.3 -35,0 -16.3,7.35 -35,0 V 37.2 l 0.25,2.15 V 39.5 Q 18.8,46.7 35,39.4 53.6,32.15 69.85,39.3 H 70 m 0,22.95 V 70 H 0 v -9.8 l 0.25,2.15 V 62.5 Q 18.8,69.65 35,62.4 53.6,55.1 69.85,62.25 H 70"
       id="path376"
       inkscape:connector-curvature="0" />
    <path
       stroke="none"
       fill="#8BE1EB"
       d="M 70,62.25 H 69.85 Q 53.6,55.1 35,62.4 18.8,69.65 0.25,62.5 V 62.35 L 0,60.2 v -7.3 q 18.7,7.35 35,0 18.7,-7.3 35,0 v 9.35 M 70,3.7 V 24 H 69.85 Q 53.6,16.85 35,24.1 18.8,31.35 0.25,24.2 V 24.05 L 0,21.9 V 3.7 q 18.7,7.35 35,0 18.7,-7.35 35,0 m 0,26.25 V 39.3 H 69.85 Q 53.6,32.15 35,39.4 18.8,46.7 0.25,39.5 V 39.35 L 0,37.2 v -7.25 q 18.7,7.35 35,0 18.7,-7.35 35,0"
       id="path378"
       inkscape:connector-curvature="0" />
  </g>
</svg>
