<?xml version="1.0" encoding="UTF-8" standalone="no"?>
<svg
   xmlns:dc="http://purl.org/dc/elements/1.1/"
   xmlns:cc="http://creativecommons.org/ns#"
   xmlns:rdf="http://www.w3.org/1999/02/22-rdf-syntax-ns#"
   xmlns:svg="http://www.w3.org/2000/svg"
   xmlns="http://www.w3.org/2000/svg"
   xmlns:xlink="http://www.w3.org/1999/xlink"
   xmlns:sodipodi="http://sodipodi.sourceforge.net/DTD/sodipodi-0.dtd"
   xmlns:inkscape="http://www.inkscape.org/namespaces/inkscape"
   version="1.1"
   preserveAspectRatio="none"
   x="0px"
   y="0px"
   width="64"
   height="64"
   viewBox="0 0 63.999999 64"
   id="svg2"
   inkscape:version="0.91 r13725"
   sodipodi:docname="dude1.svg">
  <metadata
     id="metadata1740">
    <rdf:RDF>
      <cc:Work
         rdf:about="">
        <dc:format>image/svg+xml</dc:format>
        <dc:type
           rdf:resource="http://purl.org/dc/dcmitype/StillImage" />
        <dc:title />
      </cc:Work>
    </rdf:RDF>
  </metadata>
  <sodipodi:namedview
     pagecolor="#ffffff"
     bordercolor="#666666"
     borderopacity="1"
     objecttolerance="10"
     gridtolerance="10"
     guidetolerance="10"
     inkscape:pageopacity="0"
     inkscape:pageshadow="2"
     inkscape:window-width="1848"
     inkscape:window-height="1056"
     id="namedview1738"
     showgrid="false"
     inkscape:zoom="3.2856194"
     inkscape:cx="-286.51935"
     inkscape:cy="274.63557"
     inkscape:window-x="72"
     inkscape:window-y="0"
     inkscape:window-maximized="1"
     inkscape:current-layer="svg2"
     fit-margin-top="0"
     fit-margin-left="0"
     fit-margin-right="0"
     fit-margin-bottom="0" />
  <defs
     id="defs4">
    <g
       id="Layer0_89_MEMBER_0_FILL">
      <path
         d="m 1128.95,785.4 q -5.1,2.2 -5.1,5.25 0,3 5.1,5.15 5.2,2.15 12.6,2.15 7.3,0 12.5,-2.15 5.3,-2.15 5.3,-5.15 0,-3.05 -5.3,-5.25 -5.2,-2.1 -12.5,-2.1 -7.4,0 -12.6,2.1 z"
         id="path852"
         inkscape:connector-curvature="0"
         style="fill:#000000;fill-opacity:0.05098039;stroke:none" />
    </g>
    <g
       id="Layer0_89_MEMBER_1_FILL">
      <path
         d="m 1142.25,791.05 q 0.85,0 1.7,-0.05 l 2.25,1.85 -0.5,-4.1 q -1.65,0.3 -3.45,0.3 -2.9,0 -5.25,-0.85 l -1.75,4.65 3,-2.2 q 1.85,0.4 4,0.4 m 11.2,-15.3 q 0.2,0.25 0.35,0.55 2.25,3.55 1.8,8.3 -0.05,0.6 -0.55,0.95 -0.45,0.35 -1,0.3 -0.65,-0.05 -1,-0.5 -0.4,-0.45 -0.35,-1.05 0.25,-2.1 -0.55,-3.6 -0.2,0.8 -0.4,1.6 -1,4.25 -1.45,10.55 2.2,-2.85 2.55,-5.2 0.45,0.15 1.05,0.2 1.3,0.1 2.4,-0.7 l -0.1,0.05 q 1.3,-0.9 1.4,-2.4 0.45,-5 -1.65,-8.85 l -2.5,-0.2 m -22.6,-0.2 -2.75,-0.25 q -3.2,3.2 -4,8.3 -0.3,1.3 0.55,2.5 0.9,1.3 2.45,1.4 1.3,0.2 2.3,-0.5 0.05,-0.1 0.15,-0.15 0.3,-0.25 0.5,-0.45 1.35,4.7 1.05,6.35 -0.05,0.05 -0.05,0.1 l 0.1,0 q 1.3,-6.5 1.1,-13.1 -2.8,1.2 -3.35,4.6 -0.1,0.55 -0.6,0.95 -0.45,0.3 -1.05,0.2 -0.6,-0.05 -0.95,-0.55 -0.35,-0.5 -0.25,-1.05 0.8,-5.05 4.35,-8 0.25,-0.2 0.45,-0.35 z"
         id="path855"
         inkscape:connector-curvature="0"
         style="fill:#b8ad90;stroke:none" />
      <path
         d="m 1131.15,775.8 q -0.15,-0.15 -0.25,-0.25 l -0.05,0 q -0.2,0.15 -0.45,0.35 -3.55,2.95 -4.35,8 -0.1,0.55 0.25,1.05 0.35,0.5 0.95,0.55 0.6,0.1 1.05,-0.2 0.5,-0.4 0.6,-0.95 0.55,-3.4 3.35,-4.6 0.2,6.6 -1.1,13.1 2.05,0.85 4.1,0 l 1.75,-4.65 q 2.35,0.85 5.25,0.85 1.8,0 3.45,-0.3 l 0.5,4.1 q 1.95,1.15 4.1,0 0.45,-6.3 1.45,-10.55 0.2,-0.8 0.4,-1.6 0.8,1.5 0.55,3.6 -0.05,0.6 0.35,1.05 0.35,0.45 1,0.5 0.55,0.05 1,-0.3 0.5,-0.35 0.55,-0.95 0.45,-4.75 -1.8,-8.3 -0.15,-0.3 -0.35,-0.55 -0.05,0 -0.1,0.05 -4.6,4.55 -11.1,4.55 -6.5,0 -11.1,-4.55 m 0.75,-2.8 q 0.45,0.5 1,1.05 3.85,3.9 9.35,3.9 5.5,0 9.4,-3.9 0.5,-0.5 0.95,-1 l 0,-8.75 q 0,-4.3 -3.05,-7.35 -3,-3 -7.3,-3 -4.3,0 -7.3,3 -3.05,3.05 -3.05,7.35 l 0,8.7 m 7.2,-10.6 q 0.65,-0.65 1.5,-0.7 0.05,0 0.15,0 l 8.5,0 q 0.05,0 0.1,0 0.15,0 0.35,0 0.75,0.1 1.3,0.7 0.75,0.7 0.75,1.7 0,0.95 -0.75,1.6 -0.65,0.7 -1.6,0.75 l -0.05,0 q -0.05,0 -0.1,0 l -8.5,0 q -0.95,-0.05 -1.65,-0.75 -0.7,-0.65 -0.7,-1.6 0,-1 0.7,-1.7 m 7.8,6.2 q 0.4,-0.4 0.6,-0.8 0.05,-0.2 0.25,-0.3 0.2,-0.05 0.4,0 0.15,0.05 0.3,0.25 0.05,0.2 0,0.4 -0.3,0.65 -0.95,1.2 -1,0.75 -2.45,0.75 -1.45,0 -2.45,-0.75 -0.7,-0.55 -0.9,-1.25 -0.05,-0.2 0.05,-0.35 0.05,-0.2 0.25,-0.25 0.2,-0.05 0.4,0.05 0.2,0.05 0.25,0.25 0.1,0.45 0.55,0.8 0.75,0.55 1.85,0.55 1.05,0 1.85,-0.55 z"
         id="path857"
         inkscape:connector-curvature="0"
         style="fill:#e0d1af;stroke:none" />
      <path
         d="m 1126.6,763.8 q -0.05,0.45 -0.05,0.85 0,0.45 0.05,0.85 0.05,1.4 0.35,2.7 0.9,4.1 3.95,7.35 0.1,0.1 0.25,0.25 4.6,4.55 11.1,4.55 6.5,0 11.1,-4.55 0.05,-0.05 0.1,-0.05 3.2,-3.3 4.1,-7.55 0.3,-1.3 0.35,-2.7 0.05,-0.4 0.05,-0.85 0,-0.4 -0.05,-0.85 -0.3,-5.95 -4.55,-10.2 -4.6,-4.6 -11.1,-4.6 -6.5,0 -11.1,4.6 -4.3,4.25 -4.55,10.2 m 2.4,0 q 0.25,-4.95 3.9,-8.5 3.85,-3.9 9.35,-3.9 5.5,0 9.4,3.9 3.55,3.55 3.85,8.5 0.05,0.45 0.05,0.85 0,0.45 -0.05,0.85 -0.05,1.4 -0.4,2.7 -0.7,2.65 -2.5,4.85 -0.45,0.5 -0.95,1 -3.9,3.9 -9.4,3.9 -5.5,0 -9.35,-3.9 -0.55,-0.55 -1,-1.05 -1.8,-2.2 -2.5,-4.8 -0.35,-1.3 -0.4,-2.7 -0.05,-0.4 -0.05,-0.85 0,-0.4 0.05,-0.85 z"
         id="path859"
         inkscape:connector-curvature="0"
         style="fill:#ffffff;stroke:none" />
      <path
         d="m 1147.5,767.8 q -0.2,0.4 -0.6,0.8 -0.8,0.55 -1.85,0.55 -1.1,0 -1.85,-0.55 -0.45,-0.35 -0.55,-0.8 -0.05,-0.2 -0.25,-0.25 -0.2,-0.1 -0.4,-0.05 -0.2,0.05 -0.25,0.25 -0.1,0.15 -0.05,0.35 0.2,0.7 0.9,1.25 1,0.75 2.45,0.75 1.45,0 2.45,-0.75 0.65,-0.55 0.95,-1.2 0.05,-0.2 0,-0.4 -0.15,-0.2 -0.3,-0.25 -0.2,-0.05 -0.4,0 -0.2,0.1 -0.25,0.3 m -6.9,-6.1 q -0.85,0.05 -1.5,0.7 -0.7,0.7 -0.7,1.7 0,0.95 0.7,1.6 0.7,0.7 1.65,0.75 l 8.5,0 q 0.05,0 0.1,0 l 0.05,0 q 0.95,-0.05 1.6,-0.75 0.75,-0.65 0.75,-1.6 0,-1 -0.75,-1.7 -0.55,-0.6 -1.3,-0.7 -0.2,0 -0.35,0 -0.05,0 -0.1,0 l -8.5,0 q -0.1,0 -0.15,0 z"
         id="path861"
         inkscape:connector-curvature="0"
         style="fill:#af9f7a;stroke:none" />
      <path
         d="m 1132.9,755.3 q -3.65,3.55 -3.9,8.5 -0.05,0.45 -0.05,0.85 0,0.45 0.05,0.85 0.05,1.4 0.4,2.7 0.7,2.6 2.5,4.8 l 0,-8.7 q 0,-4.3 3.05,-7.35 3,-3 7.3,-3 4.3,0 7.3,3 3.05,3.05 3.05,7.35 l 0,8.75 q 1.8,-2.2 2.5,-4.85 0.35,-1.3 0.4,-2.7 0.05,-0.4 0.05,-0.85 0,-0.4 -0.05,-0.85 -0.3,-4.95 -3.85,-8.5 -3.9,-3.9 -9.4,-3.9 -5.5,0 -9.35,3.9 m -8.3,8.45 0,-0.15 q -0.05,0.55 -0.05,1.05 0,0.5 0.05,0.95 0.05,1.55 0.4,3.05 0.8,3.65 3.1,6.65 l 2.75,0.25 0.05,0 q -3.05,-3.25 -3.95,-7.35 -0.3,-1.3 -0.35,-2.7 -0.05,-0.4 -0.05,-0.85 0,-0.4 0.05,-0.85 0.25,-5.95 4.55,-10.2 4.6,-4.6 11.1,-4.6 6.5,0 11.1,4.6 4.25,4.25 4.55,10.2 0.05,0.45 0.05,0.85 0,0.45 -0.05,0.85 -0.05,1.4 -0.35,2.7 -0.9,4.25 -4.1,7.55 l 2.5,0.2 q 2.7,-3.3 3.55,-7.35 l 0,0.05 q 0.35,-1.5 0.4,-3.05 0.05,-0.45 0.05,-0.95 0,-0.5 -0.05,-1.05 -0.4,-6.65 -5.1,-11.4 -5.2,-5.2 -12.55,-5.2 -7.35,0 -12.5,5.2 -4.85,4.8 -5.15,11.55 z"
         id="path863"
         inkscape:connector-curvature="0"
         style="fill:#cccccc;stroke:none" />
    </g>
  </defs>
  <g
     id="g5917"
     transform="translate(-1109.9,-740.475)">
    <g
       id="g1606">
      <use
         id="use1608"
         xlink:href="#Layer0_89_MEMBER_0_FILL"
         x="0"
         y="0"
         width="100%"
         height="100%" />
    </g>
    <g
       id="g1610">
      <use
         id="use1612"
         xlink:href="#Layer0_89_MEMBER_1_FILL"
         x="0"
         y="0"
         width="100%"
         height="100%" />
    </g>
  </g>
</svg>
