<?xml version="1.0" encoding="UTF-8" standalone="no"?>
<svg
   xmlns:dc="http://purl.org/dc/elements/1.1/"
   xmlns:cc="http://creativecommons.org/ns#"
   xmlns:rdf="http://www.w3.org/1999/02/22-rdf-syntax-ns#"
   xmlns:svg="http://www.w3.org/2000/svg"
   xmlns="http://www.w3.org/2000/svg"
   xmlns:xlink="http://www.w3.org/1999/xlink"
   xmlns:sodipodi="http://sodipodi.sourceforge.net/DTD/sodipodi-0.dtd"
   xmlns:inkscape="http://www.inkscape.org/namespaces/inkscape"
   version="1.1"
   preserveAspectRatio="none"
   x="0px"
   y="0px"
   width="64"
   height="64"
   viewBox="0 0 64 64"
   id="svg2"
   inkscape:version="0.91 r13725"
   sodipodi:docname="12.svg">
  <metadata
     id="metadata1740">
    <rdf:RDF>
      <cc:Work
         rdf:about="">
        <dc:format>image/svg+xml</dc:format>
        <dc:type
           rdf:resource="http://purl.org/dc/dcmitype/StillImage" />
        <dc:title></dc:title>
      </cc:Work>
    </rdf:RDF>
  </metadata>
  <sodipodi:namedview
     pagecolor="#ffffff"
     bordercolor="#666666"
     borderopacity="1"
     objecttolerance="10"
     gridtolerance="10"
     guidetolerance="10"
     inkscape:pageopacity="0"
     inkscape:pageshadow="2"
     inkscape:window-width="1848"
     inkscape:window-height="1056"
     id="namedview1738"
     showgrid="false"
     inkscape:zoom="3.2856194"
     inkscape:cx="132.24442"
     inkscape:cy="55.106138"
     inkscape:window-x="72"
     inkscape:window-y="0"
     inkscape:window-maximized="1"
     inkscape:current-layer="svg2"
     fit-margin-top="0"
     fit-margin-left="0"
     fit-margin-right="0"
     fit-margin-bottom="0" />
  <defs
     id="defs4">
    <g
       id="Layer0_24_FILL">
      <path
         d="m 261,656 2,0 0,-41 -41,0 0,2 39,0 0,39 m -16,0 2,0 0,-25 -25,0 0,2 23,0 0,23 z"
         id="path310"
         inkscape:connector-curvature="0"
         style="fill:#ffffff;stroke:none" />
      <path
         d="m 247,656 14,0 0,-39 -39,0 0,14 25,0 0,25 z"
         id="path312"
         inkscape:connector-curvature="0"
         style="fill:#ffcc00;stroke:none" />
      <path
         d="m 263,656 2,0 0,-43 -43,0 0,2 41,0 0,41 m -20,0 2,0 0,-23 -23,0 0,2 21,0 0,21 z"
         id="path314"
         inkscape:connector-curvature="0"
         style="fill:#000000;fill-opacity:0.30196078;stroke:none" />
    </g>
  </defs>
  <g
     id="g1278"
     transform="matrix(0,-1,1,0,-592,286)">
    <use
       xlink:href="#Layer0_24_FILL"
       id="use1280"
       x="0"
       y="0"
       width="100%"
       height="100%" />
  </g>
</svg>
