<?xml version="1.0" encoding="UTF-8" standalone="no"?>
<svg
   xmlns:dc="http://purl.org/dc/elements/1.1/"
   xmlns:cc="http://creativecommons.org/ns#"
   xmlns:rdf="http://www.w3.org/1999/02/22-rdf-syntax-ns#"
   xmlns:svg="http://www.w3.org/2000/svg"
   xmlns="http://www.w3.org/2000/svg"
   width="118.53333mm"
   height="63.500023mm"
   viewBox="0 0 118.53333 63.500022"
   version="1.1"
   id="svg8">
  <defs
     id="defs2">
    <marker
       style="overflow:visible"
       id="marker2032"
       refX="0"
       refY="0"
       orient="auto">
      <path
         transform="matrix(-0.4,0,0,-0.4,-4,0)"
         style="fill:#0000ff;fill-opacity:1;fill-rule:evenodd;stroke:#0000ff;stroke-width:1pt;stroke-opacity:1"
         d="M 0,0 5,-5 -12.5,0 5,5 Z"
         id="path2030" />
    </marker>
    <marker
       style="overflow:visible"
       id="marker2022"
       refX="0"
       refY="0"
       orient="auto">
      <path
         transform="matrix(-0.4,0,0,-0.4,-4,0)"
         style="fill:#0000ff;fill-opacity:1;fill-rule:evenodd;stroke:#0000ff;stroke-width:1pt;stroke-opacity:1"
         d="M 0,0 5,-5 -12.5,0 5,5 Z"
         id="path2020" />
    </marker>
    <marker
       style="overflow:visible"
       id="marker2176"
       refX="0"
       refY="0"
       orient="auto">
      <path
         transform="matrix(-0.4,0,0,-0.4,-4,0)"
         style="fill:#0000ff;fill-opacity:1;fill-rule:evenodd;stroke:#0000ff;stroke-width:1pt;stroke-opacity:1"
         d="M 0,0 5,-5 -12.5,0 5,5 Z"
         id="path2174" />
    </marker>
  </defs>
  <metadata
     id="metadata5">
    <rdf:RDF>
      <cc:Work
         rdf:about="">
        <dc:format>image/svg+xml</dc:format>
        <dc:type
           rdf:resource="http://purl.org/dc/dcmitype/StillImage" />
        <dc:title></dc:title>
      </cc:Work>
    </rdf:RDF>
  </metadata>
  <g
     id="layer1"
     transform="translate(-86.814554,-138.22433)">
    <path
       id="path1971"
       style="fill:#ff0000;fill-rule:evenodd;stroke:none;stroke-width:0.264583;stroke-linecap:round;stroke-linejoin:round"
       d="m 86.814554,138.22434 h 25.419326 2.12711 90.9869 v 8.46667 H 86.814554 Z" />
    <path
       style="fill:none;stroke:#ff0000;stroke-width:8.46667;stroke-linecap:butt;stroke-linejoin:miter;stroke-miterlimit:4;stroke-dasharray:none;stroke-opacity:1"
       d="m 95.281217,142.45767 c 16.933343,0 8.466673,35.98333 25.400003,35.98333"
       id="path1973" />
    <path
       style="fill:none;stroke:#ff0000;stroke-width:8.46667;stroke-linecap:butt;stroke-linejoin:miter;stroke-miterlimit:4;stroke-dasharray:none;stroke-opacity:1"
       d="m 95.281217,142.45767 c 16.933343,0 8.466673,16.93334 25.400003,16.93334"
       id="path1975" />
    <path
       id="path1987"
       style="fill:#ff8080;fill-rule:evenodd;stroke:none;stroke-width:0.529167;stroke-linecap:round;stroke-linejoin:round;stroke-miterlimit:4;stroke-dasharray:none"
       d="m 124.91456,167.85767 v 7.8052 l -2.11667,2.11668 -2.11667,-2.11668 v -7.8052 z" />
    <path
       id="path1989"
       style="fill:#ffaaaa;fill-rule:evenodd;stroke:none;stroke-width:0.529167;stroke-linecap:round;stroke-linejoin:round;stroke-miterlimit:4;stroke-dasharray:none"
       d="m 124.91456,160.05247 v 7.8052 l -2.11667,2.11667 -2.11667,-2.11667 v -7.8052 z" />
    <rect
       style="fill:#ff0000;fill-rule:evenodd;stroke:none;stroke-width:0.264583;stroke-linecap:round;stroke-linejoin:round"
       id="rect1992"
       width="13.758328"
       height="8.4666681"
       x="117.50623"
       y="155.15768"
       ry="2.1166666"
       rx="2.1166649" />
    <path
       id="path1994"
       style="fill:#0000ff;fill-rule:evenodd;stroke:none;stroke-width:0.264583;stroke-linecap:round;stroke-linejoin:round"
       d="m 129.14789,155.15767 h 42.33333 c 0,0 1e-5,3.95259 1e-5,6.35 0,1.17264 -0.94403,2.11667 -2.11667,2.11667 h -44.45 z" />
    <g
       aria-label="ps"
       id="text1998"
       style="font-size:5.64444px;line-height:1.25;font-family:'Roboto Mono';-inkscape-font-specification:'Roboto Mono';text-align:start;letter-spacing:0px;word-spacing:0px;text-anchor:start;fill:#ffffff;stroke-width:0.264583">
      <path
         d="m 132.19887,159.97805 q 0,1.21268 0.84887,1.21268 0.76343,0 0.76343,-1.21268 0,-0.67248 -0.20671,-0.93431 -0.20395,-0.26458 -0.56499,-0.26458 -0.70556,0 -0.8158,0.8158 -0.0248,0.17088 -0.0248,0.38309 z m 0.86816,1.59853 q -0.29214,0 -0.51814,-0.13505 -0.226,-0.13505 -0.34451,-0.34727 v 1.57372 l -0.50161,0.0551 v -4.23884 h 0.50161 v 0.41617 q 0.13229,-0.226 0.35278,-0.36656 0.22048,-0.14056 0.49885,-0.14056 0.74689,0 1.06108,0.61736 0.19844,0.39136 0.19844,0.93155 0,0.86266 -0.41617,1.3119 -0.29765,0.32246 -0.83233,0.32246 z"
         style="font-style:normal;font-variant:normal;font-weight:normal;font-stretch:normal;font-family:'Oxygen Mono';-inkscape-font-specification:'Oxygen Mono';text-align:start;text-anchor:start;fill:#ffffff;stroke-width:0.264583"
         id="path1471" />
      <path
         d="m 136.71332,159.79064 q 0.39136,0.0965 0.5705,0.30593 0.1819,0.20946 0.1819,0.60633 0,0.39412 -0.30316,0.6339 -0.30042,0.23978 -0.75517,0.23978 -0.32522,0 -0.63114,-0.0799 -0.30592,-0.0827 -0.452,-0.19292 l 0.12403,-0.36105 q 0.11575,0.0717 0.36656,0.14607 0.2508,0.0717 0.54294,0.0717 0.2949,0 0.46853,-0.12127 0.17639,-0.12402 0.17639,-0.32797 0,-0.20395 -0.0882,-0.3197 -0.0854,-0.11852 -0.33349,-0.17915 l -0.51263,-0.12402 q -0.44372,-0.11025 -0.5898,-0.31971 -0.14607,-0.21222 -0.14607,-0.52641 0,-0.31419 0.25356,-0.57877 0.25632,-0.26459 0.74414,-0.2701 h 0.0358 q 0.54846,0 0.93431,0.20671 l -0.11024,0.35277 q -0.40239,-0.17087 -0.8158,-0.17087 -0.25632,0.003 -0.42168,0.12953 -0.16261,0.12403 -0.16261,0.3142 0,0.19016 0.0827,0.28663 0.0827,0.0937 0.3142,0.14883 z"
         style="font-style:normal;font-variant:normal;font-weight:normal;font-stretch:normal;font-family:'Oxygen Mono';-inkscape-font-specification:'Oxygen Mono';text-align:start;text-anchor:start;fill:#ffffff;stroke-width:0.264583"
         id="path1473" />
    </g>
    <path
       style="fill:none;stroke:#0000ff;stroke-width:0.264583;stroke-linecap:butt;stroke-linejoin:miter;stroke-miterlimit:4;stroke-dasharray:0.264583, 0.79375;stroke-dashoffset:0;stroke-opacity:1;marker-end:url(#marker2032)"
       d="m 171.48122,155.15767 v -8.46666"
       id="path2000" />
    <path
       id="path2132"
       style="fill:#ff8080;fill-rule:evenodd;stroke:none;stroke-width:0.529167;stroke-linecap:round;stroke-linejoin:round;stroke-miterlimit:4;stroke-dasharray:none"
       d="m 124.91456,186.90767 v 7.8052 l -2.11667,2.11668 -2.11667,-2.11668 v -7.8052 z" />
    <path
       id="path2134"
       style="fill:#ffaaaa;fill-rule:evenodd;stroke:none;stroke-width:0.529167;stroke-linecap:round;stroke-linejoin:round;stroke-miterlimit:4;stroke-dasharray:none"
       d="m 124.91456,179.10247 v 7.8052 l -2.11667,2.11667 -2.11667,-2.11667 v -7.8052 z" />
    <rect
       style="fill:#ff0000;fill-rule:evenodd;stroke:none;stroke-width:0.264583;stroke-linecap:round;stroke-linejoin:round"
       id="rect2002"
       width="13.758328"
       height="8.4666681"
       x="117.50623"
       y="174.20769"
       ry="2.1166666"
       rx="2.1166649" />
    <path
       id="path2004"
       style="fill:#808000;fill-rule:evenodd;stroke:none;stroke-width:0.264583;stroke-linecap:round;stroke-linejoin:round"
       d="m 129.14789,174.20767 h 50.8 v 6.35 c 0,1.17263 -0.94403,2.11667 -2.11667,2.11667 h -52.91666 z" />
    <g
       aria-label="cat"
       id="text2008"
       style="font-size:5.64444px;line-height:1.25;font-family:'Roboto Mono';-inkscape-font-specification:'Roboto Mono';text-align:start;letter-spacing:0px;word-spacing:0px;text-anchor:start;fill:#ffffff;stroke-width:0.264583">
      <path
         d="m 134.02614,180.35924 q -0.28938,0.26734 -0.82406,0.26734 -0.34176,0 -0.62288,-0.12954 -0.28112,-0.13229 -0.46026,-0.35277 -0.37758,-0.46302 -0.37758,-1.11621 0,-0.42168 0.17087,-0.77997 0.17364,-0.35829 0.50988,-0.58153 0.33624,-0.22325 0.82958,-0.22325 0.49333,0 0.76619,0.26183 l -0.12678,0.33624 q -0.31695,-0.21222 -0.71658,-0.21222 -0.39963,0 -0.66422,0.34176 -0.26182,0.34175 -0.26182,0.87092 0,0.52641 0.26182,0.86265 0.26459,0.33624 0.67248,0.33624 0.41066,0 0.7221,-0.22049 z"
         style="font-style:normal;font-variant:normal;font-weight:normal;font-stretch:normal;font-family:'Oxygen Mono';-inkscape-font-specification:'Oxygen Mono';text-align:start;text-anchor:start;fill:#ffffff;stroke-width:0.264583"
         id="path1476" />
      <path
         d="m 136.99168,179.88244 v -0.7717 l -0.41066,0.0579 q -0.42994,0.0606 -0.59531,0.12126 -0.36931,0.14056 -0.36931,0.47129 0,0.22876 0.13229,0.3638 0.13229,0.13505 0.3638,0.13505 0.50988,0 0.87919,-0.37758 z m 0,-1.40835 q 0,-0.64768 -0.54846,-0.64768 -0.25907,0 -0.57326,0.0606 -0.31144,0.0606 -0.43822,0.11576 l -0.11851,-0.36932 q 0.57051,-0.19017 1.07211,-0.19017 0.50161,0 0.80478,0.22876 0.30316,0.22875 0.30316,0.70555 v 2.18006 h -0.41616 l -0.0662,-0.35002 q -0.17639,0.17914 -0.45475,0.30041 -0.27561,0.11851 -0.54019,0.11851 -0.3831,0 -0.63665,-0.22875 -0.25356,-0.23151 -0.25356,-0.65044 0,-0.42168 0.33073,-0.61736 0.22324,-0.1378 0.47404,-0.18741 0.25356,-0.0524 0.6587,-0.10198 l 0.40239,-0.0469 z"
         style="font-style:normal;font-variant:normal;font-weight:normal;font-stretch:normal;font-family:'Oxygen Mono';-inkscape-font-specification:'Oxygen Mono';text-align:start;text-anchor:start;fill:#ffffff;stroke-width:0.264583"
         id="path1478" />
      <path
         d="m 139.64578,177.92012 v 1.41937 q 0,0.26459 0.0276,0.41893 0.0303,0.15434 0.11575,0.2508 0.0882,0.0965 0.226,0.12953 0.13781,0.0331 0.37483,0.0331 h 0.55397 l -0.0276,0.38585 h -0.50712 q -0.77997,0 -1.03904,-0.28663 -0.16812,-0.18742 -0.2067,-0.60358 -0.0193,-0.18466 -0.0193,-0.45476 v -1.29259 h -0.85438 l 0.0551,-0.38586 h 0.79926 v -1.04179 l 0.50161,-0.14883 v 1.19062 h 1.27331 v 0.38586 z"
         style="font-style:normal;font-variant:normal;font-weight:normal;font-stretch:normal;font-family:'Oxygen Mono';-inkscape-font-specification:'Oxygen Mono';text-align:start;text-anchor:start;fill:#ffffff;stroke-width:0.264583"
         id="path1480" />
    </g>
    <path
       style="fill:none;stroke:#0000ff;stroke-width:0.264583;stroke-linecap:butt;stroke-linejoin:miter;stroke-miterlimit:4;stroke-dasharray:0.264583, 0.79375;stroke-dashoffset:0;stroke-opacity:1;marker-end:url(#marker2022)"
       d="M 179.94789,174.20767 V 146.69101"
       id="path2010" />
    <g
       aria-label="out"
       transform="rotate(90)"
       id="text2014"
       style="font-size:3.70417px;line-height:1.25;font-family:'Roboto Mono';-inkscape-font-specification:'Roboto Mono';text-align:start;letter-spacing:0px;word-spacing:0px;text-anchor:start;fill:#000000;stroke-width:0.264583">
      <path
         d="m 162.61253,-121.64576 q 0.34545,0 0.47025,-0.34365 0.0669,-0.18448 0.0669,-0.37801 0,-0.19534 -0.0145,-0.30386 -0.0326,-0.24598 -0.15735,-0.40152 -0.12299,-0.15555 -0.36535,-0.15555 -0.33642,0 -0.45941,0.35088 -0.0651,0.18811 -0.0651,0.3943 0,0.36535 0.11395,0.60228 0.11394,0.23513 0.41057,0.23513 z m 0.65112,-1.54642 q 0.21523,0.28939 0.21523,0.75603 0,0.46664 -0.23332,0.75603 -0.23332,0.28758 -0.63303,0.28758 -0.21343,0 -0.37983,-0.0814 -0.16639,-0.0814 -0.26949,-0.22428 -0.208,-0.28758 -0.208,-0.74879 0,-0.46121 0.2297,-0.74698 0.22971,-0.28758 0.6457,-0.28758 0.41781,0 0.63304,0.28938 z"
         style="font-style:normal;font-variant:normal;font-weight:normal;font-stretch:normal;font-size:3.70417px;font-family:'Oxygen Mono';-inkscape-font-specification:'Oxygen Mono';text-align:start;text-anchor:start;fill:#000000;stroke-width:0.264583"
         id="path1483" />
      <path
         d="m 165.60769,-122.08165 q 0,0.68911 -0.76687,0.68911 -0.76688,0 -0.76688,-0.68911 v -1.34023 h 0.32918 v 1.36917 q 0,0.21162 0.1049,0.30928 0.1049,0.0977 0.3328,0.0977 0.22789,0 0.33279,-0.0977 0.1049,-0.0977 0.1049,-0.30928 v -1.36917 h 0.32918 z"
         style="font-style:normal;font-variant:normal;font-weight:normal;font-stretch:normal;font-size:3.70417px;font-family:'Oxygen Mono';-inkscape-font-specification:'Oxygen Mono';text-align:start;text-anchor:start;fill:#000000;stroke-width:0.264583"
         id="path1485" />
      <path
         d="m 167.0058,-123.16866 v 0.93147 q 0,0.17363 0.0181,0.27491 0.0199,0.10129 0.076,0.16459 0.0579,0.0633 0.14831,0.085 0.0904,0.0217 0.24598,0.0217 h 0.36355 l -0.0181,0.25321 h -0.3328 q -0.51185,0 -0.68187,-0.1881 -0.11033,-0.12299 -0.13565,-0.3961 -0.0127,-0.12118 -0.0127,-0.29843 v -0.84827 h -0.56069 l 0.0362,-0.25322 h 0.52451 v -0.68368 l 0.32918,-0.0977 v 0.78135 h 0.83561 v 0.25322 z"
         style="font-style:normal;font-variant:normal;font-weight:normal;font-stretch:normal;font-size:3.70417px;font-family:'Oxygen Mono';-inkscape-font-specification:'Oxygen Mono';text-align:start;text-anchor:start;fill:#000000;stroke-width:0.264583"
         id="path1487" />
    </g>
    <g
       aria-label="in"
       transform="rotate(90)"
       id="text2018"
       style="font-size:3.70417px;line-height:1.25;font-family:'Roboto Mono';-inkscape-font-specification:'Roboto Mono';text-align:start;letter-spacing:0px;word-spacing:0px;text-anchor:start;fill:#000000;stroke-width:0.264583">
      <path
         d="m 172.77029,-123.81437 v -0.17906 q 0,-0.0651 0.0724,-0.11394 0.0742,-0.0506 0.1465,-0.0506 0.0724,0 0.1447,0.0506 0.0742,0.0488 0.0742,0.11394 v 0.17906 q 0,0.0651 -0.0742,0.11576 -0.0724,0.0488 -0.1447,0.0488 -0.0723,0 -0.1465,-0.0488 -0.0724,-0.0506 -0.0724,-0.11576 z m -0.51185,0.77593 v -0.25322 h 0.89529 v 1.7309 h 0.56793 v 0.25322 h -1.52653 v -0.25322 h 0.62942 v -1.47768 z"
         style="font-style:normal;font-variant:normal;font-weight:normal;font-stretch:normal;font-size:3.70417px;font-family:'Oxygen Mono';-inkscape-font-specification:'Oxygen Mono';text-align:start;text-anchor:start;fill:#000000;stroke-width:0.264583"
         id="path1490" />
      <path
         d="m 175.30968,-123.35135 q 0.61675,0 0.61675,0.78135 v 1.26246 h -0.32917 v -1.22267 q 0,-0.2098 -0.0217,-0.30024 -0.0217,-0.0904 -0.0651,-0.14831 -0.0922,-0.11937 -0.30205,-0.11937 -0.21161,0 -0.35812,0.12299 -0.1465,0.12299 -0.1465,0.32556 v 1.34204 h -0.32918 v -1.98412 h 0.30205 l 0.0181,0.21523 q 0.19714,-0.27492 0.61495,-0.27492 z"
         style="font-style:normal;font-variant:normal;font-weight:normal;font-stretch:normal;font-size:3.70417px;font-family:'Oxygen Mono';-inkscape-font-specification:'Oxygen Mono';text-align:start;text-anchor:start;fill:#000000;stroke-width:0.264583"
         id="path1492" />
    </g>
    <rect
       style="fill:#ff0000;fill-rule:evenodd;stroke:none;stroke-width:0.264583;stroke-linecap:round;stroke-linejoin:round"
       id="rect2136"
       width="13.758328"
       height="8.4666681"
       x="117.50623"
       y="193.25769"
       ry="2.1166666"
       rx="2.1166649" />
    <path
       id="path2138"
       style="fill:#008080;fill-rule:evenodd;stroke:none;stroke-width:0.264583;stroke-linecap:round;stroke-linejoin:round"
       d="m 129.14789,193.25767 h 67.73334 v 6.35 c 0,1.17263 -0.94403,2.11667 -2.11667,2.11667 h -69.85 z" />
    <g
       aria-label="sort"
       id="text2142"
       style="font-size:5.64444px;line-height:1.25;font-family:'Roboto Mono';-inkscape-font-specification:'Roboto Mono';text-align:start;letter-spacing:0px;word-spacing:0px;text-anchor:start;fill:#ffffff;stroke-width:0.264583">
      <path
         d="m 133.3261,197.89065 q 0.39136,0.0965 0.57051,0.30592 0.1819,0.20946 0.1819,0.60634 0,0.39412 -0.30317,0.63389 -0.30041,0.23978 -0.75516,0.23978 -0.32522,0 -0.63114,-0.0799 -0.30593,-0.0827 -0.452,-0.19293 l 0.12402,-0.36104 q 0.11576,0.0717 0.36656,0.14607 0.2508,0.0717 0.54295,0.0717 0.2949,0 0.46853,-0.12127 0.17639,-0.12402 0.17639,-0.32797 0,-0.20395 -0.0882,-0.31971 -0.0854,-0.11851 -0.33348,-0.17914 l -0.51263,-0.12403 q -0.44373,-0.11024 -0.5898,-0.3197 -0.14607,-0.21222 -0.14607,-0.52641 0,-0.31419 0.25356,-0.57878 0.25631,-0.26458 0.74414,-0.27009 h 0.0358 q 0.54845,0 0.9343,0.2067 l -0.11024,0.35278 q -0.40239,-0.17088 -0.8158,-0.17088 -0.25631,0.003 -0.42168,0.12954 -0.1626,0.12402 -0.1626,0.31419 0,0.19017 0.0827,0.28663 0.0827,0.0937 0.31419,0.14883 z"
         style="font-style:normal;font-variant:normal;font-weight:normal;font-stretch:normal;font-family:'Oxygen Mono';-inkscape-font-specification:'Oxygen Mono';text-align:start;text-anchor:start;fill:#ffffff;stroke-width:0.264583"
         id="path1495" />
      <path
         d="m 136.33849,199.29073 q 0.52641,0 0.71658,-0.52365 0.10197,-0.28112 0.10197,-0.57602 0,-0.29766 -0.022,-0.46302 -0.0496,-0.37483 -0.23978,-0.61185 -0.18742,-0.23702 -0.55673,-0.23702 -0.51263,0 -0.70004,0.53468 -0.0992,0.28663 -0.0992,0.60082 0,0.55673 0.17363,0.91777 0.17363,0.35829 0.62563,0.35829 z m 0.99219,-2.35644 q 0.32797,0.44097 0.32797,1.15204 0,0.71107 -0.35553,1.15204 -0.35554,0.43821 -0.96463,0.43821 -0.32522,0 -0.57878,-0.12402 -0.25355,-0.12402 -0.41065,-0.34175 -0.31695,-0.43822 -0.31695,-1.14102 0,-0.7028 0.35002,-1.13826 0.35002,-0.43821 0.98392,-0.43821 0.63665,0 0.96463,0.44097 z"
         style="font-style:normal;font-variant:normal;font-weight:normal;font-stretch:normal;font-family:'Oxygen Mono';-inkscape-font-specification:'Oxygen Mono';text-align:start;text-anchor:start;fill:#ffffff;stroke-width:0.264583"
         id="path1497" />
      <path
         d="m 139.53554,199.60768 h -0.50161 v -3.02341 h 0.41066 l 0.0413,0.55948 q 0.18465,-0.3197 0.48507,-0.48507 0.30041,-0.16536 0.68075,-0.16536 h 0.24253 v 0.46577 h -0.31419 q -0.48231,0 -0.76343,0.24254 -0.28112,0.23978 -0.28112,0.72485 z"
         style="font-style:normal;font-variant:normal;font-weight:normal;font-stretch:normal;font-family:'Oxygen Mono';-inkscape-font-specification:'Oxygen Mono';text-align:start;text-anchor:start;fill:#ffffff;stroke-width:0.264583"
         id="path1499" />
      <path
         d="m 143.03299,196.97012 v 1.41938 q 0,0.26458 0.0276,0.41892 0.0303,0.15434 0.11576,0.2508 0.0882,0.0965 0.226,0.12954 0.1378,0.0331 0.37482,0.0331 h 0.55398 l -0.0276,0.38585 h -0.50711 q -0.77997,0 -1.03904,-0.28663 -0.16812,-0.18741 -0.20671,-0.60358 -0.0193,-0.18466 -0.0193,-0.45475 v -1.2926 h -0.85438 l 0.0551,-0.38585 h 0.79926 v -1.0418 l 0.5016,-0.14883 v 1.19063 h 1.27331 v 0.38585 z"
         style="font-style:normal;font-variant:normal;font-weight:normal;font-stretch:normal;font-family:'Oxygen Mono';-inkscape-font-specification:'Oxygen Mono';text-align:start;text-anchor:start;fill:#ffffff;stroke-width:0.264583"
         id="path1501" />
    </g>
    <g
       aria-label="out"
       transform="rotate(90)"
       id="text2146"
       style="font-size:3.70417px;line-height:1.25;font-family:'Roboto Mono';-inkscape-font-specification:'Roboto Mono';text-align:start;letter-spacing:0px;word-spacing:0px;text-anchor:start;fill:#000000;stroke-width:0.264583">
      <path
         d="m 181.66253,-121.64576 q 0.34546,0 0.47025,-0.34365 0.0669,-0.18448 0.0669,-0.37801 0,-0.19534 -0.0145,-0.30386 -0.0326,-0.24598 -0.15736,-0.40152 -0.12299,-0.15555 -0.36535,-0.15555 -0.33642,0 -0.45941,0.35088 -0.0651,0.18811 -0.0651,0.3943 0,0.36535 0.11395,0.60228 0.11395,0.23513 0.41057,0.23513 z m 0.65112,-1.54642 q 0.21523,0.28939 0.21523,0.75603 0,0.46664 -0.23331,0.75603 -0.23332,0.28758 -0.63304,0.28758 -0.21343,0 -0.37982,-0.0814 -0.1664,-0.0814 -0.2695,-0.22428 -0.20799,-0.28758 -0.20799,-0.74879 0,-0.46121 0.2297,-0.74698 0.2297,-0.28758 0.6457,-0.28758 0.4178,0 0.63303,0.28938 z"
         style="font-style:normal;font-variant:normal;font-weight:normal;font-stretch:normal;font-size:3.70417px;font-family:'Oxygen Mono';-inkscape-font-specification:'Oxygen Mono';text-align:start;text-anchor:start;fill:#000000;stroke-width:0.264583"
         id="path1504" />
      <path
         d="m 184.6577,-122.08165 q 0,0.68911 -0.76688,0.68911 -0.76688,0 -0.76688,-0.68911 v -1.34023 h 0.32918 v 1.36917 q 0,0.21162 0.1049,0.30928 0.1049,0.0977 0.3328,0.0977 0.22789,0 0.33279,-0.0977 0.10491,-0.0977 0.10491,-0.30928 v -1.36917 h 0.32918 z"
         style="font-style:normal;font-variant:normal;font-weight:normal;font-stretch:normal;font-size:3.70417px;font-family:'Oxygen Mono';-inkscape-font-specification:'Oxygen Mono';text-align:start;text-anchor:start;fill:#000000;stroke-width:0.264583"
         id="path1506" />
      <path
         d="m 186.0558,-123.16866 v 0.93147 q 0,0.17363 0.0181,0.27491 0.0199,0.10129 0.076,0.16459 0.0579,0.0633 0.14831,0.085 0.0904,0.0217 0.24598,0.0217 h 0.36354 l -0.0181,0.25321 h -0.33279 q -0.51186,0 -0.68187,-0.1881 -0.11033,-0.12299 -0.13565,-0.3961 -0.0127,-0.12118 -0.0127,-0.29843 v -0.84827 h -0.56069 l 0.0362,-0.25322 h 0.52452 v -0.68368 l 0.32917,-0.0977 v 0.78135 h 0.83561 v 0.25322 z"
         style="font-style:normal;font-variant:normal;font-weight:normal;font-stretch:normal;font-size:3.70417px;font-family:'Oxygen Mono';-inkscape-font-specification:'Oxygen Mono';text-align:start;text-anchor:start;fill:#000000;stroke-width:0.264583"
         id="path1508" />
    </g>
    <g
       aria-label="in"
       transform="rotate(90)"
       id="text2150"
       style="font-size:3.70417px;line-height:1.25;font-family:'Roboto Mono';-inkscape-font-specification:'Roboto Mono';text-align:start;letter-spacing:0px;word-spacing:0px;text-anchor:start;fill:#000000;stroke-width:0.264583">
      <path
         d="m 191.8203,-123.81437 v -0.17906 q 0,-0.0651 0.0723,-0.11394 0.0742,-0.0506 0.14651,-0.0506 0.0723,0 0.14469,0.0506 0.0742,0.0488 0.0742,0.11394 v 0.17906 q 0,0.0651 -0.0742,0.11576 -0.0724,0.0488 -0.14469,0.0488 -0.0724,0 -0.14651,-0.0488 -0.0723,-0.0506 -0.0723,-0.11576 z m -0.51186,0.77593 v -0.25322 h 0.8953 v 1.7309 h 0.56792 v 0.25322 h -1.52652 v -0.25322 h 0.62942 v -1.47768 z"
         style="font-style:normal;font-variant:normal;font-weight:normal;font-stretch:normal;font-size:3.70417px;font-family:'Oxygen Mono';-inkscape-font-specification:'Oxygen Mono';text-align:start;text-anchor:start;fill:#000000;stroke-width:0.264583"
         id="path1511" />
      <path
         d="m 194.35968,-123.35135 q 0.61676,0 0.61676,0.78135 v 1.26246 h -0.32918 v -1.22267 q 0,-0.2098 -0.0217,-0.30024 -0.0217,-0.0904 -0.0651,-0.14831 -0.0922,-0.11937 -0.30205,-0.11937 -0.21161,0 -0.35811,0.12299 -0.14651,0.12299 -0.14651,0.32556 v 1.34204 h -0.32918 v -1.98412 h 0.30205 l 0.0181,0.21523 q 0.19714,-0.27492 0.61495,-0.27492 z"
         style="font-style:normal;font-variant:normal;font-weight:normal;font-stretch:normal;font-size:3.70417px;font-family:'Oxygen Mono';-inkscape-font-specification:'Oxygen Mono';text-align:start;text-anchor:start;fill:#000000;stroke-width:0.264583"
         id="path1513" />
    </g>
    <path
       style="fill:none;stroke:#ff0000;stroke-width:8.46667;stroke-linecap:butt;stroke-linejoin:miter;stroke-miterlimit:4;stroke-dasharray:none;stroke-opacity:1"
       d="m 95.281217,142.45767 c 16.933343,0 8.466673,55.03333 25.400003,55.03333"
       id="path2152" />
    <path
       style="fill:none;stroke:#0000ff;stroke-width:0.264583;stroke-linecap:butt;stroke-linejoin:miter;stroke-miterlimit:4;stroke-dasharray:0.264583, 0.79375;stroke-dashoffset:0;stroke-opacity:1;marker-end:url(#marker2176)"
       d="M 196.88123,193.25767 V 146.69101"
       id="path2172" />
    <g
       aria-label="bash"
       id="text1979"
       style="font-size:5.64444px;line-height:1.25;font-family:'Roboto Mono';-inkscape-font-specification:'Roboto Mono';text-align:start;letter-spacing:0px;word-spacing:0px;text-anchor:start;fill:#ffffff;stroke-width:0.264583">
      <path
         d="m 92.040069,143.4223 q 0.04961,0.38585 0.23151,0.60909 0.184657,0.22325 0.562239,0.22325 0.509874,0 0.689019,-0.52917 0.09095,-0.27836 0.09095,-0.57878 0,-0.30316 -0.01929,-0.46577 -0.04134,-0.38585 -0.21773,-0.60909 -0.173633,-0.226 -0.542947,-0.226 -0.61736,0 -0.755164,0.59531 -0.05788,0.24805 -0.05788,0.53192 0,0.28112 0.01929,0.44924 z m -0.01929,-1.45521 q 0.305925,-0.50711 0.915017,-0.50711 0.611848,0 0.895724,0.44097 0.286632,0.44097 0.286632,1.10794 0,0.87368 -0.413411,1.31465 -0.297656,0.3197 -0.810286,0.3197 -0.338997,0 -0.518142,-0.12402 -0.176389,-0.12678 -0.355534,-0.35829 l -0.0055,0.41341 h -0.496093 v -4.25813 l 0.501605,-0.0551 z"
         style="font-style:normal;font-variant:normal;font-weight:normal;font-stretch:normal;font-family:'Oxygen Mono';-inkscape-font-specification:'Oxygen Mono';text-align:start;text-anchor:start;fill:#ffffff;stroke-width:0.264583"
         id="path1516" />
      <path
         d="m 96.775005,143.8991 v -0.7717 l -0.410656,0.0579 q -0.429947,0.0606 -0.595312,0.12127 -0.369314,0.14056 -0.369314,0.47129 0,0.22875 0.132292,0.3638 0.132292,0.13504 0.363802,0.13504 0.509874,0 0.879188,-0.37758 z m 0,-1.40835 q 0,-0.64768 -0.548459,-0.64768 -0.259071,0 -0.573264,0.0606 -0.311436,0.0606 -0.438216,0.11576 l -0.118511,-0.36931 q 0.570508,-0.19017 1.072113,-0.19017 0.501606,0 0.804774,0.22875 0.303168,0.22876 0.303168,0.70556 v 2.18005 h -0.416167 l -0.06615,-0.35002 q -0.176389,0.17914 -0.454752,0.30041 -0.275608,0.11851 -0.540191,0.11851 -0.383094,0 -0.636653,-0.22875 -0.253559,-0.23151 -0.253559,-0.65044 0,-0.42167 0.330729,-0.61736 0.223242,-0.1378 0.474045,-0.18741 0.253559,-0.0524 0.658702,-0.10197 l 0.402387,-0.0469 z"
         style="font-style:normal;font-variant:normal;font-weight:normal;font-stretch:normal;font-family:'Oxygen Mono';-inkscape-font-specification:'Oxygen Mono';text-align:start;text-anchor:start;fill:#ffffff;stroke-width:0.264583"
         id="path1518" />
      <path
         d="m 99.883856,142.85731 q 0.391364,0.0965 0.570504,0.30592 0.1819,0.20946 0.1819,0.60634 0,0.39412 -0.30316,0.63389 -0.30042,0.23978 -0.755168,0.23978 -0.325217,0 -0.631141,-0.0799 -0.305924,-0.0827 -0.451996,-0.19293 l 0.124023,-0.36104 q 0.115755,0.0716 0.366558,0.14607 0.250803,0.0717 0.542947,0.0717 0.2949,0 0.468532,-0.12127 0.176385,-0.12403 0.176385,-0.32797 0,-0.20395 -0.0882,-0.31971 -0.08544,-0.11851 -0.333485,-0.17914 l -0.51263,-0.12403 q -0.443728,-0.11024 -0.5898,-0.3197 -0.146072,-0.21222 -0.146072,-0.52641 0,-0.31419 0.253559,-0.57878 0.256315,-0.26458 0.74414,-0.27009 h 0.03583 q 0.548459,0 0.934309,0.2067 l -0.11024,0.35278 q -0.40239,-0.17088 -0.815801,-0.17088 -0.256315,0.003 -0.421679,0.12954 -0.162608,0.12402 -0.162608,0.31419 0,0.19017 0.08268,0.28663 0.08268,0.0937 0.314192,0.14883 z"
         style="font-style:normal;font-variant:normal;font-weight:normal;font-stretch:normal;font-family:'Oxygen Mono';-inkscape-font-specification:'Oxygen Mono';text-align:start;text-anchor:start;fill:#ffffff;stroke-width:0.264583"
         id="path1520" />
      <path
         d="m 104.08687,142.74982 v 1.82452 h -0.50161 v -1.76113 q 0,-0.56775 -0.15158,-0.76619 -0.15158,-0.20119 -0.45751,-0.20119 -0.30868,0 -0.53743,0.21497 -0.226,0.21222 -0.226,0.45751 v 2.05603 h -0.50161 v -4.25813 l 0.50161,-0.0551 v 1.65641 q 0.35278,-0.45751 0.94533,-0.45751 0.9288,0 0.9288,1.28984 z"
         style="font-style:normal;font-variant:normal;font-weight:normal;font-stretch:normal;font-family:'Oxygen Mono';-inkscape-font-specification:'Oxygen Mono';text-align:start;text-anchor:start;fill:#ffffff;stroke-width:0.264583"
         id="path1522" />
    </g>
  </g>
</svg>
